<?xml version="1.0" encoding="utf-8" standalone="no"?>
<!DOCTYPE svg PUBLIC "-//W3C//DTD SVG 1.1//EN"
  "http://www.w3.org/Graphics/SVG/1.1/DTD/svg11.dtd">
<svg xmlns:xlink="http://www.w3.org/1999/xlink" width="438.1225pt" height="270.54825pt" viewBox="0 0 438.1225 270.54825" xmlns="http://www.w3.org/2000/svg" version="1.1">
 <metadata>
  <rdf:RDF xmlns:dc="http://purl.org/dc/elements/1.1/" xmlns:cc="http://creativecommons.org/ns#" xmlns:rdf="http://www.w3.org/1999/02/22-rdf-syntax-ns#">
   <cc:Work>
    <dc:type rdf:resource="http://purl.org/dc/dcmitype/StillImage"/>
    <dc:date>2026-03-07T11:02:35.565718</dc:date>
    <dc:format>image/svg+xml</dc:format>
    <dc:creator>
     <cc:Agent>
      <dc:title>Matplotlib v3.8.4, https://matplotlib.org/</dc:title>
     </cc:Agent>
    </dc:creator>
   </cc:Work>
  </rdf:RDF>
 </metadata>
 <defs>
  <style type="text/css">*{stroke-linejoin: round; stroke-linecap: butt}</style>
 </defs>
 <g id="figure_1">
  <g id="patch_1">
   <path d="M 0 270.54825 
L 438.1225 270.54825 
L 438.1225 0 
L 0 0 
z
" style="fill: #ffffff"/>
  </g>
  <g id="axes_1">
   <g id="patch_2">
    <path d="M 40.3225 232.992 
L 430.9225 232.992 
L 430.9225 22.32 
L 40.3225 22.32 
z
" style="fill: #ffffff"/>
   </g>
   <g id="PolyCollection_1">
    <defs>
     <path id="m70a5ae7daf" d="M 58.077045 -47.13225 
L 58.077045 -238.65225 
L 58.669852 -236.830225 
L 59.262658 -235.016911 
L 59.855464 -233.212309 
L 60.44827 -231.416418 
L 61.041076 -229.629239 
L 61.633883 -227.850771 
L 62.226689 -226.081015 
L 62.819495 -224.319971 
L 63.412301 -222.567638 
L 64.005107 -220.824016 
L 64.597914 -219.089107 
L 65.19072 -217.362909 
L 65.783526 -215.645422 
L 66.376332 -213.936647 
L 66.969138 -212.236583 
L 67.561945 -210.545231 
L 68.154751 -208.862591 
L 68.747557 -207.188662 
L 69.340363 -205.523445 
L 69.933169 -203.866939 
L 70.525975 -202.219145 
L 71.118782 -200.580063 
L 71.711588 -198.949692 
L 72.304394 -197.328032 
L 72.8972 -195.715085 
L 73.490006 -194.110848 
L 74.082813 -192.515324 
L 74.675619 -190.92851 
L 75.268425 -189.350409 
L 75.861231 -187.781019 
L 76.454037 -186.22034 
L 77.046844 -184.668374 
L 77.63965 -183.125118 
L 78.232456 -181.590574 
L 78.825262 -180.064742 
L 79.418068 -178.547622 
L 80.010875 -177.039212 
L 80.603681 -175.539515 
L 81.196487 -174.048529 
L 81.789293 -172.566255 
L 82.382099 -171.092692 
L 82.974906 -169.62784 
L 83.567712 -168.171701 
L 84.160518 -166.724272 
L 84.753324 -165.285556 
L 85.34613 -163.855551 
L 85.938936 -162.434257 
L 86.531743 -161.021675 
L 87.124549 -159.617805 
L 87.717355 -158.222646 
L 88.310161 -156.836199 
L 88.902967 -155.458463 
L 89.495774 -154.089438 
L 90.08858 -152.729126 
L 90.681386 -151.377525 
L 91.274192 -150.034635 
L 91.866998 -148.700457 
L 92.459805 -147.37499 
L 93.052611 -146.058235 
L 93.645417 -144.750192 
L 94.238223 -143.45086 
L 94.831029 -142.160239 
L 95.423836 -140.87833 
L 96.016642 -139.605133 
L 96.609448 -138.340647 
L 97.202254 -137.084873 
L 97.79506 -135.83781 
L 98.387867 -134.599458 
L 98.980673 -133.369819 
L 99.573479 -132.14889 
L 100.166285 -130.936673 
L 100.759091 -129.733168 
L 101.351897 -128.538374 
L 101.944704 -127.352292 
L 102.53751 -126.174921 
L 103.130316 -125.006262 
L 103.723122 -123.846314 
L 104.315928 -122.695077 
L 104.908735 -121.552552 
L 105.501541 -120.418739 
L 106.094347 -119.293636 
L 106.687153 -118.177246 
L 107.279959 -117.069566 
L 107.872766 -115.970599 
L 108.465572 -114.880342 
L 109.058378 -113.798797 
L 109.651184 -112.725964 
L 110.24399 -111.661841 
L 110.836797 -110.606431 
L 111.429603 -109.559731 
L 112.022409 -108.521743 
L 112.615215 -107.492466 
L 113.208021 -106.471901 
L 113.800828 -105.460047 
L 114.393634 -104.456904 
L 114.98644 -103.462472 
L 115.579246 -102.476752 
L 116.172052 -101.499743 
L 116.764858 -100.531445 
L 117.357665 -99.571859 
L 117.950471 -98.620983 
L 118.543277 -97.678819 
L 119.136083 -96.745366 
L 119.728889 -95.820624 
L 120.321696 -94.904593 
L 120.914502 -93.997274 
L 121.507308 -93.098665 
L 122.100114 -92.208767 
L 122.69292 -91.327581 
L 123.285727 -90.455105 
L 123.878533 -89.59134 
L 124.471339 -88.736286 
L 125.064145 -87.889943 
L 125.656951 -87.052311 
L 126.249758 -86.223389 
L 126.842564 -85.403178 
L 127.43537 -84.591678 
L 128.028176 -83.788889 
L 128.620982 -82.99481 
L 129.213789 -82.209441 
L 129.806595 -81.432783 
L 130.399401 -80.664835 
L 130.992207 -79.905598 
L 131.585013 -79.15507 
L 132.177819 -78.413253 
L 132.770626 -77.680146 
L 133.363432 -76.955749 
L 133.956238 -76.240062 
L 134.549044 -75.533084 
L 135.14185 -74.834816 
L 135.734657 -74.145258 
L 136.327463 -73.464409 
L 136.920269 -72.792269 
L 137.513075 -72.128838 
L 138.105881 -71.474117 
L 138.698688 -70.828104 
L 139.291494 -70.1908 
L 139.8843 -69.562204 
L 140.477106 -68.942317 
L 141.069912 -68.331138 
L 141.662719 -67.728666 
L 142.255525 -67.134903 
L 142.848331 -66.549847 
L 143.441137 -65.973498 
L 144.033943 -65.405856 
L 144.62675 -64.84692 
L 145.219556 -64.296691 
L 145.812362 -63.755168 
L 146.405168 -63.222351 
L 146.997974 -62.698239 
L 147.59078 -62.182832 
L 148.183587 -61.67613 
L 148.776393 -61.178132 
L 149.369199 -60.688837 
L 149.962005 -60.208245 
L 150.554811 -59.736357 
L 151.147618 -59.27317 
L 151.740424 -58.818685 
L 152.33323 -58.3729 
L 152.926036 -57.935816 
L 153.518842 -57.507432 
L 154.111649 -57.087746 
L 154.704455 -56.676758 
L 155.297261 -56.274467 
L 155.890067 -55.880873 
L 156.482873 -55.495974 
L 157.07568 -55.119769 
L 157.668486 -54.752257 
L 158.261292 -54.393437 
L 158.854098 -54.043308 
L 159.446904 -53.701868 
L 160.039711 -53.369117 
L 160.632517 -53.045052 
L 161.225323 -52.729672 
L 161.818129 -52.422975 
L 162.410935 -52.124959 
L 163.003741 -51.835624 
L 163.596548 -51.554965 
L 164.189354 -51.282982 
L 164.78216 -51.019672 
L 165.374966 -50.765033 
L 165.967772 -50.519062 
L 166.560579 -50.281756 
L 167.153385 -50.053111 
L 167.746191 -49.833126 
L 168.338997 -49.621797 
L 168.931803 -49.419119 
L 169.52461 -49.22509 
L 170.117416 -49.039704 
L 170.710222 -48.862959 
L 171.303028 -48.694848 
L 171.895834 -48.535367 
L 172.488641 -48.384511 
L 173.081447 -48.242274 
L 173.674253 -48.10865 
L 174.267059 -47.983633 
L 174.859865 -47.867215 
L 175.452671 -47.75939 
L 176.045478 -47.660149 
L 176.638284 -47.569484 
L 177.23109 -47.487387 
L 177.823896 -47.413848 
L 178.416702 -47.348857 
L 179.009509 -47.292402 
L 179.602315 -47.244473 
L 180.195121 -47.205058 
L 180.787927 -47.174142 
L 181.380733 -47.151712 
L 181.97354 -47.137753 
L 182.566346 -47.13225 
L 183.159152 -47.135185 
L 183.751958 -47.146539 
L 184.344764 -47.166294 
L 184.937571 -47.194429 
L 185.530377 -47.230922 
L 186.123183 -47.275749 
L 186.715989 -47.328884 
L 187.308795 -47.390302 
L 187.901602 -47.459973 
L 188.494408 -47.537866 
L 189.087214 -47.62395 
L 189.68002 -47.718188 
L 190.272826 -47.820544 
L 190.865632 -47.930978 
L 191.458439 -48.049448 
L 192.051245 -48.175907 
L 192.644051 -48.310308 
L 193.236857 -48.452598 
L 193.829663 -48.602724 
L 194.42247 -48.760625 
L 195.015276 -48.926239 
L 195.608082 -49.099499 
L 196.200888 -49.280334 
L 196.793694 -49.468666 
L 197.386501 -49.664416 
L 197.979307 -49.867496 
L 198.572113 -50.077814 
L 199.164919 -50.295271 
L 199.757725 -50.519761 
L 200.350532 -50.751175 
L 200.943338 -50.989391 
L 201.536144 -51.234283 
L 202.12895 -51.485716 
L 202.721756 -51.743546 
L 203.314563 -52.00762 
L 203.907369 -52.277775 
L 204.500175 -52.553839 
L 205.092981 -52.835628 
L 205.685787 -53.122946 
L 206.278593 -53.415587 
L 206.8714 -53.71333 
L 207.464206 -54.015943 
L 208.057012 -54.32318 
L 208.649818 -54.634778 
L 209.242624 -54.950461 
L 209.835431 -55.269939 
L 210.428237 -55.592901 
L 211.021043 -55.919023 
L 211.613849 -56.247963 
L 212.206655 -56.579358 
L 212.799462 -56.912829 
L 213.392268 -57.247979 
L 213.985074 -57.584389 
L 214.57788 -57.921621 
L 215.170686 -58.259218 
L 215.763493 -58.596702 
L 216.356299 -58.933575 
L 216.949105 -59.269321 
L 217.541911 -59.603401 
L 218.134717 -59.935261 
L 218.727524 -60.264325 
L 219.32033 -60.590001 
L 219.913136 -60.911682 
L 220.505942 -61.228744 
L 221.098748 -61.54055 
L 221.691554 -61.846452 
L 222.284361 -62.145792 
L 222.877167 -62.437905 
L 223.469973 -62.722123 
L 224.062779 -62.997775 
L 224.655585 -63.264192 
L 225.248392 -63.520713 
L 225.841198 -63.766682 
L 226.434004 -64.00146 
L 227.02681 -64.224421 
L 227.619616 -64.434965 
L 228.212423 -64.632512 
L 228.805229 -64.816517 
L 229.398035 -64.986464 
L 229.990841 -65.141879 
L 230.583647 -65.282328 
L 231.176454 -65.407421 
L 231.76926 -65.516819 
L 232.362066 -65.610235 
L 232.954872 -65.687435 
L 233.547678 -65.748241 
L 234.140485 -65.792534 
L 234.733291 -65.820254 
L 235.326097 -65.831399 
L 235.918903 -65.826028 
L 236.511709 -65.804258 
L 237.104515 -65.766262 
L 237.697322 -65.712269 
L 238.290128 -65.642562 
L 238.882934 -65.557473 
L 239.47574 -65.457382 
L 240.068546 -65.342713 
L 240.661353 -65.21393 
L 241.254159 -65.071531 
L 241.846965 -64.916047 
L 242.439771 -64.748039 
L 243.032577 -64.568087 
L 243.625384 -64.376794 
L 244.21819 -64.174776 
L 244.810996 -63.96266 
L 245.403802 -63.741082 
L 245.996608 -63.510682 
L 246.589415 -63.272097 
L 247.182221 -63.025966 
L 247.775027 -62.77292 
L 248.367833 -62.513582 
L 248.960639 -62.248566 
L 249.553446 -61.978472 
L 250.146252 -61.703889 
L 250.739058 -61.425387 
L 251.331864 -61.143523 
L 251.92467 -60.858835 
L 252.517476 -60.57184 
L 253.110283 -60.283041 
L 253.703089 -59.992918 
L 254.295895 -59.701934 
L 254.888701 -59.41053 
L 255.481507 -59.119129 
L 256.074314 -58.828134 
L 256.66712 -58.537931 
L 257.259926 -58.248883 
L 257.852732 -57.96134 
L 258.445538 -57.675629 
L 259.038345 -57.392064 
L 259.631151 -57.110939 
L 260.223957 -56.832534 
L 260.816763 -56.557112 
L 261.409569 -56.284923 
L 262.002376 -56.0162 
L 262.595182 -55.751165 
L 263.187988 -55.490025 
L 263.780794 -55.232976 
L 264.3736 -54.980201 
L 264.966407 -54.731873 
L 265.559213 -54.488153 
L 266.152019 -54.249194 
L 266.744825 -54.015137 
L 267.337631 -53.786116 
L 267.930437 -53.562255 
L 268.523244 -53.343672 
L 269.11605 -53.130475 
L 269.708856 -52.922766 
L 270.301662 -52.720642 
L 270.894468 -52.524191 
L 271.487275 -52.333497 
L 272.080081 -52.148638 
L 272.672887 -51.969685 
L 273.265693 -51.796708 
L 273.858499 -51.629768 
L 274.451306 -51.468926 
L 275.044112 -51.314235 
L 275.636918 -51.165749 
L 276.229724 -51.023513 
L 276.82253 -50.887573 
L 277.415337 -50.757969 
L 278.008143 -50.634742 
L 278.600949 -50.517926 
L 279.193755 -50.407555 
L 279.786561 -50.30366 
L 280.379368 -50.206271 
L 280.972174 -50.115414 
L 281.56498 -50.031114 
L 282.157786 -49.953394 
L 282.750592 -49.882277 
L 283.343398 -49.817782 
L 283.936205 -49.759928 
L 284.529011 -49.708733 
L 285.121817 -49.664213 
L 285.714623 -49.626382 
L 286.307429 -49.595256 
L 286.900236 -49.570846 
L 287.493042 -49.553165 
L 288.085848 -49.542225 
L 288.678654 -49.538034 
L 289.27146 -49.540604 
L 289.864267 -49.549944 
L 290.457073 -49.56606 
L 291.049879 -49.588962 
L 291.642685 -49.618656 
L 292.235491 -49.65515 
L 292.828298 -49.698448 
L 293.421104 -49.748558 
L 294.01391 -49.805484 
L 294.606716 -49.869231 
L 295.199522 -49.939804 
L 295.792329 -50.017207 
L 296.385135 -50.101444 
L 296.977941 -50.192518 
L 297.570747 -50.290434 
L 298.163553 -50.395194 
L 298.756359 -50.506801 
L 299.349166 -50.625257 
L 299.941972 -50.750566 
L 300.534778 -50.882729 
L 301.127584 -51.021749 
L 301.72039 -51.167628 
L 302.313197 -51.320367 
L 302.906003 -51.479968 
L 303.498809 -51.646434 
L 304.091615 -51.819764 
L 304.684421 -51.999961 
L 305.277228 -52.187026 
L 305.870034 -52.38096 
L 306.46284 -52.581764 
L 307.055646 -52.789439 
L 307.648452 -53.003986 
L 308.241259 -53.225406 
L 308.834065 -53.4537 
L 309.426871 -53.688868 
L 310.019677 -53.930911 
L 310.612483 -54.179829 
L 311.205289 -54.435624 
L 311.798096 -54.698296 
L 312.390902 -54.967845 
L 312.983708 -55.244271 
L 313.576514 -55.527576 
L 314.16932 -55.817759 
L 314.762127 -56.114821 
L 315.354933 -56.418763 
L 315.947739 -56.729584 
L 316.540545 -57.047284 
L 317.133351 -57.371865 
L 317.726158 -57.703326 
L 318.318964 -58.041668 
L 318.91177 -58.38689 
L 319.504576 -58.738994 
L 320.097382 -59.097978 
L 320.690189 -59.463844 
L 321.282995 -59.836591 
L 321.875801 -60.21622 
L 322.468607 -60.60273 
L 323.061413 -60.996122 
L 323.65422 -61.396397 
L 324.247026 -61.803553 
L 324.839832 -62.217591 
L 325.432638 -62.638512 
L 326.025444 -63.066314 
L 326.61825 -63.501 
L 327.211057 -63.942567 
L 327.803863 -64.391017 
L 328.396669 -64.84635 
L 328.989475 -65.308565 
L 329.582281 -65.777663 
L 330.175088 -66.253643 
L 330.767894 -66.736507 
L 331.3607 -67.226253 
L 331.953506 -67.722882 
L 332.546312 -68.226393 
L 333.139119 -68.736788 
L 333.731925 -69.254066 
L 334.324731 -69.778226 
L 334.917537 -70.309269 
L 335.510343 -70.847196 
L 336.10315 -71.392005 
L 336.695956 -71.943697 
L 337.288762 -72.502273 
L 337.881568 -73.067731 
L 338.474374 -73.640072 
L 339.067181 -74.219297 
L 339.659987 -74.805404 
L 340.252793 -75.398395 
L 340.845599 -75.998269 
L 341.438405 -76.605026 
L 342.031211 -77.218666 
L 342.624018 -77.839189 
L 343.216824 -78.466595 
L 343.80963 -79.100885 
L 344.402436 -79.742057 
L 344.995242 -80.390113 
L 345.588049 -81.045052 
L 346.180855 -81.706874 
L 346.773661 -82.375579 
L 347.366467 -83.051167 
L 347.959273 -83.733639 
L 348.55208 -84.422993 
L 349.144886 -85.119231 
L 349.737692 -85.822352 
L 350.330498 -86.532357 
L 350.923304 -87.249244 
L 351.516111 -87.973015 
L 352.108917 -88.703669 
L 352.701723 -89.441206 
L 353.294529 -90.185626 
L 353.887335 -90.936929 
L 354.480142 -91.695116 
L 355.072948 -92.460186 
L 355.665754 -93.232139 
L 356.25856 -94.010975 
L 356.851366 -94.796695 
L 357.444172 -95.589297 
L 358.036979 -96.388783 
L 358.629785 -97.195152 
L 359.222591 -98.008404 
L 359.815397 -98.82854 
L 360.408203 -99.655559 
L 361.00101 -100.489461 
L 361.593816 -101.330246 
L 362.186622 -102.177914 
L 362.779428 -103.032466 
L 363.372234 -103.8939 
L 363.965041 -104.762218 
L 364.557847 -105.63742 
L 365.150653 -106.519504 
L 365.743459 -107.408472 
L 366.336265 -108.304323 
L 366.929072 -109.207057 
L 367.521878 -110.116674 
L 368.114684 -111.033174 
L 368.70749 -111.956558 
L 369.300296 -112.886825 
L 369.893103 -113.823975 
L 370.485909 -114.768008 
L 371.078715 -115.718925 
L 371.671521 -116.676725 
L 372.264327 -117.641408 
L 372.857133 -118.612974 
L 373.44994 -119.591424 
L 374.042746 -120.576756 
L 374.635552 -121.568972 
L 375.228358 -122.568071 
L 375.821164 -123.574053 
L 376.413971 -124.586919 
L 377.006777 -125.606668 
L 377.599583 -126.6333 
L 378.192389 -127.666815 
L 378.785195 -128.707213 
L 379.378002 -129.754495 
L 379.970808 -130.80866 
L 380.563614 -131.869708 
L 381.15642 -132.937639 
L 381.749226 -134.012454 
L 382.342033 -135.094151 
L 382.934839 -136.182732 
L 383.527645 -137.278196 
L 384.120451 -138.380544 
L 384.713257 -139.489774 
L 385.306064 -140.605888 
L 385.89887 -141.728885 
L 386.491676 -142.858765 
L 387.084482 -143.995529 
L 387.677288 -145.139175 
L 388.270094 -146.289705 
L 388.862901 -147.447118 
L 389.455707 -148.611415 
L 390.048513 -149.782594 
L 390.641319 -150.960657 
L 391.234125 -152.145603 
L 391.826932 -153.337432 
L 392.419738 -154.536144 
L 393.012544 -155.74174 
L 393.60535 -156.954219 
L 394.198156 -158.173581 
L 394.790963 -159.399826 
L 395.383769 -160.632955 
L 395.976575 -161.872967 
L 396.569381 -163.119861 
L 397.162187 -164.37364 
L 397.754994 -165.634301 
L 398.3478 -166.901846 
L 398.940606 -168.176273 
L 399.533412 -169.457584 
L 400.126218 -170.745779 
L 400.719025 -172.040856 
L 401.311831 -173.342817 
L 401.904637 -174.651661 
L 402.497443 -175.967388 
L 403.090249 -177.289998 
L 403.683055 -178.619492 
L 404.275862 -179.955868 
L 404.868668 -181.299128 
L 405.461474 -182.649272 
L 406.05428 -184.006298 
L 406.647086 -185.370208 
L 407.239893 -186.741 
L 407.832699 -188.118676 
L 408.425505 -189.503236 
L 409.018311 -190.894678 
L 409.611117 -192.293004 
L 410.203924 -193.698213 
L 410.79673 -195.110305 
L 411.389536 -196.52928 
L 411.982342 -197.955139 
L 412.575148 -199.387881 
L 413.167955 -200.827506 
L 413.167955 -47.13225 
L 413.167955 -47.13225 
L 412.575148 -47.13225 
L 411.982342 -47.13225 
L 411.389536 -47.13225 
L 410.79673 -47.13225 
L 410.203924 -47.13225 
L 409.611117 -47.13225 
L 409.018311 -47.13225 
L 408.425505 -47.13225 
L 407.832699 -47.13225 
L 407.239893 -47.13225 
L 406.647086 -47.13225 
L 406.05428 -47.13225 
L 405.461474 -47.13225 
L 404.868668 -47.13225 
L 404.275862 -47.13225 
L 403.683055 -47.13225 
L 403.090249 -47.13225 
L 402.497443 -47.13225 
L 401.904637 -47.13225 
L 401.311831 -47.13225 
L 400.719025 -47.13225 
L 400.126218 -47.13225 
L 399.533412 -47.13225 
L 398.940606 -47.13225 
L 398.3478 -47.13225 
L 397.754994 -47.13225 
L 397.162187 -47.13225 
L 396.569381 -47.13225 
L 395.976575 -47.13225 
L 395.383769 -47.13225 
L 394.790963 -47.13225 
L 394.198156 -47.13225 
L 393.60535 -47.13225 
L 393.012544 -47.13225 
L 392.419738 -47.13225 
L 391.826932 -47.13225 
L 391.234125 -47.13225 
L 390.641319 -47.13225 
L 390.048513 -47.13225 
L 389.455707 -47.13225 
L 388.862901 -47.13225 
L 388.270094 -47.13225 
L 387.677288 -47.13225 
L 387.084482 -47.13225 
L 386.491676 -47.13225 
L 385.89887 -47.13225 
L 385.306064 -47.13225 
L 384.713257 -47.13225 
L 384.120451 -47.13225 
L 383.527645 -47.13225 
L 382.934839 -47.13225 
L 382.342033 -47.13225 
L 381.749226 -47.13225 
L 381.15642 -47.13225 
L 380.563614 -47.13225 
L 379.970808 -47.13225 
L 379.378002 -47.13225 
L 378.785195 -47.13225 
L 378.192389 -47.13225 
L 377.599583 -47.13225 
L 377.006777 -47.13225 
L 376.413971 -47.13225 
L 375.821164 -47.13225 
L 375.228358 -47.13225 
L 374.635552 -47.13225 
L 374.042746 -47.13225 
L 373.44994 -47.13225 
L 372.857133 -47.13225 
L 372.264327 -47.13225 
L 371.671521 -47.13225 
L 371.078715 -47.13225 
L 370.485909 -47.13225 
L 369.893103 -47.13225 
L 369.300296 -47.13225 
L 368.70749 -47.13225 
L 368.114684 -47.13225 
L 367.521878 -47.13225 
L 366.929072 -47.13225 
L 366.336265 -47.13225 
L 365.743459 -47.13225 
L 365.150653 -47.13225 
L 364.557847 -47.13225 
L 363.965041 -47.13225 
L 363.372234 -47.13225 
L 362.779428 -47.13225 
L 362.186622 -47.13225 
L 361.593816 -47.13225 
L 361.00101 -47.13225 
L 360.408203 -47.13225 
L 359.815397 -47.13225 
L 359.222591 -47.13225 
L 358.629785 -47.13225 
L 358.036979 -47.13225 
L 357.444172 -47.13225 
L 356.851366 -47.13225 
L 356.25856 -47.13225 
L 355.665754 -47.13225 
L 355.072948 -47.13225 
L 354.480142 -47.13225 
L 353.887335 -47.13225 
L 353.294529 -47.13225 
L 352.701723 -47.13225 
L 352.108917 -47.13225 
L 351.516111 -47.13225 
L 350.923304 -47.13225 
L 350.330498 -47.13225 
L 349.737692 -47.13225 
L 349.144886 -47.13225 
L 348.55208 -47.13225 
L 347.959273 -47.13225 
L 347.366467 -47.13225 
L 346.773661 -47.13225 
L 346.180855 -47.13225 
L 345.588049 -47.13225 
L 344.995242 -47.13225 
L 344.402436 -47.13225 
L 343.80963 -47.13225 
L 343.216824 -47.13225 
L 342.624018 -47.13225 
L 342.031211 -47.13225 
L 341.438405 -47.13225 
L 340.845599 -47.13225 
L 340.252793 -47.13225 
L 339.659987 -47.13225 
L 339.067181 -47.13225 
L 338.474374 -47.13225 
L 337.881568 -47.13225 
L 337.288762 -47.13225 
L 336.695956 -47.13225 
L 336.10315 -47.13225 
L 335.510343 -47.13225 
L 334.917537 -47.13225 
L 334.324731 -47.13225 
L 333.731925 -47.13225 
L 333.139119 -47.13225 
L 332.546312 -47.13225 
L 331.953506 -47.13225 
L 331.3607 -47.13225 
L 330.767894 -47.13225 
L 330.175088 -47.13225 
L 329.582281 -47.13225 
L 328.989475 -47.13225 
L 328.396669 -47.13225 
L 327.803863 -47.13225 
L 327.211057 -47.13225 
L 326.61825 -47.13225 
L 326.025444 -47.13225 
L 325.432638 -47.13225 
L 324.839832 -47.13225 
L 324.247026 -47.13225 
L 323.65422 -47.13225 
L 323.061413 -47.13225 
L 322.468607 -47.13225 
L 321.875801 -47.13225 
L 321.282995 -47.13225 
L 320.690189 -47.13225 
L 320.097382 -47.13225 
L 319.504576 -47.13225 
L 318.91177 -47.13225 
L 318.318964 -47.13225 
L 317.726158 -47.13225 
L 317.133351 -47.13225 
L 316.540545 -47.13225 
L 315.947739 -47.13225 
L 315.354933 -47.13225 
L 314.762127 -47.13225 
L 314.16932 -47.13225 
L 313.576514 -47.13225 
L 312.983708 -47.13225 
L 312.390902 -47.13225 
L 311.798096 -47.13225 
L 311.205289 -47.13225 
L 310.612483 -47.13225 
L 310.019677 -47.13225 
L 309.426871 -47.13225 
L 308.834065 -47.13225 
L 308.241259 -47.13225 
L 307.648452 -47.13225 
L 307.055646 -47.13225 
L 306.46284 -47.13225 
L 305.870034 -47.13225 
L 305.277228 -47.13225 
L 304.684421 -47.13225 
L 304.091615 -47.13225 
L 303.498809 -47.13225 
L 302.906003 -47.13225 
L 302.313197 -47.13225 
L 301.72039 -47.13225 
L 301.127584 -47.13225 
L 300.534778 -47.13225 
L 299.941972 -47.13225 
L 299.349166 -47.13225 
L 298.756359 -47.13225 
L 298.163553 -47.13225 
L 297.570747 -47.13225 
L 296.977941 -47.13225 
L 296.385135 -47.13225 
L 295.792329 -47.13225 
L 295.199522 -47.13225 
L 294.606716 -47.13225 
L 294.01391 -47.13225 
L 293.421104 -47.13225 
L 292.828298 -47.13225 
L 292.235491 -47.13225 
L 291.642685 -47.13225 
L 291.049879 -47.13225 
L 290.457073 -47.13225 
L 289.864267 -47.13225 
L 289.27146 -47.13225 
L 288.678654 -47.13225 
L 288.085848 -47.13225 
L 287.493042 -47.13225 
L 286.900236 -47.13225 
L 286.307429 -47.13225 
L 285.714623 -47.13225 
L 285.121817 -47.13225 
L 284.529011 -47.13225 
L 283.936205 -47.13225 
L 283.343398 -47.13225 
L 282.750592 -47.13225 
L 282.157786 -47.13225 
L 281.56498 -47.13225 
L 280.972174 -47.13225 
L 280.379368 -47.13225 
L 279.786561 -47.13225 
L 279.193755 -47.13225 
L 278.600949 -47.13225 
L 278.008143 -47.13225 
L 277.415337 -47.13225 
L 276.82253 -47.13225 
L 276.229724 -47.13225 
L 275.636918 -47.13225 
L 275.044112 -47.13225 
L 274.451306 -47.13225 
L 273.858499 -47.13225 
L 273.265693 -47.13225 
L 272.672887 -47.13225 
L 272.080081 -47.13225 
L 271.487275 -47.13225 
L 270.894468 -47.13225 
L 270.301662 -47.13225 
L 269.708856 -47.13225 
L 269.11605 -47.13225 
L 268.523244 -47.13225 
L 267.930437 -47.13225 
L 267.337631 -47.13225 
L 266.744825 -47.13225 
L 266.152019 -47.13225 
L 265.559213 -47.13225 
L 264.966407 -47.13225 
L 264.3736 -47.13225 
L 263.780794 -47.13225 
L 263.187988 -47.13225 
L 262.595182 -47.13225 
L 262.002376 -47.13225 
L 261.409569 -47.13225 
L 260.816763 -47.13225 
L 260.223957 -47.13225 
L 259.631151 -47.13225 
L 259.038345 -47.13225 
L 258.445538 -47.13225 
L 257.852732 -47.13225 
L 257.259926 -47.13225 
L 256.66712 -47.13225 
L 256.074314 -47.13225 
L 255.481507 -47.13225 
L 254.888701 -47.13225 
L 254.295895 -47.13225 
L 253.703089 -47.13225 
L 253.110283 -47.13225 
L 252.517476 -47.13225 
L 251.92467 -47.13225 
L 251.331864 -47.13225 
L 250.739058 -47.13225 
L 250.146252 -47.13225 
L 249.553446 -47.13225 
L 248.960639 -47.13225 
L 248.367833 -47.13225 
L 247.775027 -47.13225 
L 247.182221 -47.13225 
L 246.589415 -47.13225 
L 245.996608 -47.13225 
L 245.403802 -47.13225 
L 244.810996 -47.13225 
L 244.21819 -47.13225 
L 243.625384 -47.13225 
L 243.032577 -47.13225 
L 242.439771 -47.13225 
L 241.846965 -47.13225 
L 241.254159 -47.13225 
L 240.661353 -47.13225 
L 240.068546 -47.13225 
L 239.47574 -47.13225 
L 238.882934 -47.13225 
L 238.290128 -47.13225 
L 237.697322 -47.13225 
L 237.104515 -47.13225 
L 236.511709 -47.13225 
L 235.918903 -47.13225 
L 235.326097 -47.13225 
L 234.733291 -47.13225 
L 234.140485 -47.13225 
L 233.547678 -47.13225 
L 232.954872 -47.13225 
L 232.362066 -47.13225 
L 231.76926 -47.13225 
L 231.176454 -47.13225 
L 230.583647 -47.13225 
L 229.990841 -47.13225 
L 229.398035 -47.13225 
L 228.805229 -47.13225 
L 228.212423 -47.13225 
L 227.619616 -47.13225 
L 227.02681 -47.13225 
L 226.434004 -47.13225 
L 225.841198 -47.13225 
L 225.248392 -47.13225 
L 224.655585 -47.13225 
L 224.062779 -47.13225 
L 223.469973 -47.13225 
L 222.877167 -47.13225 
L 222.284361 -47.13225 
L 221.691554 -47.13225 
L 221.098748 -47.13225 
L 220.505942 -47.13225 
L 219.913136 -47.13225 
L 219.32033 -47.13225 
L 218.727524 -47.13225 
L 218.134717 -47.13225 
L 217.541911 -47.13225 
L 216.949105 -47.13225 
L 216.356299 -47.13225 
L 215.763493 -47.13225 
L 215.170686 -47.13225 
L 214.57788 -47.13225 
L 213.985074 -47.13225 
L 213.392268 -47.13225 
L 212.799462 -47.13225 
L 212.206655 -47.13225 
L 211.613849 -47.13225 
L 211.021043 -47.13225 
L 210.428237 -47.13225 
L 209.835431 -47.13225 
L 209.242624 -47.13225 
L 208.649818 -47.13225 
L 208.057012 -47.13225 
L 207.464206 -47.13225 
L 206.8714 -47.13225 
L 206.278593 -47.13225 
L 205.685787 -47.13225 
L 205.092981 -47.13225 
L 204.500175 -47.13225 
L 203.907369 -47.13225 
L 203.314563 -47.13225 
L 202.721756 -47.13225 
L 202.12895 -47.13225 
L 201.536144 -47.13225 
L 200.943338 -47.13225 
L 200.350532 -47.13225 
L 199.757725 -47.13225 
L 199.164919 -47.13225 
L 198.572113 -47.13225 
L 197.979307 -47.13225 
L 197.386501 -47.13225 
L 196.793694 -47.13225 
L 196.200888 -47.13225 
L 195.608082 -47.13225 
L 195.015276 -47.13225 
L 194.42247 -47.13225 
L 193.829663 -47.13225 
L 193.236857 -47.13225 
L 192.644051 -47.13225 
L 192.051245 -47.13225 
L 191.458439 -47.13225 
L 190.865632 -47.13225 
L 190.272826 -47.13225 
L 189.68002 -47.13225 
L 189.087214 -47.13225 
L 188.494408 -47.13225 
L 187.901602 -47.13225 
L 187.308795 -47.13225 
L 186.715989 -47.13225 
L 186.123183 -47.13225 
L 185.530377 -47.13225 
L 184.937571 -47.13225 
L 184.344764 -47.13225 
L 183.751958 -47.13225 
L 183.159152 -47.13225 
L 182.566346 -47.13225 
L 181.97354 -47.13225 
L 181.380733 -47.13225 
L 180.787927 -47.13225 
L 180.195121 -47.13225 
L 179.602315 -47.13225 
L 179.009509 -47.13225 
L 178.416702 -47.13225 
L 177.823896 -47.13225 
L 177.23109 -47.13225 
L 176.638284 -47.13225 
L 176.045478 -47.13225 
L 175.452671 -47.13225 
L 174.859865 -47.13225 
L 174.267059 -47.13225 
L 173.674253 -47.13225 
L 173.081447 -47.13225 
L 172.488641 -47.13225 
L 171.895834 -47.13225 
L 171.303028 -47.13225 
L 170.710222 -47.13225 
L 170.117416 -47.13225 
L 169.52461 -47.13225 
L 168.931803 -47.13225 
L 168.338997 -47.13225 
L 167.746191 -47.13225 
L 167.153385 -47.13225 
L 166.560579 -47.13225 
L 165.967772 -47.13225 
L 165.374966 -47.13225 
L 164.78216 -47.13225 
L 164.189354 -47.13225 
L 163.596548 -47.13225 
L 163.003741 -47.13225 
L 162.410935 -47.13225 
L 161.818129 -47.13225 
L 161.225323 -47.13225 
L 160.632517 -47.13225 
L 160.039711 -47.13225 
L 159.446904 -47.13225 
L 158.854098 -47.13225 
L 158.261292 -47.13225 
L 157.668486 -47.13225 
L 157.07568 -47.13225 
L 156.482873 -47.13225 
L 155.890067 -47.13225 
L 155.297261 -47.13225 
L 154.704455 -47.13225 
L 154.111649 -47.13225 
L 153.518842 -47.13225 
L 152.926036 -47.13225 
L 152.33323 -47.13225 
L 151.740424 -47.13225 
L 151.147618 -47.13225 
L 150.554811 -47.13225 
L 149.962005 -47.13225 
L 149.369199 -47.13225 
L 148.776393 -47.13225 
L 148.183587 -47.13225 
L 147.59078 -47.13225 
L 146.997974 -47.13225 
L 146.405168 -47.13225 
L 145.812362 -47.13225 
L 145.219556 -47.13225 
L 144.62675 -47.13225 
L 144.033943 -47.13225 
L 143.441137 -47.13225 
L 142.848331 -47.13225 
L 142.255525 -47.13225 
L 141.662719 -47.13225 
L 141.069912 -47.13225 
L 140.477106 -47.13225 
L 139.8843 -47.13225 
L 139.291494 -47.13225 
L 138.698688 -47.13225 
L 138.105881 -47.13225 
L 137.513075 -47.13225 
L 136.920269 -47.13225 
L 136.327463 -47.13225 
L 135.734657 -47.13225 
L 135.14185 -47.13225 
L 134.549044 -47.13225 
L 133.956238 -47.13225 
L 133.363432 -47.13225 
L 132.770626 -47.13225 
L 132.177819 -47.13225 
L 131.585013 -47.13225 
L 130.992207 -47.13225 
L 130.399401 -47.13225 
L 129.806595 -47.13225 
L 129.213789 -47.13225 
L 128.620982 -47.13225 
L 128.028176 -47.13225 
L 127.43537 -47.13225 
L 126.842564 -47.13225 
L 126.249758 -47.13225 
L 125.656951 -47.13225 
L 125.064145 -47.13225 
L 124.471339 -47.13225 
L 123.878533 -47.13225 
L 123.285727 -47.13225 
L 122.69292 -47.13225 
L 122.100114 -47.13225 
L 121.507308 -47.13225 
L 120.914502 -47.13225 
L 120.321696 -47.13225 
L 119.728889 -47.13225 
L 119.136083 -47.13225 
L 118.543277 -47.13225 
L 117.950471 -47.13225 
L 117.357665 -47.13225 
L 116.764858 -47.13225 
L 116.172052 -47.13225 
L 115.579246 -47.13225 
L 114.98644 -47.13225 
L 114.393634 -47.13225 
L 113.800828 -47.13225 
L 113.208021 -47.13225 
L 112.615215 -47.13225 
L 112.022409 -47.13225 
L 111.429603 -47.13225 
L 110.836797 -47.13225 
L 110.24399 -47.13225 
L 109.651184 -47.13225 
L 109.058378 -47.13225 
L 108.465572 -47.13225 
L 107.872766 -47.13225 
L 107.279959 -47.13225 
L 106.687153 -47.13225 
L 106.094347 -47.13225 
L 105.501541 -47.13225 
L 104.908735 -47.13225 
L 104.315928 -47.13225 
L 103.723122 -47.13225 
L 103.130316 -47.13225 
L 102.53751 -47.13225 
L 101.944704 -47.13225 
L 101.351897 -47.13225 
L 100.759091 -47.13225 
L 100.166285 -47.13225 
L 99.573479 -47.13225 
L 98.980673 -47.13225 
L 98.387867 -47.13225 
L 97.79506 -47.13225 
L 97.202254 -47.13225 
L 96.609448 -47.13225 
L 96.016642 -47.13225 
L 95.423836 -47.13225 
L 94.831029 -47.13225 
L 94.238223 -47.13225 
L 93.645417 -47.13225 
L 93.052611 -47.13225 
L 92.459805 -47.13225 
L 91.866998 -47.13225 
L 91.274192 -47.13225 
L 90.681386 -47.13225 
L 90.08858 -47.13225 
L 89.495774 -47.13225 
L 88.902967 -47.13225 
L 88.310161 -47.13225 
L 87.717355 -47.13225 
L 87.124549 -47.13225 
L 86.531743 -47.13225 
L 85.938936 -47.13225 
L 85.34613 -47.13225 
L 84.753324 -47.13225 
L 84.160518 -47.13225 
L 83.567712 -47.13225 
L 82.974906 -47.13225 
L 82.382099 -47.13225 
L 81.789293 -47.13225 
L 81.196487 -47.13225 
L 80.603681 -47.13225 
L 80.010875 -47.13225 
L 79.418068 -47.13225 
L 78.825262 -47.13225 
L 78.232456 -47.13225 
L 77.63965 -47.13225 
L 77.046844 -47.13225 
L 76.454037 -47.13225 
L 75.861231 -47.13225 
L 75.268425 -47.13225 
L 74.675619 -47.13225 
L 74.082813 -47.13225 
L 73.490006 -47.13225 
L 72.8972 -47.13225 
L 72.304394 -47.13225 
L 71.711588 -47.13225 
L 71.118782 -47.13225 
L 70.525975 -47.13225 
L 69.933169 -47.13225 
L 69.340363 -47.13225 
L 68.747557 -47.13225 
L 68.154751 -47.13225 
L 67.561945 -47.13225 
L 66.969138 -47.13225 
L 66.376332 -47.13225 
L 65.783526 -47.13225 
L 65.19072 -47.13225 
L 64.597914 -47.13225 
L 64.005107 -47.13225 
L 63.412301 -47.13225 
L 62.819495 -47.13225 
L 62.226689 -47.13225 
L 61.633883 -47.13225 
L 61.041076 -47.13225 
L 60.44827 -47.13225 
L 59.855464 -47.13225 
L 59.262658 -47.13225 
L 58.669852 -47.13225 
L 58.077045 -47.13225 
z
" style="stroke: #2e6be5; stroke-opacity: 0.08"/>
    </defs>
    <g clip-path="url(#pd9423abab1)">
     <use xlink:href="#m70a5ae7daf" x="0" y="270.54825" style="fill: #2e6be5; fill-opacity: 0.08; stroke: #2e6be5; stroke-opacity: 0.08"/>
    </g>
   </g>
   <g id="matplotlib.axis_1">
    <g id="xtick_1">
     <g id="line2d_1">
      <defs>
       <path id="ma58f2ac1c7" d="M 0 0 
L 0 3.5 
" style="stroke: #000000; stroke-width: 0.8"/>
      </defs>
      <g>
       <use xlink:href="#ma58f2ac1c7" x="93.586136" y="232.992" style="stroke: #000000; stroke-width: 0.8"/>
      </g>
     </g>
     <g id="text_1">
      <!-- −4 -->
      <g transform="translate(86.952152 246.830594) scale(0.09 -0.09)">
       <defs>
        <path id="DejaVuSans-2212" d="M 678 2272 
L 4684 2272 
L 4684 1741 
L 678 1741 
L 678 2272 
z
" transform="scale(0.015625)"/>
        <path id="DejaVuSans-34" d="M 2419 4116 
L 825 1625 
L 2419 1625 
L 2419 4116 
z
M 2253 4666 
L 3047 4666 
L 3047 1625 
L 3713 1625 
L 3713 1100 
L 3047 1100 
L 3047 0 
L 2419 0 
L 2419 1100 
L 313 1100 
L 313 1709 
L 2253 4666 
z
" transform="scale(0.015625)"/>
       </defs>
       <use xlink:href="#DejaVuSans-2212"/>
       <use xlink:href="#DejaVuSans-34" x="83.789062"/>
      </g>
     </g>
    </g>
    <g id="xtick_2">
     <g id="line2d_2">
      <g>
       <use xlink:href="#ma58f2ac1c7" x="164.604318" y="232.992" style="stroke: #000000; stroke-width: 0.8"/>
      </g>
     </g>
     <g id="text_2">
      <!-- −2 -->
      <g transform="translate(157.970334 246.830594) scale(0.09 -0.09)">
       <defs>
        <path id="DejaVuSans-32" d="M 1228 531 
L 3431 531 
L 3431 0 
L 469 0 
L 469 531 
Q 828 903 1448 1529 
Q 2069 2156 2228 2338 
Q 2531 2678 2651 2914 
Q 2772 3150 2772 3378 
Q 2772 3750 2511 3984 
Q 2250 4219 1831 4219 
Q 1534 4219 1204 4116 
Q 875 4013 500 3803 
L 500 4441 
Q 881 4594 1212 4672 
Q 1544 4750 1819 4750 
Q 2544 4750 2975 4387 
Q 3406 4025 3406 3419 
Q 3406 3131 3298 2873 
Q 3191 2616 2906 2266 
Q 2828 2175 2409 1742 
Q 1991 1309 1228 531 
z
" transform="scale(0.015625)"/>
       </defs>
       <use xlink:href="#DejaVuSans-2212"/>
       <use xlink:href="#DejaVuSans-32" x="83.789062"/>
      </g>
     </g>
    </g>
    <g id="xtick_3">
     <g id="line2d_3">
      <g>
       <use xlink:href="#ma58f2ac1c7" x="235.6225" y="232.992" style="stroke: #000000; stroke-width: 0.8"/>
      </g>
     </g>
     <g id="text_3">
      <!-- 0 -->
      <g transform="translate(232.759375 246.830594) scale(0.09 -0.09)">
       <defs>
        <path id="DejaVuSans-30" d="M 2034 4250 
Q 1547 4250 1301 3770 
Q 1056 3291 1056 2328 
Q 1056 1369 1301 889 
Q 1547 409 2034 409 
Q 2525 409 2770 889 
Q 3016 1369 3016 2328 
Q 3016 3291 2770 3770 
Q 2525 4250 2034 4250 
z
M 2034 4750 
Q 2819 4750 3233 4129 
Q 3647 3509 3647 2328 
Q 3647 1150 3233 529 
Q 2819 -91 2034 -91 
Q 1250 -91 836 529 
Q 422 1150 422 2328 
Q 422 3509 836 4129 
Q 1250 4750 2034 4750 
z
" transform="scale(0.015625)"/>
       </defs>
       <use xlink:href="#DejaVuSans-30"/>
      </g>
     </g>
    </g>
    <g id="xtick_4">
     <g id="line2d_4">
      <g>
       <use xlink:href="#ma58f2ac1c7" x="306.640682" y="232.992" style="stroke: #000000; stroke-width: 0.8"/>
      </g>
     </g>
     <g id="text_4">
      <!-- 2 -->
      <g transform="translate(303.777557 246.830594) scale(0.09 -0.09)">
       <use xlink:href="#DejaVuSans-32"/>
      </g>
     </g>
    </g>
    <g id="xtick_5">
     <g id="line2d_5">
      <g>
       <use xlink:href="#ma58f2ac1c7" x="377.658864" y="232.992" style="stroke: #000000; stroke-width: 0.8"/>
      </g>
     </g>
     <g id="text_5">
      <!-- 4 -->
      <g transform="translate(374.795739 246.830594) scale(0.09 -0.09)">
       <use xlink:href="#DejaVuSans-34"/>
      </g>
     </g>
    </g>
    <g id="text_6">
     <!-- $x$ -->
     <g transform="translate(232.3225 261.060594) scale(0.11 -0.11)">
      <defs>
       <path id="DejaVuSans-Oblique-78" d="M 3841 3500 
L 2234 1784 
L 3219 0 
L 2559 0 
L 1819 1388 
L 531 0 
L -166 0 
L 1556 1844 
L 641 3500 
L 1300 3500 
L 1972 2234 
L 3144 3500 
L 3841 3500 
z
" transform="scale(0.015625)"/>
      </defs>
      <use xlink:href="#DejaVuSans-Oblique-78" transform="translate(0 0.3125)"/>
     </g>
    </g>
   </g>
   <g id="matplotlib.axis_2">
    <g id="ytick_1">
     <g id="line2d_6">
      <defs>
       <path id="mf1e83b8cba" d="M 0 0 
L -3.5 0 
" style="stroke: #000000; stroke-width: 0.8"/>
      </defs>
      <g>
       <use xlink:href="#mf1e83b8cba" x="40.3225" y="223.416" style="stroke: #000000; stroke-width: 0.8"/>
      </g>
     </g>
     <g id="text_7">
      <!-- 0 -->
      <g transform="translate(27.59625 226.835297) scale(0.09 -0.09)">
       <use xlink:href="#DejaVuSans-30"/>
      </g>
     </g>
    </g>
    <g id="ytick_2">
     <g id="line2d_7">
      <g>
       <use xlink:href="#mf1e83b8cba" x="40.3225" y="183.406771" style="stroke: #000000; stroke-width: 0.8"/>
      </g>
     </g>
     <g id="text_8">
      <!-- 2 -->
      <g transform="translate(27.59625 186.826068) scale(0.09 -0.09)">
       <use xlink:href="#DejaVuSans-32"/>
      </g>
     </g>
    </g>
    <g id="ytick_3">
     <g id="line2d_8">
      <g>
       <use xlink:href="#mf1e83b8cba" x="40.3225" y="143.397542" style="stroke: #000000; stroke-width: 0.8"/>
      </g>
     </g>
     <g id="text_9">
      <!-- 4 -->
      <g transform="translate(27.59625 146.816839) scale(0.09 -0.09)">
       <use xlink:href="#DejaVuSans-34"/>
      </g>
     </g>
    </g>
    <g id="ytick_4">
     <g id="line2d_9">
      <g>
       <use xlink:href="#mf1e83b8cba" x="40.3225" y="103.388314" style="stroke: #000000; stroke-width: 0.8"/>
      </g>
     </g>
     <g id="text_10">
      <!-- 6 -->
      <g transform="translate(27.59625 106.80761) scale(0.09 -0.09)">
       <defs>
        <path id="DejaVuSans-36" d="M 2113 2584 
Q 1688 2584 1439 2293 
Q 1191 2003 1191 1497 
Q 1191 994 1439 701 
Q 1688 409 2113 409 
Q 2538 409 2786 701 
Q 3034 994 3034 1497 
Q 3034 2003 2786 2293 
Q 2538 2584 2113 2584 
z
M 3366 4563 
L 3366 3988 
Q 3128 4100 2886 4159 
Q 2644 4219 2406 4219 
Q 1781 4219 1451 3797 
Q 1122 3375 1075 2522 
Q 1259 2794 1537 2939 
Q 1816 3084 2150 3084 
Q 2853 3084 3261 2657 
Q 3669 2231 3669 1497 
Q 3669 778 3244 343 
Q 2819 -91 2113 -91 
Q 1303 -91 875 529 
Q 447 1150 447 2328 
Q 447 3434 972 4092 
Q 1497 4750 2381 4750 
Q 2619 4750 2861 4703 
Q 3103 4656 3366 4563 
z
" transform="scale(0.015625)"/>
       </defs>
       <use xlink:href="#DejaVuSans-36"/>
      </g>
     </g>
    </g>
    <g id="ytick_5">
     <g id="line2d_10">
      <g>
       <use xlink:href="#mf1e83b8cba" x="40.3225" y="63.379085" style="stroke: #000000; stroke-width: 0.8"/>
      </g>
     </g>
     <g id="text_11">
      <!-- 8 -->
      <g transform="translate(27.59625 66.798382) scale(0.09 -0.09)">
       <defs>
        <path id="DejaVuSans-38" d="M 2034 2216 
Q 1584 2216 1326 1975 
Q 1069 1734 1069 1313 
Q 1069 891 1326 650 
Q 1584 409 2034 409 
Q 2484 409 2743 651 
Q 3003 894 3003 1313 
Q 3003 1734 2745 1975 
Q 2488 2216 2034 2216 
z
M 1403 2484 
Q 997 2584 770 2862 
Q 544 3141 544 3541 
Q 544 4100 942 4425 
Q 1341 4750 2034 4750 
Q 2731 4750 3128 4425 
Q 3525 4100 3525 3541 
Q 3525 3141 3298 2862 
Q 3072 2584 2669 2484 
Q 3125 2378 3379 2068 
Q 3634 1759 3634 1313 
Q 3634 634 3220 271 
Q 2806 -91 2034 -91 
Q 1263 -91 848 271 
Q 434 634 434 1313 
Q 434 1759 690 2068 
Q 947 2378 1403 2484 
z
M 1172 3481 
Q 1172 3119 1398 2916 
Q 1625 2713 2034 2713 
Q 2441 2713 2670 2916 
Q 2900 3119 2900 3481 
Q 2900 3844 2670 4047 
Q 2441 4250 2034 4250 
Q 1625 4250 1398 4047 
Q 1172 3844 1172 3481 
z
" transform="scale(0.015625)"/>
       </defs>
       <use xlink:href="#DejaVuSans-38"/>
      </g>
     </g>
    </g>
    <g id="ytick_6">
     <g id="line2d_11">
      <g>
       <use xlink:href="#mf1e83b8cba" x="40.3225" y="23.369856" style="stroke: #000000; stroke-width: 0.8"/>
      </g>
     </g>
     <g id="text_12">
      <!-- 10 -->
      <g transform="translate(21.87 26.789153) scale(0.09 -0.09)">
       <defs>
        <path id="DejaVuSans-31" d="M 794 531 
L 1825 531 
L 1825 4091 
L 703 3866 
L 703 4441 
L 1819 4666 
L 2450 4666 
L 2450 531 
L 3481 531 
L 3481 0 
L 794 0 
L 794 531 
z
" transform="scale(0.015625)"/>
       </defs>
       <use xlink:href="#DejaVuSans-31"/>
       <use xlink:href="#DejaVuSans-30" x="63.623047"/>
      </g>
     </g>
    </g>
    <g id="text_13">
     <!-- $U(x) = -\log\pi(x)$ -->
     <g transform="translate(15.56 172.866) rotate(-90) scale(0.11 -0.11)">
      <defs>
       <path id="DejaVuSans-Oblique-55" d="M 991 4666 
L 1625 4666 
L 1075 1831 
Q 1041 1641 1027 1517 
Q 1013 1394 1013 1300 
Q 1013 869 1253 645 
Q 1494 422 1959 422 
Q 2563 422 2898 753 
Q 3234 1084 3378 1831 
L 3928 4666 
L 4563 4666 
L 4000 1753 
Q 3816 809 3300 359 
Q 2784 -91 1888 -91 
Q 1188 -91 780 261 
Q 372 613 372 1216 
Q 372 1325 387 1461 
Q 403 1597 434 1753 
L 991 4666 
z
" transform="scale(0.015625)"/>
       <path id="DejaVuSans-28" d="M 1984 4856 
Q 1566 4138 1362 3434 
Q 1159 2731 1159 2009 
Q 1159 1288 1364 580 
Q 1569 -128 1984 -844 
L 1484 -844 
Q 1016 -109 783 600 
Q 550 1309 550 2009 
Q 550 2706 781 3412 
Q 1013 4119 1484 4856 
L 1984 4856 
z
" transform="scale(0.015625)"/>
       <path id="DejaVuSans-29" d="M 513 4856 
L 1013 4856 
Q 1481 4119 1714 3412 
Q 1947 2706 1947 2009 
Q 1947 1309 1714 600 
Q 1481 -109 1013 -844 
L 513 -844 
Q 928 -128 1133 580 
Q 1338 1288 1338 2009 
Q 1338 2731 1133 3434 
Q 928 4138 513 4856 
z
" transform="scale(0.015625)"/>
       <path id="DejaVuSans-3d" d="M 678 2906 
L 4684 2906 
L 4684 2381 
L 678 2381 
L 678 2906 
z
M 678 1631 
L 4684 1631 
L 4684 1100 
L 678 1100 
L 678 1631 
z
" transform="scale(0.015625)"/>
       <path id="DejaVuSans-6c" d="M 603 4863 
L 1178 4863 
L 1178 0 
L 603 0 
L 603 4863 
z
" transform="scale(0.015625)"/>
       <path id="DejaVuSans-6f" d="M 1959 3097 
Q 1497 3097 1228 2736 
Q 959 2375 959 1747 
Q 959 1119 1226 758 
Q 1494 397 1959 397 
Q 2419 397 2687 759 
Q 2956 1122 2956 1747 
Q 2956 2369 2687 2733 
Q 2419 3097 1959 3097 
z
M 1959 3584 
Q 2709 3584 3137 3096 
Q 3566 2609 3566 1747 
Q 3566 888 3137 398 
Q 2709 -91 1959 -91 
Q 1206 -91 779 398 
Q 353 888 353 1747 
Q 353 2609 779 3096 
Q 1206 3584 1959 3584 
z
" transform="scale(0.015625)"/>
       <path id="DejaVuSans-67" d="M 2906 1791 
Q 2906 2416 2648 2759 
Q 2391 3103 1925 3103 
Q 1463 3103 1205 2759 
Q 947 2416 947 1791 
Q 947 1169 1205 825 
Q 1463 481 1925 481 
Q 2391 481 2648 825 
Q 2906 1169 2906 1791 
z
M 3481 434 
Q 3481 -459 3084 -895 
Q 2688 -1331 1869 -1331 
Q 1566 -1331 1297 -1286 
Q 1028 -1241 775 -1147 
L 775 -588 
Q 1028 -725 1275 -790 
Q 1522 -856 1778 -856 
Q 2344 -856 2625 -561 
Q 2906 -266 2906 331 
L 2906 616 
Q 2728 306 2450 153 
Q 2172 0 1784 0 
Q 1141 0 747 490 
Q 353 981 353 1791 
Q 353 2603 747 3093 
Q 1141 3584 1784 3584 
Q 2172 3584 2450 3431 
Q 2728 3278 2906 2969 
L 2906 3500 
L 3481 3500 
L 3481 434 
z
" transform="scale(0.015625)"/>
       <path id="DejaVuSans-Oblique-3c0" d="M 584 3500 
L 3938 3500 
L 3825 2925 
L 3384 2925 
L 2966 775 
Q 2922 550 2981 450 
Q 3038 353 3209 353 
Q 3256 353 3325 363 
Q 3397 369 3419 372 
L 3338 -44 
Q 3222 -84 3103 -103 
Q 2981 -122 2866 -122 
Q 2491 -122 2388 81 
Q 2284 288 2391 838 
L 2797 2925 
L 1506 2925 
L 938 0 
L 350 0 
L 919 2925 
L 472 2925 
L 584 3500 
z
" transform="scale(0.015625)"/>
      </defs>
      <use xlink:href="#DejaVuSans-Oblique-55" transform="translate(0 0.015625)"/>
      <use xlink:href="#DejaVuSans-28" transform="translate(73.193359 0.015625)"/>
      <use xlink:href="#DejaVuSans-Oblique-78" transform="translate(112.207031 0.015625)"/>
      <use xlink:href="#DejaVuSans-29" transform="translate(171.386719 0.015625)"/>
      <use xlink:href="#DejaVuSans-3d" transform="translate(229.882812 0.015625)"/>
      <use xlink:href="#DejaVuSans-2212" transform="translate(352.636719 0.015625)"/>
      <use xlink:href="#DejaVuSans-6c" transform="translate(455.908203 0.015625)"/>
      <use xlink:href="#DejaVuSans-6f" transform="translate(483.691406 0.015625)"/>
      <use xlink:href="#DejaVuSans-67" transform="translate(544.873047 0.015625)"/>
      <use xlink:href="#DejaVuSans-Oblique-3c0" transform="translate(624.585286 0.015625)"/>
      <use xlink:href="#DejaVuSans-28" transform="translate(684.790364 0.015625)"/>
      <use xlink:href="#DejaVuSans-Oblique-78" transform="translate(723.804036 0.015625)"/>
      <use xlink:href="#DejaVuSans-29" transform="translate(782.983723 0.015625)"/>
     </g>
    </g>
   </g>
   <g id="line2d_12">
    <path d="M 58.077045 31.896 
L 63.412301 47.980612 
L 68.747557 63.359588 
L 74.082813 78.032926 
L 79.418068 92.000628 
L 84.160518 103.823978 
L 88.902967 115.089787 
L 93.645417 125.798058 
L 98.387867 135.948792 
L 103.130316 145.541988 
L 107.872766 154.577651 
L 112.022409 162.026507 
L 116.172052 169.048507 
L 120.321696 175.643657 
L 124.471339 181.811964 
L 128.620982 187.55344 
L 132.770626 192.868104 
L 136.327463 197.083841 
L 139.8843 200.986046 
L 143.441137 204.574752 
L 146.997974 207.850011 
L 150.554811 210.811893 
L 154.111649 213.460504 
L 157.668486 215.795993 
L 160.632517 217.503198 
L 163.596548 218.993285 
L 166.560579 220.266494 
L 169.52461 221.32316 
L 172.488641 222.163739 
L 175.452671 222.78886 
L 178.416702 223.199393 
L 181.380733 223.396538 
L 184.344764 223.381956 
L 187.308795 223.157948 
L 190.272826 222.727706 
L 193.236857 222.095652 
L 196.200888 221.267916 
L 199.757725 220.028489 
L 203.314563 218.54063 
L 207.464206 216.532307 
L 212.206655 213.968892 
L 222.284361 208.402458 
L 225.248392 207.027537 
L 228.212423 205.915738 
L 230.583647 205.265922 
L 232.954872 204.860815 
L 235.326097 204.716851 
L 237.697322 204.835981 
L 240.068546 205.205537 
L 242.439771 205.800211 
L 245.403802 206.807168 
L 248.960639 208.299684 
L 254.295895 210.846316 
L 262.002376 214.53205 
L 266.744825 216.533113 
L 270.894468 218.024059 
L 274.451306 219.079324 
L 278.008143 219.913508 
L 281.56498 220.517136 
L 285.121817 220.884037 
L 288.678654 221.010216 
L 292.235491 220.8931 
L 295.792329 220.531043 
L 299.349166 219.922993 
L 302.906003 219.068282 
L 306.46284 217.966486 
L 310.019677 216.617339 
L 313.576514 215.020674 
L 317.133351 213.176385 
L 320.690189 211.084406 
L 324.247026 208.744697 
L 327.803863 206.157233 
L 331.3607 203.321997 
L 335.510343 199.701054 
L 339.659987 195.742846 
L 343.80963 191.447365 
L 347.959273 186.814611 
L 352.108917 181.844581 
L 356.25856 176.537275 
L 360.408203 170.892691 
L 364.557847 164.91083 
L 369.300296 157.661425 
L 374.042746 149.971494 
L 378.785195 141.841037 
L 383.527645 133.270054 
L 388.270094 124.258545 
L 393.012544 114.80651 
L 398.3478 103.646404 
L 403.683055 91.928758 
L 409.018311 79.653572 
L 413.167955 69.720744 
L 413.167955 69.720744 
" clip-path="url(#pd9423abab1)" style="fill: none; stroke: #2e6be5; stroke-width: 2; stroke-linecap: square"/>
   </g>
   <g id="patch_3">
    <path d="M 40.3225 232.992 
L 40.3225 22.32 
" style="fill: none; stroke: #000000; stroke-width: 0.8; stroke-linejoin: miter; stroke-linecap: square"/>
   </g>
   <g id="patch_4">
    <path d="M 40.3225 232.992 
L 430.9225 232.992 
" style="fill: none; stroke: #000000; stroke-width: 0.8; stroke-linejoin: miter; stroke-linecap: square"/>
   </g>
   <g id="patch_5">
    <path d="M 309.764402 202.831538 
Q 279.157332 207.62293 249.654843 212.241405 
" style="fill: none; stroke: #d62728; stroke-linecap: round"/>
    <path d="M 253.489917 213.462965 
L 249.654843 212.241405 
L 252.933135 209.906282 
" style="fill: none; stroke: #d62728; stroke-linecap: round"/>
   </g>
   <g id="text_14">
    <!-- accept with $e^{-\Delta U}$ -->
    <g style="fill: #d62728" transform="translate(313.7425 199.410463) scale(0.09 -0.09)">
     <defs>
      <path id="DejaVuSans-61" d="M 2194 1759 
Q 1497 1759 1228 1600 
Q 959 1441 959 1056 
Q 959 750 1161 570 
Q 1363 391 1709 391 
Q 2188 391 2477 730 
Q 2766 1069 2766 1631 
L 2766 1759 
L 2194 1759 
z
M 3341 1997 
L 3341 0 
L 2766 0 
L 2766 531 
Q 2569 213 2275 61 
Q 1981 -91 1556 -91 
Q 1019 -91 701 211 
Q 384 513 384 1019 
Q 384 1609 779 1909 
Q 1175 2209 1959 2209 
L 2766 2209 
L 2766 2266 
Q 2766 2663 2505 2880 
Q 2244 3097 1772 3097 
Q 1472 3097 1187 3025 
Q 903 2953 641 2809 
L 641 3341 
Q 956 3463 1253 3523 
Q 1550 3584 1831 3584 
Q 2591 3584 2966 3190 
Q 3341 2797 3341 1997 
z
" transform="scale(0.015625)"/>
      <path id="DejaVuSans-63" d="M 3122 3366 
L 3122 2828 
Q 2878 2963 2633 3030 
Q 2388 3097 2138 3097 
Q 1578 3097 1268 2742 
Q 959 2388 959 1747 
Q 959 1106 1268 751 
Q 1578 397 2138 397 
Q 2388 397 2633 464 
Q 2878 531 3122 666 
L 3122 134 
Q 2881 22 2623 -34 
Q 2366 -91 2075 -91 
Q 1284 -91 818 406 
Q 353 903 353 1747 
Q 353 2603 823 3093 
Q 1294 3584 2113 3584 
Q 2378 3584 2631 3529 
Q 2884 3475 3122 3366 
z
" transform="scale(0.015625)"/>
      <path id="DejaVuSans-65" d="M 3597 1894 
L 3597 1613 
L 953 1613 
Q 991 1019 1311 708 
Q 1631 397 2203 397 
Q 2534 397 2845 478 
Q 3156 559 3463 722 
L 3463 178 
Q 3153 47 2828 -22 
Q 2503 -91 2169 -91 
Q 1331 -91 842 396 
Q 353 884 353 1716 
Q 353 2575 817 3079 
Q 1281 3584 2069 3584 
Q 2775 3584 3186 3129 
Q 3597 2675 3597 1894 
z
M 3022 2063 
Q 3016 2534 2758 2815 
Q 2500 3097 2075 3097 
Q 1594 3097 1305 2825 
Q 1016 2553 972 2059 
L 3022 2063 
z
" transform="scale(0.015625)"/>
      <path id="DejaVuSans-70" d="M 1159 525 
L 1159 -1331 
L 581 -1331 
L 581 3500 
L 1159 3500 
L 1159 2969 
Q 1341 3281 1617 3432 
Q 1894 3584 2278 3584 
Q 2916 3584 3314 3078 
Q 3713 2572 3713 1747 
Q 3713 922 3314 415 
Q 2916 -91 2278 -91 
Q 1894 -91 1617 61 
Q 1341 213 1159 525 
z
M 3116 1747 
Q 3116 2381 2855 2742 
Q 2594 3103 2138 3103 
Q 1681 3103 1420 2742 
Q 1159 2381 1159 1747 
Q 1159 1113 1420 752 
Q 1681 391 2138 391 
Q 2594 391 2855 752 
Q 3116 1113 3116 1747 
z
" transform="scale(0.015625)"/>
      <path id="DejaVuSans-74" d="M 1172 4494 
L 1172 3500 
L 2356 3500 
L 2356 3053 
L 1172 3053 
L 1172 1153 
Q 1172 725 1289 603 
Q 1406 481 1766 481 
L 2356 481 
L 2356 0 
L 1766 0 
Q 1100 0 847 248 
Q 594 497 594 1153 
L 594 3053 
L 172 3053 
L 172 3500 
L 594 3500 
L 594 4494 
L 1172 4494 
z
" transform="scale(0.015625)"/>
      <path id="DejaVuSans-20" transform="scale(0.015625)"/>
      <path id="DejaVuSans-77" d="M 269 3500 
L 844 3500 
L 1563 769 
L 2278 3500 
L 2956 3500 
L 3675 769 
L 4391 3500 
L 4966 3500 
L 4050 0 
L 3372 0 
L 2619 2869 
L 1863 0 
L 1184 0 
L 269 3500 
z
" transform="scale(0.015625)"/>
      <path id="DejaVuSans-69" d="M 603 3500 
L 1178 3500 
L 1178 0 
L 603 0 
L 603 3500 
z
M 603 4863 
L 1178 4863 
L 1178 4134 
L 603 4134 
L 603 4863 
z
" transform="scale(0.015625)"/>
      <path id="DejaVuSans-68" d="M 3513 2113 
L 3513 0 
L 2938 0 
L 2938 2094 
Q 2938 2591 2744 2837 
Q 2550 3084 2163 3084 
Q 1697 3084 1428 2787 
Q 1159 2491 1159 1978 
L 1159 0 
L 581 0 
L 581 4863 
L 1159 4863 
L 1159 2956 
Q 1366 3272 1645 3428 
Q 1925 3584 2291 3584 
Q 2894 3584 3203 3211 
Q 3513 2838 3513 2113 
z
" transform="scale(0.015625)"/>
      <path id="DejaVuSans-Oblique-65" d="M 3078 2063 
Q 3088 2113 3092 2166 
Q 3097 2219 3097 2272 
Q 3097 2653 2873 2875 
Q 2650 3097 2266 3097 
Q 1838 3097 1509 2826 
Q 1181 2556 1013 2059 
L 3078 2063 
z
M 3578 1613 
L 903 1613 
Q 884 1494 878 1425 
Q 872 1356 872 1306 
Q 872 872 1139 634 
Q 1406 397 1894 397 
Q 2269 397 2603 481 
Q 2938 566 3225 728 
L 3116 159 
Q 2806 34 2476 -28 
Q 2147 -91 1806 -91 
Q 1078 -91 686 257 
Q 294 606 294 1247 
Q 294 1794 489 2264 
Q 684 2734 1063 3103 
Q 1306 3334 1642 3459 
Q 1978 3584 2356 3584 
Q 2950 3584 3301 3228 
Q 3653 2872 3653 2272 
Q 3653 2128 3634 1964 
Q 3616 1800 3578 1613 
z
" transform="scale(0.015625)"/>
      <path id="DejaVuSans-394" d="M 2188 4044 
L 906 525 
L 3472 525 
L 2188 4044 
z
M 50 0 
L 1831 4666 
L 2547 4666 
L 4325 0 
L 50 0 
z
" transform="scale(0.015625)"/>
     </defs>
     <use xlink:href="#DejaVuSans-61" transform="translate(0 0.684375)"/>
     <use xlink:href="#DejaVuSans-63" transform="translate(61.279297 0.684375)"/>
     <use xlink:href="#DejaVuSans-63" transform="translate(116.259766 0.684375)"/>
     <use xlink:href="#DejaVuSans-65" transform="translate(171.240234 0.684375)"/>
     <use xlink:href="#DejaVuSans-70" transform="translate(232.763672 0.684375)"/>
     <use xlink:href="#DejaVuSans-74" transform="translate(296.240234 0.684375)"/>
     <use xlink:href="#DejaVuSans-20" transform="translate(335.449219 0.684375)"/>
     <use xlink:href="#DejaVuSans-77" transform="translate(367.236328 0.684375)"/>
     <use xlink:href="#DejaVuSans-69" transform="translate(449.023438 0.684375)"/>
     <use xlink:href="#DejaVuSans-74" transform="translate(476.806641 0.684375)"/>
     <use xlink:href="#DejaVuSans-68" transform="translate(516.015625 0.684375)"/>
     <use xlink:href="#DejaVuSans-20" transform="translate(579.394531 0.684375)"/>
     <use xlink:href="#DejaVuSans-Oblique-65" transform="translate(611.181641 0.684375)"/>
     <use xlink:href="#DejaVuSans-2212" transform="translate(677.354974 38.965625) scale(0.7)"/>
     <use xlink:href="#DejaVuSans-394" transform="translate(736.007318 38.965625) scale(0.7)"/>
     <use xlink:href="#DejaVuSans-Oblique-55" transform="translate(783.89306 38.965625) scale(0.7)"/>
    </g>
   </g>
   <g id="text_15">
    <!-- MCMC energy landscape  (bimodal target $\pi$) -->
    <g transform="translate(103.0825 16.32) scale(0.12 -0.12)">
     <defs>
      <path id="DejaVuSans-4d" d="M 628 4666 
L 1569 4666 
L 2759 1491 
L 3956 4666 
L 4897 4666 
L 4897 0 
L 4281 0 
L 4281 4097 
L 3078 897 
L 2444 897 
L 1241 4097 
L 1241 0 
L 628 0 
L 628 4666 
z
" transform="scale(0.015625)"/>
      <path id="DejaVuSans-43" d="M 4122 4306 
L 4122 3641 
Q 3803 3938 3442 4084 
Q 3081 4231 2675 4231 
Q 1875 4231 1450 3742 
Q 1025 3253 1025 2328 
Q 1025 1406 1450 917 
Q 1875 428 2675 428 
Q 3081 428 3442 575 
Q 3803 722 4122 1019 
L 4122 359 
Q 3791 134 3420 21 
Q 3050 -91 2638 -91 
Q 1578 -91 968 557 
Q 359 1206 359 2328 
Q 359 3453 968 4101 
Q 1578 4750 2638 4750 
Q 3056 4750 3426 4639 
Q 3797 4528 4122 4306 
z
" transform="scale(0.015625)"/>
      <path id="DejaVuSans-6e" d="M 3513 2113 
L 3513 0 
L 2938 0 
L 2938 2094 
Q 2938 2591 2744 2837 
Q 2550 3084 2163 3084 
Q 1697 3084 1428 2787 
Q 1159 2491 1159 1978 
L 1159 0 
L 581 0 
L 581 3500 
L 1159 3500 
L 1159 2956 
Q 1366 3272 1645 3428 
Q 1925 3584 2291 3584 
Q 2894 3584 3203 3211 
Q 3513 2838 3513 2113 
z
" transform="scale(0.015625)"/>
      <path id="DejaVuSans-72" d="M 2631 2963 
Q 2534 3019 2420 3045 
Q 2306 3072 2169 3072 
Q 1681 3072 1420 2755 
Q 1159 2438 1159 1844 
L 1159 0 
L 581 0 
L 581 3500 
L 1159 3500 
L 1159 2956 
Q 1341 3275 1631 3429 
Q 1922 3584 2338 3584 
Q 2397 3584 2469 3576 
Q 2541 3569 2628 3553 
L 2631 2963 
z
" transform="scale(0.015625)"/>
      <path id="DejaVuSans-79" d="M 2059 -325 
Q 1816 -950 1584 -1140 
Q 1353 -1331 966 -1331 
L 506 -1331 
L 506 -850 
L 844 -850 
Q 1081 -850 1212 -737 
Q 1344 -625 1503 -206 
L 1606 56 
L 191 3500 
L 800 3500 
L 1894 763 
L 2988 3500 
L 3597 3500 
L 2059 -325 
z
" transform="scale(0.015625)"/>
      <path id="DejaVuSans-64" d="M 2906 2969 
L 2906 4863 
L 3481 4863 
L 3481 0 
L 2906 0 
L 2906 525 
Q 2725 213 2448 61 
Q 2172 -91 1784 -91 
Q 1150 -91 751 415 
Q 353 922 353 1747 
Q 353 2572 751 3078 
Q 1150 3584 1784 3584 
Q 2172 3584 2448 3432 
Q 2725 3281 2906 2969 
z
M 947 1747 
Q 947 1113 1208 752 
Q 1469 391 1925 391 
Q 2381 391 2643 752 
Q 2906 1113 2906 1747 
Q 2906 2381 2643 2742 
Q 2381 3103 1925 3103 
Q 1469 3103 1208 2742 
Q 947 2381 947 1747 
z
" transform="scale(0.015625)"/>
      <path id="DejaVuSans-73" d="M 2834 3397 
L 2834 2853 
Q 2591 2978 2328 3040 
Q 2066 3103 1784 3103 
Q 1356 3103 1142 2972 
Q 928 2841 928 2578 
Q 928 2378 1081 2264 
Q 1234 2150 1697 2047 
L 1894 2003 
Q 2506 1872 2764 1633 
Q 3022 1394 3022 966 
Q 3022 478 2636 193 
Q 2250 -91 1575 -91 
Q 1294 -91 989 -36 
Q 684 19 347 128 
L 347 722 
Q 666 556 975 473 
Q 1284 391 1588 391 
Q 1994 391 2212 530 
Q 2431 669 2431 922 
Q 2431 1156 2273 1281 
Q 2116 1406 1581 1522 
L 1381 1569 
Q 847 1681 609 1914 
Q 372 2147 372 2553 
Q 372 3047 722 3315 
Q 1072 3584 1716 3584 
Q 2034 3584 2315 3537 
Q 2597 3491 2834 3397 
z
" transform="scale(0.015625)"/>
      <path id="DejaVuSans-62" d="M 3116 1747 
Q 3116 2381 2855 2742 
Q 2594 3103 2138 3103 
Q 1681 3103 1420 2742 
Q 1159 2381 1159 1747 
Q 1159 1113 1420 752 
Q 1681 391 2138 391 
Q 2594 391 2855 752 
Q 3116 1113 3116 1747 
z
M 1159 2969 
Q 1341 3281 1617 3432 
Q 1894 3584 2278 3584 
Q 2916 3584 3314 3078 
Q 3713 2572 3713 1747 
Q 3713 922 3314 415 
Q 2916 -91 2278 -91 
Q 1894 -91 1617 61 
Q 1341 213 1159 525 
L 1159 0 
L 581 0 
L 581 4863 
L 1159 4863 
L 1159 2969 
z
" transform="scale(0.015625)"/>
      <path id="DejaVuSans-6d" d="M 3328 2828 
Q 3544 3216 3844 3400 
Q 4144 3584 4550 3584 
Q 5097 3584 5394 3201 
Q 5691 2819 5691 2113 
L 5691 0 
L 5113 0 
L 5113 2094 
Q 5113 2597 4934 2840 
Q 4756 3084 4391 3084 
Q 3944 3084 3684 2787 
Q 3425 2491 3425 1978 
L 3425 0 
L 2847 0 
L 2847 2094 
Q 2847 2600 2669 2842 
Q 2491 3084 2119 3084 
Q 1678 3084 1418 2786 
Q 1159 2488 1159 1978 
L 1159 0 
L 581 0 
L 581 3500 
L 1159 3500 
L 1159 2956 
Q 1356 3278 1631 3431 
Q 1906 3584 2284 3584 
Q 2666 3584 2933 3390 
Q 3200 3197 3328 2828 
z
" transform="scale(0.015625)"/>
     </defs>
     <use xlink:href="#DejaVuSans-4d" transform="translate(0 0.015625)"/>
     <use xlink:href="#DejaVuSans-43" transform="translate(86.279297 0.015625)"/>
     <use xlink:href="#DejaVuSans-4d" transform="translate(156.103516 0.015625)"/>
     <use xlink:href="#DejaVuSans-43" transform="translate(242.382812 0.015625)"/>
     <use xlink:href="#DejaVuSans-20" transform="translate(312.207031 0.015625)"/>
     <use xlink:href="#DejaVuSans-65" transform="translate(343.994141 0.015625)"/>
     <use xlink:href="#DejaVuSans-6e" transform="translate(405.517578 0.015625)"/>
     <use xlink:href="#DejaVuSans-65" transform="translate(468.896484 0.015625)"/>
     <use xlink:href="#DejaVuSans-72" transform="translate(530.419922 0.015625)"/>
     <use xlink:href="#DejaVuSans-67" transform="translate(571.533203 0.015625)"/>
     <use xlink:href="#DejaVuSans-79" transform="translate(635.009766 0.015625)"/>
     <use xlink:href="#DejaVuSans-20" transform="translate(694.189453 0.015625)"/>
     <use xlink:href="#DejaVuSans-6c" transform="translate(725.976562 0.015625)"/>
     <use xlink:href="#DejaVuSans-61" transform="translate(753.759766 0.015625)"/>
     <use xlink:href="#DejaVuSans-6e" transform="translate(815.039062 0.015625)"/>
     <use xlink:href="#DejaVuSans-64" transform="translate(878.417969 0.015625)"/>
     <use xlink:href="#DejaVuSans-73" transform="translate(941.894531 0.015625)"/>
     <use xlink:href="#DejaVuSans-63" transform="translate(993.994141 0.015625)"/>
     <use xlink:href="#DejaVuSans-61" transform="translate(1048.974609 0.015625)"/>
     <use xlink:href="#DejaVuSans-70" transform="translate(1110.253906 0.015625)"/>
     <use xlink:href="#DejaVuSans-65" transform="translate(1173.730469 0.015625)"/>
     <use xlink:href="#DejaVuSans-20" transform="translate(1235.253906 0.015625)"/>
     <use xlink:href="#DejaVuSans-20" transform="translate(1267.041016 0.015625)"/>
     <use xlink:href="#DejaVuSans-28" transform="translate(1298.828125 0.015625)"/>
     <use xlink:href="#DejaVuSans-62" transform="translate(1337.841797 0.015625)"/>
     <use xlink:href="#DejaVuSans-69" transform="translate(1401.318359 0.015625)"/>
     <use xlink:href="#DejaVuSans-6d" transform="translate(1429.101562 0.015625)"/>
     <use xlink:href="#DejaVuSans-6f" transform="translate(1526.513672 0.015625)"/>
     <use xlink:href="#DejaVuSans-64" transform="translate(1587.695312 0.015625)"/>
     <use xlink:href="#DejaVuSans-61" transform="translate(1651.171875 0.015625)"/>
     <use xlink:href="#DejaVuSans-6c" transform="translate(1712.451172 0.015625)"/>
     <use xlink:href="#DejaVuSans-20" transform="translate(1740.234375 0.015625)"/>
     <use xlink:href="#DejaVuSans-74" transform="translate(1772.021484 0.015625)"/>
     <use xlink:href="#DejaVuSans-61" transform="translate(1811.230469 0.015625)"/>
     <use xlink:href="#DejaVuSans-72" transform="translate(1872.509766 0.015625)"/>
     <use xlink:href="#DejaVuSans-67" transform="translate(1913.623047 0.015625)"/>
     <use xlink:href="#DejaVuSans-65" transform="translate(1977.099609 0.015625)"/>
     <use xlink:href="#DejaVuSans-74" transform="translate(2038.623047 0.015625)"/>
     <use xlink:href="#DejaVuSans-20" transform="translate(2077.832031 0.015625)"/>
     <use xlink:href="#DejaVuSans-Oblique-3c0" transform="translate(2109.619141 0.015625)"/>
     <use xlink:href="#DejaVuSans-29" transform="translate(2169.824219 0.015625)"/>
    </g>
   </g>
   <g id="PathCollection_1">
    <defs>
     <path id="md8fbbe2bdb" d="M 0 4.743416 
C 1.257969 4.743416 2.464584 4.24362 3.354102 3.354102 
C 4.24362 2.464584 4.743416 1.257969 4.743416 0 
C 4.743416 -1.257969 4.24362 -2.464584 3.354102 -3.354102 
C 2.464584 -4.24362 1.257969 -4.743416 0 -4.743416 
C -1.257969 -4.743416 -2.464584 -4.24362 -3.354102 -3.354102 
C -4.24362 -2.464584 -4.743416 -1.257969 -4.743416 0 
C -4.743416 1.257969 -4.24362 2.464584 -3.354102 3.354102 
C -2.464584 4.24362 -1.257969 4.743416 0 4.743416 
z
" style="stroke: #27ae60"/>
    </defs>
    <g clip-path="url(#pd9423abab1)">
     <use xlink:href="#md8fbbe2bdb" x="182.358864" y="223.416" style="fill: #27ae60; stroke: #27ae60"/>
     <use xlink:href="#md8fbbe2bdb" x="288.886136" y="221.010216" style="fill: #27ae60; stroke: #27ae60"/>
    </g>
   </g>
   <g id="PathCollection_2">
    <defs>
     <path id="m6d0a08dac2" d="M 0 -4.743416 
L -4.743416 4.743416 
L 4.743416 4.743416 
z
" style="stroke: #d62728"/>
    </defs>
    <g clip-path="url(#pd9423abab1)">
     <use xlink:href="#m6d0a08dac2" x="235.918903" y="204.722222" style="fill: #d62728; stroke: #d62728"/>
    </g>
   </g>
   <g id="legend_1">
    <g id="patch_6">
     <path d="M 331.390938 55.940625 
L 424.6225 55.940625 
Q 426.4225 55.940625 426.4225 54.140625 
L 426.4225 28.62 
Q 426.4225 26.82 424.6225 26.82 
L 331.390938 26.82 
Q 329.590937 26.82 329.590937 28.62 
L 329.590937 54.140625 
Q 329.590937 55.940625 331.390938 55.940625 
z
" style="fill: #ffffff; opacity: 0.8; stroke: #cccccc; stroke-linejoin: miter"/>
    </g>
    <g id="PathCollection_3">
     <g>
      <use xlink:href="#md8fbbe2bdb" x="342.190938" y="34.896094" style="fill: #27ae60; stroke: #27ae60"/>
     </g>
    </g>
    <g id="text_16">
     <!-- modes of $\pi$ -->
     <g transform="translate(358.390938 37.258594) scale(0.09 -0.09)">
      <defs>
       <path id="DejaVuSans-66" d="M 2375 4863 
L 2375 4384 
L 1825 4384 
Q 1516 4384 1395 4259 
Q 1275 4134 1275 3809 
L 1275 3500 
L 2222 3500 
L 2222 3053 
L 1275 3053 
L 1275 0 
L 697 0 
L 697 3053 
L 147 3053 
L 147 3500 
L 697 3500 
L 697 3744 
Q 697 4328 969 4595 
Q 1241 4863 1831 4863 
L 2375 4863 
z
" transform="scale(0.015625)"/>
      </defs>
      <use xlink:href="#DejaVuSans-6d" transform="translate(0 0.015625)"/>
      <use xlink:href="#DejaVuSans-6f" transform="translate(97.412109 0.015625)"/>
      <use xlink:href="#DejaVuSans-64" transform="translate(158.59375 0.015625)"/>
      <use xlink:href="#DejaVuSans-65" transform="translate(222.070312 0.015625)"/>
      <use xlink:href="#DejaVuSans-73" transform="translate(283.59375 0.015625)"/>
      <use xlink:href="#DejaVuSans-20" transform="translate(335.693359 0.015625)"/>
      <use xlink:href="#DejaVuSans-6f" transform="translate(367.480469 0.015625)"/>
      <use xlink:href="#DejaVuSans-66" transform="translate(428.662109 0.015625)"/>
      <use xlink:href="#DejaVuSans-20" transform="translate(463.867188 0.015625)"/>
      <use xlink:href="#DejaVuSans-Oblique-3c0" transform="translate(495.654297 0.015625)"/>
     </g>
    </g>
    <g id="PathCollection_4">
     <g>
      <use xlink:href="#m6d0a08dac2" x="342.190938" y="48.106406" style="fill: #d62728; stroke: #d62728"/>
     </g>
    </g>
    <g id="text_17">
     <!-- energy barrier -->
     <g transform="translate(358.390938 50.468906) scale(0.09 -0.09)">
      <use xlink:href="#DejaVuSans-65"/>
      <use xlink:href="#DejaVuSans-6e" x="61.523438"/>
      <use xlink:href="#DejaVuSans-65" x="124.902344"/>
      <use xlink:href="#DejaVuSans-72" x="186.425781"/>
      <use xlink:href="#DejaVuSans-67" x="225.789062"/>
      <use xlink:href="#DejaVuSans-79" x="289.265625"/>
      <use xlink:href="#DejaVuSans-20" x="348.445312"/>
      <use xlink:href="#DejaVuSans-62" x="380.232422"/>
      <use xlink:href="#DejaVuSans-61" x="443.708984"/>
      <use xlink:href="#DejaVuSans-72" x="504.988281"/>
      <use xlink:href="#DejaVuSans-72" x="544.351562"/>
      <use xlink:href="#DejaVuSans-69" x="585.464844"/>
      <use xlink:href="#DejaVuSans-65" x="613.248047"/>
      <use xlink:href="#DejaVuSans-72" x="674.771484"/>
     </g>
    </g>
   </g>
  </g>
 </g>
 <defs>
  <clipPath id="pd9423abab1">
   <rect x="40.3225" y="22.32" width="390.6" height="210.672"/>
  </clipPath>
 </defs>
</svg>
