<?xml version="1.0" encoding="utf-8" standalone="no"?>
<!DOCTYPE svg PUBLIC "-//W3C//DTD SVG 1.1//EN"
  "http://www.w3.org/Graphics/SVG/1.1/DTD/svg11.dtd">
<svg xmlns:xlink="http://www.w3.org/1999/xlink" width="638.64pt" height="291.962pt" viewBox="0 0 638.64 291.962" xmlns="http://www.w3.org/2000/svg" version="1.1">
 <metadata>
  <rdf:RDF xmlns:dc="http://purl.org/dc/elements/1.1/" xmlns:cc="http://creativecommons.org/ns#" xmlns:rdf="http://www.w3.org/1999/02/22-rdf-syntax-ns#">
   <cc:Work>
    <dc:type rdf:resource="http://purl.org/dc/dcmitype/StillImage"/>
    <dc:date>2026-03-07T13:33:21.752214</dc:date>
    <dc:format>image/svg+xml</dc:format>
    <dc:creator>
     <cc:Agent>
      <dc:title>Matplotlib v3.8.4, https://matplotlib.org/</dc:title>
     </cc:Agent>
    </dc:creator>
   </cc:Work>
  </rdf:RDF>
 </metadata>
 <defs>
  <style type="text/css">*{stroke-linejoin: round; stroke-linecap: butt}</style>
 </defs>
 <g id="figure_1">
  <g id="patch_1">
   <path d="M 0 291.962 
L 638.64 291.962 
L 638.64 0 
L 0 0 
z
" style="fill: #ffffff"/>
  </g>
  <g id="axes_1">
   <g id="table_1">
    <g id="patch_2">
     <path d="M 38.412 202.37312 
L 178.866 202.37312 
L 178.866 174.91016 
L 38.412 174.91016 
z
" style="fill: #2e6be5; fill-opacity: 0.2; stroke: #cccccc; stroke-linejoin: miter"/>
    </g>
    <g id="text_1">
     <!-- State -->
     <g transform="translate(95.007516 191.125078) scale(0.09 -0.09)">
      <defs>
       <path id="DejaVuSans-Bold-53" d="M 3834 4519 
L 3834 3531 
Q 3450 3703 3084 3790 
Q 2719 3878 2394 3878 
Q 1963 3878 1756 3759 
Q 1550 3641 1550 3391 
Q 1550 3203 1689 3098 
Q 1828 2994 2194 2919 
L 2706 2816 
Q 3484 2659 3812 2340 
Q 4141 2022 4141 1434 
Q 4141 663 3683 286 
Q 3225 -91 2284 -91 
Q 1841 -91 1394 -6 
Q 947 78 500 244 
L 500 1259 
Q 947 1022 1364 901 
Q 1781 781 2169 781 
Q 2563 781 2772 912 
Q 2981 1044 2981 1288 
Q 2981 1506 2839 1625 
Q 2697 1744 2272 1838 
L 1806 1941 
Q 1106 2091 782 2419 
Q 459 2747 459 3303 
Q 459 4000 909 4375 
Q 1359 4750 2203 4750 
Q 2588 4750 2994 4692 
Q 3400 4634 3834 4519 
z
" transform="scale(0.015625)"/>
       <path id="DejaVuSans-Bold-74" d="M 1759 4494 
L 1759 3500 
L 2913 3500 
L 2913 2700 
L 1759 2700 
L 1759 1216 
Q 1759 972 1856 886 
Q 1953 800 2241 800 
L 2816 800 
L 2816 0 
L 1856 0 
Q 1194 0 917 276 
Q 641 553 641 1216 
L 641 2700 
L 84 2700 
L 84 3500 
L 641 3500 
L 641 4494 
L 1759 4494 
z
" transform="scale(0.015625)"/>
       <path id="DejaVuSans-Bold-61" d="M 2106 1575 
Q 1756 1575 1579 1456 
Q 1403 1338 1403 1106 
Q 1403 894 1545 773 
Q 1688 653 1941 653 
Q 2256 653 2472 879 
Q 2688 1106 2688 1447 
L 2688 1575 
L 2106 1575 
z
M 3816 1997 
L 3816 0 
L 2688 0 
L 2688 519 
Q 2463 200 2181 54 
Q 1900 -91 1497 -91 
Q 953 -91 614 226 
Q 275 544 275 1050 
Q 275 1666 698 1953 
Q 1122 2241 2028 2241 
L 2688 2241 
L 2688 2328 
Q 2688 2594 2478 2717 
Q 2269 2841 1825 2841 
Q 1466 2841 1156 2769 
Q 847 2697 581 2553 
L 581 3406 
Q 941 3494 1303 3539 
Q 1666 3584 2028 3584 
Q 2975 3584 3395 3211 
Q 3816 2838 3816 1997 
z
" transform="scale(0.015625)"/>
       <path id="DejaVuSans-Bold-65" d="M 4031 1759 
L 4031 1441 
L 1416 1441 
Q 1456 1047 1700 850 
Q 1944 653 2381 653 
Q 2734 653 3104 758 
Q 3475 863 3866 1075 
L 3866 213 
Q 3469 63 3072 -14 
Q 2675 -91 2278 -91 
Q 1328 -91 801 392 
Q 275 875 275 1747 
Q 275 2603 792 3093 
Q 1309 3584 2216 3584 
Q 3041 3584 3536 3087 
Q 4031 2591 4031 1759 
z
M 2881 2131 
Q 2881 2450 2695 2645 
Q 2509 2841 2209 2841 
Q 1884 2841 1681 2658 
Q 1478 2475 1428 2131 
L 2881 2131 
z
" transform="scale(0.015625)"/>
      </defs>
      <use xlink:href="#DejaVuSans-Bold-53"/>
      <use xlink:href="#DejaVuSans-Bold-74" x="72.021484"/>
      <use xlink:href="#DejaVuSans-Bold-61" x="119.824219"/>
      <use xlink:href="#DejaVuSans-Bold-74" x="187.304688"/>
      <use xlink:href="#DejaVuSans-Bold-65" x="235.107422"/>
     </g>
    </g>
    <g id="patch_3">
     <path d="M 178.866 202.37312 
L 319.32 202.37312 
L 319.32 174.91016 
L 178.866 174.91016 
z
" style="fill: #2e6be5; fill-opacity: 0.2; stroke: #cccccc; stroke-linejoin: miter"/>
    </g>
    <g id="text_2">
     <!-- $\mu$ -->
     <g transform="translate(246.213 191.106796) scale(0.09 -0.09)">
      <defs>
       <path id="DejaVuSans-Oblique-3bc" d="M -84 -1331 
L 856 3500 
L 1434 3500 
L 1009 1322 
Q 997 1256 987 1175 
Q 978 1094 978 1013 
Q 978 722 1161 565 
Q 1344 409 1684 409 
Q 2147 409 2431 671 
Q 2716 934 2816 1459 
L 3213 3500 
L 3788 3500 
L 3266 809 
Q 3253 750 3248 706 
Q 3244 663 3244 628 
Q 3244 531 3283 486 
Q 3322 441 3406 441 
Q 3438 441 3492 456 
Q 3547 472 3647 513 
L 3559 50 
Q 3422 -19 3297 -55 
Q 3172 -91 3053 -91 
Q 2847 -91 2730 40 
Q 2613 172 2613 403 
Q 2438 153 2195 31 
Q 1953 -91 1625 -91 
Q 1334 -91 1117 43 
Q 900 178 831 397 
L 494 -1331 
L -84 -1331 
z
" transform="scale(0.015625)"/>
      </defs>
      <use xlink:href="#DejaVuSans-Oblique-3bc" transform="translate(0 0.3125)"/>
     </g>
    </g>
    <g id="patch_4">
     <path d="M 319.32 202.37312 
L 459.774 202.37312 
L 459.774 174.91016 
L 319.32 174.91016 
z
" style="fill: #2e6be5; fill-opacity: 0.2; stroke: #cccccc; stroke-linejoin: miter"/>
    </g>
    <g id="text_3">
     <!-- $\sigma$ -->
     <g transform="translate(386.667 191.125078) scale(0.09 -0.09)">
      <defs>
       <path id="DejaVuSans-Oblique-3c3" d="M 2219 3044 
Q 1744 3044 1422 2700 
Q 1081 2341 969 1747 
Q 844 1119 1044 756 
Q 1241 397 1706 397 
Q 2166 397 2503 759 
Q 2844 1122 2966 1747 
Q 3075 2319 2881 2700 
Q 2700 3044 2219 3044 
z
M 2309 3503 
L 4219 3500 
L 4106 2925 
L 3463 2925 
Q 3706 2438 3575 1747 
Q 3406 888 2884 400 
Q 2359 -91 1609 -91 
Q 856 -91 525 400 
Q 194 888 363 1747 
Q 528 2609 1050 3097 
Q 1484 3503 2309 3503 
z
" transform="scale(0.015625)"/>
      </defs>
      <use xlink:href="#DejaVuSans-Oblique-3c3" transform="translate(0 0.265625)"/>
     </g>
    </g>
    <g id="patch_5">
     <path d="M 459.774 202.37312 
L 600.228 202.37312 
L 600.228 174.91016 
L 459.774 174.91016 
z
" style="fill: #2e6be5; fill-opacity: 0.2; stroke: #cccccc; stroke-linejoin: miter"/>
    </g>
    <g id="text_4">
     <!-- Character -->
     <g transform="translate(505.112484 191.125078) scale(0.09 -0.09)">
      <defs>
       <path id="DejaVuSans-Bold-43" d="M 4288 256 
Q 3956 84 3597 -3 
Q 3238 -91 2847 -91 
Q 1681 -91 1000 561 
Q 319 1213 319 2328 
Q 319 3447 1000 4098 
Q 1681 4750 2847 4750 
Q 3238 4750 3597 4662 
Q 3956 4575 4288 4403 
L 4288 3438 
Q 3953 3666 3628 3772 
Q 3303 3878 2944 3878 
Q 2300 3878 1931 3465 
Q 1563 3053 1563 2328 
Q 1563 1606 1931 1193 
Q 2300 781 2944 781 
Q 3303 781 3628 887 
Q 3953 994 4288 1222 
L 4288 256 
z
" transform="scale(0.015625)"/>
       <path id="DejaVuSans-Bold-68" d="M 4056 2131 
L 4056 0 
L 2931 0 
L 2931 347 
L 2931 1625 
Q 2931 2084 2911 2256 
Q 2891 2428 2841 2509 
Q 2775 2619 2662 2680 
Q 2550 2741 2406 2741 
Q 2056 2741 1856 2470 
Q 1656 2200 1656 1722 
L 1656 0 
L 538 0 
L 538 4863 
L 1656 4863 
L 1656 2988 
Q 1909 3294 2193 3439 
Q 2478 3584 2822 3584 
Q 3428 3584 3742 3212 
Q 4056 2841 4056 2131 
z
" transform="scale(0.015625)"/>
       <path id="DejaVuSans-Bold-72" d="M 3138 2547 
Q 2991 2616 2845 2648 
Q 2700 2681 2553 2681 
Q 2122 2681 1889 2404 
Q 1656 2128 1656 1613 
L 1656 0 
L 538 0 
L 538 3500 
L 1656 3500 
L 1656 2925 
Q 1872 3269 2151 3426 
Q 2431 3584 2822 3584 
Q 2878 3584 2943 3579 
Q 3009 3575 3134 3559 
L 3138 2547 
z
" transform="scale(0.015625)"/>
       <path id="DejaVuSans-Bold-63" d="M 3366 3391 
L 3366 2478 
Q 3138 2634 2908 2709 
Q 2678 2784 2431 2784 
Q 1963 2784 1702 2511 
Q 1441 2238 1441 1747 
Q 1441 1256 1702 982 
Q 1963 709 2431 709 
Q 2694 709 2930 787 
Q 3166 866 3366 1019 
L 3366 103 
Q 3103 6 2833 -42 
Q 2563 -91 2291 -91 
Q 1344 -91 809 395 
Q 275 881 275 1747 
Q 275 2613 809 3098 
Q 1344 3584 2291 3584 
Q 2566 3584 2833 3536 
Q 3100 3488 3366 3391 
z
" transform="scale(0.015625)"/>
      </defs>
      <use xlink:href="#DejaVuSans-Bold-43"/>
      <use xlink:href="#DejaVuSans-Bold-68" x="73.388672"/>
      <use xlink:href="#DejaVuSans-Bold-61" x="144.580078"/>
      <use xlink:href="#DejaVuSans-Bold-72" x="212.060547"/>
      <use xlink:href="#DejaVuSans-Bold-61" x="261.376953"/>
      <use xlink:href="#DejaVuSans-Bold-63" x="328.857422"/>
      <use xlink:href="#DejaVuSans-Bold-74" x="388.134766"/>
      <use xlink:href="#DejaVuSans-Bold-65" x="435.9375"/>
      <use xlink:href="#DejaVuSans-Bold-72" x="503.759766"/>
     </g>
    </g>
    <g id="patch_6">
     <path d="M 38.412 229.83608 
L 178.866 229.83608 
L 178.866 202.37312 
L 38.412 202.37312 
z
" style="fill: #27ae60; fill-opacity: 0.2; stroke: #cccccc; stroke-linejoin: miter"/>
    </g>
    <g id="text_5">
     <!-- Bull -->
     <g transform="translate(147.941381 218.588038) scale(0.09 -0.09)">
      <defs>
       <path id="DejaVuSans-42" d="M 1259 2228 
L 1259 519 
L 2272 519 
Q 2781 519 3026 730 
Q 3272 941 3272 1375 
Q 3272 1813 3026 2020 
Q 2781 2228 2272 2228 
L 1259 2228 
z
M 1259 4147 
L 1259 2741 
L 2194 2741 
Q 2656 2741 2882 2914 
Q 3109 3088 3109 3444 
Q 3109 3797 2882 3972 
Q 2656 4147 2194 4147 
L 1259 4147 
z
M 628 4666 
L 2241 4666 
Q 2963 4666 3353 4366 
Q 3744 4066 3744 3513 
Q 3744 3084 3544 2831 
Q 3344 2578 2956 2516 
Q 3422 2416 3680 2098 
Q 3938 1781 3938 1306 
Q 3938 681 3513 340 
Q 3088 0 2303 0 
L 628 0 
L 628 4666 
z
" transform="scale(0.015625)"/>
       <path id="DejaVuSans-75" d="M 544 1381 
L 544 3500 
L 1119 3500 
L 1119 1403 
Q 1119 906 1312 657 
Q 1506 409 1894 409 
Q 2359 409 2629 706 
Q 2900 1003 2900 1516 
L 2900 3500 
L 3475 3500 
L 3475 0 
L 2900 0 
L 2900 538 
Q 2691 219 2414 64 
Q 2138 -91 1772 -91 
Q 1169 -91 856 284 
Q 544 659 544 1381 
z
M 1991 3584 
L 1991 3584 
z
" transform="scale(0.015625)"/>
       <path id="DejaVuSans-6c" d="M 603 4863 
L 1178 4863 
L 1178 0 
L 603 0 
L 603 4863 
z
" transform="scale(0.015625)"/>
      </defs>
      <use xlink:href="#DejaVuSans-42"/>
      <use xlink:href="#DejaVuSans-75" x="68.603516"/>
      <use xlink:href="#DejaVuSans-6c" x="131.982422"/>
      <use xlink:href="#DejaVuSans-6c" x="159.765625"/>
     </g>
    </g>
    <g id="patch_7">
     <path d="M 178.866 229.83608 
L 319.32 229.83608 
L 319.32 202.37312 
L 178.866 202.37312 
z
" style="fill: #27ae60; fill-opacity: 0.2; stroke: #cccccc; stroke-linejoin: miter"/>
    </g>
    <g id="text_6">
     <!-- +0.05 -->
     <g transform="translate(277.693819 218.588038) scale(0.09 -0.09)">
      <defs>
       <path id="DejaVuSans-2b" d="M 2944 4013 
L 2944 2272 
L 4684 2272 
L 4684 1741 
L 2944 1741 
L 2944 0 
L 2419 0 
L 2419 1741 
L 678 1741 
L 678 2272 
L 2419 2272 
L 2419 4013 
L 2944 4013 
z
" transform="scale(0.015625)"/>
       <path id="DejaVuSans-30" d="M 2034 4250 
Q 1547 4250 1301 3770 
Q 1056 3291 1056 2328 
Q 1056 1369 1301 889 
Q 1547 409 2034 409 
Q 2525 409 2770 889 
Q 3016 1369 3016 2328 
Q 3016 3291 2770 3770 
Q 2525 4250 2034 4250 
z
M 2034 4750 
Q 2819 4750 3233 4129 
Q 3647 3509 3647 2328 
Q 3647 1150 3233 529 
Q 2819 -91 2034 -91 
Q 1250 -91 836 529 
Q 422 1150 422 2328 
Q 422 3509 836 4129 
Q 1250 4750 2034 4750 
z
" transform="scale(0.015625)"/>
       <path id="DejaVuSans-2e" d="M 684 794 
L 1344 794 
L 1344 0 
L 684 0 
L 684 794 
z
" transform="scale(0.015625)"/>
       <path id="DejaVuSans-35" d="M 691 4666 
L 3169 4666 
L 3169 4134 
L 1269 4134 
L 1269 2991 
Q 1406 3038 1543 3061 
Q 1681 3084 1819 3084 
Q 2600 3084 3056 2656 
Q 3513 2228 3513 1497 
Q 3513 744 3044 326 
Q 2575 -91 1722 -91 
Q 1428 -91 1123 -41 
Q 819 9 494 109 
L 494 744 
Q 775 591 1075 516 
Q 1375 441 1709 441 
Q 2250 441 2565 725 
Q 2881 1009 2881 1497 
Q 2881 1984 2565 2268 
Q 2250 2553 1709 2553 
Q 1456 2553 1204 2497 
Q 953 2441 691 2322 
L 691 4666 
z
" transform="scale(0.015625)"/>
      </defs>
      <use xlink:href="#DejaVuSans-2b"/>
      <use xlink:href="#DejaVuSans-30" x="83.789062"/>
      <use xlink:href="#DejaVuSans-2e" x="147.412109"/>
      <use xlink:href="#DejaVuSans-30" x="179.199219"/>
      <use xlink:href="#DejaVuSans-35" x="242.822266"/>
     </g>
    </g>
    <g id="patch_8">
     <path d="M 319.32 229.83608 
L 459.774 229.83608 
L 459.774 202.37312 
L 319.32 202.37312 
z
" style="fill: #27ae60; fill-opacity: 0.2; stroke: #cccccc; stroke-linejoin: miter"/>
    </g>
    <g id="text_7">
     <!-- 0.12 -->
     <g transform="translate(425.689538 218.588038) scale(0.09 -0.09)">
      <defs>
       <path id="DejaVuSans-31" d="M 794 531 
L 1825 531 
L 1825 4091 
L 703 3866 
L 703 4441 
L 1819 4666 
L 2450 4666 
L 2450 531 
L 3481 531 
L 3481 0 
L 794 0 
L 794 531 
z
" transform="scale(0.015625)"/>
       <path id="DejaVuSans-32" d="M 1228 531 
L 3431 531 
L 3431 0 
L 469 0 
L 469 531 
Q 828 903 1448 1529 
Q 2069 2156 2228 2338 
Q 2531 2678 2651 2914 
Q 2772 3150 2772 3378 
Q 2772 3750 2511 3984 
Q 2250 4219 1831 4219 
Q 1534 4219 1204 4116 
Q 875 4013 500 3803 
L 500 4441 
Q 881 4594 1212 4672 
Q 1544 4750 1819 4750 
Q 2544 4750 2975 4387 
Q 3406 4025 3406 3419 
Q 3406 3131 3298 2873 
Q 3191 2616 2906 2266 
Q 2828 2175 2409 1742 
Q 1991 1309 1228 531 
z
" transform="scale(0.015625)"/>
      </defs>
      <use xlink:href="#DejaVuSans-30"/>
      <use xlink:href="#DejaVuSans-2e" x="63.623047"/>
      <use xlink:href="#DejaVuSans-31" x="95.410156"/>
      <use xlink:href="#DejaVuSans-32" x="159.033203"/>
     </g>
    </g>
    <g id="patch_9">
     <path d="M 459.774 229.83608 
L 600.228 229.83608 
L 600.228 202.37312 
L 459.774 202.37312 
z
" style="fill: #27ae60; fill-opacity: 0.2; stroke: #cccccc; stroke-linejoin: miter"/>
    </g>
    <g id="text_8">
     <!-- high return, low vol -->
     <g transform="translate(498.9051 218.588038) scale(0.09 -0.09)">
      <defs>
       <path id="DejaVuSans-68" d="M 3513 2113 
L 3513 0 
L 2938 0 
L 2938 2094 
Q 2938 2591 2744 2837 
Q 2550 3084 2163 3084 
Q 1697 3084 1428 2787 
Q 1159 2491 1159 1978 
L 1159 0 
L 581 0 
L 581 4863 
L 1159 4863 
L 1159 2956 
Q 1366 3272 1645 3428 
Q 1925 3584 2291 3584 
Q 2894 3584 3203 3211 
Q 3513 2838 3513 2113 
z
" transform="scale(0.015625)"/>
       <path id="DejaVuSans-69" d="M 603 3500 
L 1178 3500 
L 1178 0 
L 603 0 
L 603 3500 
z
M 603 4863 
L 1178 4863 
L 1178 4134 
L 603 4134 
L 603 4863 
z
" transform="scale(0.015625)"/>
       <path id="DejaVuSans-67" d="M 2906 1791 
Q 2906 2416 2648 2759 
Q 2391 3103 1925 3103 
Q 1463 3103 1205 2759 
Q 947 2416 947 1791 
Q 947 1169 1205 825 
Q 1463 481 1925 481 
Q 2391 481 2648 825 
Q 2906 1169 2906 1791 
z
M 3481 434 
Q 3481 -459 3084 -895 
Q 2688 -1331 1869 -1331 
Q 1566 -1331 1297 -1286 
Q 1028 -1241 775 -1147 
L 775 -588 
Q 1028 -725 1275 -790 
Q 1522 -856 1778 -856 
Q 2344 -856 2625 -561 
Q 2906 -266 2906 331 
L 2906 616 
Q 2728 306 2450 153 
Q 2172 0 1784 0 
Q 1141 0 747 490 
Q 353 981 353 1791 
Q 353 2603 747 3093 
Q 1141 3584 1784 3584 
Q 2172 3584 2450 3431 
Q 2728 3278 2906 2969 
L 2906 3500 
L 3481 3500 
L 3481 434 
z
" transform="scale(0.015625)"/>
       <path id="DejaVuSans-20" transform="scale(0.015625)"/>
       <path id="DejaVuSans-72" d="M 2631 2963 
Q 2534 3019 2420 3045 
Q 2306 3072 2169 3072 
Q 1681 3072 1420 2755 
Q 1159 2438 1159 1844 
L 1159 0 
L 581 0 
L 581 3500 
L 1159 3500 
L 1159 2956 
Q 1341 3275 1631 3429 
Q 1922 3584 2338 3584 
Q 2397 3584 2469 3576 
Q 2541 3569 2628 3553 
L 2631 2963 
z
" transform="scale(0.015625)"/>
       <path id="DejaVuSans-65" d="M 3597 1894 
L 3597 1613 
L 953 1613 
Q 991 1019 1311 708 
Q 1631 397 2203 397 
Q 2534 397 2845 478 
Q 3156 559 3463 722 
L 3463 178 
Q 3153 47 2828 -22 
Q 2503 -91 2169 -91 
Q 1331 -91 842 396 
Q 353 884 353 1716 
Q 353 2575 817 3079 
Q 1281 3584 2069 3584 
Q 2775 3584 3186 3129 
Q 3597 2675 3597 1894 
z
M 3022 2063 
Q 3016 2534 2758 2815 
Q 2500 3097 2075 3097 
Q 1594 3097 1305 2825 
Q 1016 2553 972 2059 
L 3022 2063 
z
" transform="scale(0.015625)"/>
       <path id="DejaVuSans-74" d="M 1172 4494 
L 1172 3500 
L 2356 3500 
L 2356 3053 
L 1172 3053 
L 1172 1153 
Q 1172 725 1289 603 
Q 1406 481 1766 481 
L 2356 481 
L 2356 0 
L 1766 0 
Q 1100 0 847 248 
Q 594 497 594 1153 
L 594 3053 
L 172 3053 
L 172 3500 
L 594 3500 
L 594 4494 
L 1172 4494 
z
" transform="scale(0.015625)"/>
       <path id="DejaVuSans-6e" d="M 3513 2113 
L 3513 0 
L 2938 0 
L 2938 2094 
Q 2938 2591 2744 2837 
Q 2550 3084 2163 3084 
Q 1697 3084 1428 2787 
Q 1159 2491 1159 1978 
L 1159 0 
L 581 0 
L 581 3500 
L 1159 3500 
L 1159 2956 
Q 1366 3272 1645 3428 
Q 1925 3584 2291 3584 
Q 2894 3584 3203 3211 
Q 3513 2838 3513 2113 
z
" transform="scale(0.015625)"/>
       <path id="DejaVuSans-2c" d="M 750 794 
L 1409 794 
L 1409 256 
L 897 -744 
L 494 -744 
L 750 256 
L 750 794 
z
" transform="scale(0.015625)"/>
       <path id="DejaVuSans-6f" d="M 1959 3097 
Q 1497 3097 1228 2736 
Q 959 2375 959 1747 
Q 959 1119 1226 758 
Q 1494 397 1959 397 
Q 2419 397 2687 759 
Q 2956 1122 2956 1747 
Q 2956 2369 2687 2733 
Q 2419 3097 1959 3097 
z
M 1959 3584 
Q 2709 3584 3137 3096 
Q 3566 2609 3566 1747 
Q 3566 888 3137 398 
Q 2709 -91 1959 -91 
Q 1206 -91 779 398 
Q 353 888 353 1747 
Q 353 2609 779 3096 
Q 1206 3584 1959 3584 
z
" transform="scale(0.015625)"/>
       <path id="DejaVuSans-77" d="M 269 3500 
L 844 3500 
L 1563 769 
L 2278 3500 
L 2956 3500 
L 3675 769 
L 4391 3500 
L 4966 3500 
L 4050 0 
L 3372 0 
L 2619 2869 
L 1863 0 
L 1184 0 
L 269 3500 
z
" transform="scale(0.015625)"/>
       <path id="DejaVuSans-76" d="M 191 3500 
L 800 3500 
L 1894 563 
L 2988 3500 
L 3597 3500 
L 2284 0 
L 1503 0 
L 191 3500 
z
" transform="scale(0.015625)"/>
      </defs>
      <use xlink:href="#DejaVuSans-68"/>
      <use xlink:href="#DejaVuSans-69" x="63.378906"/>
      <use xlink:href="#DejaVuSans-67" x="91.162109"/>
      <use xlink:href="#DejaVuSans-68" x="154.638672"/>
      <use xlink:href="#DejaVuSans-20" x="218.017578"/>
      <use xlink:href="#DejaVuSans-72" x="249.804688"/>
      <use xlink:href="#DejaVuSans-65" x="288.667969"/>
      <use xlink:href="#DejaVuSans-74" x="350.191406"/>
      <use xlink:href="#DejaVuSans-75" x="389.400391"/>
      <use xlink:href="#DejaVuSans-72" x="452.779297"/>
      <use xlink:href="#DejaVuSans-6e" x="492.142578"/>
      <use xlink:href="#DejaVuSans-2c" x="555.521484"/>
      <use xlink:href="#DejaVuSans-20" x="587.308594"/>
      <use xlink:href="#DejaVuSans-6c" x="619.095703"/>
      <use xlink:href="#DejaVuSans-6f" x="646.878906"/>
      <use xlink:href="#DejaVuSans-77" x="708.060547"/>
      <use xlink:href="#DejaVuSans-20" x="789.847656"/>
      <use xlink:href="#DejaVuSans-76" x="821.634766"/>
      <use xlink:href="#DejaVuSans-6f" x="880.814453"/>
      <use xlink:href="#DejaVuSans-6c" x="941.996094"/>
     </g>
    </g>
    <g id="patch_10">
     <path d="M 38.412 257.29904 
L 178.866 257.29904 
L 178.866 229.83608 
L 38.412 229.83608 
z
" style="fill: #888888; fill-opacity: 0.2; stroke: #cccccc; stroke-linejoin: miter"/>
    </g>
    <g id="text_9">
     <!-- Neutral -->
     <g transform="translate(131.602163 246.050998) scale(0.09 -0.09)">
      <defs>
       <path id="DejaVuSans-4e" d="M 628 4666 
L 1478 4666 
L 3547 763 
L 3547 4666 
L 4159 4666 
L 4159 0 
L 3309 0 
L 1241 3903 
L 1241 0 
L 628 0 
L 628 4666 
z
" transform="scale(0.015625)"/>
       <path id="DejaVuSans-61" d="M 2194 1759 
Q 1497 1759 1228 1600 
Q 959 1441 959 1056 
Q 959 750 1161 570 
Q 1363 391 1709 391 
Q 2188 391 2477 730 
Q 2766 1069 2766 1631 
L 2766 1759 
L 2194 1759 
z
M 3341 1997 
L 3341 0 
L 2766 0 
L 2766 531 
Q 2569 213 2275 61 
Q 1981 -91 1556 -91 
Q 1019 -91 701 211 
Q 384 513 384 1019 
Q 384 1609 779 1909 
Q 1175 2209 1959 2209 
L 2766 2209 
L 2766 2266 
Q 2766 2663 2505 2880 
Q 2244 3097 1772 3097 
Q 1472 3097 1187 3025 
Q 903 2953 641 2809 
L 641 3341 
Q 956 3463 1253 3523 
Q 1550 3584 1831 3584 
Q 2591 3584 2966 3190 
Q 3341 2797 3341 1997 
z
" transform="scale(0.015625)"/>
      </defs>
      <use xlink:href="#DejaVuSans-4e"/>
      <use xlink:href="#DejaVuSans-65" x="74.804688"/>
      <use xlink:href="#DejaVuSans-75" x="136.328125"/>
      <use xlink:href="#DejaVuSans-74" x="199.707031"/>
      <use xlink:href="#DejaVuSans-72" x="238.916016"/>
      <use xlink:href="#DejaVuSans-61" x="280.029297"/>
      <use xlink:href="#DejaVuSans-6c" x="341.308594"/>
     </g>
    </g>
    <g id="patch_11">
     <path d="M 178.866 257.29904 
L 319.32 257.29904 
L 319.32 229.83608 
L 178.866 229.83608 
z
" style="fill: #888888; fill-opacity: 0.2; stroke: #cccccc; stroke-linejoin: miter"/>
    </g>
    <g id="text_10">
     <!--  0.00 -->
     <g transform="translate(282.375225 246.050998) scale(0.09 -0.09)">
      <use xlink:href="#DejaVuSans-20"/>
      <use xlink:href="#DejaVuSans-30" x="31.787109"/>
      <use xlink:href="#DejaVuSans-2e" x="95.410156"/>
      <use xlink:href="#DejaVuSans-30" x="127.197266"/>
      <use xlink:href="#DejaVuSans-30" x="190.820312"/>
     </g>
    </g>
    <g id="patch_12">
     <path d="M 319.32 257.29904 
L 459.774 257.29904 
L 459.774 229.83608 
L 319.32 229.83608 
z
" style="fill: #888888; fill-opacity: 0.2; stroke: #cccccc; stroke-linejoin: miter"/>
    </g>
    <g id="text_11">
     <!-- 0.18 -->
     <g transform="translate(425.689538 246.050998) scale(0.09 -0.09)">
      <defs>
       <path id="DejaVuSans-38" d="M 2034 2216 
Q 1584 2216 1326 1975 
Q 1069 1734 1069 1313 
Q 1069 891 1326 650 
Q 1584 409 2034 409 
Q 2484 409 2743 651 
Q 3003 894 3003 1313 
Q 3003 1734 2745 1975 
Q 2488 2216 2034 2216 
z
M 1403 2484 
Q 997 2584 770 2862 
Q 544 3141 544 3541 
Q 544 4100 942 4425 
Q 1341 4750 2034 4750 
Q 2731 4750 3128 4425 
Q 3525 4100 3525 3541 
Q 3525 3141 3298 2862 
Q 3072 2584 2669 2484 
Q 3125 2378 3379 2068 
Q 3634 1759 3634 1313 
Q 3634 634 3220 271 
Q 2806 -91 2034 -91 
Q 1263 -91 848 271 
Q 434 634 434 1313 
Q 434 1759 690 2068 
Q 947 2378 1403 2484 
z
M 1172 3481 
Q 1172 3119 1398 2916 
Q 1625 2713 2034 2713 
Q 2441 2713 2670 2916 
Q 2900 3119 2900 3481 
Q 2900 3844 2670 4047 
Q 2441 4250 2034 4250 
Q 1625 4250 1398 4047 
Q 1172 3844 1172 3481 
z
" transform="scale(0.015625)"/>
      </defs>
      <use xlink:href="#DejaVuSans-30"/>
      <use xlink:href="#DejaVuSans-2e" x="63.623047"/>
      <use xlink:href="#DejaVuSans-31" x="95.410156"/>
      <use xlink:href="#DejaVuSans-38" x="159.033203"/>
     </g>
    </g>
    <g id="patch_13">
     <path d="M 459.774 257.29904 
L 600.228 257.29904 
L 600.228 229.83608 
L 459.774 229.83608 
z
" style="fill: #888888; fill-opacity: 0.2; stroke: #cccccc; stroke-linejoin: miter"/>
    </g>
    <g id="text_12">
     <!-- flat, medium vol -->
     <g transform="translate(512.566819 246.050998) scale(0.09 -0.09)">
      <defs>
       <path id="DejaVuSans-66" d="M 2375 4863 
L 2375 4384 
L 1825 4384 
Q 1516 4384 1395 4259 
Q 1275 4134 1275 3809 
L 1275 3500 
L 2222 3500 
L 2222 3053 
L 1275 3053 
L 1275 0 
L 697 0 
L 697 3053 
L 147 3053 
L 147 3500 
L 697 3500 
L 697 3744 
Q 697 4328 969 4595 
Q 1241 4863 1831 4863 
L 2375 4863 
z
" transform="scale(0.015625)"/>
       <path id="DejaVuSans-6d" d="M 3328 2828 
Q 3544 3216 3844 3400 
Q 4144 3584 4550 3584 
Q 5097 3584 5394 3201 
Q 5691 2819 5691 2113 
L 5691 0 
L 5113 0 
L 5113 2094 
Q 5113 2597 4934 2840 
Q 4756 3084 4391 3084 
Q 3944 3084 3684 2787 
Q 3425 2491 3425 1978 
L 3425 0 
L 2847 0 
L 2847 2094 
Q 2847 2600 2669 2842 
Q 2491 3084 2119 3084 
Q 1678 3084 1418 2786 
Q 1159 2488 1159 1978 
L 1159 0 
L 581 0 
L 581 3500 
L 1159 3500 
L 1159 2956 
Q 1356 3278 1631 3431 
Q 1906 3584 2284 3584 
Q 2666 3584 2933 3390 
Q 3200 3197 3328 2828 
z
" transform="scale(0.015625)"/>
       <path id="DejaVuSans-64" d="M 2906 2969 
L 2906 4863 
L 3481 4863 
L 3481 0 
L 2906 0 
L 2906 525 
Q 2725 213 2448 61 
Q 2172 -91 1784 -91 
Q 1150 -91 751 415 
Q 353 922 353 1747 
Q 353 2572 751 3078 
Q 1150 3584 1784 3584 
Q 2172 3584 2448 3432 
Q 2725 3281 2906 2969 
z
M 947 1747 
Q 947 1113 1208 752 
Q 1469 391 1925 391 
Q 2381 391 2643 752 
Q 2906 1113 2906 1747 
Q 2906 2381 2643 2742 
Q 2381 3103 1925 3103 
Q 1469 3103 1208 2742 
Q 947 2381 947 1747 
z
" transform="scale(0.015625)"/>
      </defs>
      <use xlink:href="#DejaVuSans-66"/>
      <use xlink:href="#DejaVuSans-6c" x="35.205078"/>
      <use xlink:href="#DejaVuSans-61" x="62.988281"/>
      <use xlink:href="#DejaVuSans-74" x="124.267578"/>
      <use xlink:href="#DejaVuSans-2c" x="163.476562"/>
      <use xlink:href="#DejaVuSans-20" x="195.263672"/>
      <use xlink:href="#DejaVuSans-6d" x="227.050781"/>
      <use xlink:href="#DejaVuSans-65" x="324.462891"/>
      <use xlink:href="#DejaVuSans-64" x="385.986328"/>
      <use xlink:href="#DejaVuSans-69" x="449.462891"/>
      <use xlink:href="#DejaVuSans-75" x="477.246094"/>
      <use xlink:href="#DejaVuSans-6d" x="540.625"/>
      <use xlink:href="#DejaVuSans-20" x="638.037109"/>
      <use xlink:href="#DejaVuSans-76" x="669.824219"/>
      <use xlink:href="#DejaVuSans-6f" x="729.003906"/>
      <use xlink:href="#DejaVuSans-6c" x="790.185547"/>
     </g>
    </g>
    <g id="patch_14">
     <path d="M 38.412 284.762 
L 178.866 284.762 
L 178.866 257.29904 
L 38.412 257.29904 
z
" style="fill: #d62728; fill-opacity: 0.2; stroke: #cccccc; stroke-linejoin: miter"/>
    </g>
    <g id="text_13">
     <!-- Bear -->
     <g transform="translate(143.892788 273.513958) scale(0.09 -0.09)">
      <use xlink:href="#DejaVuSans-42"/>
      <use xlink:href="#DejaVuSans-65" x="68.603516"/>
      <use xlink:href="#DejaVuSans-61" x="130.126953"/>
      <use xlink:href="#DejaVuSans-72" x="191.40625"/>
     </g>
    </g>
    <g id="patch_15">
     <path d="M 178.866 284.762 
L 319.32 284.762 
L 319.32 257.29904 
L 178.866 257.29904 
z
" style="fill: #d62728; fill-opacity: 0.2; stroke: #cccccc; stroke-linejoin: miter"/>
    </g>
    <g id="text_14">
     <!-- −0.08 -->
     <g transform="translate(277.693819 273.513958) scale(0.09 -0.09)">
      <defs>
       <path id="DejaVuSans-2212" d="M 678 2272 
L 4684 2272 
L 4684 1741 
L 678 1741 
L 678 2272 
z
" transform="scale(0.015625)"/>
      </defs>
      <use xlink:href="#DejaVuSans-2212"/>
      <use xlink:href="#DejaVuSans-30" x="83.789062"/>
      <use xlink:href="#DejaVuSans-2e" x="147.412109"/>
      <use xlink:href="#DejaVuSans-30" x="179.199219"/>
      <use xlink:href="#DejaVuSans-38" x="242.822266"/>
     </g>
    </g>
    <g id="patch_16">
     <path d="M 319.32 284.762 
L 459.774 284.762 
L 459.774 257.29904 
L 319.32 257.29904 
z
" style="fill: #d62728; fill-opacity: 0.2; stroke: #cccccc; stroke-linejoin: miter"/>
    </g>
    <g id="text_15">
     <!-- 0.35 -->
     <g transform="translate(425.689538 273.513958) scale(0.09 -0.09)">
      <defs>
       <path id="DejaVuSans-33" d="M 2597 2516 
Q 3050 2419 3304 2112 
Q 3559 1806 3559 1356 
Q 3559 666 3084 287 
Q 2609 -91 1734 -91 
Q 1441 -91 1130 -33 
Q 819 25 488 141 
L 488 750 
Q 750 597 1062 519 
Q 1375 441 1716 441 
Q 2309 441 2620 675 
Q 2931 909 2931 1356 
Q 2931 1769 2642 2001 
Q 2353 2234 1838 2234 
L 1294 2234 
L 1294 2753 
L 1863 2753 
Q 2328 2753 2575 2939 
Q 2822 3125 2822 3475 
Q 2822 3834 2567 4026 
Q 2313 4219 1838 4219 
Q 1578 4219 1281 4162 
Q 984 4106 628 3988 
L 628 4550 
Q 988 4650 1302 4700 
Q 1616 4750 1894 4750 
Q 2613 4750 3031 4423 
Q 3450 4097 3450 3541 
Q 3450 3153 3228 2886 
Q 3006 2619 2597 2516 
z
" transform="scale(0.015625)"/>
      </defs>
      <use xlink:href="#DejaVuSans-30"/>
      <use xlink:href="#DejaVuSans-2e" x="63.623047"/>
      <use xlink:href="#DejaVuSans-33" x="95.410156"/>
      <use xlink:href="#DejaVuSans-35" x="159.033203"/>
     </g>
    </g>
    <g id="patch_17">
     <path d="M 459.774 284.762 
L 600.228 284.762 
L 600.228 257.29904 
L 459.774 257.29904 
z
" style="fill: #d62728; fill-opacity: 0.2; stroke: #cccccc; stroke-linejoin: miter"/>
    </g>
    <g id="text_16">
     <!-- crash, high vol -->
     <g transform="translate(520.090256 273.513958) scale(0.09 -0.09)">
      <defs>
       <path id="DejaVuSans-63" d="M 3122 3366 
L 3122 2828 
Q 2878 2963 2633 3030 
Q 2388 3097 2138 3097 
Q 1578 3097 1268 2742 
Q 959 2388 959 1747 
Q 959 1106 1268 751 
Q 1578 397 2138 397 
Q 2388 397 2633 464 
Q 2878 531 3122 666 
L 3122 134 
Q 2881 22 2623 -34 
Q 2366 -91 2075 -91 
Q 1284 -91 818 406 
Q 353 903 353 1747 
Q 353 2603 823 3093 
Q 1294 3584 2113 3584 
Q 2378 3584 2631 3529 
Q 2884 3475 3122 3366 
z
" transform="scale(0.015625)"/>
       <path id="DejaVuSans-73" d="M 2834 3397 
L 2834 2853 
Q 2591 2978 2328 3040 
Q 2066 3103 1784 3103 
Q 1356 3103 1142 2972 
Q 928 2841 928 2578 
Q 928 2378 1081 2264 
Q 1234 2150 1697 2047 
L 1894 2003 
Q 2506 1872 2764 1633 
Q 3022 1394 3022 966 
Q 3022 478 2636 193 
Q 2250 -91 1575 -91 
Q 1294 -91 989 -36 
Q 684 19 347 128 
L 347 722 
Q 666 556 975 473 
Q 1284 391 1588 391 
Q 1994 391 2212 530 
Q 2431 669 2431 922 
Q 2431 1156 2273 1281 
Q 2116 1406 1581 1522 
L 1381 1569 
Q 847 1681 609 1914 
Q 372 2147 372 2553 
Q 372 3047 722 3315 
Q 1072 3584 1716 3584 
Q 2034 3584 2315 3537 
Q 2597 3491 2834 3397 
z
" transform="scale(0.015625)"/>
      </defs>
      <use xlink:href="#DejaVuSans-63"/>
      <use xlink:href="#DejaVuSans-72" x="54.980469"/>
      <use xlink:href="#DejaVuSans-61" x="96.09375"/>
      <use xlink:href="#DejaVuSans-73" x="157.373047"/>
      <use xlink:href="#DejaVuSans-68" x="209.472656"/>
      <use xlink:href="#DejaVuSans-2c" x="272.851562"/>
      <use xlink:href="#DejaVuSans-20" x="304.638672"/>
      <use xlink:href="#DejaVuSans-68" x="336.425781"/>
      <use xlink:href="#DejaVuSans-69" x="399.804688"/>
      <use xlink:href="#DejaVuSans-67" x="427.587891"/>
      <use xlink:href="#DejaVuSans-68" x="491.064453"/>
      <use xlink:href="#DejaVuSans-20" x="554.443359"/>
      <use xlink:href="#DejaVuSans-76" x="586.230469"/>
      <use xlink:href="#DejaVuSans-6f" x="645.410156"/>
      <use xlink:href="#DejaVuSans-6c" x="706.591797"/>
     </g>
    </g>
   </g>
   <g id="patch_18">
    <path d="M 41.88 155.94764 
L 180.6 155.94764 
Q 186.1488 155.94764 186.1488 150.7166 
L 186.1488 78.7898 
Q 186.1488 73.55876 180.6 73.55876 
L 41.88 73.55876 
Q 36.3312 73.55876 36.3312 78.7898 
L 36.3312 150.7166 
Q 36.3312 155.94764 41.88 155.94764 
z
" clip-path="url(#pd6e44258ac)" style="fill: #27ae60; fill-opacity: 0.133333; stroke: #27ae60; stroke-width: 1.6; stroke-linejoin: miter"/>
   </g>
   <g id="patch_19">
    <path d="M 249.96 155.94764 
L 388.68 155.94764 
Q 394.2288 155.94764 394.2288 150.7166 
L 394.2288 78.7898 
Q 394.2288 73.55876 388.68 73.55876 
L 249.96 73.55876 
Q 244.4112 73.55876 244.4112 78.7898 
L 244.4112 150.7166 
Q 244.4112 155.94764 249.96 155.94764 
z
" clip-path="url(#pd6e44258ac)" style="fill: #888888; fill-opacity: 0.133333; stroke: #888888; stroke-width: 1.6; stroke-linejoin: miter"/>
   </g>
   <g id="patch_20">
    <path d="M 458.04 155.94764 
L 596.76 155.94764 
Q 602.3088 155.94764 602.3088 150.7166 
L 602.3088 78.7898 
Q 602.3088 73.55876 596.76 73.55876 
L 458.04 73.55876 
Q 452.4912 73.55876 452.4912 78.7898 
L 452.4912 150.7166 
Q 452.4912 155.94764 458.04 155.94764 
z
" clip-path="url(#pd6e44258ac)" style="fill: #d62728; fill-opacity: 0.133333; stroke: #d62728; stroke-width: 1.6; stroke-linejoin: miter"/>
   </g>
   <g id="text_17">
    <!-- State 1 -->
    <g style="fill: #27ae60" transform="translate(90.874375 111.913669) scale(0.1 -0.1)">
     <defs>
      <path id="DejaVuSans-Bold-20" transform="scale(0.015625)"/>
      <path id="DejaVuSans-Bold-31" d="M 750 831 
L 1813 831 
L 1813 3847 
L 722 3622 
L 722 4441 
L 1806 4666 
L 2950 4666 
L 2950 831 
L 4013 831 
L 4013 0 
L 750 0 
L 750 831 
z
" transform="scale(0.015625)"/>
     </defs>
     <use xlink:href="#DejaVuSans-Bold-53"/>
     <use xlink:href="#DejaVuSans-Bold-74" x="72.021484"/>
     <use xlink:href="#DejaVuSans-Bold-61" x="119.824219"/>
     <use xlink:href="#DejaVuSans-Bold-74" x="187.304688"/>
     <use xlink:href="#DejaVuSans-Bold-65" x="235.107422"/>
     <use xlink:href="#DejaVuSans-Bold-20" x="302.929688"/>
     <use xlink:href="#DejaVuSans-Bold-31" x="337.744141"/>
    </g>
    <!-- Bull -->
    <g style="fill: #27ae60" transform="translate(100.441562 123.111481) scale(0.1 -0.1)">
     <defs>
      <path id="DejaVuSans-Bold-42" d="M 2456 2859 
Q 2741 2859 2887 2984 
Q 3034 3109 3034 3353 
Q 3034 3594 2887 3720 
Q 2741 3847 2456 3847 
L 1791 3847 
L 1791 2859 
L 2456 2859 
z
M 2497 819 
Q 2859 819 3042 972 
Q 3225 1125 3225 1434 
Q 3225 1738 3044 1889 
Q 2863 2041 2497 2041 
L 1791 2041 
L 1791 819 
L 2497 819 
z
M 3616 2497 
Q 4003 2384 4215 2081 
Q 4428 1778 4428 1338 
Q 4428 663 3972 331 
Q 3516 0 2584 0 
L 588 0 
L 588 4666 
L 2394 4666 
Q 3366 4666 3802 4372 
Q 4238 4078 4238 3431 
Q 4238 3091 4078 2852 
Q 3919 2613 3616 2497 
z
" transform="scale(0.015625)"/>
      <path id="DejaVuSans-Bold-75" d="M 500 1363 
L 500 3500 
L 1625 3500 
L 1625 3150 
Q 1625 2866 1622 2436 
Q 1619 2006 1619 1863 
Q 1619 1441 1641 1255 
Q 1663 1069 1716 984 
Q 1784 875 1895 815 
Q 2006 756 2150 756 
Q 2500 756 2700 1025 
Q 2900 1294 2900 1772 
L 2900 3500 
L 4019 3500 
L 4019 0 
L 2900 0 
L 2900 506 
Q 2647 200 2364 54 
Q 2081 -91 1741 -91 
Q 1134 -91 817 281 
Q 500 653 500 1363 
z
" transform="scale(0.015625)"/>
      <path id="DejaVuSans-Bold-6c" d="M 538 4863 
L 1656 4863 
L 1656 0 
L 538 0 
L 538 4863 
z
" transform="scale(0.015625)"/>
     </defs>
     <use xlink:href="#DejaVuSans-Bold-42"/>
     <use xlink:href="#DejaVuSans-Bold-75" x="76.220703"/>
     <use xlink:href="#DejaVuSans-Bold-6c" x="147.412109"/>
     <use xlink:href="#DejaVuSans-Bold-6c" x="181.689453"/>
    </g>
   </g>
   <g id="text_18">
    <!-- State 2 -->
    <g style="fill: #888888" transform="translate(298.954375 111.913669) scale(0.1 -0.1)">
     <defs>
      <path id="DejaVuSans-Bold-32" d="M 1844 884 
L 3897 884 
L 3897 0 
L 506 0 
L 506 884 
L 2209 2388 
Q 2438 2594 2547 2791 
Q 2656 2988 2656 3200 
Q 2656 3528 2436 3728 
Q 2216 3928 1850 3928 
Q 1569 3928 1234 3808 
Q 900 3688 519 3450 
L 519 4475 
Q 925 4609 1322 4679 
Q 1719 4750 2100 4750 
Q 2938 4750 3402 4381 
Q 3866 4013 3866 3353 
Q 3866 2972 3669 2642 
Q 3472 2313 2841 1759 
L 1844 884 
z
" transform="scale(0.015625)"/>
     </defs>
     <use xlink:href="#DejaVuSans-Bold-53"/>
     <use xlink:href="#DejaVuSans-Bold-74" x="72.021484"/>
     <use xlink:href="#DejaVuSans-Bold-61" x="119.824219"/>
     <use xlink:href="#DejaVuSans-Bold-74" x="187.304688"/>
     <use xlink:href="#DejaVuSans-Bold-65" x="235.107422"/>
     <use xlink:href="#DejaVuSans-Bold-20" x="302.929688"/>
     <use xlink:href="#DejaVuSans-Bold-32" x="337.744141"/>
    </g>
    <!-- Neutral -->
    <g style="fill: #888888" transform="translate(298.241094 123.111481) scale(0.1 -0.1)">
     <defs>
      <path id="DejaVuSans-Bold-4e" d="M 588 4666 
L 1931 4666 
L 3628 1466 
L 3628 4666 
L 4769 4666 
L 4769 0 
L 3425 0 
L 1728 3200 
L 1728 0 
L 588 0 
L 588 4666 
z
" transform="scale(0.015625)"/>
     </defs>
     <use xlink:href="#DejaVuSans-Bold-4e"/>
     <use xlink:href="#DejaVuSans-Bold-65" x="83.691406"/>
     <use xlink:href="#DejaVuSans-Bold-75" x="151.513672"/>
     <use xlink:href="#DejaVuSans-Bold-74" x="222.705078"/>
     <use xlink:href="#DejaVuSans-Bold-72" x="270.507812"/>
     <use xlink:href="#DejaVuSans-Bold-61" x="319.824219"/>
     <use xlink:href="#DejaVuSans-Bold-6c" x="387.304688"/>
    </g>
   </g>
   <g id="text_19">
    <!-- State 3 -->
    <g style="fill: #d62728" transform="translate(507.034375 111.913669) scale(0.1 -0.1)">
     <defs>
      <path id="DejaVuSans-Bold-33" d="M 2981 2516 
Q 3453 2394 3698 2092 
Q 3944 1791 3944 1325 
Q 3944 631 3412 270 
Q 2881 -91 1863 -91 
Q 1503 -91 1142 -33 
Q 781 25 428 141 
L 428 1069 
Q 766 900 1098 814 
Q 1431 728 1753 728 
Q 2231 728 2486 893 
Q 2741 1059 2741 1369 
Q 2741 1688 2480 1852 
Q 2219 2016 1709 2016 
L 1228 2016 
L 1228 2791 
L 1734 2791 
Q 2188 2791 2409 2933 
Q 2631 3075 2631 3366 
Q 2631 3634 2415 3781 
Q 2200 3928 1806 3928 
Q 1516 3928 1219 3862 
Q 922 3797 628 3669 
L 628 4550 
Q 984 4650 1334 4700 
Q 1684 4750 2022 4750 
Q 2931 4750 3382 4451 
Q 3834 4153 3834 3553 
Q 3834 3144 3618 2883 
Q 3403 2622 2981 2516 
z
" transform="scale(0.015625)"/>
     </defs>
     <use xlink:href="#DejaVuSans-Bold-53"/>
     <use xlink:href="#DejaVuSans-Bold-74" x="72.021484"/>
     <use xlink:href="#DejaVuSans-Bold-61" x="119.824219"/>
     <use xlink:href="#DejaVuSans-Bold-74" x="187.304688"/>
     <use xlink:href="#DejaVuSans-Bold-65" x="235.107422"/>
     <use xlink:href="#DejaVuSans-Bold-20" x="302.929688"/>
     <use xlink:href="#DejaVuSans-Bold-33" x="337.744141"/>
    </g>
    <!-- Bear -->
    <g style="fill: #d62728" transform="translate(514.357813 123.111481) scale(0.1 -0.1)">
     <use xlink:href="#DejaVuSans-Bold-42"/>
     <use xlink:href="#DejaVuSans-Bold-65" x="76.220703"/>
     <use xlink:href="#DejaVuSans-Bold-61" x="144.042969"/>
     <use xlink:href="#DejaVuSans-Bold-72" x="211.523438"/>
    </g>
   </g>
   <g id="patch_21">
    <path d="M 182.602397 98.4062 
Q 215.280126 98.4062 246.280803 98.4062 
" style="fill: none; stroke: #2e6be5; stroke-width: 1.5; stroke-linecap: round"/>
    <path d="M 241.880803 96.2062 
L 246.280803 98.4062 
L 241.880803 100.6062 
z
" style="fill: #2e6be5; stroke: #2e6be5; stroke-width: 1.5; stroke-linecap: round"/>
   </g>
   <g id="text_20">
    <!-- $A_{12}$ -->
    <g style="fill: #2e6be5" transform="translate(208.035 89.90576) scale(0.09 -0.09)">
     <defs>
      <path id="DejaVuSans-Oblique-41" d="M 2356 4666 
L 3072 4666 
L 3938 0 
L 3278 0 
L 3084 1197 
L 984 1197 
L 325 0 
L -341 0 
L 2356 4666 
z
M 2584 4044 
L 1275 1722 
L 2988 1722 
L 2584 4044 
z
" transform="scale(0.015625)"/>
     </defs>
     <use xlink:href="#DejaVuSans-Oblique-41" transform="translate(0 0.09375)"/>
     <use xlink:href="#DejaVuSans-31" transform="translate(68.408203 -16.3125) scale(0.7)"/>
     <use xlink:href="#DejaVuSans-32" transform="translate(112.944336 -16.3125) scale(0.7)"/>
    </g>
   </g>
   <g id="patch_22">
    <path d="M 390.682397 98.4062 
Q 423.360126 98.4062 454.360803 98.4062 
" style="fill: none; stroke: #2e6be5; stroke-width: 1.5; stroke-linecap: round"/>
    <path d="M 449.960803 96.2062 
L 454.360803 98.4062 
L 449.960803 100.6062 
z
" style="fill: #2e6be5; stroke: #2e6be5; stroke-width: 1.5; stroke-linecap: round"/>
   </g>
   <g id="text_21">
    <!-- $A_{23}$ -->
    <g style="fill: #2e6be5" transform="translate(416.115 89.90576) scale(0.09 -0.09)">
     <use xlink:href="#DejaVuSans-Oblique-41" transform="translate(0 0.09375)"/>
     <use xlink:href="#DejaVuSans-32" transform="translate(68.408203 -16.3125) scale(0.7)"/>
     <use xlink:href="#DejaVuSans-33" transform="translate(112.944336 -16.3125) scale(0.7)"/>
    </g>
   </g>
   <g id="patch_23">
    <path d="M 247.957603 131.1002 
Q 215.279874 131.1002 184.279197 131.1002 
" style="fill: none; stroke: #e8850a; stroke-width: 1.5; stroke-linecap: round"/>
    <path d="M 188.679197 133.3002 
L 184.279197 131.1002 
L 188.679197 128.9002 
z
" style="fill: #e8850a; stroke: #e8850a; stroke-width: 1.5; stroke-linecap: round"/>
   </g>
   <g id="text_22">
    <!-- $A_{21}$ -->
    <g style="fill: #e8850a" transform="translate(208.035 139.60064) scale(0.09 -0.09)">
     <use xlink:href="#DejaVuSans-Oblique-41" transform="translate(0 0.09375)"/>
     <use xlink:href="#DejaVuSans-32" transform="translate(68.408203 -16.3125) scale(0.7)"/>
     <use xlink:href="#DejaVuSans-31" transform="translate(112.944336 -16.3125) scale(0.7)"/>
    </g>
   </g>
   <g id="patch_24">
    <path d="M 456.037603 131.1002 
Q 423.359874 131.1002 392.359197 131.1002 
" style="fill: none; stroke: #e8850a; stroke-width: 1.5; stroke-linecap: round"/>
    <path d="M 396.759197 133.3002 
L 392.359197 131.1002 
L 396.759197 128.9002 
z
" style="fill: #e8850a; stroke: #e8850a; stroke-width: 1.5; stroke-linecap: round"/>
   </g>
   <g id="text_23">
    <!-- $A_{32}$ -->
    <g style="fill: #e8850a" transform="translate(416.115 139.60064) scale(0.09 -0.09)">
     <use xlink:href="#DejaVuSans-Oblique-41" transform="translate(0 0.09375)"/>
     <use xlink:href="#DejaVuSans-33" transform="translate(68.408203 -16.3125) scale(0.7)"/>
     <use xlink:href="#DejaVuSans-32" transform="translate(112.944336 -16.3125) scale(0.7)"/>
    </g>
   </g>
   <g id="text_24">
    <!-- HMM Regime State Machine ($K=3$)  —  Emission $B_k(y)=\mathcal{N}(\mu_k,\sigma_k^2)$ -->
    <g transform="translate(138.205 17.21) scale(0.11 -0.11)">
     <defs>
      <path id="DejaVuSans-48" d="M 628 4666 
L 1259 4666 
L 1259 2753 
L 3553 2753 
L 3553 4666 
L 4184 4666 
L 4184 0 
L 3553 0 
L 3553 2222 
L 1259 2222 
L 1259 0 
L 628 0 
L 628 4666 
z
" transform="scale(0.015625)"/>
      <path id="DejaVuSans-4d" d="M 628 4666 
L 1569 4666 
L 2759 1491 
L 3956 4666 
L 4897 4666 
L 4897 0 
L 4281 0 
L 4281 4097 
L 3078 897 
L 2444 897 
L 1241 4097 
L 1241 0 
L 628 0 
L 628 4666 
z
" transform="scale(0.015625)"/>
      <path id="DejaVuSans-52" d="M 2841 2188 
Q 3044 2119 3236 1894 
Q 3428 1669 3622 1275 
L 4263 0 
L 3584 0 
L 2988 1197 
Q 2756 1666 2539 1819 
Q 2322 1972 1947 1972 
L 1259 1972 
L 1259 0 
L 628 0 
L 628 4666 
L 2053 4666 
Q 2853 4666 3247 4331 
Q 3641 3997 3641 3322 
Q 3641 2881 3436 2590 
Q 3231 2300 2841 2188 
z
M 1259 4147 
L 1259 2491 
L 2053 2491 
Q 2509 2491 2742 2702 
Q 2975 2913 2975 3322 
Q 2975 3731 2742 3939 
Q 2509 4147 2053 4147 
L 1259 4147 
z
" transform="scale(0.015625)"/>
      <path id="DejaVuSans-53" d="M 3425 4513 
L 3425 3897 
Q 3066 4069 2747 4153 
Q 2428 4238 2131 4238 
Q 1616 4238 1336 4038 
Q 1056 3838 1056 3469 
Q 1056 3159 1242 3001 
Q 1428 2844 1947 2747 
L 2328 2669 
Q 3034 2534 3370 2195 
Q 3706 1856 3706 1288 
Q 3706 609 3251 259 
Q 2797 -91 1919 -91 
Q 1588 -91 1214 -16 
Q 841 59 441 206 
L 441 856 
Q 825 641 1194 531 
Q 1563 422 1919 422 
Q 2459 422 2753 634 
Q 3047 847 3047 1241 
Q 3047 1584 2836 1778 
Q 2625 1972 2144 2069 
L 1759 2144 
Q 1053 2284 737 2584 
Q 422 2884 422 3419 
Q 422 4038 858 4394 
Q 1294 4750 2059 4750 
Q 2388 4750 2728 4690 
Q 3069 4631 3425 4513 
z
" transform="scale(0.015625)"/>
      <path id="DejaVuSans-28" d="M 1984 4856 
Q 1566 4138 1362 3434 
Q 1159 2731 1159 2009 
Q 1159 1288 1364 580 
Q 1569 -128 1984 -844 
L 1484 -844 
Q 1016 -109 783 600 
Q 550 1309 550 2009 
Q 550 2706 781 3412 
Q 1013 4119 1484 4856 
L 1984 4856 
z
" transform="scale(0.015625)"/>
      <path id="DejaVuSans-Oblique-4b" d="M 1081 4666 
L 1716 4666 
L 1331 2700 
L 3781 4666 
L 4622 4666 
L 1850 2438 
L 3878 0 
L 3109 0 
L 1247 2272 
L 806 0 
L 172 0 
L 1081 4666 
z
" transform="scale(0.015625)"/>
      <path id="DejaVuSans-3d" d="M 678 2906 
L 4684 2906 
L 4684 2381 
L 678 2381 
L 678 2906 
z
M 678 1631 
L 4684 1631 
L 4684 1100 
L 678 1100 
L 678 1631 
z
" transform="scale(0.015625)"/>
      <path id="DejaVuSans-29" d="M 513 4856 
L 1013 4856 
Q 1481 4119 1714 3412 
Q 1947 2706 1947 2009 
Q 1947 1309 1714 600 
Q 1481 -109 1013 -844 
L 513 -844 
Q 928 -128 1133 580 
Q 1338 1288 1338 2009 
Q 1338 2731 1133 3434 
Q 928 4138 513 4856 
z
" transform="scale(0.015625)"/>
      <path id="DejaVuSansDisplay-2014" d="M 313 1978 
L 6088 1978 
L 6088 1528 
L 313 1528 
L 313 1978 
z
" transform="scale(0.015625)"/>
      <path id="DejaVuSans-45" d="M 628 4666 
L 3578 4666 
L 3578 4134 
L 1259 4134 
L 1259 2753 
L 3481 2753 
L 3481 2222 
L 1259 2222 
L 1259 531 
L 3634 531 
L 3634 0 
L 628 0 
L 628 4666 
z
" transform="scale(0.015625)"/>
      <path id="DejaVuSans-Oblique-42" d="M 1081 4666 
L 2694 4666 
Q 3350 4666 3675 4422 
Q 4000 4178 4000 3688 
Q 4000 3238 3720 2911 
Q 3441 2584 2988 2516 
Q 3375 2428 3569 2181 
Q 3763 1934 3763 1522 
Q 3763 819 3242 409 
Q 2722 0 1819 0 
L 172 0 
L 1081 4666 
z
M 1234 2228 
L 903 519 
L 1919 519 
Q 2491 519 2800 781 
Q 3109 1044 3109 1522 
Q 3109 1891 2904 2059 
Q 2700 2228 2247 2228 
L 1234 2228 
z
M 1606 4147 
L 1331 2741 
L 2272 2741 
Q 2775 2741 3058 2959 
Q 3341 3178 3341 3566 
Q 3341 3869 3150 4008 
Q 2959 4147 2541 4147 
L 1606 4147 
z
" transform="scale(0.015625)"/>
      <path id="DejaVuSans-Oblique-6b" d="M 1172 4863 
L 1747 4863 
L 1197 2028 
L 3169 3500 
L 3916 3500 
L 1716 1825 
L 3322 0 
L 2625 0 
L 1131 1709 
L 800 0 
L 225 0 
L 1172 4863 
z
" transform="scale(0.015625)"/>
      <path id="DejaVuSans-Oblique-79" d="M 1588 -325 
Q 1188 -997 936 -1164 
Q 684 -1331 294 -1331 
L -159 -1331 
L -63 -850 
L 269 -850 
Q 509 -850 678 -719 
Q 847 -588 1056 -206 
L 1234 128 
L 459 3500 
L 1069 3500 
L 1650 819 
L 3256 3500 
L 3859 3500 
L 1588 -325 
z
" transform="scale(0.015625)"/>
      <path id="STIXNonUnicode-Italic-e23a" d="M 4294 800 
L 4301 800 
Q 5293 4070 5408 4378 
Q 5472 4538 5523 4614 
Q 5830 5088 6253 5088 
Q 6490 5088 6650 4931 
Q 6810 4774 6810 4550 
Q 6810 4378 6720 4272 
Q 6630 4166 6470 4166 
Q 6368 4166 6297 4224 
Q 6227 4282 6198 4349 
Q 6170 4416 6118 4473 
Q 6067 4531 6003 4531 
Q 5939 4531 5881 4508 
Q 5824 4486 5785 4457 
Q 5747 4429 5705 4371 
Q 5664 4314 5638 4275 
Q 5613 4237 5584 4163 
Q 5555 4090 5545 4058 
Q 5536 4026 5510 3952 
Q 5485 3878 5485 3866 
L 4262 -154 
L 4134 -154 
Q 3078 1280 2483 2893 
L 2470 2893 
Q 2406 2579 2358 2361 
Q 2310 2144 2214 1792 
Q 2118 1440 2028 1190 
Q 1939 941 1804 653 
Q 1670 365 1529 185 
Q 1389 6 1203 -115 
Q 1018 -237 813 -237 
Q 576 -237 416 -80 
Q 256 77 256 301 
Q 256 474 345 579 
Q 435 685 595 685 
Q 698 685 768 627 
Q 838 570 867 502 
Q 896 435 947 377 
Q 998 320 1062 320 
Q 1222 320 1369 480 
Q 1517 640 1638 928 
Q 1760 1216 1862 1542 
Q 1965 1869 2057 2288 
Q 2150 2707 2214 3033 
Q 2278 3360 2348 3741 
Q 2419 4122 2458 4294 
L 2630 4294 
Q 2682 4166 2874 3680 
Q 3066 3194 3142 3008 
Q 3219 2822 3392 2422 
Q 3565 2022 3683 1798 
Q 3802 1574 3968 1292 
Q 4134 1011 4294 800 
z
" transform="scale(0.015625)"/>
     </defs>
     <use xlink:href="#DejaVuSans-48" transform="translate(0 0.701562)"/>
     <use xlink:href="#DejaVuSans-4d" transform="translate(75.195312 0.701562)"/>
     <use xlink:href="#DejaVuSans-4d" transform="translate(161.474609 0.701562)"/>
     <use xlink:href="#DejaVuSans-20" transform="translate(247.753906 0.701562)"/>
     <use xlink:href="#DejaVuSans-52" transform="translate(279.541016 0.701562)"/>
     <use xlink:href="#DejaVuSans-65" transform="translate(349.023438 0.701562)"/>
     <use xlink:href="#DejaVuSans-67" transform="translate(410.546875 0.701562)"/>
     <use xlink:href="#DejaVuSans-69" transform="translate(474.023438 0.701562)"/>
     <use xlink:href="#DejaVuSans-6d" transform="translate(501.806641 0.701562)"/>
     <use xlink:href="#DejaVuSans-65" transform="translate(599.21875 0.701562)"/>
     <use xlink:href="#DejaVuSans-20" transform="translate(660.742188 0.701562)"/>
     <use xlink:href="#DejaVuSans-53" transform="translate(692.529297 0.701562)"/>
     <use xlink:href="#DejaVuSans-74" transform="translate(756.005859 0.701562)"/>
     <use xlink:href="#DejaVuSans-61" transform="translate(795.214844 0.701562)"/>
     <use xlink:href="#DejaVuSans-74" transform="translate(856.494141 0.701562)"/>
     <use xlink:href="#DejaVuSans-65" transform="translate(895.703125 0.701562)"/>
     <use xlink:href="#DejaVuSans-20" transform="translate(957.226562 0.701562)"/>
     <use xlink:href="#DejaVuSans-4d" transform="translate(989.013672 0.701562)"/>
     <use xlink:href="#DejaVuSans-61" transform="translate(1075.292969 0.701562)"/>
     <use xlink:href="#DejaVuSans-63" transform="translate(1136.572266 0.701562)"/>
     <use xlink:href="#DejaVuSans-68" transform="translate(1191.552734 0.701562)"/>
     <use xlink:href="#DejaVuSans-69" transform="translate(1254.931641 0.701562)"/>
     <use xlink:href="#DejaVuSans-6e" transform="translate(1282.714844 0.701562)"/>
     <use xlink:href="#DejaVuSans-65" transform="translate(1346.09375 0.701562)"/>
     <use xlink:href="#DejaVuSans-20" transform="translate(1407.617188 0.701562)"/>
     <use xlink:href="#DejaVuSans-28" transform="translate(1439.404297 0.701562)"/>
     <use xlink:href="#DejaVuSans-Oblique-4b" transform="translate(1478.417969 0.701562)"/>
     <use xlink:href="#DejaVuSans-3d" transform="translate(1563.476562 0.701562)"/>
     <use xlink:href="#DejaVuSans-33" transform="translate(1666.748047 0.701562)"/>
     <use xlink:href="#DejaVuSans-29" transform="translate(1730.371094 0.701562)"/>
     <use xlink:href="#DejaVuSans-20" transform="translate(1769.384766 0.701562)"/>
     <use xlink:href="#DejaVuSans-20" transform="translate(1801.171875 0.701562)"/>
     <use xlink:href="#DejaVuSansDisplay-2014" transform="translate(1832.958984 0.701562)"/>
     <use xlink:href="#DejaVuSans-20" transform="translate(1932.958984 0.701562)"/>
     <use xlink:href="#DejaVuSans-20" transform="translate(1964.746094 0.701562)"/>
     <use xlink:href="#DejaVuSans-45" transform="translate(1996.533203 0.701562)"/>
     <use xlink:href="#DejaVuSans-6d" transform="translate(2059.716797 0.701562)"/>
     <use xlink:href="#DejaVuSans-69" transform="translate(2157.128906 0.701562)"/>
     <use xlink:href="#DejaVuSans-73" transform="translate(2184.912109 0.701562)"/>
     <use xlink:href="#DejaVuSans-73" transform="translate(2237.011719 0.701562)"/>
     <use xlink:href="#DejaVuSans-69" transform="translate(2289.111328 0.701562)"/>
     <use xlink:href="#DejaVuSans-6f" transform="translate(2316.894531 0.701562)"/>
     <use xlink:href="#DejaVuSans-6e" transform="translate(2378.076172 0.701562)"/>
     <use xlink:href="#DejaVuSans-20" transform="translate(2441.455078 0.701562)"/>
     <use xlink:href="#DejaVuSans-Oblique-42" transform="translate(2473.242188 0.701562)"/>
     <use xlink:href="#DejaVuSans-Oblique-6b" transform="translate(2541.845703 -15.704688) scale(0.7)"/>
     <use xlink:href="#DejaVuSans-28" transform="translate(2585.117188 0.701562)"/>
     <use xlink:href="#DejaVuSans-Oblique-79" transform="translate(2624.130859 0.701562)"/>
     <use xlink:href="#DejaVuSans-29" transform="translate(2683.310547 0.701562)"/>
     <use xlink:href="#DejaVuSans-3d" transform="translate(2741.806641 0.701562)"/>
     <use xlink:href="#STIXNonUnicode-Italic-e23a" transform="translate(2845.078125 0.701562)"/>
     <use xlink:href="#DejaVuSans-28" transform="translate(2940.778107 0.701562)"/>
     <use xlink:href="#DejaVuSans-Oblique-3bc" transform="translate(2979.791779 0.701562)"/>
     <use xlink:href="#DejaVuSans-Oblique-6b" transform="translate(3043.414825 -15.704688) scale(0.7)"/>
     <use xlink:href="#DejaVuSans-2c" transform="translate(3086.68631 0.701562)"/>
     <use xlink:href="#DejaVuSans-Oblique-3c3" transform="translate(3137.955841 0.701562)"/>
     <use xlink:href="#DejaVuSans-32" transform="translate(3205.807456 39.046875) scale(0.7)"/>
     <use xlink:href="#DejaVuSans-Oblique-6b" transform="translate(3201.334747 -26.642188) scale(0.7)"/>
     <use xlink:href="#DejaVuSans-29" transform="translate(3253.077963 0.701562)"/>
    </g>
   </g>
  </g>
 </g>
 <defs>
  <clipPath id="pd6e44258ac">
   <rect x="7.2" y="23.21" width="624.24" height="261.552"/>
  </clipPath>
 </defs>
</svg>
