<?xml version="1.0" encoding="utf-8" standalone="no"?>
<!DOCTYPE svg PUBLIC "-//W3C//DTD SVG 1.1//EN"
  "http://www.w3.org/Graphics/SVG/1.1/DTD/svg11.dtd">
<svg xmlns:xlink="http://www.w3.org/1999/xlink" width="430.87125pt" height="282.578437pt" viewBox="0 0 430.87125 282.578437" xmlns="http://www.w3.org/2000/svg" version="1.1">
 <metadata>
  <rdf:RDF xmlns:dc="http://purl.org/dc/elements/1.1/" xmlns:cc="http://creativecommons.org/ns#" xmlns:rdf="http://www.w3.org/1999/02/22-rdf-syntax-ns#">
   <cc:Work>
    <dc:type rdf:resource="http://purl.org/dc/dcmitype/StillImage"/>
    <dc:date>2026-03-07T11:02:34.755818</dc:date>
    <dc:format>image/svg+xml</dc:format>
    <dc:creator>
     <cc:Agent>
      <dc:title>Matplotlib v3.8.4, https://matplotlib.org/</dc:title>
     </cc:Agent>
    </dc:creator>
   </cc:Work>
  </rdf:RDF>
 </metadata>
 <defs>
  <style type="text/css">*{stroke-linejoin: round; stroke-linecap: butt}</style>
 </defs>
 <g id="figure_1">
  <g id="patch_1">
   <path d="M 0 282.578437 
L 430.87125 282.578437 
L 430.87125 0 
L 0 0 
z
" style="fill: #ffffff"/>
  </g>
  <g id="axes_1">
   <g id="patch_2">
    <path d="M 50.46 244.558125 
L 413.16 244.558125 
L 413.16 22.798125 
L 50.46 22.798125 
z
" style="fill: #ffffff"/>
   </g>
   <g id="matplotlib.axis_1">
    <g id="xtick_1">
     <g id="line2d_1">
      <path d="M 63.615785 244.558125 
L 63.615785 22.798125 
" clip-path="url(#p96b1e01236)" style="fill: none; stroke: #b0b0b0; stroke-opacity: 0.25; stroke-width: 0.8; stroke-linecap: square"/>
     </g>
     <g id="line2d_2">
      <defs>
       <path id="m8920678f4a" d="M 0 0 
L 0 3.5 
" style="stroke: #000000; stroke-width: 0.8"/>
      </defs>
      <g>
       <use xlink:href="#m8920678f4a" x="63.615785" y="244.558125" style="stroke: #000000; stroke-width: 0.8"/>
      </g>
     </g>
     <g id="text_1">
      <!-- 0 -->
      <g transform="translate(60.75266 258.396719) scale(0.09 -0.09)">
       <defs>
        <path id="DejaVuSans-30" d="M 2034 4250 
Q 1547 4250 1301 3770 
Q 1056 3291 1056 2328 
Q 1056 1369 1301 889 
Q 1547 409 2034 409 
Q 2525 409 2770 889 
Q 3016 1369 3016 2328 
Q 3016 3291 2770 3770 
Q 2525 4250 2034 4250 
z
M 2034 4750 
Q 2819 4750 3233 4129 
Q 3647 3509 3647 2328 
Q 3647 1150 3233 529 
Q 2819 -91 2034 -91 
Q 1250 -91 836 529 
Q 422 1150 422 2328 
Q 422 3509 836 4129 
Q 1250 4750 2034 4750 
z
" transform="scale(0.015625)"/>
       </defs>
       <use xlink:href="#DejaVuSans-30"/>
      </g>
     </g>
    </g>
    <g id="xtick_2">
     <g id="line2d_3">
      <path d="M 130.227355 244.558125 
L 130.227355 22.798125 
" clip-path="url(#p96b1e01236)" style="fill: none; stroke: #b0b0b0; stroke-opacity: 0.25; stroke-width: 0.8; stroke-linecap: square"/>
     </g>
     <g id="line2d_4">
      <g>
       <use xlink:href="#m8920678f4a" x="130.227355" y="244.558125" style="stroke: #000000; stroke-width: 0.8"/>
      </g>
     </g>
     <g id="text_2">
      <!-- 1 -->
      <g transform="translate(127.36423 258.396719) scale(0.09 -0.09)">
       <defs>
        <path id="DejaVuSans-31" d="M 794 531 
L 1825 531 
L 1825 4091 
L 703 3866 
L 703 4441 
L 1819 4666 
L 2450 4666 
L 2450 531 
L 3481 531 
L 3481 0 
L 794 0 
L 794 531 
z
" transform="scale(0.015625)"/>
       </defs>
       <use xlink:href="#DejaVuSans-31"/>
      </g>
     </g>
    </g>
    <g id="xtick_3">
     <g id="line2d_5">
      <path d="M 196.838926 244.558125 
L 196.838926 22.798125 
" clip-path="url(#p96b1e01236)" style="fill: none; stroke: #b0b0b0; stroke-opacity: 0.25; stroke-width: 0.8; stroke-linecap: square"/>
     </g>
     <g id="line2d_6">
      <g>
       <use xlink:href="#m8920678f4a" x="196.838926" y="244.558125" style="stroke: #000000; stroke-width: 0.8"/>
      </g>
     </g>
     <g id="text_3">
      <!-- 2 -->
      <g transform="translate(193.975801 258.396719) scale(0.09 -0.09)">
       <defs>
        <path id="DejaVuSans-32" d="M 1228 531 
L 3431 531 
L 3431 0 
L 469 0 
L 469 531 
Q 828 903 1448 1529 
Q 2069 2156 2228 2338 
Q 2531 2678 2651 2914 
Q 2772 3150 2772 3378 
Q 2772 3750 2511 3984 
Q 2250 4219 1831 4219 
Q 1534 4219 1204 4116 
Q 875 4013 500 3803 
L 500 4441 
Q 881 4594 1212 4672 
Q 1544 4750 1819 4750 
Q 2544 4750 2975 4387 
Q 3406 4025 3406 3419 
Q 3406 3131 3298 2873 
Q 3191 2616 2906 2266 
Q 2828 2175 2409 1742 
Q 1991 1309 1228 531 
z
" transform="scale(0.015625)"/>
       </defs>
       <use xlink:href="#DejaVuSans-32"/>
      </g>
     </g>
    </g>
    <g id="xtick_4">
     <g id="line2d_7">
      <path d="M 263.450496 244.558125 
L 263.450496 22.798125 
" clip-path="url(#p96b1e01236)" style="fill: none; stroke: #b0b0b0; stroke-opacity: 0.25; stroke-width: 0.8; stroke-linecap: square"/>
     </g>
     <g id="line2d_8">
      <g>
       <use xlink:href="#m8920678f4a" x="263.450496" y="244.558125" style="stroke: #000000; stroke-width: 0.8"/>
      </g>
     </g>
     <g id="text_4">
      <!-- 3 -->
      <g transform="translate(260.587371 258.396719) scale(0.09 -0.09)">
       <defs>
        <path id="DejaVuSans-33" d="M 2597 2516 
Q 3050 2419 3304 2112 
Q 3559 1806 3559 1356 
Q 3559 666 3084 287 
Q 2609 -91 1734 -91 
Q 1441 -91 1130 -33 
Q 819 25 488 141 
L 488 750 
Q 750 597 1062 519 
Q 1375 441 1716 441 
Q 2309 441 2620 675 
Q 2931 909 2931 1356 
Q 2931 1769 2642 2001 
Q 2353 2234 1838 2234 
L 1294 2234 
L 1294 2753 
L 1863 2753 
Q 2328 2753 2575 2939 
Q 2822 3125 2822 3475 
Q 2822 3834 2567 4026 
Q 2313 4219 1838 4219 
Q 1578 4219 1281 4162 
Q 984 4106 628 3988 
L 628 4550 
Q 988 4650 1302 4700 
Q 1616 4750 1894 4750 
Q 2613 4750 3031 4423 
Q 3450 4097 3450 3541 
Q 3450 3153 3228 2886 
Q 3006 2619 2597 2516 
z
" transform="scale(0.015625)"/>
       </defs>
       <use xlink:href="#DejaVuSans-33"/>
      </g>
     </g>
    </g>
    <g id="xtick_5">
     <g id="line2d_9">
      <path d="M 330.062066 244.558125 
L 330.062066 22.798125 
" clip-path="url(#p96b1e01236)" style="fill: none; stroke: #b0b0b0; stroke-opacity: 0.25; stroke-width: 0.8; stroke-linecap: square"/>
     </g>
     <g id="line2d_10">
      <g>
       <use xlink:href="#m8920678f4a" x="330.062066" y="244.558125" style="stroke: #000000; stroke-width: 0.8"/>
      </g>
     </g>
     <g id="text_5">
      <!-- 4 -->
      <g transform="translate(327.198941 258.396719) scale(0.09 -0.09)">
       <defs>
        <path id="DejaVuSans-34" d="M 2419 4116 
L 825 1625 
L 2419 1625 
L 2419 4116 
z
M 2253 4666 
L 3047 4666 
L 3047 1625 
L 3713 1625 
L 3713 1100 
L 3047 1100 
L 3047 0 
L 2419 0 
L 2419 1100 
L 313 1100 
L 313 1709 
L 2253 4666 
z
" transform="scale(0.015625)"/>
       </defs>
       <use xlink:href="#DejaVuSans-34"/>
      </g>
     </g>
    </g>
    <g id="xtick_6">
     <g id="line2d_11">
      <path d="M 396.673636 244.558125 
L 396.673636 22.798125 
" clip-path="url(#p96b1e01236)" style="fill: none; stroke: #b0b0b0; stroke-opacity: 0.25; stroke-width: 0.8; stroke-linecap: square"/>
     </g>
     <g id="line2d_12">
      <g>
       <use xlink:href="#m8920678f4a" x="396.673636" y="244.558125" style="stroke: #000000; stroke-width: 0.8"/>
      </g>
     </g>
     <g id="text_6">
      <!-- 5 -->
      <g transform="translate(393.810511 258.396719) scale(0.09 -0.09)">
       <defs>
        <path id="DejaVuSans-35" d="M 691 4666 
L 3169 4666 
L 3169 4134 
L 1269 4134 
L 1269 2991 
Q 1406 3038 1543 3061 
Q 1681 3084 1819 3084 
Q 2600 3084 3056 2656 
Q 3513 2228 3513 1497 
Q 3513 744 3044 326 
Q 2575 -91 1722 -91 
Q 1428 -91 1123 -41 
Q 819 9 494 109 
L 494 744 
Q 775 591 1075 516 
Q 1375 441 1709 441 
Q 2250 441 2565 725 
Q 2881 1009 2881 1497 
Q 2881 1984 2565 2268 
Q 2250 2553 1709 2553 
Q 1456 2553 1204 2497 
Q 953 2441 691 2322 
L 691 4666 
z
" transform="scale(0.015625)"/>
       </defs>
       <use xlink:href="#DejaVuSans-35"/>
      </g>
     </g>
    </g>
    <g id="text_7">
     <!-- Jump size $|z|$ -->
     <g transform="translate(197.05 272.738437) scale(0.11 -0.11)">
      <defs>
       <path id="DejaVuSans-4a" d="M 628 4666 
L 1259 4666 
L 1259 325 
Q 1259 -519 939 -900 
Q 619 -1281 -91 -1281 
L -331 -1281 
L -331 -750 
L -134 -750 
Q 284 -750 456 -515 
Q 628 -281 628 325 
L 628 4666 
z
" transform="scale(0.015625)"/>
       <path id="DejaVuSans-75" d="M 544 1381 
L 544 3500 
L 1119 3500 
L 1119 1403 
Q 1119 906 1312 657 
Q 1506 409 1894 409 
Q 2359 409 2629 706 
Q 2900 1003 2900 1516 
L 2900 3500 
L 3475 3500 
L 3475 0 
L 2900 0 
L 2900 538 
Q 2691 219 2414 64 
Q 2138 -91 1772 -91 
Q 1169 -91 856 284 
Q 544 659 544 1381 
z
M 1991 3584 
L 1991 3584 
z
" transform="scale(0.015625)"/>
       <path id="DejaVuSans-6d" d="M 3328 2828 
Q 3544 3216 3844 3400 
Q 4144 3584 4550 3584 
Q 5097 3584 5394 3201 
Q 5691 2819 5691 2113 
L 5691 0 
L 5113 0 
L 5113 2094 
Q 5113 2597 4934 2840 
Q 4756 3084 4391 3084 
Q 3944 3084 3684 2787 
Q 3425 2491 3425 1978 
L 3425 0 
L 2847 0 
L 2847 2094 
Q 2847 2600 2669 2842 
Q 2491 3084 2119 3084 
Q 1678 3084 1418 2786 
Q 1159 2488 1159 1978 
L 1159 0 
L 581 0 
L 581 3500 
L 1159 3500 
L 1159 2956 
Q 1356 3278 1631 3431 
Q 1906 3584 2284 3584 
Q 2666 3584 2933 3390 
Q 3200 3197 3328 2828 
z
" transform="scale(0.015625)"/>
       <path id="DejaVuSans-70" d="M 1159 525 
L 1159 -1331 
L 581 -1331 
L 581 3500 
L 1159 3500 
L 1159 2969 
Q 1341 3281 1617 3432 
Q 1894 3584 2278 3584 
Q 2916 3584 3314 3078 
Q 3713 2572 3713 1747 
Q 3713 922 3314 415 
Q 2916 -91 2278 -91 
Q 1894 -91 1617 61 
Q 1341 213 1159 525 
z
M 3116 1747 
Q 3116 2381 2855 2742 
Q 2594 3103 2138 3103 
Q 1681 3103 1420 2742 
Q 1159 2381 1159 1747 
Q 1159 1113 1420 752 
Q 1681 391 2138 391 
Q 2594 391 2855 752 
Q 3116 1113 3116 1747 
z
" transform="scale(0.015625)"/>
       <path id="DejaVuSans-20" transform="scale(0.015625)"/>
       <path id="DejaVuSans-73" d="M 2834 3397 
L 2834 2853 
Q 2591 2978 2328 3040 
Q 2066 3103 1784 3103 
Q 1356 3103 1142 2972 
Q 928 2841 928 2578 
Q 928 2378 1081 2264 
Q 1234 2150 1697 2047 
L 1894 2003 
Q 2506 1872 2764 1633 
Q 3022 1394 3022 966 
Q 3022 478 2636 193 
Q 2250 -91 1575 -91 
Q 1294 -91 989 -36 
Q 684 19 347 128 
L 347 722 
Q 666 556 975 473 
Q 1284 391 1588 391 
Q 1994 391 2212 530 
Q 2431 669 2431 922 
Q 2431 1156 2273 1281 
Q 2116 1406 1581 1522 
L 1381 1569 
Q 847 1681 609 1914 
Q 372 2147 372 2553 
Q 372 3047 722 3315 
Q 1072 3584 1716 3584 
Q 2034 3584 2315 3537 
Q 2597 3491 2834 3397 
z
" transform="scale(0.015625)"/>
       <path id="DejaVuSans-69" d="M 603 3500 
L 1178 3500 
L 1178 0 
L 603 0 
L 603 3500 
z
M 603 4863 
L 1178 4863 
L 1178 4134 
L 603 4134 
L 603 4863 
z
" transform="scale(0.015625)"/>
       <path id="DejaVuSans-7a" d="M 353 3500 
L 3084 3500 
L 3084 2975 
L 922 459 
L 3084 459 
L 3084 0 
L 275 0 
L 275 525 
L 2438 3041 
L 353 3041 
L 353 3500 
z
" transform="scale(0.015625)"/>
       <path id="DejaVuSans-65" d="M 3597 1894 
L 3597 1613 
L 953 1613 
Q 991 1019 1311 708 
Q 1631 397 2203 397 
Q 2534 397 2845 478 
Q 3156 559 3463 722 
L 3463 178 
Q 3153 47 2828 -22 
Q 2503 -91 2169 -91 
Q 1331 -91 842 396 
Q 353 884 353 1716 
Q 353 2575 817 3079 
Q 1281 3584 2069 3584 
Q 2775 3584 3186 3129 
Q 3597 2675 3597 1894 
z
M 3022 2063 
Q 3016 2534 2758 2815 
Q 2500 3097 2075 3097 
Q 1594 3097 1305 2825 
Q 1016 2553 972 2059 
L 3022 2063 
z
" transform="scale(0.015625)"/>
       <path id="DejaVuSans-7c" d="M 1344 4891 
L 1344 -1509 
L 813 -1509 
L 813 4891 
L 1344 4891 
z
" transform="scale(0.015625)"/>
       <path id="DejaVuSans-Oblique-7a" d="M 744 3500 
L 3475 3500 
L 3372 2975 
L 738 459 
L 2913 459 
L 2822 0 
L -19 0 
L 84 525 
L 2719 3041 
L 653 3041 
L 744 3500 
z
" transform="scale(0.015625)"/>
      </defs>
      <use xlink:href="#DejaVuSans-4a" transform="translate(0 0.578125)"/>
      <use xlink:href="#DejaVuSans-75" transform="translate(29.492188 0.578125)"/>
      <use xlink:href="#DejaVuSans-6d" transform="translate(92.871094 0.578125)"/>
      <use xlink:href="#DejaVuSans-70" transform="translate(190.283203 0.578125)"/>
      <use xlink:href="#DejaVuSans-20" transform="translate(253.759766 0.578125)"/>
      <use xlink:href="#DejaVuSans-73" transform="translate(285.546875 0.578125)"/>
      <use xlink:href="#DejaVuSans-69" transform="translate(337.646484 0.578125)"/>
      <use xlink:href="#DejaVuSans-7a" transform="translate(365.429688 0.578125)"/>
      <use xlink:href="#DejaVuSans-65" transform="translate(417.919922 0.578125)"/>
      <use xlink:href="#DejaVuSans-20" transform="translate(479.443359 0.578125)"/>
      <use xlink:href="#DejaVuSans-7c" transform="translate(511.230469 0.578125)"/>
      <use xlink:href="#DejaVuSans-Oblique-7a" transform="translate(544.921875 0.578125)"/>
      <use xlink:href="#DejaVuSans-7c" transform="translate(597.412109 0.578125)"/>
     </g>
    </g>
   </g>
   <g id="matplotlib.axis_2">
    <g id="ytick_1">
     <g id="line2d_13">
      <path d="M 50.46 218.577157 
L 413.16 218.577157 
" clip-path="url(#p96b1e01236)" style="fill: none; stroke: #b0b0b0; stroke-opacity: 0.25; stroke-width: 0.8; stroke-linecap: square"/>
     </g>
     <g id="line2d_14">
      <defs>
       <path id="m4bd2cf00f0" d="M 0 0 
L -3.5 0 
" style="stroke: #000000; stroke-width: 0.8"/>
      </defs>
      <g>
       <use xlink:href="#m4bd2cf00f0" x="50.46" y="218.577157" style="stroke: #000000; stroke-width: 0.8"/>
      </g>
     </g>
     <g id="text_8">
      <!-- $\mathdefault{10^{-5}}$ -->
      <g transform="translate(22.31 221.996454) scale(0.09 -0.09)">
       <defs>
        <path id="DejaVuSans-2212" d="M 678 2272 
L 4684 2272 
L 4684 1741 
L 678 1741 
L 678 2272 
z
" transform="scale(0.015625)"/>
       </defs>
       <use xlink:href="#DejaVuSans-31" transform="translate(0 0.684375)"/>
       <use xlink:href="#DejaVuSans-30" transform="translate(63.623047 0.684375)"/>
       <use xlink:href="#DejaVuSans-2212" transform="translate(128.203125 38.965625) scale(0.7)"/>
       <use xlink:href="#DejaVuSans-35" transform="translate(186.855469 38.965625) scale(0.7)"/>
      </g>
     </g>
    </g>
    <g id="ytick_2">
     <g id="line2d_15">
      <path d="M 50.46 181.43735 
L 413.16 181.43735 
" clip-path="url(#p96b1e01236)" style="fill: none; stroke: #b0b0b0; stroke-opacity: 0.25; stroke-width: 0.8; stroke-linecap: square"/>
     </g>
     <g id="line2d_16">
      <g>
       <use xlink:href="#m4bd2cf00f0" x="50.46" y="181.43735" style="stroke: #000000; stroke-width: 0.8"/>
      </g>
     </g>
     <g id="text_9">
      <!-- $\mathdefault{10^{-4}}$ -->
      <g transform="translate(22.31 184.856647) scale(0.09 -0.09)">
       <use xlink:href="#DejaVuSans-31" transform="translate(0 0.684375)"/>
       <use xlink:href="#DejaVuSans-30" transform="translate(63.623047 0.684375)"/>
       <use xlink:href="#DejaVuSans-2212" transform="translate(128.203125 38.965625) scale(0.7)"/>
       <use xlink:href="#DejaVuSans-34" transform="translate(186.855469 38.965625) scale(0.7)"/>
      </g>
     </g>
    </g>
    <g id="ytick_3">
     <g id="line2d_17">
      <path d="M 50.46 144.297544 
L 413.16 144.297544 
" clip-path="url(#p96b1e01236)" style="fill: none; stroke: #b0b0b0; stroke-opacity: 0.25; stroke-width: 0.8; stroke-linecap: square"/>
     </g>
     <g id="line2d_18">
      <g>
       <use xlink:href="#m4bd2cf00f0" x="50.46" y="144.297544" style="stroke: #000000; stroke-width: 0.8"/>
      </g>
     </g>
     <g id="text_10">
      <!-- $\mathdefault{10^{-3}}$ -->
      <g transform="translate(22.31 147.716841) scale(0.09 -0.09)">
       <use xlink:href="#DejaVuSans-31" transform="translate(0 0.765625)"/>
       <use xlink:href="#DejaVuSans-30" transform="translate(63.623047 0.765625)"/>
       <use xlink:href="#DejaVuSans-2212" transform="translate(128.203125 39.046875) scale(0.7)"/>
       <use xlink:href="#DejaVuSans-33" transform="translate(186.855469 39.046875) scale(0.7)"/>
      </g>
     </g>
    </g>
    <g id="ytick_4">
     <g id="line2d_19">
      <path d="M 50.46 107.157738 
L 413.16 107.157738 
" clip-path="url(#p96b1e01236)" style="fill: none; stroke: #b0b0b0; stroke-opacity: 0.25; stroke-width: 0.8; stroke-linecap: square"/>
     </g>
     <g id="line2d_20">
      <g>
       <use xlink:href="#m4bd2cf00f0" x="50.46" y="107.157738" style="stroke: #000000; stroke-width: 0.8"/>
      </g>
     </g>
     <g id="text_11">
      <!-- $\mathdefault{10^{-2}}$ -->
      <g transform="translate(22.31 110.577035) scale(0.09 -0.09)">
       <use xlink:href="#DejaVuSans-31" transform="translate(0 0.765625)"/>
       <use xlink:href="#DejaVuSans-30" transform="translate(63.623047 0.765625)"/>
       <use xlink:href="#DejaVuSans-2212" transform="translate(128.203125 39.046875) scale(0.7)"/>
       <use xlink:href="#DejaVuSans-32" transform="translate(186.855469 39.046875) scale(0.7)"/>
      </g>
     </g>
    </g>
    <g id="ytick_5">
     <g id="line2d_21">
      <path d="M 50.46 70.017931 
L 413.16 70.017931 
" clip-path="url(#p96b1e01236)" style="fill: none; stroke: #b0b0b0; stroke-opacity: 0.25; stroke-width: 0.8; stroke-linecap: square"/>
     </g>
     <g id="line2d_22">
      <g>
       <use xlink:href="#m4bd2cf00f0" x="50.46" y="70.017931" style="stroke: #000000; stroke-width: 0.8"/>
      </g>
     </g>
     <g id="text_12">
      <!-- $\mathdefault{10^{-1}}$ -->
      <g transform="translate(22.31 73.437228) scale(0.09 -0.09)">
       <use xlink:href="#DejaVuSans-31" transform="translate(0 0.684375)"/>
       <use xlink:href="#DejaVuSans-30" transform="translate(63.623047 0.684375)"/>
       <use xlink:href="#DejaVuSans-2212" transform="translate(128.203125 38.965625) scale(0.7)"/>
       <use xlink:href="#DejaVuSans-31" transform="translate(186.855469 38.965625) scale(0.7)"/>
      </g>
     </g>
    </g>
    <g id="ytick_6">
     <g id="line2d_23">
      <path d="M 50.46 32.878125 
L 413.16 32.878125 
" clip-path="url(#p96b1e01236)" style="fill: none; stroke: #b0b0b0; stroke-opacity: 0.25; stroke-width: 0.8; stroke-linecap: square"/>
     </g>
     <g id="line2d_24">
      <g>
       <use xlink:href="#m4bd2cf00f0" x="50.46" y="32.878125" style="stroke: #000000; stroke-width: 0.8"/>
      </g>
     </g>
     <g id="text_13">
      <!-- $\mathdefault{10^{0}}$ -->
      <g transform="translate(27.62 36.297422) scale(0.09 -0.09)">
       <use xlink:href="#DejaVuSans-31" transform="translate(0 0.765625)"/>
       <use xlink:href="#DejaVuSans-30" transform="translate(63.623047 0.765625)"/>
       <use xlink:href="#DejaVuSans-30" transform="translate(128.203125 39.046875) scale(0.7)"/>
      </g>
     </g>
    </g>
    <g id="ytick_7">
     <g id="line2d_25">
      <path d="M 50.46 244.536767 
L 413.16 244.536767 
" clip-path="url(#p96b1e01236)" style="fill: none; stroke: #b0b0b0; stroke-opacity: 0.25; stroke-width: 0.8; stroke-linecap: square"/>
     </g>
     <g id="line2d_26">
      <defs>
       <path id="m3100d51921" d="M 0 0 
L -2 0 
" style="stroke: #000000; stroke-width: 0.6"/>
      </defs>
      <g>
       <use xlink:href="#m3100d51921" x="50.46" y="244.536767" style="stroke: #000000; stroke-width: 0.6"/>
      </g>
     </g>
    </g>
    <g id="ytick_8">
     <g id="line2d_27">
      <path d="M 50.46 237.996772 
L 413.16 237.996772 
" clip-path="url(#p96b1e01236)" style="fill: none; stroke: #b0b0b0; stroke-opacity: 0.25; stroke-width: 0.8; stroke-linecap: square"/>
     </g>
     <g id="line2d_28">
      <g>
       <use xlink:href="#m3100d51921" x="50.46" y="237.996772" style="stroke: #000000; stroke-width: 0.6"/>
      </g>
     </g>
    </g>
    <g id="ytick_9">
     <g id="line2d_29">
      <path d="M 50.46 233.356572 
L 413.16 233.356572 
" clip-path="url(#p96b1e01236)" style="fill: none; stroke: #b0b0b0; stroke-opacity: 0.25; stroke-width: 0.8; stroke-linecap: square"/>
     </g>
     <g id="line2d_30">
      <g>
       <use xlink:href="#m3100d51921" x="50.46" y="233.356572" style="stroke: #000000; stroke-width: 0.6"/>
      </g>
     </g>
    </g>
    <g id="ytick_10">
     <g id="line2d_31">
      <path d="M 50.46 229.757353 
L 413.16 229.757353 
" clip-path="url(#p96b1e01236)" style="fill: none; stroke: #b0b0b0; stroke-opacity: 0.25; stroke-width: 0.8; stroke-linecap: square"/>
     </g>
     <g id="line2d_32">
      <g>
       <use xlink:href="#m3100d51921" x="50.46" y="229.757353" style="stroke: #000000; stroke-width: 0.6"/>
      </g>
     </g>
    </g>
    <g id="ytick_11">
     <g id="line2d_33">
      <path d="M 50.46 226.816576 
L 413.16 226.816576 
" clip-path="url(#p96b1e01236)" style="fill: none; stroke: #b0b0b0; stroke-opacity: 0.25; stroke-width: 0.8; stroke-linecap: square"/>
     </g>
     <g id="line2d_34">
      <g>
       <use xlink:href="#m3100d51921" x="50.46" y="226.816576" style="stroke: #000000; stroke-width: 0.6"/>
      </g>
     </g>
    </g>
    <g id="ytick_12">
     <g id="line2d_35">
      <path d="M 50.46 224.330186 
L 413.16 224.330186 
" clip-path="url(#p96b1e01236)" style="fill: none; stroke: #b0b0b0; stroke-opacity: 0.25; stroke-width: 0.8; stroke-linecap: square"/>
     </g>
     <g id="line2d_36">
      <g>
       <use xlink:href="#m3100d51921" x="50.46" y="224.330186" style="stroke: #000000; stroke-width: 0.6"/>
      </g>
     </g>
    </g>
    <g id="ytick_13">
     <g id="line2d_37">
      <path d="M 50.46 222.176376 
L 413.16 222.176376 
" clip-path="url(#p96b1e01236)" style="fill: none; stroke: #b0b0b0; stroke-opacity: 0.25; stroke-width: 0.8; stroke-linecap: square"/>
     </g>
     <g id="line2d_38">
      <g>
       <use xlink:href="#m3100d51921" x="50.46" y="222.176376" style="stroke: #000000; stroke-width: 0.6"/>
      </g>
     </g>
    </g>
    <g id="ytick_14">
     <g id="line2d_39">
      <path d="M 50.46 220.276581 
L 413.16 220.276581 
" clip-path="url(#p96b1e01236)" style="fill: none; stroke: #b0b0b0; stroke-opacity: 0.25; stroke-width: 0.8; stroke-linecap: square"/>
     </g>
     <g id="line2d_40">
      <g>
       <use xlink:href="#m3100d51921" x="50.46" y="220.276581" style="stroke: #000000; stroke-width: 0.6"/>
      </g>
     </g>
    </g>
    <g id="ytick_15">
     <g id="line2d_41">
      <path d="M 50.46 207.396961 
L 413.16 207.396961 
" clip-path="url(#p96b1e01236)" style="fill: none; stroke: #b0b0b0; stroke-opacity: 0.25; stroke-width: 0.8; stroke-linecap: square"/>
     </g>
     <g id="line2d_42">
      <g>
       <use xlink:href="#m3100d51921" x="50.46" y="207.396961" style="stroke: #000000; stroke-width: 0.6"/>
      </g>
     </g>
    </g>
    <g id="ytick_16">
     <g id="line2d_43">
      <path d="M 50.46 200.856966 
L 413.16 200.856966 
" clip-path="url(#p96b1e01236)" style="fill: none; stroke: #b0b0b0; stroke-opacity: 0.25; stroke-width: 0.8; stroke-linecap: square"/>
     </g>
     <g id="line2d_44">
      <g>
       <use xlink:href="#m3100d51921" x="50.46" y="200.856966" style="stroke: #000000; stroke-width: 0.6"/>
      </g>
     </g>
    </g>
    <g id="ytick_17">
     <g id="line2d_45">
      <path d="M 50.46 196.216765 
L 413.16 196.216765 
" clip-path="url(#p96b1e01236)" style="fill: none; stroke: #b0b0b0; stroke-opacity: 0.25; stroke-width: 0.8; stroke-linecap: square"/>
     </g>
     <g id="line2d_46">
      <g>
       <use xlink:href="#m3100d51921" x="50.46" y="196.216765" style="stroke: #000000; stroke-width: 0.6"/>
      </g>
     </g>
    </g>
    <g id="ytick_18">
     <g id="line2d_47">
      <path d="M 50.46 192.617546 
L 413.16 192.617546 
" clip-path="url(#p96b1e01236)" style="fill: none; stroke: #b0b0b0; stroke-opacity: 0.25; stroke-width: 0.8; stroke-linecap: square"/>
     </g>
     <g id="line2d_48">
      <g>
       <use xlink:href="#m3100d51921" x="50.46" y="192.617546" style="stroke: #000000; stroke-width: 0.6"/>
      </g>
     </g>
    </g>
    <g id="ytick_19">
     <g id="line2d_49">
      <path d="M 50.46 189.67677 
L 413.16 189.67677 
" clip-path="url(#p96b1e01236)" style="fill: none; stroke: #b0b0b0; stroke-opacity: 0.25; stroke-width: 0.8; stroke-linecap: square"/>
     </g>
     <g id="line2d_50">
      <g>
       <use xlink:href="#m3100d51921" x="50.46" y="189.67677" style="stroke: #000000; stroke-width: 0.6"/>
      </g>
     </g>
    </g>
    <g id="ytick_20">
     <g id="line2d_51">
      <path d="M 50.46 187.190379 
L 413.16 187.190379 
" clip-path="url(#p96b1e01236)" style="fill: none; stroke: #b0b0b0; stroke-opacity: 0.25; stroke-width: 0.8; stroke-linecap: square"/>
     </g>
     <g id="line2d_52">
      <g>
       <use xlink:href="#m3100d51921" x="50.46" y="187.190379" style="stroke: #000000; stroke-width: 0.6"/>
      </g>
     </g>
    </g>
    <g id="ytick_21">
     <g id="line2d_53">
      <path d="M 50.46 185.03657 
L 413.16 185.03657 
" clip-path="url(#p96b1e01236)" style="fill: none; stroke: #b0b0b0; stroke-opacity: 0.25; stroke-width: 0.8; stroke-linecap: square"/>
     </g>
     <g id="line2d_54">
      <g>
       <use xlink:href="#m3100d51921" x="50.46" y="185.03657" style="stroke: #000000; stroke-width: 0.6"/>
      </g>
     </g>
    </g>
    <g id="ytick_22">
     <g id="line2d_55">
      <path d="M 50.46 183.136775 
L 413.16 183.136775 
" clip-path="url(#p96b1e01236)" style="fill: none; stroke: #b0b0b0; stroke-opacity: 0.25; stroke-width: 0.8; stroke-linecap: square"/>
     </g>
     <g id="line2d_56">
      <g>
       <use xlink:href="#m3100d51921" x="50.46" y="183.136775" style="stroke: #000000; stroke-width: 0.6"/>
      </g>
     </g>
    </g>
    <g id="ytick_23">
     <g id="line2d_57">
      <path d="M 50.46 170.257155 
L 413.16 170.257155 
" clip-path="url(#p96b1e01236)" style="fill: none; stroke: #b0b0b0; stroke-opacity: 0.25; stroke-width: 0.8; stroke-linecap: square"/>
     </g>
     <g id="line2d_58">
      <g>
       <use xlink:href="#m3100d51921" x="50.46" y="170.257155" style="stroke: #000000; stroke-width: 0.6"/>
      </g>
     </g>
    </g>
    <g id="ytick_24">
     <g id="line2d_59">
      <path d="M 50.46 163.717159 
L 413.16 163.717159 
" clip-path="url(#p96b1e01236)" style="fill: none; stroke: #b0b0b0; stroke-opacity: 0.25; stroke-width: 0.8; stroke-linecap: square"/>
     </g>
     <g id="line2d_60">
      <g>
       <use xlink:href="#m3100d51921" x="50.46" y="163.717159" style="stroke: #000000; stroke-width: 0.6"/>
      </g>
     </g>
    </g>
    <g id="ytick_25">
     <g id="line2d_61">
      <path d="M 50.46 159.076959 
L 413.16 159.076959 
" clip-path="url(#p96b1e01236)" style="fill: none; stroke: #b0b0b0; stroke-opacity: 0.25; stroke-width: 0.8; stroke-linecap: square"/>
     </g>
     <g id="line2d_62">
      <g>
       <use xlink:href="#m3100d51921" x="50.46" y="159.076959" style="stroke: #000000; stroke-width: 0.6"/>
      </g>
     </g>
    </g>
    <g id="ytick_26">
     <g id="line2d_63">
      <path d="M 50.46 155.47774 
L 413.16 155.47774 
" clip-path="url(#p96b1e01236)" style="fill: none; stroke: #b0b0b0; stroke-opacity: 0.25; stroke-width: 0.8; stroke-linecap: square"/>
     </g>
     <g id="line2d_64">
      <g>
       <use xlink:href="#m3100d51921" x="50.46" y="155.47774" style="stroke: #000000; stroke-width: 0.6"/>
      </g>
     </g>
    </g>
    <g id="ytick_27">
     <g id="line2d_65">
      <path d="M 50.46 152.536964 
L 413.16 152.536964 
" clip-path="url(#p96b1e01236)" style="fill: none; stroke: #b0b0b0; stroke-opacity: 0.25; stroke-width: 0.8; stroke-linecap: square"/>
     </g>
     <g id="line2d_66">
      <g>
       <use xlink:href="#m3100d51921" x="50.46" y="152.536964" style="stroke: #000000; stroke-width: 0.6"/>
      </g>
     </g>
    </g>
    <g id="ytick_28">
     <g id="line2d_67">
      <path d="M 50.46 150.050573 
L 413.16 150.050573 
" clip-path="url(#p96b1e01236)" style="fill: none; stroke: #b0b0b0; stroke-opacity: 0.25; stroke-width: 0.8; stroke-linecap: square"/>
     </g>
     <g id="line2d_68">
      <g>
       <use xlink:href="#m3100d51921" x="50.46" y="150.050573" style="stroke: #000000; stroke-width: 0.6"/>
      </g>
     </g>
    </g>
    <g id="ytick_29">
     <g id="line2d_69">
      <path d="M 50.46 147.896763 
L 413.16 147.896763 
" clip-path="url(#p96b1e01236)" style="fill: none; stroke: #b0b0b0; stroke-opacity: 0.25; stroke-width: 0.8; stroke-linecap: square"/>
     </g>
     <g id="line2d_70">
      <g>
       <use xlink:href="#m3100d51921" x="50.46" y="147.896763" style="stroke: #000000; stroke-width: 0.6"/>
      </g>
     </g>
    </g>
    <g id="ytick_30">
     <g id="line2d_71">
      <path d="M 50.46 145.996968 
L 413.16 145.996968 
" clip-path="url(#p96b1e01236)" style="fill: none; stroke: #b0b0b0; stroke-opacity: 0.25; stroke-width: 0.8; stroke-linecap: square"/>
     </g>
     <g id="line2d_72">
      <g>
       <use xlink:href="#m3100d51921" x="50.46" y="145.996968" style="stroke: #000000; stroke-width: 0.6"/>
      </g>
     </g>
    </g>
    <g id="ytick_31">
     <g id="line2d_73">
      <path d="M 50.46 133.117348 
L 413.16 133.117348 
" clip-path="url(#p96b1e01236)" style="fill: none; stroke: #b0b0b0; stroke-opacity: 0.25; stroke-width: 0.8; stroke-linecap: square"/>
     </g>
     <g id="line2d_74">
      <g>
       <use xlink:href="#m3100d51921" x="50.46" y="133.117348" style="stroke: #000000; stroke-width: 0.6"/>
      </g>
     </g>
    </g>
    <g id="ytick_32">
     <g id="line2d_75">
      <path d="M 50.46 126.577353 
L 413.16 126.577353 
" clip-path="url(#p96b1e01236)" style="fill: none; stroke: #b0b0b0; stroke-opacity: 0.25; stroke-width: 0.8; stroke-linecap: square"/>
     </g>
     <g id="line2d_76">
      <g>
       <use xlink:href="#m3100d51921" x="50.46" y="126.577353" style="stroke: #000000; stroke-width: 0.6"/>
      </g>
     </g>
    </g>
    <g id="ytick_33">
     <g id="line2d_77">
      <path d="M 50.46 121.937153 
L 413.16 121.937153 
" clip-path="url(#p96b1e01236)" style="fill: none; stroke: #b0b0b0; stroke-opacity: 0.25; stroke-width: 0.8; stroke-linecap: square"/>
     </g>
     <g id="line2d_78">
      <g>
       <use xlink:href="#m3100d51921" x="50.46" y="121.937153" style="stroke: #000000; stroke-width: 0.6"/>
      </g>
     </g>
    </g>
    <g id="ytick_34">
     <g id="line2d_79">
      <path d="M 50.46 118.337933 
L 413.16 118.337933 
" clip-path="url(#p96b1e01236)" style="fill: none; stroke: #b0b0b0; stroke-opacity: 0.25; stroke-width: 0.8; stroke-linecap: square"/>
     </g>
     <g id="line2d_80">
      <g>
       <use xlink:href="#m3100d51921" x="50.46" y="118.337933" style="stroke: #000000; stroke-width: 0.6"/>
      </g>
     </g>
    </g>
    <g id="ytick_35">
     <g id="line2d_81">
      <path d="M 50.46 115.397157 
L 413.16 115.397157 
" clip-path="url(#p96b1e01236)" style="fill: none; stroke: #b0b0b0; stroke-opacity: 0.25; stroke-width: 0.8; stroke-linecap: square"/>
     </g>
     <g id="line2d_82">
      <g>
       <use xlink:href="#m3100d51921" x="50.46" y="115.397157" style="stroke: #000000; stroke-width: 0.6"/>
      </g>
     </g>
    </g>
    <g id="ytick_36">
     <g id="line2d_83">
      <path d="M 50.46 112.910767 
L 413.16 112.910767 
" clip-path="url(#p96b1e01236)" style="fill: none; stroke: #b0b0b0; stroke-opacity: 0.25; stroke-width: 0.8; stroke-linecap: square"/>
     </g>
     <g id="line2d_84">
      <g>
       <use xlink:href="#m3100d51921" x="50.46" y="112.910767" style="stroke: #000000; stroke-width: 0.6"/>
      </g>
     </g>
    </g>
    <g id="ytick_37">
     <g id="line2d_85">
      <path d="M 50.46 110.756957 
L 413.16 110.756957 
" clip-path="url(#p96b1e01236)" style="fill: none; stroke: #b0b0b0; stroke-opacity: 0.25; stroke-width: 0.8; stroke-linecap: square"/>
     </g>
     <g id="line2d_86">
      <g>
       <use xlink:href="#m3100d51921" x="50.46" y="110.756957" style="stroke: #000000; stroke-width: 0.6"/>
      </g>
     </g>
    </g>
    <g id="ytick_38">
     <g id="line2d_87">
      <path d="M 50.46 108.857162 
L 413.16 108.857162 
" clip-path="url(#p96b1e01236)" style="fill: none; stroke: #b0b0b0; stroke-opacity: 0.25; stroke-width: 0.8; stroke-linecap: square"/>
     </g>
     <g id="line2d_88">
      <g>
       <use xlink:href="#m3100d51921" x="50.46" y="108.857162" style="stroke: #000000; stroke-width: 0.6"/>
      </g>
     </g>
    </g>
    <g id="ytick_39">
     <g id="line2d_89">
      <path d="M 50.46 95.977542 
L 413.16 95.977542 
" clip-path="url(#p96b1e01236)" style="fill: none; stroke: #b0b0b0; stroke-opacity: 0.25; stroke-width: 0.8; stroke-linecap: square"/>
     </g>
     <g id="line2d_90">
      <g>
       <use xlink:href="#m3100d51921" x="50.46" y="95.977542" style="stroke: #000000; stroke-width: 0.6"/>
      </g>
     </g>
    </g>
    <g id="ytick_40">
     <g id="line2d_91">
      <path d="M 50.46 89.437547 
L 413.16 89.437547 
" clip-path="url(#p96b1e01236)" style="fill: none; stroke: #b0b0b0; stroke-opacity: 0.25; stroke-width: 0.8; stroke-linecap: square"/>
     </g>
     <g id="line2d_92">
      <g>
       <use xlink:href="#m3100d51921" x="50.46" y="89.437547" style="stroke: #000000; stroke-width: 0.6"/>
      </g>
     </g>
    </g>
    <g id="ytick_41">
     <g id="line2d_93">
      <path d="M 50.46 84.797346 
L 413.16 84.797346 
" clip-path="url(#p96b1e01236)" style="fill: none; stroke: #b0b0b0; stroke-opacity: 0.25; stroke-width: 0.8; stroke-linecap: square"/>
     </g>
     <g id="line2d_94">
      <g>
       <use xlink:href="#m3100d51921" x="50.46" y="84.797346" style="stroke: #000000; stroke-width: 0.6"/>
      </g>
     </g>
    </g>
    <g id="ytick_42">
     <g id="line2d_95">
      <path d="M 50.46 81.198127 
L 413.16 81.198127 
" clip-path="url(#p96b1e01236)" style="fill: none; stroke: #b0b0b0; stroke-opacity: 0.25; stroke-width: 0.8; stroke-linecap: square"/>
     </g>
     <g id="line2d_96">
      <g>
       <use xlink:href="#m3100d51921" x="50.46" y="81.198127" style="stroke: #000000; stroke-width: 0.6"/>
      </g>
     </g>
    </g>
    <g id="ytick_43">
     <g id="line2d_97">
      <path d="M 50.46 78.257351 
L 413.16 78.257351 
" clip-path="url(#p96b1e01236)" style="fill: none; stroke: #b0b0b0; stroke-opacity: 0.25; stroke-width: 0.8; stroke-linecap: square"/>
     </g>
     <g id="line2d_98">
      <g>
       <use xlink:href="#m3100d51921" x="50.46" y="78.257351" style="stroke: #000000; stroke-width: 0.6"/>
      </g>
     </g>
    </g>
    <g id="ytick_44">
     <g id="line2d_99">
      <path d="M 50.46 75.77096 
L 413.16 75.77096 
" clip-path="url(#p96b1e01236)" style="fill: none; stroke: #b0b0b0; stroke-opacity: 0.25; stroke-width: 0.8; stroke-linecap: square"/>
     </g>
     <g id="line2d_100">
      <g>
       <use xlink:href="#m3100d51921" x="50.46" y="75.77096" style="stroke: #000000; stroke-width: 0.6"/>
      </g>
     </g>
    </g>
    <g id="ytick_45">
     <g id="line2d_101">
      <path d="M 50.46 73.61715 
L 413.16 73.61715 
" clip-path="url(#p96b1e01236)" style="fill: none; stroke: #b0b0b0; stroke-opacity: 0.25; stroke-width: 0.8; stroke-linecap: square"/>
     </g>
     <g id="line2d_102">
      <g>
       <use xlink:href="#m3100d51921" x="50.46" y="73.61715" style="stroke: #000000; stroke-width: 0.6"/>
      </g>
     </g>
    </g>
    <g id="ytick_46">
     <g id="line2d_103">
      <path d="M 50.46 71.717356 
L 413.16 71.717356 
" clip-path="url(#p96b1e01236)" style="fill: none; stroke: #b0b0b0; stroke-opacity: 0.25; stroke-width: 0.8; stroke-linecap: square"/>
     </g>
     <g id="line2d_104">
      <g>
       <use xlink:href="#m3100d51921" x="50.46" y="71.717356" style="stroke: #000000; stroke-width: 0.6"/>
      </g>
     </g>
    </g>
    <g id="ytick_47">
     <g id="line2d_105">
      <path d="M 50.46 58.837736 
L 413.16 58.837736 
" clip-path="url(#p96b1e01236)" style="fill: none; stroke: #b0b0b0; stroke-opacity: 0.25; stroke-width: 0.8; stroke-linecap: square"/>
     </g>
     <g id="line2d_106">
      <g>
       <use xlink:href="#m3100d51921" x="50.46" y="58.837736" style="stroke: #000000; stroke-width: 0.6"/>
      </g>
     </g>
    </g>
    <g id="ytick_48">
     <g id="line2d_107">
      <path d="M 50.46 52.29774 
L 413.16 52.29774 
" clip-path="url(#p96b1e01236)" style="fill: none; stroke: #b0b0b0; stroke-opacity: 0.25; stroke-width: 0.8; stroke-linecap: square"/>
     </g>
     <g id="line2d_108">
      <g>
       <use xlink:href="#m3100d51921" x="50.46" y="52.29774" style="stroke: #000000; stroke-width: 0.6"/>
      </g>
     </g>
    </g>
    <g id="ytick_49">
     <g id="line2d_109">
      <path d="M 50.46 47.65754 
L 413.16 47.65754 
" clip-path="url(#p96b1e01236)" style="fill: none; stroke: #b0b0b0; stroke-opacity: 0.25; stroke-width: 0.8; stroke-linecap: square"/>
     </g>
     <g id="line2d_110">
      <g>
       <use xlink:href="#m3100d51921" x="50.46" y="47.65754" style="stroke: #000000; stroke-width: 0.6"/>
      </g>
     </g>
    </g>
    <g id="ytick_50">
     <g id="line2d_111">
      <path d="M 50.46 44.058321 
L 413.16 44.058321 
" clip-path="url(#p96b1e01236)" style="fill: none; stroke: #b0b0b0; stroke-opacity: 0.25; stroke-width: 0.8; stroke-linecap: square"/>
     </g>
     <g id="line2d_112">
      <g>
       <use xlink:href="#m3100d51921" x="50.46" y="44.058321" style="stroke: #000000; stroke-width: 0.6"/>
      </g>
     </g>
    </g>
    <g id="ytick_51">
     <g id="line2d_113">
      <path d="M 50.46 41.117545 
L 413.16 41.117545 
" clip-path="url(#p96b1e01236)" style="fill: none; stroke: #b0b0b0; stroke-opacity: 0.25; stroke-width: 0.8; stroke-linecap: square"/>
     </g>
     <g id="line2d_114">
      <g>
       <use xlink:href="#m3100d51921" x="50.46" y="41.117545" style="stroke: #000000; stroke-width: 0.6"/>
      </g>
     </g>
    </g>
    <g id="ytick_52">
     <g id="line2d_115">
      <path d="M 50.46 38.631154 
L 413.16 38.631154 
" clip-path="url(#p96b1e01236)" style="fill: none; stroke: #b0b0b0; stroke-opacity: 0.25; stroke-width: 0.8; stroke-linecap: square"/>
     </g>
     <g id="line2d_116">
      <g>
       <use xlink:href="#m3100d51921" x="50.46" y="38.631154" style="stroke: #000000; stroke-width: 0.6"/>
      </g>
     </g>
    </g>
    <g id="ytick_53">
     <g id="line2d_117">
      <path d="M 50.46 36.477344 
L 413.16 36.477344 
" clip-path="url(#p96b1e01236)" style="fill: none; stroke: #b0b0b0; stroke-opacity: 0.25; stroke-width: 0.8; stroke-linecap: square"/>
     </g>
     <g id="line2d_118">
      <g>
       <use xlink:href="#m3100d51921" x="50.46" y="36.477344" style="stroke: #000000; stroke-width: 0.6"/>
      </g>
     </g>
    </g>
    <g id="ytick_54">
     <g id="line2d_119">
      <path d="M 50.46 34.577549 
L 413.16 34.577549 
" clip-path="url(#p96b1e01236)" style="fill: none; stroke: #b0b0b0; stroke-opacity: 0.25; stroke-width: 0.8; stroke-linecap: square"/>
     </g>
     <g id="line2d_120">
      <g>
       <use xlink:href="#m3100d51921" x="50.46" y="34.577549" style="stroke: #000000; stroke-width: 0.6"/>
      </g>
     </g>
    </g>
    <g id="text_14">
     <!-- Lévy density $\nu(dz)/dz$  (log scale) -->
     <g transform="translate(16 224.373125) rotate(-90) scale(0.11 -0.11)">
      <defs>
       <path id="DejaVuSans-4c" d="M 628 4666 
L 1259 4666 
L 1259 531 
L 3531 531 
L 3531 0 
L 628 0 
L 628 4666 
z
" transform="scale(0.015625)"/>
       <path id="DejaVuSans-e9" d="M 3597 1894 
L 3597 1613 
L 953 1613 
Q 991 1019 1311 708 
Q 1631 397 2203 397 
Q 2534 397 2845 478 
Q 3156 559 3463 722 
L 3463 178 
Q 3153 47 2828 -22 
Q 2503 -91 2169 -91 
Q 1331 -91 842 396 
Q 353 884 353 1716 
Q 353 2575 817 3079 
Q 1281 3584 2069 3584 
Q 2775 3584 3186 3129 
Q 3597 2675 3597 1894 
z
M 3022 2063 
Q 3016 2534 2758 2815 
Q 2500 3097 2075 3097 
Q 1594 3097 1305 2825 
Q 1016 2553 972 2059 
L 3022 2063 
z
M 2466 5119 
L 3088 5119 
L 2070 3944 
L 1591 3944 
L 2466 5119 
z
" transform="scale(0.015625)"/>
       <path id="DejaVuSans-76" d="M 191 3500 
L 800 3500 
L 1894 563 
L 2988 3500 
L 3597 3500 
L 2284 0 
L 1503 0 
L 191 3500 
z
" transform="scale(0.015625)"/>
       <path id="DejaVuSans-79" d="M 2059 -325 
Q 1816 -950 1584 -1140 
Q 1353 -1331 966 -1331 
L 506 -1331 
L 506 -850 
L 844 -850 
Q 1081 -850 1212 -737 
Q 1344 -625 1503 -206 
L 1606 56 
L 191 3500 
L 800 3500 
L 1894 763 
L 2988 3500 
L 3597 3500 
L 2059 -325 
z
" transform="scale(0.015625)"/>
       <path id="DejaVuSans-64" d="M 2906 2969 
L 2906 4863 
L 3481 4863 
L 3481 0 
L 2906 0 
L 2906 525 
Q 2725 213 2448 61 
Q 2172 -91 1784 -91 
Q 1150 -91 751 415 
Q 353 922 353 1747 
Q 353 2572 751 3078 
Q 1150 3584 1784 3584 
Q 2172 3584 2448 3432 
Q 2725 3281 2906 2969 
z
M 947 1747 
Q 947 1113 1208 752 
Q 1469 391 1925 391 
Q 2381 391 2643 752 
Q 2906 1113 2906 1747 
Q 2906 2381 2643 2742 
Q 2381 3103 1925 3103 
Q 1469 3103 1208 2742 
Q 947 2381 947 1747 
z
" transform="scale(0.015625)"/>
       <path id="DejaVuSans-6e" d="M 3513 2113 
L 3513 0 
L 2938 0 
L 2938 2094 
Q 2938 2591 2744 2837 
Q 2550 3084 2163 3084 
Q 1697 3084 1428 2787 
Q 1159 2491 1159 1978 
L 1159 0 
L 581 0 
L 581 3500 
L 1159 3500 
L 1159 2956 
Q 1366 3272 1645 3428 
Q 1925 3584 2291 3584 
Q 2894 3584 3203 3211 
Q 3513 2838 3513 2113 
z
" transform="scale(0.015625)"/>
       <path id="DejaVuSans-74" d="M 1172 4494 
L 1172 3500 
L 2356 3500 
L 2356 3053 
L 1172 3053 
L 1172 1153 
Q 1172 725 1289 603 
Q 1406 481 1766 481 
L 2356 481 
L 2356 0 
L 1766 0 
Q 1100 0 847 248 
Q 594 497 594 1153 
L 594 3053 
L 172 3053 
L 172 3500 
L 594 3500 
L 594 4494 
L 1172 4494 
z
" transform="scale(0.015625)"/>
       <path id="DejaVuSans-Oblique-3bd" d="M 959 0 
L 572 3500 
L 1191 3500 
L 1522 563 
Q 1972 950 2391 1488 
Q 2706 1891 2788 2241 
Q 2825 2406 2809 2719 
Q 2794 3091 2544 3500 
L 3125 3500 
L 3125 3500 
Q 3288 3222 3353 2834 
Q 3416 2478 3369 2234 
Q 3250 1622 2719 1075 
Q 2025 363 1572 0 
L 959 0 
z
" transform="scale(0.015625)"/>
       <path id="DejaVuSans-28" d="M 1984 4856 
Q 1566 4138 1362 3434 
Q 1159 2731 1159 2009 
Q 1159 1288 1364 580 
Q 1569 -128 1984 -844 
L 1484 -844 
Q 1016 -109 783 600 
Q 550 1309 550 2009 
Q 550 2706 781 3412 
Q 1013 4119 1484 4856 
L 1984 4856 
z
" transform="scale(0.015625)"/>
       <path id="DejaVuSans-Oblique-64" d="M 2675 525 
Q 2444 222 2128 65 
Q 1813 -91 1428 -91 
Q 903 -91 598 267 
Q 294 625 294 1247 
Q 294 1766 478 2236 
Q 663 2706 1013 3078 
Q 1244 3325 1534 3454 
Q 1825 3584 2144 3584 
Q 2481 3584 2739 3421 
Q 2997 3259 3138 2956 
L 3513 4863 
L 4091 4863 
L 3144 0 
L 2566 0 
L 2675 525 
z
M 891 1350 
Q 891 897 1095 644 
Q 1300 391 1663 391 
Q 1931 391 2161 520 
Q 2391 650 2566 903 
Q 2750 1166 2856 1509 
Q 2963 1853 2963 2188 
Q 2963 2622 2758 2865 
Q 2553 3109 2194 3109 
Q 1922 3109 1687 2981 
Q 1453 2853 1288 2613 
Q 1106 2353 998 2009 
Q 891 1666 891 1350 
z
" transform="scale(0.015625)"/>
       <path id="DejaVuSans-29" d="M 513 4856 
L 1013 4856 
Q 1481 4119 1714 3412 
Q 1947 2706 1947 2009 
Q 1947 1309 1714 600 
Q 1481 -109 1013 -844 
L 513 -844 
Q 928 -128 1133 580 
Q 1338 1288 1338 2009 
Q 1338 2731 1133 3434 
Q 928 4138 513 4856 
z
" transform="scale(0.015625)"/>
       <path id="DejaVuSans-2f" d="M 1625 4666 
L 2156 4666 
L 531 -594 
L 0 -594 
L 1625 4666 
z
" transform="scale(0.015625)"/>
       <path id="DejaVuSans-6c" d="M 603 4863 
L 1178 4863 
L 1178 0 
L 603 0 
L 603 4863 
z
" transform="scale(0.015625)"/>
       <path id="DejaVuSans-6f" d="M 1959 3097 
Q 1497 3097 1228 2736 
Q 959 2375 959 1747 
Q 959 1119 1226 758 
Q 1494 397 1959 397 
Q 2419 397 2687 759 
Q 2956 1122 2956 1747 
Q 2956 2369 2687 2733 
Q 2419 3097 1959 3097 
z
M 1959 3584 
Q 2709 3584 3137 3096 
Q 3566 2609 3566 1747 
Q 3566 888 3137 398 
Q 2709 -91 1959 -91 
Q 1206 -91 779 398 
Q 353 888 353 1747 
Q 353 2609 779 3096 
Q 1206 3584 1959 3584 
z
" transform="scale(0.015625)"/>
       <path id="DejaVuSans-67" d="M 2906 1791 
Q 2906 2416 2648 2759 
Q 2391 3103 1925 3103 
Q 1463 3103 1205 2759 
Q 947 2416 947 1791 
Q 947 1169 1205 825 
Q 1463 481 1925 481 
Q 2391 481 2648 825 
Q 2906 1169 2906 1791 
z
M 3481 434 
Q 3481 -459 3084 -895 
Q 2688 -1331 1869 -1331 
Q 1566 -1331 1297 -1286 
Q 1028 -1241 775 -1147 
L 775 -588 
Q 1028 -725 1275 -790 
Q 1522 -856 1778 -856 
Q 2344 -856 2625 -561 
Q 2906 -266 2906 331 
L 2906 616 
Q 2728 306 2450 153 
Q 2172 0 1784 0 
Q 1141 0 747 490 
Q 353 981 353 1791 
Q 353 2603 747 3093 
Q 1141 3584 1784 3584 
Q 2172 3584 2450 3431 
Q 2728 3278 2906 2969 
L 2906 3500 
L 3481 3500 
L 3481 434 
z
" transform="scale(0.015625)"/>
       <path id="DejaVuSans-63" d="M 3122 3366 
L 3122 2828 
Q 2878 2963 2633 3030 
Q 2388 3097 2138 3097 
Q 1578 3097 1268 2742 
Q 959 2388 959 1747 
Q 959 1106 1268 751 
Q 1578 397 2138 397 
Q 2388 397 2633 464 
Q 2878 531 3122 666 
L 3122 134 
Q 2881 22 2623 -34 
Q 2366 -91 2075 -91 
Q 1284 -91 818 406 
Q 353 903 353 1747 
Q 353 2603 823 3093 
Q 1294 3584 2113 3584 
Q 2378 3584 2631 3529 
Q 2884 3475 3122 3366 
z
" transform="scale(0.015625)"/>
       <path id="DejaVuSans-61" d="M 2194 1759 
Q 1497 1759 1228 1600 
Q 959 1441 959 1056 
Q 959 750 1161 570 
Q 1363 391 1709 391 
Q 2188 391 2477 730 
Q 2766 1069 2766 1631 
L 2766 1759 
L 2194 1759 
z
M 3341 1997 
L 3341 0 
L 2766 0 
L 2766 531 
Q 2569 213 2275 61 
Q 1981 -91 1556 -91 
Q 1019 -91 701 211 
Q 384 513 384 1019 
Q 384 1609 779 1909 
Q 1175 2209 1959 2209 
L 2766 2209 
L 2766 2266 
Q 2766 2663 2505 2880 
Q 2244 3097 1772 3097 
Q 1472 3097 1187 3025 
Q 903 2953 641 2809 
L 641 3341 
Q 956 3463 1253 3523 
Q 1550 3584 1831 3584 
Q 2591 3584 2966 3190 
Q 3341 2797 3341 1997 
z
" transform="scale(0.015625)"/>
      </defs>
      <use xlink:href="#DejaVuSans-4c" transform="translate(0 0.015625)"/>
      <use xlink:href="#DejaVuSans-e9" transform="translate(55.712891 0.015625)"/>
      <use xlink:href="#DejaVuSans-76" transform="translate(117.236328 0.015625)"/>
      <use xlink:href="#DejaVuSans-79" transform="translate(176.416016 0.015625)"/>
      <use xlink:href="#DejaVuSans-20" transform="translate(235.595703 0.015625)"/>
      <use xlink:href="#DejaVuSans-64" transform="translate(267.382812 0.015625)"/>
      <use xlink:href="#DejaVuSans-65" transform="translate(330.859375 0.015625)"/>
      <use xlink:href="#DejaVuSans-6e" transform="translate(392.382812 0.015625)"/>
      <use xlink:href="#DejaVuSans-73" transform="translate(455.761719 0.015625)"/>
      <use xlink:href="#DejaVuSans-69" transform="translate(507.861328 0.015625)"/>
      <use xlink:href="#DejaVuSans-74" transform="translate(535.644531 0.015625)"/>
      <use xlink:href="#DejaVuSans-79" transform="translate(574.853516 0.015625)"/>
      <use xlink:href="#DejaVuSans-20" transform="translate(634.033203 0.015625)"/>
      <use xlink:href="#DejaVuSans-Oblique-3bd" transform="translate(665.820312 0.015625)"/>
      <use xlink:href="#DejaVuSans-28" transform="translate(721.679688 0.015625)"/>
      <use xlink:href="#DejaVuSans-Oblique-64" transform="translate(760.693359 0.015625)"/>
      <use xlink:href="#DejaVuSans-Oblique-7a" transform="translate(824.169922 0.015625)"/>
      <use xlink:href="#DejaVuSans-29" transform="translate(876.660156 0.015625)"/>
      <use xlink:href="#DejaVuSans-2f" transform="translate(915.673828 0.015625)"/>
      <use xlink:href="#DejaVuSans-Oblique-64" transform="translate(949.365234 0.015625)"/>
      <use xlink:href="#DejaVuSans-Oblique-7a" transform="translate(1012.841797 0.015625)"/>
      <use xlink:href="#DejaVuSans-20" transform="translate(1065.332031 0.015625)"/>
      <use xlink:href="#DejaVuSans-20" transform="translate(1097.119141 0.015625)"/>
      <use xlink:href="#DejaVuSans-28" transform="translate(1128.90625 0.015625)"/>
      <use xlink:href="#DejaVuSans-6c" transform="translate(1167.919922 0.015625)"/>
      <use xlink:href="#DejaVuSans-6f" transform="translate(1195.703125 0.015625)"/>
      <use xlink:href="#DejaVuSans-67" transform="translate(1256.884766 0.015625)"/>
      <use xlink:href="#DejaVuSans-20" transform="translate(1320.361328 0.015625)"/>
      <use xlink:href="#DejaVuSans-73" transform="translate(1352.148438 0.015625)"/>
      <use xlink:href="#DejaVuSans-63" transform="translate(1404.248047 0.015625)"/>
      <use xlink:href="#DejaVuSans-61" transform="translate(1459.228516 0.015625)"/>
      <use xlink:href="#DejaVuSans-6c" transform="translate(1520.507812 0.015625)"/>
      <use xlink:href="#DejaVuSans-65" transform="translate(1548.291016 0.015625)"/>
      <use xlink:href="#DejaVuSans-29" transform="translate(1609.814453 0.015625)"/>
     </g>
    </g>
   </g>
   <g id="line2d_121">
    <path d="M 66.946364 32.878125 
L 74.652844 33.079375 
L 82.359325 33.496517 
L 90.065805 34.129552 
L 97.772286 34.978478 
L 105.478766 36.043296 
L 113.185247 37.324007 
L 120.891727 38.82061 
L 128.598208 40.533105 
L 136.304688 42.461492 
L 144.011169 44.605771 
L 152.268112 47.142787 
L 160.525055 49.927638 
L 168.781999 52.960325 
L 177.038942 56.240847 
L 185.295886 59.769204 
L 193.552829 63.545397 
L 201.809772 67.569425 
L 210.066716 71.841288 
L 218.323659 76.360987 
L 226.580603 81.128521 
L 234.837546 86.14389 
L 243.094489 91.407095 
L 251.901896 97.294349 
L 260.709302 103.463585 
L 269.516708 109.914803 
L 278.324114 116.648002 
L 287.131521 123.663183 
L 295.938927 130.960345 
L 304.746333 138.539489 
L 313.55374 146.400614 
L 322.911609 155.062028 
L 332.269478 164.041772 
L 341.627347 173.339847 
L 350.985216 182.956253 
L 360.343085 192.890989 
L 369.700955 203.144057 
L 379.058824 213.715455 
L 388.967156 225.255669 
L 396.673636 234.478125 
L 396.673636 234.478125 
" clip-path="url(#p96b1e01236)" style="fill: none; stroke: #2e6be5; stroke-width: 2; stroke-linecap: square"/>
   </g>
   <g id="line2d_122">
    <path d="M 66.946364 32.878125 
L 68.047289 37.884505 
L 69.148215 41.863348 
L 70.249141 45.190484 
L 71.90053 49.375989 
L 73.551918 52.907553 
L 75.203307 55.987307 
L 77.405159 59.593115 
L 79.60701 62.782335 
L 82.359325 66.343549 
L 85.111639 69.553168 
L 88.414416 73.058171 
L 92.267657 76.787336 
L 96.67136 80.692908 
L 101.625526 84.744879 
L 107.130155 88.925761 
L 113.185247 93.226496 
L 119.790801 97.643511 
L 127.497282 102.516217 
L 135.754225 107.475947 
L 145.112094 112.842219 
L 155.570889 118.588559 
L 167.681073 124.982701 
L 181.442645 131.984393 
L 196.855606 139.565519 
L 213.919956 147.707357 
L 233.186157 156.650503 
L 255.204673 166.617156 
L 279.975503 177.575537 
L 307.498648 189.503848 
L 338.875033 202.852359 
L 374.104658 217.590904 
L 396.673636 226.920114 
L 396.673636 226.920114 
" clip-path="url(#p96b1e01236)" style="fill: none; stroke: #27ae60; stroke-width: 2; stroke-linecap: square"/>
   </g>
   <g id="line2d_123">
    <path d="M 66.946364 32.878125 
L 68.047289 41.169836 
L 69.148215 47.611979 
L 70.249141 52.88105 
L 71.350067 57.339165 
L 73.001455 62.957733 
L 74.652844 67.663291 
L 76.304233 71.711502 
L 77.955621 75.263711 
L 80.157473 79.410895 
L 82.359325 83.039054 
L 84.561176 86.263768 
L 87.313491 89.848208 
L 90.065805 93.038349 
L 92.81812 95.912406 
L 96.120897 99.023287 
L 99.423674 101.832866 
L 103.276915 104.800167 
L 107.130155 107.492124 
L 111.533858 110.290978 
L 116.488024 113.147439 
L 121.44219 115.747868 
L 126.946819 118.387865 
L 133.001911 121.038938 
L 139.607465 123.679138 
L 146.763483 126.29198 
L 154.469964 128.865413 
L 162.726907 131.3909 
L 172.084776 134.010362 
L 181.993108 136.548246 
L 193.002366 139.130105 
L 204.562087 141.61461 
L 217.222733 144.111999 
L 230.984306 146.603086 
L 246.397267 149.160724 
L 262.911153 151.672007 
L 281.076429 154.20458 
L 300.893093 156.736622 
L 322.361146 159.251338 
L 346.03105 161.792743 
L 371.352343 164.285703 
L 396.673636 166.581428 
L 396.673636 166.581428 
" clip-path="url(#p96b1e01236)" style="fill: none; stroke-dasharray: 7.4,3.2; stroke-dashoffset: 0; stroke: #e8850a; stroke-width: 2"/>
   </g>
   <g id="patch_3">
    <path d="M 50.46 244.558125 
L 50.46 22.798125 
" style="fill: none; stroke: #000000; stroke-width: 0.8; stroke-linejoin: miter; stroke-linecap: square"/>
   </g>
   <g id="patch_4">
    <path d="M 50.46 244.558125 
L 413.16 244.558125 
" style="fill: none; stroke: #000000; stroke-width: 0.8; stroke-linejoin: miter; stroke-linecap: square"/>
   </g>
   <g id="text_15">
    <!-- Lévy measure tails — heavier tail = more frequent/larger jumps -->
    <g transform="translate(39.94875 16.798125) scale(0.12 -0.12)">
     <defs>
      <path id="DejaVuSans-72" d="M 2631 2963 
Q 2534 3019 2420 3045 
Q 2306 3072 2169 3072 
Q 1681 3072 1420 2755 
Q 1159 2438 1159 1844 
L 1159 0 
L 581 0 
L 581 3500 
L 1159 3500 
L 1159 2956 
Q 1341 3275 1631 3429 
Q 1922 3584 2338 3584 
Q 2397 3584 2469 3576 
Q 2541 3569 2628 3553 
L 2631 2963 
z
" transform="scale(0.015625)"/>
      <path id="DejaVuSans-2014" d="M 313 1978 
L 6088 1978 
L 6088 1528 
L 313 1528 
L 313 1978 
z
" transform="scale(0.015625)"/>
      <path id="DejaVuSans-68" d="M 3513 2113 
L 3513 0 
L 2938 0 
L 2938 2094 
Q 2938 2591 2744 2837 
Q 2550 3084 2163 3084 
Q 1697 3084 1428 2787 
Q 1159 2491 1159 1978 
L 1159 0 
L 581 0 
L 581 4863 
L 1159 4863 
L 1159 2956 
Q 1366 3272 1645 3428 
Q 1925 3584 2291 3584 
Q 2894 3584 3203 3211 
Q 3513 2838 3513 2113 
z
" transform="scale(0.015625)"/>
      <path id="DejaVuSans-3d" d="M 678 2906 
L 4684 2906 
L 4684 2381 
L 678 2381 
L 678 2906 
z
M 678 1631 
L 4684 1631 
L 4684 1100 
L 678 1100 
L 678 1631 
z
" transform="scale(0.015625)"/>
      <path id="DejaVuSans-66" d="M 2375 4863 
L 2375 4384 
L 1825 4384 
Q 1516 4384 1395 4259 
Q 1275 4134 1275 3809 
L 1275 3500 
L 2222 3500 
L 2222 3053 
L 1275 3053 
L 1275 0 
L 697 0 
L 697 3053 
L 147 3053 
L 147 3500 
L 697 3500 
L 697 3744 
Q 697 4328 969 4595 
Q 1241 4863 1831 4863 
L 2375 4863 
z
" transform="scale(0.015625)"/>
      <path id="DejaVuSans-71" d="M 947 1747 
Q 947 1113 1208 752 
Q 1469 391 1925 391 
Q 2381 391 2643 752 
Q 2906 1113 2906 1747 
Q 2906 2381 2643 2742 
Q 2381 3103 1925 3103 
Q 1469 3103 1208 2742 
Q 947 2381 947 1747 
z
M 2906 525 
Q 2725 213 2448 61 
Q 2172 -91 1784 -91 
Q 1150 -91 751 415 
Q 353 922 353 1747 
Q 353 2572 751 3078 
Q 1150 3584 1784 3584 
Q 2172 3584 2448 3432 
Q 2725 3281 2906 2969 
L 2906 3500 
L 3481 3500 
L 3481 -1331 
L 2906 -1331 
L 2906 525 
z
" transform="scale(0.015625)"/>
      <path id="DejaVuSans-6a" d="M 603 3500 
L 1178 3500 
L 1178 -63 
Q 1178 -731 923 -1031 
Q 669 -1331 103 -1331 
L -116 -1331 
L -116 -844 
L 38 -844 
Q 366 -844 484 -692 
Q 603 -541 603 -63 
L 603 3500 
z
M 603 4863 
L 1178 4863 
L 1178 4134 
L 603 4134 
L 603 4863 
z
" transform="scale(0.015625)"/>
     </defs>
     <use xlink:href="#DejaVuSans-4c"/>
     <use xlink:href="#DejaVuSans-e9" x="53.962891"/>
     <use xlink:href="#DejaVuSans-76" x="115.486328"/>
     <use xlink:href="#DejaVuSans-79" x="174.666016"/>
     <use xlink:href="#DejaVuSans-20" x="233.845703"/>
     <use xlink:href="#DejaVuSans-6d" x="265.632812"/>
     <use xlink:href="#DejaVuSans-65" x="363.044922"/>
     <use xlink:href="#DejaVuSans-61" x="424.568359"/>
     <use xlink:href="#DejaVuSans-73" x="485.847656"/>
     <use xlink:href="#DejaVuSans-75" x="537.947266"/>
     <use xlink:href="#DejaVuSans-72" x="601.326172"/>
     <use xlink:href="#DejaVuSans-65" x="640.189453"/>
     <use xlink:href="#DejaVuSans-20" x="701.712891"/>
     <use xlink:href="#DejaVuSans-74" x="733.5"/>
     <use xlink:href="#DejaVuSans-61" x="772.708984"/>
     <use xlink:href="#DejaVuSans-69" x="833.988281"/>
     <use xlink:href="#DejaVuSans-6c" x="861.771484"/>
     <use xlink:href="#DejaVuSans-73" x="889.554688"/>
     <use xlink:href="#DejaVuSans-20" x="941.654297"/>
     <use xlink:href="#DejaVuSans-2014" x="973.441406"/>
     <use xlink:href="#DejaVuSans-20" x="1073.441406"/>
     <use xlink:href="#DejaVuSans-68" x="1105.228516"/>
     <use xlink:href="#DejaVuSans-65" x="1168.607422"/>
     <use xlink:href="#DejaVuSans-61" x="1230.130859"/>
     <use xlink:href="#DejaVuSans-76" x="1291.410156"/>
     <use xlink:href="#DejaVuSans-69" x="1350.589844"/>
     <use xlink:href="#DejaVuSans-65" x="1378.373047"/>
     <use xlink:href="#DejaVuSans-72" x="1439.896484"/>
     <use xlink:href="#DejaVuSans-20" x="1481.009766"/>
     <use xlink:href="#DejaVuSans-74" x="1512.796875"/>
     <use xlink:href="#DejaVuSans-61" x="1552.005859"/>
     <use xlink:href="#DejaVuSans-69" x="1613.285156"/>
     <use xlink:href="#DejaVuSans-6c" x="1641.068359"/>
     <use xlink:href="#DejaVuSans-20" x="1668.851562"/>
     <use xlink:href="#DejaVuSans-3d" x="1700.638672"/>
     <use xlink:href="#DejaVuSans-20" x="1784.427734"/>
     <use xlink:href="#DejaVuSans-6d" x="1816.214844"/>
     <use xlink:href="#DejaVuSans-6f" x="1913.626953"/>
     <use xlink:href="#DejaVuSans-72" x="1974.808594"/>
     <use xlink:href="#DejaVuSans-65" x="2013.671875"/>
     <use xlink:href="#DejaVuSans-20" x="2075.195312"/>
     <use xlink:href="#DejaVuSans-66" x="2106.982422"/>
     <use xlink:href="#DejaVuSans-72" x="2142.1875"/>
     <use xlink:href="#DejaVuSans-65" x="2181.050781"/>
     <use xlink:href="#DejaVuSans-71" x="2242.574219"/>
     <use xlink:href="#DejaVuSans-75" x="2306.050781"/>
     <use xlink:href="#DejaVuSans-65" x="2369.429688"/>
     <use xlink:href="#DejaVuSans-6e" x="2430.953125"/>
     <use xlink:href="#DejaVuSans-74" x="2494.332031"/>
     <use xlink:href="#DejaVuSans-2f" x="2533.541016"/>
     <use xlink:href="#DejaVuSans-6c" x="2567.232422"/>
     <use xlink:href="#DejaVuSans-61" x="2595.015625"/>
     <use xlink:href="#DejaVuSans-72" x="2656.294922"/>
     <use xlink:href="#DejaVuSans-67" x="2695.658203"/>
     <use xlink:href="#DejaVuSans-65" x="2759.134766"/>
     <use xlink:href="#DejaVuSans-72" x="2820.658203"/>
     <use xlink:href="#DejaVuSans-20" x="2861.771484"/>
     <use xlink:href="#DejaVuSans-6a" x="2893.558594"/>
     <use xlink:href="#DejaVuSans-75" x="2921.341797"/>
     <use xlink:href="#DejaVuSans-6d" x="2984.720703"/>
     <use xlink:href="#DejaVuSans-70" x="3082.132812"/>
     <use xlink:href="#DejaVuSans-73" x="3145.609375"/>
    </g>
   </g>
   <g id="legend_1">
    <g id="patch_5">
     <path d="M 234.42 72.908437 
L 406.86 72.908437 
Q 408.66 72.908437 408.66 71.108437 
L 408.66 29.098125 
Q 408.66 27.298125 406.86 27.298125 
L 234.42 27.298125 
Q 232.62 27.298125 232.62 29.098125 
L 232.62 71.108437 
Q 232.62 72.908437 234.42 72.908437 
z
" style="fill: #ffffff; opacity: 0.8; stroke: #cccccc; stroke-linejoin: miter"/>
    </g>
    <g id="line2d_124">
     <path d="M 236.22 34.586719 
L 245.22 34.586719 
L 254.22 34.586719 
" style="fill: none; stroke: #2e6be5; stroke-width: 2; stroke-linecap: square"/>
    </g>
    <g id="text_16">
     <!-- Gaussian  ($\nu \equiv 0$) -->
     <g transform="translate(261.42 37.736719) scale(0.09 -0.09)">
      <defs>
       <path id="DejaVuSans-47" d="M 3809 666 
L 3809 1919 
L 2778 1919 
L 2778 2438 
L 4434 2438 
L 4434 434 
Q 4069 175 3628 42 
Q 3188 -91 2688 -91 
Q 1594 -91 976 548 
Q 359 1188 359 2328 
Q 359 3472 976 4111 
Q 1594 4750 2688 4750 
Q 3144 4750 3555 4637 
Q 3966 4525 4313 4306 
L 4313 3634 
Q 3963 3931 3569 4081 
Q 3175 4231 2741 4231 
Q 1884 4231 1454 3753 
Q 1025 3275 1025 2328 
Q 1025 1384 1454 906 
Q 1884 428 2741 428 
Q 3075 428 3337 486 
Q 3600 544 3809 666 
z
" transform="scale(0.015625)"/>
       <path id="DejaVuSans-2261" d="M 678 2272 
L 4684 2272 
L 4684 1741 
L 678 1741 
L 678 2272 
z
M 678 3438 
L 4684 3438 
L 4684 2906 
L 678 2906 
L 678 3438 
z
M 678 1106 
L 4684 1106 
L 4684 575 
L 678 575 
L 678 1106 
z
" transform="scale(0.015625)"/>
      </defs>
      <use xlink:href="#DejaVuSans-47" transform="translate(0 0.015625)"/>
      <use xlink:href="#DejaVuSans-61" transform="translate(77.490234 0.015625)"/>
      <use xlink:href="#DejaVuSans-75" transform="translate(138.769531 0.015625)"/>
      <use xlink:href="#DejaVuSans-73" transform="translate(202.148438 0.015625)"/>
      <use xlink:href="#DejaVuSans-73" transform="translate(254.248047 0.015625)"/>
      <use xlink:href="#DejaVuSans-69" transform="translate(306.347656 0.015625)"/>
      <use xlink:href="#DejaVuSans-61" transform="translate(334.130859 0.015625)"/>
      <use xlink:href="#DejaVuSans-6e" transform="translate(395.410156 0.015625)"/>
      <use xlink:href="#DejaVuSans-20" transform="translate(458.789062 0.015625)"/>
      <use xlink:href="#DejaVuSans-20" transform="translate(490.576172 0.015625)"/>
      <use xlink:href="#DejaVuSans-28" transform="translate(522.363281 0.015625)"/>
      <use xlink:href="#DejaVuSans-Oblique-3bd" transform="translate(561.376953 0.015625)"/>
      <use xlink:href="#DejaVuSans-2261" transform="translate(636.71875 0.015625)"/>
      <use xlink:href="#DejaVuSans-30" transform="translate(739.990234 0.015625)"/>
      <use xlink:href="#DejaVuSans-29" transform="translate(803.613281 0.015625)"/>
     </g>
    </g>
    <g id="line2d_125">
     <path d="M 236.22 49.238437 
L 245.22 49.238437 
L 254.22 49.238437 
" style="fill: none; stroke: #27ae60; stroke-width: 2; stroke-linecap: square"/>
    </g>
    <g id="text_17">
     <!-- Variance Gamma  ($\nu \propto e^{-c|z|}/|z|$) -->
     <g transform="translate(261.42 52.388437) scale(0.09 -0.09)">
      <defs>
       <path id="DejaVuSans-56" d="M 1831 0 
L 50 4666 
L 709 4666 
L 2188 738 
L 3669 4666 
L 4325 4666 
L 2547 0 
L 1831 0 
z
" transform="scale(0.015625)"/>
       <path id="DejaVuSans-221d" d="M 1647 1134 
Q 2163 1134 2472 1884 
Q 2075 2703 1647 2703 
Q 1334 2703 1175 2478 
Q 1006 2238 1006 1919 
Q 1006 1569 1175 1353 
Q 1350 1134 1647 1134 
z
M 3884 1128 
L 3884 716 
L 3644 716 
Q 3416 716 3247 809 
Q 3078 894 2916 1091 
Q 2819 1203 2666 1466 
Q 2456 1091 2272 925 
Q 2044 725 1681 725 
Q 1259 725 981 1041 
Q 688 1372 688 1919 
Q 688 2444 981 2800 
Q 1241 3116 1688 3116 
Q 1916 3116 2084 3022 
Q 2281 2919 2416 2741 
Q 2541 2581 2666 2366 
Q 2875 2741 3059 2906 
Q 3288 3106 3650 3106 
L 3884 3106 
L 3884 2697 
L 3684 2697 
Q 3222 2697 2859 1947 
Q 3256 1128 3684 1128 
L 3884 1128 
z
" transform="scale(0.015625)"/>
       <path id="DejaVuSans-Oblique-65" d="M 3078 2063 
Q 3088 2113 3092 2166 
Q 3097 2219 3097 2272 
Q 3097 2653 2873 2875 
Q 2650 3097 2266 3097 
Q 1838 3097 1509 2826 
Q 1181 2556 1013 2059 
L 3078 2063 
z
M 3578 1613 
L 903 1613 
Q 884 1494 878 1425 
Q 872 1356 872 1306 
Q 872 872 1139 634 
Q 1406 397 1894 397 
Q 2269 397 2603 481 
Q 2938 566 3225 728 
L 3116 159 
Q 2806 34 2476 -28 
Q 2147 -91 1806 -91 
Q 1078 -91 686 257 
Q 294 606 294 1247 
Q 294 1794 489 2264 
Q 684 2734 1063 3103 
Q 1306 3334 1642 3459 
Q 1978 3584 2356 3584 
Q 2950 3584 3301 3228 
Q 3653 2872 3653 2272 
Q 3653 2128 3634 1964 
Q 3616 1800 3578 1613 
z
" transform="scale(0.015625)"/>
       <path id="DejaVuSans-Oblique-63" d="M 3431 3366 
L 3316 2797 
Q 3109 2947 2876 3022 
Q 2644 3097 2394 3097 
Q 2119 3097 1870 3000 
Q 1622 2903 1453 2725 
Q 1184 2453 1037 2087 
Q 891 1722 891 1331 
Q 891 859 1127 628 
Q 1363 397 1844 397 
Q 2081 397 2348 469 
Q 2616 541 2906 684 
L 2797 116 
Q 2547 13 2283 -39 
Q 2019 -91 1741 -91 
Q 1044 -91 669 257 
Q 294 606 294 1253 
Q 294 1797 489 2255 
Q 684 2713 1069 3078 
Q 1331 3328 1684 3456 
Q 2038 3584 2456 3584 
Q 2700 3584 2940 3529 
Q 3181 3475 3431 3366 
z
" transform="scale(0.015625)"/>
      </defs>
      <use xlink:href="#DejaVuSans-56" transform="translate(0 0.223438)"/>
      <use xlink:href="#DejaVuSans-61" transform="translate(68.408203 0.223438)"/>
      <use xlink:href="#DejaVuSans-72" transform="translate(129.6875 0.223438)"/>
      <use xlink:href="#DejaVuSans-69" transform="translate(170.800781 0.223438)"/>
      <use xlink:href="#DejaVuSans-61" transform="translate(198.583984 0.223438)"/>
      <use xlink:href="#DejaVuSans-6e" transform="translate(259.863281 0.223438)"/>
      <use xlink:href="#DejaVuSans-63" transform="translate(323.242188 0.223438)"/>
      <use xlink:href="#DejaVuSans-65" transform="translate(378.222656 0.223438)"/>
      <use xlink:href="#DejaVuSans-20" transform="translate(439.746094 0.223438)"/>
      <use xlink:href="#DejaVuSans-47" transform="translate(471.533203 0.223438)"/>
      <use xlink:href="#DejaVuSans-61" transform="translate(549.023438 0.223438)"/>
      <use xlink:href="#DejaVuSans-6d" transform="translate(610.302734 0.223438)"/>
      <use xlink:href="#DejaVuSans-6d" transform="translate(707.714844 0.223438)"/>
      <use xlink:href="#DejaVuSans-61" transform="translate(805.126953 0.223438)"/>
      <use xlink:href="#DejaVuSans-20" transform="translate(866.40625 0.223438)"/>
      <use xlink:href="#DejaVuSans-20" transform="translate(898.193359 0.223438)"/>
      <use xlink:href="#DejaVuSans-28" transform="translate(929.980469 0.223438)"/>
      <use xlink:href="#DejaVuSans-Oblique-3bd" transform="translate(968.994141 0.223438)"/>
      <use xlink:href="#DejaVuSans-221d" transform="translate(1044.335938 0.223438)"/>
      <use xlink:href="#DejaVuSans-Oblique-65" transform="translate(1135.253906 0.223438)"/>
      <use xlink:href="#DejaVuSans-2212" transform="translate(1201.42724 38.504688) scale(0.7)"/>
      <use xlink:href="#DejaVuSans-Oblique-63" transform="translate(1260.079583 38.504688) scale(0.7)"/>
      <use xlink:href="#DejaVuSans-7c" transform="translate(1298.565911 38.504688) scale(0.7)"/>
      <use xlink:href="#DejaVuSans-Oblique-7a" transform="translate(1322.149896 38.504688) scale(0.7)"/>
      <use xlink:href="#DejaVuSans-7c" transform="translate(1358.89306 38.504688) scale(0.7)"/>
      <use xlink:href="#DejaVuSans-2f" transform="translate(1385.211419 0.223438)"/>
      <use xlink:href="#DejaVuSans-7c" transform="translate(1418.902826 0.223438)"/>
      <use xlink:href="#DejaVuSans-Oblique-7a" transform="translate(1452.594232 0.223438)"/>
      <use xlink:href="#DejaVuSans-7c" transform="translate(1505.084466 0.223438)"/>
      <use xlink:href="#DejaVuSans-29" transform="translate(1538.775872 0.223438)"/>
     </g>
    </g>
    <g id="line2d_126">
     <path d="M 236.22 63.998437 
L 245.22 63.998437 
L 254.22 63.998437 
" style="fill: none; stroke-dasharray: 7.4,3.2; stroke-dashoffset: 0; stroke: #e8850a; stroke-width: 2"/>
    </g>
    <g id="text_18">
     <!-- $\alpha$-stable  ($\nu \propto |z|^{-1-\alpha}$,  heaviest) -->
     <g transform="translate(261.42 67.148437) scale(0.09 -0.09)">
      <defs>
       <path id="DejaVuSans-Oblique-3b1" d="M 2619 1628 
L 2622 2350 
Q 2625 3088 2069 3091 
Q 1653 3094 1394 2747 
Q 1069 2319 959 1747 
Q 825 1059 994 731 
Q 1169 397 1547 397 
Q 1966 397 2319 1063 
L 2619 1628 
z
M 2166 3578 
Q 3141 3594 3128 2584 
Q 3128 2584 3616 3500 
L 4128 3500 
L 3119 1603 
L 3109 919 
Q 3109 766 3194 638 
Q 3291 488 3391 488 
L 3669 488 
L 3575 0 
L 3228 0 
Q 2934 0 2722 263 
Q 2622 394 2619 669 
Q 2416 334 2066 50 
Q 1900 -81 1453 -78 
Q 722 -72 456 397 
Q 184 884 353 1747 
Q 534 2675 1009 3097 
Q 1544 3569 2166 3578 
z
" transform="scale(0.015625)"/>
       <path id="DejaVuSans-2d" d="M 313 2009 
L 1997 2009 
L 1997 1497 
L 313 1497 
L 313 2009 
z
" transform="scale(0.015625)"/>
       <path id="DejaVuSans-62" d="M 3116 1747 
Q 3116 2381 2855 2742 
Q 2594 3103 2138 3103 
Q 1681 3103 1420 2742 
Q 1159 2381 1159 1747 
Q 1159 1113 1420 752 
Q 1681 391 2138 391 
Q 2594 391 2855 752 
Q 3116 1113 3116 1747 
z
M 1159 2969 
Q 1341 3281 1617 3432 
Q 1894 3584 2278 3584 
Q 2916 3584 3314 3078 
Q 3713 2572 3713 1747 
Q 3713 922 3314 415 
Q 2916 -91 2278 -91 
Q 1894 -91 1617 61 
Q 1341 213 1159 525 
L 1159 0 
L 581 0 
L 581 4863 
L 1159 4863 
L 1159 2969 
z
" transform="scale(0.015625)"/>
       <path id="DejaVuSans-2c" d="M 750 794 
L 1409 794 
L 1409 256 
L 897 -744 
L 494 -744 
L 750 256 
L 750 794 
z
" transform="scale(0.015625)"/>
      </defs>
      <use xlink:href="#DejaVuSans-Oblique-3b1" transform="translate(0 0.684375)"/>
      <use xlink:href="#DejaVuSans-2d" transform="translate(65.917969 0.684375)"/>
      <use xlink:href="#DejaVuSans-73" transform="translate(102.001953 0.684375)"/>
      <use xlink:href="#DejaVuSans-74" transform="translate(154.101562 0.684375)"/>
      <use xlink:href="#DejaVuSans-61" transform="translate(193.310547 0.684375)"/>
      <use xlink:href="#DejaVuSans-62" transform="translate(254.589844 0.684375)"/>
      <use xlink:href="#DejaVuSans-6c" transform="translate(318.066406 0.684375)"/>
      <use xlink:href="#DejaVuSans-65" transform="translate(345.849609 0.684375)"/>
      <use xlink:href="#DejaVuSans-20" transform="translate(407.373047 0.684375)"/>
      <use xlink:href="#DejaVuSans-20" transform="translate(439.160156 0.684375)"/>
      <use xlink:href="#DejaVuSans-28" transform="translate(470.947266 0.684375)"/>
      <use xlink:href="#DejaVuSans-Oblique-3bd" transform="translate(509.960938 0.684375)"/>
      <use xlink:href="#DejaVuSans-221d" transform="translate(585.302734 0.684375)"/>
      <use xlink:href="#DejaVuSans-7c" transform="translate(676.220703 0.684375)"/>
      <use xlink:href="#DejaVuSans-Oblique-7a" transform="translate(709.912109 0.684375)"/>
      <use xlink:href="#DejaVuSans-7c" transform="translate(762.402344 0.684375)"/>
      <use xlink:href="#DejaVuSans-2212" transform="translate(797.050781 38.965625) scale(0.7)"/>
      <use xlink:href="#DejaVuSans-31" transform="translate(855.703125 38.965625) scale(0.7)"/>
      <use xlink:href="#DejaVuSans-2212" transform="translate(913.876953 38.965625) scale(0.7)"/>
      <use xlink:href="#DejaVuSans-Oblique-3b1" transform="translate(986.166992 38.965625) scale(0.7)"/>
      <use xlink:href="#DejaVuSans-2c" transform="translate(1035.043945 0.684375)"/>
      <use xlink:href="#DejaVuSans-20" transform="translate(1066.831055 0.684375)"/>
      <use xlink:href="#DejaVuSans-20" transform="translate(1098.618164 0.684375)"/>
      <use xlink:href="#DejaVuSans-68" transform="translate(1130.405273 0.684375)"/>
      <use xlink:href="#DejaVuSans-65" transform="translate(1193.78418 0.684375)"/>
      <use xlink:href="#DejaVuSans-61" transform="translate(1255.307617 0.684375)"/>
      <use xlink:href="#DejaVuSans-76" transform="translate(1316.586914 0.684375)"/>
      <use xlink:href="#DejaVuSans-69" transform="translate(1375.766602 0.684375)"/>
      <use xlink:href="#DejaVuSans-65" transform="translate(1403.549805 0.684375)"/>
      <use xlink:href="#DejaVuSans-73" transform="translate(1465.073242 0.684375)"/>
      <use xlink:href="#DejaVuSans-74" transform="translate(1517.172852 0.684375)"/>
      <use xlink:href="#DejaVuSans-29" transform="translate(1556.381836 0.684375)"/>
     </g>
    </g>
   </g>
  </g>
 </g>
 <defs>
  <clipPath id="p96b1e01236">
   <rect x="50.46" y="22.798125" width="362.7" height="221.76"/>
  </clipPath>
 </defs>
</svg>
