<?xml version="1.0" encoding="utf-8" standalone="no"?>
<!DOCTYPE svg PUBLIC "-//W3C//DTD SVG 1.1//EN"
  "http://www.w3.org/Graphics/SVG/1.1/DTD/svg11.dtd">
<svg xmlns:xlink="http://www.w3.org/1999/xlink" width="638.193906pt" height="263.434375pt" viewBox="0 0 638.193906 263.434375" xmlns="http://www.w3.org/2000/svg" version="1.1">
 <metadata>
  <rdf:RDF xmlns:dc="http://purl.org/dc/elements/1.1/" xmlns:cc="http://creativecommons.org/ns#" xmlns:rdf="http://www.w3.org/1999/02/22-rdf-syntax-ns#">
   <cc:Work>
    <dc:type rdf:resource="http://purl.org/dc/dcmitype/StillImage"/>
    <dc:date>2026-03-07T11:02:37.224477</dc:date>
    <dc:format>image/svg+xml</dc:format>
    <dc:creator>
     <cc:Agent>
      <dc:title>Matplotlib v3.8.4, https://matplotlib.org/</dc:title>
     </cc:Agent>
    </dc:creator>
   </cc:Work>
  </rdf:RDF>
 </metadata>
 <defs>
  <style type="text/css">*{stroke-linejoin: round; stroke-linecap: butt}</style>
 </defs>
 <g id="figure_1">
  <g id="patch_1">
   <path d="M 0 263.434375 
L 638.193906 263.434375 
L 638.193906 0 
L 0 0 
z
" style="fill: #ffffff"/>
  </g>
  <g id="axes_1">
   <g id="patch_2">
    <path d="M 42.113906 225.878125 
L 309.087324 225.878125 
L 309.087324 22.318125 
L 42.113906 22.318125 
z
" style="fill: #ffffff"/>
   </g>
   <g id="matplotlib.axis_1">
    <g id="xtick_1">
     <g id="line2d_1">
      <defs>
       <path id="m17a37e65fa" d="M 0 0 
L 0 3.5 
" style="stroke: #000000; stroke-width: 0.8"/>
      </defs>
      <g>
       <use xlink:href="#m17a37e65fa" x="54.249062" y="225.878125" style="stroke: #000000; stroke-width: 0.8"/>
      </g>
     </g>
     <g id="text_1">
      <!-- 0 -->
      <g transform="translate(51.385937 239.716719) scale(0.09 -0.09)">
       <defs>
        <path id="DejaVuSans-30" d="M 2034 4250 
Q 1547 4250 1301 3770 
Q 1056 3291 1056 2328 
Q 1056 1369 1301 889 
Q 1547 409 2034 409 
Q 2525 409 2770 889 
Q 3016 1369 3016 2328 
Q 3016 3291 2770 3770 
Q 2525 4250 2034 4250 
z
M 2034 4750 
Q 2819 4750 3233 4129 
Q 3647 3509 3647 2328 
Q 3647 1150 3233 529 
Q 2819 -91 2034 -91 
Q 1250 -91 836 529 
Q 422 1150 422 2328 
Q 422 3509 836 4129 
Q 1250 4750 2034 4750 
z
" transform="scale(0.015625)"/>
       </defs>
       <use xlink:href="#DejaVuSans-30"/>
      </g>
     </g>
    </g>
    <g id="xtick_2">
     <g id="line2d_2">
      <g>
       <use xlink:href="#m17a37e65fa" x="94.713068" y="225.878125" style="stroke: #000000; stroke-width: 0.8"/>
      </g>
     </g>
     <g id="text_2">
      <!-- 500 -->
      <g transform="translate(86.123693 239.716719) scale(0.09 -0.09)">
       <defs>
        <path id="DejaVuSans-35" d="M 691 4666 
L 3169 4666 
L 3169 4134 
L 1269 4134 
L 1269 2991 
Q 1406 3038 1543 3061 
Q 1681 3084 1819 3084 
Q 2600 3084 3056 2656 
Q 3513 2228 3513 1497 
Q 3513 744 3044 326 
Q 2575 -91 1722 -91 
Q 1428 -91 1123 -41 
Q 819 9 494 109 
L 494 744 
Q 775 591 1075 516 
Q 1375 441 1709 441 
Q 2250 441 2565 725 
Q 2881 1009 2881 1497 
Q 2881 1984 2565 2268 
Q 2250 2553 1709 2553 
Q 1456 2553 1204 2497 
Q 953 2441 691 2322 
L 691 4666 
z
" transform="scale(0.015625)"/>
       </defs>
       <use xlink:href="#DejaVuSans-35"/>
       <use xlink:href="#DejaVuSans-30" x="63.623047"/>
       <use xlink:href="#DejaVuSans-30" x="127.246094"/>
      </g>
     </g>
    </g>
    <g id="xtick_3">
     <g id="line2d_3">
      <g>
       <use xlink:href="#m17a37e65fa" x="135.177073" y="225.878125" style="stroke: #000000; stroke-width: 0.8"/>
      </g>
     </g>
     <g id="text_3">
      <!-- 1000 -->
      <g transform="translate(123.724573 239.716719) scale(0.09 -0.09)">
       <defs>
        <path id="DejaVuSans-31" d="M 794 531 
L 1825 531 
L 1825 4091 
L 703 3866 
L 703 4441 
L 1819 4666 
L 2450 4666 
L 2450 531 
L 3481 531 
L 3481 0 
L 794 0 
L 794 531 
z
" transform="scale(0.015625)"/>
       </defs>
       <use xlink:href="#DejaVuSans-31"/>
       <use xlink:href="#DejaVuSans-30" x="63.623047"/>
       <use xlink:href="#DejaVuSans-30" x="127.246094"/>
       <use xlink:href="#DejaVuSans-30" x="190.869141"/>
      </g>
     </g>
    </g>
    <g id="xtick_4">
     <g id="line2d_4">
      <g>
       <use xlink:href="#m17a37e65fa" x="175.641079" y="225.878125" style="stroke: #000000; stroke-width: 0.8"/>
      </g>
     </g>
     <g id="text_4">
      <!-- 1500 -->
      <g transform="translate(164.188579 239.716719) scale(0.09 -0.09)">
       <use xlink:href="#DejaVuSans-31"/>
       <use xlink:href="#DejaVuSans-35" x="63.623047"/>
       <use xlink:href="#DejaVuSans-30" x="127.246094"/>
       <use xlink:href="#DejaVuSans-30" x="190.869141"/>
      </g>
     </g>
    </g>
    <g id="xtick_5">
     <g id="line2d_5">
      <g>
       <use xlink:href="#m17a37e65fa" x="216.105085" y="225.878125" style="stroke: #000000; stroke-width: 0.8"/>
      </g>
     </g>
     <g id="text_5">
      <!-- 2000 -->
      <g transform="translate(204.652585 239.716719) scale(0.09 -0.09)">
       <defs>
        <path id="DejaVuSans-32" d="M 1228 531 
L 3431 531 
L 3431 0 
L 469 0 
L 469 531 
Q 828 903 1448 1529 
Q 2069 2156 2228 2338 
Q 2531 2678 2651 2914 
Q 2772 3150 2772 3378 
Q 2772 3750 2511 3984 
Q 2250 4219 1831 4219 
Q 1534 4219 1204 4116 
Q 875 4013 500 3803 
L 500 4441 
Q 881 4594 1212 4672 
Q 1544 4750 1819 4750 
Q 2544 4750 2975 4387 
Q 3406 4025 3406 3419 
Q 3406 3131 3298 2873 
Q 3191 2616 2906 2266 
Q 2828 2175 2409 1742 
Q 1991 1309 1228 531 
z
" transform="scale(0.015625)"/>
       </defs>
       <use xlink:href="#DejaVuSans-32"/>
       <use xlink:href="#DejaVuSans-30" x="63.623047"/>
       <use xlink:href="#DejaVuSans-30" x="127.246094"/>
       <use xlink:href="#DejaVuSans-30" x="190.869141"/>
      </g>
     </g>
    </g>
    <g id="xtick_6">
     <g id="line2d_6">
      <g>
       <use xlink:href="#m17a37e65fa" x="256.569091" y="225.878125" style="stroke: #000000; stroke-width: 0.8"/>
      </g>
     </g>
     <g id="text_6">
      <!-- 2500 -->
      <g transform="translate(245.116591 239.716719) scale(0.09 -0.09)">
       <use xlink:href="#DejaVuSans-32"/>
       <use xlink:href="#DejaVuSans-35" x="63.623047"/>
       <use xlink:href="#DejaVuSans-30" x="127.246094"/>
       <use xlink:href="#DejaVuSans-30" x="190.869141"/>
      </g>
     </g>
    </g>
    <g id="xtick_7">
     <g id="line2d_7">
      <g>
       <use xlink:href="#m17a37e65fa" x="297.033097" y="225.878125" style="stroke: #000000; stroke-width: 0.8"/>
      </g>
     </g>
     <g id="text_7">
      <!-- 3000 -->
      <g transform="translate(285.580597 239.716719) scale(0.09 -0.09)">
       <defs>
        <path id="DejaVuSans-33" d="M 2597 2516 
Q 3050 2419 3304 2112 
Q 3559 1806 3559 1356 
Q 3559 666 3084 287 
Q 2609 -91 1734 -91 
Q 1441 -91 1130 -33 
Q 819 25 488 141 
L 488 750 
Q 750 597 1062 519 
Q 1375 441 1716 441 
Q 2309 441 2620 675 
Q 2931 909 2931 1356 
Q 2931 1769 2642 2001 
Q 2353 2234 1838 2234 
L 1294 2234 
L 1294 2753 
L 1863 2753 
Q 2328 2753 2575 2939 
Q 2822 3125 2822 3475 
Q 2822 3834 2567 4026 
Q 2313 4219 1838 4219 
Q 1578 4219 1281 4162 
Q 984 4106 628 3988 
L 628 4550 
Q 988 4650 1302 4700 
Q 1616 4750 1894 4750 
Q 2613 4750 3031 4423 
Q 3450 4097 3450 3541 
Q 3450 3153 3228 2886 
Q 3006 2619 2597 2516 
z
" transform="scale(0.015625)"/>
       </defs>
       <use xlink:href="#DejaVuSans-33"/>
       <use xlink:href="#DejaVuSans-30" x="63.623047"/>
       <use xlink:href="#DejaVuSans-30" x="127.246094"/>
       <use xlink:href="#DejaVuSans-30" x="190.869141"/>
      </g>
     </g>
    </g>
    <g id="text_8">
     <!-- Iteration -->
     <g transform="translate(152.271162 253.946719) scale(0.11 -0.11)">
      <defs>
       <path id="DejaVuSans-49" d="M 628 4666 
L 1259 4666 
L 1259 0 
L 628 0 
L 628 4666 
z
" transform="scale(0.015625)"/>
       <path id="DejaVuSans-74" d="M 1172 4494 
L 1172 3500 
L 2356 3500 
L 2356 3053 
L 1172 3053 
L 1172 1153 
Q 1172 725 1289 603 
Q 1406 481 1766 481 
L 2356 481 
L 2356 0 
L 1766 0 
Q 1100 0 847 248 
Q 594 497 594 1153 
L 594 3053 
L 172 3053 
L 172 3500 
L 594 3500 
L 594 4494 
L 1172 4494 
z
" transform="scale(0.015625)"/>
       <path id="DejaVuSans-65" d="M 3597 1894 
L 3597 1613 
L 953 1613 
Q 991 1019 1311 708 
Q 1631 397 2203 397 
Q 2534 397 2845 478 
Q 3156 559 3463 722 
L 3463 178 
Q 3153 47 2828 -22 
Q 2503 -91 2169 -91 
Q 1331 -91 842 396 
Q 353 884 353 1716 
Q 353 2575 817 3079 
Q 1281 3584 2069 3584 
Q 2775 3584 3186 3129 
Q 3597 2675 3597 1894 
z
M 3022 2063 
Q 3016 2534 2758 2815 
Q 2500 3097 2075 3097 
Q 1594 3097 1305 2825 
Q 1016 2553 972 2059 
L 3022 2063 
z
" transform="scale(0.015625)"/>
       <path id="DejaVuSans-72" d="M 2631 2963 
Q 2534 3019 2420 3045 
Q 2306 3072 2169 3072 
Q 1681 3072 1420 2755 
Q 1159 2438 1159 1844 
L 1159 0 
L 581 0 
L 581 3500 
L 1159 3500 
L 1159 2956 
Q 1341 3275 1631 3429 
Q 1922 3584 2338 3584 
Q 2397 3584 2469 3576 
Q 2541 3569 2628 3553 
L 2631 2963 
z
" transform="scale(0.015625)"/>
       <path id="DejaVuSans-61" d="M 2194 1759 
Q 1497 1759 1228 1600 
Q 959 1441 959 1056 
Q 959 750 1161 570 
Q 1363 391 1709 391 
Q 2188 391 2477 730 
Q 2766 1069 2766 1631 
L 2766 1759 
L 2194 1759 
z
M 3341 1997 
L 3341 0 
L 2766 0 
L 2766 531 
Q 2569 213 2275 61 
Q 1981 -91 1556 -91 
Q 1019 -91 701 211 
Q 384 513 384 1019 
Q 384 1609 779 1909 
Q 1175 2209 1959 2209 
L 2766 2209 
L 2766 2266 
Q 2766 2663 2505 2880 
Q 2244 3097 1772 3097 
Q 1472 3097 1187 3025 
Q 903 2953 641 2809 
L 641 3341 
Q 956 3463 1253 3523 
Q 1550 3584 1831 3584 
Q 2591 3584 2966 3190 
Q 3341 2797 3341 1997 
z
" transform="scale(0.015625)"/>
       <path id="DejaVuSans-69" d="M 603 3500 
L 1178 3500 
L 1178 0 
L 603 0 
L 603 3500 
z
M 603 4863 
L 1178 4863 
L 1178 4134 
L 603 4134 
L 603 4863 
z
" transform="scale(0.015625)"/>
       <path id="DejaVuSans-6f" d="M 1959 3097 
Q 1497 3097 1228 2736 
Q 959 2375 959 1747 
Q 959 1119 1226 758 
Q 1494 397 1959 397 
Q 2419 397 2687 759 
Q 2956 1122 2956 1747 
Q 2956 2369 2687 2733 
Q 2419 3097 1959 3097 
z
M 1959 3584 
Q 2709 3584 3137 3096 
Q 3566 2609 3566 1747 
Q 3566 888 3137 398 
Q 2709 -91 1959 -91 
Q 1206 -91 779 398 
Q 353 888 353 1747 
Q 353 2609 779 3096 
Q 1206 3584 1959 3584 
z
" transform="scale(0.015625)"/>
       <path id="DejaVuSans-6e" d="M 3513 2113 
L 3513 0 
L 2938 0 
L 2938 2094 
Q 2938 2591 2744 2837 
Q 2550 3084 2163 3084 
Q 1697 3084 1428 2787 
Q 1159 2491 1159 1978 
L 1159 0 
L 581 0 
L 581 3500 
L 1159 3500 
L 1159 2956 
Q 1366 3272 1645 3428 
Q 1925 3584 2291 3584 
Q 2894 3584 3203 3211 
Q 3513 2838 3513 2113 
z
" transform="scale(0.015625)"/>
      </defs>
      <use xlink:href="#DejaVuSans-49"/>
      <use xlink:href="#DejaVuSans-74" x="29.492188"/>
      <use xlink:href="#DejaVuSans-65" x="68.701172"/>
      <use xlink:href="#DejaVuSans-72" x="130.224609"/>
      <use xlink:href="#DejaVuSans-61" x="171.337891"/>
      <use xlink:href="#DejaVuSans-74" x="232.617188"/>
      <use xlink:href="#DejaVuSans-69" x="271.826172"/>
      <use xlink:href="#DejaVuSans-6f" x="299.609375"/>
      <use xlink:href="#DejaVuSans-6e" x="360.791016"/>
     </g>
    </g>
   </g>
   <g id="matplotlib.axis_2">
    <g id="ytick_1">
     <g id="line2d_8">
      <defs>
       <path id="m109a036b0f" d="M 0 0 
L -3.5 0 
" style="stroke: #000000; stroke-width: 0.8"/>
      </defs>
      <g>
       <use xlink:href="#m109a036b0f" x="42.113906" y="224.442651" style="stroke: #000000; stroke-width: 0.8"/>
      </g>
     </g>
     <g id="text_9">
      <!-- −4 -->
      <g transform="translate(21.845938 227.861948) scale(0.09 -0.09)">
       <defs>
        <path id="DejaVuSans-2212" d="M 678 2272 
L 4684 2272 
L 4684 1741 
L 678 1741 
L 678 2272 
z
" transform="scale(0.015625)"/>
        <path id="DejaVuSans-34" d="M 2419 4116 
L 825 1625 
L 2419 1625 
L 2419 4116 
z
M 2253 4666 
L 3047 4666 
L 3047 1625 
L 3713 1625 
L 3713 1100 
L 3047 1100 
L 3047 0 
L 2419 0 
L 2419 1100 
L 313 1100 
L 313 1709 
L 2253 4666 
z
" transform="scale(0.015625)"/>
       </defs>
       <use xlink:href="#DejaVuSans-2212"/>
       <use xlink:href="#DejaVuSans-34" x="83.789062"/>
      </g>
     </g>
    </g>
    <g id="ytick_2">
     <g id="line2d_9">
      <g>
       <use xlink:href="#m109a036b0f" x="42.113906" y="200.993835" style="stroke: #000000; stroke-width: 0.8"/>
      </g>
     </g>
     <g id="text_10">
      <!-- −3 -->
      <g transform="translate(21.845938 204.413132) scale(0.09 -0.09)">
       <use xlink:href="#DejaVuSans-2212"/>
       <use xlink:href="#DejaVuSans-33" x="83.789062"/>
      </g>
     </g>
    </g>
    <g id="ytick_3">
     <g id="line2d_10">
      <g>
       <use xlink:href="#m109a036b0f" x="42.113906" y="177.545019" style="stroke: #000000; stroke-width: 0.8"/>
      </g>
     </g>
     <g id="text_11">
      <!-- −2 -->
      <g transform="translate(21.845938 180.964315) scale(0.09 -0.09)">
       <use xlink:href="#DejaVuSans-2212"/>
       <use xlink:href="#DejaVuSans-32" x="83.789062"/>
      </g>
     </g>
    </g>
    <g id="ytick_4">
     <g id="line2d_11">
      <g>
       <use xlink:href="#m109a036b0f" x="42.113906" y="154.096202" style="stroke: #000000; stroke-width: 0.8"/>
      </g>
     </g>
     <g id="text_12">
      <!-- −1 -->
      <g transform="translate(21.845938 157.515499) scale(0.09 -0.09)">
       <use xlink:href="#DejaVuSans-2212"/>
       <use xlink:href="#DejaVuSans-31" x="83.789062"/>
      </g>
     </g>
    </g>
    <g id="ytick_5">
     <g id="line2d_12">
      <g>
       <use xlink:href="#m109a036b0f" x="42.113906" y="130.647386" style="stroke: #000000; stroke-width: 0.8"/>
      </g>
     </g>
     <g id="text_13">
      <!-- 0 -->
      <g transform="translate(29.387656 134.066683) scale(0.09 -0.09)">
       <use xlink:href="#DejaVuSans-30"/>
      </g>
     </g>
    </g>
    <g id="ytick_6">
     <g id="line2d_13">
      <g>
       <use xlink:href="#m109a036b0f" x="42.113906" y="107.19857" style="stroke: #000000; stroke-width: 0.8"/>
      </g>
     </g>
     <g id="text_14">
      <!-- 1 -->
      <g transform="translate(29.387656 110.617867) scale(0.09 -0.09)">
       <use xlink:href="#DejaVuSans-31"/>
      </g>
     </g>
    </g>
    <g id="ytick_7">
     <g id="line2d_14">
      <g>
       <use xlink:href="#m109a036b0f" x="42.113906" y="83.749753" style="stroke: #000000; stroke-width: 0.8"/>
      </g>
     </g>
     <g id="text_15">
      <!-- 2 -->
      <g transform="translate(29.387656 87.16905) scale(0.09 -0.09)">
       <use xlink:href="#DejaVuSans-32"/>
      </g>
     </g>
    </g>
    <g id="ytick_8">
     <g id="line2d_15">
      <g>
       <use xlink:href="#m109a036b0f" x="42.113906" y="60.300937" style="stroke: #000000; stroke-width: 0.8"/>
      </g>
     </g>
     <g id="text_16">
      <!-- 3 -->
      <g transform="translate(29.387656 63.720234) scale(0.09 -0.09)">
       <use xlink:href="#DejaVuSans-33"/>
      </g>
     </g>
    </g>
    <g id="ytick_9">
     <g id="line2d_16">
      <g>
       <use xlink:href="#m109a036b0f" x="42.113906" y="36.852121" style="stroke: #000000; stroke-width: 0.8"/>
      </g>
     </g>
     <g id="text_17">
      <!-- 4 -->
      <g transform="translate(29.387656 40.271418) scale(0.09 -0.09)">
       <use xlink:href="#DejaVuSans-34"/>
      </g>
     </g>
    </g>
    <g id="text_18">
     <!-- $x_t$ -->
     <g transform="translate(15.558281 129.048125) rotate(-90) scale(0.11 -0.11)">
      <defs>
       <path id="DejaVuSans-Oblique-78" d="M 3841 3500 
L 2234 1784 
L 3219 0 
L 2559 0 
L 1819 1388 
L 531 0 
L -166 0 
L 1556 1844 
L 641 3500 
L 1300 3500 
L 1972 2234 
L 3144 3500 
L 3841 3500 
z
" transform="scale(0.015625)"/>
       <path id="DejaVuSans-Oblique-74" d="M 2706 3500 
L 2619 3053 
L 1472 3053 
L 1100 1153 
Q 1081 1047 1072 975 
Q 1063 903 1063 863 
Q 1063 663 1183 572 
Q 1303 481 1569 481 
L 2150 481 
L 2053 0 
L 1503 0 
Q 991 0 739 200 
Q 488 400 488 806 
Q 488 878 497 964 
Q 506 1050 525 1153 
L 897 3053 
L 409 3053 
L 500 3500 
L 978 3500 
L 1172 4494 
L 1747 4494 
L 1556 3500 
L 2706 3500 
z
" transform="scale(0.015625)"/>
      </defs>
      <use xlink:href="#DejaVuSans-Oblique-78" transform="translate(0 0.3125)"/>
      <use xlink:href="#DejaVuSans-Oblique-74" transform="translate(59.179688 -16.09375) scale(0.7)"/>
     </g>
    </g>
   </g>
   <g id="line2d_17">
    <path d="M 54.249062 165.82061 
L 54.410918 160.104407 
L 54.491846 160.104407 
L 54.572774 157.706242 
L 54.653702 158.021416 
L 54.73463 158.021416 
L 54.815558 156.782742 
L 55.462982 95.457459 
L 55.54391 95.457459 
L 55.624838 105.066647 
L 55.705766 93.511456 
L 55.786694 95.649003 
L 55.867622 111.11549 
L 55.94855 97.172745 
L 56.110406 119.143258 
L 56.191334 116.954342 
L 56.434118 82.447782 
L 56.595974 118.606391 
L 56.676902 123.767799 
L 56.838758 171.579014 
L 56.919686 168.525921 
L 57.000614 155.183983 
L 57.081542 161.725736 
L 57.16247 145.630921 
L 57.324326 186.809642 
L 57.486182 184.13787 
L 57.648038 163.833716 
L 57.890822 179.449806 
L 58.052678 157.949459 
L 58.133606 165.890135 
L 58.295462 197.542931 
L 58.457318 190.043545 
L 58.700102 190.043545 
L 58.861958 166.130784 
L 58.942886 166.130784 
L 59.023814 164.777702 
L 59.18567 160.412917 
L 59.266598 179.612761 
L 59.347526 175.485831 
L 59.509382 159.819935 
L 59.671238 179.133531 
L 59.833094 167.218701 
L 60.075878 153.563549 
L 60.237734 193.558718 
L 60.318663 205.041075 
L 60.399591 185.044295 
L 60.480519 188.020134 
L 60.561447 188.020134 
L 60.642375 189.029044 
L 60.723303 186.585217 
L 60.885159 195.95153 
L 61.127943 122.818762 
L 61.208871 125.757141 
L 61.613511 172.773839 
L 61.694439 172.773839 
L 61.775367 180.482444 
L 61.937223 169.002075 
L 62.018151 194.667446 
L 62.099079 162.33311 
L 62.180007 169.521341 
L 62.260935 190.288469 
L 62.341863 178.220268 
L 62.422791 178.316349 
L 62.584647 170.284483 
L 62.827431 170.284483 
L 62.989287 152.528401 
L 63.070215 143.364338 
L 63.232071 149.511175 
L 63.393927 156.608934 
L 63.555783 151.599083 
L 63.717639 104.373654 
L 63.798567 104.373654 
L 63.960423 98.453203 
L 64.203207 98.453203 
L 64.365063 147.875601 
L 64.607847 53.436632 
L 64.850631 64.945814 
L 64.931559 56.790014 
L 65.012487 59.300406 
L 65.093415 63.76832 
L 65.336199 56.497326 
L 65.417127 55.500182 
L 65.578983 70.860932 
L 65.659911 70.860932 
L 65.740839 85.175162 
L 65.821767 80.276091 
L 65.983623 48.924342 
L 66.064551 48.924342 
L 66.145479 69.75497 
L 66.226407 64.807885 
L 66.550119 79.458683 
L 66.631047 73.906116 
L 66.711975 106.860553 
L 66.873831 58.252503 
L 66.954759 59.40289 
L 67.116616 65.676971 
L 67.3594 65.676971 
L 67.521256 64.428635 
L 67.602184 64.428635 
L 67.76404 63.108044 
L 67.844968 63.108044 
L 67.925896 64.364022 
L 68.249608 115.924355 
L 68.330536 110.071353 
L 68.57332 85.177743 
L 68.654248 85.177743 
L 68.816104 74.0929 
L 68.897032 74.0929 
L 69.058888 58.827463 
L 69.139816 53.75608 
L 69.301672 56.523579 
L 69.544456 91.805345 
L 69.78724 60.173731 
L 69.868168 60.173731 
L 70.030024 106.34392 
L 70.110952 81.777989 
L 70.272808 120.15495 
L 70.434664 110.321683 
L 70.515592 109.302061 
L 70.758376 93.791352 
L 70.839304 107.010355 
L 70.920232 103.319022 
L 71.082088 115.692118 
L 71.163016 100.131126 
L 71.4058 168.228148 
L 71.486728 164.517793 
L 71.567656 139.611658 
L 71.729512 155.885881 
L 71.81044 154.157672 
L 71.972296 181.968609 
L 72.053224 166.894115 
L 72.296008 214.801212 
L 72.457864 197.38724 
L 72.538792 197.38724 
L 72.61972 200.937284 
L 72.862504 174.127891 
L 73.267144 97.58929 
L 73.429 85.452584 
L 73.671784 141.732429 
L 73.83364 114.46236 
L 73.914568 119.796756 
L 74.238281 83.921165 
L 74.319209 82.204333 
L 74.400137 83.269532 
L 74.561993 113.865915 
L 74.723849 82.017303 
L 74.804777 87.387058 
L 74.885705 93.177473 
L 75.047561 164.878664 
L 75.128489 139.2939 
L 75.290345 152.790668 
L 75.371273 107.385975 
L 75.452201 117.883021 
L 75.533129 147.165121 
L 75.614057 145.299018 
L 76.099625 76.026865 
L 76.180553 76.026865 
L 76.261481 71.182737 
L 76.423337 86.383848 
L 76.747049 170.776901 
L 76.827977 166.130923 
L 76.908905 170.884047 
L 76.989833 167.068676 
L 77.151689 146.585899 
L 77.232617 146.585899 
L 77.313545 148.219703 
L 77.637257 195.338137 
L 77.718185 194.378761 
L 77.880041 177.492151 
L 77.960969 167.204162 
L 78.041897 194.369658 
L 78.122825 189.454115 
L 78.203753 185.892832 
L 78.284681 160.827247 
L 78.365609 165.564233 
L 78.446537 165.564233 
L 78.527465 171.075247 
L 78.608393 157.673845 
L 78.689321 179.746023 
L 78.770249 175.329235 
L 78.932105 175.329235 
L 79.093961 183.281455 
L 79.174889 183.281455 
L 79.336745 169.079537 
L 79.417673 145.172114 
L 79.498601 157.114414 
L 79.579529 142.802636 
L 79.741385 174.422845 
L 79.903241 174.422845 
L 79.984169 161.032255 
L 80.146025 180.816101 
L 80.307881 166.933468 
L 80.469737 174.655413 
L 80.550665 174.655413 
L 80.79345 191.645058 
L 80.955306 180.77304 
L 81.036234 142.266613 
L 81.117162 148.594514 
L 81.19809 148.594514 
L 81.279018 172.433182 
L 81.359946 169.349369 
L 81.60273 92.381503 
L 81.683658 108.684007 
L 81.845514 85.938301 
L 82.00737 104.397413 
L 82.088298 104.397413 
L 82.169226 114.203121 
L 82.250154 99.48019 
L 82.331082 112.871806 
L 82.492938 97.192841 
L 82.735722 74.597956 
L 82.81665 82.765788 
L 82.897578 67.931096 
L 82.978506 76.538509 
L 83.140362 70.646718 
L 83.22129 86.154922 
L 83.383146 146.850065 
L 83.464074 125.971879 
L 83.706858 162.390491 
L 83.868714 166.8023 
L 84.03057 190.17173 
L 84.192426 190.17173 
L 84.354282 191.975956 
L 84.43521 191.975956 
L 84.83985 162.762797 
L 84.920778 148.172617 
L 85.001706 178.559882 
L 85.163562 159.768087 
L 85.24449 157.910287 
L 85.325418 124.189116 
L 85.406346 131.162169 
L 85.487274 130.947354 
L 85.568202 149.989067 
L 85.64913 116.500998 
L 85.730058 133.775279 
L 86.134698 76.490414 
L 86.215626 100.499018 
L 86.377482 63.277141 
L 86.45841 63.051035 
L 86.620266 83.563522 
L 86.782122 84.523932 
L 86.86305 84.309226 
L 86.943978 83.479844 
L 87.105834 117.78125 
L 87.186762 108.191213 
L 87.26769 141.708154 
L 87.429546 103.786011 
L 87.510474 119.638261 
L 87.591402 113.173799 
L 87.672331 89.024687 
L 87.753259 91.505171 
L 87.915115 101.282199 
L 88.076971 96.538319 
L 88.157899 104.079319 
L 88.238827 98.954271 
L 88.319755 107.981898 
L 88.481611 164.707861 
L 88.562539 164.127883 
L 88.643467 164.127883 
L 88.805323 156.700538 
L 88.967179 176.944444 
L 89.209963 106.739684 
L 89.371819 104.281163 
L 89.533675 124.336412 
L 89.776459 95.75211 
L 89.857387 95.75211 
L 90.262027 164.428743 
L 90.423883 159.197513 
L 90.585739 194.919731 
L 90.666667 194.919731 
L 90.828523 190.688442 
L 90.909451 190.688442 
L 91.071307 167.334408 
L 91.233163 190.622372 
L 91.395019 190.622372 
L 91.556875 174.328873 
L 91.637803 177.094755 
L 91.799659 192.995658 
L 91.961515 191.684033 
L 92.285227 137.162422 
L 92.447083 140.889483 
L 92.689867 151.547382 
L 92.770795 151.434515 
L 92.851723 151.434515 
L 92.932651 145.626336 
L 93.013579 167.215464 
L 93.256363 136.400607 
L 93.499147 117.489866 
L 93.580075 149.820407 
L 93.661003 140.862409 
L 93.903787 163.33673 
L 93.984715 163.33673 
L 94.146571 182.139754 
L 94.227499 186.938922 
L 94.308427 169.598845 
L 94.389355 174.903826 
L 94.551212 170.718268 
L 94.63214 149.995532 
L 94.713068 176.574148 
L 94.793996 167.881769 
L 95.03678 156.553774 
L 95.198636 162.230634 
L 95.279564 162.230634 
L 95.360492 164.289144 
L 95.522348 147.451261 
L 95.603276 148.563347 
L 95.684204 156.338469 
L 95.765132 156.282318 
L 95.84606 156.282318 
L 95.926988 142.095818 
L 96.088844 174.65324 
L 96.169772 174.65324 
L 96.2507 173.674518 
L 96.331628 179.993166 
L 96.574412 165.929433 
L 96.736268 166.016343 
L 96.817196 143.737446 
L 96.979052 163.026981 
L 97.140908 144.527998 
L 97.221836 162.438988 
L 97.302764 149.334545 
L 97.46462 163.635011 
L 97.626476 163.635011 
L 97.707404 161.578123 
L 97.788332 187.415261 
L 97.86926 184.604359 
L 97.950188 182.384264 
L 98.112044 185.267251 
L 98.2739 197.354968 
L 98.354828 170.245774 
L 98.435756 173.939163 
L 98.516684 173.939163 
L 98.597612 191.063889 
L 98.759468 166.320451 
L 99.002252 151.561904 
L 99.08318 177.789117 
L 99.164108 165.534862 
L 99.245036 176.716925 
L 99.406892 161.804748 
L 99.568748 163.063076 
L 99.811532 118.496824 
L 99.89246 105.351921 
L 99.973388 120.257854 
L 100.054316 104.496119 
L 100.135244 109.592474 
L 100.378028 119.398185 
L 100.458956 137.943894 
L 100.539884 137.885581 
L 100.782668 149.224125 
L 100.863596 149.224125 
L 100.944524 154.159133 
L 101.187308 103.371254 
L 101.268236 103.30004 
L 101.430093 157.003111 
L 101.511021 144.057405 
L 101.591949 151.265495 
L 101.753805 113.88146 
L 101.834733 124.41435 
L 101.915661 122.339353 
L 101.996589 94.708139 
L 102.320301 172.541553 
L 102.401229 138.742581 
L 102.482157 145.563059 
L 102.644013 181.357778 
L 102.724941 181.357778 
L 102.805869 178.569675 
L 102.967725 154.705201 
L 103.048653 142.833386 
L 103.129581 168.653112 
L 103.210509 161.799234 
L 103.372365 164.444034 
L 103.453293 150.372459 
L 103.534221 113.595624 
L 103.857933 161.870265 
L 104.019789 191.01662 
L 104.100717 185.435594 
L 104.181645 185.435594 
L 104.343501 198.821191 
L 104.424429 198.821191 
L 104.748141 125.247637 
L 104.829069 136.064994 
L 104.909997 125.443848 
L 105.152781 159.750193 
L 105.314637 149.047458 
L 105.476493 177.791354 
L 105.638349 176.515989 
L 105.719277 176.515989 
L 105.881133 142.39771 
L 106.123917 163.956654 
L 106.204845 162.129271 
L 106.366701 172.684175 
L 107.095053 73.274916 
L 107.337837 53.551418 
L 107.418765 61.787654 
L 107.580621 101.72939 
L 107.823405 153.238355 
L 107.904333 139.096748 
L 107.985261 185.63249 
L 108.066189 162.504418 
L 108.147118 169.023628 
L 108.551758 82.521731 
L 108.632686 93.040948 
L 108.713614 122.359178 
L 108.794542 104.210427 
L 108.87547 134.016641 
L 108.956398 120.096881 
L 109.037326 140.258474 
L 109.118254 135.191739 
L 109.28011 87.968021 
L 109.361038 91.978792 
L 109.441966 83.953737 
L 109.522894 93.834419 
L 109.603822 50.503925 
L 109.68475 64.240905 
L 109.846606 66.288365 
L 110.008462 66.288365 
L 110.170318 80.565279 
L 110.251246 80.565279 
L 110.413102 64.394975 
L 110.655886 64.394975 
L 110.736814 94.508343 
L 110.817742 87.670021 
L 110.979598 84.344766 
L 111.141454 141.216699 
L 111.222382 139.449914 
L 111.384238 159.832898 
L 111.627022 88.51241 
L 111.70795 91.935934 
L 111.869806 124.460459 
L 111.950734 133.683453 
L 112.355374 75.14478 
L 112.51723 91.130472 
L 112.598158 90.604802 
L 112.760014 94.533114 
L 112.840942 111.630933 
L 113.002798 94.351017 
L 113.32651 144.023136 
L 113.569294 89.244116 
L 113.73115 89.244116 
L 113.812078 100.372365 
L 113.893006 90.807157 
L 114.054862 100.364032 
L 114.13579 98.661788 
L 114.216718 91.958814 
L 114.297646 105.551831 
L 114.459502 96.173008 
L 114.702286 154.849084 
L 114.783214 154.849084 
L 114.864142 157.903039 
L 114.94507 185.237567 
L 115.106927 153.237386 
L 115.187855 147.047957 
L 115.349711 187.989391 
L 115.430639 184.636379 
L 115.511567 185.061934 
L 115.673423 205.166036 
L 115.916207 205.166036 
L 116.320847 177.658685 
L 116.401775 177.658685 
L 116.482703 173.71382 
L 116.644559 149.101468 
L 116.725487 149.101468 
L 116.806415 152.635376 
L 116.887343 132.396627 
L 116.968271 135.592953 
L 117.130127 118.209442 
L 117.372911 158.05847 
L 117.453839 158.05847 
L 117.534767 142.302317 
L 117.615695 144.271233 
L 117.696623 148.710728 
L 117.777551 163.778752 
L 117.858479 156.359376 
L 118.101263 188.590866 
L 118.182191 174.117632 
L 118.263119 176.852899 
L 118.344047 174.228051 
L 118.505903 195.741535 
L 118.667759 192.701451 
L 118.748687 192.701451 
L 118.829615 192.94417 
L 118.910543 216.625398 
L 119.072399 190.840939 
L 119.315183 190.840939 
L 119.396111 173.155545 
L 119.557967 181.700816 
L 119.638895 181.700816 
L 119.800751 168.735699 
L 119.881679 168.735699 
L 119.962607 147.487511 
L 120.043535 174.15845 
L 120.205391 148.681385 
L 120.367247 160.615426 
L 120.448175 159.140989 
L 120.529103 149.158746 
L 120.690959 196.753778 
L 120.771887 195.880404 
L 121.176527 102.538086 
L 121.257455 102.8577 
L 121.419311 82.513223 
L 121.662095 94.981299 
L 121.823951 125.207286 
L 121.90488 128.558688 
L 121.985808 138.062075 
L 122.066736 128.001652 
L 122.147664 132.437163 
L 122.30952 111.046765 
L 122.390448 66.269809 
L 122.471376 68.195653 
L 122.633232 45.846312 
L 122.71416 45.846312 
L 122.795088 47.521878 
L 122.876016 44.98709 
L 123.1188 62.872618 
L 123.361584 113.109065 
L 123.604368 133.239921 
L 123.685296 136.152264 
L 123.847152 146.129782 
L 124.009008 97.764446 
L 124.089936 107.020188 
L 124.170864 150.641953 
L 124.33272 110.071461 
L 124.413648 113.147074 
L 124.575504 157.960666 
L 124.656432 155.585831 
L 124.73736 165.498605 
L 124.899216 190.605392 
L 125.061072 152.701784 
L 125.142 162.630431 
L 125.222928 161.926531 
L 125.303856 162.504919 
L 125.384784 189.555075 
L 125.465712 172.397594 
L 125.54664 175.953476 
L 125.708496 173.864647 
L 125.789424 173.864647 
L 125.870352 188.396382 
L 125.95128 182.509435 
L 126.032208 165.760305 
L 126.194064 187.982004 
L 126.35592 176.186381 
L 126.517776 174.865385 
L 126.598704 174.865385 
L 126.679632 177.572023 
L 126.76056 161.774519 
L 126.841488 109.069665 
L 126.922416 114.903523 
L 127.003344 113.55254 
L 127.1652 75.978013 
L 127.246128 72.026102 
L 127.407984 42.803356 
L 127.650768 91.115965 
L 127.731696 72.065861 
L 127.812624 72.214143 
L 128.136336 95.054176 
L 128.217264 86.754147 
L 128.37912 94.438773 
L 128.540976 94.449336 
L 128.702833 131.610096 
L 128.783761 140.279162 
L 128.864689 122.78374 
L 128.945617 127.676635 
L 129.269329 88.515442 
L 129.350257 92.763516 
L 129.431185 91.686557 
L 129.593041 82.258648 
L 129.673969 87.111725 
L 130.078609 191.095298 
L 130.159537 178.688469 
L 130.240465 174.349838 
L 130.321393 161.74161 
L 130.402321 174.721631 
L 130.483249 155.141993 
L 130.645105 201.693946 
L 130.887889 166.804816 
L 130.968817 162.385748 
L 131.130673 172.924707 
L 131.211601 172.924707 
L 131.292529 138.991183 
L 131.454385 169.494988 
L 131.535313 167.59193 
L 131.778097 148.659742 
L 131.859025 163.351455 
L 132.020881 203.796406 
L 132.263665 175.201544 
L 132.344593 177.64071 
L 132.425521 199.418319 
L 132.506449 196.654691 
L 132.749233 178.922152 
L 132.830161 178.922152 
L 132.911089 159.687594 
L 132.992017 187.191854 
L 133.153873 146.749271 
L 133.315729 188.199643 
L 133.639441 120.10115 
L 133.801297 156.93555 
L 133.882225 155.156688 
L 134.044081 196.058293 
L 134.125009 213.112202 
L 134.286865 170.973102 
L 134.448721 183.240831 
L 134.610577 183.240831 
L 134.772433 195.255818 
L 135.015217 172.875818 
L 135.096145 178.629169 
L 135.258001 132.361023 
L 135.419857 119.118226 
L 135.824498 179.707123 
L 135.905426 169.477375 
L 136.067282 151.371691 
L 136.14821 153.088895 
L 136.229138 111.553489 
L 136.310066 124.044724 
L 136.390994 119.320174 
L 136.55285 98.259793 
L 136.714706 86.522711 
L 136.795634 86.713981 
L 136.876562 83.725705 
L 136.95749 96.11231 
L 137.038418 87.17169 
L 137.281202 130.910251 
L 137.443058 179.719212 
L 137.604914 196.421936 
L 137.928626 158.378872 
L 138.090482 172.70027 
L 138.17141 163.359707 
L 138.333266 207.39962 
L 138.495122 152.787818 
L 138.737906 173.339845 
L 138.818834 168.221202 
L 138.899762 174.018169 
L 139.061618 145.968796 
L 139.142546 152.38726 
L 139.223474 189.48796 
L 139.304402 188.428135 
L 139.466258 189.074851 
L 139.709042 162.255575 
L 139.78997 164.043046 
L 139.870898 175.848952 
L 139.951826 172.188987 
L 140.19461 167.940692 
L 140.275538 167.940692 
L 140.356466 163.126018 
L 140.518322 181.763068 
L 140.59925 155.483851 
L 140.680178 170.456452 
L 140.842034 146.037925 
L 141.00389 135.681384 
L 141.084818 131.646347 
L 141.165746 121.23234 
L 141.327602 136.936364 
L 141.489458 87.622297 
L 141.570386 87.622297 
L 141.732242 109.698795 
L 141.81317 105.029031 
L 141.894098 99.043114 
L 141.975026 100.824573 
L 142.055954 100.824573 
L 142.21781 114.321366 
L 142.460595 138.232219 
L 142.541523 134.024614 
L 142.703379 115.077648 
L 142.784307 124.861219 
L 142.946163 89.103618 
L 143.027091 89.103618 
L 143.269875 124.536642 
L 143.674515 97.916084 
L 143.755443 97.916084 
L 143.917299 100.201035 
L 143.998227 86.580117 
L 144.079155 105.323129 
L 144.160083 102.077679 
L 144.402867 109.496063 
L 144.483795 107.79274 
L 144.564723 87.516901 
L 144.645651 96.07396 
L 144.888435 60.384273 
L 145.131219 88.605418 
L 145.293075 85.253683 
L 145.374003 105.882232 
L 145.454931 103.051087 
L 145.535859 103.051087 
L 145.697715 93.951412 
L 145.940499 128.938645 
L 146.021427 105.87672 
L 146.264211 152.465627 
L 146.345139 153.491831 
L 146.426067 172.937127 
L 146.749779 114.305468 
L 146.830707 158.901187 
L 146.911635 156.308589 
L 147.073491 147.349064 
L 147.154419 181.984598 
L 147.235347 174.173926 
L 147.397203 162.33181 
L 147.559059 186.307537 
L 147.882771 120.721474 
L 148.287411 49.712584 
L 148.449267 68.427042 
L 148.530195 120.252218 
L 148.611123 113.323411 
L 148.853907 37.296392 
L 149.015763 37.296392 
L 149.177619 42.704354 
L 149.339476 34.83559 
L 149.501332 121.18094 
L 149.58226 118.001771 
L 149.663188 134.924521 
L 149.744116 130.033016 
L 149.825044 139.253856 
L 149.9869 67.65178 
L 150.067828 67.65178 
L 150.148756 106.197156 
L 150.229684 90.969763 
L 150.310612 94.278221 
L 150.39154 94.278221 
L 150.472468 82.055936 
L 150.553396 82.754697 
L 150.634324 104.987637 
L 150.715252 102.172257 
L 150.877108 102.172257 
L 150.958036 108.780416 
L 151.119892 61.284282 
L 151.443604 107.306544 
L 151.60546 97.043923 
L 151.686388 102.178351 
L 151.767316 130.933444 
L 151.848244 118.101541 
L 152.091028 185.064838 
L 152.252884 185.064838 
L 152.41474 193.354651 
L 152.495668 193.354651 
L 152.576596 188.080109 
L 152.657524 204.324321 
L 152.738452 198.870442 
L 152.981236 198.870442 
L 153.062164 178.048462 
L 153.143092 192.023637 
L 153.466804 149.495687 
L 153.547732 109.972524 
L 153.62866 110.288365 
L 153.871444 162.497321 
L 153.952372 180.939382 
L 154.114228 160.94875 
L 154.195156 179.175398 
L 154.276084 163.805298 
L 154.357012 170.860656 
L 154.43794 156.435585 
L 154.680724 174.174542 
L 154.761652 155.491675 
L 154.923508 190.053063 
L 155.004436 192.953414 
L 155.166292 206.136432 
L 155.24722 193.718922 
L 155.328148 202.367339 
L 155.490004 196.219125 
L 155.570932 196.219125 
L 155.65186 181.921927 
L 155.813716 143.766625 
L 155.894644 145.648114 
L 155.975572 143.638925 
L 156.218357 98.188508 
L 156.380213 83.819909 
L 156.461141 86.110087 
L 156.542069 96.391416 
L 156.865781 67.094556 
L 156.946709 67.094556 
L 157.108565 78.377391 
L 157.270421 75.850117 
L 157.351349 75.850117 
L 157.594133 83.898526 
L 157.675061 85.211901 
L 157.836917 64.908004 
L 157.917845 64.908004 
L 157.998773 68.190238 
L 158.160629 114.935596 
L 158.241557 103.094163 
L 158.403413 80.673135 
L 158.484341 89.810924 
L 158.565269 89.810924 
L 158.646197 80.435373 
L 158.727125 82.465727 
L 158.808053 82.465727 
L 158.969909 89.594882 
L 159.050837 89.594882 
L 159.212693 88.730875 
L 159.293621 106.393228 
L 159.698261 66.755366 
L 159.779189 84.834876 
L 159.941045 59.091033 
L 160.426613 59.091033 
L 160.507541 74.524144 
L 160.588469 69.142339 
L 160.750325 69.142339 
L 160.831253 65.302235 
L 161.074037 110.790475 
L 161.154965 95.33825 
L 161.316821 115.433048 
L 161.478677 66.889233 
L 161.559605 79.703389 
L 161.640533 75.736597 
L 161.802389 78.646747 
L 161.883317 79.442765 
L 161.964245 97.943696 
L 162.045173 97.843844 
L 162.126101 75.193694 
L 162.207029 79.207252 
L 162.611669 122.352875 
L 162.692597 77.468526 
L 162.935382 139.571155 
L 163.01631 157.402314 
L 163.097238 148.964205 
L 163.259094 162.097118 
L 163.340022 159.868607 
L 163.42095 164.959374 
L 163.501878 177.2605 
L 163.663734 141.221051 
L 163.906518 116.306355 
L 163.987446 120.463289 
L 164.068374 133.409203 
L 164.149302 130.761006 
L 164.23023 135.258883 
L 164.392086 171.084227 
L 164.473014 171.084227 
L 164.63487 150.449669 
L 164.796726 187.480539 
L 164.877654 165.229629 
L 164.958582 168.535219 
L 165.03951 168.535219 
L 165.120438 170.661633 
L 165.201366 157.407752 
L 165.282294 178.796953 
L 165.363222 177.529676 
L 165.525078 174.492222 
L 165.686934 146.92436 
L 165.84879 157.059147 
L 166.010646 180.778663 
L 166.25343 180.778663 
L 166.415286 142.516854 
L 166.496214 175.839829 
L 166.577142 154.077586 
L 166.65807 162.891813 
L 166.738998 148.826921 
L 166.981782 176.540619 
L 167.06271 170.32121 
L 167.224566 170.32121 
L 167.305494 153.642024 
L 167.46735 166.661619 
L 167.548278 166.661619 
L 167.629206 155.843117 
L 167.710134 158.915176 
L 167.791062 109.489935 
L 167.87199 118.190392 
L 168.033846 149.554366 
L 168.195702 127.785467 
L 168.27663 128.844249 
L 168.519414 148.997431 
L 168.600342 136.32369 
L 168.68127 141.154544 
L 168.762198 153.227141 
L 168.843126 135.034527 
L 169.166838 187.349265 
L 169.409622 214.239991 
L 169.652406 178.185803 
L 169.814263 197.530177 
L 170.057047 96.248242 
L 170.218903 114.926448 
L 170.380759 109.18483 
L 170.542615 74.895577 
L 170.704471 106.149738 
L 170.866327 87.841201 
L 170.947255 83.275268 
L 171.109111 51.355955 
L 171.270967 68.047579 
L 171.351895 68.047579 
L 171.513751 91.634883 
L 171.594679 80.900157 
L 171.675607 93.609632 
L 171.918391 181.309467 
L 172.323031 151.413649 
L 172.403959 157.649956 
L 172.484887 149.740824 
L 172.646743 184.887269 
L 172.727671 183.412476 
L 172.808599 168.244886 
L 172.970455 194.629506 
L 173.132311 193.481127 
L 173.213239 183.278509 
L 173.294167 147.862844 
L 173.375095 189.789993 
L 173.617879 101.853096 
L 173.779735 97.645639 
L 173.941591 75.596717 
L 174.022519 81.442778 
L 174.184375 65.128484 
L 174.265303 116.519531 
L 174.346231 89.851156 
L 174.427159 103.934038 
L 174.508087 80.200836 
L 174.589015 85.7048 
L 174.750871 73.518352 
L 174.912727 51.583952 
L 174.993655 57.739157 
L 175.074583 97.661603 
L 175.155511 87.696358 
L 175.236439 84.237813 
L 175.317367 108.044732 
L 175.398295 102.33381 
L 175.560151 101.802427 
L 175.722007 63.695284 
L 175.802935 64.272009 
L 175.883863 62.037357 
L 176.126647 89.877445 
L 176.207575 93.547135 
L 176.288503 118.334674 
L 176.531287 61.901897 
L 176.693144 61.901897 
L 176.855 76.279995 
L 177.016856 82.547784 
L 177.178712 120.260125 
L 177.340568 86.49461 
L 177.583352 101.526099 
L 177.745208 101.526099 
L 177.826136 73.364336 
L 177.907064 87.66241 
L 177.987992 87.414103 
L 178.06892 87.414103 
L 178.230776 71.566174 
L 178.392632 55.734524 
L 178.47356 57.533209 
L 178.635416 61.116697 
L 178.797272 77.357555 
L 178.959128 67.549501 
L 179.28284 116.751687 
L 179.363768 122.675599 
L 179.849336 103.599824 
L 179.930264 89.142245 
L 180.334904 148.528088 
L 180.415832 148.528088 
L 180.49676 165.511882 
L 180.577688 147.326673 
L 180.820472 174.512368 
L 180.9014 174.512368 
L 180.982328 163.419751 
L 181.063256 173.21645 
L 181.225112 152.632091 
L 181.30604 150.159677 
L 181.467896 165.4103 
L 181.629752 136.740027 
L 181.71068 139.614494 
L 181.791608 163.039723 
L 181.872536 159.559669 
L 182.034392 149.315128 
L 182.196248 149.315128 
L 182.439032 173.57591 
L 182.600888 116.588137 
L 182.762744 54.92796 
L 182.843672 54.92796 
L 183.005528 57.064923 
L 183.248312 91.197008 
L 183.32924 96.139591 
L 183.410169 109.237565 
L 183.652953 79.90362 
L 183.814809 113.820585 
L 183.895737 100.902882 
L 184.057593 100.165406 
L 184.219449 89.713929 
L 184.300377 117.815736 
L 184.462233 107.218423 
L 184.705017 161.753275 
L 184.785945 183.900107 
L 184.866873 164.042659 
L 184.947801 167.915386 
L 185.028729 175.761704 
L 185.190585 133.216344 
L 185.271513 139.647785 
L 185.352441 133.636456 
L 185.595225 164.308265 
L 185.757081 155.560379 
L 185.838009 155.560379 
L 185.918937 153.958893 
L 186.080793 199.657808 
L 186.323577 199.657808 
L 186.485433 171.334064 
L 186.647289 147.189746 
L 186.809145 184.788265 
L 187.132857 170.136743 
L 187.213785 170.97589 
L 187.537497 115.591008 
L 187.618425 136.079314 
L 187.780281 98.428895 
L 187.861209 99.15917 
L 188.346777 196.023253 
L 188.670489 137.000232 
L 188.751417 156.293998 
L 188.832345 151.091284 
L 188.994201 129.062042 
L 189.075129 130.204901 
L 189.156057 127.362139 
L 189.317913 88.684739 
L 189.479769 79.005847 
L 189.560697 87.333021 
L 189.803481 56.399565 
L 189.884409 68.968039 
L 189.965337 54.450573 
L 190.127193 60.325044 
L 190.208121 60.325044 
L 190.28905 59.121899 
L 190.612762 77.408167 
L 190.69369 68.253911 
L 190.774618 98.794441 
L 190.936474 69.788393 
L 191.017402 74.147382 
L 191.09833 70.815941 
L 191.664826 174.030403 
L 191.988538 154.627814 
L 192.150394 159.414453 
L 192.31225 159.569775 
L 192.393178 159.569775 
L 192.555034 155.332859 
L 192.71689 157.150641 
L 192.878746 186.213239 
L 192.959674 186.213239 
L 193.12153 175.261956 
L 193.202458 175.261956 
L 193.283386 167.777434 
L 193.445242 181.153522 
L 193.52617 167.840937 
L 193.607098 174.719627 
L 193.688026 165.46331 
L 193.849882 194.458996 
L 194.173594 187.30911 
L 194.254522 187.15915 
L 194.416378 167.193661 
L 194.578234 160.049665 
L 194.659162 160.049665 
L 194.74009 166.444562 
L 194.901946 190.442155 
L 194.982874 190.442155 
L 195.14473 152.056668 
L 195.225658 131.309037 
L 195.387514 149.310907 
L 195.54937 178.974799 
L 195.711226 147.119612 
L 195.792154 151.392278 
L 195.873082 149.482219 
L 195.95401 174.15092 
L 196.115866 164.931735 
L 196.520506 164.931735 
L 196.601434 143.584743 
L 196.76329 152.944339 
L 197.006074 121.114729 
L 197.167931 149.147935 
L 197.329787 103.29539 
L 197.491643 112.205468 
L 197.653499 97.247599 
L 197.734427 100.647322 
L 197.896283 80.826754 
L 197.977211 92.56287 
L 198.219995 77.259313 
L 198.462779 114.028777 
L 198.624635 106.811732 
L 198.867419 53.007277 
L 199.029275 53.007277 
L 199.110203 49.685999 
L 199.352987 57.572875 
L 199.514843 85.777929 
L 199.676699 66.384643 
L 199.757627 70.353057 
L 199.919483 59.450318 
L 200.081339 83.012716 
L 200.405051 39.924552 
L 200.485979 40.768871 
L 200.566907 76.372344 
L 200.647835 72.882169 
L 200.728763 97.973222 
L 200.809691 59.431902 
L 200.890619 60.588685 
L 200.971547 60.588685 
L 201.052475 56.776715 
L 201.214331 67.038006 
L 201.376187 58.631283 
L 201.457115 69.345252 
L 201.618971 43.155897 
L 201.861755 43.155897 
L 201.942683 43.885812 
L 202.104539 66.939561 
L 202.266395 64.448415 
L 202.509179 94.359009 
L 202.751963 94.359009 
L 202.913819 82.525796 
L 202.994747 84.912947 
L 203.075675 109.12613 
L 203.156603 84.056917 
L 203.237531 109.307753 
L 203.318459 78.07813 
L 203.561243 117.935827 
L 203.642171 116.96689 
L 203.723099 112.151544 
L 203.884955 92.135118 
L 204.046812 92.054311 
L 204.208668 78.600561 
L 204.370524 128.922055 
L 204.451452 126.354442 
L 204.53238 116.474085 
L 204.613308 152.727625 
L 204.775164 104.247432 
L 204.856092 102.752847 
L 204.93702 92.218867 
L 205.017948 100.628359 
L 205.179804 87.586029 
L 205.260732 62.258117 
L 205.34166 63.864029 
L 205.665372 129.604412 
L 205.908156 165.337522 
L 205.989084 154.139382 
L 206.070012 159.359159 
L 206.231868 145.312275 
L 206.312796 161.457874 
L 206.636508 130.748846 
L 206.879292 88.233785 
L 206.96022 88.233785 
L 207.122076 103.634974 
L 207.203004 74.662565 
L 207.283932 83.555865 
L 207.36486 97.767944 
L 207.445788 85.915886 
L 207.526716 92.794433 
L 207.688572 51.536774 
L 207.7695 63.389038 
L 207.850428 63.389038 
L 208.012284 75.42377 
L 208.093212 67.975833 
L 208.17414 76.307131 
L 208.255068 70.622232 
L 208.335996 71.842427 
L 208.497852 71.842427 
L 208.57878 80.086346 
L 208.740636 72.200751 
L 208.902492 90.539565 
L 208.98342 83.502891 
L 209.145276 101.235008 
L 209.226204 107.414082 
L 209.307132 73.999951 
L 209.38806 82.945844 
L 209.549916 89.976534 
L 209.711772 89.976534 
L 209.7927 90.912712 
L 209.873628 104.958545 
L 209.954556 99.309948 
L 210.035484 148.555213 
L 210.116412 145.570719 
L 210.19734 138.003762 
L 210.521052 157.457388 
L 210.682908 157.457388 
L 210.763836 158.653357 
L 210.844765 164.826092 
L 211.006621 144.387549 
L 211.168477 165.872589 
L 211.249405 165.872589 
L 211.330333 155.026951 
L 211.411261 161.004956 
L 211.492189 186.943815 
L 211.573117 181.390514 
L 211.654045 179.777253 
L 211.734973 181.540331 
L 211.896829 154.199523 
L 211.977757 179.59567 
L 212.058685 177.87872 
L 212.139613 177.87872 
L 212.463325 207.741862 
L 212.706109 193.673497 
L 212.867965 202.868028 
L 212.948893 202.868028 
L 213.110749 191.313632 
L 213.353533 140.691544 
L 213.515389 162.0668 
L 213.677245 188.583046 
L 213.758173 188.583046 
L 213.920029 148.964966 
L 214.324669 94.980457 
L 214.405597 94.980457 
L 214.648381 136.547292 
L 214.729309 136.547292 
L 214.810237 142.477496 
L 214.972093 113.322351 
L 215.133949 154.16649 
L 215.295805 154.16649 
L 215.457661 141.440781 
L 215.538589 113.668884 
L 215.619517 119.378026 
L 215.700445 115.668761 
L 215.862301 92.462864 
L 215.943229 93.503117 
L 216.105085 108.382554 
L 216.266941 107.895529 
L 216.347869 119.693949 
L 216.509725 95.128488 
L 216.833437 111.214854 
L 216.914365 106.814063 
L 216.995293 119.351458 
L 217.076221 113.485266 
L 217.238077 93.38035 
L 217.399933 115.205531 
L 217.480861 136.290177 
L 217.642718 108.525478 
L 217.723646 114.24553 
L 217.885502 83.976746 
L 217.96643 96.162696 
L 218.209214 86.285571 
L 218.290142 92.251465 
L 218.37107 107.971911 
L 218.694782 85.095067 
L 218.77571 91.116345 
L 218.937566 87.451184 
L 219.099422 104.09778 
L 219.18035 107.266731 
L 219.261278 130.233504 
L 219.423134 119.217106 
L 219.504062 77.968803 
L 219.58499 90.972334 
L 219.665918 89.243178 
L 219.746846 89.831363 
L 219.908702 110.98967 
L 219.98963 114.310277 
L 220.232414 79.40695 
L 220.313342 79.40695 
L 220.475198 63.768 
L 220.717982 88.056277 
L 220.879838 93.938981 
L 221.041694 96.945924 
L 221.20355 153.370142 
L 221.284478 153.370142 
L 221.365406 151.909624 
L 221.446334 132.659278 
L 221.60819 156.287891 
L 221.689118 113.582181 
L 221.770046 127.939525 
L 222.093758 88.47948 
L 222.255614 109.673519 
L 222.41747 155.044432 
L 222.498398 144.562417 
L 222.660254 171.78957 
L 222.741182 150.649184 
L 222.983966 176.0109 
L 223.388606 121.421979 
L 223.469534 141.171193 
L 223.550462 115.229819 
L 223.712318 136.901485 
L 223.874174 148.001879 
L 223.955102 182.537974 
L 224.03603 145.124384 
L 224.116958 177.63947 
L 224.197886 150.354089 
L 224.359742 176.589683 
L 224.521599 142.932034 
L 224.683455 167.84279 
L 224.764383 162.137216 
L 224.845311 181.351407 
L 225.007167 160.515657 
L 225.169023 184.097135 
L 225.330879 177.782393 
L 225.411807 176.296393 
L 225.573663 124.893678 
L 225.654591 131.789421 
L 225.816447 76.570043 
L 226.221087 173.305158 
L 226.302015 133.534451 
L 226.382943 138.361491 
L 226.463871 121.708962 
L 226.544799 128.153367 
L 226.625727 122.514118 
L 226.706655 125.010506 
L 226.787583 124.053418 
L 227.030367 69.115097 
L 227.111295 69.115097 
L 227.192223 82.046561 
L 227.273151 74.594826 
L 227.515935 105.160284 
L 227.677791 78.265943 
L 227.758719 79.742952 
L 227.839647 79.158892 
L 228.001503 100.191142 
L 228.163359 91.984505 
L 228.325215 108.774454 
L 228.406143 99.725345 
L 228.567999 147.147412 
L 228.729855 113.32579 
L 228.972639 149.667224 
L 229.053567 127.944821 
L 229.134495 151.792252 
L 229.215423 144.38994 
L 229.296351 144.38994 
L 229.377279 130.017055 
L 229.458207 137.113327 
L 229.620063 95.725078 
L 230.186559 147.294923 
L 230.267487 115.825309 
L 230.348415 124.142508 
L 230.429343 137.693304 
L 230.510271 137.501086 
L 230.833983 119.387184 
L 230.914911 119.925162 
L 230.995839 108.425033 
L 231.319552 185.195136 
L 231.80512 78.121224 
L 231.886048 77.576469 
L 232.047904 117.340365 
L 232.20976 144.617596 
L 232.290688 136.980226 
L 232.371616 140.72513 
L 232.452544 139.056783 
L 232.533472 158.326657 
L 232.6144 142.495159 
L 232.695328 150.896709 
L 232.776256 144.284846 
L 232.857184 151.220082 
L 232.938112 192.234996 
L 233.01904 183.825131 
L 233.180896 186.399374 
L 233.261824 186.399374 
L 233.42368 169.972905 
L 233.504608 178.835436 
L 233.666464 133.446434 
L 233.82832 119.897255 
L 233.909248 150.455706 
L 233.990176 147.034257 
L 234.152032 167.208114 
L 234.23296 165.970329 
L 234.475744 198.764157 
L 234.718528 201.349186 
L 234.880384 160.552813 
L 234.961312 163.645138 
L 235.204096 118.767109 
L 235.365952 164.269359 
L 235.44688 161.06809 
L 235.608736 165.605918 
L 235.932448 121.045124 
L 236.25616 179.586918 
L 236.418016 179.09802 
L 236.498944 183.729365 
L 236.579872 176.110615 
L 236.6608 129.790836 
L 236.741728 134.814408 
L 236.822656 130.835356 
L 236.903584 131.836618 
L 237.06544 143.410569 
L 237.146368 149.318482 
L 237.308224 178.71819 
L 237.47008 152.466371 
L 237.551008 162.157762 
L 237.631936 154.854762 
L 237.712864 155.641136 
L 237.793792 155.641136 
L 238.198433 204.319348 
L 238.441217 204.319348 
L 238.684001 138.960472 
L 238.764929 157.870496 
L 238.845857 146.511416 
L 238.926785 149.688121 
L 239.088641 163.732815 
L 239.250497 166.726998 
L 239.412353 146.022586 
L 239.493281 144.617025 
L 239.574209 166.890082 
L 239.655137 163.350044 
L 239.736065 163.350044 
L 239.816993 157.907417 
L 239.897921 186.025273 
L 239.978849 179.153138 
L 240.221633 155.4491 
L 240.302561 173.585231 
L 240.383489 173.187565 
L 240.464417 173.187565 
L 240.545345 170.624018 
L 240.626273 151.959593 
L 240.707201 164.874303 
L 240.949985 109.868091 
L 241.192769 82.407937 
L 241.354625 140.055075 
L 241.516481 158.830498 
L 241.678337 152.989433 
L 241.840193 169.835396 
L 241.921121 176.459149 
L 242.002049 173.669149 
L 242.082977 179.207135 
L 242.244833 169.71721 
L 242.325761 173.092341 
L 242.406689 144.092787 
L 242.487617 149.58364 
L 242.730401 136.567375 
L 242.892257 100.276151 
L 243.054113 86.262443 
L 243.135041 86.262443 
L 243.296897 94.368451 
L 243.377825 94.368451 
L 243.458753 63.249111 
L 243.539681 82.059526 
L 243.944321 33.835151 
L 244.672673 185.650745 
L 244.834529 204.435043 
L 244.915457 185.828045 
L 245.077314 195.805708 
L 245.158242 194.483266 
L 245.320098 212.20933 
L 245.401026 212.20933 
L 245.64381 180.6767 
L 245.724738 182.596353 
L 245.967522 159.790058 
L 246.04845 177.415365 
L 246.129378 147.136116 
L 246.372162 171.004241 
L 246.45309 174.662338 
L 246.614946 148.91597 
L 246.695874 151.186348 
L 246.938658 102.634793 
L 247.019586 136.637234 
L 247.181442 115.11102 
L 247.26237 130.244816 
L 247.343298 122.245066 
L 247.424226 101.433319 
L 247.505154 112.379665 
L 247.66701 90.6949 
L 247.828866 143.153851 
L 247.909794 138.51844 
L 247.990722 144.550147 
L 248.07165 138.456238 
L 248.152578 141.383841 
L 248.233506 99.329087 
L 248.314434 106.613863 
L 248.395362 106.613863 
L 248.47629 91.35792 
L 248.557218 96.435503 
L 248.719074 101.927886 
L 248.800002 87.798341 
L 248.88093 107.507801 
L 249.042786 81.776666 
L 249.123714 81.776666 
L 249.204642 78.621285 
L 249.28557 97.13609 
L 249.366498 93.774997 
L 249.447426 88.126182 
L 249.528354 65.508896 
L 249.69021 112.168403 
L 249.771138 108.416493 
L 249.932994 61.658412 
L 250.013922 61.658412 
L 250.09485 86.157404 
L 250.175778 85.565262 
L 250.337634 62.542442 
L 250.418562 91.74496 
L 250.49949 91.52152 
L 250.580418 80.654967 
L 250.742274 140.809651 
L 250.90413 157.331086 
L 250.985058 165.324047 
L 251.065986 157.657376 
L 251.146914 157.926268 
L 251.389698 177.25517 
L 251.71341 173.042514 
L 251.794338 162.150584 
L 251.875267 170.986103 
L 252.037123 129.194614 
L 252.118051 137.685317 
L 252.198979 113.601598 
L 252.441763 158.68271 
L 252.522691 158.68271 
L 252.684547 132.647244 
L 252.846403 162.273319 
L 252.927331 145.345761 
L 253.089187 165.20971 
L 253.170115 165.20971 
L 253.331971 169.612025 
L 253.493827 169.612025 
L 253.574755 157.113107 
L 253.736611 173.440493 
L 253.817539 133.043474 
L 254.060323 200.209243 
L 254.222179 172.821695 
L 254.303107 172.821695 
L 254.384035 184.608383 
L 254.545891 172.088248 
L 254.626819 175.312156 
L 254.707747 164.818904 
L 254.869603 185.493951 
L 255.031459 168.182737 
L 255.112387 168.182737 
L 255.274243 167.699313 
L 255.355171 152.972314 
L 255.517027 177.141513 
L 255.597955 170.446241 
L 255.759811 170.446241 
L 255.840739 165.171074 
L 255.921667 171.501812 
L 256.002595 167.991205 
L 256.083523 194.538394 
L 256.407235 98.74063 
L 256.488163 105.9786 
L 256.569091 101.16158 
L 256.730947 81.084114 
L 256.892803 89.06887 
L 256.973731 63.086463 
L 257.054659 63.56096 
L 257.135587 63.56096 
L 257.297443 65.01364 
L 257.378371 63.511365 
L 257.459299 52.089156 
L 257.702083 76.71895 
L 257.944867 93.979759 
L 258.025795 93.979759 
L 258.106723 102.353146 
L 258.187651 99.573451 
L 258.349507 67.432681 
L 258.511363 126.529598 
L 258.592291 119.214318 
L 258.67322 128.492112 
L 258.835076 168.340883 
L 258.916004 160.297981 
L 258.996932 166.737134 
L 259.07786 165.804046 
L 259.158788 170.642983 
L 259.239716 183.711663 
L 259.320644 179.309923 
L 259.401572 179.309923 
L 259.4825 194.603925 
L 259.644356 179.954388 
L 259.725284 179.966163 
L 259.88714 187.830721 
L 260.048996 150.745072 
L 260.210852 170.317333 
L 260.372708 173.508608 
L 260.453636 158.114943 
L 260.534564 159.103946 
L 260.777348 207.790902 
L 260.939204 207.790902 
L 261.10106 182.046213 
L 261.181988 182.102484 
L 261.262916 174.238678 
L 261.424772 153.109746 
L 261.5057 158.226504 
L 261.586628 156.859564 
L 261.829412 194.843136 
L 261.91034 194.843136 
L 262.072196 207.542834 
L 262.234052 171.64202 
L 262.395908 147.944263 
L 262.476836 166.404081 
L 262.557764 164.533609 
L 262.638692 151.209525 
L 262.800548 169.515328 
L 262.881476 163.800017 
L 262.962404 188.941057 
L 263.12426 159.208828 
L 263.286116 176.97483 
L 263.447972 156.735406 
L 263.5289 156.735406 
L 263.690756 165.140803 
L 263.771684 164.942422 
L 263.852612 164.942422 
L 263.93354 149.873008 
L 264.014468 163.150626 
L 264.095396 159.93831 
L 264.257252 175.668292 
L 264.419108 161.725357 
L 264.500036 179.295045 
L 264.580964 179.050166 
L 264.661892 189.17119 
L 264.74282 181.414706 
L 264.985604 204.827869 
L 265.066532 204.827869 
L 265.309316 144.52424 
L 265.390244 143.649565 
L 265.471172 131.240857 
L 265.713957 156.089844 
L 265.794885 156.089844 
L 265.956741 173.070071 
L 266.118597 154.00481 
L 266.199525 162.107959 
L 266.361381 83.781489 
L 266.523237 128.987835 
L 266.604165 128.987835 
L 266.766021 117.464645 
L 266.846949 117.494135 
L 266.927877 137.09376 
L 267.170661 99.227365 
L 267.332517 125.328515 
L 267.413445 134.301584 
L 267.656229 179.767434 
L 267.737157 179.767434 
L 267.818085 165.88155 
L 267.979941 187.47364 
L 268.141797 153.743953 
L 268.222725 153.743953 
L 268.384581 146.389239 
L 268.546437 157.401875 
L 268.627365 187.162299 
L 268.708293 148.803352 
L 268.789221 153.280832 
L 268.870149 153.280832 
L 268.951077 156.762718 
L 269.032005 169.870858 
L 269.193861 154.446614 
L 269.274789 158.771267 
L 269.355717 152.676871 
L 269.436645 154.497608 
L 269.598501 154.497608 
L 269.679429 145.358913 
L 269.760357 173.262464 
L 269.841285 163.447738 
L 269.922213 163.447738 
L 270.084069 181.918888 
L 270.245925 151.657887 
L 270.407781 175.678367 
L 270.488709 173.3652 
L 270.650565 181.620853 
L 270.731493 181.620853 
L 270.812421 176.022566 
L 270.893349 193.7478 
L 271.136133 160.985173 
L 271.217061 159.063818 
L 271.297989 172.951696 
L 271.378917 161.329239 
L 271.459845 175.705965 
L 271.621701 157.166686 
L 271.702629 154.641353 
L 271.783557 129.298042 
L 271.864485 147.727972 
L 272.107269 124.75681 
L 272.188197 160.990599 
L 272.269125 147.9589 
L 272.350053 160.244122 
L 272.430982 159.837085 
L 272.592838 112.017507 
L 272.754694 99.048093 
L 272.91655 78.366865 
L 272.997478 78.366865 
L 273.159334 72.564417 
L 273.240262 74.072615 
L 273.32119 96.329255 
L 273.402118 86.8708 
L 273.563974 97.465976 
L 273.644902 101.209186 
L 273.72583 84.925081 
L 273.806758 86.005035 
L 273.887686 88.515556 
L 273.968614 85.933849 
L 274.13047 92.010328 
L 274.292326 92.010328 
L 274.373254 86.249266 
L 274.454182 97.955692 
L 274.53511 81.122041 
L 274.616038 87.061585 
L 274.696966 87.061585 
L 274.777894 99.576697 
L 274.93975 92.460283 
L 275.101606 102.43238 
L 275.263462 141.10866 
L 275.34439 141.10866 
L 275.506246 121.930034 
L 275.668102 160.858463 
L 275.74903 160.858463 
L 275.829958 156.426247 
L 275.991814 186.164122 
L 276.072742 171.584276 
L 276.15367 181.620922 
L 276.315526 144.604686 
L 276.396454 149.458148 
L 276.477382 131.769191 
L 276.55831 135.114895 
L 276.639238 121.692079 
L 276.720166 134.53422 
L 276.801094 115.655288 
L 277.043878 181.922783 
L 277.124806 181.922783 
L 277.448518 162.315517 
L 277.529446 162.315517 
L 277.77223 108.776254 
L 277.853158 122.383963 
L 278.015014 157.201153 
L 278.095942 146.731407 
L 278.257798 184.96958 
L 278.419654 162.861145 
L 278.500582 168.435299 
L 278.662438 154.499992 
L 278.743366 171.038493 
L 278.905222 154.405027 
L 279.067078 154.095405 
L 279.148006 118.288306 
L 279.309863 141.556585 
L 279.552647 156.716242 
L 279.633575 143.148512 
L 279.957287 181.097515 
L 280.038215 177.88758 
L 280.119143 170.339587 
L 280.280999 206.889345 
L 280.361927 205.482768 
L 280.604711 177.522417 
L 280.685639 180.53093 
L 280.766567 171.991758 
L 280.928423 176.262775 
L 281.009351 177.077868 
L 281.413991 145.997742 
L 281.494919 147.220113 
L 281.656775 108.730141 
L 281.818631 84.7345 
L 281.899559 87.978562 
L 281.980487 83.358618 
L 282.061415 94.223767 
L 282.223271 63.744339 
L 282.304199 78.248747 
L 282.385127 53.090688 
L 282.466055 55.423054 
L 282.546983 55.423054 
L 282.708839 84.758737 
L 282.789767 84.758737 
L 282.870695 100.624633 
L 282.951623 93.355578 
L 283.032551 65.17732 
L 283.113479 75.53281 
L 283.275335 89.634224 
L 283.437191 88.40041 
L 283.518119 79.74974 
L 283.599047 83.280617 
L 283.760903 77.862283 
L 283.841831 77.862283 
L 283.922759 79.512311 
L 284.003687 83.567497 
L 284.084615 79.263111 
L 284.165543 61.979829 
L 284.246471 74.793681 
L 284.327399 60.330796 
L 284.408327 62.341976 
L 284.570183 61.749676 
L 284.651111 49.319962 
L 284.812967 58.416226 
L 284.974823 58.416226 
L 285.136679 95.857563 
L 285.217607 96.019803 
L 285.379463 80.824504 
L 285.541319 88.547158 
L 285.622247 88.547158 
L 285.865031 146.847853 
L 285.945959 146.847853 
L 286.107816 157.130799 
L 286.188744 156.992264 
L 286.269672 149.884892 
L 286.431528 154.84373 
L 286.512456 148.88595 
L 286.674312 171.434048 
L 286.75524 170.904004 
L 286.917096 177.059653 
L 286.998024 172.716054 
L 287.15988 182.685682 
L 287.240808 182.685682 
L 287.483592 119.957367 
L 287.56452 125.004037 
L 287.726376 107.977705 
L 287.807304 107.977705 
L 287.888232 113.203898 
L 287.96916 101.970336 
L 288.050088 120.634364 
L 288.292872 82.239634 
L 288.3738 82.239634 
L 288.535656 110.683693 
L 288.697512 88.385283 
L 288.77844 88.071055 
L 288.859368 85.23193 
L 288.940296 117.318691 
L 289.021224 95.794972 
L 289.102152 136.268702 
L 289.18308 110.554833 
L 289.264008 116.860212 
L 289.344936 108.376353 
L 289.425864 141.799968 
L 289.668648 106.721635 
L 289.830504 154.64662 
L 289.99236 154.64662 
L 290.154216 186.916256 
L 290.235144 180.879754 
L 290.316072 135.647099 
L 290.397 146.821929 
L 290.639784 164.446653 
L 290.963496 93.074508 
L 291.044424 93.074508 
L 291.125352 98.295482 
L 291.287208 121.553047 
L 291.529992 90.364186 
L 291.691848 117.29944 
L 291.772776 74.66651 
L 291.853704 89.216209 
L 291.934632 98.033127 
L 292.01556 84.882355 
L 292.096488 90.71467 
L 292.258344 119.302225 
L 292.501128 58.60543 
L 292.582056 58.60543 
L 292.662984 50.380267 
L 292.743912 57.558612 
L 292.82484 54.815343 
L 292.905769 90.276936 
L 292.986697 72.168032 
L 293.067625 79.506527 
L 293.148553 100.318215 
L 293.229481 96.522917 
L 293.310409 96.522917 
L 293.391337 79.144967 
L 293.472265 79.795087 
L 293.634121 90.931295 
L 293.715049 90.931295 
L 293.876905 62.194819 
L 294.038761 62.194819 
L 294.119689 77.979814 
L 294.281545 63.354862 
L 294.362473 63.354862 
L 294.605257 102.970759 
L 294.686185 108.363445 
L 294.928969 93.065561 
L 295.090825 117.065708 
L 295.252681 93.031036 
L 295.414537 93.987295 
L 295.495465 87.081214 
L 295.657321 70.250696 
L 295.738249 70.250696 
L 295.819177 69.769068 
L 296.061961 49.861276 
L 296.223817 52.902766 
L 296.385673 51.915814 
L 296.466601 51.915814 
L 296.628457 41.141471 
L 296.709385 40.048486 
L 296.790313 31.570852 
L 296.952169 36.119862 
L 296.952169 36.119862 
" clip-path="url(#pb63b8b4f92)" style="fill: none; stroke: #2e6be5; stroke-opacity: 0.8; stroke-width: 0.6; stroke-linecap: square"/>
   </g>
   <g id="line2d_18">
    <path d="M 42.113906 130.647386 
L 309.087324 130.647386 
" clip-path="url(#pb63b8b4f92)" style="fill: none; stroke-dasharray: 0.7,1.155; stroke-dashoffset: 0; stroke: #888888; stroke-width: 0.7"/>
   </g>
   <g id="patch_3">
    <path d="M 42.113906 225.878125 
L 42.113906 22.318125 
" style="fill: none; stroke: #000000; stroke-width: 0.8; stroke-linejoin: miter; stroke-linecap: square"/>
   </g>
   <g id="patch_4">
    <path d="M 42.113906 225.878125 
L 309.087324 225.878125 
" style="fill: none; stroke: #000000; stroke-width: 0.8; stroke-linejoin: miter; stroke-linecap: square"/>
   </g>
   <g id="text_19">
    <!-- Trace plot  — chain mixes between both modes -->
    <g transform="translate(33.268428 16.318125) scale(0.12 -0.12)">
     <defs>
      <path id="DejaVuSans-54" d="M -19 4666 
L 3928 4666 
L 3928 4134 
L 2272 4134 
L 2272 0 
L 1638 0 
L 1638 4134 
L -19 4134 
L -19 4666 
z
" transform="scale(0.015625)"/>
      <path id="DejaVuSans-63" d="M 3122 3366 
L 3122 2828 
Q 2878 2963 2633 3030 
Q 2388 3097 2138 3097 
Q 1578 3097 1268 2742 
Q 959 2388 959 1747 
Q 959 1106 1268 751 
Q 1578 397 2138 397 
Q 2388 397 2633 464 
Q 2878 531 3122 666 
L 3122 134 
Q 2881 22 2623 -34 
Q 2366 -91 2075 -91 
Q 1284 -91 818 406 
Q 353 903 353 1747 
Q 353 2603 823 3093 
Q 1294 3584 2113 3584 
Q 2378 3584 2631 3529 
Q 2884 3475 3122 3366 
z
" transform="scale(0.015625)"/>
      <path id="DejaVuSans-20" transform="scale(0.015625)"/>
      <path id="DejaVuSans-70" d="M 1159 525 
L 1159 -1331 
L 581 -1331 
L 581 3500 
L 1159 3500 
L 1159 2969 
Q 1341 3281 1617 3432 
Q 1894 3584 2278 3584 
Q 2916 3584 3314 3078 
Q 3713 2572 3713 1747 
Q 3713 922 3314 415 
Q 2916 -91 2278 -91 
Q 1894 -91 1617 61 
Q 1341 213 1159 525 
z
M 3116 1747 
Q 3116 2381 2855 2742 
Q 2594 3103 2138 3103 
Q 1681 3103 1420 2742 
Q 1159 2381 1159 1747 
Q 1159 1113 1420 752 
Q 1681 391 2138 391 
Q 2594 391 2855 752 
Q 3116 1113 3116 1747 
z
" transform="scale(0.015625)"/>
      <path id="DejaVuSans-6c" d="M 603 4863 
L 1178 4863 
L 1178 0 
L 603 0 
L 603 4863 
z
" transform="scale(0.015625)"/>
      <path id="DejaVuSans-2014" d="M 313 1978 
L 6088 1978 
L 6088 1528 
L 313 1528 
L 313 1978 
z
" transform="scale(0.015625)"/>
      <path id="DejaVuSans-68" d="M 3513 2113 
L 3513 0 
L 2938 0 
L 2938 2094 
Q 2938 2591 2744 2837 
Q 2550 3084 2163 3084 
Q 1697 3084 1428 2787 
Q 1159 2491 1159 1978 
L 1159 0 
L 581 0 
L 581 4863 
L 1159 4863 
L 1159 2956 
Q 1366 3272 1645 3428 
Q 1925 3584 2291 3584 
Q 2894 3584 3203 3211 
Q 3513 2838 3513 2113 
z
" transform="scale(0.015625)"/>
      <path id="DejaVuSans-6d" d="M 3328 2828 
Q 3544 3216 3844 3400 
Q 4144 3584 4550 3584 
Q 5097 3584 5394 3201 
Q 5691 2819 5691 2113 
L 5691 0 
L 5113 0 
L 5113 2094 
Q 5113 2597 4934 2840 
Q 4756 3084 4391 3084 
Q 3944 3084 3684 2787 
Q 3425 2491 3425 1978 
L 3425 0 
L 2847 0 
L 2847 2094 
Q 2847 2600 2669 2842 
Q 2491 3084 2119 3084 
Q 1678 3084 1418 2786 
Q 1159 2488 1159 1978 
L 1159 0 
L 581 0 
L 581 3500 
L 1159 3500 
L 1159 2956 
Q 1356 3278 1631 3431 
Q 1906 3584 2284 3584 
Q 2666 3584 2933 3390 
Q 3200 3197 3328 2828 
z
" transform="scale(0.015625)"/>
      <path id="DejaVuSans-78" d="M 3513 3500 
L 2247 1797 
L 3578 0 
L 2900 0 
L 1881 1375 
L 863 0 
L 184 0 
L 1544 1831 
L 300 3500 
L 978 3500 
L 1906 2253 
L 2834 3500 
L 3513 3500 
z
" transform="scale(0.015625)"/>
      <path id="DejaVuSans-73" d="M 2834 3397 
L 2834 2853 
Q 2591 2978 2328 3040 
Q 2066 3103 1784 3103 
Q 1356 3103 1142 2972 
Q 928 2841 928 2578 
Q 928 2378 1081 2264 
Q 1234 2150 1697 2047 
L 1894 2003 
Q 2506 1872 2764 1633 
Q 3022 1394 3022 966 
Q 3022 478 2636 193 
Q 2250 -91 1575 -91 
Q 1294 -91 989 -36 
Q 684 19 347 128 
L 347 722 
Q 666 556 975 473 
Q 1284 391 1588 391 
Q 1994 391 2212 530 
Q 2431 669 2431 922 
Q 2431 1156 2273 1281 
Q 2116 1406 1581 1522 
L 1381 1569 
Q 847 1681 609 1914 
Q 372 2147 372 2553 
Q 372 3047 722 3315 
Q 1072 3584 1716 3584 
Q 2034 3584 2315 3537 
Q 2597 3491 2834 3397 
z
" transform="scale(0.015625)"/>
      <path id="DejaVuSans-62" d="M 3116 1747 
Q 3116 2381 2855 2742 
Q 2594 3103 2138 3103 
Q 1681 3103 1420 2742 
Q 1159 2381 1159 1747 
Q 1159 1113 1420 752 
Q 1681 391 2138 391 
Q 2594 391 2855 752 
Q 3116 1113 3116 1747 
z
M 1159 2969 
Q 1341 3281 1617 3432 
Q 1894 3584 2278 3584 
Q 2916 3584 3314 3078 
Q 3713 2572 3713 1747 
Q 3713 922 3314 415 
Q 2916 -91 2278 -91 
Q 1894 -91 1617 61 
Q 1341 213 1159 525 
L 1159 0 
L 581 0 
L 581 4863 
L 1159 4863 
L 1159 2969 
z
" transform="scale(0.015625)"/>
      <path id="DejaVuSans-77" d="M 269 3500 
L 844 3500 
L 1563 769 
L 2278 3500 
L 2956 3500 
L 3675 769 
L 4391 3500 
L 4966 3500 
L 4050 0 
L 3372 0 
L 2619 2869 
L 1863 0 
L 1184 0 
L 269 3500 
z
" transform="scale(0.015625)"/>
      <path id="DejaVuSans-64" d="M 2906 2969 
L 2906 4863 
L 3481 4863 
L 3481 0 
L 2906 0 
L 2906 525 
Q 2725 213 2448 61 
Q 2172 -91 1784 -91 
Q 1150 -91 751 415 
Q 353 922 353 1747 
Q 353 2572 751 3078 
Q 1150 3584 1784 3584 
Q 2172 3584 2448 3432 
Q 2725 3281 2906 2969 
z
M 947 1747 
Q 947 1113 1208 752 
Q 1469 391 1925 391 
Q 2381 391 2643 752 
Q 2906 1113 2906 1747 
Q 2906 2381 2643 2742 
Q 2381 3103 1925 3103 
Q 1469 3103 1208 2742 
Q 947 2381 947 1747 
z
" transform="scale(0.015625)"/>
     </defs>
     <use xlink:href="#DejaVuSans-54"/>
     <use xlink:href="#DejaVuSans-72" x="46.333984"/>
     <use xlink:href="#DejaVuSans-61" x="87.447266"/>
     <use xlink:href="#DejaVuSans-63" x="148.726562"/>
     <use xlink:href="#DejaVuSans-65" x="203.707031"/>
     <use xlink:href="#DejaVuSans-20" x="265.230469"/>
     <use xlink:href="#DejaVuSans-70" x="297.017578"/>
     <use xlink:href="#DejaVuSans-6c" x="360.494141"/>
     <use xlink:href="#DejaVuSans-6f" x="388.277344"/>
     <use xlink:href="#DejaVuSans-74" x="449.458984"/>
     <use xlink:href="#DejaVuSans-20" x="488.667969"/>
     <use xlink:href="#DejaVuSans-20" x="520.455078"/>
     <use xlink:href="#DejaVuSans-2014" x="552.242188"/>
     <use xlink:href="#DejaVuSans-20" x="652.242188"/>
     <use xlink:href="#DejaVuSans-63" x="684.029297"/>
     <use xlink:href="#DejaVuSans-68" x="739.009766"/>
     <use xlink:href="#DejaVuSans-61" x="802.388672"/>
     <use xlink:href="#DejaVuSans-69" x="863.667969"/>
     <use xlink:href="#DejaVuSans-6e" x="891.451172"/>
     <use xlink:href="#DejaVuSans-20" x="954.830078"/>
     <use xlink:href="#DejaVuSans-6d" x="986.617188"/>
     <use xlink:href="#DejaVuSans-69" x="1084.029297"/>
     <use xlink:href="#DejaVuSans-78" x="1111.8125"/>
     <use xlink:href="#DejaVuSans-65" x="1167.867188"/>
     <use xlink:href="#DejaVuSans-73" x="1229.390625"/>
     <use xlink:href="#DejaVuSans-20" x="1281.490234"/>
     <use xlink:href="#DejaVuSans-62" x="1313.277344"/>
     <use xlink:href="#DejaVuSans-65" x="1376.753906"/>
     <use xlink:href="#DejaVuSans-74" x="1438.277344"/>
     <use xlink:href="#DejaVuSans-77" x="1477.486328"/>
     <use xlink:href="#DejaVuSans-65" x="1559.273438"/>
     <use xlink:href="#DejaVuSans-65" x="1620.796875"/>
     <use xlink:href="#DejaVuSans-6e" x="1682.320312"/>
     <use xlink:href="#DejaVuSans-20" x="1745.699219"/>
     <use xlink:href="#DejaVuSans-62" x="1777.486328"/>
     <use xlink:href="#DejaVuSans-6f" x="1840.962891"/>
     <use xlink:href="#DejaVuSans-74" x="1902.144531"/>
     <use xlink:href="#DejaVuSans-68" x="1941.353516"/>
     <use xlink:href="#DejaVuSans-20" x="2004.732422"/>
     <use xlink:href="#DejaVuSans-6d" x="2036.519531"/>
     <use xlink:href="#DejaVuSans-6f" x="2133.931641"/>
     <use xlink:href="#DejaVuSans-64" x="2195.113281"/>
     <use xlink:href="#DejaVuSans-65" x="2258.589844"/>
     <use xlink:href="#DejaVuSans-73" x="2320.113281"/>
    </g>
   </g>
  </g>
  <g id="axes_2">
   <g id="patch_5">
    <path d="M 364.020488 225.878125 
L 630.993906 225.878125 
L 630.993906 22.318125 
L 364.020488 22.318125 
z
" style="fill: #ffffff"/>
   </g>
   <g id="patch_6">
    <path d="M 408.517073 225.878125 
L 412.347827 225.878125 
L 412.347827 220.176164 
L 408.517073 220.176164 
z
" clip-path="url(#p3395cf4e96)" style="fill: #2e6be5; opacity: 0.5"/>
   </g>
   <g id="patch_7">
    <path d="M 412.347827 225.878125 
L 416.17858 225.878125 
L 416.17858 220.176164 
L 412.347827 220.176164 
z
" clip-path="url(#p3395cf4e96)" style="fill: #2e6be5; opacity: 0.5"/>
   </g>
   <g id="patch_8">
    <path d="M 416.17858 225.878125 
L 420.009333 225.878125 
L 420.009333 210.197733 
L 416.17858 210.197733 
z
" clip-path="url(#p3395cf4e96)" style="fill: #2e6be5; opacity: 0.5"/>
   </g>
   <g id="patch_9">
    <path d="M 420.009333 225.878125 
L 423.840086 225.878125 
L 423.840086 193.09185 
L 420.009333 193.09185 
z
" clip-path="url(#p3395cf4e96)" style="fill: #2e6be5; opacity: 0.5"/>
   </g>
   <g id="patch_10">
    <path d="M 423.840086 225.878125 
L 427.670839 225.878125 
L 427.670839 191.66636 
L 423.840086 191.66636 
z
" clip-path="url(#p3395cf4e96)" style="fill: #2e6be5; opacity: 0.5"/>
   </g>
   <g id="patch_11">
    <path d="M 427.670839 225.878125 
L 431.501592 225.878125 
L 431.501592 157.454596 
L 427.670839 157.454596 
z
" clip-path="url(#p3395cf4e96)" style="fill: #2e6be5; opacity: 0.5"/>
   </g>
   <g id="patch_12">
    <path d="M 431.501592 225.878125 
L 435.332345 225.878125 
L 435.332345 164.582047 
L 431.501592 164.582047 
z
" clip-path="url(#p3395cf4e96)" style="fill: #2e6be5; opacity: 0.5"/>
   </g>
   <g id="patch_13">
    <path d="M 435.332345 225.878125 
L 439.163099 225.878125 
L 439.163099 128.944792 
L 435.332345 128.944792 
z
" clip-path="url(#p3395cf4e96)" style="fill: #2e6be5; opacity: 0.5"/>
   </g>
   <g id="patch_14">
    <path d="M 439.163099 225.878125 
L 442.993852 225.878125 
L 442.993852 138.923223 
L 439.163099 138.923223 
z
" clip-path="url(#p3395cf4e96)" style="fill: #2e6be5; opacity: 0.5"/>
   </g>
   <g id="patch_15">
    <path d="M 442.993852 225.878125 
L 446.824605 225.878125 
L 446.824605 101.860478 
L 442.993852 101.860478 
z
" clip-path="url(#p3395cf4e96)" style="fill: #2e6be5; opacity: 0.5"/>
   </g>
   <g id="patch_16">
    <path d="M 446.824605 225.878125 
L 450.655358 225.878125 
L 450.655358 94.733027 
L 446.824605 94.733027 
z
" clip-path="url(#p3395cf4e96)" style="fill: #2e6be5; opacity: 0.5"/>
   </g>
   <g id="patch_17">
    <path d="M 450.655358 225.878125 
L 454.486111 225.878125 
L 454.486111 54.819301 
L 450.655358 54.819301 
z
" clip-path="url(#p3395cf4e96)" style="fill: #2e6be5; opacity: 0.5"/>
   </g>
   <g id="patch_18">
    <path d="M 454.486111 225.878125 
L 458.316864 225.878125 
L 458.316864 74.776164 
L 454.486111 74.776164 
z
" clip-path="url(#p3395cf4e96)" style="fill: #2e6be5; opacity: 0.5"/>
   </g>
   <g id="patch_19">
    <path d="M 458.316864 225.878125 
L 462.147617 225.878125 
L 462.147617 60.521262 
L 458.316864 60.521262 
z
" clip-path="url(#p3395cf4e96)" style="fill: #2e6be5; opacity: 0.5"/>
   </g>
   <g id="patch_20">
    <path d="M 462.147617 225.878125 
L 465.97837 225.878125 
L 465.97837 61.946752 
L 462.147617 61.946752 
z
" clip-path="url(#p3395cf4e96)" style="fill: #2e6be5; opacity: 0.5"/>
   </g>
   <g id="patch_21">
    <path d="M 465.97837 225.878125 
L 469.809124 225.878125 
L 469.809124 84.754596 
L 465.97837 84.754596 
z
" clip-path="url(#p3395cf4e96)" style="fill: #2e6be5; opacity: 0.5"/>
   </g>
   <g id="patch_22">
    <path d="M 469.809124 225.878125 
L 473.639877 225.878125 
L 473.639877 32.011458 
L 469.809124 32.011458 
z
" clip-path="url(#p3395cf4e96)" style="fill: #2e6be5; opacity: 0.5"/>
   </g>
   <g id="patch_23">
    <path d="M 473.639877 225.878125 
L 477.47063 225.878125 
L 477.47063 96.158517 
L 473.639877 96.158517 
z
" clip-path="url(#p3395cf4e96)" style="fill: #2e6be5; opacity: 0.5"/>
   </g>
   <g id="patch_24">
    <path d="M 477.47063 225.878125 
L 481.301383 225.878125 
L 481.301383 66.223223 
L 477.47063 66.223223 
z
" clip-path="url(#p3395cf4e96)" style="fill: #2e6be5; opacity: 0.5"/>
   </g>
   <g id="patch_25">
    <path d="M 481.301383 225.878125 
L 485.132136 225.878125 
L 485.132136 126.093811 
L 481.301383 126.093811 
z
" clip-path="url(#p3395cf4e96)" style="fill: #2e6be5; opacity: 0.5"/>
   </g>
   <g id="patch_26">
    <path d="M 485.132136 225.878125 
L 488.962889 225.878125 
L 488.962889 124.668321 
L 485.132136 124.668321 
z
" clip-path="url(#p3395cf4e96)" style="fill: #2e6be5; opacity: 0.5"/>
   </g>
   <g id="patch_27">
    <path d="M 488.962889 225.878125 
L 492.793642 225.878125 
L 492.793642 147.476164 
L 488.962889 147.476164 
z
" clip-path="url(#p3395cf4e96)" style="fill: #2e6be5; opacity: 0.5"/>
   </g>
   <g id="patch_28">
    <path d="M 492.793642 225.878125 
L 496.624396 225.878125 
L 496.624396 164.582047 
L 492.793642 164.582047 
z
" clip-path="url(#p3395cf4e96)" style="fill: #2e6be5; opacity: 0.5"/>
   </g>
   <g id="patch_29">
    <path d="M 496.624396 225.878125 
L 500.455149 225.878125 
L 500.455149 151.752635 
L 496.624396 151.752635 
z
" clip-path="url(#p3395cf4e96)" style="fill: #2e6be5; opacity: 0.5"/>
   </g>
   <g id="patch_30">
    <path d="M 500.455149 225.878125 
L 504.285902 225.878125 
L 504.285902 170.284007 
L 500.455149 170.284007 
z
" clip-path="url(#p3395cf4e96)" style="fill: #2e6be5; opacity: 0.5"/>
   </g>
   <g id="patch_31">
    <path d="M 504.285902 225.878125 
L 508.116655 225.878125 
L 508.116655 150.327145 
L 504.285902 150.327145 
z
" clip-path="url(#p3395cf4e96)" style="fill: #2e6be5; opacity: 0.5"/>
   </g>
   <g id="patch_32">
    <path d="M 508.116655 225.878125 
L 511.947408 225.878125 
L 511.947408 124.668321 
L 508.116655 124.668321 
z
" clip-path="url(#p3395cf4e96)" style="fill: #2e6be5; opacity: 0.5"/>
   </g>
   <g id="patch_33">
    <path d="M 511.947408 225.878125 
L 515.778161 225.878125 
L 515.778161 123.242831 
L 511.947408 123.242831 
z
" clip-path="url(#p3395cf4e96)" style="fill: #2e6be5; opacity: 0.5"/>
   </g>
   <g id="patch_34">
    <path d="M 515.778161 225.878125 
L 519.608914 225.878125 
L 519.608914 157.454596 
L 515.778161 157.454596 
z
" clip-path="url(#p3395cf4e96)" style="fill: #2e6be5; opacity: 0.5"/>
   </g>
   <g id="patch_35">
    <path d="M 519.608914 225.878125 
L 523.439667 225.878125 
L 523.439667 131.795772 
L 519.608914 131.795772 
z
" clip-path="url(#p3395cf4e96)" style="fill: #2e6be5; opacity: 0.5"/>
   </g>
   <g id="patch_36">
    <path d="M 523.439667 225.878125 
L 527.270421 225.878125 
L 527.270421 117.54087 
L 523.439667 117.54087 
z
" clip-path="url(#p3395cf4e96)" style="fill: #2e6be5; opacity: 0.5"/>
   </g>
   <g id="patch_37">
    <path d="M 527.270421 225.878125 
L 531.101174 225.878125 
L 531.101174 99.009498 
L 527.270421 99.009498 
z
" clip-path="url(#p3395cf4e96)" style="fill: #2e6be5; opacity: 0.5"/>
   </g>
   <g id="patch_38">
    <path d="M 531.101174 225.878125 
L 534.931927 225.878125 
L 534.931927 101.860478 
L 531.101174 101.860478 
z
" clip-path="url(#p3395cf4e96)" style="fill: #2e6be5; opacity: 0.5"/>
   </g>
   <g id="patch_39">
    <path d="M 534.931927 225.878125 
L 538.76268 225.878125 
L 538.76268 86.180086 
L 534.931927 86.180086 
z
" clip-path="url(#p3395cf4e96)" style="fill: #2e6be5; opacity: 0.5"/>
   </g>
   <g id="patch_40">
    <path d="M 538.76268 225.878125 
L 542.593433 225.878125 
L 542.593433 86.180086 
L 538.76268 86.180086 
z
" clip-path="url(#p3395cf4e96)" style="fill: #2e6be5; opacity: 0.5"/>
   </g>
   <g id="patch_41">
    <path d="M 542.593433 225.878125 
L 546.424186 225.878125 
L 546.424186 97.584007 
L 542.593433 97.584007 
z
" clip-path="url(#p3395cf4e96)" style="fill: #2e6be5; opacity: 0.5"/>
   </g>
   <g id="patch_42">
    <path d="M 546.424186 225.878125 
L 550.254939 225.878125 
L 550.254939 138.923223 
L 546.424186 138.923223 
z
" clip-path="url(#p3395cf4e96)" style="fill: #2e6be5; opacity: 0.5"/>
   </g>
   <g id="patch_43">
    <path d="M 550.254939 225.878125 
L 554.085693 225.878125 
L 554.085693 133.221262 
L 550.254939 133.221262 
z
" clip-path="url(#p3395cf4e96)" style="fill: #2e6be5; opacity: 0.5"/>
   </g>
   <g id="patch_44">
    <path d="M 554.085693 225.878125 
L 557.916446 225.878125 
L 557.916446 157.454596 
L 554.085693 157.454596 
z
" clip-path="url(#p3395cf4e96)" style="fill: #2e6be5; opacity: 0.5"/>
   </g>
   <g id="patch_45">
    <path d="M 557.916446 225.878125 
L 561.747199 225.878125 
L 561.747199 166.007537 
L 557.916446 166.007537 
z
" clip-path="url(#p3395cf4e96)" style="fill: #2e6be5; opacity: 0.5"/>
   </g>
   <g id="patch_46">
    <path d="M 561.747199 225.878125 
L 565.577952 225.878125 
L 565.577952 156.029105 
L 561.747199 156.029105 
z
" clip-path="url(#p3395cf4e96)" style="fill: #2e6be5; opacity: 0.5"/>
   </g>
   <g id="patch_47">
    <path d="M 565.577952 225.878125 
L 569.408705 225.878125 
L 569.408705 134.646752 
L 565.577952 134.646752 
z
" clip-path="url(#p3395cf4e96)" style="fill: #2e6be5; opacity: 0.5"/>
   </g>
   <g id="patch_48">
    <path d="M 569.408705 225.878125 
L 573.239458 225.878125 
L 573.239458 153.178125 
L 569.408705 153.178125 
z
" clip-path="url(#p3395cf4e96)" style="fill: #2e6be5; opacity: 0.5"/>
   </g>
   <g id="patch_49">
    <path d="M 573.239458 225.878125 
L 577.070211 225.878125 
L 577.070211 201.644792 
L 573.239458 201.644792 
z
" clip-path="url(#p3395cf4e96)" style="fill: #2e6be5; opacity: 0.5"/>
   </g>
   <g id="patch_50">
    <path d="M 577.070211 225.878125 
L 580.900964 225.878125 
L 580.900964 190.24087 
L 577.070211 190.24087 
z
" clip-path="url(#p3395cf4e96)" style="fill: #2e6be5; opacity: 0.5"/>
   </g>
   <g id="patch_51">
    <path d="M 580.900964 225.878125 
L 584.731718 225.878125 
L 584.731718 208.772243 
L 580.900964 208.772243 
z
" clip-path="url(#p3395cf4e96)" style="fill: #2e6be5; opacity: 0.5"/>
   </g>
   <g id="patch_52">
    <path d="M 584.731718 225.878125 
L 588.562471 225.878125 
L 588.562471 205.921262 
L 584.731718 205.921262 
z
" clip-path="url(#p3395cf4e96)" style="fill: #2e6be5; opacity: 0.5"/>
   </g>
   <g id="patch_53">
    <path d="M 588.562471 225.878125 
L 592.393224 225.878125 
L 592.393224 218.750674 
L 588.562471 218.750674 
z
" clip-path="url(#p3395cf4e96)" style="fill: #2e6be5; opacity: 0.5"/>
   </g>
   <g id="patch_54">
    <path d="M 592.393224 225.878125 
L 596.223977 225.878125 
L 596.223977 218.750674 
L 592.393224 218.750674 
z
" clip-path="url(#p3395cf4e96)" style="fill: #2e6be5; opacity: 0.5"/>
   </g>
   <g id="patch_55">
    <path d="M 596.223977 225.878125 
L 600.05473 225.878125 
L 600.05473 220.176164 
L 596.223977 220.176164 
z
" clip-path="url(#p3395cf4e96)" style="fill: #2e6be5; opacity: 0.5"/>
   </g>
   <g id="matplotlib.axis_3">
    <g id="xtick_8">
     <g id="line2d_19">
      <g>
       <use xlink:href="#m17a37e65fa" x="400.425954" y="225.878125" style="stroke: #000000; stroke-width: 0.8"/>
      </g>
     </g>
     <g id="text_20">
      <!-- −4 -->
      <g transform="translate(393.79197 239.716719) scale(0.09 -0.09)">
       <use xlink:href="#DejaVuSans-2212"/>
       <use xlink:href="#DejaVuSans-34" x="83.789062"/>
      </g>
     </g>
    </g>
    <g id="xtick_9">
     <g id="line2d_20">
      <g>
       <use xlink:href="#m17a37e65fa" x="448.966576" y="225.878125" style="stroke: #000000; stroke-width: 0.8"/>
      </g>
     </g>
     <g id="text_21">
      <!-- −2 -->
      <g transform="translate(442.332591 239.716719) scale(0.09 -0.09)">
       <use xlink:href="#DejaVuSans-2212"/>
       <use xlink:href="#DejaVuSans-32" x="83.789062"/>
      </g>
     </g>
    </g>
    <g id="xtick_10">
     <g id="line2d_21">
      <g>
       <use xlink:href="#m17a37e65fa" x="497.507197" y="225.878125" style="stroke: #000000; stroke-width: 0.8"/>
      </g>
     </g>
     <g id="text_22">
      <!-- 0 -->
      <g transform="translate(494.644072 239.716719) scale(0.09 -0.09)">
       <use xlink:href="#DejaVuSans-30"/>
      </g>
     </g>
    </g>
    <g id="xtick_11">
     <g id="line2d_22">
      <g>
       <use xlink:href="#m17a37e65fa" x="546.047819" y="225.878125" style="stroke: #000000; stroke-width: 0.8"/>
      </g>
     </g>
     <g id="text_23">
      <!-- 2 -->
      <g transform="translate(543.184694 239.716719) scale(0.09 -0.09)">
       <use xlink:href="#DejaVuSans-32"/>
      </g>
     </g>
    </g>
    <g id="xtick_12">
     <g id="line2d_23">
      <g>
       <use xlink:href="#m17a37e65fa" x="594.58844" y="225.878125" style="stroke: #000000; stroke-width: 0.8"/>
      </g>
     </g>
     <g id="text_24">
      <!-- 4 -->
      <g transform="translate(591.725315 239.716719) scale(0.09 -0.09)">
       <use xlink:href="#DejaVuSans-34"/>
      </g>
     </g>
    </g>
    <g id="text_25">
     <!-- $x$ -->
     <g transform="translate(494.207197 253.946719) scale(0.11 -0.11)">
      <use xlink:href="#DejaVuSans-Oblique-78" transform="translate(0 0.3125)"/>
     </g>
    </g>
   </g>
   <g id="matplotlib.axis_4">
    <g id="ytick_10">
     <g id="line2d_24">
      <g>
       <use xlink:href="#m109a036b0f" x="364.020488" y="225.878125" style="stroke: #000000; stroke-width: 0.8"/>
      </g>
     </g>
     <g id="text_26">
      <!-- 0.00 -->
      <g transform="translate(336.981426 229.297422) scale(0.09 -0.09)">
       <defs>
        <path id="DejaVuSans-2e" d="M 684 794 
L 1344 794 
L 1344 0 
L 684 0 
L 684 794 
z
" transform="scale(0.015625)"/>
       </defs>
       <use xlink:href="#DejaVuSans-30"/>
       <use xlink:href="#DejaVuSans-2e" x="63.623047"/>
       <use xlink:href="#DejaVuSans-30" x="95.410156"/>
       <use xlink:href="#DejaVuSans-30" x="159.033203"/>
      </g>
     </g>
    </g>
    <g id="ytick_11">
     <g id="line2d_25">
      <g>
       <use xlink:href="#m109a036b0f" x="364.020488" y="192.12886" style="stroke: #000000; stroke-width: 0.8"/>
      </g>
     </g>
     <g id="text_27">
      <!-- 0.05 -->
      <g transform="translate(336.981426 195.548157) scale(0.09 -0.09)">
       <use xlink:href="#DejaVuSans-30"/>
       <use xlink:href="#DejaVuSans-2e" x="63.623047"/>
       <use xlink:href="#DejaVuSans-30" x="95.410156"/>
       <use xlink:href="#DejaVuSans-35" x="159.033203"/>
      </g>
     </g>
    </g>
    <g id="ytick_12">
     <g id="line2d_26">
      <g>
       <use xlink:href="#m109a036b0f" x="364.020488" y="158.379594" style="stroke: #000000; stroke-width: 0.8"/>
      </g>
     </g>
     <g id="text_28">
      <!-- 0.10 -->
      <g transform="translate(336.981426 161.798891) scale(0.09 -0.09)">
       <use xlink:href="#DejaVuSans-30"/>
       <use xlink:href="#DejaVuSans-2e" x="63.623047"/>
       <use xlink:href="#DejaVuSans-31" x="95.410156"/>
       <use xlink:href="#DejaVuSans-30" x="159.033203"/>
      </g>
     </g>
    </g>
    <g id="ytick_13">
     <g id="line2d_27">
      <g>
       <use xlink:href="#m109a036b0f" x="364.020488" y="124.630329" style="stroke: #000000; stroke-width: 0.8"/>
      </g>
     </g>
     <g id="text_29">
      <!-- 0.15 -->
      <g transform="translate(336.981426 128.049626) scale(0.09 -0.09)">
       <use xlink:href="#DejaVuSans-30"/>
       <use xlink:href="#DejaVuSans-2e" x="63.623047"/>
       <use xlink:href="#DejaVuSans-31" x="95.410156"/>
       <use xlink:href="#DejaVuSans-35" x="159.033203"/>
      </g>
     </g>
    </g>
    <g id="ytick_14">
     <g id="line2d_28">
      <g>
       <use xlink:href="#m109a036b0f" x="364.020488" y="90.881064" style="stroke: #000000; stroke-width: 0.8"/>
      </g>
     </g>
     <g id="text_30">
      <!-- 0.20 -->
      <g transform="translate(336.981426 94.300361) scale(0.09 -0.09)">
       <use xlink:href="#DejaVuSans-30"/>
       <use xlink:href="#DejaVuSans-2e" x="63.623047"/>
       <use xlink:href="#DejaVuSans-32" x="95.410156"/>
       <use xlink:href="#DejaVuSans-30" x="159.033203"/>
      </g>
     </g>
    </g>
    <g id="ytick_15">
     <g id="line2d_29">
      <g>
       <use xlink:href="#m109a036b0f" x="364.020488" y="57.131799" style="stroke: #000000; stroke-width: 0.8"/>
      </g>
     </g>
     <g id="text_31">
      <!-- 0.25 -->
      <g transform="translate(336.981426 60.551096) scale(0.09 -0.09)">
       <use xlink:href="#DejaVuSans-30"/>
       <use xlink:href="#DejaVuSans-2e" x="63.623047"/>
       <use xlink:href="#DejaVuSans-32" x="95.410156"/>
       <use xlink:href="#DejaVuSans-35" x="159.033203"/>
      </g>
     </g>
    </g>
    <g id="ytick_16">
     <g id="line2d_30">
      <g>
       <use xlink:href="#m109a036b0f" x="364.020488" y="23.382533" style="stroke: #000000; stroke-width: 0.8"/>
      </g>
     </g>
     <g id="text_32">
      <!-- 0.30 -->
      <g transform="translate(336.981426 26.80183) scale(0.09 -0.09)">
       <use xlink:href="#DejaVuSans-30"/>
       <use xlink:href="#DejaVuSans-2e" x="63.623047"/>
       <use xlink:href="#DejaVuSans-33" x="95.410156"/>
       <use xlink:href="#DejaVuSans-30" x="159.033203"/>
      </g>
     </g>
    </g>
    <g id="text_33">
     <!-- Density -->
     <g transform="translate(330.693769 145.007578) rotate(-90) scale(0.11 -0.11)">
      <defs>
       <path id="DejaVuSans-44" d="M 1259 4147 
L 1259 519 
L 2022 519 
Q 2988 519 3436 956 
Q 3884 1394 3884 2338 
Q 3884 3275 3436 3711 
Q 2988 4147 2022 4147 
L 1259 4147 
z
M 628 4666 
L 1925 4666 
Q 3281 4666 3915 4102 
Q 4550 3538 4550 2338 
Q 4550 1131 3912 565 
Q 3275 0 1925 0 
L 628 0 
L 628 4666 
z
" transform="scale(0.015625)"/>
       <path id="DejaVuSans-79" d="M 2059 -325 
Q 1816 -950 1584 -1140 
Q 1353 -1331 966 -1331 
L 506 -1331 
L 506 -850 
L 844 -850 
Q 1081 -850 1212 -737 
Q 1344 -625 1503 -206 
L 1606 56 
L 191 3500 
L 800 3500 
L 1894 763 
L 2988 3500 
L 3597 3500 
L 2059 -325 
z
" transform="scale(0.015625)"/>
      </defs>
      <use xlink:href="#DejaVuSans-44"/>
      <use xlink:href="#DejaVuSans-65" x="77.001953"/>
      <use xlink:href="#DejaVuSans-6e" x="138.525391"/>
      <use xlink:href="#DejaVuSans-73" x="201.904297"/>
      <use xlink:href="#DejaVuSans-69" x="254.003906"/>
      <use xlink:href="#DejaVuSans-74" x="281.787109"/>
      <use xlink:href="#DejaVuSans-79" x="320.996094"/>
     </g>
    </g>
   </g>
   <g id="line2d_31">
    <path d="M 376.155643 225.866383 
L 388.321213 225.728501 
L 393.795719 225.464373 
L 397.44539 225.098202 
L 400.486782 224.590599 
L 402.919896 223.989059 
L 405.35301 223.14966 
L 407.177845 222.320204 
L 409.002681 221.279393 
L 410.827516 219.986383 
L 412.652351 218.396202 
L 414.477187 216.460385 
L 416.302022 214.127958 
L 418.126857 211.346796 
L 419.951693 208.065388 
L 421.776528 204.234997 
L 423.601364 199.812176 
L 425.426199 194.761586 
L 427.251034 189.059005 
L 429.07587 182.694407 
L 430.900705 175.674924 
L 433.333819 165.34667 
L 435.766933 154.030237 
L 438.808325 138.807625 
L 447.932502 92.095677 
L 450.365616 81.337015 
L 452.190452 74.265604 
L 454.015287 68.236155 
L 455.231844 64.868175 
L 456.448401 62.064727 
L 457.664958 59.855862 
L 458.881515 58.26472 
L 459.489793 57.706011 
L 460.098072 57.307027 
L 460.70635 57.068515 
L 461.314628 56.99072 
L 461.922907 57.073378 
L 462.531185 57.315722 
L 463.139464 57.716477 
L 463.747742 58.273867 
L 464.964299 59.848968 
L 466.180856 62.017046 
L 467.397413 64.746697 
L 468.61397 67.999587 
L 470.438805 73.760805 
L 472.263641 80.424226 
L 474.696755 90.372441 
L 478.346425 106.546344 
L 482.604375 125.24649 
L 485.037489 134.919207 
L 486.862324 141.375841 
L 488.687159 146.992434 
L 489.903716 150.213737 
L 491.120273 152.985021 
L 492.33683 155.285475 
L 493.553387 157.099812 
L 494.769944 158.418209 
L 495.986501 159.236176 
L 496.594779 159.457517 
L 497.203058 159.554402 
L 497.811336 159.527695 
L 498.419615 159.378555 
L 499.636172 158.719059 
L 500.852729 157.590852 
L 502.069286 156.01312 
L 503.285843 154.009026 
L 504.502399 151.605427 
L 506.327235 147.317991 
L 508.15207 142.315316 
L 510.585184 134.755587 
L 513.626576 124.34876 
L 520.31764 101.011776 
L 522.750753 93.499793 
L 524.575589 88.535452 
L 526.400424 84.279759 
L 527.616981 81.888377 
L 528.833538 79.884783 
L 530.050095 78.291275 
L 531.266652 77.125948 
L 532.483209 76.402508 
L 533.699766 76.13015 
L 534.308044 76.164749 
L 535.524601 76.576239 
L 536.741158 77.441783 
L 537.957715 78.754679 
L 539.174272 80.503909 
L 540.390829 82.674349 
L 541.607386 85.247038 
L 543.432221 89.810233 
L 545.257057 95.138374 
L 547.081892 101.1298 
L 549.515006 109.957079 
L 552.556398 121.94581 
L 562.897132 163.849306 
L 565.938524 174.810703 
L 568.371638 182.773653 
L 570.804752 189.94357 
L 573.237866 196.290255 
L 575.062701 200.510573 
L 576.887537 204.280184 
L 578.712372 207.617523 
L 580.537208 210.54655 
L 582.362043 213.095284 
L 584.186878 215.29444 
L 586.011714 217.176199 
L 587.836549 218.773146 
L 589.661385 220.117374 
L 591.48622 221.239766 
L 593.919334 222.441255 
L 596.352448 223.362921 
L 598.785562 224.060121 
L 601.826954 224.687448 
L 605.476625 225.179701 
L 609.734574 225.516292 
L 615.817359 225.745732 
L 618.858751 225.800337 
L 618.858751 225.800337 
" clip-path="url(#p3395cf4e96)" style="fill: none; stroke: #e8850a; stroke-width: 2.2; stroke-linecap: square"/>
   </g>
   <g id="patch_56">
    <path d="M 364.020488 225.878125 
L 364.020488 22.318125 
" style="fill: none; stroke: #000000; stroke-width: 0.8; stroke-linejoin: miter; stroke-linecap: square"/>
   </g>
   <g id="patch_57">
    <path d="M 364.020488 225.878125 
L 630.993906 225.878125 
" style="fill: none; stroke: #000000; stroke-width: 0.8; stroke-linejoin: miter; stroke-linecap: square"/>
   </g>
   <g id="text_34">
    <!-- Marginal distribution -->
    <g transform="translate(435.57126 16.318125) scale(0.12 -0.12)">
     <defs>
      <path id="DejaVuSans-4d" d="M 628 4666 
L 1569 4666 
L 2759 1491 
L 3956 4666 
L 4897 4666 
L 4897 0 
L 4281 0 
L 4281 4097 
L 3078 897 
L 2444 897 
L 1241 4097 
L 1241 0 
L 628 0 
L 628 4666 
z
" transform="scale(0.015625)"/>
      <path id="DejaVuSans-67" d="M 2906 1791 
Q 2906 2416 2648 2759 
Q 2391 3103 1925 3103 
Q 1463 3103 1205 2759 
Q 947 2416 947 1791 
Q 947 1169 1205 825 
Q 1463 481 1925 481 
Q 2391 481 2648 825 
Q 2906 1169 2906 1791 
z
M 3481 434 
Q 3481 -459 3084 -895 
Q 2688 -1331 1869 -1331 
Q 1566 -1331 1297 -1286 
Q 1028 -1241 775 -1147 
L 775 -588 
Q 1028 -725 1275 -790 
Q 1522 -856 1778 -856 
Q 2344 -856 2625 -561 
Q 2906 -266 2906 331 
L 2906 616 
Q 2728 306 2450 153 
Q 2172 0 1784 0 
Q 1141 0 747 490 
Q 353 981 353 1791 
Q 353 2603 747 3093 
Q 1141 3584 1784 3584 
Q 2172 3584 2450 3431 
Q 2728 3278 2906 2969 
L 2906 3500 
L 3481 3500 
L 3481 434 
z
" transform="scale(0.015625)"/>
      <path id="DejaVuSans-75" d="M 544 1381 
L 544 3500 
L 1119 3500 
L 1119 1403 
Q 1119 906 1312 657 
Q 1506 409 1894 409 
Q 2359 409 2629 706 
Q 2900 1003 2900 1516 
L 2900 3500 
L 3475 3500 
L 3475 0 
L 2900 0 
L 2900 538 
Q 2691 219 2414 64 
Q 2138 -91 1772 -91 
Q 1169 -91 856 284 
Q 544 659 544 1381 
z
M 1991 3584 
L 1991 3584 
z
" transform="scale(0.015625)"/>
     </defs>
     <use xlink:href="#DejaVuSans-4d"/>
     <use xlink:href="#DejaVuSans-61" x="86.279297"/>
     <use xlink:href="#DejaVuSans-72" x="147.558594"/>
     <use xlink:href="#DejaVuSans-67" x="186.921875"/>
     <use xlink:href="#DejaVuSans-69" x="250.398438"/>
     <use xlink:href="#DejaVuSans-6e" x="278.181641"/>
     <use xlink:href="#DejaVuSans-61" x="341.560547"/>
     <use xlink:href="#DejaVuSans-6c" x="402.839844"/>
     <use xlink:href="#DejaVuSans-20" x="430.623047"/>
     <use xlink:href="#DejaVuSans-64" x="462.410156"/>
     <use xlink:href="#DejaVuSans-69" x="525.886719"/>
     <use xlink:href="#DejaVuSans-73" x="553.669922"/>
     <use xlink:href="#DejaVuSans-74" x="605.769531"/>
     <use xlink:href="#DejaVuSans-72" x="644.978516"/>
     <use xlink:href="#DejaVuSans-69" x="686.091797"/>
     <use xlink:href="#DejaVuSans-62" x="713.875"/>
     <use xlink:href="#DejaVuSans-75" x="777.351562"/>
     <use xlink:href="#DejaVuSans-74" x="840.730469"/>
     <use xlink:href="#DejaVuSans-69" x="879.939453"/>
     <use xlink:href="#DejaVuSans-6f" x="907.722656"/>
     <use xlink:href="#DejaVuSans-6e" x="968.904297"/>
    </g>
   </g>
   <g id="legend_1">
    <g id="patch_58">
     <path d="M 527.523438 55.93875 
L 624.693906 55.93875 
Q 626.493906 55.93875 626.493906 54.13875 
L 626.493906 28.618125 
Q 626.493906 26.818125 624.693906 26.818125 
L 527.523438 26.818125 
Q 525.723438 26.818125 525.723438 28.618125 
L 525.723438 54.13875 
Q 525.723438 55.93875 527.523438 55.93875 
z
" style="fill: #ffffff; opacity: 0.8; stroke: #cccccc; stroke-linejoin: miter"/>
    </g>
    <g id="patch_59">
     <path d="M 529.323438 37.256719 
L 547.323438 37.256719 
L 547.323438 30.956719 
L 529.323438 30.956719 
z
" style="fill: #2e6be5; opacity: 0.5"/>
    </g>
    <g id="text_35">
     <!-- MCMC samples -->
     <g transform="translate(554.523438 37.256719) scale(0.09 -0.09)">
      <defs>
       <path id="DejaVuSans-43" d="M 4122 4306 
L 4122 3641 
Q 3803 3938 3442 4084 
Q 3081 4231 2675 4231 
Q 1875 4231 1450 3742 
Q 1025 3253 1025 2328 
Q 1025 1406 1450 917 
Q 1875 428 2675 428 
Q 3081 428 3442 575 
Q 3803 722 4122 1019 
L 4122 359 
Q 3791 134 3420 21 
Q 3050 -91 2638 -91 
Q 1578 -91 968 557 
Q 359 1206 359 2328 
Q 359 3453 968 4101 
Q 1578 4750 2638 4750 
Q 3056 4750 3426 4639 
Q 3797 4528 4122 4306 
z
" transform="scale(0.015625)"/>
      </defs>
      <use xlink:href="#DejaVuSans-4d"/>
      <use xlink:href="#DejaVuSans-43" x="86.279297"/>
      <use xlink:href="#DejaVuSans-4d" x="156.103516"/>
      <use xlink:href="#DejaVuSans-43" x="242.382812"/>
      <use xlink:href="#DejaVuSans-20" x="312.207031"/>
      <use xlink:href="#DejaVuSans-73" x="343.994141"/>
      <use xlink:href="#DejaVuSans-61" x="396.09375"/>
      <use xlink:href="#DejaVuSans-6d" x="457.373047"/>
      <use xlink:href="#DejaVuSans-70" x="554.785156"/>
      <use xlink:href="#DejaVuSans-6c" x="618.261719"/>
      <use xlink:href="#DejaVuSans-65" x="646.044922"/>
      <use xlink:href="#DejaVuSans-73" x="707.568359"/>
     </g>
    </g>
    <g id="line2d_32">
     <path d="M 529.323438 47.317031 
L 538.323438 47.317031 
L 547.323438 47.317031 
" style="fill: none; stroke: #e8850a; stroke-width: 2.2; stroke-linecap: square"/>
    </g>
    <g id="text_36">
     <!-- true $\pi(x)$ -->
     <g transform="translate(554.523438 50.467031) scale(0.09 -0.09)">
      <defs>
       <path id="DejaVuSans-Oblique-3c0" d="M 584 3500 
L 3938 3500 
L 3825 2925 
L 3384 2925 
L 2966 775 
Q 2922 550 2981 450 
Q 3038 353 3209 353 
Q 3256 353 3325 363 
Q 3397 369 3419 372 
L 3338 -44 
Q 3222 -84 3103 -103 
Q 2981 -122 2866 -122 
Q 2491 -122 2388 81 
Q 2284 288 2391 838 
L 2797 2925 
L 1506 2925 
L 938 0 
L 350 0 
L 919 2925 
L 472 2925 
L 584 3500 
z
" transform="scale(0.015625)"/>
       <path id="DejaVuSans-28" d="M 1984 4856 
Q 1566 4138 1362 3434 
Q 1159 2731 1159 2009 
Q 1159 1288 1364 580 
Q 1569 -128 1984 -844 
L 1484 -844 
Q 1016 -109 783 600 
Q 550 1309 550 2009 
Q 550 2706 781 3412 
Q 1013 4119 1484 4856 
L 1984 4856 
z
" transform="scale(0.015625)"/>
       <path id="DejaVuSans-29" d="M 513 4856 
L 1013 4856 
Q 1481 4119 1714 3412 
Q 1947 2706 1947 2009 
Q 1947 1309 1714 600 
Q 1481 -109 1013 -844 
L 513 -844 
Q 928 -128 1133 580 
Q 1338 1288 1338 2009 
Q 1338 2731 1133 3434 
Q 928 4138 513 4856 
z
" transform="scale(0.015625)"/>
      </defs>
      <use xlink:href="#DejaVuSans-74" transform="translate(0 0.125)"/>
      <use xlink:href="#DejaVuSans-72" transform="translate(39.208984 0.125)"/>
      <use xlink:href="#DejaVuSans-75" transform="translate(80.322266 0.125)"/>
      <use xlink:href="#DejaVuSans-65" transform="translate(143.701172 0.125)"/>
      <use xlink:href="#DejaVuSans-20" transform="translate(205.224609 0.125)"/>
      <use xlink:href="#DejaVuSans-Oblique-3c0" transform="translate(237.011719 0.125)"/>
      <use xlink:href="#DejaVuSans-28" transform="translate(297.216797 0.125)"/>
      <use xlink:href="#DejaVuSans-Oblique-78" transform="translate(336.230469 0.125)"/>
      <use xlink:href="#DejaVuSans-29" transform="translate(395.410156 0.125)"/>
     </g>
    </g>
   </g>
  </g>
 </g>
 <defs>
  <clipPath id="pb63b8b4f92">
   <rect x="42.113906" y="22.318125" width="266.973418" height="203.56"/>
  </clipPath>
  <clipPath id="p3395cf4e96">
   <rect x="364.020488" y="22.318125" width="266.973418" height="203.56"/>
  </clipPath>
 </defs>
</svg>
