<?xml version="1.0" encoding="utf-8" standalone="no"?>
<!DOCTYPE svg PUBLIC "-//W3C//DTD SVG 1.1//EN"
  "http://www.w3.org/Graphics/SVG/1.1/DTD/svg11.dtd">
<svg xmlns:xlink="http://www.w3.org/1999/xlink" width="632.953583pt" height="321.558281pt" viewBox="0 0 632.953583 321.558281" xmlns="http://www.w3.org/2000/svg" version="1.1">
 <metadata>
  <rdf:RDF xmlns:dc="http://purl.org/dc/elements/1.1/" xmlns:cc="http://creativecommons.org/ns#" xmlns:rdf="http://www.w3.org/1999/02/22-rdf-syntax-ns#">
   <cc:Work>
    <dc:type rdf:resource="http://purl.org/dc/dcmitype/StillImage"/>
    <dc:date>2026-03-07T13:33:23.130324</dc:date>
    <dc:format>image/svg+xml</dc:format>
    <dc:creator>
     <cc:Agent>
      <dc:title>Matplotlib v3.8.4, https://matplotlib.org/</dc:title>
     </cc:Agent>
    </dc:creator>
   </cc:Work>
  </rdf:RDF>
 </metadata>
 <defs>
  <style type="text/css">*{stroke-linejoin: round; stroke-linecap: butt}</style>
 </defs>
 <g id="figure_1">
  <g id="patch_1">
   <path d="M 0 321.558281 
L 632.953583 321.558281 
L 632.953583 0 
L 0 0 
z
" style="fill: #ffffff"/>
  </g>
  <g id="axes_1">
   <g id="patch_2">
    <path d="M 231.724667 81.234368 
L 377.005333 81.234368 
Q 381.6279 81.234368 381.6279 76.763499 
L 381.6279 28.222629 
Q 381.6279 23.75176 377.005333 23.75176 
L 231.724667 23.75176 
Q 227.1021 23.75176 227.1021 28.222629 
L 227.1021 76.763499 
Q 227.1021 81.234368 231.724667 81.234368 
z
" clip-path="url(#p984f3fff23)" style="fill: #2e6be5; fill-opacity: 0.133333; stroke: #2e6be5; stroke-width: 1.6; stroke-linejoin: miter"/>
   </g>
   <g id="patch_3">
    <path d="M 53.425667 161.071325 
L 198.706333 161.071325 
Q 203.3289 161.071325 203.3289 156.600455 
L 203.3289 108.059586 
Q 203.3289 103.588716 198.706333 103.588716 
L 53.425667 103.588716 
Q 48.8031 103.588716 48.8031 108.059586 
L 48.8031 156.600455 
Q 48.8031 161.071325 53.425667 161.071325 
z
" clip-path="url(#p984f3fff23)" style="fill: #27ae60; fill-opacity: 0.133333; stroke: #27ae60; stroke-width: 1.6; stroke-linejoin: miter"/>
   </g>
   <g id="patch_4">
    <path d="M 231.724667 161.071325 
L 377.005333 161.071325 
Q 381.6279 161.071325 381.6279 156.600455 
L 381.6279 108.059586 
Q 381.6279 103.588716 377.005333 103.588716 
L 231.724667 103.588716 
Q 227.1021 103.588716 227.1021 108.059586 
L 227.1021 156.600455 
Q 227.1021 161.071325 231.724667 161.071325 
z
" clip-path="url(#p984f3fff23)" style="fill: #e8850a; fill-opacity: 0.133333; stroke: #e8850a; stroke-width: 1.6; stroke-linejoin: miter"/>
   </g>
   <g id="patch_5">
    <path d="M 410.023667 161.071325 
L 555.304333 161.071325 
Q 559.9269 161.071325 559.9269 156.600455 
L 559.9269 108.059586 
Q 559.9269 103.588716 555.304333 103.588716 
L 410.023667 103.588716 
Q 405.4011 103.588716 405.4011 108.059586 
L 405.4011 156.600455 
Q 405.4011 161.071325 410.023667 161.071325 
z
" clip-path="url(#p984f3fff23)" style="fill: #27ae60; fill-opacity: 0.133333; stroke: #27ae60; stroke-width: 1.6; stroke-linejoin: miter"/>
   </g>
   <g id="patch_6">
    <path d="M 231.724667 244.10176 
L 377.005333 244.10176 
Q 381.6279 244.10176 381.6279 239.63089 
L 381.6279 191.09002 
Q 381.6279 186.619151 377.005333 186.619151 
L 231.724667 186.619151 
Q 227.1021 186.619151 227.1021 191.09002 
L 227.1021 239.63089 
Q 227.1021 244.10176 231.724667 244.10176 
z
" clip-path="url(#p984f3fff23)" style="fill: #27ae60; fill-opacity: 0.133333; stroke: #27ae60; stroke-width: 1.6; stroke-linejoin: miter"/>
   </g>
   <g id="patch_7">
    <path d="M 53.425667 244.10176 
L 198.706333 244.10176 
Q 203.3289 244.10176 203.3289 239.63089 
L 203.3289 191.09002 
Q 203.3289 186.619151 198.706333 186.619151 
L 53.425667 186.619151 
Q 48.8031 186.619151 48.8031 191.09002 
L 48.8031 239.63089 
Q 48.8031 244.10176 53.425667 244.10176 
z
" clip-path="url(#p984f3fff23)" style="fill: #d62728; fill-opacity: 0.133333; stroke: #d62728; stroke-width: 1.6; stroke-linejoin: miter"/>
   </g>
   <g id="text_1">
    <!-- $\mathrm{GL}(n,\mathbb{R})$ -->
    <g style="fill: #2e6be5" transform="translate(287.5775 50.079462) scale(0.085 -0.085)">
     <defs>
      <path id="DejaVuSans-47" d="M 3809 666 
L 3809 1919 
L 2778 1919 
L 2778 2438 
L 4434 2438 
L 4434 434 
Q 4069 175 3628 42 
Q 3188 -91 2688 -91 
Q 1594 -91 976 548 
Q 359 1188 359 2328 
Q 359 3472 976 4111 
Q 1594 4750 2688 4750 
Q 3144 4750 3555 4637 
Q 3966 4525 4313 4306 
L 4313 3634 
Q 3963 3931 3569 4081 
Q 3175 4231 2741 4231 
Q 1884 4231 1454 3753 
Q 1025 3275 1025 2328 
Q 1025 1384 1454 906 
Q 1884 428 2741 428 
Q 3075 428 3337 486 
Q 3600 544 3809 666 
z
" transform="scale(0.015625)"/>
      <path id="DejaVuSans-4c" d="M 628 4666 
L 1259 4666 
L 1259 531 
L 3531 531 
L 3531 0 
L 628 0 
L 628 4666 
z
" transform="scale(0.015625)"/>
      <path id="DejaVuSans-28" d="M 1984 4856 
Q 1566 4138 1362 3434 
Q 1159 2731 1159 2009 
Q 1159 1288 1364 580 
Q 1569 -128 1984 -844 
L 1484 -844 
Q 1016 -109 783 600 
Q 550 1309 550 2009 
Q 550 2706 781 3412 
Q 1013 4119 1484 4856 
L 1984 4856 
z
" transform="scale(0.015625)"/>
      <path id="DejaVuSans-Oblique-6e" d="M 3566 2113 
L 3156 0 
L 2578 0 
L 2988 2091 
Q 3016 2238 3031 2350 
Q 3047 2463 3047 2528 
Q 3047 2791 2881 2937 
Q 2716 3084 2419 3084 
Q 1956 3084 1622 2776 
Q 1288 2469 1184 1941 
L 800 0 
L 225 0 
L 903 3500 
L 1478 3500 
L 1363 2950 
Q 1603 3253 1940 3418 
Q 2278 3584 2650 3584 
Q 3113 3584 3367 3334 
Q 3622 3084 3622 2631 
Q 3622 2519 3608 2391 
Q 3594 2263 3566 2113 
z
" transform="scale(0.015625)"/>
      <path id="DejaVuSans-2c" d="M 750 794 
L 1409 794 
L 1409 256 
L 897 -744 
L 494 -744 
L 750 256 
L 750 794 
z
" transform="scale(0.015625)"/>
      <path id="STIXGeneral-Italic-211d" d="M 1229 4179 
L 3360 4179 
Q 3827 4179 4108 3894 
Q 4390 3610 4390 3142 
Q 4390 2554 4060 2186 
Q 3731 1818 3149 1715 
L 4026 0 
L 2925 0 
L 2125 1690 
L 1549 1690 
L 1094 0 
L 109 0 
L 1229 4179 
z
M 3866 3821 
L 3392 2022 
Q 3770 2144 3962 2438 
Q 4154 2733 4154 3136 
Q 4154 3584 3866 3821 
z
M 3142 1978 
L 3648 3872 
Q 3450 3942 3296 3942 
L 2150 3942 
L 1613 1926 
L 2630 1926 
Q 2957 1926 3142 1978 
z
M 3629 237 
L 2899 1696 
Q 2829 1683 2682 1683 
Q 2630 1683 2531 1686 
Q 2432 1690 2387 1690 
L 3072 237 
L 3629 237 
z
M 1907 3942 
L 1408 3942 
L 416 237 
L 915 237 
L 1907 3942 
z
" transform="scale(0.015625)"/>
      <path id="DejaVuSans-29" d="M 513 4856 
L 1013 4856 
Q 1481 4119 1714 3412 
Q 1947 2706 1947 2009 
Q 1947 1309 1714 600 
Q 1481 -109 1013 -844 
L 513 -844 
Q 928 -128 1133 580 
Q 1338 1288 1338 2009 
Q 1338 2731 1133 3434 
Q 928 4138 513 4856 
z
" transform="scale(0.015625)"/>
     </defs>
     <use xlink:href="#DejaVuSans-47" transform="translate(0 0.125)"/>
     <use xlink:href="#DejaVuSans-4c" transform="translate(77.490234 0.125)"/>
     <use xlink:href="#DejaVuSans-28" transform="translate(133.203125 0.125)"/>
     <use xlink:href="#DejaVuSans-Oblique-6e" transform="translate(172.216797 0.125)"/>
     <use xlink:href="#DejaVuSans-2c" transform="translate(235.595703 0.125)"/>
     <use xlink:href="#STIXGeneral-Italic-211d" transform="translate(286.865234 0.125)"/>
     <use xlink:href="#DejaVuSans-29" transform="translate(355.565216 0.125)"/>
    </g>
    <!-- all invertible $n	imes n$ -->
    <g style="fill: #2e6be5" transform="translate(256.9775 59.597603) scale(0.085 -0.085)">
     <defs>
      <path id="DejaVuSans-Bold-61" d="M 2106 1575 
Q 1756 1575 1579 1456 
Q 1403 1338 1403 1106 
Q 1403 894 1545 773 
Q 1688 653 1941 653 
Q 2256 653 2472 879 
Q 2688 1106 2688 1447 
L 2688 1575 
L 2106 1575 
z
M 3816 1997 
L 3816 0 
L 2688 0 
L 2688 519 
Q 2463 200 2181 54 
Q 1900 -91 1497 -91 
Q 953 -91 614 226 
Q 275 544 275 1050 
Q 275 1666 698 1953 
Q 1122 2241 2028 2241 
L 2688 2241 
L 2688 2328 
Q 2688 2594 2478 2717 
Q 2269 2841 1825 2841 
Q 1466 2841 1156 2769 
Q 847 2697 581 2553 
L 581 3406 
Q 941 3494 1303 3539 
Q 1666 3584 2028 3584 
Q 2975 3584 3395 3211 
Q 3816 2838 3816 1997 
z
" transform="scale(0.015625)"/>
      <path id="DejaVuSans-Bold-6c" d="M 538 4863 
L 1656 4863 
L 1656 0 
L 538 0 
L 538 4863 
z
" transform="scale(0.015625)"/>
      <path id="DejaVuSans-Bold-20" transform="scale(0.015625)"/>
      <path id="DejaVuSans-Bold-69" d="M 538 3500 
L 1656 3500 
L 1656 0 
L 538 0 
L 538 3500 
z
M 538 4863 
L 1656 4863 
L 1656 3950 
L 538 3950 
L 538 4863 
z
" transform="scale(0.015625)"/>
      <path id="DejaVuSans-Bold-6e" d="M 4056 2131 
L 4056 0 
L 2931 0 
L 2931 347 
L 2931 1631 
Q 2931 2084 2911 2256 
Q 2891 2428 2841 2509 
Q 2775 2619 2662 2680 
Q 2550 2741 2406 2741 
Q 2056 2741 1856 2470 
Q 1656 2200 1656 1722 
L 1656 0 
L 538 0 
L 538 3500 
L 1656 3500 
L 1656 2988 
Q 1909 3294 2193 3439 
Q 2478 3584 2822 3584 
Q 3428 3584 3742 3212 
Q 4056 2841 4056 2131 
z
" transform="scale(0.015625)"/>
      <path id="DejaVuSans-Bold-76" d="M 97 3500 
L 1216 3500 
L 2088 1081 
L 2956 3500 
L 4078 3500 
L 2700 0 
L 1472 0 
L 97 3500 
z
" transform="scale(0.015625)"/>
      <path id="DejaVuSans-Bold-65" d="M 4031 1759 
L 4031 1441 
L 1416 1441 
Q 1456 1047 1700 850 
Q 1944 653 2381 653 
Q 2734 653 3104 758 
Q 3475 863 3866 1075 
L 3866 213 
Q 3469 63 3072 -14 
Q 2675 -91 2278 -91 
Q 1328 -91 801 392 
Q 275 875 275 1747 
Q 275 2603 792 3093 
Q 1309 3584 2216 3584 
Q 3041 3584 3536 3087 
Q 4031 2591 4031 1759 
z
M 2881 2131 
Q 2881 2450 2695 2645 
Q 2509 2841 2209 2841 
Q 1884 2841 1681 2658 
Q 1478 2475 1428 2131 
L 2881 2131 
z
" transform="scale(0.015625)"/>
      <path id="DejaVuSans-Bold-72" d="M 3138 2547 
Q 2991 2616 2845 2648 
Q 2700 2681 2553 2681 
Q 2122 2681 1889 2404 
Q 1656 2128 1656 1613 
L 1656 0 
L 538 0 
L 538 3500 
L 1656 3500 
L 1656 2925 
Q 1872 3269 2151 3426 
Q 2431 3584 2822 3584 
Q 2878 3584 2943 3579 
Q 3009 3575 3134 3559 
L 3138 2547 
z
" transform="scale(0.015625)"/>
      <path id="DejaVuSans-Bold-74" d="M 1759 4494 
L 1759 3500 
L 2913 3500 
L 2913 2700 
L 1759 2700 
L 1759 1216 
Q 1759 972 1856 886 
Q 1953 800 2241 800 
L 2816 800 
L 2816 0 
L 1856 0 
Q 1194 0 917 276 
Q 641 553 641 1216 
L 641 2700 
L 84 2700 
L 84 3500 
L 641 3500 
L 641 4494 
L 1759 4494 
z
" transform="scale(0.015625)"/>
      <path id="DejaVuSans-Bold-62" d="M 2400 722 
Q 2759 722 2948 984 
Q 3138 1247 3138 1747 
Q 3138 2247 2948 2509 
Q 2759 2772 2400 2772 
Q 2041 2772 1848 2508 
Q 1656 2244 1656 1747 
Q 1656 1250 1848 986 
Q 2041 722 2400 722 
z
M 1656 2988 
Q 1888 3294 2169 3439 
Q 2450 3584 2816 3584 
Q 3463 3584 3878 3070 
Q 4294 2556 4294 1747 
Q 4294 938 3878 423 
Q 3463 -91 2816 -91 
Q 2450 -91 2169 54 
Q 1888 200 1656 506 
L 1656 0 
L 538 0 
L 538 4863 
L 1656 4863 
L 1656 2988 
z
" transform="scale(0.015625)"/>
      <path id="DejaVuSans-Oblique-69" d="M 1172 4863 
L 1747 4863 
L 1606 4134 
L 1031 4134 
L 1172 4863 
z
M 909 3500 
L 1484 3500 
L 800 0 
L 225 0 
L 909 3500 
z
" transform="scale(0.015625)"/>
      <path id="DejaVuSans-Oblique-6d" d="M 5747 2113 
L 5338 0 
L 4763 0 
L 5166 2094 
Q 5191 2228 5203 2325 
Q 5216 2422 5216 2491 
Q 5216 2772 5059 2928 
Q 4903 3084 4622 3084 
Q 4203 3084 3875 2770 
Q 3547 2456 3450 1953 
L 3066 0 
L 2491 0 
L 2900 2094 
Q 2925 2209 2937 2307 
Q 2950 2406 2950 2484 
Q 2950 2769 2794 2926 
Q 2638 3084 2363 3084 
Q 1938 3084 1609 2770 
Q 1281 2456 1184 1953 
L 800 0 
L 225 0 
L 909 3500 
L 1484 3500 
L 1375 2956 
Q 1609 3263 1923 3423 
Q 2238 3584 2597 3584 
Q 2978 3584 3223 3384 
Q 3469 3184 3519 2828 
Q 3781 3197 4126 3390 
Q 4472 3584 4856 3584 
Q 5306 3584 5551 3325 
Q 5797 3066 5797 2591 
Q 5797 2488 5784 2364 
Q 5772 2241 5747 2113 
z
" transform="scale(0.015625)"/>
      <path id="DejaVuSans-Oblique-65" d="M 3078 2063 
Q 3088 2113 3092 2166 
Q 3097 2219 3097 2272 
Q 3097 2653 2873 2875 
Q 2650 3097 2266 3097 
Q 1838 3097 1509 2826 
Q 1181 2556 1013 2059 
L 3078 2063 
z
M 3578 1613 
L 903 1613 
Q 884 1494 878 1425 
Q 872 1356 872 1306 
Q 872 872 1139 634 
Q 1406 397 1894 397 
Q 2269 397 2603 481 
Q 2938 566 3225 728 
L 3116 159 
Q 2806 34 2476 -28 
Q 2147 -91 1806 -91 
Q 1078 -91 686 257 
Q 294 606 294 1247 
Q 294 1794 489 2264 
Q 684 2734 1063 3103 
Q 1306 3334 1642 3459 
Q 1978 3584 2356 3584 
Q 2950 3584 3301 3228 
Q 3653 2872 3653 2272 
Q 3653 2128 3634 1964 
Q 3616 1800 3578 1613 
z
" transform="scale(0.015625)"/>
      <path id="DejaVuSans-Oblique-73" d="M 3200 3397 
L 3091 2853 
Q 2863 2978 2609 3040 
Q 2356 3103 2088 3103 
Q 1634 3103 1373 2948 
Q 1113 2794 1113 2528 
Q 1113 2219 1719 2053 
Q 1766 2041 1788 2034 
L 1972 1978 
Q 2547 1819 2739 1644 
Q 2931 1469 2931 1166 
Q 2931 609 2489 259 
Q 2047 -91 1331 -91 
Q 1053 -91 747 -37 
Q 441 16 72 128 
L 184 722 
Q 500 559 806 475 
Q 1113 391 1394 391 
Q 1816 391 2080 572 
Q 2344 753 2344 1031 
Q 2344 1331 1650 1516 
L 1591 1531 
L 1394 1581 
Q 956 1697 753 1886 
Q 550 2075 550 2369 
Q 550 2928 970 3256 
Q 1391 3584 2113 3584 
Q 2397 3584 2667 3537 
Q 2938 3491 3200 3397 
z
" transform="scale(0.015625)"/>
     </defs>
     <use xlink:href="#DejaVuSans-Bold-61" transform="translate(0 0.015625)"/>
     <use xlink:href="#DejaVuSans-Bold-6c" transform="translate(67.480469 0.015625)"/>
     <use xlink:href="#DejaVuSans-Bold-6c" transform="translate(101.757812 0.015625)"/>
     <use xlink:href="#DejaVuSans-Bold-20" transform="translate(136.035156 0.015625)"/>
     <use xlink:href="#DejaVuSans-Bold-69" transform="translate(170.849609 0.015625)"/>
     <use xlink:href="#DejaVuSans-Bold-6e" transform="translate(205.126953 0.015625)"/>
     <use xlink:href="#DejaVuSans-Bold-76" transform="translate(276.318359 0.015625)"/>
     <use xlink:href="#DejaVuSans-Bold-65" transform="translate(341.503906 0.015625)"/>
     <use xlink:href="#DejaVuSans-Bold-72" transform="translate(409.326172 0.015625)"/>
     <use xlink:href="#DejaVuSans-Bold-74" transform="translate(458.642578 0.015625)"/>
     <use xlink:href="#DejaVuSans-Bold-69" transform="translate(506.445312 0.015625)"/>
     <use xlink:href="#DejaVuSans-Bold-62" transform="translate(540.722656 0.015625)"/>
     <use xlink:href="#DejaVuSans-Bold-6c" transform="translate(612.304688 0.015625)"/>
     <use xlink:href="#DejaVuSans-Bold-65" transform="translate(646.582031 0.015625)"/>
     <use xlink:href="#DejaVuSans-Bold-20" transform="translate(714.404297 0.015625)"/>
     <use xlink:href="#DejaVuSans-Oblique-6e" transform="translate(749.21875 0.015625)"/>
     <use xlink:href="#DejaVuSans-Oblique-69" transform="translate(812.597656 0.015625)"/>
     <use xlink:href="#DejaVuSans-Oblique-6d" transform="translate(840.380859 0.015625)"/>
     <use xlink:href="#DejaVuSans-Oblique-65" transform="translate(937.792969 0.015625)"/>
     <use xlink:href="#DejaVuSans-Oblique-73" transform="translate(999.316406 0.015625)"/>
     <use xlink:href="#DejaVuSans-Oblique-6e" transform="translate(1051.416016 0.015625)"/>
    </g>
   </g>
   <g id="text_2">
    <!-- $\mathrm{SL}(n,\mathbb{R})$ -->
    <g style="fill: #27ae60" transform="translate(109.8735 129.916419) scale(0.085 -0.085)">
     <defs>
      <path id="DejaVuSans-53" d="M 3425 4513 
L 3425 3897 
Q 3066 4069 2747 4153 
Q 2428 4238 2131 4238 
Q 1616 4238 1336 4038 
Q 1056 3838 1056 3469 
Q 1056 3159 1242 3001 
Q 1428 2844 1947 2747 
L 2328 2669 
Q 3034 2534 3370 2195 
Q 3706 1856 3706 1288 
Q 3706 609 3251 259 
Q 2797 -91 1919 -91 
Q 1588 -91 1214 -16 
Q 841 59 441 206 
L 441 856 
Q 825 641 1194 531 
Q 1563 422 1919 422 
Q 2459 422 2753 634 
Q 3047 847 3047 1241 
Q 3047 1584 2836 1778 
Q 2625 1972 2144 2069 
L 1759 2144 
Q 1053 2284 737 2584 
Q 422 2884 422 3419 
Q 422 4038 858 4394 
Q 1294 4750 2059 4750 
Q 2388 4750 2728 4690 
Q 3069 4631 3425 4513 
z
" transform="scale(0.015625)"/>
     </defs>
     <use xlink:href="#DejaVuSans-53" transform="translate(0 0.125)"/>
     <use xlink:href="#DejaVuSans-4c" transform="translate(63.476562 0.125)"/>
     <use xlink:href="#DejaVuSans-28" transform="translate(119.189453 0.125)"/>
     <use xlink:href="#DejaVuSans-Oblique-6e" transform="translate(158.203125 0.125)"/>
     <use xlink:href="#DejaVuSans-2c" transform="translate(221.582031 0.125)"/>
     <use xlink:href="#STIXGeneral-Italic-211d" transform="translate(272.851562 0.125)"/>
     <use xlink:href="#DejaVuSans-29" transform="translate(341.551544 0.125)"/>
    </g>
    <!-- $\det=1$ -->
    <g style="fill: #27ae60" transform="translate(110.4685 139.434559) scale(0.085 -0.085)">
     <defs>
      <path id="DejaVuSans-64" d="M 2906 2969 
L 2906 4863 
L 3481 4863 
L 3481 0 
L 2906 0 
L 2906 525 
Q 2725 213 2448 61 
Q 2172 -91 1784 -91 
Q 1150 -91 751 415 
Q 353 922 353 1747 
Q 353 2572 751 3078 
Q 1150 3584 1784 3584 
Q 2172 3584 2448 3432 
Q 2725 3281 2906 2969 
z
M 947 1747 
Q 947 1113 1208 752 
Q 1469 391 1925 391 
Q 2381 391 2643 752 
Q 2906 1113 2906 1747 
Q 2906 2381 2643 2742 
Q 2381 3103 1925 3103 
Q 1469 3103 1208 2742 
Q 947 2381 947 1747 
z
" transform="scale(0.015625)"/>
      <path id="DejaVuSans-65" d="M 3597 1894 
L 3597 1613 
L 953 1613 
Q 991 1019 1311 708 
Q 1631 397 2203 397 
Q 2534 397 2845 478 
Q 3156 559 3463 722 
L 3463 178 
Q 3153 47 2828 -22 
Q 2503 -91 2169 -91 
Q 1331 -91 842 396 
Q 353 884 353 1716 
Q 353 2575 817 3079 
Q 1281 3584 2069 3584 
Q 2775 3584 3186 3129 
Q 3597 2675 3597 1894 
z
M 3022 2063 
Q 3016 2534 2758 2815 
Q 2500 3097 2075 3097 
Q 1594 3097 1305 2825 
Q 1016 2553 972 2059 
L 3022 2063 
z
" transform="scale(0.015625)"/>
      <path id="DejaVuSans-74" d="M 1172 4494 
L 1172 3500 
L 2356 3500 
L 2356 3053 
L 1172 3053 
L 1172 1153 
Q 1172 725 1289 603 
Q 1406 481 1766 481 
L 2356 481 
L 2356 0 
L 1766 0 
Q 1100 0 847 248 
Q 594 497 594 1153 
L 594 3053 
L 172 3053 
L 172 3500 
L 594 3500 
L 594 4494 
L 1172 4494 
z
" transform="scale(0.015625)"/>
      <path id="DejaVuSans-3d" d="M 678 2906 
L 4684 2906 
L 4684 2381 
L 678 2381 
L 678 2906 
z
M 678 1631 
L 4684 1631 
L 4684 1100 
L 678 1100 
L 678 1631 
z
" transform="scale(0.015625)"/>
      <path id="DejaVuSans-31" d="M 794 531 
L 1825 531 
L 1825 4091 
L 703 3866 
L 703 4441 
L 1819 4666 
L 2450 4666 
L 2450 531 
L 3481 531 
L 3481 0 
L 794 0 
L 794 531 
z
" transform="scale(0.015625)"/>
     </defs>
     <use xlink:href="#DejaVuSans-64" transform="translate(0 0.015625)"/>
     <use xlink:href="#DejaVuSans-65" transform="translate(63.476562 0.015625)"/>
     <use xlink:href="#DejaVuSans-74" transform="translate(125 0.015625)"/>
     <use xlink:href="#DejaVuSans-3d" transform="translate(199.927083 0.015625)"/>
     <use xlink:href="#DejaVuSans-31" transform="translate(303.198567 0.015625)"/>
    </g>
   </g>
   <g id="text_3">
    <!-- $O(n)$ -->
    <g style="fill: #e8850a" transform="translate(294.9725 129.907786) scale(0.085 -0.085)">
     <defs>
      <path id="DejaVuSans-Oblique-4f" d="M 2919 4238 
Q 2400 4238 2003 3986 
Q 1606 3734 1313 3219 
Q 1125 2891 1026 2522 
Q 928 2153 928 1778 
Q 928 1128 1239 775 
Q 1550 422 2119 422 
Q 2631 422 3032 676 
Q 3434 931 3719 1434 
Q 3909 1772 4009 2142 
Q 4109 2513 4109 2881 
Q 4109 3528 3796 3883 
Q 3484 4238 2919 4238 
z
M 2100 -91 
Q 1241 -91 748 418 
Q 256 928 256 1813 
Q 256 2319 448 2847 
Q 641 3375 978 3788 
Q 1375 4272 1862 4511 
Q 2350 4750 2938 4750 
Q 3794 4750 4287 4245 
Q 4781 3741 4781 2869 
Q 4781 2331 4593 1812 
Q 4406 1294 4056 872 
Q 3656 384 3173 146 
Q 2691 -91 2100 -91 
z
" transform="scale(0.015625)"/>
     </defs>
     <use xlink:href="#DejaVuSans-Oblique-4f" transform="translate(0 0.125)"/>
     <use xlink:href="#DejaVuSans-28" transform="translate(78.710938 0.125)"/>
     <use xlink:href="#DejaVuSans-Oblique-6e" transform="translate(117.724609 0.125)"/>
     <use xlink:href="#DejaVuSans-29" transform="translate(181.103516 0.125)"/>
    </g>
    <!-- $R^	op R=I$ -->
    <g style="fill: #e8850a" transform="translate(285.325 139.425927) scale(0.085 -0.085)">
     <defs>
      <path id="DejaVuSans-Oblique-52" d="M 1613 4147 
L 1294 2491 
L 2106 2491 
Q 2584 2491 2879 2755 
Q 3175 3019 3175 3444 
Q 3175 3784 2976 3965 
Q 2778 4147 2406 4147 
L 1613 4147 
z
M 2772 2241 
Q 2972 2194 3105 2009 
Q 3238 1825 3413 1275 
L 3809 0 
L 3144 0 
L 2778 1197 
Q 2638 1659 2453 1815 
Q 2269 1972 1888 1972 
L 1191 1972 
L 806 0 
L 172 0 
L 1081 4666 
L 2503 4666 
Q 3150 4666 3495 4373 
Q 3841 4081 3841 3531 
Q 3841 3044 3547 2687 
Q 3253 2331 2772 2241 
z
" transform="scale(0.015625)"/>
      <path id="DejaVuSans-20" transform="scale(0.015625)"/>
      <path id="DejaVuSans-Oblique-6f" d="M 1625 -91 
Q 1009 -91 651 289 
Q 294 669 294 1325 
Q 294 1706 417 2101 
Q 541 2497 738 2766 
Q 1047 3184 1428 3384 
Q 1809 3584 2291 3584 
Q 2888 3584 3255 3212 
Q 3622 2841 3622 2241 
Q 3622 1825 3500 1412 
Q 3378 1000 3181 728 
Q 2875 309 2494 109 
Q 2113 -91 1625 -91 
z
M 891 1344 
Q 891 869 1089 633 
Q 1288 397 1691 397 
Q 2269 397 2648 901 
Q 3028 1406 3028 2181 
Q 3028 2634 2825 2865 
Q 2622 3097 2228 3097 
Q 1903 3097 1650 2945 
Q 1397 2794 1197 2484 
Q 1050 2253 970 1956 
Q 891 1659 891 1344 
z
" transform="scale(0.015625)"/>
      <path id="DejaVuSans-Oblique-70" d="M 3175 2156 
Q 3175 2616 2975 2859 
Q 2775 3103 2400 3103 
Q 2144 3103 1911 2972 
Q 1678 2841 1497 2591 
Q 1319 2344 1212 1994 
Q 1106 1644 1106 1300 
Q 1106 863 1306 627 
Q 1506 391 1875 391 
Q 2147 391 2380 519 
Q 2613 647 2778 891 
Q 2956 1147 3065 1494 
Q 3175 1841 3175 2156 
z
M 1394 2969 
Q 1625 3272 1939 3428 
Q 2253 3584 2638 3584 
Q 3175 3584 3472 3232 
Q 3769 2881 3769 2247 
Q 3769 1728 3584 1258 
Q 3400 788 3053 416 
Q 2822 169 2531 39 
Q 2241 -91 1919 -91 
Q 1547 -91 1294 64 
Q 1041 219 916 525 
L 556 -1331 
L -19 -1331 
L 922 3500 
L 1497 3500 
L 1394 2969 
z
" transform="scale(0.015625)"/>
      <path id="DejaVuSans-Oblique-49" d="M 1081 4666 
L 1716 4666 
L 806 0 
L 172 0 
L 1081 4666 
z
" transform="scale(0.015625)"/>
     </defs>
     <use xlink:href="#DejaVuSans-Oblique-52" transform="translate(0 0.09375)"/>
     <use xlink:href="#DejaVuSans-20" transform="translate(76.499193 38.375) scale(0.7)"/>
     <use xlink:href="#DejaVuSans-Oblique-6f" transform="translate(101.484544 0.09375)"/>
     <use xlink:href="#DejaVuSans-Oblique-70" transform="translate(162.666185 0.09375)"/>
     <use xlink:href="#DejaVuSans-Oblique-52" transform="translate(226.142747 0.09375)"/>
     <use xlink:href="#DejaVuSans-3d" transform="translate(315.107591 0.09375)"/>
     <use xlink:href="#DejaVuSans-Oblique-49" transform="translate(418.379076 0.09375)"/>
    </g>
   </g>
   <g id="text_4">
    <!-- $\mathrm{Sp}(2n,\mathbb{R})$ -->
    <g style="fill: #27ae60" transform="translate(463.454 129.899817) scale(0.085 -0.085)">
     <defs>
      <path id="DejaVuSans-70" d="M 1159 525 
L 1159 -1331 
L 581 -1331 
L 581 3500 
L 1159 3500 
L 1159 2969 
Q 1341 3281 1617 3432 
Q 1894 3584 2278 3584 
Q 2916 3584 3314 3078 
Q 3713 2572 3713 1747 
Q 3713 922 3314 415 
Q 2916 -91 2278 -91 
Q 1894 -91 1617 61 
Q 1341 213 1159 525 
z
M 3116 1747 
Q 3116 2381 2855 2742 
Q 2594 3103 2138 3103 
Q 1681 3103 1420 2742 
Q 1159 2381 1159 1747 
Q 1159 1113 1420 752 
Q 1681 391 2138 391 
Q 2594 391 2855 752 
Q 3116 1113 3116 1747 
z
" transform="scale(0.015625)"/>
      <path id="DejaVuSans-32" d="M 1228 531 
L 3431 531 
L 3431 0 
L 469 0 
L 469 531 
Q 828 903 1448 1529 
Q 2069 2156 2228 2338 
Q 2531 2678 2651 2914 
Q 2772 3150 2772 3378 
Q 2772 3750 2511 3984 
Q 2250 4219 1831 4219 
Q 1534 4219 1204 4116 
Q 875 4013 500 3803 
L 500 4441 
Q 881 4594 1212 4672 
Q 1544 4750 1819 4750 
Q 2544 4750 2975 4387 
Q 3406 4025 3406 3419 
Q 3406 3131 3298 2873 
Q 3191 2616 2906 2266 
Q 2828 2175 2409 1742 
Q 1991 1309 1228 531 
z
" transform="scale(0.015625)"/>
     </defs>
     <use xlink:href="#DejaVuSans-53" transform="translate(0 0.125)"/>
     <use xlink:href="#DejaVuSans-70" transform="translate(63.476562 0.125)"/>
     <use xlink:href="#DejaVuSans-28" transform="translate(126.953125 0.125)"/>
     <use xlink:href="#DejaVuSans-32" transform="translate(165.966797 0.125)"/>
     <use xlink:href="#DejaVuSans-Oblique-6e" transform="translate(229.589844 0.125)"/>
     <use xlink:href="#DejaVuSans-2c" transform="translate(292.96875 0.125)"/>
     <use xlink:href="#STIXGeneral-Italic-211d" transform="translate(344.238281 0.125)"/>
     <use xlink:href="#DejaVuSans-29" transform="translate(412.938263 0.125)"/>
    </g>
    <!-- preserves $\omega$ -->
    <g style="fill: #27ae60" transform="translate(453.8915 139.435224) scale(0.085 -0.085)">
     <defs>
      <path id="DejaVuSans-Bold-70" d="M 1656 506 
L 1656 -1331 
L 538 -1331 
L 538 3500 
L 1656 3500 
L 1656 2988 
Q 1888 3294 2169 3439 
Q 2450 3584 2816 3584 
Q 3463 3584 3878 3070 
Q 4294 2556 4294 1747 
Q 4294 938 3878 423 
Q 3463 -91 2816 -91 
Q 2450 -91 2169 54 
Q 1888 200 1656 506 
z
M 2400 2772 
Q 2041 2772 1848 2508 
Q 1656 2244 1656 1747 
Q 1656 1250 1848 986 
Q 2041 722 2400 722 
Q 2759 722 2948 984 
Q 3138 1247 3138 1747 
Q 3138 2247 2948 2509 
Q 2759 2772 2400 2772 
z
" transform="scale(0.015625)"/>
      <path id="DejaVuSans-Bold-73" d="M 3272 3391 
L 3272 2541 
Q 2913 2691 2578 2766 
Q 2244 2841 1947 2841 
Q 1628 2841 1473 2761 
Q 1319 2681 1319 2516 
Q 1319 2381 1436 2309 
Q 1553 2238 1856 2203 
L 2053 2175 
Q 2913 2066 3209 1816 
Q 3506 1566 3506 1031 
Q 3506 472 3093 190 
Q 2681 -91 1863 -91 
Q 1516 -91 1145 -36 
Q 775 19 384 128 
L 384 978 
Q 719 816 1070 734 
Q 1422 653 1784 653 
Q 2113 653 2278 743 
Q 2444 834 2444 1013 
Q 2444 1163 2330 1236 
Q 2216 1309 1875 1350 
L 1678 1375 
Q 931 1469 631 1722 
Q 331 1975 331 2491 
Q 331 3047 712 3315 
Q 1094 3584 1881 3584 
Q 2191 3584 2531 3537 
Q 2872 3491 3272 3391 
z
" transform="scale(0.015625)"/>
      <path id="DejaVuSans-Oblique-3c9" d="M 1369 -91 
Q 72 -91 434 1766 
Q 575 2500 1256 3500 
L 1875 3500 
Q 1231 2500 1088 1750 
Q 819 397 1519 397 
Q 2166 397 2478 2078 
L 3009 2078 
Q 2669 388 3316 397 
Q 4013 403 4275 1750 
Q 4419 2500 4169 3500 
L 4788 3500 
Q 5075 2500 4934 1766 
Q 4578 -94 3278 -91 
Q 2428 -88 2503 844 
Q 2194 -91 1369 -91 
z
" transform="scale(0.015625)"/>
     </defs>
     <use xlink:href="#DejaVuSans-Bold-70"/>
     <use xlink:href="#DejaVuSans-Bold-72" transform="translate(71.582031 0)"/>
     <use xlink:href="#DejaVuSans-Bold-65" transform="translate(120.898438 0)"/>
     <use xlink:href="#DejaVuSans-Bold-73" transform="translate(188.720703 0)"/>
     <use xlink:href="#DejaVuSans-Bold-65" transform="translate(248.242188 0)"/>
     <use xlink:href="#DejaVuSans-Bold-72" transform="translate(316.064453 0)"/>
     <use xlink:href="#DejaVuSans-Bold-76" transform="translate(365.380859 0)"/>
     <use xlink:href="#DejaVuSans-Bold-65" transform="translate(430.566406 0)"/>
     <use xlink:href="#DejaVuSans-Bold-73" transform="translate(498.388672 0)"/>
     <use xlink:href="#DejaVuSans-Bold-20" transform="translate(557.910156 0)"/>
     <use xlink:href="#DejaVuSans-Oblique-3c9" transform="translate(592.724609 0)"/>
    </g>
   </g>
   <g id="text_5">
    <!-- Hamiltonian -->
    <g style="fill: #555555" transform="translate(565.209833 130.200372) scale(0.075 -0.075)">
     <defs>
      <path id="DejaVuSans-Oblique-48" d="M 1081 4666 
L 1716 4666 
L 1344 2753 
L 3634 2753 
L 4006 4666 
L 4641 4666 
L 3731 0 
L 3097 0 
L 3531 2222 
L 1241 2222 
L 806 0 
L 172 0 
L 1081 4666 
z
" transform="scale(0.015625)"/>
      <path id="DejaVuSans-Oblique-61" d="M 3438 1997 
L 3047 0 
L 2472 0 
L 2578 531 
Q 2325 219 2001 64 
Q 1678 -91 1281 -91 
Q 834 -91 548 182 
Q 263 456 263 884 
Q 263 1497 752 1853 
Q 1241 2209 2100 2209 
L 2900 2209 
L 2931 2363 
Q 2938 2388 2941 2417 
Q 2944 2447 2944 2509 
Q 2944 2788 2717 2942 
Q 2491 3097 2081 3097 
Q 1800 3097 1504 3025 
Q 1209 2953 897 2809 
L 997 3341 
Q 1322 3463 1633 3523 
Q 1944 3584 2234 3584 
Q 2853 3584 3176 3315 
Q 3500 3047 3500 2534 
Q 3500 2431 3484 2292 
Q 3469 2153 3438 1997 
z
M 2816 1759 
L 2241 1759 
Q 1534 1759 1195 1570 
Q 856 1381 856 984 
Q 856 709 1029 553 
Q 1203 397 1509 397 
Q 1978 397 2328 733 
Q 2678 1069 2791 1631 
L 2816 1759 
z
" transform="scale(0.015625)"/>
      <path id="DejaVuSans-Oblique-6c" d="M 1172 4863 
L 1747 4863 
L 800 0 
L 225 0 
L 1172 4863 
z
" transform="scale(0.015625)"/>
      <path id="DejaVuSans-Oblique-74" d="M 2706 3500 
L 2619 3053 
L 1472 3053 
L 1100 1153 
Q 1081 1047 1072 975 
Q 1063 903 1063 863 
Q 1063 663 1183 572 
Q 1303 481 1569 481 
L 2150 481 
L 2053 0 
L 1503 0 
Q 991 0 739 200 
Q 488 400 488 806 
Q 488 878 497 964 
Q 506 1050 525 1153 
L 897 3053 
L 409 3053 
L 500 3500 
L 978 3500 
L 1172 4494 
L 1747 4494 
L 1556 3500 
L 2706 3500 
z
" transform="scale(0.015625)"/>
     </defs>
     <use xlink:href="#DejaVuSans-Oblique-48"/>
     <use xlink:href="#DejaVuSans-Oblique-61" x="75.195312"/>
     <use xlink:href="#DejaVuSans-Oblique-6d" x="136.474609"/>
     <use xlink:href="#DejaVuSans-Oblique-69" x="233.886719"/>
     <use xlink:href="#DejaVuSans-Oblique-6c" x="261.669922"/>
     <use xlink:href="#DejaVuSans-Oblique-74" x="289.453125"/>
     <use xlink:href="#DejaVuSans-Oblique-6f" x="328.662109"/>
     <use xlink:href="#DejaVuSans-Oblique-6e" x="389.84375"/>
     <use xlink:href="#DejaVuSans-Oblique-69" x="453.222656"/>
     <use xlink:href="#DejaVuSans-Oblique-61" x="481.005859"/>
     <use xlink:href="#DejaVuSans-Oblique-6e" x="542.285156"/>
    </g>
    <!-- mechanics, PMP -->
    <g style="fill: #555555" transform="translate(565.209833 138.598731) scale(0.075 -0.075)">
     <defs>
      <path id="DejaVuSans-Oblique-63" d="M 3431 3366 
L 3316 2797 
Q 3109 2947 2876 3022 
Q 2644 3097 2394 3097 
Q 2119 3097 1870 3000 
Q 1622 2903 1453 2725 
Q 1184 2453 1037 2087 
Q 891 1722 891 1331 
Q 891 859 1127 628 
Q 1363 397 1844 397 
Q 2081 397 2348 469 
Q 2616 541 2906 684 
L 2797 116 
Q 2547 13 2283 -39 
Q 2019 -91 1741 -91 
Q 1044 -91 669 257 
Q 294 606 294 1253 
Q 294 1797 489 2255 
Q 684 2713 1069 3078 
Q 1331 3328 1684 3456 
Q 2038 3584 2456 3584 
Q 2700 3584 2940 3529 
Q 3181 3475 3431 3366 
z
" transform="scale(0.015625)"/>
      <path id="DejaVuSans-Oblique-68" d="M 3566 2113 
L 3156 0 
L 2578 0 
L 2988 2091 
Q 3016 2238 3031 2350 
Q 3047 2463 3047 2528 
Q 3047 2791 2881 2937 
Q 2716 3084 2419 3084 
Q 1956 3084 1617 2771 
Q 1278 2459 1178 1941 
L 800 0 
L 225 0 
L 1172 4863 
L 1747 4863 
L 1375 2950 
Q 1594 3244 1934 3414 
Q 2275 3584 2650 3584 
Q 3113 3584 3367 3334 
Q 3622 3084 3622 2631 
Q 3622 2519 3608 2391 
Q 3594 2263 3566 2113 
z
" transform="scale(0.015625)"/>
      <path id="DejaVuSans-Oblique-2c" d="M 575 794 
L 1234 794 
L 1131 256 
L 422 -744 
L 19 -744 
L 469 256 
L 575 794 
z
" transform="scale(0.015625)"/>
      <path id="DejaVuSans-Oblique-20" transform="scale(0.015625)"/>
      <path id="DejaVuSans-Oblique-50" d="M 1081 4666 
L 2541 4666 
Q 3178 4666 3512 4369 
Q 3847 4072 3847 3500 
Q 3847 2731 3353 2303 
Q 2859 1875 1966 1875 
L 1172 1875 
L 806 0 
L 172 0 
L 1081 4666 
z
M 1613 4147 
L 1275 2394 
L 2069 2394 
Q 2606 2394 2893 2669 
Q 3181 2944 3181 3456 
Q 3181 3784 2986 3965 
Q 2791 4147 2438 4147 
L 1613 4147 
z
" transform="scale(0.015625)"/>
      <path id="DejaVuSans-Oblique-4d" d="M 1081 4666 
L 2028 4666 
L 2572 1522 
L 4378 4666 
L 5350 4666 
L 4441 0 
L 3828 0 
L 4622 4091 
L 2791 897 
L 2175 897 
L 1581 4103 
L 788 0 
L 172 0 
L 1081 4666 
z
" transform="scale(0.015625)"/>
     </defs>
     <use xlink:href="#DejaVuSans-Oblique-6d"/>
     <use xlink:href="#DejaVuSans-Oblique-65" x="97.412109"/>
     <use xlink:href="#DejaVuSans-Oblique-63" x="158.935547"/>
     <use xlink:href="#DejaVuSans-Oblique-68" x="213.916016"/>
     <use xlink:href="#DejaVuSans-Oblique-61" x="277.294922"/>
     <use xlink:href="#DejaVuSans-Oblique-6e" x="338.574219"/>
     <use xlink:href="#DejaVuSans-Oblique-69" x="401.953125"/>
     <use xlink:href="#DejaVuSans-Oblique-63" x="429.736328"/>
     <use xlink:href="#DejaVuSans-Oblique-73" x="484.716797"/>
     <use xlink:href="#DejaVuSans-Oblique-2c" x="536.816406"/>
     <use xlink:href="#DejaVuSans-Oblique-20" x="568.603516"/>
     <use xlink:href="#DejaVuSans-Oblique-50" x="600.390625"/>
     <use xlink:href="#DejaVuSans-Oblique-4d" x="660.693359"/>
     <use xlink:href="#DejaVuSans-Oblique-50" x="746.972656"/>
    </g>
   </g>
   <g id="text_6">
    <!-- $\mathrm{SO}(n)$ -->
    <g style="fill: #27ae60" transform="translate(292.295 212.946854) scale(0.085 -0.085)">
     <defs>
      <path id="DejaVuSans-4f" d="M 2522 4238 
Q 1834 4238 1429 3725 
Q 1025 3213 1025 2328 
Q 1025 1447 1429 934 
Q 1834 422 2522 422 
Q 3209 422 3611 934 
Q 4013 1447 4013 2328 
Q 4013 3213 3611 3725 
Q 3209 4238 2522 4238 
z
M 2522 4750 
Q 3503 4750 4090 4092 
Q 4678 3434 4678 2328 
Q 4678 1225 4090 567 
Q 3503 -91 2522 -91 
Q 1538 -91 948 565 
Q 359 1222 359 2328 
Q 359 3434 948 4092 
Q 1538 4750 2522 4750 
z
" transform="scale(0.015625)"/>
     </defs>
     <use xlink:href="#DejaVuSans-53" transform="translate(0 0.125)"/>
     <use xlink:href="#DejaVuSans-4f" transform="translate(63.476562 0.125)"/>
     <use xlink:href="#DejaVuSans-28" transform="translate(142.1875 0.125)"/>
     <use xlink:href="#DejaVuSans-Oblique-6e" transform="translate(181.201172 0.125)"/>
     <use xlink:href="#DejaVuSans-29" transform="translate(244.580078 0.125)"/>
    </g>
    <!-- $\det=+1$ (rotations) -->
    <g style="fill: #27ae60" transform="translate(256.2975 222.464994) scale(0.085 -0.085)">
     <defs>
      <path id="DejaVuSans-2b" d="M 2944 4013 
L 2944 2272 
L 4684 2272 
L 4684 1741 
L 2944 1741 
L 2944 0 
L 2419 0 
L 2419 1741 
L 678 1741 
L 678 2272 
L 2419 2272 
L 2419 4013 
L 2944 4013 
z
" transform="scale(0.015625)"/>
      <path id="DejaVuSans-Bold-28" d="M 2413 -844 
L 1484 -844 
Q 1006 -72 778 623 
Q 550 1319 550 2003 
Q 550 2688 779 3389 
Q 1009 4091 1484 4856 
L 2413 4856 
Q 2013 4116 1813 3408 
Q 1613 2700 1613 2009 
Q 1613 1319 1811 609 
Q 2009 -100 2413 -844 
z
" transform="scale(0.015625)"/>
      <path id="DejaVuSans-Bold-6f" d="M 2203 2784 
Q 1831 2784 1636 2517 
Q 1441 2250 1441 1747 
Q 1441 1244 1636 976 
Q 1831 709 2203 709 
Q 2569 709 2762 976 
Q 2956 1244 2956 1747 
Q 2956 2250 2762 2517 
Q 2569 2784 2203 2784 
z
M 2203 3584 
Q 3106 3584 3614 3096 
Q 4122 2609 4122 1747 
Q 4122 884 3614 396 
Q 3106 -91 2203 -91 
Q 1297 -91 786 396 
Q 275 884 275 1747 
Q 275 2609 786 3096 
Q 1297 3584 2203 3584 
z
" transform="scale(0.015625)"/>
      <path id="DejaVuSans-Bold-29" d="M 513 -844 
Q 913 -100 1113 609 
Q 1313 1319 1313 2009 
Q 1313 2700 1113 3408 
Q 913 4116 513 4856 
L 1441 4856 
Q 1916 4091 2145 3389 
Q 2375 2688 2375 2003 
Q 2375 1319 2147 623 
Q 1919 -72 1441 -844 
L 513 -844 
z
" transform="scale(0.015625)"/>
     </defs>
     <use xlink:href="#DejaVuSans-64" transform="translate(0 0.015625)"/>
     <use xlink:href="#DejaVuSans-65" transform="translate(63.476562 0.015625)"/>
     <use xlink:href="#DejaVuSans-74" transform="translate(125 0.015625)"/>
     <use xlink:href="#DejaVuSans-3d" transform="translate(199.927083 0.015625)"/>
     <use xlink:href="#DejaVuSans-2b" transform="translate(322.680989 0.015625)"/>
     <use xlink:href="#DejaVuSans-31" transform="translate(425.952473 0.015625)"/>
     <use xlink:href="#DejaVuSans-Bold-20" transform="translate(489.57552 0.015625)"/>
     <use xlink:href="#DejaVuSans-Bold-28" transform="translate(524.389973 0.015625)"/>
     <use xlink:href="#DejaVuSans-Bold-72" transform="translate(570.093098 0.015625)"/>
     <use xlink:href="#DejaVuSans-Bold-6f" transform="translate(619.409504 0.015625)"/>
     <use xlink:href="#DejaVuSans-Bold-74" transform="translate(688.110676 0.015625)"/>
     <use xlink:href="#DejaVuSans-Bold-61" transform="translate(735.913411 0.015625)"/>
     <use xlink:href="#DejaVuSans-Bold-74" transform="translate(803.393879 0.015625)"/>
     <use xlink:href="#DejaVuSans-Bold-69" transform="translate(851.196614 0.015625)"/>
     <use xlink:href="#DejaVuSans-Bold-6f" transform="translate(885.473958 0.015625)"/>
     <use xlink:href="#DejaVuSans-Bold-6e" transform="translate(954.175129 0.015625)"/>
     <use xlink:href="#DejaVuSans-Bold-73" transform="translate(1025.366536 0.015625)"/>
     <use xlink:href="#DejaVuSans-Bold-29" transform="translate(1084.88802 0.015625)"/>
    </g>
   </g>
   <g id="text_7">
    <!-- portfolio factor -->
    <g style="fill: #555555" transform="translate(386.910833 213.230807) scale(0.075 -0.075)">
     <defs>
      <path id="DejaVuSans-Oblique-72" d="M 2853 2969 
Q 2766 3016 2653 3041 
Q 2541 3066 2413 3066 
Q 1953 3066 1609 2717 
Q 1266 2369 1153 1784 
L 800 0 
L 225 0 
L 909 3500 
L 1484 3500 
L 1375 2956 
Q 1603 3259 1920 3421 
Q 2238 3584 2597 3584 
Q 2691 3584 2781 3573 
Q 2872 3563 2963 3538 
L 2853 2969 
z
" transform="scale(0.015625)"/>
      <path id="DejaVuSans-Oblique-66" d="M 3059 4863 
L 2969 4384 
L 2419 4384 
Q 2106 4384 1964 4261 
Q 1822 4138 1753 3809 
L 1691 3500 
L 2638 3500 
L 2553 3053 
L 1606 3053 
L 1013 0 
L 434 0 
L 1031 3053 
L 481 3053 
L 563 3500 
L 1113 3500 
L 1159 3744 
Q 1278 4363 1576 4613 
Q 1875 4863 2516 4863 
L 3059 4863 
z
" transform="scale(0.015625)"/>
     </defs>
     <use xlink:href="#DejaVuSans-Oblique-70"/>
     <use xlink:href="#DejaVuSans-Oblique-6f" x="63.476562"/>
     <use xlink:href="#DejaVuSans-Oblique-72" x="124.658203"/>
     <use xlink:href="#DejaVuSans-Oblique-74" x="165.771484"/>
     <use xlink:href="#DejaVuSans-Oblique-66" x="204.980469"/>
     <use xlink:href="#DejaVuSans-Oblique-6f" x="240.185547"/>
     <use xlink:href="#DejaVuSans-Oblique-6c" x="301.367188"/>
     <use xlink:href="#DejaVuSans-Oblique-69" x="329.150391"/>
     <use xlink:href="#DejaVuSans-Oblique-6f" x="356.933594"/>
     <use xlink:href="#DejaVuSans-Oblique-20" x="418.115234"/>
     <use xlink:href="#DejaVuSans-Oblique-66" x="449.902344"/>
     <use xlink:href="#DejaVuSans-Oblique-61" x="485.107422"/>
     <use xlink:href="#DejaVuSans-Oblique-63" x="546.386719"/>
     <use xlink:href="#DejaVuSans-Oblique-74" x="601.367188"/>
     <use xlink:href="#DejaVuSans-Oblique-6f" x="640.576172"/>
     <use xlink:href="#DejaVuSans-Oblique-72" x="701.757812"/>
    </g>
    <!-- rotation, PCA -->
    <g style="fill: #555555" transform="translate(386.910833 221.629166) scale(0.075 -0.075)">
     <defs>
      <path id="DejaVuSans-Oblique-43" d="M 4447 4306 
L 4319 3641 
Q 4019 3944 3683 4091 
Q 3347 4238 2956 4238 
Q 2422 4238 2017 3981 
Q 1613 3725 1319 3200 
Q 1131 2863 1032 2486 
Q 934 2109 934 1728 
Q 934 1091 1264 756 
Q 1594 422 2222 422 
Q 2656 422 3056 561 
Q 3456 700 3834 978 
L 3688 231 
Q 3316 72 2936 -9 
Q 2556 -91 2175 -91 
Q 1278 -91 773 396 
Q 269 884 269 1753 
Q 269 2309 461 2846 
Q 653 3384 1013 3828 
Q 1394 4300 1883 4525 
Q 2372 4750 3022 4750 
Q 3422 4750 3780 4639 
Q 4138 4528 4447 4306 
z
" transform="scale(0.015625)"/>
      <path id="DejaVuSans-Oblique-41" d="M 2356 4666 
L 3072 4666 
L 3938 0 
L 3278 0 
L 3084 1197 
L 984 1197 
L 325 0 
L -341 0 
L 2356 4666 
z
M 2584 4044 
L 1275 1722 
L 2988 1722 
L 2584 4044 
z
" transform="scale(0.015625)"/>
     </defs>
     <use xlink:href="#DejaVuSans-Oblique-72"/>
     <use xlink:href="#DejaVuSans-Oblique-6f" x="41.113281"/>
     <use xlink:href="#DejaVuSans-Oblique-74" x="102.294922"/>
     <use xlink:href="#DejaVuSans-Oblique-61" x="141.503906"/>
     <use xlink:href="#DejaVuSans-Oblique-74" x="202.783203"/>
     <use xlink:href="#DejaVuSans-Oblique-69" x="241.992188"/>
     <use xlink:href="#DejaVuSans-Oblique-6f" x="269.775391"/>
     <use xlink:href="#DejaVuSans-Oblique-6e" x="330.957031"/>
     <use xlink:href="#DejaVuSans-Oblique-2c" x="394.335938"/>
     <use xlink:href="#DejaVuSans-Oblique-20" x="426.123047"/>
     <use xlink:href="#DejaVuSans-Oblique-50" x="457.910156"/>
     <use xlink:href="#DejaVuSans-Oblique-43" x="518.212891"/>
     <use xlink:href="#DejaVuSans-Oblique-41" x="588.037109"/>
    </g>
   </g>
   <g id="text_8">
    <!-- $H(n)$ Heisenberg -->
    <g style="fill: #d62728" transform="translate(87.9435 212.863182) scale(0.085 -0.085)">
     <defs>
      <path id="DejaVuSans-Bold-48" d="M 588 4666 
L 1791 4666 
L 1791 2888 
L 3566 2888 
L 3566 4666 
L 4769 4666 
L 4769 0 
L 3566 0 
L 3566 1978 
L 1791 1978 
L 1791 0 
L 588 0 
L 588 4666 
z
" transform="scale(0.015625)"/>
      <path id="DejaVuSans-Bold-67" d="M 2919 594 
Q 2688 288 2409 144 
Q 2131 0 1766 0 
Q 1125 0 706 504 
Q 288 1009 288 1791 
Q 288 2575 706 3076 
Q 1125 3578 1766 3578 
Q 2131 3578 2409 3434 
Q 2688 3291 2919 2981 
L 2919 3500 
L 4044 3500 
L 4044 353 
Q 4044 -491 3511 -936 
Q 2978 -1381 1966 -1381 
Q 1638 -1381 1331 -1331 
Q 1025 -1281 716 -1178 
L 716 -306 
Q 1009 -475 1290 -558 
Q 1572 -641 1856 -641 
Q 2406 -641 2662 -400 
Q 2919 -159 2919 353 
L 2919 594 
z
M 2181 2772 
Q 1834 2772 1640 2515 
Q 1447 2259 1447 1791 
Q 1447 1309 1634 1061 
Q 1822 813 2181 813 
Q 2531 813 2725 1069 
Q 2919 1325 2919 1791 
Q 2919 2259 2725 2515 
Q 2531 2772 2181 2772 
z
" transform="scale(0.015625)"/>
     </defs>
     <use xlink:href="#DejaVuSans-Oblique-48" transform="translate(0 0.015625)"/>
     <use xlink:href="#DejaVuSans-28" transform="translate(75.195312 0.015625)"/>
     <use xlink:href="#DejaVuSans-Oblique-6e" transform="translate(114.208984 0.015625)"/>
     <use xlink:href="#DejaVuSans-29" transform="translate(177.587891 0.015625)"/>
     <use xlink:href="#DejaVuSans-Bold-20" transform="translate(216.601562 0.015625)"/>
     <use xlink:href="#DejaVuSans-Bold-48" transform="translate(251.416016 0.015625)"/>
     <use xlink:href="#DejaVuSans-Bold-65" transform="translate(335.107422 0.015625)"/>
     <use xlink:href="#DejaVuSans-Bold-69" transform="translate(402.929688 0.015625)"/>
     <use xlink:href="#DejaVuSans-Bold-73" transform="translate(437.207031 0.015625)"/>
     <use xlink:href="#DejaVuSans-Bold-65" transform="translate(496.728516 0.015625)"/>
     <use xlink:href="#DejaVuSans-Bold-6e" transform="translate(564.550781 0.015625)"/>
     <use xlink:href="#DejaVuSans-Bold-62" transform="translate(635.742188 0.015625)"/>
     <use xlink:href="#DejaVuSans-Bold-65" transform="translate(707.324219 0.015625)"/>
     <use xlink:href="#DejaVuSans-Bold-72" transform="translate(775.146484 0.015625)"/>
     <use xlink:href="#DejaVuSans-Bold-67" transform="translate(824.462891 0.015625)"/>
    </g>
    <!-- upper triangular -->
    <g style="fill: #d62728" transform="translate(86.532367 222.483588) scale(0.085 -0.085)">
     <defs>
      <path id="DejaVuSans-Bold-75" d="M 500 1363 
L 500 3500 
L 1625 3500 
L 1625 3150 
Q 1625 2866 1622 2436 
Q 1619 2006 1619 1863 
Q 1619 1441 1641 1255 
Q 1663 1069 1716 984 
Q 1784 875 1895 815 
Q 2006 756 2150 756 
Q 2500 756 2700 1025 
Q 2900 1294 2900 1772 
L 2900 3500 
L 4019 3500 
L 4019 0 
L 2900 0 
L 2900 506 
Q 2647 200 2364 54 
Q 2081 -91 1741 -91 
Q 1134 -91 817 281 
Q 500 653 500 1363 
z
" transform="scale(0.015625)"/>
     </defs>
     <use xlink:href="#DejaVuSans-Bold-75"/>
     <use xlink:href="#DejaVuSans-Bold-70" x="71.191406"/>
     <use xlink:href="#DejaVuSans-Bold-70" x="142.773438"/>
     <use xlink:href="#DejaVuSans-Bold-65" x="214.355469"/>
     <use xlink:href="#DejaVuSans-Bold-72" x="282.177734"/>
     <use xlink:href="#DejaVuSans-Bold-20" x="331.494141"/>
     <use xlink:href="#DejaVuSans-Bold-74" x="366.308594"/>
     <use xlink:href="#DejaVuSans-Bold-72" x="414.111328"/>
     <use xlink:href="#DejaVuSans-Bold-69" x="463.427734"/>
     <use xlink:href="#DejaVuSans-Bold-61" x="497.705078"/>
     <use xlink:href="#DejaVuSans-Bold-6e" x="565.185547"/>
     <use xlink:href="#DejaVuSans-Bold-67" x="636.376953"/>
     <use xlink:href="#DejaVuSans-Bold-75" x="707.958984"/>
     <use xlink:href="#DejaVuSans-Bold-6c" x="779.150391"/>
     <use xlink:href="#DejaVuSans-Bold-61" x="813.427734"/>
     <use xlink:href="#DejaVuSans-Bold-72" x="880.908203"/>
    </g>
   </g>
   <g id="text_9">
    <!-- path-signature -->
    <g style="fill: #555555" transform="translate(208.611833 213.230807) scale(0.075 -0.075)">
     <defs>
      <path id="DejaVuSans-Oblique-2d" d="M 391 2009 
L 2075 2009 
L 1978 1497 
L 288 1497 
L 391 2009 
z
" transform="scale(0.015625)"/>
      <path id="DejaVuSans-Oblique-67" d="M 3816 3500 
L 3219 434 
Q 3047 -456 2561 -893 
Q 2075 -1331 1253 -1331 
Q 950 -1331 690 -1286 
Q 431 -1241 206 -1147 
L 313 -588 
Q 525 -725 762 -790 
Q 1000 -856 1269 -856 
Q 1816 -856 2167 -557 
Q 2519 -259 2631 300 
L 2681 563 
Q 2441 288 2122 144 
Q 1803 0 1434 0 
Q 903 0 598 351 
Q 294 703 294 1319 
Q 294 1803 478 2267 
Q 663 2731 997 3091 
Q 1219 3328 1514 3456 
Q 1809 3584 2131 3584 
Q 2484 3584 2746 3420 
Q 3009 3256 3138 2956 
L 3238 3500 
L 3816 3500 
z
M 2950 2216 
Q 2950 2641 2750 2872 
Q 2550 3103 2181 3103 
Q 1953 3103 1747 3012 
Q 1541 2922 1394 2759 
Q 1156 2491 1023 2127 
Q 891 1763 891 1375 
Q 891 944 1092 712 
Q 1294 481 1672 481 
Q 2219 481 2584 976 
Q 2950 1472 2950 2216 
z
" transform="scale(0.015625)"/>
      <path id="DejaVuSans-Oblique-75" d="M 428 1388 
L 838 3500 
L 1416 3500 
L 1006 1409 
Q 975 1256 961 1147 
Q 947 1038 947 966 
Q 947 700 1109 554 
Q 1272 409 1569 409 
Q 2031 409 2368 721 
Q 2706 1034 2809 1563 
L 3194 3500 
L 3769 3500 
L 3091 0 
L 2516 0 
L 2631 550 
Q 2388 244 2052 76 
Q 1716 -91 1338 -91 
Q 878 -91 622 161 
Q 366 413 366 863 
Q 366 956 381 1097 
Q 397 1238 428 1388 
z
" transform="scale(0.015625)"/>
     </defs>
     <use xlink:href="#DejaVuSans-Oblique-70"/>
     <use xlink:href="#DejaVuSans-Oblique-61" x="63.476562"/>
     <use xlink:href="#DejaVuSans-Oblique-74" x="124.755859"/>
     <use xlink:href="#DejaVuSans-Oblique-68" x="163.964844"/>
     <use xlink:href="#DejaVuSans-Oblique-2d" x="227.34375"/>
     <use xlink:href="#DejaVuSans-Oblique-73" x="263.427734"/>
     <use xlink:href="#DejaVuSans-Oblique-69" x="315.527344"/>
     <use xlink:href="#DejaVuSans-Oblique-67" x="343.310547"/>
     <use xlink:href="#DejaVuSans-Oblique-6e" x="406.787109"/>
     <use xlink:href="#DejaVuSans-Oblique-61" x="470.166016"/>
     <use xlink:href="#DejaVuSans-Oblique-74" x="531.445312"/>
     <use xlink:href="#DejaVuSans-Oblique-75" x="570.654297"/>
     <use xlink:href="#DejaVuSans-Oblique-72" x="634.033203"/>
     <use xlink:href="#DejaVuSans-Oblique-65" x="675.146484"/>
    </g>
    <!-- feature maps -->
    <g style="fill: #555555" transform="translate(208.611833 221.629166) scale(0.075 -0.075)">
     <use xlink:href="#DejaVuSans-Oblique-66"/>
     <use xlink:href="#DejaVuSans-Oblique-65" x="35.205078"/>
     <use xlink:href="#DejaVuSans-Oblique-61" x="96.728516"/>
     <use xlink:href="#DejaVuSans-Oblique-74" x="158.007812"/>
     <use xlink:href="#DejaVuSans-Oblique-75" x="197.216797"/>
     <use xlink:href="#DejaVuSans-Oblique-72" x="260.595703"/>
     <use xlink:href="#DejaVuSans-Oblique-65" x="301.708984"/>
     <use xlink:href="#DejaVuSans-Oblique-20" x="363.232422"/>
     <use xlink:href="#DejaVuSans-Oblique-6d" x="395.019531"/>
     <use xlink:href="#DejaVuSans-Oblique-61" x="492.431641"/>
     <use xlink:href="#DejaVuSans-Oblique-70" x="553.710938"/>
     <use xlink:href="#DejaVuSans-Oblique-73" x="617.1875"/>
    </g>
   </g>
   <g id="patch_8">
    <path d="M 302.387104 79.608772 
Q 215.215291 92.411573 129.592113 104.986928 
" style="fill: none; stroke: #888888; stroke-width: 1.4; stroke-linecap: round"/>
    <path d="M 134.265093 106.524215 
L 129.592113 104.986928 
L 133.62573 102.170915 
z
" style="fill: #888888; stroke: #888888; stroke-width: 1.4; stroke-linecap: round"/>
   </g>
   <g id="patch_9">
    <path d="M 304.365 81.316154 
Q 304.365 92.410984 304.365 101.940567 
" style="fill: none; stroke: #888888; stroke-width: 1.4; stroke-linecap: round"/>
    <path d="M 306.565 97.540567 
L 304.365 101.940567 
L 302.165 97.540567 
z
" style="fill: #888888; stroke: #888888; stroke-width: 1.4; stroke-linecap: round"/>
   </g>
   <g id="patch_10">
    <path d="M 306.342896 79.608772 
Q 393.514709 92.411573 479.137887 104.986928 
" style="fill: none; stroke: #888888; stroke-width: 1.4; stroke-linecap: round"/>
    <path d="M 475.10427 102.170915 
L 479.137887 104.986928 
L 474.464907 106.524215 
z
" style="fill: #888888; stroke: #888888; stroke-width: 1.4; stroke-linecap: round"/>
   </g>
   <g id="patch_11">
    <path d="M 304.365 161.152877 
Q 304.365 173.842957 304.365 184.967789 
" style="fill: none; stroke: #888888; stroke-width: 1.4; stroke-linecap: round"/>
    <path d="M 306.565 180.567789 
L 304.365 184.967789 
L 302.165 180.567789 
z
" style="fill: #888888; stroke: #888888; stroke-width: 1.4; stroke-linecap: round"/>
   </g>
   <g id="text_10">
    <!-- Matrix Lie Group Hierarchy — subgroup inclusions and finance applications -->
    <g transform="translate(97.775547 15.558281) scale(0.11 -0.11)">
     <defs>
      <path id="DejaVuSans-4d" d="M 628 4666 
L 1569 4666 
L 2759 1491 
L 3956 4666 
L 4897 4666 
L 4897 0 
L 4281 0 
L 4281 4097 
L 3078 897 
L 2444 897 
L 1241 4097 
L 1241 0 
L 628 0 
L 628 4666 
z
" transform="scale(0.015625)"/>
      <path id="DejaVuSans-61" d="M 2194 1759 
Q 1497 1759 1228 1600 
Q 959 1441 959 1056 
Q 959 750 1161 570 
Q 1363 391 1709 391 
Q 2188 391 2477 730 
Q 2766 1069 2766 1631 
L 2766 1759 
L 2194 1759 
z
M 3341 1997 
L 3341 0 
L 2766 0 
L 2766 531 
Q 2569 213 2275 61 
Q 1981 -91 1556 -91 
Q 1019 -91 701 211 
Q 384 513 384 1019 
Q 384 1609 779 1909 
Q 1175 2209 1959 2209 
L 2766 2209 
L 2766 2266 
Q 2766 2663 2505 2880 
Q 2244 3097 1772 3097 
Q 1472 3097 1187 3025 
Q 903 2953 641 2809 
L 641 3341 
Q 956 3463 1253 3523 
Q 1550 3584 1831 3584 
Q 2591 3584 2966 3190 
Q 3341 2797 3341 1997 
z
" transform="scale(0.015625)"/>
      <path id="DejaVuSans-72" d="M 2631 2963 
Q 2534 3019 2420 3045 
Q 2306 3072 2169 3072 
Q 1681 3072 1420 2755 
Q 1159 2438 1159 1844 
L 1159 0 
L 581 0 
L 581 3500 
L 1159 3500 
L 1159 2956 
Q 1341 3275 1631 3429 
Q 1922 3584 2338 3584 
Q 2397 3584 2469 3576 
Q 2541 3569 2628 3553 
L 2631 2963 
z
" transform="scale(0.015625)"/>
      <path id="DejaVuSans-69" d="M 603 3500 
L 1178 3500 
L 1178 0 
L 603 0 
L 603 3500 
z
M 603 4863 
L 1178 4863 
L 1178 4134 
L 603 4134 
L 603 4863 
z
" transform="scale(0.015625)"/>
      <path id="DejaVuSans-78" d="M 3513 3500 
L 2247 1797 
L 3578 0 
L 2900 0 
L 1881 1375 
L 863 0 
L 184 0 
L 1544 1831 
L 300 3500 
L 978 3500 
L 1906 2253 
L 2834 3500 
L 3513 3500 
z
" transform="scale(0.015625)"/>
      <path id="DejaVuSans-6f" d="M 1959 3097 
Q 1497 3097 1228 2736 
Q 959 2375 959 1747 
Q 959 1119 1226 758 
Q 1494 397 1959 397 
Q 2419 397 2687 759 
Q 2956 1122 2956 1747 
Q 2956 2369 2687 2733 
Q 2419 3097 1959 3097 
z
M 1959 3584 
Q 2709 3584 3137 3096 
Q 3566 2609 3566 1747 
Q 3566 888 3137 398 
Q 2709 -91 1959 -91 
Q 1206 -91 779 398 
Q 353 888 353 1747 
Q 353 2609 779 3096 
Q 1206 3584 1959 3584 
z
" transform="scale(0.015625)"/>
      <path id="DejaVuSans-75" d="M 544 1381 
L 544 3500 
L 1119 3500 
L 1119 1403 
Q 1119 906 1312 657 
Q 1506 409 1894 409 
Q 2359 409 2629 706 
Q 2900 1003 2900 1516 
L 2900 3500 
L 3475 3500 
L 3475 0 
L 2900 0 
L 2900 538 
Q 2691 219 2414 64 
Q 2138 -91 1772 -91 
Q 1169 -91 856 284 
Q 544 659 544 1381 
z
M 1991 3584 
L 1991 3584 
z
" transform="scale(0.015625)"/>
      <path id="DejaVuSans-48" d="M 628 4666 
L 1259 4666 
L 1259 2753 
L 3553 2753 
L 3553 4666 
L 4184 4666 
L 4184 0 
L 3553 0 
L 3553 2222 
L 1259 2222 
L 1259 0 
L 628 0 
L 628 4666 
z
" transform="scale(0.015625)"/>
      <path id="DejaVuSans-63" d="M 3122 3366 
L 3122 2828 
Q 2878 2963 2633 3030 
Q 2388 3097 2138 3097 
Q 1578 3097 1268 2742 
Q 959 2388 959 1747 
Q 959 1106 1268 751 
Q 1578 397 2138 397 
Q 2388 397 2633 464 
Q 2878 531 3122 666 
L 3122 134 
Q 2881 22 2623 -34 
Q 2366 -91 2075 -91 
Q 1284 -91 818 406 
Q 353 903 353 1747 
Q 353 2603 823 3093 
Q 1294 3584 2113 3584 
Q 2378 3584 2631 3529 
Q 2884 3475 3122 3366 
z
" transform="scale(0.015625)"/>
      <path id="DejaVuSans-68" d="M 3513 2113 
L 3513 0 
L 2938 0 
L 2938 2094 
Q 2938 2591 2744 2837 
Q 2550 3084 2163 3084 
Q 1697 3084 1428 2787 
Q 1159 2491 1159 1978 
L 1159 0 
L 581 0 
L 581 4863 
L 1159 4863 
L 1159 2956 
Q 1366 3272 1645 3428 
Q 1925 3584 2291 3584 
Q 2894 3584 3203 3211 
Q 3513 2838 3513 2113 
z
" transform="scale(0.015625)"/>
      <path id="DejaVuSans-79" d="M 2059 -325 
Q 1816 -950 1584 -1140 
Q 1353 -1331 966 -1331 
L 506 -1331 
L 506 -850 
L 844 -850 
Q 1081 -850 1212 -737 
Q 1344 -625 1503 -206 
L 1606 56 
L 191 3500 
L 800 3500 
L 1894 763 
L 2988 3500 
L 3597 3500 
L 2059 -325 
z
" transform="scale(0.015625)"/>
      <path id="DejaVuSans-2014" d="M 313 1978 
L 6088 1978 
L 6088 1528 
L 313 1528 
L 313 1978 
z
" transform="scale(0.015625)"/>
      <path id="DejaVuSans-73" d="M 2834 3397 
L 2834 2853 
Q 2591 2978 2328 3040 
Q 2066 3103 1784 3103 
Q 1356 3103 1142 2972 
Q 928 2841 928 2578 
Q 928 2378 1081 2264 
Q 1234 2150 1697 2047 
L 1894 2003 
Q 2506 1872 2764 1633 
Q 3022 1394 3022 966 
Q 3022 478 2636 193 
Q 2250 -91 1575 -91 
Q 1294 -91 989 -36 
Q 684 19 347 128 
L 347 722 
Q 666 556 975 473 
Q 1284 391 1588 391 
Q 1994 391 2212 530 
Q 2431 669 2431 922 
Q 2431 1156 2273 1281 
Q 2116 1406 1581 1522 
L 1381 1569 
Q 847 1681 609 1914 
Q 372 2147 372 2553 
Q 372 3047 722 3315 
Q 1072 3584 1716 3584 
Q 2034 3584 2315 3537 
Q 2597 3491 2834 3397 
z
" transform="scale(0.015625)"/>
      <path id="DejaVuSans-62" d="M 3116 1747 
Q 3116 2381 2855 2742 
Q 2594 3103 2138 3103 
Q 1681 3103 1420 2742 
Q 1159 2381 1159 1747 
Q 1159 1113 1420 752 
Q 1681 391 2138 391 
Q 2594 391 2855 752 
Q 3116 1113 3116 1747 
z
M 1159 2969 
Q 1341 3281 1617 3432 
Q 1894 3584 2278 3584 
Q 2916 3584 3314 3078 
Q 3713 2572 3713 1747 
Q 3713 922 3314 415 
Q 2916 -91 2278 -91 
Q 1894 -91 1617 61 
Q 1341 213 1159 525 
L 1159 0 
L 581 0 
L 581 4863 
L 1159 4863 
L 1159 2969 
z
" transform="scale(0.015625)"/>
      <path id="DejaVuSans-67" d="M 2906 1791 
Q 2906 2416 2648 2759 
Q 2391 3103 1925 3103 
Q 1463 3103 1205 2759 
Q 947 2416 947 1791 
Q 947 1169 1205 825 
Q 1463 481 1925 481 
Q 2391 481 2648 825 
Q 2906 1169 2906 1791 
z
M 3481 434 
Q 3481 -459 3084 -895 
Q 2688 -1331 1869 -1331 
Q 1566 -1331 1297 -1286 
Q 1028 -1241 775 -1147 
L 775 -588 
Q 1028 -725 1275 -790 
Q 1522 -856 1778 -856 
Q 2344 -856 2625 -561 
Q 2906 -266 2906 331 
L 2906 616 
Q 2728 306 2450 153 
Q 2172 0 1784 0 
Q 1141 0 747 490 
Q 353 981 353 1791 
Q 353 2603 747 3093 
Q 1141 3584 1784 3584 
Q 2172 3584 2450 3431 
Q 2728 3278 2906 2969 
L 2906 3500 
L 3481 3500 
L 3481 434 
z
" transform="scale(0.015625)"/>
      <path id="DejaVuSans-6e" d="M 3513 2113 
L 3513 0 
L 2938 0 
L 2938 2094 
Q 2938 2591 2744 2837 
Q 2550 3084 2163 3084 
Q 1697 3084 1428 2787 
Q 1159 2491 1159 1978 
L 1159 0 
L 581 0 
L 581 3500 
L 1159 3500 
L 1159 2956 
Q 1366 3272 1645 3428 
Q 1925 3584 2291 3584 
Q 2894 3584 3203 3211 
Q 3513 2838 3513 2113 
z
" transform="scale(0.015625)"/>
      <path id="DejaVuSans-6c" d="M 603 4863 
L 1178 4863 
L 1178 0 
L 603 0 
L 603 4863 
z
" transform="scale(0.015625)"/>
      <path id="DejaVuSans-66" d="M 2375 4863 
L 2375 4384 
L 1825 4384 
Q 1516 4384 1395 4259 
Q 1275 4134 1275 3809 
L 1275 3500 
L 2222 3500 
L 2222 3053 
L 1275 3053 
L 1275 0 
L 697 0 
L 697 3053 
L 147 3053 
L 147 3500 
L 697 3500 
L 697 3744 
Q 697 4328 969 4595 
Q 1241 4863 1831 4863 
L 2375 4863 
z
" transform="scale(0.015625)"/>
     </defs>
     <use xlink:href="#DejaVuSans-4d"/>
     <use xlink:href="#DejaVuSans-61" x="86.279297"/>
     <use xlink:href="#DejaVuSans-74" x="147.558594"/>
     <use xlink:href="#DejaVuSans-72" x="186.767578"/>
     <use xlink:href="#DejaVuSans-69" x="227.880859"/>
     <use xlink:href="#DejaVuSans-78" x="255.664062"/>
     <use xlink:href="#DejaVuSans-20" x="314.84375"/>
     <use xlink:href="#DejaVuSans-4c" x="346.630859"/>
     <use xlink:href="#DejaVuSans-69" x="402.34375"/>
     <use xlink:href="#DejaVuSans-65" x="430.126953"/>
     <use xlink:href="#DejaVuSans-20" x="491.650391"/>
     <use xlink:href="#DejaVuSans-47" x="523.4375"/>
     <use xlink:href="#DejaVuSans-72" x="600.927734"/>
     <use xlink:href="#DejaVuSans-6f" x="639.791016"/>
     <use xlink:href="#DejaVuSans-75" x="700.972656"/>
     <use xlink:href="#DejaVuSans-70" x="764.351562"/>
     <use xlink:href="#DejaVuSans-20" x="827.828125"/>
     <use xlink:href="#DejaVuSans-48" x="859.615234"/>
     <use xlink:href="#DejaVuSans-69" x="934.810547"/>
     <use xlink:href="#DejaVuSans-65" x="962.59375"/>
     <use xlink:href="#DejaVuSans-72" x="1024.117188"/>
     <use xlink:href="#DejaVuSans-61" x="1065.230469"/>
     <use xlink:href="#DejaVuSans-72" x="1126.509766"/>
     <use xlink:href="#DejaVuSans-63" x="1165.373047"/>
     <use xlink:href="#DejaVuSans-68" x="1220.353516"/>
     <use xlink:href="#DejaVuSans-79" x="1283.732422"/>
     <use xlink:href="#DejaVuSans-20" x="1342.912109"/>
     <use xlink:href="#DejaVuSans-2014" x="1374.699219"/>
     <use xlink:href="#DejaVuSans-20" x="1474.699219"/>
     <use xlink:href="#DejaVuSans-73" x="1506.486328"/>
     <use xlink:href="#DejaVuSans-75" x="1558.585938"/>
     <use xlink:href="#DejaVuSans-62" x="1621.964844"/>
     <use xlink:href="#DejaVuSans-67" x="1685.441406"/>
     <use xlink:href="#DejaVuSans-72" x="1748.917969"/>
     <use xlink:href="#DejaVuSans-6f" x="1787.78125"/>
     <use xlink:href="#DejaVuSans-75" x="1848.962891"/>
     <use xlink:href="#DejaVuSans-70" x="1912.341797"/>
     <use xlink:href="#DejaVuSans-20" x="1975.818359"/>
     <use xlink:href="#DejaVuSans-69" x="2007.605469"/>
     <use xlink:href="#DejaVuSans-6e" x="2035.388672"/>
     <use xlink:href="#DejaVuSans-63" x="2098.767578"/>
     <use xlink:href="#DejaVuSans-6c" x="2153.748047"/>
     <use xlink:href="#DejaVuSans-75" x="2181.53125"/>
     <use xlink:href="#DejaVuSans-73" x="2244.910156"/>
     <use xlink:href="#DejaVuSans-69" x="2297.009766"/>
     <use xlink:href="#DejaVuSans-6f" x="2324.792969"/>
     <use xlink:href="#DejaVuSans-6e" x="2385.974609"/>
     <use xlink:href="#DejaVuSans-73" x="2449.353516"/>
     <use xlink:href="#DejaVuSans-20" x="2501.453125"/>
     <use xlink:href="#DejaVuSans-61" x="2533.240234"/>
     <use xlink:href="#DejaVuSans-6e" x="2594.519531"/>
     <use xlink:href="#DejaVuSans-64" x="2657.898438"/>
     <use xlink:href="#DejaVuSans-20" x="2721.375"/>
     <use xlink:href="#DejaVuSans-66" x="2753.162109"/>
     <use xlink:href="#DejaVuSans-69" x="2788.367188"/>
     <use xlink:href="#DejaVuSans-6e" x="2816.150391"/>
     <use xlink:href="#DejaVuSans-61" x="2879.529297"/>
     <use xlink:href="#DejaVuSans-6e" x="2940.808594"/>
     <use xlink:href="#DejaVuSans-63" x="3004.1875"/>
     <use xlink:href="#DejaVuSans-65" x="3059.167969"/>
     <use xlink:href="#DejaVuSans-20" x="3120.691406"/>
     <use xlink:href="#DejaVuSans-61" x="3152.478516"/>
     <use xlink:href="#DejaVuSans-70" x="3213.757812"/>
     <use xlink:href="#DejaVuSans-70" x="3277.234375"/>
     <use xlink:href="#DejaVuSans-6c" x="3340.710938"/>
     <use xlink:href="#DejaVuSans-69" x="3368.494141"/>
     <use xlink:href="#DejaVuSans-63" x="3396.277344"/>
     <use xlink:href="#DejaVuSans-61" x="3451.257812"/>
     <use xlink:href="#DejaVuSans-74" x="3512.537109"/>
     <use xlink:href="#DejaVuSans-69" x="3551.746094"/>
     <use xlink:href="#DejaVuSans-6f" x="3579.529297"/>
     <use xlink:href="#DejaVuSans-6e" x="3640.710938"/>
     <use xlink:href="#DejaVuSans-73" x="3704.089844"/>
    </g>
   </g>
  </g>
 </g>
 <defs>
  <clipPath id="p984f3fff23">
   <rect x="7.2" y="20.558281" width="594.33" height="293.8"/>
  </clipPath>
 </defs>
</svg>
