<?xml version="1.0" encoding="utf-8" standalone="no"?>
<!DOCTYPE svg PUBLIC "-//W3C//DTD SVG 1.1//EN"
  "http://www.w3.org/Graphics/SVG/1.1/DTD/svg11.dtd">
<svg xmlns:xlink="http://www.w3.org/1999/xlink" width="390.885pt" height="272.46825pt" viewBox="0 0 390.885 272.46825" xmlns="http://www.w3.org/2000/svg" version="1.1">
 <metadata>
  <rdf:RDF xmlns:dc="http://purl.org/dc/elements/1.1/" xmlns:cc="http://creativecommons.org/ns#" xmlns:rdf="http://www.w3.org/1999/02/22-rdf-syntax-ns#">
   <cc:Work>
    <dc:type rdf:resource="http://purl.org/dc/dcmitype/StillImage"/>
    <dc:date>2026-03-07T13:33:16.256090</dc:date>
    <dc:format>image/svg+xml</dc:format>
    <dc:creator>
     <cc:Agent>
      <dc:title>Matplotlib v3.8.4, https://matplotlib.org/</dc:title>
     </cc:Agent>
    </dc:creator>
   </cc:Work>
  </rdf:RDF>
 </metadata>
 <defs>
  <style type="text/css">*{stroke-linejoin: round; stroke-linecap: butt}</style>
 </defs>
 <g id="figure_1">
  <g id="patch_1">
   <path d="M 0 272.46825 
L 390.885 272.46825 
L 390.885 0 
L 0 0 
z
" style="fill: #ffffff"/>
  </g>
  <g id="axes_1">
   <g id="patch_2">
    <path d="M 48.885 234.912 
L 383.685 234.912 
L 383.685 24.24 
L 48.885 24.24 
z
" style="fill: #ffffff"/>
   </g>
   <g id="patch_3">
    <path d="M 104.376762 234.912 
L 111.090303 234.912 
L 111.090303 221.536 
L 104.376762 221.536 
z
" clip-path="url(#pbd94ce1168)" style="fill: #2e6be5; opacity: 0.5"/>
   </g>
   <g id="patch_4">
    <path d="M 111.090303 234.912 
L 117.803845 234.912 
L 117.803845 225.994667 
L 111.090303 225.994667 
z
" clip-path="url(#pbd94ce1168)" style="fill: #2e6be5; opacity: 0.5"/>
   </g>
   <g id="patch_5">
    <path d="M 117.803845 234.912 
L 124.517386 234.912 
L 124.517386 230.453333 
L 117.803845 230.453333 
z
" clip-path="url(#pbd94ce1168)" style="fill: #2e6be5; opacity: 0.5"/>
   </g>
   <g id="patch_6">
    <path d="M 124.517386 234.912 
L 131.230928 234.912 
L 131.230928 217.077333 
L 124.517386 217.077333 
z
" clip-path="url(#pbd94ce1168)" style="fill: #2e6be5; opacity: 0.5"/>
   </g>
   <g id="patch_7">
    <path d="M 131.230928 234.912 
L 137.944469 234.912 
L 137.944469 230.453333 
L 131.230928 230.453333 
z
" clip-path="url(#pbd94ce1168)" style="fill: #2e6be5; opacity: 0.5"/>
   </g>
   <g id="patch_8">
    <path d="M 137.944469 234.912 
L 144.658011 234.912 
L 144.658011 212.618667 
L 137.944469 212.618667 
z
" clip-path="url(#pbd94ce1168)" style="fill: #2e6be5; opacity: 0.5"/>
   </g>
   <g id="patch_9">
    <path d="M 144.658011 234.912 
L 151.371552 234.912 
L 151.371552 176.949333 
L 144.658011 176.949333 
z
" clip-path="url(#pbd94ce1168)" style="fill: #2e6be5; opacity: 0.5"/>
   </g>
   <g id="patch_10">
    <path d="M 151.371552 234.912 
L 158.085094 234.912 
L 158.085094 172.490667 
L 151.371552 172.490667 
z
" clip-path="url(#pbd94ce1168)" style="fill: #2e6be5; opacity: 0.5"/>
   </g>
   <g id="patch_11">
    <path d="M 158.085094 234.912 
L 164.798635 234.912 
L 164.798635 172.490667 
L 158.085094 172.490667 
z
" clip-path="url(#pbd94ce1168)" style="fill: #2e6be5; opacity: 0.5"/>
   </g>
   <g id="patch_12">
    <path d="M 164.798635 234.912 
L 171.512177 234.912 
L 171.512177 181.408 
L 164.798635 181.408 
z
" clip-path="url(#pbd94ce1168)" style="fill: #2e6be5; opacity: 0.5"/>
   </g>
   <g id="patch_13">
    <path d="M 171.512177 234.912 
L 178.225718 234.912 
L 178.225718 127.904 
L 171.512177 127.904 
z
" clip-path="url(#pbd94ce1168)" style="fill: #2e6be5; opacity: 0.5"/>
   </g>
   <g id="patch_14">
    <path d="M 178.225718 234.912 
L 184.93926 234.912 
L 184.93926 56.565333 
L 178.225718 56.565333 
z
" clip-path="url(#pbd94ce1168)" style="fill: #2e6be5; opacity: 0.5"/>
   </g>
   <g id="patch_15">
    <path d="M 184.93926 234.912 
L 191.652801 234.912 
L 191.652801 118.986667 
L 184.93926 118.986667 
z
" clip-path="url(#pbd94ce1168)" style="fill: #2e6be5; opacity: 0.5"/>
   </g>
   <g id="patch_16">
    <path d="M 191.652801 234.912 
L 198.366343 234.912 
L 198.366343 69.941333 
L 191.652801 69.941333 
z
" clip-path="url(#pbd94ce1168)" style="fill: #2e6be5; opacity: 0.5"/>
   </g>
   <g id="patch_17">
    <path d="M 198.366343 234.912 
L 205.079885 234.912 
L 205.079885 92.234667 
L 198.366343 92.234667 
z
" clip-path="url(#pbd94ce1168)" style="fill: #2e6be5; opacity: 0.5"/>
   </g>
   <g id="patch_18">
    <path d="M 205.079885 234.912 
L 211.793426 234.912 
L 211.793426 83.317333 
L 205.079885 83.317333 
z
" clip-path="url(#pbd94ce1168)" style="fill: #2e6be5; opacity: 0.5"/>
   </g>
   <g id="patch_19">
    <path d="M 211.793426 234.912 
L 218.506968 234.912 
L 218.506968 52.106667 
L 211.793426 52.106667 
z
" clip-path="url(#pbd94ce1168)" style="fill: #2e6be5; opacity: 0.5"/>
   </g>
   <g id="patch_20">
    <path d="M 218.506968 234.912 
L 225.220509 234.912 
L 225.220509 34.272 
L 218.506968 34.272 
z
" clip-path="url(#pbd94ce1168)" style="fill: #2e6be5; opacity: 0.5"/>
   </g>
   <g id="patch_21">
    <path d="M 225.220509 234.912 
L 231.934051 234.912 
L 231.934051 83.317333 
L 225.220509 83.317333 
z
" clip-path="url(#pbd94ce1168)" style="fill: #2e6be5; opacity: 0.5"/>
   </g>
   <g id="patch_22">
    <path d="M 231.934051 234.912 
L 238.647592 234.912 
L 238.647592 52.106667 
L 231.934051 52.106667 
z
" clip-path="url(#pbd94ce1168)" style="fill: #2e6be5; opacity: 0.5"/>
   </g>
   <g id="patch_23">
    <path d="M 238.647592 234.912 
L 245.361134 234.912 
L 245.361134 96.693333 
L 238.647592 96.693333 
z
" clip-path="url(#pbd94ce1168)" style="fill: #2e6be5; opacity: 0.5"/>
   </g>
   <g id="patch_24">
    <path d="M 245.361134 234.912 
L 252.074675 234.912 
L 252.074675 74.4 
L 245.361134 74.4 
z
" clip-path="url(#pbd94ce1168)" style="fill: #2e6be5; opacity: 0.5"/>
   </g>
   <g id="patch_25">
    <path d="M 252.074675 234.912 
L 258.788217 234.912 
L 258.788217 114.528 
L 252.074675 114.528 
z
" clip-path="url(#pbd94ce1168)" style="fill: #2e6be5; opacity: 0.5"/>
   </g>
   <g id="patch_26">
    <path d="M 258.788217 234.912 
L 265.501758 234.912 
L 265.501758 136.821333 
L 258.788217 136.821333 
z
" clip-path="url(#pbd94ce1168)" style="fill: #2e6be5; opacity: 0.5"/>
   </g>
   <g id="patch_27">
    <path d="M 265.501758 234.912 
L 272.2153 234.912 
L 272.2153 159.114667 
L 265.501758 159.114667 
z
" clip-path="url(#pbd94ce1168)" style="fill: #2e6be5; opacity: 0.5"/>
   </g>
   <g id="patch_28">
    <path d="M 272.2153 234.912 
L 278.928841 234.912 
L 278.928841 172.490667 
L 272.2153 172.490667 
z
" clip-path="url(#pbd94ce1168)" style="fill: #2e6be5; opacity: 0.5"/>
   </g>
   <g id="patch_29">
    <path d="M 278.928841 234.912 
L 285.642383 234.912 
L 285.642383 208.16 
L 278.928841 208.16 
z
" clip-path="url(#pbd94ce1168)" style="fill: #2e6be5; opacity: 0.5"/>
   </g>
   <g id="patch_30">
    <path d="M 285.642383 234.912 
L 292.355924 234.912 
L 292.355924 181.408 
L 285.642383 181.408 
z
" clip-path="url(#pbd94ce1168)" style="fill: #2e6be5; opacity: 0.5"/>
   </g>
   <g id="patch_31">
    <path d="M 292.355924 234.912 
L 299.069466 234.912 
L 299.069466 217.077333 
L 292.355924 217.077333 
z
" clip-path="url(#pbd94ce1168)" style="fill: #2e6be5; opacity: 0.5"/>
   </g>
   <g id="patch_32">
    <path d="M 299.069466 234.912 
L 305.783008 234.912 
L 305.783008 221.536 
L 299.069466 221.536 
z
" clip-path="url(#pbd94ce1168)" style="fill: #2e6be5; opacity: 0.5"/>
   </g>
   <g id="patch_33">
    <path d="M 305.783008 234.912 
L 312.496549 234.912 
L 312.496549 225.994667 
L 305.783008 225.994667 
z
" clip-path="url(#pbd94ce1168)" style="fill: #2e6be5; opacity: 0.5"/>
   </g>
   <g id="patch_34">
    <path d="M 312.496549 234.912 
L 319.210091 234.912 
L 319.210091 221.536 
L 312.496549 221.536 
z
" clip-path="url(#pbd94ce1168)" style="fill: #2e6be5; opacity: 0.5"/>
   </g>
   <g id="matplotlib.axis_1">
    <g id="xtick_1">
     <g id="line2d_1">
      <defs>
       <path id="mc554dbe4fa" d="M 0 0 
L 0 3.5 
" style="stroke: #000000; stroke-width: 0.8"/>
      </defs>
      <g>
       <use xlink:href="#mc554dbe4fa" x="64.103182" y="234.912" style="stroke: #000000; stroke-width: 0.8"/>
      </g>
     </g>
     <g id="text_1">
      <!-- −4 -->
      <g transform="translate(57.469197 248.750594) scale(0.09 -0.09)">
       <defs>
        <path id="DejaVuSans-2212" d="M 678 2272 
L 4684 2272 
L 4684 1741 
L 678 1741 
L 678 2272 
z
" transform="scale(0.015625)"/>
        <path id="DejaVuSans-34" d="M 2419 4116 
L 825 1625 
L 2419 1625 
L 2419 4116 
z
M 2253 4666 
L 3047 4666 
L 3047 1625 
L 3713 1625 
L 3713 1100 
L 3047 1100 
L 3047 0 
L 2419 0 
L 2419 1100 
L 313 1100 
L 313 1709 
L 2253 4666 
z
" transform="scale(0.015625)"/>
       </defs>
       <use xlink:href="#DejaVuSans-2212"/>
       <use xlink:href="#DejaVuSans-34" x="83.789062"/>
      </g>
     </g>
    </g>
    <g id="xtick_2">
     <g id="line2d_2">
      <g>
       <use xlink:href="#mc554dbe4fa" x="102.148636" y="234.912" style="stroke: #000000; stroke-width: 0.8"/>
      </g>
     </g>
     <g id="text_2">
      <!-- −3 -->
      <g transform="translate(95.514652 248.750594) scale(0.09 -0.09)">
       <defs>
        <path id="DejaVuSans-33" d="M 2597 2516 
Q 3050 2419 3304 2112 
Q 3559 1806 3559 1356 
Q 3559 666 3084 287 
Q 2609 -91 1734 -91 
Q 1441 -91 1130 -33 
Q 819 25 488 141 
L 488 750 
Q 750 597 1062 519 
Q 1375 441 1716 441 
Q 2309 441 2620 675 
Q 2931 909 2931 1356 
Q 2931 1769 2642 2001 
Q 2353 2234 1838 2234 
L 1294 2234 
L 1294 2753 
L 1863 2753 
Q 2328 2753 2575 2939 
Q 2822 3125 2822 3475 
Q 2822 3834 2567 4026 
Q 2313 4219 1838 4219 
Q 1578 4219 1281 4162 
Q 984 4106 628 3988 
L 628 4550 
Q 988 4650 1302 4700 
Q 1616 4750 1894 4750 
Q 2613 4750 3031 4423 
Q 3450 4097 3450 3541 
Q 3450 3153 3228 2886 
Q 3006 2619 2597 2516 
z
" transform="scale(0.015625)"/>
       </defs>
       <use xlink:href="#DejaVuSans-2212"/>
       <use xlink:href="#DejaVuSans-33" x="83.789062"/>
      </g>
     </g>
    </g>
    <g id="xtick_3">
     <g id="line2d_3">
      <g>
       <use xlink:href="#mc554dbe4fa" x="140.194091" y="234.912" style="stroke: #000000; stroke-width: 0.8"/>
      </g>
     </g>
     <g id="text_3">
      <!-- −2 -->
      <g transform="translate(133.560107 248.750594) scale(0.09 -0.09)">
       <defs>
        <path id="DejaVuSans-32" d="M 1228 531 
L 3431 531 
L 3431 0 
L 469 0 
L 469 531 
Q 828 903 1448 1529 
Q 2069 2156 2228 2338 
Q 2531 2678 2651 2914 
Q 2772 3150 2772 3378 
Q 2772 3750 2511 3984 
Q 2250 4219 1831 4219 
Q 1534 4219 1204 4116 
Q 875 4013 500 3803 
L 500 4441 
Q 881 4594 1212 4672 
Q 1544 4750 1819 4750 
Q 2544 4750 2975 4387 
Q 3406 4025 3406 3419 
Q 3406 3131 3298 2873 
Q 3191 2616 2906 2266 
Q 2828 2175 2409 1742 
Q 1991 1309 1228 531 
z
" transform="scale(0.015625)"/>
       </defs>
       <use xlink:href="#DejaVuSans-2212"/>
       <use xlink:href="#DejaVuSans-32" x="83.789062"/>
      </g>
     </g>
    </g>
    <g id="xtick_4">
     <g id="line2d_4">
      <g>
       <use xlink:href="#mc554dbe4fa" x="178.239545" y="234.912" style="stroke: #000000; stroke-width: 0.8"/>
      </g>
     </g>
     <g id="text_4">
      <!-- −1 -->
      <g transform="translate(171.605561 248.750594) scale(0.09 -0.09)">
       <defs>
        <path id="DejaVuSans-31" d="M 794 531 
L 1825 531 
L 1825 4091 
L 703 3866 
L 703 4441 
L 1819 4666 
L 2450 4666 
L 2450 531 
L 3481 531 
L 3481 0 
L 794 0 
L 794 531 
z
" transform="scale(0.015625)"/>
       </defs>
       <use xlink:href="#DejaVuSans-2212"/>
       <use xlink:href="#DejaVuSans-31" x="83.789062"/>
      </g>
     </g>
    </g>
    <g id="xtick_5">
     <g id="line2d_5">
      <g>
       <use xlink:href="#mc554dbe4fa" x="216.285" y="234.912" style="stroke: #000000; stroke-width: 0.8"/>
      </g>
     </g>
     <g id="text_5">
      <!-- 0 -->
      <g transform="translate(213.421875 248.750594) scale(0.09 -0.09)">
       <defs>
        <path id="DejaVuSans-30" d="M 2034 4250 
Q 1547 4250 1301 3770 
Q 1056 3291 1056 2328 
Q 1056 1369 1301 889 
Q 1547 409 2034 409 
Q 2525 409 2770 889 
Q 3016 1369 3016 2328 
Q 3016 3291 2770 3770 
Q 2525 4250 2034 4250 
z
M 2034 4750 
Q 2819 4750 3233 4129 
Q 3647 3509 3647 2328 
Q 3647 1150 3233 529 
Q 2819 -91 2034 -91 
Q 1250 -91 836 529 
Q 422 1150 422 2328 
Q 422 3509 836 4129 
Q 1250 4750 2034 4750 
z
" transform="scale(0.015625)"/>
       </defs>
       <use xlink:href="#DejaVuSans-30"/>
      </g>
     </g>
    </g>
    <g id="xtick_6">
     <g id="line2d_6">
      <g>
       <use xlink:href="#mc554dbe4fa" x="254.330455" y="234.912" style="stroke: #000000; stroke-width: 0.8"/>
      </g>
     </g>
     <g id="text_6">
      <!-- 1 -->
      <g transform="translate(251.46733 248.750594) scale(0.09 -0.09)">
       <use xlink:href="#DejaVuSans-31"/>
      </g>
     </g>
    </g>
    <g id="xtick_7">
     <g id="line2d_7">
      <g>
       <use xlink:href="#mc554dbe4fa" x="292.375909" y="234.912" style="stroke: #000000; stroke-width: 0.8"/>
      </g>
     </g>
     <g id="text_7">
      <!-- 2 -->
      <g transform="translate(289.512784 248.750594) scale(0.09 -0.09)">
       <use xlink:href="#DejaVuSans-32"/>
      </g>
     </g>
    </g>
    <g id="xtick_8">
     <g id="line2d_8">
      <g>
       <use xlink:href="#mc554dbe4fa" x="330.421364" y="234.912" style="stroke: #000000; stroke-width: 0.8"/>
      </g>
     </g>
     <g id="text_8">
      <!-- 3 -->
      <g transform="translate(327.558239 248.750594) scale(0.09 -0.09)">
       <use xlink:href="#DejaVuSans-33"/>
      </g>
     </g>
    </g>
    <g id="xtick_9">
     <g id="line2d_9">
      <g>
       <use xlink:href="#mc554dbe4fa" x="368.466818" y="234.912" style="stroke: #000000; stroke-width: 0.8"/>
      </g>
     </g>
     <g id="text_9">
      <!-- 4 -->
      <g transform="translate(365.603693 248.750594) scale(0.09 -0.09)">
       <use xlink:href="#DejaVuSans-34"/>
      </g>
     </g>
    </g>
    <g id="text_10">
     <!-- $r_i$ -->
     <g transform="translate(212.765 262.980594) scale(0.11 -0.11)">
      <defs>
       <path id="DejaVuSans-Oblique-72" d="M 2853 2969 
Q 2766 3016 2653 3041 
Q 2541 3066 2413 3066 
Q 1953 3066 1609 2717 
Q 1266 2369 1153 1784 
L 800 0 
L 225 0 
L 909 3500 
L 1484 3500 
L 1375 2956 
Q 1603 3259 1920 3421 
Q 2238 3584 2597 3584 
Q 2691 3584 2781 3573 
Q 2872 3563 2963 3538 
L 2853 2969 
z
" transform="scale(0.015625)"/>
       <path id="DejaVuSans-Oblique-69" d="M 1172 4863 
L 1747 4863 
L 1606 4134 
L 1031 4134 
L 1172 4863 
z
M 909 3500 
L 1484 3500 
L 800 0 
L 225 0 
L 909 3500 
z
" transform="scale(0.015625)"/>
      </defs>
      <use xlink:href="#DejaVuSans-Oblique-72"/>
      <use xlink:href="#DejaVuSans-Oblique-69" transform="translate(41.113281 -16.40625) scale(0.7)"/>
     </g>
    </g>
   </g>
   <g id="matplotlib.axis_2">
    <g id="ytick_1">
     <g id="line2d_10">
      <defs>
       <path id="m91a5fc3038" d="M 0 0 
L -3.5 0 
" style="stroke: #000000; stroke-width: 0.8"/>
      </defs>
      <g>
       <use xlink:href="#m91a5fc3038" x="48.885" y="234.912" style="stroke: #000000; stroke-width: 0.8"/>
      </g>
     </g>
     <g id="text_11">
      <!-- 0.00 -->
      <g transform="translate(21.845938 238.331297) scale(0.09 -0.09)">
       <defs>
        <path id="DejaVuSans-2e" d="M 684 794 
L 1344 794 
L 1344 0 
L 684 0 
L 684 794 
z
" transform="scale(0.015625)"/>
       </defs>
       <use xlink:href="#DejaVuSans-30"/>
       <use xlink:href="#DejaVuSans-2e" x="63.623047"/>
       <use xlink:href="#DejaVuSans-30" x="95.410156"/>
       <use xlink:href="#DejaVuSans-30" x="159.033203"/>
      </g>
     </g>
    </g>
    <g id="ytick_2">
     <g id="line2d_11">
      <g>
       <use xlink:href="#m91a5fc3038" x="48.885" y="211.308568" style="stroke: #000000; stroke-width: 0.8"/>
      </g>
     </g>
     <g id="text_12">
      <!-- 0.05 -->
      <g transform="translate(21.845938 214.727864) scale(0.09 -0.09)">
       <defs>
        <path id="DejaVuSans-35" d="M 691 4666 
L 3169 4666 
L 3169 4134 
L 1269 4134 
L 1269 2991 
Q 1406 3038 1543 3061 
Q 1681 3084 1819 3084 
Q 2600 3084 3056 2656 
Q 3513 2228 3513 1497 
Q 3513 744 3044 326 
Q 2575 -91 1722 -91 
Q 1428 -91 1123 -41 
Q 819 9 494 109 
L 494 744 
Q 775 591 1075 516 
Q 1375 441 1709 441 
Q 2250 441 2565 725 
Q 2881 1009 2881 1497 
Q 2881 1984 2565 2268 
Q 2250 2553 1709 2553 
Q 1456 2553 1204 2497 
Q 953 2441 691 2322 
L 691 4666 
z
" transform="scale(0.015625)"/>
       </defs>
       <use xlink:href="#DejaVuSans-30"/>
       <use xlink:href="#DejaVuSans-2e" x="63.623047"/>
       <use xlink:href="#DejaVuSans-30" x="95.410156"/>
       <use xlink:href="#DejaVuSans-35" x="159.033203"/>
      </g>
     </g>
    </g>
    <g id="ytick_3">
     <g id="line2d_12">
      <g>
       <use xlink:href="#m91a5fc3038" x="48.885" y="187.705135" style="stroke: #000000; stroke-width: 0.8"/>
      </g>
     </g>
     <g id="text_13">
      <!-- 0.10 -->
      <g transform="translate(21.845938 191.124432) scale(0.09 -0.09)">
       <use xlink:href="#DejaVuSans-30"/>
       <use xlink:href="#DejaVuSans-2e" x="63.623047"/>
       <use xlink:href="#DejaVuSans-31" x="95.410156"/>
       <use xlink:href="#DejaVuSans-30" x="159.033203"/>
      </g>
     </g>
    </g>
    <g id="ytick_4">
     <g id="line2d_13">
      <g>
       <use xlink:href="#m91a5fc3038" x="48.885" y="164.101703" style="stroke: #000000; stroke-width: 0.8"/>
      </g>
     </g>
     <g id="text_14">
      <!-- 0.15 -->
      <g transform="translate(21.845938 167.521) scale(0.09 -0.09)">
       <use xlink:href="#DejaVuSans-30"/>
       <use xlink:href="#DejaVuSans-2e" x="63.623047"/>
       <use xlink:href="#DejaVuSans-31" x="95.410156"/>
       <use xlink:href="#DejaVuSans-35" x="159.033203"/>
      </g>
     </g>
    </g>
    <g id="ytick_5">
     <g id="line2d_14">
      <g>
       <use xlink:href="#m91a5fc3038" x="48.885" y="140.49827" style="stroke: #000000; stroke-width: 0.8"/>
      </g>
     </g>
     <g id="text_15">
      <!-- 0.20 -->
      <g transform="translate(21.845938 143.917567) scale(0.09 -0.09)">
       <use xlink:href="#DejaVuSans-30"/>
       <use xlink:href="#DejaVuSans-2e" x="63.623047"/>
       <use xlink:href="#DejaVuSans-32" x="95.410156"/>
       <use xlink:href="#DejaVuSans-30" x="159.033203"/>
      </g>
     </g>
    </g>
    <g id="ytick_6">
     <g id="line2d_15">
      <g>
       <use xlink:href="#m91a5fc3038" x="48.885" y="116.894838" style="stroke: #000000; stroke-width: 0.8"/>
      </g>
     </g>
     <g id="text_16">
      <!-- 0.25 -->
      <g transform="translate(21.845938 120.314135) scale(0.09 -0.09)">
       <use xlink:href="#DejaVuSans-30"/>
       <use xlink:href="#DejaVuSans-2e" x="63.623047"/>
       <use xlink:href="#DejaVuSans-32" x="95.410156"/>
       <use xlink:href="#DejaVuSans-35" x="159.033203"/>
      </g>
     </g>
    </g>
    <g id="ytick_7">
     <g id="line2d_16">
      <g>
       <use xlink:href="#m91a5fc3038" x="48.885" y="93.291405" style="stroke: #000000; stroke-width: 0.8"/>
      </g>
     </g>
     <g id="text_17">
      <!-- 0.30 -->
      <g transform="translate(21.845938 96.710702) scale(0.09 -0.09)">
       <use xlink:href="#DejaVuSans-30"/>
       <use xlink:href="#DejaVuSans-2e" x="63.623047"/>
       <use xlink:href="#DejaVuSans-33" x="95.410156"/>
       <use xlink:href="#DejaVuSans-30" x="159.033203"/>
      </g>
     </g>
    </g>
    <g id="ytick_8">
     <g id="line2d_17">
      <g>
       <use xlink:href="#m91a5fc3038" x="48.885" y="69.687973" style="stroke: #000000; stroke-width: 0.8"/>
      </g>
     </g>
     <g id="text_18">
      <!-- 0.35 -->
      <g transform="translate(21.845938 73.10727) scale(0.09 -0.09)">
       <use xlink:href="#DejaVuSans-30"/>
       <use xlink:href="#DejaVuSans-2e" x="63.623047"/>
       <use xlink:href="#DejaVuSans-33" x="95.410156"/>
       <use xlink:href="#DejaVuSans-35" x="159.033203"/>
      </g>
     </g>
    </g>
    <g id="ytick_9">
     <g id="line2d_18">
      <g>
       <use xlink:href="#m91a5fc3038" x="48.885" y="46.084541" style="stroke: #000000; stroke-width: 0.8"/>
      </g>
     </g>
     <g id="text_19">
      <!-- 0.40 -->
      <g transform="translate(21.845938 49.503837) scale(0.09 -0.09)">
       <use xlink:href="#DejaVuSans-30"/>
       <use xlink:href="#DejaVuSans-2e" x="63.623047"/>
       <use xlink:href="#DejaVuSans-34" x="95.410156"/>
       <use xlink:href="#DejaVuSans-30" x="159.033203"/>
      </g>
     </g>
    </g>
    <g id="text_20">
     <!-- Density -->
     <g transform="translate(15.558281 150.485453) rotate(-90) scale(0.11 -0.11)">
      <defs>
       <path id="DejaVuSans-44" d="M 1259 4147 
L 1259 519 
L 2022 519 
Q 2988 519 3436 956 
Q 3884 1394 3884 2338 
Q 3884 3275 3436 3711 
Q 2988 4147 2022 4147 
L 1259 4147 
z
M 628 4666 
L 1925 4666 
Q 3281 4666 3915 4102 
Q 4550 3538 4550 2338 
Q 4550 1131 3912 565 
Q 3275 0 1925 0 
L 628 0 
L 628 4666 
z
" transform="scale(0.015625)"/>
       <path id="DejaVuSans-65" d="M 3597 1894 
L 3597 1613 
L 953 1613 
Q 991 1019 1311 708 
Q 1631 397 2203 397 
Q 2534 397 2845 478 
Q 3156 559 3463 722 
L 3463 178 
Q 3153 47 2828 -22 
Q 2503 -91 2169 -91 
Q 1331 -91 842 396 
Q 353 884 353 1716 
Q 353 2575 817 3079 
Q 1281 3584 2069 3584 
Q 2775 3584 3186 3129 
Q 3597 2675 3597 1894 
z
M 3022 2063 
Q 3016 2534 2758 2815 
Q 2500 3097 2075 3097 
Q 1594 3097 1305 2825 
Q 1016 2553 972 2059 
L 3022 2063 
z
" transform="scale(0.015625)"/>
       <path id="DejaVuSans-6e" d="M 3513 2113 
L 3513 0 
L 2938 0 
L 2938 2094 
Q 2938 2591 2744 2837 
Q 2550 3084 2163 3084 
Q 1697 3084 1428 2787 
Q 1159 2491 1159 1978 
L 1159 0 
L 581 0 
L 581 3500 
L 1159 3500 
L 1159 2956 
Q 1366 3272 1645 3428 
Q 1925 3584 2291 3584 
Q 2894 3584 3203 3211 
Q 3513 2838 3513 2113 
z
" transform="scale(0.015625)"/>
       <path id="DejaVuSans-73" d="M 2834 3397 
L 2834 2853 
Q 2591 2978 2328 3040 
Q 2066 3103 1784 3103 
Q 1356 3103 1142 2972 
Q 928 2841 928 2578 
Q 928 2378 1081 2264 
Q 1234 2150 1697 2047 
L 1894 2003 
Q 2506 1872 2764 1633 
Q 3022 1394 3022 966 
Q 3022 478 2636 193 
Q 2250 -91 1575 -91 
Q 1294 -91 989 -36 
Q 684 19 347 128 
L 347 722 
Q 666 556 975 473 
Q 1284 391 1588 391 
Q 1994 391 2212 530 
Q 2431 669 2431 922 
Q 2431 1156 2273 1281 
Q 2116 1406 1581 1522 
L 1381 1569 
Q 847 1681 609 1914 
Q 372 2147 372 2553 
Q 372 3047 722 3315 
Q 1072 3584 1716 3584 
Q 2034 3584 2315 3537 
Q 2597 3491 2834 3397 
z
" transform="scale(0.015625)"/>
       <path id="DejaVuSans-69" d="M 603 3500 
L 1178 3500 
L 1178 0 
L 603 0 
L 603 3500 
z
M 603 4863 
L 1178 4863 
L 1178 4134 
L 603 4134 
L 603 4863 
z
" transform="scale(0.015625)"/>
       <path id="DejaVuSans-74" d="M 1172 4494 
L 1172 3500 
L 2356 3500 
L 2356 3053 
L 1172 3053 
L 1172 1153 
Q 1172 725 1289 603 
Q 1406 481 1766 481 
L 2356 481 
L 2356 0 
L 1766 0 
Q 1100 0 847 248 
Q 594 497 594 1153 
L 594 3053 
L 172 3053 
L 172 3500 
L 594 3500 
L 594 4494 
L 1172 4494 
z
" transform="scale(0.015625)"/>
       <path id="DejaVuSans-79" d="M 2059 -325 
Q 1816 -950 1584 -1140 
Q 1353 -1331 966 -1331 
L 506 -1331 
L 506 -850 
L 844 -850 
Q 1081 -850 1212 -737 
Q 1344 -625 1503 -206 
L 1606 56 
L 191 3500 
L 800 3500 
L 1894 763 
L 2988 3500 
L 3597 3500 
L 2059 -325 
z
" transform="scale(0.015625)"/>
      </defs>
      <use xlink:href="#DejaVuSans-44"/>
      <use xlink:href="#DejaVuSans-65" x="77.001953"/>
      <use xlink:href="#DejaVuSans-6e" x="138.525391"/>
      <use xlink:href="#DejaVuSans-73" x="201.904297"/>
      <use xlink:href="#DejaVuSans-69" x="254.003906"/>
      <use xlink:href="#DejaVuSans-74" x="281.787109"/>
      <use xlink:href="#DejaVuSans-79" x="320.996094"/>
     </g>
    </g>
   </g>
   <g id="line2d_19">
    <path d="M 64.103182 234.848823 
L 78.354322 234.648484 
L 87.515769 234.299144 
L 93.623401 233.870316 
L 98.713094 233.32284 
L 103.802787 232.530631 
L 107.874541 231.662941 
L 111.946295 230.529578 
L 115.000111 229.468012 
L 118.053927 228.192731 
L 121.107742 226.671971 
L 124.161558 224.871915 
L 127.215374 222.757197 
L 130.26919 220.291564 
L 133.323005 217.438712 
L 136.376821 214.163302 
L 139.430637 210.432139 
L 142.484453 206.2155 
L 145.538268 201.488586 
L 148.592084 196.233058 
L 151.6459 190.438609 
L 154.699716 184.104502 
L 157.753531 177.24103 
L 160.807347 169.870792 
L 164.879102 159.319662 
L 168.950856 148.057456 
L 174.040549 133.24249 
L 187.27375 94.09645 
L 191.345505 82.995094 
L 194.39932 75.302673 
L 197.453136 68.297683 
L 199.489013 64.070315 
L 201.524891 60.236589 
L 203.560768 56.827511 
L 205.596645 53.871052 
L 207.632522 51.391776 
L 209.668399 49.410492 
L 211.704276 47.943969 
L 212.722215 47.407819 
L 213.740154 47.004697 
L 214.758092 46.735468 
L 215.776031 46.600709 
L 216.793969 46.600709 
L 217.811908 46.735468 
L 218.829846 47.004697 
L 219.847785 47.407819 
L 220.865724 47.943969 
L 222.901601 49.410492 
L 224.937478 51.391776 
L 226.973355 53.871052 
L 229.009232 56.827511 
L 231.045109 60.236589 
L 233.080987 64.070315 
L 235.116864 68.297683 
L 238.17068 75.302673 
L 241.224495 82.995094 
L 244.278311 91.245391 
L 248.350065 102.882937 
L 255.475635 124.122441 
L 262.601206 145.149698 
L 266.67296 156.564919 
L 270.744714 167.307245 
L 273.79853 174.839099 
L 276.852346 181.874645 
L 279.906161 188.386933 
L 282.959977 194.361703 
L 286.013793 199.796167 
L 289.067609 204.697613 
L 292.121424 209.081875 
L 295.17524 212.971773 
L 298.229056 216.395555 
L 301.282872 219.385413 
L 304.336687 221.976111 
L 307.390503 224.203751 
L 310.444319 226.104705 
L 313.498135 227.714719 
L 316.55195 229.068187 
L 319.605766 230.197604 
L 322.659582 231.133167 
L 326.731336 232.126431 
L 330.803091 232.882001 
L 335.892784 233.566983 
L 342.000415 234.110421 
L 349.125985 234.487815 
L 358.287432 234.734249 
L 368.466818 234.848823 
L 368.466818 234.848823 
" clip-path="url(#pbd94ce1168)" style="fill: none; stroke: #e8850a; stroke-width: 2.2; stroke-linecap: square"/>
   </g>
   <g id="patch_35">
    <path d="M 48.885 234.912 
L 48.885 24.24 
" style="fill: none; stroke: #000000; stroke-width: 0.8; stroke-linejoin: miter; stroke-linecap: square"/>
   </g>
   <g id="patch_36">
    <path d="M 48.885 234.912 
L 383.685 234.912 
" style="fill: none; stroke: #000000; stroke-width: 0.8; stroke-linejoin: miter; stroke-linecap: square"/>
   </g>
   <g id="text_21">
    <!-- OU residual diagnostic:  $r_i = (X_{t_i} - \hat\mu_i)/\hat\sigma$ -->
    <g transform="translate(101.625 18.24) scale(0.12 -0.12)">
     <defs>
      <path id="DejaVuSans-4f" d="M 2522 4238 
Q 1834 4238 1429 3725 
Q 1025 3213 1025 2328 
Q 1025 1447 1429 934 
Q 1834 422 2522 422 
Q 3209 422 3611 934 
Q 4013 1447 4013 2328 
Q 4013 3213 3611 3725 
Q 3209 4238 2522 4238 
z
M 2522 4750 
Q 3503 4750 4090 4092 
Q 4678 3434 4678 2328 
Q 4678 1225 4090 567 
Q 3503 -91 2522 -91 
Q 1538 -91 948 565 
Q 359 1222 359 2328 
Q 359 3434 948 4092 
Q 1538 4750 2522 4750 
z
" transform="scale(0.015625)"/>
      <path id="DejaVuSans-55" d="M 556 4666 
L 1191 4666 
L 1191 1831 
Q 1191 1081 1462 751 
Q 1734 422 2344 422 
Q 2950 422 3222 751 
Q 3494 1081 3494 1831 
L 3494 4666 
L 4128 4666 
L 4128 1753 
Q 4128 841 3676 375 
Q 3225 -91 2344 -91 
Q 1459 -91 1007 375 
Q 556 841 556 1753 
L 556 4666 
z
" transform="scale(0.015625)"/>
      <path id="DejaVuSans-20" transform="scale(0.015625)"/>
      <path id="DejaVuSans-72" d="M 2631 2963 
Q 2534 3019 2420 3045 
Q 2306 3072 2169 3072 
Q 1681 3072 1420 2755 
Q 1159 2438 1159 1844 
L 1159 0 
L 581 0 
L 581 3500 
L 1159 3500 
L 1159 2956 
Q 1341 3275 1631 3429 
Q 1922 3584 2338 3584 
Q 2397 3584 2469 3576 
Q 2541 3569 2628 3553 
L 2631 2963 
z
" transform="scale(0.015625)"/>
      <path id="DejaVuSans-64" d="M 2906 2969 
L 2906 4863 
L 3481 4863 
L 3481 0 
L 2906 0 
L 2906 525 
Q 2725 213 2448 61 
Q 2172 -91 1784 -91 
Q 1150 -91 751 415 
Q 353 922 353 1747 
Q 353 2572 751 3078 
Q 1150 3584 1784 3584 
Q 2172 3584 2448 3432 
Q 2725 3281 2906 2969 
z
M 947 1747 
Q 947 1113 1208 752 
Q 1469 391 1925 391 
Q 2381 391 2643 752 
Q 2906 1113 2906 1747 
Q 2906 2381 2643 2742 
Q 2381 3103 1925 3103 
Q 1469 3103 1208 2742 
Q 947 2381 947 1747 
z
" transform="scale(0.015625)"/>
      <path id="DejaVuSans-75" d="M 544 1381 
L 544 3500 
L 1119 3500 
L 1119 1403 
Q 1119 906 1312 657 
Q 1506 409 1894 409 
Q 2359 409 2629 706 
Q 2900 1003 2900 1516 
L 2900 3500 
L 3475 3500 
L 3475 0 
L 2900 0 
L 2900 538 
Q 2691 219 2414 64 
Q 2138 -91 1772 -91 
Q 1169 -91 856 284 
Q 544 659 544 1381 
z
M 1991 3584 
L 1991 3584 
z
" transform="scale(0.015625)"/>
      <path id="DejaVuSans-61" d="M 2194 1759 
Q 1497 1759 1228 1600 
Q 959 1441 959 1056 
Q 959 750 1161 570 
Q 1363 391 1709 391 
Q 2188 391 2477 730 
Q 2766 1069 2766 1631 
L 2766 1759 
L 2194 1759 
z
M 3341 1997 
L 3341 0 
L 2766 0 
L 2766 531 
Q 2569 213 2275 61 
Q 1981 -91 1556 -91 
Q 1019 -91 701 211 
Q 384 513 384 1019 
Q 384 1609 779 1909 
Q 1175 2209 1959 2209 
L 2766 2209 
L 2766 2266 
Q 2766 2663 2505 2880 
Q 2244 3097 1772 3097 
Q 1472 3097 1187 3025 
Q 903 2953 641 2809 
L 641 3341 
Q 956 3463 1253 3523 
Q 1550 3584 1831 3584 
Q 2591 3584 2966 3190 
Q 3341 2797 3341 1997 
z
" transform="scale(0.015625)"/>
      <path id="DejaVuSans-6c" d="M 603 4863 
L 1178 4863 
L 1178 0 
L 603 0 
L 603 4863 
z
" transform="scale(0.015625)"/>
      <path id="DejaVuSans-67" d="M 2906 1791 
Q 2906 2416 2648 2759 
Q 2391 3103 1925 3103 
Q 1463 3103 1205 2759 
Q 947 2416 947 1791 
Q 947 1169 1205 825 
Q 1463 481 1925 481 
Q 2391 481 2648 825 
Q 2906 1169 2906 1791 
z
M 3481 434 
Q 3481 -459 3084 -895 
Q 2688 -1331 1869 -1331 
Q 1566 -1331 1297 -1286 
Q 1028 -1241 775 -1147 
L 775 -588 
Q 1028 -725 1275 -790 
Q 1522 -856 1778 -856 
Q 2344 -856 2625 -561 
Q 2906 -266 2906 331 
L 2906 616 
Q 2728 306 2450 153 
Q 2172 0 1784 0 
Q 1141 0 747 490 
Q 353 981 353 1791 
Q 353 2603 747 3093 
Q 1141 3584 1784 3584 
Q 2172 3584 2450 3431 
Q 2728 3278 2906 2969 
L 2906 3500 
L 3481 3500 
L 3481 434 
z
" transform="scale(0.015625)"/>
      <path id="DejaVuSans-6f" d="M 1959 3097 
Q 1497 3097 1228 2736 
Q 959 2375 959 1747 
Q 959 1119 1226 758 
Q 1494 397 1959 397 
Q 2419 397 2687 759 
Q 2956 1122 2956 1747 
Q 2956 2369 2687 2733 
Q 2419 3097 1959 3097 
z
M 1959 3584 
Q 2709 3584 3137 3096 
Q 3566 2609 3566 1747 
Q 3566 888 3137 398 
Q 2709 -91 1959 -91 
Q 1206 -91 779 398 
Q 353 888 353 1747 
Q 353 2609 779 3096 
Q 1206 3584 1959 3584 
z
" transform="scale(0.015625)"/>
      <path id="DejaVuSans-63" d="M 3122 3366 
L 3122 2828 
Q 2878 2963 2633 3030 
Q 2388 3097 2138 3097 
Q 1578 3097 1268 2742 
Q 959 2388 959 1747 
Q 959 1106 1268 751 
Q 1578 397 2138 397 
Q 2388 397 2633 464 
Q 2878 531 3122 666 
L 3122 134 
Q 2881 22 2623 -34 
Q 2366 -91 2075 -91 
Q 1284 -91 818 406 
Q 353 903 353 1747 
Q 353 2603 823 3093 
Q 1294 3584 2113 3584 
Q 2378 3584 2631 3529 
Q 2884 3475 3122 3366 
z
" transform="scale(0.015625)"/>
      <path id="DejaVuSans-3a" d="M 750 794 
L 1409 794 
L 1409 0 
L 750 0 
L 750 794 
z
M 750 3309 
L 1409 3309 
L 1409 2516 
L 750 2516 
L 750 3309 
z
" transform="scale(0.015625)"/>
      <path id="DejaVuSans-3d" d="M 678 2906 
L 4684 2906 
L 4684 2381 
L 678 2381 
L 678 2906 
z
M 678 1631 
L 4684 1631 
L 4684 1100 
L 678 1100 
L 678 1631 
z
" transform="scale(0.015625)"/>
      <path id="DejaVuSans-28" d="M 1984 4856 
Q 1566 4138 1362 3434 
Q 1159 2731 1159 2009 
Q 1159 1288 1364 580 
Q 1569 -128 1984 -844 
L 1484 -844 
Q 1016 -109 783 600 
Q 550 1309 550 2009 
Q 550 2706 781 3412 
Q 1013 4119 1484 4856 
L 1984 4856 
z
" transform="scale(0.015625)"/>
      <path id="DejaVuSans-Oblique-58" d="M 878 4666 
L 1516 4666 
L 2316 2981 
L 3763 4666 
L 4500 4666 
L 2578 2438 
L 3738 0 
L 3103 0 
L 2163 1966 
L 459 0 
L -275 0 
L 1906 2509 
L 878 4666 
z
" transform="scale(0.015625)"/>
      <path id="DejaVuSans-Oblique-74" d="M 2706 3500 
L 2619 3053 
L 1472 3053 
L 1100 1153 
Q 1081 1047 1072 975 
Q 1063 903 1063 863 
Q 1063 663 1183 572 
Q 1303 481 1569 481 
L 2150 481 
L 2053 0 
L 1503 0 
Q 991 0 739 200 
Q 488 400 488 806 
Q 488 878 497 964 
Q 506 1050 525 1153 
L 897 3053 
L 409 3053 
L 500 3500 
L 978 3500 
L 1172 4494 
L 1747 4494 
L 1556 3500 
L 2706 3500 
z
" transform="scale(0.015625)"/>
      <path id="DejaVuSans-302" d="M -1831 5119 
L -1369 5119 
L -603 3944 
L -1038 3944 
L -1600 4709 
L -2163 3944 
L -2597 3944 
L -1831 5119 
z
M -1600 3584 
L -1600 3584 
z
" transform="scale(0.015625)"/>
      <path id="DejaVuSans-Oblique-3bc" d="M -84 -1331 
L 856 3500 
L 1434 3500 
L 1009 1322 
Q 997 1256 987 1175 
Q 978 1094 978 1013 
Q 978 722 1161 565 
Q 1344 409 1684 409 
Q 2147 409 2431 671 
Q 2716 934 2816 1459 
L 3213 3500 
L 3788 3500 
L 3266 809 
Q 3253 750 3248 706 
Q 3244 663 3244 628 
Q 3244 531 3283 486 
Q 3322 441 3406 441 
Q 3438 441 3492 456 
Q 3547 472 3647 513 
L 3559 50 
Q 3422 -19 3297 -55 
Q 3172 -91 3053 -91 
Q 2847 -91 2730 40 
Q 2613 172 2613 403 
Q 2438 153 2195 31 
Q 1953 -91 1625 -91 
Q 1334 -91 1117 43 
Q 900 178 831 397 
L 494 -1331 
L -84 -1331 
z
" transform="scale(0.015625)"/>
      <path id="DejaVuSans-29" d="M 513 4856 
L 1013 4856 
Q 1481 4119 1714 3412 
Q 1947 2706 1947 2009 
Q 1947 1309 1714 600 
Q 1481 -109 1013 -844 
L 513 -844 
Q 928 -128 1133 580 
Q 1338 1288 1338 2009 
Q 1338 2731 1133 3434 
Q 928 4138 513 4856 
z
" transform="scale(0.015625)"/>
      <path id="DejaVuSans-2f" d="M 1625 4666 
L 2156 4666 
L 531 -594 
L 0 -594 
L 1625 4666 
z
" transform="scale(0.015625)"/>
      <path id="DejaVuSans-Oblique-3c3" d="M 2219 3044 
Q 1744 3044 1422 2700 
Q 1081 2341 969 1747 
Q 844 1119 1044 756 
Q 1241 397 1706 397 
Q 2166 397 2503 759 
Q 2844 1122 2966 1747 
Q 3075 2319 2881 2700 
Q 2700 3044 2219 3044 
z
M 2309 3503 
L 4219 3500 
L 4106 2925 
L 3463 2925 
Q 3706 2438 3575 1747 
Q 3406 888 2884 400 
Q 2359 -91 1609 -91 
Q 856 -91 525 400 
Q 194 888 363 1747 
Q 528 2609 1050 3097 
Q 1484 3503 2309 3503 
z
" transform="scale(0.015625)"/>
     </defs>
     <use xlink:href="#DejaVuSans-4f" transform="translate(0 0.78125)"/>
     <use xlink:href="#DejaVuSans-55" transform="translate(78.710938 0.78125)"/>
     <use xlink:href="#DejaVuSans-20" transform="translate(151.904297 0.78125)"/>
     <use xlink:href="#DejaVuSans-72" transform="translate(183.691406 0.78125)"/>
     <use xlink:href="#DejaVuSans-65" transform="translate(224.804688 0.78125)"/>
     <use xlink:href="#DejaVuSans-73" transform="translate(286.328125 0.78125)"/>
     <use xlink:href="#DejaVuSans-69" transform="translate(338.427734 0.78125)"/>
     <use xlink:href="#DejaVuSans-64" transform="translate(366.210938 0.78125)"/>
     <use xlink:href="#DejaVuSans-75" transform="translate(429.6875 0.78125)"/>
     <use xlink:href="#DejaVuSans-61" transform="translate(493.066406 0.78125)"/>
     <use xlink:href="#DejaVuSans-6c" transform="translate(554.345703 0.78125)"/>
     <use xlink:href="#DejaVuSans-20" transform="translate(582.128906 0.78125)"/>
     <use xlink:href="#DejaVuSans-64" transform="translate(613.916016 0.78125)"/>
     <use xlink:href="#DejaVuSans-69" transform="translate(677.392578 0.78125)"/>
     <use xlink:href="#DejaVuSans-61" transform="translate(705.175781 0.78125)"/>
     <use xlink:href="#DejaVuSans-67" transform="translate(766.455078 0.78125)"/>
     <use xlink:href="#DejaVuSans-6e" transform="translate(829.931641 0.78125)"/>
     <use xlink:href="#DejaVuSans-6f" transform="translate(893.310547 0.78125)"/>
     <use xlink:href="#DejaVuSans-73" transform="translate(954.492188 0.78125)"/>
     <use xlink:href="#DejaVuSans-74" transform="translate(1006.591797 0.78125)"/>
     <use xlink:href="#DejaVuSans-69" transform="translate(1045.800781 0.78125)"/>
     <use xlink:href="#DejaVuSans-63" transform="translate(1073.583984 0.78125)"/>
     <use xlink:href="#DejaVuSans-3a" transform="translate(1128.564453 0.78125)"/>
     <use xlink:href="#DejaVuSans-20" transform="translate(1162.255859 0.78125)"/>
     <use xlink:href="#DejaVuSans-20" transform="translate(1194.042969 0.78125)"/>
     <use xlink:href="#DejaVuSans-Oblique-72" transform="translate(1225.830078 0.78125)"/>
     <use xlink:href="#DejaVuSans-Oblique-69" transform="translate(1266.943359 -15.625) scale(0.7)"/>
     <use xlink:href="#DejaVuSans-3d" transform="translate(1308.608398 0.78125)"/>
     <use xlink:href="#DejaVuSans-28" transform="translate(1411.879883 0.78125)"/>
     <use xlink:href="#DejaVuSans-Oblique-58" transform="translate(1450.893555 0.78125)"/>
     <use xlink:href="#DejaVuSans-Oblique-74" transform="translate(1519.399414 -15.625) scale(0.7)"/>
     <use xlink:href="#DejaVuSans-Oblique-69" transform="translate(1546.845703 -27.109375) scale(0.49)"/>
     <use xlink:href="#DejaVuSans-2212" transform="translate(1584.590332 0.78125)"/>
     <use xlink:href="#DejaVuSans-302" transform="translate(1750.561035 11.96875)"/>
     <use xlink:href="#DejaVuSans-Oblique-3bc" transform="translate(1687.861816 0.78125)"/>
     <use xlink:href="#DejaVuSans-Oblique-69" transform="translate(1752.441895 -15.625) scale(0.7)"/>
     <use xlink:href="#DejaVuSans-29" transform="translate(1774.624512 0.78125)"/>
     <use xlink:href="#DejaVuSans-2f" transform="translate(1813.638184 0.78125)"/>
     <use xlink:href="#DejaVuSans-302" transform="translate(1911.630371 12.015625)"/>
     <use xlink:href="#DejaVuSans-Oblique-3c3" transform="translate(1847.32959 0.78125)"/>
    </g>
   </g>
   <g id="legend_1">
    <g id="patch_37">
     <path d="M 245.993438 58.240313 
L 377.385 58.240313 
Q 379.185 58.240313 379.185 56.440313 
L 379.185 30.54 
Q 379.185 28.74 377.385 28.74 
L 245.993438 28.74 
Q 244.193438 28.74 244.193438 30.54 
L 244.193438 56.440313 
Q 244.193438 58.240313 245.993438 58.240313 
z
" style="fill: #ffffff; opacity: 0.8; stroke: #cccccc; stroke-linejoin: miter"/>
    </g>
    <g id="patch_38">
     <path d="M 247.793438 39.178594 
L 265.793437 39.178594 
L 265.793437 32.878594 
L 247.793438 32.878594 
z
" style="fill: #2e6be5; opacity: 0.5"/>
    </g>
    <g id="text_22">
     <!-- Standardised residuals -->
     <g transform="translate(272.993438 39.178594) scale(0.09 -0.09)">
      <defs>
       <path id="DejaVuSans-53" d="M 3425 4513 
L 3425 3897 
Q 3066 4069 2747 4153 
Q 2428 4238 2131 4238 
Q 1616 4238 1336 4038 
Q 1056 3838 1056 3469 
Q 1056 3159 1242 3001 
Q 1428 2844 1947 2747 
L 2328 2669 
Q 3034 2534 3370 2195 
Q 3706 1856 3706 1288 
Q 3706 609 3251 259 
Q 2797 -91 1919 -91 
Q 1588 -91 1214 -16 
Q 841 59 441 206 
L 441 856 
Q 825 641 1194 531 
Q 1563 422 1919 422 
Q 2459 422 2753 634 
Q 3047 847 3047 1241 
Q 3047 1584 2836 1778 
Q 2625 1972 2144 2069 
L 1759 2144 
Q 1053 2284 737 2584 
Q 422 2884 422 3419 
Q 422 4038 858 4394 
Q 1294 4750 2059 4750 
Q 2388 4750 2728 4690 
Q 3069 4631 3425 4513 
z
" transform="scale(0.015625)"/>
      </defs>
      <use xlink:href="#DejaVuSans-53"/>
      <use xlink:href="#DejaVuSans-74" x="63.476562"/>
      <use xlink:href="#DejaVuSans-61" x="102.685547"/>
      <use xlink:href="#DejaVuSans-6e" x="163.964844"/>
      <use xlink:href="#DejaVuSans-64" x="227.34375"/>
      <use xlink:href="#DejaVuSans-61" x="290.820312"/>
      <use xlink:href="#DejaVuSans-72" x="352.099609"/>
      <use xlink:href="#DejaVuSans-64" x="391.462891"/>
      <use xlink:href="#DejaVuSans-69" x="454.939453"/>
      <use xlink:href="#DejaVuSans-73" x="482.722656"/>
      <use xlink:href="#DejaVuSans-65" x="534.822266"/>
      <use xlink:href="#DejaVuSans-64" x="596.345703"/>
      <use xlink:href="#DejaVuSans-20" x="659.822266"/>
      <use xlink:href="#DejaVuSans-72" x="691.609375"/>
      <use xlink:href="#DejaVuSans-65" x="730.472656"/>
      <use xlink:href="#DejaVuSans-73" x="791.996094"/>
      <use xlink:href="#DejaVuSans-69" x="844.095703"/>
      <use xlink:href="#DejaVuSans-64" x="871.878906"/>
      <use xlink:href="#DejaVuSans-75" x="935.355469"/>
      <use xlink:href="#DejaVuSans-61" x="998.734375"/>
      <use xlink:href="#DejaVuSans-6c" x="1060.013672"/>
      <use xlink:href="#DejaVuSans-73" x="1087.796875"/>
     </g>
    </g>
    <g id="line2d_20">
     <path d="M 247.793438 49.600313 
L 256.793437 49.600313 
L 265.793437 49.600313 
" style="fill: none; stroke: #e8850a; stroke-width: 2.2; stroke-linecap: square"/>
    </g>
    <g id="text_23">
     <!-- $\mathcal{N}(0,1)$ theory -->
     <g transform="translate(272.993438 52.750313) scale(0.09 -0.09)">
      <defs>
       <path id="STIXNonUnicode-Italic-e23a" d="M 4294 800 
L 4301 800 
Q 5293 4070 5408 4378 
Q 5472 4538 5523 4614 
Q 5830 5088 6253 5088 
Q 6490 5088 6650 4931 
Q 6810 4774 6810 4550 
Q 6810 4378 6720 4272 
Q 6630 4166 6470 4166 
Q 6368 4166 6297 4224 
Q 6227 4282 6198 4349 
Q 6170 4416 6118 4473 
Q 6067 4531 6003 4531 
Q 5939 4531 5881 4508 
Q 5824 4486 5785 4457 
Q 5747 4429 5705 4371 
Q 5664 4314 5638 4275 
Q 5613 4237 5584 4163 
Q 5555 4090 5545 4058 
Q 5536 4026 5510 3952 
Q 5485 3878 5485 3866 
L 4262 -154 
L 4134 -154 
Q 3078 1280 2483 2893 
L 2470 2893 
Q 2406 2579 2358 2361 
Q 2310 2144 2214 1792 
Q 2118 1440 2028 1190 
Q 1939 941 1804 653 
Q 1670 365 1529 185 
Q 1389 6 1203 -115 
Q 1018 -237 813 -237 
Q 576 -237 416 -80 
Q 256 77 256 301 
Q 256 474 345 579 
Q 435 685 595 685 
Q 698 685 768 627 
Q 838 570 867 502 
Q 896 435 947 377 
Q 998 320 1062 320 
Q 1222 320 1369 480 
Q 1517 640 1638 928 
Q 1760 1216 1862 1542 
Q 1965 1869 2057 2288 
Q 2150 2707 2214 3033 
Q 2278 3360 2348 3741 
Q 2419 4122 2458 4294 
L 2630 4294 
Q 2682 4166 2874 3680 
Q 3066 3194 3142 3008 
Q 3219 2822 3392 2422 
Q 3565 2022 3683 1798 
Q 3802 1574 3968 1292 
Q 4134 1011 4294 800 
z
" transform="scale(0.015625)"/>
       <path id="DejaVuSans-2c" d="M 750 794 
L 1409 794 
L 1409 256 
L 897 -744 
L 494 -744 
L 750 256 
L 750 794 
z
" transform="scale(0.015625)"/>
       <path id="DejaVuSans-68" d="M 3513 2113 
L 3513 0 
L 2938 0 
L 2938 2094 
Q 2938 2591 2744 2837 
Q 2550 3084 2163 3084 
Q 1697 3084 1428 2787 
Q 1159 2491 1159 1978 
L 1159 0 
L 581 0 
L 581 4863 
L 1159 4863 
L 1159 2956 
Q 1366 3272 1645 3428 
Q 1925 3584 2291 3584 
Q 2894 3584 3203 3211 
Q 3513 2838 3513 2113 
z
" transform="scale(0.015625)"/>
      </defs>
      <use xlink:href="#STIXNonUnicode-Italic-e23a" transform="translate(0 0.5)"/>
      <use xlink:href="#DejaVuSans-28" transform="translate(95.699982 0.5)"/>
      <use xlink:href="#DejaVuSans-30" transform="translate(134.713654 0.5)"/>
      <use xlink:href="#DejaVuSans-2c" transform="translate(198.3367 0.5)"/>
      <use xlink:href="#DejaVuSans-31" transform="translate(249.606232 0.5)"/>
      <use xlink:href="#DejaVuSans-29" transform="translate(313.229279 0.5)"/>
      <use xlink:href="#DejaVuSans-20" transform="translate(352.24295 0.5)"/>
      <use xlink:href="#DejaVuSans-74" transform="translate(384.03006 0.5)"/>
      <use xlink:href="#DejaVuSans-68" transform="translate(423.239044 0.5)"/>
      <use xlink:href="#DejaVuSans-65" transform="translate(486.61795 0.5)"/>
      <use xlink:href="#DejaVuSans-6f" transform="translate(548.141388 0.5)"/>
      <use xlink:href="#DejaVuSans-72" transform="translate(609.323029 0.5)"/>
      <use xlink:href="#DejaVuSans-79" transform="translate(650.43631 0.5)"/>
     </g>
    </g>
   </g>
  </g>
 </g>
 <defs>
  <clipPath id="pbd94ce1168">
   <rect x="48.885" y="24.24" width="334.8" height="210.672"/>
  </clipPath>
 </defs>
</svg>
