<?xml version="1.0" encoding="utf-8" standalone="no"?>
<!DOCTYPE svg PUBLIC "-//W3C//DTD SVG 1.1//EN"
  "http://www.w3.org/Graphics/SVG/1.1/DTD/svg11.dtd">
<svg xmlns:xlink="http://www.w3.org/1999/xlink" width="448.854531pt" height="272.34825pt" viewBox="0 0 448.854531 272.34825" xmlns="http://www.w3.org/2000/svg" version="1.1">
 <metadata>
  <rdf:RDF xmlns:dc="http://purl.org/dc/elements/1.1/" xmlns:cc="http://creativecommons.org/ns#" xmlns:rdf="http://www.w3.org/1999/02/22-rdf-syntax-ns#">
   <cc:Work>
    <dc:type rdf:resource="http://purl.org/dc/dcmitype/StillImage"/>
    <dc:date>2026-03-07T11:02:38.073865</dc:date>
    <dc:format>image/svg+xml</dc:format>
    <dc:creator>
     <cc:Agent>
      <dc:title>Matplotlib v3.8.4, https://matplotlib.org/</dc:title>
     </cc:Agent>
    </dc:creator>
   </cc:Work>
  </rdf:RDF>
 </metadata>
 <defs>
  <style type="text/css">*{stroke-linejoin: round; stroke-linecap: butt}</style>
 </defs>
 <g id="figure_1">
  <g id="patch_1">
   <path d="M 0 272.34825 
L 448.854531 272.34825 
L 448.854531 0 
L 0 0 
z
" style="fill: #ffffff"/>
  </g>
  <g id="axes_1">
   <g id="patch_2">
    <path d="M 51.054531 234.792 
L 441.654531 234.792 
L 441.654531 24.12 
L 51.054531 24.12 
z
" style="fill: #ffffff"/>
   </g>
   <g id="matplotlib.axis_1">
    <g id="xtick_1">
     <g id="line2d_1">
      <defs>
       <path id="madd71d3907" d="M 0 0 
L 0 3.5 
" style="stroke: #000000; stroke-width: 0.8"/>
      </defs>
      <g>
       <use xlink:href="#madd71d3907" x="68.809077" y="234.792" style="stroke: #000000; stroke-width: 0.8"/>
      </g>
     </g>
     <g id="text_1">
      <!-- −3 -->
      <g transform="translate(62.175092 248.630594) scale(0.09 -0.09)">
       <defs>
        <path id="DejaVuSans-2212" d="M 678 2272 
L 4684 2272 
L 4684 1741 
L 678 1741 
L 678 2272 
z
" transform="scale(0.015625)"/>
        <path id="DejaVuSans-33" d="M 2597 2516 
Q 3050 2419 3304 2112 
Q 3559 1806 3559 1356 
Q 3559 666 3084 287 
Q 2609 -91 1734 -91 
Q 1441 -91 1130 -33 
Q 819 25 488 141 
L 488 750 
Q 750 597 1062 519 
Q 1375 441 1716 441 
Q 2309 441 2620 675 
Q 2931 909 2931 1356 
Q 2931 1769 2642 2001 
Q 2353 2234 1838 2234 
L 1294 2234 
L 1294 2753 
L 1863 2753 
Q 2328 2753 2575 2939 
Q 2822 3125 2822 3475 
Q 2822 3834 2567 4026 
Q 2313 4219 1838 4219 
Q 1578 4219 1281 4162 
Q 984 4106 628 3988 
L 628 4550 
Q 988 4650 1302 4700 
Q 1616 4750 1894 4750 
Q 2613 4750 3031 4423 
Q 3450 4097 3450 3541 
Q 3450 3153 3228 2886 
Q 3006 2619 2597 2516 
z
" transform="scale(0.015625)"/>
       </defs>
       <use xlink:href="#DejaVuSans-2212"/>
       <use xlink:href="#DejaVuSans-33" x="83.789062"/>
      </g>
     </g>
    </g>
    <g id="xtick_2">
     <g id="line2d_2">
      <g>
       <use xlink:href="#madd71d3907" x="127.990895" y="234.792" style="stroke: #000000; stroke-width: 0.8"/>
      </g>
     </g>
     <g id="text_2">
      <!-- −2 -->
      <g transform="translate(121.356911 248.630594) scale(0.09 -0.09)">
       <defs>
        <path id="DejaVuSans-32" d="M 1228 531 
L 3431 531 
L 3431 0 
L 469 0 
L 469 531 
Q 828 903 1448 1529 
Q 2069 2156 2228 2338 
Q 2531 2678 2651 2914 
Q 2772 3150 2772 3378 
Q 2772 3750 2511 3984 
Q 2250 4219 1831 4219 
Q 1534 4219 1204 4116 
Q 875 4013 500 3803 
L 500 4441 
Q 881 4594 1212 4672 
Q 1544 4750 1819 4750 
Q 2544 4750 2975 4387 
Q 3406 4025 3406 3419 
Q 3406 3131 3298 2873 
Q 3191 2616 2906 2266 
Q 2828 2175 2409 1742 
Q 1991 1309 1228 531 
z
" transform="scale(0.015625)"/>
       </defs>
       <use xlink:href="#DejaVuSans-2212"/>
       <use xlink:href="#DejaVuSans-32" x="83.789062"/>
      </g>
     </g>
    </g>
    <g id="xtick_3">
     <g id="line2d_3">
      <g>
       <use xlink:href="#madd71d3907" x="187.172713" y="234.792" style="stroke: #000000; stroke-width: 0.8"/>
      </g>
     </g>
     <g id="text_3">
      <!-- −1 -->
      <g transform="translate(180.538729 248.630594) scale(0.09 -0.09)">
       <defs>
        <path id="DejaVuSans-31" d="M 794 531 
L 1825 531 
L 1825 4091 
L 703 3866 
L 703 4441 
L 1819 4666 
L 2450 4666 
L 2450 531 
L 3481 531 
L 3481 0 
L 794 0 
L 794 531 
z
" transform="scale(0.015625)"/>
       </defs>
       <use xlink:href="#DejaVuSans-2212"/>
       <use xlink:href="#DejaVuSans-31" x="83.789062"/>
      </g>
     </g>
    </g>
    <g id="xtick_4">
     <g id="line2d_4">
      <g>
       <use xlink:href="#madd71d3907" x="246.354531" y="234.792" style="stroke: #000000; stroke-width: 0.8"/>
      </g>
     </g>
     <g id="text_4">
      <!-- 0 -->
      <g transform="translate(243.491406 248.630594) scale(0.09 -0.09)">
       <defs>
        <path id="DejaVuSans-30" d="M 2034 4250 
Q 1547 4250 1301 3770 
Q 1056 3291 1056 2328 
Q 1056 1369 1301 889 
Q 1547 409 2034 409 
Q 2525 409 2770 889 
Q 3016 1369 3016 2328 
Q 3016 3291 2770 3770 
Q 2525 4250 2034 4250 
z
M 2034 4750 
Q 2819 4750 3233 4129 
Q 3647 3509 3647 2328 
Q 3647 1150 3233 529 
Q 2819 -91 2034 -91 
Q 1250 -91 836 529 
Q 422 1150 422 2328 
Q 422 3509 836 4129 
Q 1250 4750 2034 4750 
z
" transform="scale(0.015625)"/>
       </defs>
       <use xlink:href="#DejaVuSans-30"/>
      </g>
     </g>
    </g>
    <g id="xtick_5">
     <g id="line2d_5">
      <g>
       <use xlink:href="#madd71d3907" x="305.536349" y="234.792" style="stroke: #000000; stroke-width: 0.8"/>
      </g>
     </g>
     <g id="text_5">
      <!-- 1 -->
      <g transform="translate(302.673224 248.630594) scale(0.09 -0.09)">
       <use xlink:href="#DejaVuSans-31"/>
      </g>
     </g>
    </g>
    <g id="xtick_6">
     <g id="line2d_6">
      <g>
       <use xlink:href="#madd71d3907" x="364.718168" y="234.792" style="stroke: #000000; stroke-width: 0.8"/>
      </g>
     </g>
     <g id="text_6">
      <!-- 2 -->
      <g transform="translate(361.855043 248.630594) scale(0.09 -0.09)">
       <use xlink:href="#DejaVuSans-32"/>
      </g>
     </g>
    </g>
    <g id="xtick_7">
     <g id="line2d_7">
      <g>
       <use xlink:href="#madd71d3907" x="423.899986" y="234.792" style="stroke: #000000; stroke-width: 0.8"/>
      </g>
     </g>
     <g id="text_7">
      <!-- 3 -->
      <g transform="translate(421.036861 248.630594) scale(0.09 -0.09)">
       <use xlink:href="#DejaVuSans-33"/>
      </g>
     </g>
    </g>
    <g id="text_8">
     <!-- $\theta$ -->
     <g transform="translate(242.944531 262.860594) scale(0.11 -0.11)">
      <defs>
       <path id="DejaVuSans-Oblique-3b8" d="M 2913 2219 
L 925 2219 
Q 791 1284 928 888 
Q 1100 400 1566 400 
Q 2034 400 2391 891 
Q 2703 1322 2913 2219 
z
M 3009 2750 
Q 3094 3638 2984 3950 
Q 2813 4444 2353 4444 
Q 1875 4444 1525 3956 
Q 1250 3563 1034 2750 
L 3009 2750 
z
M 2444 4913 
Q 3194 4913 3494 4250 
Q 3794 3591 3566 2422 
Q 3341 1256 2781 594 
Q 2225 -72 1475 -72 
Q 722 -72 425 594 
Q 128 1256 353 2422 
Q 581 3591 1134 4250 
Q 1691 4913 2444 4913 
z
" transform="scale(0.015625)"/>
      </defs>
      <use xlink:href="#DejaVuSans-Oblique-3b8" transform="translate(0 0.234375)"/>
     </g>
    </g>
   </g>
   <g id="matplotlib.axis_2">
    <g id="ytick_1">
     <g id="line2d_8">
      <defs>
       <path id="m2abfefa414" d="M 0 0 
L -3.5 0 
" style="stroke: #000000; stroke-width: 0.8"/>
      </defs>
      <g>
       <use xlink:href="#m2abfefa414" x="51.054531" y="225.4288" style="stroke: #000000; stroke-width: 0.8"/>
      </g>
     </g>
     <g id="text_9">
      <!-- −4.0 -->
      <g transform="translate(22.2 228.848097) scale(0.09 -0.09)">
       <defs>
        <path id="DejaVuSans-34" d="M 2419 4116 
L 825 1625 
L 2419 1625 
L 2419 4116 
z
M 2253 4666 
L 3047 4666 
L 3047 1625 
L 3713 1625 
L 3713 1100 
L 3047 1100 
L 3047 0 
L 2419 0 
L 2419 1100 
L 313 1100 
L 313 1709 
L 2253 4666 
z
" transform="scale(0.015625)"/>
        <path id="DejaVuSans-2e" d="M 684 794 
L 1344 794 
L 1344 0 
L 684 0 
L 684 794 
z
" transform="scale(0.015625)"/>
       </defs>
       <use xlink:href="#DejaVuSans-2212"/>
       <use xlink:href="#DejaVuSans-34" x="83.789062"/>
       <use xlink:href="#DejaVuSans-2e" x="147.412109"/>
       <use xlink:href="#DejaVuSans-30" x="179.199219"/>
      </g>
     </g>
    </g>
    <g id="ytick_2">
     <g id="line2d_9">
      <g>
       <use xlink:href="#m2abfefa414" x="51.054531" y="202.0208" style="stroke: #000000; stroke-width: 0.8"/>
      </g>
     </g>
     <g id="text_10">
      <!-- −3.5 -->
      <g transform="translate(22.2 205.440097) scale(0.09 -0.09)">
       <defs>
        <path id="DejaVuSans-35" d="M 691 4666 
L 3169 4666 
L 3169 4134 
L 1269 4134 
L 1269 2991 
Q 1406 3038 1543 3061 
Q 1681 3084 1819 3084 
Q 2600 3084 3056 2656 
Q 3513 2228 3513 1497 
Q 3513 744 3044 326 
Q 2575 -91 1722 -91 
Q 1428 -91 1123 -41 
Q 819 9 494 109 
L 494 744 
Q 775 591 1075 516 
Q 1375 441 1709 441 
Q 2250 441 2565 725 
Q 2881 1009 2881 1497 
Q 2881 1984 2565 2268 
Q 2250 2553 1709 2553 
Q 1456 2553 1204 2497 
Q 953 2441 691 2322 
L 691 4666 
z
" transform="scale(0.015625)"/>
       </defs>
       <use xlink:href="#DejaVuSans-2212"/>
       <use xlink:href="#DejaVuSans-33" x="83.789062"/>
       <use xlink:href="#DejaVuSans-2e" x="147.412109"/>
       <use xlink:href="#DejaVuSans-35" x="179.199219"/>
      </g>
     </g>
    </g>
    <g id="ytick_3">
     <g id="line2d_10">
      <g>
       <use xlink:href="#m2abfefa414" x="51.054531" y="178.6128" style="stroke: #000000; stroke-width: 0.8"/>
      </g>
     </g>
     <g id="text_11">
      <!-- −3.0 -->
      <g transform="translate(22.2 182.032097) scale(0.09 -0.09)">
       <use xlink:href="#DejaVuSans-2212"/>
       <use xlink:href="#DejaVuSans-33" x="83.789062"/>
       <use xlink:href="#DejaVuSans-2e" x="147.412109"/>
       <use xlink:href="#DejaVuSans-30" x="179.199219"/>
      </g>
     </g>
    </g>
    <g id="ytick_4">
     <g id="line2d_11">
      <g>
       <use xlink:href="#m2abfefa414" x="51.054531" y="155.2048" style="stroke: #000000; stroke-width: 0.8"/>
      </g>
     </g>
     <g id="text_12">
      <!-- −2.5 -->
      <g transform="translate(22.2 158.624097) scale(0.09 -0.09)">
       <use xlink:href="#DejaVuSans-2212"/>
       <use xlink:href="#DejaVuSans-32" x="83.789062"/>
       <use xlink:href="#DejaVuSans-2e" x="147.412109"/>
       <use xlink:href="#DejaVuSans-35" x="179.199219"/>
      </g>
     </g>
    </g>
    <g id="ytick_5">
     <g id="line2d_12">
      <g>
       <use xlink:href="#m2abfefa414" x="51.054531" y="131.7968" style="stroke: #000000; stroke-width: 0.8"/>
      </g>
     </g>
     <g id="text_13">
      <!-- −2.0 -->
      <g transform="translate(22.2 135.216097) scale(0.09 -0.09)">
       <use xlink:href="#DejaVuSans-2212"/>
       <use xlink:href="#DejaVuSans-32" x="83.789062"/>
       <use xlink:href="#DejaVuSans-2e" x="147.412109"/>
       <use xlink:href="#DejaVuSans-30" x="179.199219"/>
      </g>
     </g>
    </g>
    <g id="ytick_6">
     <g id="line2d_13">
      <g>
       <use xlink:href="#m2abfefa414" x="51.054531" y="108.3888" style="stroke: #000000; stroke-width: 0.8"/>
      </g>
     </g>
     <g id="text_14">
      <!-- −1.5 -->
      <g transform="translate(22.2 111.808097) scale(0.09 -0.09)">
       <use xlink:href="#DejaVuSans-2212"/>
       <use xlink:href="#DejaVuSans-31" x="83.789062"/>
       <use xlink:href="#DejaVuSans-2e" x="147.412109"/>
       <use xlink:href="#DejaVuSans-35" x="179.199219"/>
      </g>
     </g>
    </g>
    <g id="ytick_7">
     <g id="line2d_14">
      <g>
       <use xlink:href="#m2abfefa414" x="51.054531" y="84.9808" style="stroke: #000000; stroke-width: 0.8"/>
      </g>
     </g>
     <g id="text_15">
      <!-- −1.0 -->
      <g transform="translate(22.2 88.400097) scale(0.09 -0.09)">
       <use xlink:href="#DejaVuSans-2212"/>
       <use xlink:href="#DejaVuSans-31" x="83.789062"/>
       <use xlink:href="#DejaVuSans-2e" x="147.412109"/>
       <use xlink:href="#DejaVuSans-30" x="179.199219"/>
      </g>
     </g>
    </g>
    <g id="ytick_8">
     <g id="line2d_15">
      <g>
       <use xlink:href="#m2abfefa414" x="51.054531" y="61.5728" style="stroke: #000000; stroke-width: 0.8"/>
      </g>
     </g>
     <g id="text_16">
      <!-- −0.5 -->
      <g transform="translate(22.2 64.992097) scale(0.09 -0.09)">
       <use xlink:href="#DejaVuSans-2212"/>
       <use xlink:href="#DejaVuSans-30" x="83.789062"/>
       <use xlink:href="#DejaVuSans-2e" x="147.412109"/>
       <use xlink:href="#DejaVuSans-35" x="179.199219"/>
      </g>
     </g>
    </g>
    <g id="ytick_9">
     <g id="line2d_16">
      <g>
       <use xlink:href="#m2abfefa414" x="51.054531" y="38.1648" style="stroke: #000000; stroke-width: 0.8"/>
      </g>
     </g>
     <g id="text_17">
      <!-- 0.0 -->
      <g transform="translate(29.741719 41.584097) scale(0.09 -0.09)">
       <use xlink:href="#DejaVuSans-30"/>
       <use xlink:href="#DejaVuSans-2e" x="63.623047"/>
       <use xlink:href="#DejaVuSans-30" x="95.410156"/>
      </g>
     </g>
    </g>
    <g id="text_18">
     <!-- $\log\mathcal{L}(\theta \mid x_\mathrm{obs})$  (centred) -->
     <g transform="translate(15.78 194.301) rotate(-90) scale(0.11 -0.11)">
      <defs>
       <path id="DejaVuSans-6c" d="M 603 4863 
L 1178 4863 
L 1178 0 
L 603 0 
L 603 4863 
z
" transform="scale(0.015625)"/>
       <path id="DejaVuSans-6f" d="M 1959 3097 
Q 1497 3097 1228 2736 
Q 959 2375 959 1747 
Q 959 1119 1226 758 
Q 1494 397 1959 397 
Q 2419 397 2687 759 
Q 2956 1122 2956 1747 
Q 2956 2369 2687 2733 
Q 2419 3097 1959 3097 
z
M 1959 3584 
Q 2709 3584 3137 3096 
Q 3566 2609 3566 1747 
Q 3566 888 3137 398 
Q 2709 -91 1959 -91 
Q 1206 -91 779 398 
Q 353 888 353 1747 
Q 353 2609 779 3096 
Q 1206 3584 1959 3584 
z
" transform="scale(0.015625)"/>
       <path id="DejaVuSans-67" d="M 2906 1791 
Q 2906 2416 2648 2759 
Q 2391 3103 1925 3103 
Q 1463 3103 1205 2759 
Q 947 2416 947 1791 
Q 947 1169 1205 825 
Q 1463 481 1925 481 
Q 2391 481 2648 825 
Q 2906 1169 2906 1791 
z
M 3481 434 
Q 3481 -459 3084 -895 
Q 2688 -1331 1869 -1331 
Q 1566 -1331 1297 -1286 
Q 1028 -1241 775 -1147 
L 775 -588 
Q 1028 -725 1275 -790 
Q 1522 -856 1778 -856 
Q 2344 -856 2625 -561 
Q 2906 -266 2906 331 
L 2906 616 
Q 2728 306 2450 153 
Q 2172 0 1784 0 
Q 1141 0 747 490 
Q 353 981 353 1791 
Q 353 2603 747 3093 
Q 1141 3584 1784 3584 
Q 2172 3584 2450 3431 
Q 2728 3278 2906 2969 
L 2906 3500 
L 3481 3500 
L 3481 434 
z
" transform="scale(0.015625)"/>
       <path id="STIXNonUnicode-Italic-e238" d="M 4070 915 
L 4179 800 
Q 3347 -45 2413 -45 
Q 2157 -45 1850 26 
Q 1395 122 1146 122 
Q 1005 122 672 61 
Q 339 0 192 0 
L 230 154 
Q 582 154 730 749 
L 1178 2566 
Q 1286 3008 1516 3353 
Q 1747 3699 2025 3894 
Q 2304 4090 2585 4189 
Q 2867 4288 3123 4288 
Q 3443 4288 3593 4083 
Q 3744 3878 3744 3584 
Q 3744 3347 3593 3200 
Q 3443 3053 3226 3053 
Q 3085 3053 2995 3149 
Q 2906 3245 2906 3379 
Q 2906 3482 2957 3552 
Q 3008 3622 3065 3644 
Q 3123 3667 3174 3705 
Q 3226 3744 3226 3789 
Q 3226 4032 2854 4032 
Q 2522 4032 2310 3785 
Q 2099 3539 1990 3132 
Q 1882 2726 1795 2284 
Q 1709 1843 1549 1363 
Q 1389 883 1158 589 
L 1158 563 
Q 1363 704 1888 704 
Q 2227 704 2460 544 
Q 2694 384 2963 384 
Q 3507 384 4070 915 
z
" transform="scale(0.015625)"/>
       <path id="DejaVuSans-28" d="M 1984 4856 
Q 1566 4138 1362 3434 
Q 1159 2731 1159 2009 
Q 1159 1288 1364 580 
Q 1569 -128 1984 -844 
L 1484 -844 
Q 1016 -109 783 600 
Q 550 1309 550 2009 
Q 550 2706 781 3412 
Q 1013 4119 1484 4856 
L 1984 4856 
z
" transform="scale(0.015625)"/>
       <path id="DejaVuSans-2223" d="M 1350 4934 
L 1850 4934 
L 1850 -1369 
L 1350 -1369 
L 1350 4934 
z
" transform="scale(0.015625)"/>
       <path id="DejaVuSans-Oblique-78" d="M 3841 3500 
L 2234 1784 
L 3219 0 
L 2559 0 
L 1819 1388 
L 531 0 
L -166 0 
L 1556 1844 
L 641 3500 
L 1300 3500 
L 1972 2234 
L 3144 3500 
L 3841 3500 
z
" transform="scale(0.015625)"/>
       <path id="DejaVuSans-62" d="M 3116 1747 
Q 3116 2381 2855 2742 
Q 2594 3103 2138 3103 
Q 1681 3103 1420 2742 
Q 1159 2381 1159 1747 
Q 1159 1113 1420 752 
Q 1681 391 2138 391 
Q 2594 391 2855 752 
Q 3116 1113 3116 1747 
z
M 1159 2969 
Q 1341 3281 1617 3432 
Q 1894 3584 2278 3584 
Q 2916 3584 3314 3078 
Q 3713 2572 3713 1747 
Q 3713 922 3314 415 
Q 2916 -91 2278 -91 
Q 1894 -91 1617 61 
Q 1341 213 1159 525 
L 1159 0 
L 581 0 
L 581 4863 
L 1159 4863 
L 1159 2969 
z
" transform="scale(0.015625)"/>
       <path id="DejaVuSans-73" d="M 2834 3397 
L 2834 2853 
Q 2591 2978 2328 3040 
Q 2066 3103 1784 3103 
Q 1356 3103 1142 2972 
Q 928 2841 928 2578 
Q 928 2378 1081 2264 
Q 1234 2150 1697 2047 
L 1894 2003 
Q 2506 1872 2764 1633 
Q 3022 1394 3022 966 
Q 3022 478 2636 193 
Q 2250 -91 1575 -91 
Q 1294 -91 989 -36 
Q 684 19 347 128 
L 347 722 
Q 666 556 975 473 
Q 1284 391 1588 391 
Q 1994 391 2212 530 
Q 2431 669 2431 922 
Q 2431 1156 2273 1281 
Q 2116 1406 1581 1522 
L 1381 1569 
Q 847 1681 609 1914 
Q 372 2147 372 2553 
Q 372 3047 722 3315 
Q 1072 3584 1716 3584 
Q 2034 3584 2315 3537 
Q 2597 3491 2834 3397 
z
" transform="scale(0.015625)"/>
       <path id="DejaVuSans-29" d="M 513 4856 
L 1013 4856 
Q 1481 4119 1714 3412 
Q 1947 2706 1947 2009 
Q 1947 1309 1714 600 
Q 1481 -109 1013 -844 
L 513 -844 
Q 928 -128 1133 580 
Q 1338 1288 1338 2009 
Q 1338 2731 1133 3434 
Q 928 4138 513 4856 
z
" transform="scale(0.015625)"/>
       <path id="DejaVuSans-20" transform="scale(0.015625)"/>
       <path id="DejaVuSans-63" d="M 3122 3366 
L 3122 2828 
Q 2878 2963 2633 3030 
Q 2388 3097 2138 3097 
Q 1578 3097 1268 2742 
Q 959 2388 959 1747 
Q 959 1106 1268 751 
Q 1578 397 2138 397 
Q 2388 397 2633 464 
Q 2878 531 3122 666 
L 3122 134 
Q 2881 22 2623 -34 
Q 2366 -91 2075 -91 
Q 1284 -91 818 406 
Q 353 903 353 1747 
Q 353 2603 823 3093 
Q 1294 3584 2113 3584 
Q 2378 3584 2631 3529 
Q 2884 3475 3122 3366 
z
" transform="scale(0.015625)"/>
       <path id="DejaVuSans-65" d="M 3597 1894 
L 3597 1613 
L 953 1613 
Q 991 1019 1311 708 
Q 1631 397 2203 397 
Q 2534 397 2845 478 
Q 3156 559 3463 722 
L 3463 178 
Q 3153 47 2828 -22 
Q 2503 -91 2169 -91 
Q 1331 -91 842 396 
Q 353 884 353 1716 
Q 353 2575 817 3079 
Q 1281 3584 2069 3584 
Q 2775 3584 3186 3129 
Q 3597 2675 3597 1894 
z
M 3022 2063 
Q 3016 2534 2758 2815 
Q 2500 3097 2075 3097 
Q 1594 3097 1305 2825 
Q 1016 2553 972 2059 
L 3022 2063 
z
" transform="scale(0.015625)"/>
       <path id="DejaVuSans-6e" d="M 3513 2113 
L 3513 0 
L 2938 0 
L 2938 2094 
Q 2938 2591 2744 2837 
Q 2550 3084 2163 3084 
Q 1697 3084 1428 2787 
Q 1159 2491 1159 1978 
L 1159 0 
L 581 0 
L 581 3500 
L 1159 3500 
L 1159 2956 
Q 1366 3272 1645 3428 
Q 1925 3584 2291 3584 
Q 2894 3584 3203 3211 
Q 3513 2838 3513 2113 
z
" transform="scale(0.015625)"/>
       <path id="DejaVuSans-74" d="M 1172 4494 
L 1172 3500 
L 2356 3500 
L 2356 3053 
L 1172 3053 
L 1172 1153 
Q 1172 725 1289 603 
Q 1406 481 1766 481 
L 2356 481 
L 2356 0 
L 1766 0 
Q 1100 0 847 248 
Q 594 497 594 1153 
L 594 3053 
L 172 3053 
L 172 3500 
L 594 3500 
L 594 4494 
L 1172 4494 
z
" transform="scale(0.015625)"/>
       <path id="DejaVuSans-72" d="M 2631 2963 
Q 2534 3019 2420 3045 
Q 2306 3072 2169 3072 
Q 1681 3072 1420 2755 
Q 1159 2438 1159 1844 
L 1159 0 
L 581 0 
L 581 3500 
L 1159 3500 
L 1159 2956 
Q 1341 3275 1631 3429 
Q 1922 3584 2338 3584 
Q 2397 3584 2469 3576 
Q 2541 3569 2628 3553 
L 2631 2963 
z
" transform="scale(0.015625)"/>
       <path id="DejaVuSans-64" d="M 2906 2969 
L 2906 4863 
L 3481 4863 
L 3481 0 
L 2906 0 
L 2906 525 
Q 2725 213 2448 61 
Q 2172 -91 1784 -91 
Q 1150 -91 751 415 
Q 353 922 353 1747 
Q 353 2572 751 3078 
Q 1150 3584 1784 3584 
Q 2172 3584 2448 3432 
Q 2725 3281 2906 2969 
z
M 947 1747 
Q 947 1113 1208 752 
Q 1469 391 1925 391 
Q 2381 391 2643 752 
Q 2906 1113 2906 1747 
Q 2906 2381 2643 2742 
Q 2381 3103 1925 3103 
Q 1469 3103 1208 2742 
Q 947 2381 947 1747 
z
" transform="scale(0.015625)"/>
      </defs>
      <use xlink:href="#DejaVuSans-6c" transform="translate(0 0.90625)"/>
      <use xlink:href="#DejaVuSans-6f" transform="translate(27.783203 0.90625)"/>
      <use xlink:href="#DejaVuSans-67" transform="translate(88.964844 0.90625)"/>
      <use xlink:href="#STIXNonUnicode-Italic-e238" transform="translate(168.677083 0.90625)"/>
      <use xlink:href="#DejaVuSans-28" transform="translate(237.97707 0.90625)"/>
      <use xlink:href="#DejaVuSans-Oblique-3b8" transform="translate(276.990742 0.90625)"/>
      <use xlink:href="#DejaVuSans-2223" transform="translate(357.654805 0.90625)"/>
      <use xlink:href="#DejaVuSans-Oblique-78" transform="translate(427.137227 0.90625)"/>
      <use xlink:href="#DejaVuSans-6f" transform="translate(486.316914 -15.5) scale(0.7)"/>
      <use xlink:href="#DejaVuSans-62" transform="translate(529.144063 -15.5) scale(0.7)"/>
      <use xlink:href="#DejaVuSans-73" transform="translate(573.577656 -15.5) scale(0.7)"/>
      <use xlink:href="#DejaVuSans-29" transform="translate(612.781758 0.90625)"/>
      <use xlink:href="#DejaVuSans-20" transform="translate(651.79543 0.90625)"/>
      <use xlink:href="#DejaVuSans-20" transform="translate(683.582539 0.90625)"/>
      <use xlink:href="#DejaVuSans-28" transform="translate(715.369648 0.90625)"/>
      <use xlink:href="#DejaVuSans-63" transform="translate(754.38332 0.90625)"/>
      <use xlink:href="#DejaVuSans-65" transform="translate(809.363789 0.90625)"/>
      <use xlink:href="#DejaVuSans-6e" transform="translate(870.887227 0.90625)"/>
      <use xlink:href="#DejaVuSans-74" transform="translate(934.266133 0.90625)"/>
      <use xlink:href="#DejaVuSans-72" transform="translate(973.475117 0.90625)"/>
      <use xlink:href="#DejaVuSans-65" transform="translate(1014.588398 0.90625)"/>
      <use xlink:href="#DejaVuSans-64" transform="translate(1076.111836 0.90625)"/>
      <use xlink:href="#DejaVuSans-29" transform="translate(1139.588398 0.90625)"/>
     </g>
    </g>
   </g>
   <g id="line2d_17">
    <path d="M 152.558909 273.34825 
L 156.91434 252.011417 
L 161.364101 231.261943 
L 165.813861 211.571116 
L 170.263622 192.938935 
L 174.713383 175.365402 
L 179.163144 158.850514 
L 182.722952 146.40083 
L 186.282761 134.62868 
L 189.84257 123.534063 
L 193.402378 113.11698 
L 196.962187 103.377432 
L 200.521995 94.315417 
L 204.081804 85.930935 
L 207.641613 78.223988 
L 210.311469 72.888409 
L 212.981326 67.933943 
L 215.651182 63.360589 
L 218.321038 59.168349 
L 220.990895 55.357221 
L 223.660751 51.927206 
L 226.330608 48.878304 
L 229.000464 46.210514 
L 231.670321 43.923838 
L 234.340177 42.018274 
L 237.010034 40.493823 
L 238.789938 39.689251 
L 240.569842 39.054063 
L 242.349747 38.588259 
L 244.129651 38.291838 
L 245.909555 38.1648 
L 247.689459 38.207146 
L 249.469364 38.418875 
L 251.249268 38.799988 
L 253.029172 39.350484 
L 254.809077 40.070364 
L 256.588981 40.959627 
L 259.258837 42.611116 
L 261.928694 44.643717 
L 264.59855 47.057432 
L 267.268407 49.852259 
L 269.938263 53.028198 
L 272.60812 56.585251 
L 275.277976 60.523417 
L 277.947833 64.842695 
L 280.617689 69.543086 
L 283.287546 74.624589 
L 285.957402 80.087206 
L 289.517211 87.963537 
L 293.077019 96.517402 
L 296.636828 105.7488 
L 300.196637 115.657732 
L 303.756445 126.244198 
L 307.316254 137.508198 
L 310.876062 149.449732 
L 314.435871 162.0688 
L 317.99568 175.365402 
L 322.44544 192.938935 
L 326.895201 211.571116 
L 331.344962 231.261943 
L 335.794723 252.011417 
L 340.150153 273.34825 
L 340.150153 273.34825 
" clip-path="url(#p19a86612cd)" style="fill: none; stroke: #2e6be5; stroke-width: 2; stroke-linecap: square"/>
   </g>
   <g id="line2d_18">
    <path d="M 68.809077 248.835477 
L 75.038742 234.310845 
L 81.268407 220.30495 
L 87.498072 206.817792 
L 93.727737 193.849371 
L 99.957402 181.399687 
L 106.187067 169.46874 
L 112.416732 158.056529 
L 118.646397 147.163056 
L 123.98611 138.238665 
L 129.325823 129.695386 
L 134.665536 121.533221 
L 140.005249 113.752168 
L 145.344962 106.352229 
L 150.684675 99.333402 
L 156.024388 92.695687 
L 161.364101 86.439086 
L 166.703814 80.563597 
L 172.043526 75.069221 
L 176.493287 70.781702 
L 180.943048 66.758845 
L 185.392809 63.00065 
L 189.84257 59.507116 
L 194.29233 56.278244 
L 198.742091 53.314033 
L 203.191852 50.614484 
L 207.641613 48.179597 
L 212.091373 46.009371 
L 216.541134 44.103808 
L 220.990895 42.462905 
L 225.440656 41.086665 
L 229.890416 39.975086 
L 234.340177 39.128168 
L 238.789938 38.545913 
L 243.239699 38.228319 
L 247.689459 38.175386 
L 252.13922 38.387116 
L 256.588981 38.863507 
L 261.038742 39.604559 
L 265.488503 40.610274 
L 269.938263 41.88065 
L 274.388024 43.415687 
L 278.837785 45.215386 
L 283.287546 47.279747 
L 287.737306 49.60877 
L 292.187067 52.202454 
L 296.636828 55.0608 
L 301.086589 58.183808 
L 305.536349 61.571477 
L 309.98611 65.223808 
L 314.435871 69.1408 
L 318.885632 73.322454 
L 323.335392 77.76877 
L 328.675105 83.453702 
L 334.014818 89.519747 
L 339.354531 95.966905 
L 344.694244 102.795176 
L 350.033957 110.004559 
L 355.37367 117.595056 
L 360.713383 125.566665 
L 366.053096 133.919386 
L 371.392809 142.653221 
L 376.732522 151.768168 
L 382.962187 162.883958 
L 389.191852 174.518484 
L 395.421517 186.671747 
L 401.651182 199.343747 
L 407.880847 212.534484 
L 414.110512 226.243958 
L 420.340177 240.472168 
L 423.899986 248.835477 
L 423.899986 248.835477 
" clip-path="url(#p19a86612cd)" style="fill: none; stroke: #27ae60; stroke-width: 2; stroke-linecap: square"/>
   </g>
   <g id="line2d_19">
    <path d="M 68.809077 90.832469 
L 77.708598 85.6848 
L 86.60812 80.801792 
L 95.507641 76.183447 
L 104.407163 71.829762 
L 113.306684 67.74074 
L 122.206206 63.916379 
L 131.105727 60.35668 
L 139.115297 57.379236 
L 147.124866 54.616168 
L 155.134436 52.067477 
L 163.144005 49.733161 
L 171.153574 47.613221 
L 179.163144 45.707657 
L 187.172713 44.016469 
L 195.182282 42.539657 
L 203.191852 41.277221 
L 211.201421 40.229161 
L 219.210991 39.395477 
L 227.22056 38.776168 
L 235.230129 38.371236 
L 243.239699 38.18068 
L 251.249268 38.204499 
L 259.258837 38.442695 
L 267.268407 38.895266 
L 275.277976 39.562214 
L 283.287546 40.443537 
L 291.297115 41.539236 
L 299.306684 42.849311 
L 307.316254 44.373762 
L 315.325823 46.112589 
L 323.335392 48.065792 
L 331.344962 50.233371 
L 339.354531 52.615326 
L 347.364101 55.211657 
L 355.37367 58.022364 
L 363.383239 61.047447 
L 372.282761 64.660078 
L 381.182282 68.537371 
L 390.081804 72.679326 
L 398.981326 77.085943 
L 407.880847 81.757221 
L 416.780369 86.693161 
L 423.899986 90.832469 
L 423.899986 90.832469 
" clip-path="url(#p19a86612cd)" style="fill: none; stroke: #e8850a; stroke-width: 2; stroke-linecap: square"/>
   </g>
   <g id="line2d_20">
    <path d="M 246.354531 234.792 
L 246.354531 24.12 
" clip-path="url(#p19a86612cd)" style="fill: none; stroke-dasharray: 0.8,1.32; stroke-dashoffset: 0; stroke: #888888; stroke-width: 0.8"/>
   </g>
   <g id="patch_3">
    <path d="M 51.054531 234.792 
L 51.054531 24.12 
" style="fill: none; stroke: #000000; stroke-width: 0.8; stroke-linejoin: miter; stroke-linecap: square"/>
   </g>
   <g id="patch_4">
    <path d="M 51.054531 234.792 
L 441.654531 234.792 
" style="fill: none; stroke: #000000; stroke-width: 0.8; stroke-linejoin: miter; stroke-linecap: square"/>
   </g>
   <g id="text_19">
    <!-- Fisher information = log-likelihood curvature at $\theta^*$ -->
    <g transform="translate(93.654531 18.12) scale(0.12 -0.12)">
     <defs>
      <path id="DejaVuSans-46" d="M 628 4666 
L 3309 4666 
L 3309 4134 
L 1259 4134 
L 1259 2759 
L 3109 2759 
L 3109 2228 
L 1259 2228 
L 1259 0 
L 628 0 
L 628 4666 
z
" transform="scale(0.015625)"/>
      <path id="DejaVuSans-69" d="M 603 3500 
L 1178 3500 
L 1178 0 
L 603 0 
L 603 3500 
z
M 603 4863 
L 1178 4863 
L 1178 4134 
L 603 4134 
L 603 4863 
z
" transform="scale(0.015625)"/>
      <path id="DejaVuSans-68" d="M 3513 2113 
L 3513 0 
L 2938 0 
L 2938 2094 
Q 2938 2591 2744 2837 
Q 2550 3084 2163 3084 
Q 1697 3084 1428 2787 
Q 1159 2491 1159 1978 
L 1159 0 
L 581 0 
L 581 4863 
L 1159 4863 
L 1159 2956 
Q 1366 3272 1645 3428 
Q 1925 3584 2291 3584 
Q 2894 3584 3203 3211 
Q 3513 2838 3513 2113 
z
" transform="scale(0.015625)"/>
      <path id="DejaVuSans-66" d="M 2375 4863 
L 2375 4384 
L 1825 4384 
Q 1516 4384 1395 4259 
Q 1275 4134 1275 3809 
L 1275 3500 
L 2222 3500 
L 2222 3053 
L 1275 3053 
L 1275 0 
L 697 0 
L 697 3053 
L 147 3053 
L 147 3500 
L 697 3500 
L 697 3744 
Q 697 4328 969 4595 
Q 1241 4863 1831 4863 
L 2375 4863 
z
" transform="scale(0.015625)"/>
      <path id="DejaVuSans-6d" d="M 3328 2828 
Q 3544 3216 3844 3400 
Q 4144 3584 4550 3584 
Q 5097 3584 5394 3201 
Q 5691 2819 5691 2113 
L 5691 0 
L 5113 0 
L 5113 2094 
Q 5113 2597 4934 2840 
Q 4756 3084 4391 3084 
Q 3944 3084 3684 2787 
Q 3425 2491 3425 1978 
L 3425 0 
L 2847 0 
L 2847 2094 
Q 2847 2600 2669 2842 
Q 2491 3084 2119 3084 
Q 1678 3084 1418 2786 
Q 1159 2488 1159 1978 
L 1159 0 
L 581 0 
L 581 3500 
L 1159 3500 
L 1159 2956 
Q 1356 3278 1631 3431 
Q 1906 3584 2284 3584 
Q 2666 3584 2933 3390 
Q 3200 3197 3328 2828 
z
" transform="scale(0.015625)"/>
      <path id="DejaVuSans-61" d="M 2194 1759 
Q 1497 1759 1228 1600 
Q 959 1441 959 1056 
Q 959 750 1161 570 
Q 1363 391 1709 391 
Q 2188 391 2477 730 
Q 2766 1069 2766 1631 
L 2766 1759 
L 2194 1759 
z
M 3341 1997 
L 3341 0 
L 2766 0 
L 2766 531 
Q 2569 213 2275 61 
Q 1981 -91 1556 -91 
Q 1019 -91 701 211 
Q 384 513 384 1019 
Q 384 1609 779 1909 
Q 1175 2209 1959 2209 
L 2766 2209 
L 2766 2266 
Q 2766 2663 2505 2880 
Q 2244 3097 1772 3097 
Q 1472 3097 1187 3025 
Q 903 2953 641 2809 
L 641 3341 
Q 956 3463 1253 3523 
Q 1550 3584 1831 3584 
Q 2591 3584 2966 3190 
Q 3341 2797 3341 1997 
z
" transform="scale(0.015625)"/>
      <path id="DejaVuSans-3d" d="M 678 2906 
L 4684 2906 
L 4684 2381 
L 678 2381 
L 678 2906 
z
M 678 1631 
L 4684 1631 
L 4684 1100 
L 678 1100 
L 678 1631 
z
" transform="scale(0.015625)"/>
      <path id="DejaVuSans-2d" d="M 313 2009 
L 1997 2009 
L 1997 1497 
L 313 1497 
L 313 2009 
z
" transform="scale(0.015625)"/>
      <path id="DejaVuSans-6b" d="M 581 4863 
L 1159 4863 
L 1159 1991 
L 2875 3500 
L 3609 3500 
L 1753 1863 
L 3688 0 
L 2938 0 
L 1159 1709 
L 1159 0 
L 581 0 
L 581 4863 
z
" transform="scale(0.015625)"/>
      <path id="DejaVuSans-75" d="M 544 1381 
L 544 3500 
L 1119 3500 
L 1119 1403 
Q 1119 906 1312 657 
Q 1506 409 1894 409 
Q 2359 409 2629 706 
Q 2900 1003 2900 1516 
L 2900 3500 
L 3475 3500 
L 3475 0 
L 2900 0 
L 2900 538 
Q 2691 219 2414 64 
Q 2138 -91 1772 -91 
Q 1169 -91 856 284 
Q 544 659 544 1381 
z
M 1991 3584 
L 1991 3584 
z
" transform="scale(0.015625)"/>
      <path id="DejaVuSans-76" d="M 191 3500 
L 800 3500 
L 1894 563 
L 2988 3500 
L 3597 3500 
L 2284 0 
L 1503 0 
L 191 3500 
z
" transform="scale(0.015625)"/>
      <path id="DejaVuSans-2a" d="M 3009 3897 
L 1888 3291 
L 3009 2681 
L 2828 2375 
L 1778 3009 
L 1778 1831 
L 1422 1831 
L 1422 3009 
L 372 2375 
L 191 2681 
L 1313 3291 
L 191 3897 
L 372 4206 
L 1422 3572 
L 1422 4750 
L 1778 4750 
L 1778 3572 
L 2828 4206 
L 3009 3897 
z
" transform="scale(0.015625)"/>
     </defs>
     <use xlink:href="#DejaVuSans-46" transform="translate(0 0.765625)"/>
     <use xlink:href="#DejaVuSans-69" transform="translate(57.519531 0.765625)"/>
     <use xlink:href="#DejaVuSans-73" transform="translate(85.302734 0.765625)"/>
     <use xlink:href="#DejaVuSans-68" transform="translate(137.402344 0.765625)"/>
     <use xlink:href="#DejaVuSans-65" transform="translate(200.78125 0.765625)"/>
     <use xlink:href="#DejaVuSans-72" transform="translate(262.304688 0.765625)"/>
     <use xlink:href="#DejaVuSans-20" transform="translate(303.417969 0.765625)"/>
     <use xlink:href="#DejaVuSans-69" transform="translate(335.205078 0.765625)"/>
     <use xlink:href="#DejaVuSans-6e" transform="translate(362.988281 0.765625)"/>
     <use xlink:href="#DejaVuSans-66" transform="translate(426.367188 0.765625)"/>
     <use xlink:href="#DejaVuSans-6f" transform="translate(461.572266 0.765625)"/>
     <use xlink:href="#DejaVuSans-72" transform="translate(522.753906 0.765625)"/>
     <use xlink:href="#DejaVuSans-6d" transform="translate(563.867188 0.765625)"/>
     <use xlink:href="#DejaVuSans-61" transform="translate(661.279297 0.765625)"/>
     <use xlink:href="#DejaVuSans-74" transform="translate(722.558594 0.765625)"/>
     <use xlink:href="#DejaVuSans-69" transform="translate(761.767578 0.765625)"/>
     <use xlink:href="#DejaVuSans-6f" transform="translate(789.550781 0.765625)"/>
     <use xlink:href="#DejaVuSans-6e" transform="translate(850.732422 0.765625)"/>
     <use xlink:href="#DejaVuSans-20" transform="translate(914.111328 0.765625)"/>
     <use xlink:href="#DejaVuSans-3d" transform="translate(945.898438 0.765625)"/>
     <use xlink:href="#DejaVuSans-20" transform="translate(1029.6875 0.765625)"/>
     <use xlink:href="#DejaVuSans-6c" transform="translate(1061.474609 0.765625)"/>
     <use xlink:href="#DejaVuSans-6f" transform="translate(1089.257812 0.765625)"/>
     <use xlink:href="#DejaVuSans-67" transform="translate(1150.439453 0.765625)"/>
     <use xlink:href="#DejaVuSans-2d" transform="translate(1213.916016 0.765625)"/>
     <use xlink:href="#DejaVuSans-6c" transform="translate(1250 0.765625)"/>
     <use xlink:href="#DejaVuSans-69" transform="translate(1277.783203 0.765625)"/>
     <use xlink:href="#DejaVuSans-6b" transform="translate(1305.566406 0.765625)"/>
     <use xlink:href="#DejaVuSans-65" transform="translate(1363.476562 0.765625)"/>
     <use xlink:href="#DejaVuSans-6c" transform="translate(1425 0.765625)"/>
     <use xlink:href="#DejaVuSans-69" transform="translate(1452.783203 0.765625)"/>
     <use xlink:href="#DejaVuSans-68" transform="translate(1480.566406 0.765625)"/>
     <use xlink:href="#DejaVuSans-6f" transform="translate(1543.945312 0.765625)"/>
     <use xlink:href="#DejaVuSans-6f" transform="translate(1605.126953 0.765625)"/>
     <use xlink:href="#DejaVuSans-64" transform="translate(1666.308594 0.765625)"/>
     <use xlink:href="#DejaVuSans-20" transform="translate(1729.785156 0.765625)"/>
     <use xlink:href="#DejaVuSans-63" transform="translate(1761.572266 0.765625)"/>
     <use xlink:href="#DejaVuSans-75" transform="translate(1816.552734 0.765625)"/>
     <use xlink:href="#DejaVuSans-72" transform="translate(1879.931641 0.765625)"/>
     <use xlink:href="#DejaVuSans-76" transform="translate(1921.044922 0.765625)"/>
     <use xlink:href="#DejaVuSans-61" transform="translate(1980.224609 0.765625)"/>
     <use xlink:href="#DejaVuSans-74" transform="translate(2041.503906 0.765625)"/>
     <use xlink:href="#DejaVuSans-75" transform="translate(2080.712891 0.765625)"/>
     <use xlink:href="#DejaVuSans-72" transform="translate(2144.091797 0.765625)"/>
     <use xlink:href="#DejaVuSans-65" transform="translate(2185.205078 0.765625)"/>
     <use xlink:href="#DejaVuSans-20" transform="translate(2246.728516 0.765625)"/>
     <use xlink:href="#DejaVuSans-61" transform="translate(2278.515625 0.765625)"/>
     <use xlink:href="#DejaVuSans-74" transform="translate(2339.794922 0.765625)"/>
     <use xlink:href="#DejaVuSans-20" transform="translate(2379.003906 0.765625)"/>
     <use xlink:href="#DejaVuSans-Oblique-3b8" transform="translate(2410.791016 0.765625)"/>
     <use xlink:href="#DejaVuSans-2a" transform="translate(2493.167435 39.046875) scale(0.7)"/>
    </g>
   </g>
   <g id="legend_1">
    <g id="patch_5">
     <path d="M 168.279531 230.292 
L 324.429531 230.292 
Q 326.229531 230.292 326.229531 228.492 
L 326.229531 189.721688 
Q 326.229531 187.921688 324.429531 187.921688 
L 168.279531 187.921688 
Q 166.479531 187.921688 166.479531 189.721688 
L 166.479531 228.492 
Q 166.479531 230.292 168.279531 230.292 
z
" style="fill: #ffffff; opacity: 0.8; stroke: #cccccc; stroke-linejoin: miter"/>
    </g>
    <g id="line2d_21">
     <path d="M 170.079531 195.211688 
L 179.079531 195.211688 
L 188.079531 195.211688 
" style="fill: none; stroke: #2e6be5; stroke-width: 2; stroke-linecap: square"/>
    </g>
    <g id="text_20">
     <!-- $\sigma=0.5$  (high $\mathcal{I}$, sharp peak) -->
     <g transform="translate(195.279531 198.361688) scale(0.09 -0.09)">
      <defs>
       <path id="DejaVuSans-Oblique-3c3" d="M 2219 3044 
Q 1744 3044 1422 2700 
Q 1081 2341 969 1747 
Q 844 1119 1044 756 
Q 1241 397 1706 397 
Q 2166 397 2503 759 
Q 2844 1122 2966 1747 
Q 3075 2319 2881 2700 
Q 2700 3044 2219 3044 
z
M 2309 3503 
L 4219 3500 
L 4106 2925 
L 3463 2925 
Q 3706 2438 3575 1747 
Q 3406 888 2884 400 
Q 2359 -91 1609 -91 
Q 856 -91 525 400 
Q 194 888 363 1747 
Q 528 2609 1050 3097 
Q 1484 3503 2309 3503 
z
" transform="scale(0.015625)"/>
       <path id="STIXNonUnicode-Italic-e235" d="M 3782 4237 
L 3744 4083 
Q 3482 4083 3347 4067 
Q 3213 4051 3069 3977 
Q 2925 3904 2838 3753 
Q 2752 3603 2675 3334 
L 1920 710 
Q 1901 634 1901 557 
Q 1901 352 2208 352 
Q 2790 352 3283 819 
L 3398 698 
Q 3008 320 2566 160 
Q 2125 0 1549 0 
L 243 0 
L 282 154 
Q 467 154 556 160 
Q 646 166 777 201 
Q 909 237 982 310 
Q 1056 384 1139 521 
Q 1222 659 1280 870 
L 1946 3187 
Q 2061 3590 2061 3674 
Q 2061 3878 1754 3878 
Q 1523 3878 1203 3750 
Q 883 3622 678 3411 
L 570 3533 
Q 947 3904 1385 4070 
Q 1824 4237 2579 4237 
L 3782 4237 
z
" transform="scale(0.015625)"/>
       <path id="DejaVuSans-2c" d="M 750 794 
L 1409 794 
L 1409 256 
L 897 -744 
L 494 -744 
L 750 256 
L 750 794 
z
" transform="scale(0.015625)"/>
       <path id="DejaVuSans-70" d="M 1159 525 
L 1159 -1331 
L 581 -1331 
L 581 3500 
L 1159 3500 
L 1159 2969 
Q 1341 3281 1617 3432 
Q 1894 3584 2278 3584 
Q 2916 3584 3314 3078 
Q 3713 2572 3713 1747 
Q 3713 922 3314 415 
Q 2916 -91 2278 -91 
Q 1894 -91 1617 61 
Q 1341 213 1159 525 
z
M 3116 1747 
Q 3116 2381 2855 2742 
Q 2594 3103 2138 3103 
Q 1681 3103 1420 2742 
Q 1159 2381 1159 1747 
Q 1159 1113 1420 752 
Q 1681 391 2138 391 
Q 2594 391 2855 752 
Q 3116 1113 3116 1747 
z
" transform="scale(0.015625)"/>
      </defs>
      <use xlink:href="#DejaVuSans-Oblique-3c3" transform="translate(0 0.015625)"/>
      <use xlink:href="#DejaVuSans-3d" transform="translate(82.861328 0.015625)"/>
      <use xlink:href="#DejaVuSans-30" transform="translate(186.132812 0.015625)"/>
      <use xlink:href="#DejaVuSans-2e" transform="translate(249.755859 0.015625)"/>
      <use xlink:href="#DejaVuSans-35" transform="translate(281.542969 0.015625)"/>
      <use xlink:href="#DejaVuSans-20" transform="translate(345.166016 0.015625)"/>
      <use xlink:href="#DejaVuSans-20" transform="translate(376.953125 0.015625)"/>
      <use xlink:href="#DejaVuSans-28" transform="translate(408.740234 0.015625)"/>
      <use xlink:href="#DejaVuSans-68" transform="translate(447.753906 0.015625)"/>
      <use xlink:href="#DejaVuSans-69" transform="translate(511.132812 0.015625)"/>
      <use xlink:href="#DejaVuSans-67" transform="translate(538.916016 0.015625)"/>
      <use xlink:href="#DejaVuSans-68" transform="translate(602.392578 0.015625)"/>
      <use xlink:href="#DejaVuSans-20" transform="translate(665.771484 0.015625)"/>
      <use xlink:href="#STIXNonUnicode-Italic-e235" transform="translate(697.558594 0.015625)"/>
      <use xlink:href="#DejaVuSans-2c" transform="translate(755.058578 0.015625)"/>
      <use xlink:href="#DejaVuSans-20" transform="translate(786.845688 0.015625)"/>
      <use xlink:href="#DejaVuSans-73" transform="translate(818.632797 0.015625)"/>
      <use xlink:href="#DejaVuSans-68" transform="translate(870.732407 0.015625)"/>
      <use xlink:href="#DejaVuSans-61" transform="translate(934.111313 0.015625)"/>
      <use xlink:href="#DejaVuSans-72" transform="translate(995.39061 0.015625)"/>
      <use xlink:href="#DejaVuSans-70" transform="translate(1036.503891 0.015625)"/>
      <use xlink:href="#DejaVuSans-20" transform="translate(1099.980453 0.015625)"/>
      <use xlink:href="#DejaVuSans-70" transform="translate(1131.767563 0.015625)"/>
      <use xlink:href="#DejaVuSans-65" transform="translate(1195.244125 0.015625)"/>
      <use xlink:href="#DejaVuSans-61" transform="translate(1256.767563 0.015625)"/>
      <use xlink:href="#DejaVuSans-6b" transform="translate(1318.04686 0.015625)"/>
      <use xlink:href="#DejaVuSans-29" transform="translate(1375.957016 0.015625)"/>
     </g>
    </g>
    <g id="line2d_22">
     <path d="M 170.079531 208.440281 
L 179.079531 208.440281 
L 188.079531 208.440281 
" style="fill: none; stroke: #27ae60; stroke-width: 2; stroke-linecap: square"/>
    </g>
    <g id="text_21">
     <!-- $\sigma=1.0$ -->
     <g transform="translate(195.279531 211.590281) scale(0.09 -0.09)">
      <use xlink:href="#DejaVuSans-Oblique-3c3" transform="translate(0 0.78125)"/>
      <use xlink:href="#DejaVuSans-3d" transform="translate(82.861328 0.78125)"/>
      <use xlink:href="#DejaVuSans-31" transform="translate(186.132812 0.78125)"/>
      <use xlink:href="#DejaVuSans-2e" transform="translate(249.755859 0.78125)"/>
      <use xlink:href="#DejaVuSans-30" transform="translate(281.542969 0.78125)"/>
     </g>
    </g>
    <g id="line2d_23">
     <path d="M 170.079531 221.652 
L 179.079531 221.652 
L 188.079531 221.652 
" style="fill: none; stroke: #e8850a; stroke-width: 2; stroke-linecap: square"/>
    </g>
    <g id="text_22">
     <!-- $\sigma=2.0$  (low $\mathcal{I}$, flat peak) -->
     <g transform="translate(195.279531 224.802) scale(0.09 -0.09)">
      <defs>
       <path id="DejaVuSans-77" d="M 269 3500 
L 844 3500 
L 1563 769 
L 2278 3500 
L 2956 3500 
L 3675 769 
L 4391 3500 
L 4966 3500 
L 4050 0 
L 3372 0 
L 2619 2869 
L 1863 0 
L 1184 0 
L 269 3500 
z
" transform="scale(0.015625)"/>
      </defs>
      <use xlink:href="#DejaVuSans-Oblique-3c3" transform="translate(0 0.015625)"/>
      <use xlink:href="#DejaVuSans-3d" transform="translate(82.861328 0.015625)"/>
      <use xlink:href="#DejaVuSans-32" transform="translate(186.132812 0.015625)"/>
      <use xlink:href="#DejaVuSans-2e" transform="translate(249.755859 0.015625)"/>
      <use xlink:href="#DejaVuSans-30" transform="translate(281.542969 0.015625)"/>
      <use xlink:href="#DejaVuSans-20" transform="translate(345.166016 0.015625)"/>
      <use xlink:href="#DejaVuSans-20" transform="translate(376.953125 0.015625)"/>
      <use xlink:href="#DejaVuSans-28" transform="translate(408.740234 0.015625)"/>
      <use xlink:href="#DejaVuSans-6c" transform="translate(447.753906 0.015625)"/>
      <use xlink:href="#DejaVuSans-6f" transform="translate(475.537109 0.015625)"/>
      <use xlink:href="#DejaVuSans-77" transform="translate(536.71875 0.015625)"/>
      <use xlink:href="#DejaVuSans-20" transform="translate(618.505859 0.015625)"/>
      <use xlink:href="#STIXNonUnicode-Italic-e235" transform="translate(650.292969 0.015625)"/>
      <use xlink:href="#DejaVuSans-2c" transform="translate(707.792953 0.015625)"/>
      <use xlink:href="#DejaVuSans-20" transform="translate(739.580063 0.015625)"/>
      <use xlink:href="#DejaVuSans-66" transform="translate(771.367172 0.015625)"/>
      <use xlink:href="#DejaVuSans-6c" transform="translate(806.57225 0.015625)"/>
      <use xlink:href="#DejaVuSans-61" transform="translate(834.355453 0.015625)"/>
      <use xlink:href="#DejaVuSans-74" transform="translate(895.63475 0.015625)"/>
      <use xlink:href="#DejaVuSans-20" transform="translate(934.843735 0.015625)"/>
      <use xlink:href="#DejaVuSans-70" transform="translate(966.630844 0.015625)"/>
      <use xlink:href="#DejaVuSans-65" transform="translate(1030.107407 0.015625)"/>
      <use xlink:href="#DejaVuSans-61" transform="translate(1091.630844 0.015625)"/>
      <use xlink:href="#DejaVuSans-6b" transform="translate(1152.910141 0.015625)"/>
      <use xlink:href="#DejaVuSans-29" transform="translate(1210.820297 0.015625)"/>
     </g>
    </g>
   </g>
  </g>
 </g>
 <defs>
  <clipPath id="p19a86612cd">
   <rect x="51.054531" y="24.12" width="390.6" height="210.672"/>
  </clipPath>
 </defs>
</svg>
