<?xml version="1.0" encoding="utf-8" standalone="no"?>
<!DOCTYPE svg PUBLIC "-//W3C//DTD SVG 1.1//EN"
  "http://www.w3.org/Graphics/SVG/1.1/DTD/svg11.dtd">
<svg xmlns:xlink="http://www.w3.org/1999/xlink" width="638.64pt" height="222.84pt" viewBox="0 0 638.64 222.84" xmlns="http://www.w3.org/2000/svg" version="1.1">
 <metadata>
  <rdf:RDF xmlns:dc="http://purl.org/dc/elements/1.1/" xmlns:cc="http://creativecommons.org/ns#" xmlns:rdf="http://www.w3.org/1999/02/22-rdf-syntax-ns#">
   <cc:Work>
    <dc:type rdf:resource="http://purl.org/dc/dcmitype/StillImage"/>
    <dc:date>2026-03-07T13:33:22.801092</dc:date>
    <dc:format>image/svg+xml</dc:format>
    <dc:creator>
     <cc:Agent>
      <dc:title>Matplotlib v3.8.4, https://matplotlib.org/</dc:title>
     </cc:Agent>
    </dc:creator>
   </cc:Work>
  </rdf:RDF>
 </metadata>
 <defs>
  <style type="text/css">*{stroke-linejoin: round; stroke-linecap: butt}</style>
 </defs>
 <g id="figure_1">
  <g id="patch_1">
   <path d="M 0 222.84 
L 638.64 222.84 
L 638.64 0 
L 0 0 
z
" style="fill: #ffffff"/>
  </g>
  <g id="axes_1">
   <g id="patch_2">
    <path d="M 16.3854 215.64 
L 304.1946 215.64 
Q 316.4418 215.64 316.4418 208.8672 
L 316.4418 53.0928 
Q 316.4418 46.32 304.1946 46.32 
L 16.3854 46.32 
Q 4.1382 46.32 4.1382 53.0928 
L 4.1382 208.8672 
Q 4.1382 215.64 16.3854 215.64 
z
" clip-path="url(#p24d5b47adf)" style="fill: #d62728; fill-opacity: 0.094118; stroke: #d62728; stroke-width: 2; stroke-linejoin: miter"/>
   </g>
   <g id="text_1">
    <!-- Standard Gradient -->
    <g style="fill: #d62728" transform="translate(108.050156 75.930037) scale(0.1 -0.1)">
     <defs>
      <path id="DejaVuSans-Bold-53" d="M 3834 4519 
L 3834 3531 
Q 3450 3703 3084 3790 
Q 2719 3878 2394 3878 
Q 1963 3878 1756 3759 
Q 1550 3641 1550 3391 
Q 1550 3203 1689 3098 
Q 1828 2994 2194 2919 
L 2706 2816 
Q 3484 2659 3812 2340 
Q 4141 2022 4141 1434 
Q 4141 663 3683 286 
Q 3225 -91 2284 -91 
Q 1841 -91 1394 -6 
Q 947 78 500 244 
L 500 1259 
Q 947 1022 1364 901 
Q 1781 781 2169 781 
Q 2563 781 2772 912 
Q 2981 1044 2981 1288 
Q 2981 1506 2839 1625 
Q 2697 1744 2272 1838 
L 1806 1941 
Q 1106 2091 782 2419 
Q 459 2747 459 3303 
Q 459 4000 909 4375 
Q 1359 4750 2203 4750 
Q 2588 4750 2994 4692 
Q 3400 4634 3834 4519 
z
" transform="scale(0.015625)"/>
      <path id="DejaVuSans-Bold-74" d="M 1759 4494 
L 1759 3500 
L 2913 3500 
L 2913 2700 
L 1759 2700 
L 1759 1216 
Q 1759 972 1856 886 
Q 1953 800 2241 800 
L 2816 800 
L 2816 0 
L 1856 0 
Q 1194 0 917 276 
Q 641 553 641 1216 
L 641 2700 
L 84 2700 
L 84 3500 
L 641 3500 
L 641 4494 
L 1759 4494 
z
" transform="scale(0.015625)"/>
      <path id="DejaVuSans-Bold-61" d="M 2106 1575 
Q 1756 1575 1579 1456 
Q 1403 1338 1403 1106 
Q 1403 894 1545 773 
Q 1688 653 1941 653 
Q 2256 653 2472 879 
Q 2688 1106 2688 1447 
L 2688 1575 
L 2106 1575 
z
M 3816 1997 
L 3816 0 
L 2688 0 
L 2688 519 
Q 2463 200 2181 54 
Q 1900 -91 1497 -91 
Q 953 -91 614 226 
Q 275 544 275 1050 
Q 275 1666 698 1953 
Q 1122 2241 2028 2241 
L 2688 2241 
L 2688 2328 
Q 2688 2594 2478 2717 
Q 2269 2841 1825 2841 
Q 1466 2841 1156 2769 
Q 847 2697 581 2553 
L 581 3406 
Q 941 3494 1303 3539 
Q 1666 3584 2028 3584 
Q 2975 3584 3395 3211 
Q 3816 2838 3816 1997 
z
" transform="scale(0.015625)"/>
      <path id="DejaVuSans-Bold-6e" d="M 4056 2131 
L 4056 0 
L 2931 0 
L 2931 347 
L 2931 1631 
Q 2931 2084 2911 2256 
Q 2891 2428 2841 2509 
Q 2775 2619 2662 2680 
Q 2550 2741 2406 2741 
Q 2056 2741 1856 2470 
Q 1656 2200 1656 1722 
L 1656 0 
L 538 0 
L 538 3500 
L 1656 3500 
L 1656 2988 
Q 1909 3294 2193 3439 
Q 2478 3584 2822 3584 
Q 3428 3584 3742 3212 
Q 4056 2841 4056 2131 
z
" transform="scale(0.015625)"/>
      <path id="DejaVuSans-Bold-64" d="M 2919 2988 
L 2919 4863 
L 4044 4863 
L 4044 0 
L 2919 0 
L 2919 506 
Q 2688 197 2409 53 
Q 2131 -91 1766 -91 
Q 1119 -91 703 423 
Q 288 938 288 1747 
Q 288 2556 703 3070 
Q 1119 3584 1766 3584 
Q 2128 3584 2408 3439 
Q 2688 3294 2919 2988 
z
M 2181 722 
Q 2541 722 2730 984 
Q 2919 1247 2919 1747 
Q 2919 2247 2730 2509 
Q 2541 2772 2181 2772 
Q 1825 2772 1636 2509 
Q 1447 2247 1447 1747 
Q 1447 1247 1636 984 
Q 1825 722 2181 722 
z
" transform="scale(0.015625)"/>
      <path id="DejaVuSans-Bold-72" d="M 3138 2547 
Q 2991 2616 2845 2648 
Q 2700 2681 2553 2681 
Q 2122 2681 1889 2404 
Q 1656 2128 1656 1613 
L 1656 0 
L 538 0 
L 538 3500 
L 1656 3500 
L 1656 2925 
Q 1872 3269 2151 3426 
Q 2431 3584 2822 3584 
Q 2878 3584 2943 3579 
Q 3009 3575 3134 3559 
L 3138 2547 
z
" transform="scale(0.015625)"/>
      <path id="DejaVuSans-Bold-20" transform="scale(0.015625)"/>
      <path id="DejaVuSans-Bold-47" d="M 4781 347 
Q 4331 128 3847 18 
Q 3363 -91 2847 -91 
Q 1681 -91 1000 561 
Q 319 1213 319 2328 
Q 319 3456 1012 4103 
Q 1706 4750 2913 4750 
Q 3378 4750 3804 4662 
Q 4231 4575 4609 4403 
L 4609 3438 
Q 4219 3659 3833 3768 
Q 3447 3878 3059 3878 
Q 2341 3878 1952 3476 
Q 1563 3075 1563 2328 
Q 1563 1588 1938 1184 
Q 2313 781 3003 781 
Q 3191 781 3352 804 
Q 3513 828 3641 878 
L 3641 1784 
L 2906 1784 
L 2906 2591 
L 4781 2591 
L 4781 347 
z
" transform="scale(0.015625)"/>
      <path id="DejaVuSans-Bold-69" d="M 538 3500 
L 1656 3500 
L 1656 0 
L 538 0 
L 538 3500 
z
M 538 4863 
L 1656 4863 
L 1656 3950 
L 538 3950 
L 538 4863 
z
" transform="scale(0.015625)"/>
      <path id="DejaVuSans-Bold-65" d="M 4031 1759 
L 4031 1441 
L 1416 1441 
Q 1456 1047 1700 850 
Q 1944 653 2381 653 
Q 2734 653 3104 758 
Q 3475 863 3866 1075 
L 3866 213 
Q 3469 63 3072 -14 
Q 2675 -91 2278 -91 
Q 1328 -91 801 392 
Q 275 875 275 1747 
Q 275 2603 792 3093 
Q 1309 3584 2216 3584 
Q 3041 3584 3536 3087 
Q 4031 2591 4031 1759 
z
M 2881 2131 
Q 2881 2450 2695 2645 
Q 2509 2841 2209 2841 
Q 1884 2841 1681 2658 
Q 1478 2475 1428 2131 
L 2881 2131 
z
" transform="scale(0.015625)"/>
     </defs>
     <use xlink:href="#DejaVuSans-Bold-53"/>
     <use xlink:href="#DejaVuSans-Bold-74" x="72.021484"/>
     <use xlink:href="#DejaVuSans-Bold-61" x="119.824219"/>
     <use xlink:href="#DejaVuSans-Bold-6e" x="187.304688"/>
     <use xlink:href="#DejaVuSans-Bold-64" x="258.496094"/>
     <use xlink:href="#DejaVuSans-Bold-61" x="330.078125"/>
     <use xlink:href="#DejaVuSans-Bold-72" x="397.558594"/>
     <use xlink:href="#DejaVuSans-Bold-64" x="446.875"/>
     <use xlink:href="#DejaVuSans-Bold-20" x="518.457031"/>
     <use xlink:href="#DejaVuSans-Bold-47" x="553.271484"/>
     <use xlink:href="#DejaVuSans-Bold-72" x="635.351562"/>
     <use xlink:href="#DejaVuSans-Bold-61" x="684.667969"/>
     <use xlink:href="#DejaVuSans-Bold-64" x="752.148438"/>
     <use xlink:href="#DejaVuSans-Bold-69" x="823.730469"/>
     <use xlink:href="#DejaVuSans-Bold-65" x="858.007812"/>
     <use xlink:href="#DejaVuSans-Bold-6e" x="925.830078"/>
     <use xlink:href="#DejaVuSans-Bold-74" x="997.021484"/>
    </g>
    <!-- $\theta_{k+1} = \theta_k - \eta\nabla\mathcal{L}$ -->
    <g style="fill: #d62728" transform="translate(121.04 87.249725) scale(0.1 -0.1)">
     <defs>
      <path id="DejaVuSans-Oblique-3b8" d="M 2913 2219 
L 925 2219 
Q 791 1284 928 888 
Q 1100 400 1566 400 
Q 2034 400 2391 891 
Q 2703 1322 2913 2219 
z
M 3009 2750 
Q 3094 3638 2984 3950 
Q 2813 4444 2353 4444 
Q 1875 4444 1525 3956 
Q 1250 3563 1034 2750 
L 3009 2750 
z
M 2444 4913 
Q 3194 4913 3494 4250 
Q 3794 3591 3566 2422 
Q 3341 1256 2781 594 
Q 2225 -72 1475 -72 
Q 722 -72 425 594 
Q 128 1256 353 2422 
Q 581 3591 1134 4250 
Q 1691 4913 2444 4913 
z
" transform="scale(0.015625)"/>
      <path id="DejaVuSans-Oblique-6b" d="M 1172 4863 
L 1747 4863 
L 1197 2028 
L 3169 3500 
L 3916 3500 
L 1716 1825 
L 3322 0 
L 2625 0 
L 1131 1709 
L 800 0 
L 225 0 
L 1172 4863 
z
" transform="scale(0.015625)"/>
      <path id="DejaVuSans-2b" d="M 2944 4013 
L 2944 2272 
L 4684 2272 
L 4684 1741 
L 2944 1741 
L 2944 0 
L 2419 0 
L 2419 1741 
L 678 1741 
L 678 2272 
L 2419 2272 
L 2419 4013 
L 2944 4013 
z
" transform="scale(0.015625)"/>
      <path id="DejaVuSans-31" d="M 794 531 
L 1825 531 
L 1825 4091 
L 703 3866 
L 703 4441 
L 1819 4666 
L 2450 4666 
L 2450 531 
L 3481 531 
L 3481 0 
L 794 0 
L 794 531 
z
" transform="scale(0.015625)"/>
      <path id="DejaVuSans-3d" d="M 678 2906 
L 4684 2906 
L 4684 2381 
L 678 2381 
L 678 2906 
z
M 678 1631 
L 4684 1631 
L 4684 1100 
L 678 1100 
L 678 1631 
z
" transform="scale(0.015625)"/>
      <path id="DejaVuSans-2212" d="M 678 2272 
L 4684 2272 
L 4684 1741 
L 678 1741 
L 678 2272 
z
" transform="scale(0.015625)"/>
      <path id="DejaVuSans-Oblique-3b7" d="M 3703 2113 
L 3034 -1331 
L 2459 -1331 
L 3125 2094 
Q 3222 2591 3075 2838 
Q 2931 3084 2544 3084 
Q 2078 3084 1750 2788 
Q 1425 2491 1325 1978 
L 941 0 
L 363 0 
L 1044 3500 
L 1622 3500 
L 1516 2956 
Q 1781 3272 2094 3428 
Q 2403 3584 2769 3584 
Q 3372 3584 3609 3213 
Q 3844 2838 3703 2113 
z
" transform="scale(0.015625)"/>
      <path id="DejaVuSans-2207" d="M 2138 659 
L 3444 4047 
L 831 4047 
L 2138 659 
z
M 1791 0 
L -19 4603 
L 4300 4603 
L 2491 0 
L 1791 0 
z
" transform="scale(0.015625)"/>
      <path id="STIXNonUnicode-Italic-e238" d="M 4070 915 
L 4179 800 
Q 3347 -45 2413 -45 
Q 2157 -45 1850 26 
Q 1395 122 1146 122 
Q 1005 122 672 61 
Q 339 0 192 0 
L 230 154 
Q 582 154 730 749 
L 1178 2566 
Q 1286 3008 1516 3353 
Q 1747 3699 2025 3894 
Q 2304 4090 2585 4189 
Q 2867 4288 3123 4288 
Q 3443 4288 3593 4083 
Q 3744 3878 3744 3584 
Q 3744 3347 3593 3200 
Q 3443 3053 3226 3053 
Q 3085 3053 2995 3149 
Q 2906 3245 2906 3379 
Q 2906 3482 2957 3552 
Q 3008 3622 3065 3644 
Q 3123 3667 3174 3705 
Q 3226 3744 3226 3789 
Q 3226 4032 2854 4032 
Q 2522 4032 2310 3785 
Q 2099 3539 1990 3132 
Q 1882 2726 1795 2284 
Q 1709 1843 1549 1363 
Q 1389 883 1158 589 
L 1158 563 
Q 1363 704 1888 704 
Q 2227 704 2460 544 
Q 2694 384 2963 384 
Q 3507 384 4070 915 
z
" transform="scale(0.015625)"/>
     </defs>
     <use xlink:href="#DejaVuSans-Oblique-3b8" transform="translate(0 0.234375)"/>
     <use xlink:href="#DejaVuSans-Oblique-6b" transform="translate(61.181641 -16.171875) scale(0.7)"/>
     <use xlink:href="#DejaVuSans-2b" transform="translate(115.356445 -16.171875) scale(0.7)"/>
     <use xlink:href="#DejaVuSans-31" transform="translate(187.646484 -16.171875) scale(0.7)"/>
     <use xlink:href="#DejaVuSans-3d" transform="translate(254.399414 0.234375)"/>
     <use xlink:href="#DejaVuSans-Oblique-3b8" transform="translate(357.670898 0.234375)"/>
     <use xlink:href="#DejaVuSans-Oblique-6b" transform="translate(418.852539 -16.171875) scale(0.7)"/>
     <use xlink:href="#DejaVuSans-2212" transform="translate(481.606445 0.234375)"/>
     <use xlink:href="#DejaVuSans-Oblique-3b7" transform="translate(584.87793 0.234375)"/>
     <use xlink:href="#DejaVuSans-2207" transform="translate(648.256836 0.234375)"/>
     <use xlink:href="#STIXNonUnicode-Italic-e238" transform="translate(715.151367 0.234375)"/>
    </g>
   </g>
   <g id="text_2">
    <!-- •  Flat $\mathbb{R}^d$ geometry -->
    <g style="fill: #222222" transform="translate(43.9416 109.2424) scale(0.095 -0.095)">
     <defs>
      <path id="DejaVuSansDisplay-2022" d="M 959 2381 
Q 959 2769 1229 3036 
Q 1500 3303 1894 3303 
Q 2281 3303 2548 3036 
Q 2816 2769 2816 2381 
Q 2816 1991 2547 1722 
Q 2278 1453 1888 1453 
Q 1497 1453 1228 1722 
Q 959 1991 959 2381 
z
" transform="scale(0.015625)"/>
      <path id="DejaVuSans-20" transform="scale(0.015625)"/>
      <path id="DejaVuSans-46" d="M 628 4666 
L 3309 4666 
L 3309 4134 
L 1259 4134 
L 1259 2759 
L 3109 2759 
L 3109 2228 
L 1259 2228 
L 1259 0 
L 628 0 
L 628 4666 
z
" transform="scale(0.015625)"/>
      <path id="DejaVuSans-6c" d="M 603 4863 
L 1178 4863 
L 1178 0 
L 603 0 
L 603 4863 
z
" transform="scale(0.015625)"/>
      <path id="DejaVuSans-61" d="M 2194 1759 
Q 1497 1759 1228 1600 
Q 959 1441 959 1056 
Q 959 750 1161 570 
Q 1363 391 1709 391 
Q 2188 391 2477 730 
Q 2766 1069 2766 1631 
L 2766 1759 
L 2194 1759 
z
M 3341 1997 
L 3341 0 
L 2766 0 
L 2766 531 
Q 2569 213 2275 61 
Q 1981 -91 1556 -91 
Q 1019 -91 701 211 
Q 384 513 384 1019 
Q 384 1609 779 1909 
Q 1175 2209 1959 2209 
L 2766 2209 
L 2766 2266 
Q 2766 2663 2505 2880 
Q 2244 3097 1772 3097 
Q 1472 3097 1187 3025 
Q 903 2953 641 2809 
L 641 3341 
Q 956 3463 1253 3523 
Q 1550 3584 1831 3584 
Q 2591 3584 2966 3190 
Q 3341 2797 3341 1997 
z
" transform="scale(0.015625)"/>
      <path id="DejaVuSans-74" d="M 1172 4494 
L 1172 3500 
L 2356 3500 
L 2356 3053 
L 1172 3053 
L 1172 1153 
Q 1172 725 1289 603 
Q 1406 481 1766 481 
L 2356 481 
L 2356 0 
L 1766 0 
Q 1100 0 847 248 
Q 594 497 594 1153 
L 594 3053 
L 172 3053 
L 172 3500 
L 594 3500 
L 594 4494 
L 1172 4494 
z
" transform="scale(0.015625)"/>
      <path id="STIXGeneral-Italic-211d" d="M 1229 4179 
L 3360 4179 
Q 3827 4179 4108 3894 
Q 4390 3610 4390 3142 
Q 4390 2554 4060 2186 
Q 3731 1818 3149 1715 
L 4026 0 
L 2925 0 
L 2125 1690 
L 1549 1690 
L 1094 0 
L 109 0 
L 1229 4179 
z
M 3866 3821 
L 3392 2022 
Q 3770 2144 3962 2438 
Q 4154 2733 4154 3136 
Q 4154 3584 3866 3821 
z
M 3142 1978 
L 3648 3872 
Q 3450 3942 3296 3942 
L 2150 3942 
L 1613 1926 
L 2630 1926 
Q 2957 1926 3142 1978 
z
M 3629 237 
L 2899 1696 
Q 2829 1683 2682 1683 
Q 2630 1683 2531 1686 
Q 2432 1690 2387 1690 
L 3072 237 
L 3629 237 
z
M 1907 3942 
L 1408 3942 
L 416 237 
L 915 237 
L 1907 3942 
z
" transform="scale(0.015625)"/>
      <path id="DejaVuSans-Oblique-64" d="M 2675 525 
Q 2444 222 2128 65 
Q 1813 -91 1428 -91 
Q 903 -91 598 267 
Q 294 625 294 1247 
Q 294 1766 478 2236 
Q 663 2706 1013 3078 
Q 1244 3325 1534 3454 
Q 1825 3584 2144 3584 
Q 2481 3584 2739 3421 
Q 2997 3259 3138 2956 
L 3513 4863 
L 4091 4863 
L 3144 0 
L 2566 0 
L 2675 525 
z
M 891 1350 
Q 891 897 1095 644 
Q 1300 391 1663 391 
Q 1931 391 2161 520 
Q 2391 650 2566 903 
Q 2750 1166 2856 1509 
Q 2963 1853 2963 2188 
Q 2963 2622 2758 2865 
Q 2553 3109 2194 3109 
Q 1922 3109 1687 2981 
Q 1453 2853 1288 2613 
Q 1106 2353 998 2009 
Q 891 1666 891 1350 
z
" transform="scale(0.015625)"/>
      <path id="DejaVuSans-67" d="M 2906 1791 
Q 2906 2416 2648 2759 
Q 2391 3103 1925 3103 
Q 1463 3103 1205 2759 
Q 947 2416 947 1791 
Q 947 1169 1205 825 
Q 1463 481 1925 481 
Q 2391 481 2648 825 
Q 2906 1169 2906 1791 
z
M 3481 434 
Q 3481 -459 3084 -895 
Q 2688 -1331 1869 -1331 
Q 1566 -1331 1297 -1286 
Q 1028 -1241 775 -1147 
L 775 -588 
Q 1028 -725 1275 -790 
Q 1522 -856 1778 -856 
Q 2344 -856 2625 -561 
Q 2906 -266 2906 331 
L 2906 616 
Q 2728 306 2450 153 
Q 2172 0 1784 0 
Q 1141 0 747 490 
Q 353 981 353 1791 
Q 353 2603 747 3093 
Q 1141 3584 1784 3584 
Q 2172 3584 2450 3431 
Q 2728 3278 2906 2969 
L 2906 3500 
L 3481 3500 
L 3481 434 
z
" transform="scale(0.015625)"/>
      <path id="DejaVuSans-65" d="M 3597 1894 
L 3597 1613 
L 953 1613 
Q 991 1019 1311 708 
Q 1631 397 2203 397 
Q 2534 397 2845 478 
Q 3156 559 3463 722 
L 3463 178 
Q 3153 47 2828 -22 
Q 2503 -91 2169 -91 
Q 1331 -91 842 396 
Q 353 884 353 1716 
Q 353 2575 817 3079 
Q 1281 3584 2069 3584 
Q 2775 3584 3186 3129 
Q 3597 2675 3597 1894 
z
M 3022 2063 
Q 3016 2534 2758 2815 
Q 2500 3097 2075 3097 
Q 1594 3097 1305 2825 
Q 1016 2553 972 2059 
L 3022 2063 
z
" transform="scale(0.015625)"/>
      <path id="DejaVuSans-6f" d="M 1959 3097 
Q 1497 3097 1228 2736 
Q 959 2375 959 1747 
Q 959 1119 1226 758 
Q 1494 397 1959 397 
Q 2419 397 2687 759 
Q 2956 1122 2956 1747 
Q 2956 2369 2687 2733 
Q 2419 3097 1959 3097 
z
M 1959 3584 
Q 2709 3584 3137 3096 
Q 3566 2609 3566 1747 
Q 3566 888 3137 398 
Q 2709 -91 1959 -91 
Q 1206 -91 779 398 
Q 353 888 353 1747 
Q 353 2609 779 3096 
Q 1206 3584 1959 3584 
z
" transform="scale(0.015625)"/>
      <path id="DejaVuSans-6d" d="M 3328 2828 
Q 3544 3216 3844 3400 
Q 4144 3584 4550 3584 
Q 5097 3584 5394 3201 
Q 5691 2819 5691 2113 
L 5691 0 
L 5113 0 
L 5113 2094 
Q 5113 2597 4934 2840 
Q 4756 3084 4391 3084 
Q 3944 3084 3684 2787 
Q 3425 2491 3425 1978 
L 3425 0 
L 2847 0 
L 2847 2094 
Q 2847 2600 2669 2842 
Q 2491 3084 2119 3084 
Q 1678 3084 1418 2786 
Q 1159 2488 1159 1978 
L 1159 0 
L 581 0 
L 581 3500 
L 1159 3500 
L 1159 2956 
Q 1356 3278 1631 3431 
Q 1906 3584 2284 3584 
Q 2666 3584 2933 3390 
Q 3200 3197 3328 2828 
z
" transform="scale(0.015625)"/>
      <path id="DejaVuSans-72" d="M 2631 2963 
Q 2534 3019 2420 3045 
Q 2306 3072 2169 3072 
Q 1681 3072 1420 2755 
Q 1159 2438 1159 1844 
L 1159 0 
L 581 0 
L 581 3500 
L 1159 3500 
L 1159 2956 
Q 1341 3275 1631 3429 
Q 1922 3584 2338 3584 
Q 2397 3584 2469 3576 
Q 2541 3569 2628 3553 
L 2631 2963 
z
" transform="scale(0.015625)"/>
      <path id="DejaVuSans-79" d="M 2059 -325 
Q 1816 -950 1584 -1140 
Q 1353 -1331 966 -1331 
L 506 -1331 
L 506 -850 
L 844 -850 
Q 1081 -850 1212 -737 
Q 1344 -625 1503 -206 
L 1606 56 
L 191 3500 
L 800 3500 
L 1894 763 
L 2988 3500 
L 3597 3500 
L 2059 -325 
z
" transform="scale(0.015625)"/>
     </defs>
     <use xlink:href="#DejaVuSansDisplay-2022" transform="translate(0 0.529687)"/>
     <use xlink:href="#DejaVuSans-20" transform="translate(58.984375 0.529687)"/>
     <use xlink:href="#DejaVuSans-20" transform="translate(90.771484 0.529687)"/>
     <use xlink:href="#DejaVuSans-46" transform="translate(122.558594 0.529687)"/>
     <use xlink:href="#DejaVuSans-6c" transform="translate(180.078125 0.529687)"/>
     <use xlink:href="#DejaVuSans-61" transform="translate(207.861328 0.529687)"/>
     <use xlink:href="#DejaVuSans-74" transform="translate(269.140625 0.529687)"/>
     <use xlink:href="#DejaVuSans-20" transform="translate(308.349609 0.529687)"/>
     <use xlink:href="#STIXGeneral-Italic-211d" transform="translate(340.136719 0.529687)"/>
     <use xlink:href="#DejaVuSans-Oblique-64" transform="translate(414.788159 38.810937) scale(0.7)"/>
     <use xlink:href="#DejaVuSans-20" transform="translate(461.956128 0.529687)"/>
     <use xlink:href="#DejaVuSans-67" transform="translate(493.743237 0.529687)"/>
     <use xlink:href="#DejaVuSans-65" transform="translate(557.219799 0.529687)"/>
     <use xlink:href="#DejaVuSans-6f" transform="translate(618.743237 0.529687)"/>
     <use xlink:href="#DejaVuSans-6d" transform="translate(679.924878 0.529687)"/>
     <use xlink:href="#DejaVuSans-65" transform="translate(777.336987 0.529687)"/>
     <use xlink:href="#DejaVuSans-74" transform="translate(838.860424 0.529687)"/>
     <use xlink:href="#DejaVuSans-72" transform="translate(878.069409 0.529687)"/>
     <use xlink:href="#DejaVuSans-79" transform="translate(919.18269 0.529687)"/>
    </g>
   </g>
   <g id="text_3">
    <!-- •  Ignores manifold curvature -->
    <g style="fill: #222222" transform="translate(43.9416 136.505316) scale(0.095 -0.095)">
     <defs>
      <path id="DejaVuSans-2022" d="M 959 2381 
Q 959 2769 1229 3036 
Q 1500 3303 1894 3303 
Q 2281 3303 2548 3036 
Q 2816 2769 2816 2381 
Q 2816 1991 2547 1722 
Q 2278 1453 1888 1453 
Q 1497 1453 1228 1722 
Q 959 1991 959 2381 
z
" transform="scale(0.015625)"/>
      <path id="DejaVuSans-49" d="M 628 4666 
L 1259 4666 
L 1259 0 
L 628 0 
L 628 4666 
z
" transform="scale(0.015625)"/>
      <path id="DejaVuSans-6e" d="M 3513 2113 
L 3513 0 
L 2938 0 
L 2938 2094 
Q 2938 2591 2744 2837 
Q 2550 3084 2163 3084 
Q 1697 3084 1428 2787 
Q 1159 2491 1159 1978 
L 1159 0 
L 581 0 
L 581 3500 
L 1159 3500 
L 1159 2956 
Q 1366 3272 1645 3428 
Q 1925 3584 2291 3584 
Q 2894 3584 3203 3211 
Q 3513 2838 3513 2113 
z
" transform="scale(0.015625)"/>
      <path id="DejaVuSans-73" d="M 2834 3397 
L 2834 2853 
Q 2591 2978 2328 3040 
Q 2066 3103 1784 3103 
Q 1356 3103 1142 2972 
Q 928 2841 928 2578 
Q 928 2378 1081 2264 
Q 1234 2150 1697 2047 
L 1894 2003 
Q 2506 1872 2764 1633 
Q 3022 1394 3022 966 
Q 3022 478 2636 193 
Q 2250 -91 1575 -91 
Q 1294 -91 989 -36 
Q 684 19 347 128 
L 347 722 
Q 666 556 975 473 
Q 1284 391 1588 391 
Q 1994 391 2212 530 
Q 2431 669 2431 922 
Q 2431 1156 2273 1281 
Q 2116 1406 1581 1522 
L 1381 1569 
Q 847 1681 609 1914 
Q 372 2147 372 2553 
Q 372 3047 722 3315 
Q 1072 3584 1716 3584 
Q 2034 3584 2315 3537 
Q 2597 3491 2834 3397 
z
" transform="scale(0.015625)"/>
      <path id="DejaVuSans-69" d="M 603 3500 
L 1178 3500 
L 1178 0 
L 603 0 
L 603 3500 
z
M 603 4863 
L 1178 4863 
L 1178 4134 
L 603 4134 
L 603 4863 
z
" transform="scale(0.015625)"/>
      <path id="DejaVuSans-66" d="M 2375 4863 
L 2375 4384 
L 1825 4384 
Q 1516 4384 1395 4259 
Q 1275 4134 1275 3809 
L 1275 3500 
L 2222 3500 
L 2222 3053 
L 1275 3053 
L 1275 0 
L 697 0 
L 697 3053 
L 147 3053 
L 147 3500 
L 697 3500 
L 697 3744 
Q 697 4328 969 4595 
Q 1241 4863 1831 4863 
L 2375 4863 
z
" transform="scale(0.015625)"/>
      <path id="DejaVuSans-64" d="M 2906 2969 
L 2906 4863 
L 3481 4863 
L 3481 0 
L 2906 0 
L 2906 525 
Q 2725 213 2448 61 
Q 2172 -91 1784 -91 
Q 1150 -91 751 415 
Q 353 922 353 1747 
Q 353 2572 751 3078 
Q 1150 3584 1784 3584 
Q 2172 3584 2448 3432 
Q 2725 3281 2906 2969 
z
M 947 1747 
Q 947 1113 1208 752 
Q 1469 391 1925 391 
Q 2381 391 2643 752 
Q 2906 1113 2906 1747 
Q 2906 2381 2643 2742 
Q 2381 3103 1925 3103 
Q 1469 3103 1208 2742 
Q 947 2381 947 1747 
z
" transform="scale(0.015625)"/>
      <path id="DejaVuSans-63" d="M 3122 3366 
L 3122 2828 
Q 2878 2963 2633 3030 
Q 2388 3097 2138 3097 
Q 1578 3097 1268 2742 
Q 959 2388 959 1747 
Q 959 1106 1268 751 
Q 1578 397 2138 397 
Q 2388 397 2633 464 
Q 2878 531 3122 666 
L 3122 134 
Q 2881 22 2623 -34 
Q 2366 -91 2075 -91 
Q 1284 -91 818 406 
Q 353 903 353 1747 
Q 353 2603 823 3093 
Q 1294 3584 2113 3584 
Q 2378 3584 2631 3529 
Q 2884 3475 3122 3366 
z
" transform="scale(0.015625)"/>
      <path id="DejaVuSans-75" d="M 544 1381 
L 544 3500 
L 1119 3500 
L 1119 1403 
Q 1119 906 1312 657 
Q 1506 409 1894 409 
Q 2359 409 2629 706 
Q 2900 1003 2900 1516 
L 2900 3500 
L 3475 3500 
L 3475 0 
L 2900 0 
L 2900 538 
Q 2691 219 2414 64 
Q 2138 -91 1772 -91 
Q 1169 -91 856 284 
Q 544 659 544 1381 
z
M 1991 3584 
L 1991 3584 
z
" transform="scale(0.015625)"/>
      <path id="DejaVuSans-76" d="M 191 3500 
L 800 3500 
L 1894 563 
L 2988 3500 
L 3597 3500 
L 2284 0 
L 1503 0 
L 191 3500 
z
" transform="scale(0.015625)"/>
     </defs>
     <use xlink:href="#DejaVuSans-2022"/>
     <use xlink:href="#DejaVuSans-20" x="58.984375"/>
     <use xlink:href="#DejaVuSans-20" x="90.771484"/>
     <use xlink:href="#DejaVuSans-49" x="122.558594"/>
     <use xlink:href="#DejaVuSans-67" x="152.050781"/>
     <use xlink:href="#DejaVuSans-6e" x="215.527344"/>
     <use xlink:href="#DejaVuSans-6f" x="278.90625"/>
     <use xlink:href="#DejaVuSans-72" x="340.087891"/>
     <use xlink:href="#DejaVuSans-65" x="378.951172"/>
     <use xlink:href="#DejaVuSans-73" x="440.474609"/>
     <use xlink:href="#DejaVuSans-20" x="492.574219"/>
     <use xlink:href="#DejaVuSans-6d" x="524.361328"/>
     <use xlink:href="#DejaVuSans-61" x="621.773438"/>
     <use xlink:href="#DejaVuSans-6e" x="683.052734"/>
     <use xlink:href="#DejaVuSans-69" x="746.431641"/>
     <use xlink:href="#DejaVuSans-66" x="774.214844"/>
     <use xlink:href="#DejaVuSans-6f" x="809.419922"/>
     <use xlink:href="#DejaVuSans-6c" x="870.601562"/>
     <use xlink:href="#DejaVuSans-64" x="898.384766"/>
     <use xlink:href="#DejaVuSans-20" x="961.861328"/>
     <use xlink:href="#DejaVuSans-63" x="993.648438"/>
     <use xlink:href="#DejaVuSans-75" x="1048.628906"/>
     <use xlink:href="#DejaVuSans-72" x="1112.007812"/>
     <use xlink:href="#DejaVuSans-76" x="1153.121094"/>
     <use xlink:href="#DejaVuSans-61" x="1212.300781"/>
     <use xlink:href="#DejaVuSans-74" x="1273.580078"/>
     <use xlink:href="#DejaVuSans-75" x="1312.789062"/>
     <use xlink:href="#DejaVuSans-72" x="1376.167969"/>
     <use xlink:href="#DejaVuSans-65" x="1415.03125"/>
    </g>
   </g>
   <g id="text_4">
    <!-- •  Slow on ill-conditioned $\mathcal{I}$ -->
    <g style="fill: #222222" transform="translate(43.9416 165.289716) scale(0.095 -0.095)">
     <defs>
      <path id="DejaVuSans-53" d="M 3425 4513 
L 3425 3897 
Q 3066 4069 2747 4153 
Q 2428 4238 2131 4238 
Q 1616 4238 1336 4038 
Q 1056 3838 1056 3469 
Q 1056 3159 1242 3001 
Q 1428 2844 1947 2747 
L 2328 2669 
Q 3034 2534 3370 2195 
Q 3706 1856 3706 1288 
Q 3706 609 3251 259 
Q 2797 -91 1919 -91 
Q 1588 -91 1214 -16 
Q 841 59 441 206 
L 441 856 
Q 825 641 1194 531 
Q 1563 422 1919 422 
Q 2459 422 2753 634 
Q 3047 847 3047 1241 
Q 3047 1584 2836 1778 
Q 2625 1972 2144 2069 
L 1759 2144 
Q 1053 2284 737 2584 
Q 422 2884 422 3419 
Q 422 4038 858 4394 
Q 1294 4750 2059 4750 
Q 2388 4750 2728 4690 
Q 3069 4631 3425 4513 
z
" transform="scale(0.015625)"/>
      <path id="DejaVuSans-77" d="M 269 3500 
L 844 3500 
L 1563 769 
L 2278 3500 
L 2956 3500 
L 3675 769 
L 4391 3500 
L 4966 3500 
L 4050 0 
L 3372 0 
L 2619 2869 
L 1863 0 
L 1184 0 
L 269 3500 
z
" transform="scale(0.015625)"/>
      <path id="DejaVuSans-2d" d="M 313 2009 
L 1997 2009 
L 1997 1497 
L 313 1497 
L 313 2009 
z
" transform="scale(0.015625)"/>
      <path id="STIXNonUnicode-Italic-e235" d="M 3782 4237 
L 3744 4083 
Q 3482 4083 3347 4067 
Q 3213 4051 3069 3977 
Q 2925 3904 2838 3753 
Q 2752 3603 2675 3334 
L 1920 710 
Q 1901 634 1901 557 
Q 1901 352 2208 352 
Q 2790 352 3283 819 
L 3398 698 
Q 3008 320 2566 160 
Q 2125 0 1549 0 
L 243 0 
L 282 154 
Q 467 154 556 160 
Q 646 166 777 201 
Q 909 237 982 310 
Q 1056 384 1139 521 
Q 1222 659 1280 870 
L 1946 3187 
Q 2061 3590 2061 3674 
Q 2061 3878 1754 3878 
Q 1523 3878 1203 3750 
Q 883 3622 678 3411 
L 570 3533 
Q 947 3904 1385 4070 
Q 1824 4237 2579 4237 
L 3782 4237 
z
" transform="scale(0.015625)"/>
     </defs>
     <use xlink:href="#DejaVuSansDisplay-2022" transform="translate(0 0.015625)"/>
     <use xlink:href="#DejaVuSans-20" transform="translate(58.984375 0.015625)"/>
     <use xlink:href="#DejaVuSans-20" transform="translate(90.771484 0.015625)"/>
     <use xlink:href="#DejaVuSans-53" transform="translate(122.558594 0.015625)"/>
     <use xlink:href="#DejaVuSans-6c" transform="translate(186.035156 0.015625)"/>
     <use xlink:href="#DejaVuSans-6f" transform="translate(213.818359 0.015625)"/>
     <use xlink:href="#DejaVuSans-77" transform="translate(275 0.015625)"/>
     <use xlink:href="#DejaVuSans-20" transform="translate(356.787109 0.015625)"/>
     <use xlink:href="#DejaVuSans-6f" transform="translate(388.574219 0.015625)"/>
     <use xlink:href="#DejaVuSans-6e" transform="translate(449.755859 0.015625)"/>
     <use xlink:href="#DejaVuSans-20" transform="translate(513.134766 0.015625)"/>
     <use xlink:href="#DejaVuSans-69" transform="translate(544.921875 0.015625)"/>
     <use xlink:href="#DejaVuSans-6c" transform="translate(572.705078 0.015625)"/>
     <use xlink:href="#DejaVuSans-6c" transform="translate(600.488281 0.015625)"/>
     <use xlink:href="#DejaVuSans-2d" transform="translate(628.271484 0.015625)"/>
     <use xlink:href="#DejaVuSans-63" transform="translate(664.355469 0.015625)"/>
     <use xlink:href="#DejaVuSans-6f" transform="translate(719.335938 0.015625)"/>
     <use xlink:href="#DejaVuSans-6e" transform="translate(780.517578 0.015625)"/>
     <use xlink:href="#DejaVuSans-64" transform="translate(843.896484 0.015625)"/>
     <use xlink:href="#DejaVuSans-69" transform="translate(907.373047 0.015625)"/>
     <use xlink:href="#DejaVuSans-74" transform="translate(935.15625 0.015625)"/>
     <use xlink:href="#DejaVuSans-69" transform="translate(974.365234 0.015625)"/>
     <use xlink:href="#DejaVuSans-6f" transform="translate(1002.148438 0.015625)"/>
     <use xlink:href="#DejaVuSans-6e" transform="translate(1063.330078 0.015625)"/>
     <use xlink:href="#DejaVuSans-65" transform="translate(1126.708984 0.015625)"/>
     <use xlink:href="#DejaVuSans-64" transform="translate(1188.232422 0.015625)"/>
     <use xlink:href="#DejaVuSans-20" transform="translate(1251.708984 0.015625)"/>
     <use xlink:href="#STIXNonUnicode-Italic-e235" transform="translate(1283.496094 0.015625)"/>
    </g>
   </g>
   <g id="text_5">
    <!-- •  $O(\kappa(\mathcal{I}))$ iterations -->
    <g style="fill: #222222" transform="translate(43.9416 194.074116) scale(0.095 -0.095)">
     <defs>
      <path id="DejaVuSans-Oblique-4f" d="M 2919 4238 
Q 2400 4238 2003 3986 
Q 1606 3734 1313 3219 
Q 1125 2891 1026 2522 
Q 928 2153 928 1778 
Q 928 1128 1239 775 
Q 1550 422 2119 422 
Q 2631 422 3032 676 
Q 3434 931 3719 1434 
Q 3909 1772 4009 2142 
Q 4109 2513 4109 2881 
Q 4109 3528 3796 3883 
Q 3484 4238 2919 4238 
z
M 2100 -91 
Q 1241 -91 748 418 
Q 256 928 256 1813 
Q 256 2319 448 2847 
Q 641 3375 978 3788 
Q 1375 4272 1862 4511 
Q 2350 4750 2938 4750 
Q 3794 4750 4287 4245 
Q 4781 3741 4781 2869 
Q 4781 2331 4593 1812 
Q 4406 1294 4056 872 
Q 3656 384 3173 146 
Q 2691 -91 2100 -91 
z
" transform="scale(0.015625)"/>
      <path id="DejaVuSans-28" d="M 1984 4856 
Q 1566 4138 1362 3434 
Q 1159 2731 1159 2009 
Q 1159 1288 1364 580 
Q 1569 -128 1984 -844 
L 1484 -844 
Q 1016 -109 783 600 
Q 550 1309 550 2009 
Q 550 2706 781 3412 
Q 1013 4119 1484 4856 
L 1984 4856 
z
" transform="scale(0.015625)"/>
      <path id="DejaVuSans-Oblique-3ba" d="M 938 3500 
L 1531 3500 
L 1247 2047 
L 3041 3500 
L 3741 3500 
L 2106 2181 
L 3275 0 
L 2572 0 
L 1628 1806 
L 1122 1403 
L 850 0 
L 256 0 
L 938 3500 
z
" transform="scale(0.015625)"/>
      <path id="DejaVuSans-29" d="M 513 4856 
L 1013 4856 
Q 1481 4119 1714 3412 
Q 1947 2706 1947 2009 
Q 1947 1309 1714 600 
Q 1481 -109 1013 -844 
L 513 -844 
Q 928 -128 1133 580 
Q 1338 1288 1338 2009 
Q 1338 2731 1133 3434 
Q 928 4138 513 4856 
z
" transform="scale(0.015625)"/>
     </defs>
     <use xlink:href="#DejaVuSansDisplay-2022" transform="translate(0 0.015625)"/>
     <use xlink:href="#DejaVuSans-20" transform="translate(58.984375 0.015625)"/>
     <use xlink:href="#DejaVuSans-20" transform="translate(90.771484 0.015625)"/>
     <use xlink:href="#DejaVuSans-Oblique-4f" transform="translate(122.558594 0.015625)"/>
     <use xlink:href="#DejaVuSans-28" transform="translate(201.269531 0.015625)"/>
     <use xlink:href="#DejaVuSans-Oblique-3ba" transform="translate(240.283203 0.015625)"/>
     <use xlink:href="#DejaVuSans-28" transform="translate(299.21875 0.015625)"/>
     <use xlink:href="#STIXNonUnicode-Italic-e235" transform="translate(338.232422 0.015625)"/>
     <use xlink:href="#DejaVuSans-29" transform="translate(395.732407 0.015625)"/>
     <use xlink:href="#DejaVuSans-29" transform="translate(434.746078 0.015625)"/>
     <use xlink:href="#DejaVuSans-20" transform="translate(473.75975 0.015625)"/>
     <use xlink:href="#DejaVuSans-69" transform="translate(505.54686 0.015625)"/>
     <use xlink:href="#DejaVuSans-74" transform="translate(533.330063 0.015625)"/>
     <use xlink:href="#DejaVuSans-65" transform="translate(572.539047 0.015625)"/>
     <use xlink:href="#DejaVuSans-72" transform="translate(634.062485 0.015625)"/>
     <use xlink:href="#DejaVuSans-61" transform="translate(675.175766 0.015625)"/>
     <use xlink:href="#DejaVuSans-74" transform="translate(736.455063 0.015625)"/>
     <use xlink:href="#DejaVuSans-69" transform="translate(775.664047 0.015625)"/>
     <use xlink:href="#DejaVuSans-6f" transform="translate(803.44725 0.015625)"/>
     <use xlink:href="#DejaVuSans-6e" transform="translate(864.628891 0.015625)"/>
     <use xlink:href="#DejaVuSans-73" transform="translate(928.007797 0.015625)"/>
    </g>
   </g>
  </g>
  <g id="axes_2">
   <g id="patch_3">
    <path d="M 334.4454 215.64 
L 622.2546 215.64 
Q 634.5018 215.64 634.5018 208.8672 
L 634.5018 53.0928 
Q 634.5018 46.32 622.2546 46.32 
L 334.4454 46.32 
Q 322.1982 46.32 322.1982 53.0928 
L 322.1982 208.8672 
Q 322.1982 215.64 334.4454 215.64 
z
" clip-path="url(#p09a330aa40)" style="fill: #27ae60; fill-opacity: 0.094118; stroke: #27ae60; stroke-width: 2; stroke-linejoin: miter"/>
   </g>
   <g id="text_6">
    <!-- Natural Gradient -->
    <g style="fill: #27ae60" transform="translate(430.970313 75.930037) scale(0.1 -0.1)">
     <defs>
      <path id="DejaVuSans-Bold-4e" d="M 588 4666 
L 1931 4666 
L 3628 1466 
L 3628 4666 
L 4769 4666 
L 4769 0 
L 3425 0 
L 1728 3200 
L 1728 0 
L 588 0 
L 588 4666 
z
" transform="scale(0.015625)"/>
      <path id="DejaVuSans-Bold-75" d="M 500 1363 
L 500 3500 
L 1625 3500 
L 1625 3150 
Q 1625 2866 1622 2436 
Q 1619 2006 1619 1863 
Q 1619 1441 1641 1255 
Q 1663 1069 1716 984 
Q 1784 875 1895 815 
Q 2006 756 2150 756 
Q 2500 756 2700 1025 
Q 2900 1294 2900 1772 
L 2900 3500 
L 4019 3500 
L 4019 0 
L 2900 0 
L 2900 506 
Q 2647 200 2364 54 
Q 2081 -91 1741 -91 
Q 1134 -91 817 281 
Q 500 653 500 1363 
z
" transform="scale(0.015625)"/>
      <path id="DejaVuSans-Bold-6c" d="M 538 4863 
L 1656 4863 
L 1656 0 
L 538 0 
L 538 4863 
z
" transform="scale(0.015625)"/>
     </defs>
     <use xlink:href="#DejaVuSans-Bold-4e"/>
     <use xlink:href="#DejaVuSans-Bold-61" x="83.691406"/>
     <use xlink:href="#DejaVuSans-Bold-74" x="151.171875"/>
     <use xlink:href="#DejaVuSans-Bold-75" x="198.974609"/>
     <use xlink:href="#DejaVuSans-Bold-72" x="270.166016"/>
     <use xlink:href="#DejaVuSans-Bold-61" x="319.482422"/>
     <use xlink:href="#DejaVuSans-Bold-6c" x="386.962891"/>
     <use xlink:href="#DejaVuSans-Bold-20" x="421.240234"/>
     <use xlink:href="#DejaVuSans-Bold-47" x="456.054688"/>
     <use xlink:href="#DejaVuSans-Bold-72" x="538.134766"/>
     <use xlink:href="#DejaVuSans-Bold-61" x="587.451172"/>
     <use xlink:href="#DejaVuSans-Bold-64" x="654.931641"/>
     <use xlink:href="#DejaVuSans-Bold-69" x="726.513672"/>
     <use xlink:href="#DejaVuSans-Bold-65" x="760.791016"/>
     <use xlink:href="#DejaVuSans-Bold-6e" x="828.613281"/>
     <use xlink:href="#DejaVuSans-Bold-74" x="899.804688"/>
    </g>
    <!-- $\theta_{k+1} = \theta_k - \eta\,\mathcal{I}(\theta)^{-1}\nabla\mathcal{L}$ -->
    <g style="fill: #27ae60" transform="translate(423.1 88.809725) scale(0.1 -0.1)">
     <use xlink:href="#DejaVuSans-Oblique-3b8" transform="translate(0 0.684375)"/>
     <use xlink:href="#DejaVuSans-Oblique-6b" transform="translate(61.181641 -15.721875) scale(0.7)"/>
     <use xlink:href="#DejaVuSans-2b" transform="translate(115.356445 -15.721875) scale(0.7)"/>
     <use xlink:href="#DejaVuSans-31" transform="translate(187.646484 -15.721875) scale(0.7)"/>
     <use xlink:href="#DejaVuSans-3d" transform="translate(254.399414 0.684375)"/>
     <use xlink:href="#DejaVuSans-Oblique-3b8" transform="translate(357.670898 0.684375)"/>
     <use xlink:href="#DejaVuSans-Oblique-6b" transform="translate(418.852539 -15.721875) scale(0.7)"/>
     <use xlink:href="#DejaVuSans-2212" transform="translate(481.606445 0.684375)"/>
     <use xlink:href="#DejaVuSans-Oblique-3b7" transform="translate(584.87793 0.684375)"/>
     <use xlink:href="#STIXNonUnicode-Italic-e235" transform="translate(664.492512 0.684375)"/>
     <use xlink:href="#DejaVuSans-28" transform="translate(721.992497 0.684375)"/>
     <use xlink:href="#DejaVuSans-Oblique-3b8" transform="translate(761.006169 0.684375)"/>
     <use xlink:href="#DejaVuSans-29" transform="translate(822.187809 0.684375)"/>
     <use xlink:href="#DejaVuSans-2212" transform="translate(862.158513 38.965625) scale(0.7)"/>
     <use xlink:href="#DejaVuSans-31" transform="translate(920.810856 38.965625) scale(0.7)"/>
     <use xlink:href="#DejaVuSans-2207" transform="translate(968.081364 0.684375)"/>
     <use xlink:href="#STIXNonUnicode-Italic-e238" transform="translate(1034.975895 0.684375)"/>
    </g>
   </g>
   <g id="text_7">
    <!-- •  Riemannian metric $\mathcal{I}(\theta)$ -->
    <g style="fill: #222222" transform="translate(362.0016 107.720916) scale(0.095 -0.095)">
     <defs>
      <path id="DejaVuSans-52" d="M 2841 2188 
Q 3044 2119 3236 1894 
Q 3428 1669 3622 1275 
L 4263 0 
L 3584 0 
L 2988 1197 
Q 2756 1666 2539 1819 
Q 2322 1972 1947 1972 
L 1259 1972 
L 1259 0 
L 628 0 
L 628 4666 
L 2053 4666 
Q 2853 4666 3247 4331 
Q 3641 3997 3641 3322 
Q 3641 2881 3436 2590 
Q 3231 2300 2841 2188 
z
M 1259 4147 
L 1259 2491 
L 2053 2491 
Q 2509 2491 2742 2702 
Q 2975 2913 2975 3322 
Q 2975 3731 2742 3939 
Q 2509 4147 2053 4147 
L 1259 4147 
z
" transform="scale(0.015625)"/>
     </defs>
     <use xlink:href="#DejaVuSansDisplay-2022" transform="translate(0 0.234375)"/>
     <use xlink:href="#DejaVuSans-20" transform="translate(58.984375 0.234375)"/>
     <use xlink:href="#DejaVuSans-20" transform="translate(90.771484 0.234375)"/>
     <use xlink:href="#DejaVuSans-52" transform="translate(122.558594 0.234375)"/>
     <use xlink:href="#DejaVuSans-69" transform="translate(192.041016 0.234375)"/>
     <use xlink:href="#DejaVuSans-65" transform="translate(219.824219 0.234375)"/>
     <use xlink:href="#DejaVuSans-6d" transform="translate(281.347656 0.234375)"/>
     <use xlink:href="#DejaVuSans-61" transform="translate(378.759766 0.234375)"/>
     <use xlink:href="#DejaVuSans-6e" transform="translate(440.039062 0.234375)"/>
     <use xlink:href="#DejaVuSans-6e" transform="translate(503.417969 0.234375)"/>
     <use xlink:href="#DejaVuSans-69" transform="translate(566.796875 0.234375)"/>
     <use xlink:href="#DejaVuSans-61" transform="translate(594.580078 0.234375)"/>
     <use xlink:href="#DejaVuSans-6e" transform="translate(655.859375 0.234375)"/>
     <use xlink:href="#DejaVuSans-20" transform="translate(719.238281 0.234375)"/>
     <use xlink:href="#DejaVuSans-6d" transform="translate(751.025391 0.234375)"/>
     <use xlink:href="#DejaVuSans-65" transform="translate(848.4375 0.234375)"/>
     <use xlink:href="#DejaVuSans-74" transform="translate(909.960938 0.234375)"/>
     <use xlink:href="#DejaVuSans-72" transform="translate(949.169922 0.234375)"/>
     <use xlink:href="#DejaVuSans-69" transform="translate(990.283203 0.234375)"/>
     <use xlink:href="#DejaVuSans-63" transform="translate(1018.066406 0.234375)"/>
     <use xlink:href="#DejaVuSans-20" transform="translate(1073.046875 0.234375)"/>
     <use xlink:href="#STIXNonUnicode-Italic-e235" transform="translate(1104.833984 0.234375)"/>
     <use xlink:href="#DejaVuSans-28" transform="translate(1162.333969 0.234375)"/>
     <use xlink:href="#DejaVuSans-Oblique-3b8" transform="translate(1201.347641 0.234375)"/>
     <use xlink:href="#DejaVuSans-29" transform="translate(1262.529282 0.234375)"/>
    </g>
   </g>
   <g id="text_8">
    <!-- •  Adapts to manifold geometry -->
    <g style="fill: #222222" transform="translate(362.0016 136.505316) scale(0.095 -0.095)">
     <defs>
      <path id="DejaVuSans-41" d="M 2188 4044 
L 1331 1722 
L 3047 1722 
L 2188 4044 
z
M 1831 4666 
L 2547 4666 
L 4325 0 
L 3669 0 
L 3244 1197 
L 1141 1197 
L 716 0 
L 50 0 
L 1831 4666 
z
" transform="scale(0.015625)"/>
      <path id="DejaVuSans-70" d="M 1159 525 
L 1159 -1331 
L 581 -1331 
L 581 3500 
L 1159 3500 
L 1159 2969 
Q 1341 3281 1617 3432 
Q 1894 3584 2278 3584 
Q 2916 3584 3314 3078 
Q 3713 2572 3713 1747 
Q 3713 922 3314 415 
Q 2916 -91 2278 -91 
Q 1894 -91 1617 61 
Q 1341 213 1159 525 
z
M 3116 1747 
Q 3116 2381 2855 2742 
Q 2594 3103 2138 3103 
Q 1681 3103 1420 2742 
Q 1159 2381 1159 1747 
Q 1159 1113 1420 752 
Q 1681 391 2138 391 
Q 2594 391 2855 752 
Q 3116 1113 3116 1747 
z
" transform="scale(0.015625)"/>
     </defs>
     <use xlink:href="#DejaVuSans-2022"/>
     <use xlink:href="#DejaVuSans-20" x="58.984375"/>
     <use xlink:href="#DejaVuSans-20" x="90.771484"/>
     <use xlink:href="#DejaVuSans-41" x="122.558594"/>
     <use xlink:href="#DejaVuSans-64" x="189.216797"/>
     <use xlink:href="#DejaVuSans-61" x="252.693359"/>
     <use xlink:href="#DejaVuSans-70" x="313.972656"/>
     <use xlink:href="#DejaVuSans-74" x="377.449219"/>
     <use xlink:href="#DejaVuSans-73" x="416.658203"/>
     <use xlink:href="#DejaVuSans-20" x="468.757812"/>
     <use xlink:href="#DejaVuSans-74" x="500.544922"/>
     <use xlink:href="#DejaVuSans-6f" x="539.753906"/>
     <use xlink:href="#DejaVuSans-20" x="600.935547"/>
     <use xlink:href="#DejaVuSans-6d" x="632.722656"/>
     <use xlink:href="#DejaVuSans-61" x="730.134766"/>
     <use xlink:href="#DejaVuSans-6e" x="791.414062"/>
     <use xlink:href="#DejaVuSans-69" x="854.792969"/>
     <use xlink:href="#DejaVuSans-66" x="882.576172"/>
     <use xlink:href="#DejaVuSans-6f" x="917.78125"/>
     <use xlink:href="#DejaVuSans-6c" x="978.962891"/>
     <use xlink:href="#DejaVuSans-64" x="1006.746094"/>
     <use xlink:href="#DejaVuSans-20" x="1070.222656"/>
     <use xlink:href="#DejaVuSans-67" x="1102.009766"/>
     <use xlink:href="#DejaVuSans-65" x="1165.486328"/>
     <use xlink:href="#DejaVuSans-6f" x="1227.009766"/>
     <use xlink:href="#DejaVuSans-6d" x="1288.191406"/>
     <use xlink:href="#DejaVuSans-65" x="1385.603516"/>
     <use xlink:href="#DejaVuSans-74" x="1447.126953"/>
     <use xlink:href="#DejaVuSans-72" x="1486.335938"/>
     <use xlink:href="#DejaVuSans-79" x="1527.449219"/>
    </g>
   </g>
   <g id="text_9">
    <!-- •  Reparametrisation-invariant -->
    <g style="fill: #222222" transform="translate(362.0016 165.289716) scale(0.095 -0.095)">
     <use xlink:href="#DejaVuSans-2022"/>
     <use xlink:href="#DejaVuSans-20" x="58.984375"/>
     <use xlink:href="#DejaVuSans-20" x="90.771484"/>
     <use xlink:href="#DejaVuSans-52" x="122.558594"/>
     <use xlink:href="#DejaVuSans-65" x="187.541016"/>
     <use xlink:href="#DejaVuSans-70" x="249.064453"/>
     <use xlink:href="#DejaVuSans-61" x="312.541016"/>
     <use xlink:href="#DejaVuSans-72" x="373.820312"/>
     <use xlink:href="#DejaVuSans-61" x="414.933594"/>
     <use xlink:href="#DejaVuSans-6d" x="476.212891"/>
     <use xlink:href="#DejaVuSans-65" x="573.625"/>
     <use xlink:href="#DejaVuSans-74" x="635.148438"/>
     <use xlink:href="#DejaVuSans-72" x="674.357422"/>
     <use xlink:href="#DejaVuSans-69" x="715.470703"/>
     <use xlink:href="#DejaVuSans-73" x="743.253906"/>
     <use xlink:href="#DejaVuSans-61" x="795.353516"/>
     <use xlink:href="#DejaVuSans-74" x="856.632812"/>
     <use xlink:href="#DejaVuSans-69" x="895.841797"/>
     <use xlink:href="#DejaVuSans-6f" x="923.625"/>
     <use xlink:href="#DejaVuSans-6e" x="984.806641"/>
     <use xlink:href="#DejaVuSans-2d" x="1048.185547"/>
     <use xlink:href="#DejaVuSans-69" x="1084.269531"/>
     <use xlink:href="#DejaVuSans-6e" x="1112.052734"/>
     <use xlink:href="#DejaVuSans-76" x="1175.431641"/>
     <use xlink:href="#DejaVuSans-61" x="1234.611328"/>
     <use xlink:href="#DejaVuSans-72" x="1295.890625"/>
     <use xlink:href="#DejaVuSans-69" x="1337.003906"/>
     <use xlink:href="#DejaVuSans-61" x="1364.787109"/>
     <use xlink:href="#DejaVuSans-6e" x="1426.066406"/>
     <use xlink:href="#DejaVuSans-74" x="1489.445312"/>
    </g>
   </g>
   <g id="text_10">
    <!-- •  $O(1)$ on exp. families (MLE step) -->
    <g style="fill: #222222" transform="translate(362.0016 194.0756) scale(0.095 -0.095)">
     <defs>
      <path id="DejaVuSans-78" d="M 3513 3500 
L 2247 1797 
L 3578 0 
L 2900 0 
L 1881 1375 
L 863 0 
L 184 0 
L 1544 1831 
L 300 3500 
L 978 3500 
L 1906 2253 
L 2834 3500 
L 3513 3500 
z
" transform="scale(0.015625)"/>
      <path id="DejaVuSans-2e" d="M 684 794 
L 1344 794 
L 1344 0 
L 684 0 
L 684 794 
z
" transform="scale(0.015625)"/>
      <path id="DejaVuSans-4d" d="M 628 4666 
L 1569 4666 
L 2759 1491 
L 3956 4666 
L 4897 4666 
L 4897 0 
L 4281 0 
L 4281 4097 
L 3078 897 
L 2444 897 
L 1241 4097 
L 1241 0 
L 628 0 
L 628 4666 
z
" transform="scale(0.015625)"/>
      <path id="DejaVuSans-4c" d="M 628 4666 
L 1259 4666 
L 1259 531 
L 3531 531 
L 3531 0 
L 628 0 
L 628 4666 
z
" transform="scale(0.015625)"/>
      <path id="DejaVuSans-45" d="M 628 4666 
L 3578 4666 
L 3578 4134 
L 1259 4134 
L 1259 2753 
L 3481 2753 
L 3481 2222 
L 1259 2222 
L 1259 531 
L 3634 531 
L 3634 0 
L 628 0 
L 628 4666 
z
" transform="scale(0.015625)"/>
     </defs>
     <use xlink:href="#DejaVuSansDisplay-2022" transform="translate(0 0.015625)"/>
     <use xlink:href="#DejaVuSans-20" transform="translate(58.984375 0.015625)"/>
     <use xlink:href="#DejaVuSans-20" transform="translate(90.771484 0.015625)"/>
     <use xlink:href="#DejaVuSans-Oblique-4f" transform="translate(122.558594 0.015625)"/>
     <use xlink:href="#DejaVuSans-28" transform="translate(201.269531 0.015625)"/>
     <use xlink:href="#DejaVuSans-31" transform="translate(240.283203 0.015625)"/>
     <use xlink:href="#DejaVuSans-29" transform="translate(303.90625 0.015625)"/>
     <use xlink:href="#DejaVuSans-20" transform="translate(342.919922 0.015625)"/>
     <use xlink:href="#DejaVuSans-6f" transform="translate(374.707031 0.015625)"/>
     <use xlink:href="#DejaVuSans-6e" transform="translate(435.888672 0.015625)"/>
     <use xlink:href="#DejaVuSans-20" transform="translate(499.267578 0.015625)"/>
     <use xlink:href="#DejaVuSans-65" transform="translate(531.054688 0.015625)"/>
     <use xlink:href="#DejaVuSans-78" transform="translate(592.578125 0.015625)"/>
     <use xlink:href="#DejaVuSans-70" transform="translate(651.757812 0.015625)"/>
     <use xlink:href="#DejaVuSans-2e" transform="translate(715.234375 0.015625)"/>
     <use xlink:href="#DejaVuSans-20" transform="translate(747.021484 0.015625)"/>
     <use xlink:href="#DejaVuSans-66" transform="translate(778.808594 0.015625)"/>
     <use xlink:href="#DejaVuSans-61" transform="translate(814.013672 0.015625)"/>
     <use xlink:href="#DejaVuSans-6d" transform="translate(875.292969 0.015625)"/>
     <use xlink:href="#DejaVuSans-69" transform="translate(972.705078 0.015625)"/>
     <use xlink:href="#DejaVuSans-6c" transform="translate(1000.488281 0.015625)"/>
     <use xlink:href="#DejaVuSans-69" transform="translate(1028.271484 0.015625)"/>
     <use xlink:href="#DejaVuSans-65" transform="translate(1056.054688 0.015625)"/>
     <use xlink:href="#DejaVuSans-73" transform="translate(1117.578125 0.015625)"/>
     <use xlink:href="#DejaVuSans-20" transform="translate(1169.677734 0.015625)"/>
     <use xlink:href="#DejaVuSans-28" transform="translate(1201.464844 0.015625)"/>
     <use xlink:href="#DejaVuSans-4d" transform="translate(1240.478516 0.015625)"/>
     <use xlink:href="#DejaVuSans-4c" transform="translate(1326.757812 0.015625)"/>
     <use xlink:href="#DejaVuSans-45" transform="translate(1382.470703 0.015625)"/>
     <use xlink:href="#DejaVuSans-20" transform="translate(1445.654297 0.015625)"/>
     <use xlink:href="#DejaVuSans-73" transform="translate(1477.441406 0.015625)"/>
     <use xlink:href="#DejaVuSans-74" transform="translate(1529.541016 0.015625)"/>
     <use xlink:href="#DejaVuSans-65" transform="translate(1568.75 0.015625)"/>
     <use xlink:href="#DejaVuSans-70" transform="translate(1630.273438 0.015625)"/>
     <use xlink:href="#DejaVuSans-29" transform="translate(1693.75 0.015625)"/>
    </g>
   </g>
  </g>
  <g id="text_11">
   <!-- Standard  vs  Natural Gradient — geometric properties -->
   <g transform="translate(168.451562 15.558281) scale(0.11 -0.11)">
    <defs>
     <path id="DejaVuSans-4e" d="M 628 4666 
L 1478 4666 
L 3547 763 
L 3547 4666 
L 4159 4666 
L 4159 0 
L 3309 0 
L 1241 3903 
L 1241 0 
L 628 0 
L 628 4666 
z
" transform="scale(0.015625)"/>
     <path id="DejaVuSans-47" d="M 3809 666 
L 3809 1919 
L 2778 1919 
L 2778 2438 
L 4434 2438 
L 4434 434 
Q 4069 175 3628 42 
Q 3188 -91 2688 -91 
Q 1594 -91 976 548 
Q 359 1188 359 2328 
Q 359 3472 976 4111 
Q 1594 4750 2688 4750 
Q 3144 4750 3555 4637 
Q 3966 4525 4313 4306 
L 4313 3634 
Q 3963 3931 3569 4081 
Q 3175 4231 2741 4231 
Q 1884 4231 1454 3753 
Q 1025 3275 1025 2328 
Q 1025 1384 1454 906 
Q 1884 428 2741 428 
Q 3075 428 3337 486 
Q 3600 544 3809 666 
z
" transform="scale(0.015625)"/>
     <path id="DejaVuSans-2014" d="M 313 1978 
L 6088 1978 
L 6088 1528 
L 313 1528 
L 313 1978 
z
" transform="scale(0.015625)"/>
    </defs>
    <use xlink:href="#DejaVuSans-53"/>
    <use xlink:href="#DejaVuSans-74" x="63.476562"/>
    <use xlink:href="#DejaVuSans-61" x="102.685547"/>
    <use xlink:href="#DejaVuSans-6e" x="163.964844"/>
    <use xlink:href="#DejaVuSans-64" x="227.34375"/>
    <use xlink:href="#DejaVuSans-61" x="290.820312"/>
    <use xlink:href="#DejaVuSans-72" x="352.099609"/>
    <use xlink:href="#DejaVuSans-64" x="391.462891"/>
    <use xlink:href="#DejaVuSans-20" x="454.939453"/>
    <use xlink:href="#DejaVuSans-20" x="486.726562"/>
    <use xlink:href="#DejaVuSans-76" x="518.513672"/>
    <use xlink:href="#DejaVuSans-73" x="577.693359"/>
    <use xlink:href="#DejaVuSans-20" x="629.792969"/>
    <use xlink:href="#DejaVuSans-20" x="661.580078"/>
    <use xlink:href="#DejaVuSans-4e" x="693.367188"/>
    <use xlink:href="#DejaVuSans-61" x="768.171875"/>
    <use xlink:href="#DejaVuSans-74" x="829.451172"/>
    <use xlink:href="#DejaVuSans-75" x="868.660156"/>
    <use xlink:href="#DejaVuSans-72" x="932.039062"/>
    <use xlink:href="#DejaVuSans-61" x="973.152344"/>
    <use xlink:href="#DejaVuSans-6c" x="1034.431641"/>
    <use xlink:href="#DejaVuSans-20" x="1062.214844"/>
    <use xlink:href="#DejaVuSans-47" x="1094.001953"/>
    <use xlink:href="#DejaVuSans-72" x="1171.492188"/>
    <use xlink:href="#DejaVuSans-61" x="1212.605469"/>
    <use xlink:href="#DejaVuSans-64" x="1273.884766"/>
    <use xlink:href="#DejaVuSans-69" x="1337.361328"/>
    <use xlink:href="#DejaVuSans-65" x="1365.144531"/>
    <use xlink:href="#DejaVuSans-6e" x="1426.667969"/>
    <use xlink:href="#DejaVuSans-74" x="1490.046875"/>
    <use xlink:href="#DejaVuSans-20" x="1529.255859"/>
    <use xlink:href="#DejaVuSans-2014" x="1561.042969"/>
    <use xlink:href="#DejaVuSans-20" x="1661.042969"/>
    <use xlink:href="#DejaVuSans-67" x="1692.830078"/>
    <use xlink:href="#DejaVuSans-65" x="1756.306641"/>
    <use xlink:href="#DejaVuSans-6f" x="1817.830078"/>
    <use xlink:href="#DejaVuSans-6d" x="1879.011719"/>
    <use xlink:href="#DejaVuSans-65" x="1976.423828"/>
    <use xlink:href="#DejaVuSans-74" x="2037.947266"/>
    <use xlink:href="#DejaVuSans-72" x="2077.15625"/>
    <use xlink:href="#DejaVuSans-69" x="2118.269531"/>
    <use xlink:href="#DejaVuSans-63" x="2146.052734"/>
    <use xlink:href="#DejaVuSans-20" x="2201.033203"/>
    <use xlink:href="#DejaVuSans-70" x="2232.820312"/>
    <use xlink:href="#DejaVuSans-72" x="2296.296875"/>
    <use xlink:href="#DejaVuSans-6f" x="2335.160156"/>
    <use xlink:href="#DejaVuSans-70" x="2396.341797"/>
    <use xlink:href="#DejaVuSans-65" x="2459.818359"/>
    <use xlink:href="#DejaVuSans-72" x="2521.341797"/>
    <use xlink:href="#DejaVuSans-74" x="2562.455078"/>
    <use xlink:href="#DejaVuSans-69" x="2601.664062"/>
    <use xlink:href="#DejaVuSans-65" x="2629.447266"/>
    <use xlink:href="#DejaVuSans-73" x="2690.970703"/>
   </g>
  </g>
 </g>
 <defs>
  <clipPath id="p24d5b47adf">
   <rect x="7.2" y="46.32" width="306.18" height="169.32"/>
  </clipPath>
  <clipPath id="p09a330aa40">
   <rect x="325.26" y="46.32" width="306.18" height="169.32"/>
  </clipPath>
 </defs>
</svg>
