<?xml version="1.0" encoding="utf-8" standalone="no"?>
<!DOCTYPE svg PUBLIC "-//W3C//DTD SVG 1.1//EN"
  "http://www.w3.org/Graphics/SVG/1.1/DTD/svg11.dtd">
<svg xmlns:xlink="http://www.w3.org/1999/xlink" width="446.685pt" height="270.54825pt" viewBox="0 0 446.685 270.54825" xmlns="http://www.w3.org/2000/svg" version="1.1">
 <metadata>
  <rdf:RDF xmlns:dc="http://purl.org/dc/elements/1.1/" xmlns:cc="http://creativecommons.org/ns#" xmlns:rdf="http://www.w3.org/1999/02/22-rdf-syntax-ns#">
   <cc:Work>
    <dc:type rdf:resource="http://purl.org/dc/dcmitype/StillImage"/>
    <dc:date>2026-03-07T11:02:34.251637</dc:date>
    <dc:format>image/svg+xml</dc:format>
    <dc:creator>
     <cc:Agent>
      <dc:title>Matplotlib v3.8.4, https://matplotlib.org/</dc:title>
     </cc:Agent>
    </dc:creator>
   </cc:Work>
  </rdf:RDF>
 </metadata>
 <defs>
  <style type="text/css">*{stroke-linejoin: round; stroke-linecap: butt}</style>
 </defs>
 <g id="figure_1">
  <g id="patch_1">
   <path d="M 0 270.54825 
L 446.685 270.54825 
L 446.685 0 
L 0 0 
z
" style="fill: #ffffff"/>
  </g>
  <g id="axes_1">
   <g id="patch_2">
    <path d="M 48.885 232.992 
L 439.485 232.992 
L 439.485 22.32 
L 48.885 22.32 
z
" style="fill: #ffffff"/>
   </g>
   <g id="matplotlib.axis_1">
    <g id="xtick_1">
     <g id="line2d_1">
      <defs>
       <path id="m4a3a989998" d="M 0 0 
L 0 3.5 
" style="stroke: #000000; stroke-width: 0.8"/>
      </defs>
      <g>
       <use xlink:href="#m4a3a989998" x="66.639545" y="232.992" style="stroke: #000000; stroke-width: 0.8"/>
      </g>
     </g>
     <g id="text_1">
      <!-- 0.0 -->
      <g transform="translate(59.483139 246.830594) scale(0.09 -0.09)">
       <defs>
        <path id="DejaVuSans-30" d="M 2034 4250 
Q 1547 4250 1301 3770 
Q 1056 3291 1056 2328 
Q 1056 1369 1301 889 
Q 1547 409 2034 409 
Q 2525 409 2770 889 
Q 3016 1369 3016 2328 
Q 3016 3291 2770 3770 
Q 2525 4250 2034 4250 
z
M 2034 4750 
Q 2819 4750 3233 4129 
Q 3647 3509 3647 2328 
Q 3647 1150 3233 529 
Q 2819 -91 2034 -91 
Q 1250 -91 836 529 
Q 422 1150 422 2328 
Q 422 3509 836 4129 
Q 1250 4750 2034 4750 
z
" transform="scale(0.015625)"/>
        <path id="DejaVuSans-2e" d="M 684 794 
L 1344 794 
L 1344 0 
L 684 0 
L 684 794 
z
" transform="scale(0.015625)"/>
       </defs>
       <use xlink:href="#DejaVuSans-30"/>
       <use xlink:href="#DejaVuSans-2e" x="63.623047"/>
       <use xlink:href="#DejaVuSans-30" x="95.410156"/>
      </g>
     </g>
    </g>
    <g id="xtick_2">
     <g id="line2d_2">
      <g>
       <use xlink:href="#m4a3a989998" x="137.657727" y="232.992" style="stroke: #000000; stroke-width: 0.8"/>
      </g>
     </g>
     <g id="text_2">
      <!-- 0.2 -->
      <g transform="translate(130.501321 246.830594) scale(0.09 -0.09)">
       <defs>
        <path id="DejaVuSans-32" d="M 1228 531 
L 3431 531 
L 3431 0 
L 469 0 
L 469 531 
Q 828 903 1448 1529 
Q 2069 2156 2228 2338 
Q 2531 2678 2651 2914 
Q 2772 3150 2772 3378 
Q 2772 3750 2511 3984 
Q 2250 4219 1831 4219 
Q 1534 4219 1204 4116 
Q 875 4013 500 3803 
L 500 4441 
Q 881 4594 1212 4672 
Q 1544 4750 1819 4750 
Q 2544 4750 2975 4387 
Q 3406 4025 3406 3419 
Q 3406 3131 3298 2873 
Q 3191 2616 2906 2266 
Q 2828 2175 2409 1742 
Q 1991 1309 1228 531 
z
" transform="scale(0.015625)"/>
       </defs>
       <use xlink:href="#DejaVuSans-30"/>
       <use xlink:href="#DejaVuSans-2e" x="63.623047"/>
       <use xlink:href="#DejaVuSans-32" x="95.410156"/>
      </g>
     </g>
    </g>
    <g id="xtick_3">
     <g id="line2d_3">
      <g>
       <use xlink:href="#m4a3a989998" x="208.675909" y="232.992" style="stroke: #000000; stroke-width: 0.8"/>
      </g>
     </g>
     <g id="text_3">
      <!-- 0.4 -->
      <g transform="translate(201.519503 246.830594) scale(0.09 -0.09)">
       <defs>
        <path id="DejaVuSans-34" d="M 2419 4116 
L 825 1625 
L 2419 1625 
L 2419 4116 
z
M 2253 4666 
L 3047 4666 
L 3047 1625 
L 3713 1625 
L 3713 1100 
L 3047 1100 
L 3047 0 
L 2419 0 
L 2419 1100 
L 313 1100 
L 313 1709 
L 2253 4666 
z
" transform="scale(0.015625)"/>
       </defs>
       <use xlink:href="#DejaVuSans-30"/>
       <use xlink:href="#DejaVuSans-2e" x="63.623047"/>
       <use xlink:href="#DejaVuSans-34" x="95.410156"/>
      </g>
     </g>
    </g>
    <g id="xtick_4">
     <g id="line2d_4">
      <g>
       <use xlink:href="#m4a3a989998" x="279.694091" y="232.992" style="stroke: #000000; stroke-width: 0.8"/>
      </g>
     </g>
     <g id="text_4">
      <!-- 0.6 -->
      <g transform="translate(272.537685 246.830594) scale(0.09 -0.09)">
       <defs>
        <path id="DejaVuSans-36" d="M 2113 2584 
Q 1688 2584 1439 2293 
Q 1191 2003 1191 1497 
Q 1191 994 1439 701 
Q 1688 409 2113 409 
Q 2538 409 2786 701 
Q 3034 994 3034 1497 
Q 3034 2003 2786 2293 
Q 2538 2584 2113 2584 
z
M 3366 4563 
L 3366 3988 
Q 3128 4100 2886 4159 
Q 2644 4219 2406 4219 
Q 1781 4219 1451 3797 
Q 1122 3375 1075 2522 
Q 1259 2794 1537 2939 
Q 1816 3084 2150 3084 
Q 2853 3084 3261 2657 
Q 3669 2231 3669 1497 
Q 3669 778 3244 343 
Q 2819 -91 2113 -91 
Q 1303 -91 875 529 
Q 447 1150 447 2328 
Q 447 3434 972 4092 
Q 1497 4750 2381 4750 
Q 2619 4750 2861 4703 
Q 3103 4656 3366 4563 
z
" transform="scale(0.015625)"/>
       </defs>
       <use xlink:href="#DejaVuSans-30"/>
       <use xlink:href="#DejaVuSans-2e" x="63.623047"/>
       <use xlink:href="#DejaVuSans-36" x="95.410156"/>
      </g>
     </g>
    </g>
    <g id="xtick_5">
     <g id="line2d_5">
      <g>
       <use xlink:href="#m4a3a989998" x="350.712273" y="232.992" style="stroke: #000000; stroke-width: 0.8"/>
      </g>
     </g>
     <g id="text_5">
      <!-- 0.8 -->
      <g transform="translate(343.555866 246.830594) scale(0.09 -0.09)">
       <defs>
        <path id="DejaVuSans-38" d="M 2034 2216 
Q 1584 2216 1326 1975 
Q 1069 1734 1069 1313 
Q 1069 891 1326 650 
Q 1584 409 2034 409 
Q 2484 409 2743 651 
Q 3003 894 3003 1313 
Q 3003 1734 2745 1975 
Q 2488 2216 2034 2216 
z
M 1403 2484 
Q 997 2584 770 2862 
Q 544 3141 544 3541 
Q 544 4100 942 4425 
Q 1341 4750 2034 4750 
Q 2731 4750 3128 4425 
Q 3525 4100 3525 3541 
Q 3525 3141 3298 2862 
Q 3072 2584 2669 2484 
Q 3125 2378 3379 2068 
Q 3634 1759 3634 1313 
Q 3634 634 3220 271 
Q 2806 -91 2034 -91 
Q 1263 -91 848 271 
Q 434 634 434 1313 
Q 434 1759 690 2068 
Q 947 2378 1403 2484 
z
M 1172 3481 
Q 1172 3119 1398 2916 
Q 1625 2713 2034 2713 
Q 2441 2713 2670 2916 
Q 2900 3119 2900 3481 
Q 2900 3844 2670 4047 
Q 2441 4250 2034 4250 
Q 1625 4250 1398 4047 
Q 1172 3844 1172 3481 
z
" transform="scale(0.015625)"/>
       </defs>
       <use xlink:href="#DejaVuSans-30"/>
       <use xlink:href="#DejaVuSans-2e" x="63.623047"/>
       <use xlink:href="#DejaVuSans-38" x="95.410156"/>
      </g>
     </g>
    </g>
    <g id="xtick_6">
     <g id="line2d_6">
      <g>
       <use xlink:href="#m4a3a989998" x="421.730455" y="232.992" style="stroke: #000000; stroke-width: 0.8"/>
      </g>
     </g>
     <g id="text_6">
      <!-- 1.0 -->
      <g transform="translate(414.574048 246.830594) scale(0.09 -0.09)">
       <defs>
        <path id="DejaVuSans-31" d="M 794 531 
L 1825 531 
L 1825 4091 
L 703 3866 
L 703 4441 
L 1819 4666 
L 2450 4666 
L 2450 531 
L 3481 531 
L 3481 0 
L 794 0 
L 794 531 
z
" transform="scale(0.015625)"/>
       </defs>
       <use xlink:href="#DejaVuSans-31"/>
       <use xlink:href="#DejaVuSans-2e" x="63.623047"/>
       <use xlink:href="#DejaVuSans-30" x="95.410156"/>
      </g>
     </g>
    </g>
    <g id="text_7">
     <!-- $t$ -->
     <g transform="translate(241.985 261.060594) scale(0.11 -0.11)">
      <defs>
       <path id="DejaVuSans-Oblique-74" d="M 2706 3500 
L 2619 3053 
L 1472 3053 
L 1100 1153 
Q 1081 1047 1072 975 
Q 1063 903 1063 863 
Q 1063 663 1183 572 
Q 1303 481 1569 481 
L 2150 481 
L 2053 0 
L 1503 0 
Q 991 0 739 200 
Q 488 400 488 806 
Q 488 878 497 964 
Q 506 1050 525 1153 
L 897 3053 
L 409 3053 
L 500 3500 
L 978 3500 
L 1172 4494 
L 1747 4494 
L 1556 3500 
L 2706 3500 
z
" transform="scale(0.015625)"/>
      </defs>
      <use xlink:href="#DejaVuSans-Oblique-74" transform="translate(0 0.78125)"/>
     </g>
    </g>
   </g>
   <g id="matplotlib.axis_2">
    <g id="ytick_1">
     <g id="line2d_7">
      <defs>
       <path id="m06ac12f138" d="M 0 0 
L -3.5 0 
" style="stroke: #000000; stroke-width: 0.8"/>
      </defs>
      <g>
       <use xlink:href="#m06ac12f138" x="48.885" y="193.101978" style="stroke: #000000; stroke-width: 0.8"/>
      </g>
     </g>
     <g id="text_8">
      <!-- 0.95 -->
      <g transform="translate(21.845938 196.521274) scale(0.09 -0.09)">
       <defs>
        <path id="DejaVuSans-39" d="M 703 97 
L 703 672 
Q 941 559 1184 500 
Q 1428 441 1663 441 
Q 2288 441 2617 861 
Q 2947 1281 2994 2138 
Q 2813 1869 2534 1725 
Q 2256 1581 1919 1581 
Q 1219 1581 811 2004 
Q 403 2428 403 3163 
Q 403 3881 828 4315 
Q 1253 4750 1959 4750 
Q 2769 4750 3195 4129 
Q 3622 3509 3622 2328 
Q 3622 1225 3098 567 
Q 2575 -91 1691 -91 
Q 1453 -91 1209 -44 
Q 966 3 703 97 
z
M 1959 2075 
Q 2384 2075 2632 2365 
Q 2881 2656 2881 3163 
Q 2881 3666 2632 3958 
Q 2384 4250 1959 4250 
Q 1534 4250 1286 3958 
Q 1038 3666 1038 3163 
Q 1038 2656 1286 2365 
Q 1534 2075 1959 2075 
z
" transform="scale(0.015625)"/>
        <path id="DejaVuSans-35" d="M 691 4666 
L 3169 4666 
L 3169 4134 
L 1269 4134 
L 1269 2991 
Q 1406 3038 1543 3061 
Q 1681 3084 1819 3084 
Q 2600 3084 3056 2656 
Q 3513 2228 3513 1497 
Q 3513 744 3044 326 
Q 2575 -91 1722 -91 
Q 1428 -91 1123 -41 
Q 819 9 494 109 
L 494 744 
Q 775 591 1075 516 
Q 1375 441 1709 441 
Q 2250 441 2565 725 
Q 2881 1009 2881 1497 
Q 2881 1984 2565 2268 
Q 2250 2553 1709 2553 
Q 1456 2553 1204 2497 
Q 953 2441 691 2322 
L 691 4666 
z
" transform="scale(0.015625)"/>
       </defs>
       <use xlink:href="#DejaVuSans-30"/>
       <use xlink:href="#DejaVuSans-2e" x="63.623047"/>
       <use xlink:href="#DejaVuSans-39" x="95.410156"/>
       <use xlink:href="#DejaVuSans-35" x="159.033203"/>
      </g>
     </g>
    </g>
    <g id="ytick_2">
     <g id="line2d_8">
      <g>
       <use xlink:href="#m06ac12f138" x="48.885" y="148.143703" style="stroke: #000000; stroke-width: 0.8"/>
      </g>
     </g>
     <g id="text_9">
      <!-- 1.00 -->
      <g transform="translate(21.845938 151.563) scale(0.09 -0.09)">
       <use xlink:href="#DejaVuSans-31"/>
       <use xlink:href="#DejaVuSans-2e" x="63.623047"/>
       <use xlink:href="#DejaVuSans-30" x="95.410156"/>
       <use xlink:href="#DejaVuSans-30" x="159.033203"/>
      </g>
     </g>
    </g>
    <g id="ytick_3">
     <g id="line2d_9">
      <g>
       <use xlink:href="#m06ac12f138" x="48.885" y="103.185429" style="stroke: #000000; stroke-width: 0.8"/>
      </g>
     </g>
     <g id="text_10">
      <!-- 1.05 -->
      <g transform="translate(21.845938 106.604726) scale(0.09 -0.09)">
       <use xlink:href="#DejaVuSans-31"/>
       <use xlink:href="#DejaVuSans-2e" x="63.623047"/>
       <use xlink:href="#DejaVuSans-30" x="95.410156"/>
       <use xlink:href="#DejaVuSans-35" x="159.033203"/>
      </g>
     </g>
    </g>
    <g id="ytick_4">
     <g id="line2d_10">
      <g>
       <use xlink:href="#m06ac12f138" x="48.885" y="58.227155" style="stroke: #000000; stroke-width: 0.8"/>
      </g>
     </g>
     <g id="text_11">
      <!-- 1.10 -->
      <g transform="translate(21.845938 61.646451) scale(0.09 -0.09)">
       <use xlink:href="#DejaVuSans-31"/>
       <use xlink:href="#DejaVuSans-2e" x="63.623047"/>
       <use xlink:href="#DejaVuSans-31" x="95.410156"/>
       <use xlink:href="#DejaVuSans-30" x="159.033203"/>
      </g>
     </g>
    </g>
    <g id="text_12">
     <!-- $S_t$ -->
     <g transform="translate(15.558281 132.826) rotate(-90) scale(0.11 -0.11)">
      <defs>
       <path id="DejaVuSans-Oblique-53" d="M 3859 4513 
L 3738 3897 
Q 3422 4066 3111 4152 
Q 2800 4238 2509 4238 
Q 1944 4238 1609 3991 
Q 1275 3744 1275 3334 
Q 1275 3109 1398 2989 
Q 1522 2869 2034 2731 
L 2413 2638 
Q 3053 2472 3303 2217 
Q 3553 1963 3553 1503 
Q 3553 797 2998 353 
Q 2444 -91 1538 -91 
Q 1166 -91 791 -17 
Q 416 56 38 206 
L 166 856 
Q 513 641 861 531 
Q 1209 422 1556 422 
Q 2147 422 2503 684 
Q 2859 947 2859 1369 
Q 2859 1650 2717 1795 
Q 2575 1941 2106 2059 
L 1728 2156 
Q 1081 2325 845 2545 
Q 609 2766 609 3163 
Q 609 3859 1145 4304 
Q 1681 4750 2541 4750 
Q 2875 4750 3203 4690 
Q 3531 4631 3859 4513 
z
" transform="scale(0.015625)"/>
      </defs>
      <use xlink:href="#DejaVuSans-Oblique-53" transform="translate(0 0.78125)"/>
      <use xlink:href="#DejaVuSans-Oblique-74" transform="translate(63.476562 -15.625) scale(0.7)"/>
     </g>
    </g>
   </g>
   <g id="line2d_11">
    <path d="M 66.639545 148.143703 
L 66.994992 150.721432 
L 67.350438 152.210567 
L 67.705885 154.863392 
L 68.061331 151.934283 
L 68.416777 152.189719 
L 68.772224 148.34577 
L 69.12767 157.718919 
L 69.483116 149.720675 
L 69.838563 150.182905 
L 70.194009 146.671353 
L 70.549455 147.340773 
L 70.904902 149.250337 
L 71.260348 146.849434 
L 71.615794 142.582873 
L 72.326687 144.34979 
L 72.682133 140.787954 
L 73.03758 145.237324 
L 73.393026 152.949557 
L 73.748473 150.906229 
L 74.103919 154.291029 
L 74.459365 163.969393 
L 74.814812 168.023315 
L 75.170258 170.33088 
L 75.881151 183.576979 
L 76.236597 183.367632 
L 76.592043 178.914644 
L 76.94749 180.036935 
L 77.302936 183.670823 
L 77.658382 181.746895 
L 78.013829 178.176571 
L 78.369275 179.630186 
L 78.724722 176.906525 
L 79.080168 171.694722 
L 79.435614 172.696041 
L 79.791061 176.707247 
L 80.501953 173.693663 
L 80.8574 168.182752 
L 81.212846 174.557949 
L 81.923739 181.918325 
L 82.279185 190.388915 
L 82.634631 189.743001 
L 82.990078 187.133656 
L 83.345524 190.714375 
L 83.700971 183.902309 
L 84.411863 176.691265 
L 84.76731 174.668775 
L 85.122756 169.879224 
L 85.478202 176.477101 
L 86.189095 170.365841 
L 86.544541 179.116083 
L 86.899988 177.370017 
L 87.255434 178.579802 
L 87.61088 174.677152 
L 87.966327 176.825877 
L 88.321773 176.886834 
L 88.677219 175.157029 
L 89.032666 179.466959 
L 89.388112 176.475508 
L 89.743559 176.966224 
L 90.099005 174.493503 
L 90.454451 177.052811 
L 90.809898 171.625953 
L 91.165344 168.574435 
L 91.52079 169.434766 
L 91.876237 166.241443 
L 92.231683 159.870912 
L 92.587129 150.746406 
L 92.942576 158.710986 
L 93.298022 154.202682 
L 93.653468 151.805036 
L 94.008915 152.253092 
L 94.364361 157.337051 
L 94.719808 150.915233 
L 95.075254 157.299934 
L 95.4307 154.392957 
L 95.786147 147.721141 
L 96.141593 155.845009 
L 96.497039 157.348675 
L 96.852486 163.926324 
L 97.207932 162.668393 
L 97.563378 154.979691 
L 97.918825 144.611656 
L 98.274271 153.671758 
L 98.629717 156.561448 
L 98.985164 152.956936 
L 99.34061 144.850005 
L 99.696057 142.653121 
L 100.051503 146.456754 
L 100.406949 144.90135 
L 100.762396 144.956213 
L 101.117842 145.971612 
L 101.473288 149.701614 
L 102.184181 146.082001 
L 102.539627 146.528426 
L 102.895074 147.633969 
L 103.25052 154.159887 
L 103.605966 156.598031 
L 103.961413 150.429946 
L 104.316859 151.37196 
L 104.672305 158.654039 
L 105.027752 151.848042 
L 105.383198 149.110808 
L 105.738645 138.23728 
L 106.094091 137.883013 
L 106.449537 140.237599 
L 106.804984 147.650875 
L 107.16043 140.815326 
L 107.515876 127.4285 
L 108.226769 135.021449 
L 108.582215 131.88934 
L 108.937662 136.174985 
L 109.648554 139.325472 
L 110.004001 138.302098 
L 110.359447 132.588729 
L 110.714894 132.442901 
L 111.07034 127.614046 
L 111.425786 129.778526 
L 111.781233 128.033871 
L 112.136679 139.123857 
L 112.492125 146.558045 
L 112.847572 142.437424 
L 113.203018 145.441477 
L 113.913911 139.600536 
L 114.269357 132.71194 
L 114.98025 123.078779 
L 115.335696 123.634854 
L 116.402035 133.570942 
L 116.757482 139.397742 
L 117.112928 142.191892 
L 117.468374 142.638107 
L 117.823821 141.310886 
L 118.179267 143.026308 
L 118.534713 152.843774 
L 118.89016 153.181498 
L 119.245606 152.003612 
L 119.601052 146.429399 
L 119.956499 143.430743 
L 120.667391 150.377711 
L 121.022838 140.02313 
L 121.378284 136.076351 
L 122.089177 115.235573 
L 122.444623 119.534432 
L 123.155516 115.006525 
L 123.866409 109.079267 
L 124.577301 107.004543 
L 124.932748 114.980582 
L 125.288194 115.826454 
L 125.64364 119.75063 
L 125.999087 119.053306 
L 126.354533 121.489116 
L 126.70998 118.192449 
L 127.065426 113.819 
L 127.776319 110.429549 
L 128.131765 109.902067 
L 128.487211 112.256787 
L 128.842658 113.100345 
L 129.198104 115.700795 
L 129.55355 113.609541 
L 129.908997 113.502968 
L 130.264443 110.376435 
L 130.619889 117.404111 
L 130.975336 112.661514 
L 131.686229 120.529118 
L 132.041675 121.538818 
L 132.397121 124.47167 
L 132.752568 122.909912 
L 133.108014 125.894962 
L 133.818907 135.824017 
L 134.174353 128.96058 
L 134.529799 128.69815 
L 134.885246 134.751878 
L 135.240692 134.677515 
L 135.596138 142.694067 
L 135.951585 133.401322 
L 136.307031 141.266808 
L 137.017924 135.917133 
L 137.37337 143.377878 
L 137.728817 141.800949 
L 138.084263 136.615886 
L 138.439709 134.157997 
L 138.795156 132.769381 
L 139.150602 127.784265 
L 139.506048 126.910592 
L 139.861495 125.115201 
L 140.216941 125.74895 
L 140.572387 122.397514 
L 140.927834 127.309259 
L 141.28328 123.122413 
L 141.638726 125.745616 
L 141.994173 131.418104 
L 142.349619 129.480933 
L 142.705066 120.56223 
L 143.060512 115.44384 
L 143.415958 118.143571 
L 143.771405 114.412725 
L 144.126851 116.790072 
L 144.482297 117.415293 
L 144.837744 116.909847 
L 145.19319 129.07005 
L 145.548636 128.036918 
L 145.904083 133.377793 
L 146.259529 136.967832 
L 146.970422 152.274507 
L 147.325868 157.037118 
L 147.681314 152.81331 
L 148.036761 144.259689 
L 148.392207 144.358721 
L 148.747654 138.699077 
L 149.1031 140.032668 
L 149.458546 149.822815 
L 149.813993 149.026265 
L 150.169439 146.714282 
L 150.524885 148.878444 
L 150.880332 147.301132 
L 151.235778 144.332659 
L 151.591224 148.72917 
L 151.946671 156.221113 
L 152.657563 158.351096 
L 153.01301 160.103809 
L 153.368456 155.07396 
L 153.723903 146.236589 
L 154.079349 148.340653 
L 154.434795 144.726807 
L 155.501134 130.64702 
L 155.856581 132.644828 
L 156.212027 128.753961 
L 156.567473 118.07631 
L 156.92292 113.784202 
L 157.278366 117.040895 
L 157.633812 113.785823 
L 157.989259 107.021964 
L 158.344705 105.013148 
L 158.700152 107.998439 
L 159.055598 99.679758 
L 159.411044 106.365279 
L 159.766491 103.633199 
L 160.121937 103.688188 
L 160.477383 110.046176 
L 160.83283 103.485887 
L 161.188276 101.583101 
L 161.543722 107.811604 
L 161.899169 104.556352 
L 162.254615 106.837795 
L 162.610061 116.937501 
L 162.965508 120.547315 
L 163.320954 119.124608 
L 163.6764 115.728416 
L 164.031847 114.818551 
L 164.387293 114.547265 
L 164.74274 112.01696 
L 165.098186 113.1079 
L 165.453632 106.796565 
L 165.809079 105.96866 
L 166.164525 104.360579 
L 166.519971 101.421474 
L 166.875418 107.064493 
L 167.230864 110.820947 
L 167.58631 102.605245 
L 167.941757 100.768459 
L 168.297203 102.257973 
L 168.652649 100.38723 
L 169.008096 102.947687 
L 169.363542 101.417124 
L 169.718989 104.963612 
L 170.074435 103.450002 
L 170.429881 111.856709 
L 170.785328 104.711204 
L 171.140774 107.427627 
L 171.49622 115.817669 
L 171.851667 116.972309 
L 172.207113 118.903493 
L 172.562559 118.066374 
L 172.918006 124.073091 
L 173.273452 121.950708 
L 173.628898 102.63441 
L 173.984345 109.453381 
L 174.339791 107.617036 
L 174.695238 109.24584 
L 175.050684 108.185093 
L 175.40613 117.78909 
L 175.761577 123.827871 
L 176.117023 121.377189 
L 176.472469 121.548359 
L 176.827916 112.859622 
L 177.183362 116.569457 
L 177.538808 115.613032 
L 177.894255 100.003037 
L 178.605147 108.898616 
L 179.31604 109.26079 
L 179.671486 104.710682 
L 180.026933 103.98332 
L 180.382379 108.006149 
L 180.737826 106.843294 
L 181.093272 92.579414 
L 181.448718 85.610485 
L 181.804165 100.688361 
L 182.159611 101.421305 
L 182.515057 106.089342 
L 182.870504 102.717722 
L 183.22595 103.616954 
L 183.581396 93.145739 
L 184.292289 83.135421 
L 184.647735 82.078319 
L 185.003182 82.267078 
L 185.358628 80.363938 
L 185.714075 73.175513 
L 186.069521 70.174856 
L 186.424967 72.092924 
L 186.780414 64.955942 
L 187.13586 63.8479 
L 187.491306 64.249063 
L 188.202199 71.749249 
L 188.557645 75.241965 
L 188.913092 90.537889 
L 189.268538 84.951522 
L 189.623984 81.81081 
L 189.979431 82.955067 
L 190.334877 77.163536 
L 191.04577 72.616835 
L 191.401216 86.2182 
L 191.756663 87.459656 
L 192.112109 84.515058 
L 193.178448 57.319366 
L 193.533894 63.810341 
L 193.889341 76.003826 
L 194.244787 72.811769 
L 194.600233 72.62563 
L 194.95568 67.237606 
L 195.311126 67.906518 
L 195.666572 66.647503 
L 196.022019 74.95197 
L 196.377465 72.436232 
L 196.732912 74.869016 
L 197.443804 70.312472 
L 197.799251 70.931145 
L 198.154697 69.135828 
L 198.510143 69.178527 
L 198.86559 64.909244 
L 199.221036 62.066227 
L 199.931929 68.345388 
L 200.287375 58.546847 
L 200.642821 59.085073 
L 200.998268 53.456715 
L 201.353714 51.195129 
L 201.709161 54.354945 
L 202.064607 58.54571 
L 202.420053 57.835951 
L 202.7755 56.355877 
L 203.130946 52.850815 
L 203.486392 59.963195 
L 203.841839 63.266447 
L 204.197285 63.764432 
L 204.552731 54.728239 
L 204.908178 67.940667 
L 205.263624 65.45652 
L 205.61907 68.43701 
L 205.974517 65.997324 
L 206.329963 68.708463 
L 206.68541 66.642552 
L 207.040856 57.836209 
L 208.107195 51.177686 
L 208.462641 55.389426 
L 208.818088 52.285115 
L 209.173534 53.430851 
L 209.52898 57.978891 
L 209.884427 58.162512 
L 210.239873 59.408001 
L 210.595319 55.128375 
L 210.950766 55.336756 
L 211.306212 58.288273 
L 211.661658 50.023961 
L 212.727998 33.519711 
L 213.083444 34.118296 
L 213.43889 36.498239 
L 213.794337 38.070071 
L 214.149783 32.576875 
L 214.505229 31.896 
L 214.860676 40.396485 
L 215.216122 40.586434 
L 215.571568 48.634858 
L 215.927015 47.657752 
L 216.637907 61.534771 
L 216.993354 60.83584 
L 217.3488 61.241595 
L 217.704247 70.491734 
L 218.059693 66.289474 
L 218.415139 54.102371 
L 218.770586 62.408729 
L 219.126032 52.119714 
L 219.836925 58.725435 
L 220.192371 59.698162 
L 220.547817 67.756467 
L 220.903264 60.452705 
L 221.25871 57.64777 
L 221.614156 61.838551 
L 221.969603 63.358305 
L 222.325049 71.781532 
L 222.680495 73.677743 
L 223.035942 68.442308 
L 223.391388 77.920303 
L 223.746835 80.291745 
L 224.102281 79.4507 
L 224.813174 66.085265 
L 225.16862 68.602725 
L 225.524066 72.685277 
L 225.879513 70.150382 
L 226.590405 73.822218 
L 226.945852 67.785174 
L 227.301298 58.285078 
L 227.656744 56.75373 
L 228.012191 57.803465 
L 228.367637 54.547117 
L 228.723084 65.122991 
L 229.07853 65.191816 
L 229.433976 71.069912 
L 229.789423 57.668063 
L 230.144869 53.569164 
L 230.500315 52.735572 
L 230.855762 53.801723 
L 231.211208 67.889741 
L 231.566654 63.874577 
L 231.922101 54.677705 
L 232.277547 58.75371 
L 232.98844 50.743398 
L 233.343886 59.453263 
L 233.699333 54.144013 
L 234.054779 46.421735 
L 234.410225 45.085328 
L 234.765672 45.411838 
L 235.121118 40.874051 
L 235.476564 49.6283 
L 235.832011 49.064688 
L 236.187457 43.021847 
L 236.542903 50.065471 
L 236.89835 44.381385 
L 237.253796 46.732301 
L 237.609242 58.480079 
L 237.964689 59.041701 
L 238.320135 64.460613 
L 238.675581 62.639619 
L 239.031028 69.154351 
L 239.386474 63.255897 
L 239.741921 67.352517 
L 240.097367 65.329544 
L 240.452813 68.610924 
L 240.80826 70.375109 
L 241.163706 63.692187 
L 241.519152 62.45285 
L 241.874599 64.631659 
L 242.230045 71.574113 
L 242.585491 65.077251 
L 242.940938 60.938236 
L 243.296384 62.736597 
L 243.65183 61.338742 
L 244.71817 77.220032 
L 245.429062 73.562391 
L 245.784509 77.65183 
L 246.495401 69.146103 
L 246.850848 68.149815 
L 247.206294 62.311955 
L 247.56174 63.888555 
L 247.917187 64.487794 
L 248.272633 61.8056 
L 248.628079 61.96325 
L 248.983526 57.466986 
L 249.338972 64.466547 
L 249.694419 56.424247 
L 250.049865 60.787659 
L 250.405311 61.678753 
L 250.760758 69.343915 
L 251.116204 65.963788 
L 251.827097 52.710346 
L 252.182543 47.947328 
L 252.537989 56.732466 
L 252.893436 61.099554 
L 253.248882 63.659538 
L 253.604328 68.846175 
L 253.959775 62.540007 
L 254.315221 61.472034 
L 254.670667 61.576064 
L 255.026114 58.803344 
L 256.092453 74.010071 
L 257.158792 66.026756 
L 257.514238 59.951488 
L 257.869685 67.517199 
L 258.225131 70.605124 
L 258.580577 69.751501 
L 258.936024 77.194864 
L 259.29147 80.096391 
L 260.357809 62.254691 
L 260.713256 61.980156 
L 261.068702 63.135014 
L 261.424148 57.035409 
L 261.779595 59.100289 
L 262.135041 57.162401 
L 262.490487 49.631145 
L 262.845934 51.682703 
L 263.20138 55.103287 
L 263.556826 55.122677 
L 264.267719 48.932489 
L 264.623165 48.012602 
L 264.978612 44.80873 
L 265.334058 53.861565 
L 265.689505 58.675267 
L 266.044951 57.722853 
L 266.400397 62.906767 
L 267.11129 77.023645 
L 267.466736 82.048777 
L 267.822183 82.99629 
L 268.177629 88.560738 
L 268.533075 87.245519 
L 268.888522 77.898372 
L 269.243968 78.67989 
L 269.599414 71.593256 
L 269.954861 69.956993 
L 270.310307 76.134142 
L 270.665753 77.517768 
L 271.0212 82.889929 
L 271.376646 78.632326 
L 271.732093 84.936922 
L 272.087539 77.631862 
L 272.442985 74.402413 
L 272.798432 85.505008 
L 273.153878 81.168731 
L 273.509324 72.557316 
L 273.864771 76.900793 
L 274.220217 71.41032 
L 274.575663 81.316568 
L 274.93111 79.896385 
L 275.286556 88.969495 
L 275.642002 86.301971 
L 275.997449 96.00064 
L 276.352895 110.119507 
L 276.708342 107.972385 
L 277.063788 95.627331 
L 277.419234 98.816591 
L 277.774681 94.291781 
L 278.130127 93.658787 
L 278.485573 95.381069 
L 278.84102 92.008492 
L 279.196466 83.00317 
L 279.551912 89.726554 
L 279.907359 86.615537 
L 280.262805 200.510651 
L 280.973698 183.097757 
L 281.329144 187.742873 
L 281.68459 179.168243 
L 282.040037 178.861397 
L 282.395483 179.638679 
L 282.75093 172.151902 
L 283.106376 170.988596 
L 283.461822 169.345403 
L 284.172715 155.150178 
L 284.528161 150.572676 
L 285.239054 165.560217 
L 285.5945 159.859961 
L 285.949947 164.499074 
L 286.305393 163.722758 
L 286.660839 169.078599 
L 287.016286 169.96671 
L 287.371732 176.29979 
L 287.727179 168.150266 
L 288.082625 173.204867 
L 288.438071 173.782113 
L 288.793518 174.687884 
L 289.148964 168.646829 
L 289.50441 175.690272 
L 289.859857 175.826222 
L 290.215303 176.834103 
L 290.926196 171.796282 
L 291.281642 174.074804 
L 291.637088 172.853564 
L 291.992535 174.686806 
L 292.347981 172.328978 
L 292.703428 172.810169 
L 293.058874 176.037889 
L 293.41432 176.145099 
L 293.769767 174.309808 
L 294.125213 162.94737 
L 294.480659 165.386908 
L 294.836106 163.816282 
L 295.191552 156.39794 
L 295.902445 175.507721 
L 296.257891 181.357123 
L 296.613337 181.890771 
L 296.968784 169.757813 
L 297.32423 167.770985 
L 297.679676 161.672077 
L 298.035123 162.760803 
L 298.746016 186.432225 
L 299.101462 181.397024 
L 299.456908 180.456099 
L 299.812355 186.810468 
L 300.167801 181.291071 
L 300.523247 188.815143 
L 301.23414 176.028016 
L 301.589586 179.783529 
L 301.945033 185.209099 
L 302.300479 181.026599 
L 302.655925 186.381532 
L 303.011372 182.118248 
L 303.366818 187.955481 
L 303.722265 183.966915 
L 304.077711 183.47631 
L 304.433157 185.572547 
L 304.788604 189.925802 
L 305.14405 188.736559 
L 305.499496 197.907791 
L 305.854943 199.212331 
L 306.210389 201.09399 
L 306.565835 197.791476 
L 306.921282 203.80428 
L 307.276728 195.508486 
L 307.632174 196.989117 
L 307.987621 202.451608 
L 308.698514 187.602787 
L 309.05396 188.492137 
L 309.409406 192.808212 
L 309.764853 192.701243 
L 310.120299 196.024397 
L 310.475745 197.506321 
L 310.831192 189.90543 
L 311.186638 187.961605 
L 311.542084 187.221048 
L 311.897531 185.496275 
L 312.252977 185.752069 
L 312.96387 177.212578 
L 313.319316 179.012393 
L 313.674762 178.463478 
L 314.030209 166.414699 
L 314.385655 164.268357 
L 314.741102 165.172213 
L 315.096548 154.789838 
L 315.451994 154.711747 
L 315.807441 160.239511 
L 316.162887 156.79671 
L 316.518333 161.316219 
L 316.87378 163.790385 
L 317.229226 162.117825 
L 317.584672 162.726424 
L 318.295565 169.260769 
L 318.651011 172.191845 
L 319.006458 166.333673 
L 319.717351 172.735722 
L 320.072797 162.499467 
L 320.428243 165.254256 
L 321.139136 150.996685 
L 321.494582 151.7454 
L 321.850029 158.921766 
L 322.205475 156.597907 
L 322.560921 153.150673 
L 322.916368 148.180914 
L 323.271814 147.782486 
L 323.982707 134.335684 
L 324.338153 139.767945 
L 324.6936 132.322422 
L 325.049046 131.381961 
L 325.404492 134.295893 
L 325.759939 135.919484 
L 326.115385 126.095792 
L 326.470831 120.890104 
L 326.826278 130.245357 
L 327.181724 129.778591 
L 327.892617 131.362624 
L 328.248063 134.003267 
L 328.603509 141.51213 
L 328.958956 137.02791 
L 329.314402 141.853227 
L 329.669848 143.727852 
L 330.380741 150.483024 
L 330.736188 146.650453 
L 331.091634 144.650321 
L 331.44708 148.077149 
L 331.802527 152.869968 
L 332.157973 155.226526 
L 332.513419 150.272289 
L 332.868866 149.598759 
L 333.224312 148.376561 
L 333.935205 151.309676 
L 334.290651 150.174274 
L 334.646097 159.508651 
L 335.001544 151.294422 
L 335.712437 158.123359 
L 336.067883 151.29262 
L 336.423329 150.127117 
L 336.778776 149.881845 
L 337.134222 152.826409 
L 337.489668 160.7099 
L 337.845115 159.746062 
L 338.200561 153.656691 
L 338.556007 158.191271 
L 338.911454 151.237335 
L 339.2669 156.937861 
L 339.622346 160.620159 
L 339.977793 158.033126 
L 340.333239 158.002738 
L 340.688686 154.468385 
L 341.044132 158.200003 
L 341.399578 163.376464 
L 341.755025 172.691163 
L 342.821364 190.864908 
L 343.17681 189.33085 
L 343.532256 192.538056 
L 343.887703 202.128888 
L 344.243149 190.067403 
L 344.598595 194.102574 
L 344.954042 200.149633 
L 345.664934 188.413554 
L 346.731274 205.870847 
L 347.08672 200.415065 
L 347.442166 201.885627 
L 347.797613 205.739884 
L 348.153059 205.847344 
L 348.508505 200.031197 
L 348.863952 206.677862 
L 349.219398 208.483981 
L 349.574844 215.035558 
L 350.285737 195.857253 
L 350.641183 191.205961 
L 350.99663 191.826869 
L 351.352076 188.582205 
L 351.707523 198.76686 
L 352.062969 197.401945 
L 352.773862 210.121325 
L 353.129308 213.444685 
L 353.484754 215.077183 
L 354.551093 207.676383 
L 354.90654 212.14929 
L 355.261986 208.901247 
L 355.617432 209.449924 
L 355.972879 203.773742 
L 356.328325 208.137496 
L 356.683771 221.205272 
L 357.039218 223.416 
L 357.394664 213.237044 
L 357.750111 210.979228 
L 358.105557 211.875578 
L 358.461003 207.634593 
L 359.171896 202.954886 
L 359.527342 205.391003 
L 359.882789 204.997421 
L 360.238235 204.003746 
L 360.593681 207.054601 
L 360.949128 212.360057 
L 361.304574 211.670831 
L 361.66002 207.023241 
L 362.370913 201.489554 
L 362.72636 199.029376 
L 363.081806 186.43123 
L 363.437252 185.127663 
L 363.792699 179.969221 
L 364.148145 170.223382 
L 364.503591 169.928772 
L 364.859038 168.576977 
L 365.214484 163.309406 
L 365.56993 154.746309 
L 366.280823 151.244036 
L 366.636269 150.750287 
L 366.991716 156.851665 
L 367.347162 151.138335 
L 367.702609 152.395183 
L 368.058055 161.077763 
L 368.413501 161.774634 
L 368.768948 170.407529 
L 369.124394 175.378598 
L 369.47984 175.244474 
L 369.835287 179.754803 
L 370.190733 174.398849 
L 370.546179 181.614217 
L 370.901626 180.25771 
L 371.257072 177.438975 
L 371.612518 170.112873 
L 371.967965 165.427322 
L 372.323411 164.185853 
L 372.678857 163.710129 
L 373.034304 163.931873 
L 373.38975 158.113117 
L 373.745197 161.355897 
L 374.100643 158.647863 
L 374.456089 159.043282 
L 374.811536 157.746273 
L 375.166982 158.993284 
L 375.522428 148.048549 
L 375.877875 151.3226 
L 376.588767 148.448857 
L 377.29966 142.839886 
L 377.655106 140.561602 
L 378.010553 135.388514 
L 378.365999 143.07626 
L 378.721446 142.93382 
L 379.076892 149.170614 
L 379.432338 147.888898 
L 380.143231 158.609164 
L 380.498677 158.823157 
L 380.854124 151.639211 
L 381.20957 148.595896 
L 381.565016 146.981716 
L 381.920463 139.664307 
L 382.275909 144.437471 
L 382.631355 155.028929 
L 382.986802 157.08233 
L 383.342248 158.393893 
L 383.697695 152.026336 
L 384.053141 140.958756 
L 384.408587 147.693987 
L 384.764034 134.817108 
L 385.11948 126.552611 
L 385.474926 122.043671 
L 385.830373 119.999272 
L 386.185819 106.999096 
L 386.541265 106.462034 
L 386.896712 108.88979 
L 387.252158 108.040541 
L 387.607604 115.227319 
L 387.963051 112.613767 
L 388.318497 113.091817 
L 389.02939 109.198057 
L 389.384836 114.728977 
L 389.740283 107.608612 
L 390.095729 112.914273 
L 390.451175 108.070814 
L 390.806622 116.44364 
L 391.162068 114.365259 
L 391.517514 118.601952 
L 391.872961 118.26789 
L 392.228407 121.597577 
L 392.583853 132.922664 
L 392.9393 138.598125 
L 393.294746 138.134207 
L 393.650192 134.789692 
L 394.005639 142.279905 
L 394.361085 153.053589 
L 394.716532 157.374417 
L 395.071978 158.336873 
L 395.782871 165.393826 
L 396.84921 152.131013 
L 397.204656 156.789367 
L 397.560102 156.29437 
L 397.915549 157.167773 
L 398.270995 164.26373 
L 398.626441 159.708984 
L 398.981888 159.156593 
L 399.337334 161.497092 
L 399.692781 154.212312 
L 400.403673 145.720911 
L 400.75912 139.431283 
L 401.114566 135.60375 
L 401.470012 142.037153 
L 401.825459 143.929951 
L 402.180905 138.64789 
L 402.536351 142.508181 
L 402.891798 142.210434 
L 403.247244 140.052274 
L 403.958137 125.574485 
L 404.313583 120.741452 
L 404.669029 121.617691 
L 405.024476 116.678214 
L 405.379922 113.770727 
L 405.735369 114.525199 
L 406.090815 107.183529 
L 406.446261 104.428717 
L 406.801708 108.374391 
L 407.157154 101.479622 
L 407.5126 102.750424 
L 407.868047 99.452096 
L 408.223493 107.541987 
L 408.578939 107.548138 
L 409.289832 117.568722 
L 409.645278 127.53436 
L 410.000725 116.153763 
L 410.356171 116.859087 
L 410.711618 115.508534 
L 411.067064 109.525542 
L 411.42251 110.088876 
L 411.777957 107.259496 
L 412.133403 114.419269 
L 412.488849 113.292281 
L 412.844296 115.407722 
L 413.199742 112.666707 
L 413.555188 111.622033 
L 413.910635 118.893072 
L 414.266081 128.549836 
L 414.621527 133.76539 
L 414.976974 129.847427 
L 415.687867 125.360534 
L 416.043313 135.823847 
L 416.398759 149.600358 
L 416.754206 152.713735 
L 417.109652 154.339887 
L 417.465098 157.337404 
L 417.820545 155.4765 
L 418.175991 156.283958 
L 418.886884 166.58521 
L 419.24233 165.812556 
L 419.597776 165.394321 
L 419.953223 165.714926 
L 420.308669 154.211707 
L 420.664115 155.496131 
L 421.019562 154.837379 
L 421.375008 159.835962 
L 421.730455 161.602716 
L 421.730455 161.602716 
" clip-path="url(#p01cef8a2fd)" style="fill: none; stroke: #2e6be5; stroke-width: 1.3; stroke-linecap: square"/>
   </g>
   <g id="patch_3">
    <path d="M 48.885 232.992 
L 48.885 22.32 
" style="fill: none; stroke: #000000; stroke-width: 0.8; stroke-linejoin: miter; stroke-linecap: square"/>
   </g>
   <g id="patch_4">
    <path d="M 48.885 232.992 
L 439.485 232.992 
" style="fill: none; stroke: #000000; stroke-width: 0.8; stroke-linejoin: miter; stroke-linecap: square"/>
   </g>
   <g id="text_13">
    <!-- Merton jump-diffusion  ($\lambda = 2.5$/yr,  $\sigma_J = 9\%$) -->
    <g transform="translate(113.205 16.32) scale(0.12 -0.12)">
     <defs>
      <path id="DejaVuSans-4d" d="M 628 4666 
L 1569 4666 
L 2759 1491 
L 3956 4666 
L 4897 4666 
L 4897 0 
L 4281 0 
L 4281 4097 
L 3078 897 
L 2444 897 
L 1241 4097 
L 1241 0 
L 628 0 
L 628 4666 
z
" transform="scale(0.015625)"/>
      <path id="DejaVuSans-65" d="M 3597 1894 
L 3597 1613 
L 953 1613 
Q 991 1019 1311 708 
Q 1631 397 2203 397 
Q 2534 397 2845 478 
Q 3156 559 3463 722 
L 3463 178 
Q 3153 47 2828 -22 
Q 2503 -91 2169 -91 
Q 1331 -91 842 396 
Q 353 884 353 1716 
Q 353 2575 817 3079 
Q 1281 3584 2069 3584 
Q 2775 3584 3186 3129 
Q 3597 2675 3597 1894 
z
M 3022 2063 
Q 3016 2534 2758 2815 
Q 2500 3097 2075 3097 
Q 1594 3097 1305 2825 
Q 1016 2553 972 2059 
L 3022 2063 
z
" transform="scale(0.015625)"/>
      <path id="DejaVuSans-72" d="M 2631 2963 
Q 2534 3019 2420 3045 
Q 2306 3072 2169 3072 
Q 1681 3072 1420 2755 
Q 1159 2438 1159 1844 
L 1159 0 
L 581 0 
L 581 3500 
L 1159 3500 
L 1159 2956 
Q 1341 3275 1631 3429 
Q 1922 3584 2338 3584 
Q 2397 3584 2469 3576 
Q 2541 3569 2628 3553 
L 2631 2963 
z
" transform="scale(0.015625)"/>
      <path id="DejaVuSans-74" d="M 1172 4494 
L 1172 3500 
L 2356 3500 
L 2356 3053 
L 1172 3053 
L 1172 1153 
Q 1172 725 1289 603 
Q 1406 481 1766 481 
L 2356 481 
L 2356 0 
L 1766 0 
Q 1100 0 847 248 
Q 594 497 594 1153 
L 594 3053 
L 172 3053 
L 172 3500 
L 594 3500 
L 594 4494 
L 1172 4494 
z
" transform="scale(0.015625)"/>
      <path id="DejaVuSans-6f" d="M 1959 3097 
Q 1497 3097 1228 2736 
Q 959 2375 959 1747 
Q 959 1119 1226 758 
Q 1494 397 1959 397 
Q 2419 397 2687 759 
Q 2956 1122 2956 1747 
Q 2956 2369 2687 2733 
Q 2419 3097 1959 3097 
z
M 1959 3584 
Q 2709 3584 3137 3096 
Q 3566 2609 3566 1747 
Q 3566 888 3137 398 
Q 2709 -91 1959 -91 
Q 1206 -91 779 398 
Q 353 888 353 1747 
Q 353 2609 779 3096 
Q 1206 3584 1959 3584 
z
" transform="scale(0.015625)"/>
      <path id="DejaVuSans-6e" d="M 3513 2113 
L 3513 0 
L 2938 0 
L 2938 2094 
Q 2938 2591 2744 2837 
Q 2550 3084 2163 3084 
Q 1697 3084 1428 2787 
Q 1159 2491 1159 1978 
L 1159 0 
L 581 0 
L 581 3500 
L 1159 3500 
L 1159 2956 
Q 1366 3272 1645 3428 
Q 1925 3584 2291 3584 
Q 2894 3584 3203 3211 
Q 3513 2838 3513 2113 
z
" transform="scale(0.015625)"/>
      <path id="DejaVuSans-20" transform="scale(0.015625)"/>
      <path id="DejaVuSans-6a" d="M 603 3500 
L 1178 3500 
L 1178 -63 
Q 1178 -731 923 -1031 
Q 669 -1331 103 -1331 
L -116 -1331 
L -116 -844 
L 38 -844 
Q 366 -844 484 -692 
Q 603 -541 603 -63 
L 603 3500 
z
M 603 4863 
L 1178 4863 
L 1178 4134 
L 603 4134 
L 603 4863 
z
" transform="scale(0.015625)"/>
      <path id="DejaVuSans-75" d="M 544 1381 
L 544 3500 
L 1119 3500 
L 1119 1403 
Q 1119 906 1312 657 
Q 1506 409 1894 409 
Q 2359 409 2629 706 
Q 2900 1003 2900 1516 
L 2900 3500 
L 3475 3500 
L 3475 0 
L 2900 0 
L 2900 538 
Q 2691 219 2414 64 
Q 2138 -91 1772 -91 
Q 1169 -91 856 284 
Q 544 659 544 1381 
z
M 1991 3584 
L 1991 3584 
z
" transform="scale(0.015625)"/>
      <path id="DejaVuSans-6d" d="M 3328 2828 
Q 3544 3216 3844 3400 
Q 4144 3584 4550 3584 
Q 5097 3584 5394 3201 
Q 5691 2819 5691 2113 
L 5691 0 
L 5113 0 
L 5113 2094 
Q 5113 2597 4934 2840 
Q 4756 3084 4391 3084 
Q 3944 3084 3684 2787 
Q 3425 2491 3425 1978 
L 3425 0 
L 2847 0 
L 2847 2094 
Q 2847 2600 2669 2842 
Q 2491 3084 2119 3084 
Q 1678 3084 1418 2786 
Q 1159 2488 1159 1978 
L 1159 0 
L 581 0 
L 581 3500 
L 1159 3500 
L 1159 2956 
Q 1356 3278 1631 3431 
Q 1906 3584 2284 3584 
Q 2666 3584 2933 3390 
Q 3200 3197 3328 2828 
z
" transform="scale(0.015625)"/>
      <path id="DejaVuSans-70" d="M 1159 525 
L 1159 -1331 
L 581 -1331 
L 581 3500 
L 1159 3500 
L 1159 2969 
Q 1341 3281 1617 3432 
Q 1894 3584 2278 3584 
Q 2916 3584 3314 3078 
Q 3713 2572 3713 1747 
Q 3713 922 3314 415 
Q 2916 -91 2278 -91 
Q 1894 -91 1617 61 
Q 1341 213 1159 525 
z
M 3116 1747 
Q 3116 2381 2855 2742 
Q 2594 3103 2138 3103 
Q 1681 3103 1420 2742 
Q 1159 2381 1159 1747 
Q 1159 1113 1420 752 
Q 1681 391 2138 391 
Q 2594 391 2855 752 
Q 3116 1113 3116 1747 
z
" transform="scale(0.015625)"/>
      <path id="DejaVuSans-2d" d="M 313 2009 
L 1997 2009 
L 1997 1497 
L 313 1497 
L 313 2009 
z
" transform="scale(0.015625)"/>
      <path id="DejaVuSans-64" d="M 2906 2969 
L 2906 4863 
L 3481 4863 
L 3481 0 
L 2906 0 
L 2906 525 
Q 2725 213 2448 61 
Q 2172 -91 1784 -91 
Q 1150 -91 751 415 
Q 353 922 353 1747 
Q 353 2572 751 3078 
Q 1150 3584 1784 3584 
Q 2172 3584 2448 3432 
Q 2725 3281 2906 2969 
z
M 947 1747 
Q 947 1113 1208 752 
Q 1469 391 1925 391 
Q 2381 391 2643 752 
Q 2906 1113 2906 1747 
Q 2906 2381 2643 2742 
Q 2381 3103 1925 3103 
Q 1469 3103 1208 2742 
Q 947 2381 947 1747 
z
" transform="scale(0.015625)"/>
      <path id="DejaVuSans-69" d="M 603 3500 
L 1178 3500 
L 1178 0 
L 603 0 
L 603 3500 
z
M 603 4863 
L 1178 4863 
L 1178 4134 
L 603 4134 
L 603 4863 
z
" transform="scale(0.015625)"/>
      <path id="DejaVuSans-66" d="M 2375 4863 
L 2375 4384 
L 1825 4384 
Q 1516 4384 1395 4259 
Q 1275 4134 1275 3809 
L 1275 3500 
L 2222 3500 
L 2222 3053 
L 1275 3053 
L 1275 0 
L 697 0 
L 697 3053 
L 147 3053 
L 147 3500 
L 697 3500 
L 697 3744 
Q 697 4328 969 4595 
Q 1241 4863 1831 4863 
L 2375 4863 
z
" transform="scale(0.015625)"/>
      <path id="DejaVuSans-73" d="M 2834 3397 
L 2834 2853 
Q 2591 2978 2328 3040 
Q 2066 3103 1784 3103 
Q 1356 3103 1142 2972 
Q 928 2841 928 2578 
Q 928 2378 1081 2264 
Q 1234 2150 1697 2047 
L 1894 2003 
Q 2506 1872 2764 1633 
Q 3022 1394 3022 966 
Q 3022 478 2636 193 
Q 2250 -91 1575 -91 
Q 1294 -91 989 -36 
Q 684 19 347 128 
L 347 722 
Q 666 556 975 473 
Q 1284 391 1588 391 
Q 1994 391 2212 530 
Q 2431 669 2431 922 
Q 2431 1156 2273 1281 
Q 2116 1406 1581 1522 
L 1381 1569 
Q 847 1681 609 1914 
Q 372 2147 372 2553 
Q 372 3047 722 3315 
Q 1072 3584 1716 3584 
Q 2034 3584 2315 3537 
Q 2597 3491 2834 3397 
z
" transform="scale(0.015625)"/>
      <path id="DejaVuSans-28" d="M 1984 4856 
Q 1566 4138 1362 3434 
Q 1159 2731 1159 2009 
Q 1159 1288 1364 580 
Q 1569 -128 1984 -844 
L 1484 -844 
Q 1016 -109 783 600 
Q 550 1309 550 2009 
Q 550 2706 781 3412 
Q 1013 4119 1484 4856 
L 1984 4856 
z
" transform="scale(0.015625)"/>
      <path id="DejaVuSans-Oblique-3bb" d="M 2350 4316 
L 3125 0 
L 2516 0 
L 2038 2588 
L 328 0 
L -281 0 
L 1903 3356 
L 1794 3975 
Q 1725 4369 1391 4369 
L 1091 4369 
L 1184 4863 
L 1550 4856 
Q 2253 4847 2350 4316 
z
" transform="scale(0.015625)"/>
      <path id="DejaVuSans-3d" d="M 678 2906 
L 4684 2906 
L 4684 2381 
L 678 2381 
L 678 2906 
z
M 678 1631 
L 4684 1631 
L 4684 1100 
L 678 1100 
L 678 1631 
z
" transform="scale(0.015625)"/>
      <path id="DejaVuSans-2f" d="M 1625 4666 
L 2156 4666 
L 531 -594 
L 0 -594 
L 1625 4666 
z
" transform="scale(0.015625)"/>
      <path id="DejaVuSans-79" d="M 2059 -325 
Q 1816 -950 1584 -1140 
Q 1353 -1331 966 -1331 
L 506 -1331 
L 506 -850 
L 844 -850 
Q 1081 -850 1212 -737 
Q 1344 -625 1503 -206 
L 1606 56 
L 191 3500 
L 800 3500 
L 1894 763 
L 2988 3500 
L 3597 3500 
L 2059 -325 
z
" transform="scale(0.015625)"/>
      <path id="DejaVuSans-2c" d="M 750 794 
L 1409 794 
L 1409 256 
L 897 -744 
L 494 -744 
L 750 256 
L 750 794 
z
" transform="scale(0.015625)"/>
      <path id="DejaVuSans-Oblique-3c3" d="M 2219 3044 
Q 1744 3044 1422 2700 
Q 1081 2341 969 1747 
Q 844 1119 1044 756 
Q 1241 397 1706 397 
Q 2166 397 2503 759 
Q 2844 1122 2966 1747 
Q 3075 2319 2881 2700 
Q 2700 3044 2219 3044 
z
M 2309 3503 
L 4219 3500 
L 4106 2925 
L 3463 2925 
Q 3706 2438 3575 1747 
Q 3406 888 2884 400 
Q 2359 -91 1609 -91 
Q 856 -91 525 400 
Q 194 888 363 1747 
Q 528 2609 1050 3097 
Q 1484 3503 2309 3503 
z
" transform="scale(0.015625)"/>
      <path id="DejaVuSans-Oblique-4a" d="M 1069 4666 
L 1703 4666 
L 856 325 
Q 691 -522 298 -901 
Q -94 -1281 -800 -1281 
L -1050 -1281 
L -947 -750 
L -750 -750 
Q -328 -750 -109 -509 
Q 109 -269 225 325 
L 1069 4666 
z
" transform="scale(0.015625)"/>
      <path id="DejaVuSans-25" d="M 4653 2053 
Q 4381 2053 4226 1822 
Q 4072 1591 4072 1178 
Q 4072 772 4226 539 
Q 4381 306 4653 306 
Q 4919 306 5073 539 
Q 5228 772 5228 1178 
Q 5228 1588 5073 1820 
Q 4919 2053 4653 2053 
z
M 4653 2450 
Q 5147 2450 5437 2106 
Q 5728 1763 5728 1178 
Q 5728 594 5436 251 
Q 5144 -91 4653 -91 
Q 4153 -91 3862 251 
Q 3572 594 3572 1178 
Q 3572 1766 3864 2108 
Q 4156 2450 4653 2450 
z
M 1428 4353 
Q 1159 4353 1004 4120 
Q 850 3888 850 3481 
Q 850 3069 1003 2837 
Q 1156 2606 1428 2606 
Q 1700 2606 1854 2837 
Q 2009 3069 2009 3481 
Q 2009 3884 1853 4118 
Q 1697 4353 1428 4353 
z
M 4250 4750 
L 4750 4750 
L 1831 -91 
L 1331 -91 
L 4250 4750 
z
M 1428 4750 
Q 1922 4750 2215 4408 
Q 2509 4066 2509 3481 
Q 2509 2891 2217 2550 
Q 1925 2209 1428 2209 
Q 931 2209 642 2551 
Q 353 2894 353 3481 
Q 353 4063 643 4406 
Q 934 4750 1428 4750 
z
" transform="scale(0.015625)"/>
      <path id="DejaVuSans-29" d="M 513 4856 
L 1013 4856 
Q 1481 4119 1714 3412 
Q 1947 2706 1947 2009 
Q 1947 1309 1714 600 
Q 1481 -109 1013 -844 
L 513 -844 
Q 928 -128 1133 580 
Q 1338 1288 1338 2009 
Q 1338 2731 1133 3434 
Q 928 4138 513 4856 
z
" transform="scale(0.015625)"/>
     </defs>
     <use xlink:href="#DejaVuSans-4d" transform="translate(0 0.015625)"/>
     <use xlink:href="#DejaVuSans-65" transform="translate(86.279297 0.015625)"/>
     <use xlink:href="#DejaVuSans-72" transform="translate(147.802734 0.015625)"/>
     <use xlink:href="#DejaVuSans-74" transform="translate(188.916016 0.015625)"/>
     <use xlink:href="#DejaVuSans-6f" transform="translate(228.125 0.015625)"/>
     <use xlink:href="#DejaVuSans-6e" transform="translate(289.306641 0.015625)"/>
     <use xlink:href="#DejaVuSans-20" transform="translate(352.685547 0.015625)"/>
     <use xlink:href="#DejaVuSans-6a" transform="translate(384.472656 0.015625)"/>
     <use xlink:href="#DejaVuSans-75" transform="translate(412.255859 0.015625)"/>
     <use xlink:href="#DejaVuSans-6d" transform="translate(475.634766 0.015625)"/>
     <use xlink:href="#DejaVuSans-70" transform="translate(573.046875 0.015625)"/>
     <use xlink:href="#DejaVuSans-2d" transform="translate(636.523438 0.015625)"/>
     <use xlink:href="#DejaVuSans-64" transform="translate(672.607422 0.015625)"/>
     <use xlink:href="#DejaVuSans-69" transform="translate(736.083984 0.015625)"/>
     <use xlink:href="#DejaVuSans-66" transform="translate(763.867188 0.015625)"/>
     <use xlink:href="#DejaVuSans-66" transform="translate(799.072266 0.015625)"/>
     <use xlink:href="#DejaVuSans-75" transform="translate(834.277344 0.015625)"/>
     <use xlink:href="#DejaVuSans-73" transform="translate(897.65625 0.015625)"/>
     <use xlink:href="#DejaVuSans-69" transform="translate(949.755859 0.015625)"/>
     <use xlink:href="#DejaVuSans-6f" transform="translate(977.539062 0.015625)"/>
     <use xlink:href="#DejaVuSans-6e" transform="translate(1038.720703 0.015625)"/>
     <use xlink:href="#DejaVuSans-20" transform="translate(1102.099609 0.015625)"/>
     <use xlink:href="#DejaVuSans-20" transform="translate(1133.886719 0.015625)"/>
     <use xlink:href="#DejaVuSans-28" transform="translate(1165.673828 0.015625)"/>
     <use xlink:href="#DejaVuSans-Oblique-3bb" transform="translate(1204.6875 0.015625)"/>
     <use xlink:href="#DejaVuSans-3d" transform="translate(1283.349609 0.015625)"/>
     <use xlink:href="#DejaVuSans-32" transform="translate(1386.621094 0.015625)"/>
     <use xlink:href="#DejaVuSans-2e" transform="translate(1450.244141 0.015625)"/>
     <use xlink:href="#DejaVuSans-35" transform="translate(1482.03125 0.015625)"/>
     <use xlink:href="#DejaVuSans-2f" transform="translate(1545.654297 0.015625)"/>
     <use xlink:href="#DejaVuSans-79" transform="translate(1579.345703 0.015625)"/>
     <use xlink:href="#DejaVuSans-72" transform="translate(1638.525391 0.015625)"/>
     <use xlink:href="#DejaVuSans-2c" transform="translate(1679.638672 0.015625)"/>
     <use xlink:href="#DejaVuSans-20" transform="translate(1711.425781 0.015625)"/>
     <use xlink:href="#DejaVuSans-20" transform="translate(1743.212891 0.015625)"/>
     <use xlink:href="#DejaVuSans-Oblique-3c3" transform="translate(1775 0.015625)"/>
     <use xlink:href="#DejaVuSans-Oblique-4a" transform="translate(1838.378906 -16.390625) scale(0.7)"/>
     <use xlink:href="#DejaVuSans-3d" transform="translate(1881.240234 0.015625)"/>
     <use xlink:href="#DejaVuSans-39" transform="translate(1984.511719 0.015625)"/>
     <use xlink:href="#DejaVuSans-25" transform="translate(2048.134766 0.015625)"/>
     <use xlink:href="#DejaVuSans-29" transform="translate(2143.154297 0.015625)"/>
    </g>
   </g>
   <g id="PathCollection_1">
    <defs>
     <path id="mc2601ea813" d="M -0 3.535534 
L 3.535534 -3.535534 
L -3.535534 -3.535534 
z
" style="stroke: #d62728"/>
    </defs>
    <g clip-path="url(#p01cef8a2fd)">
     <use xlink:href="#mc2601ea813" x="280.262805" y="200.510651" style="fill: #d62728; stroke: #d62728"/>
    </g>
   </g>
   <g id="legend_1">
    <g id="patch_5">
     <path d="M 295.215 55.98 
L 433.185 55.98 
Q 434.985 55.98 434.985 54.18 
L 434.985 28.62 
Q 434.985 26.82 433.185 26.82 
L 295.215 26.82 
Q 293.415 26.82 293.415 28.62 
L 293.415 54.18 
Q 293.415 55.98 295.215 55.98 
z
" style="fill: #ffffff; opacity: 0.8; stroke: #cccccc; stroke-linejoin: miter"/>
    </g>
    <g id="line2d_12">
     <path d="M 297.015 34.11 
L 306.015 34.11 
L 315.015 34.11 
" style="fill: none; stroke: #2e6be5; stroke-width: 1.3; stroke-linecap: square"/>
    </g>
    <g id="text_14">
     <!-- $S_t$  (jump-diffusion path) -->
     <g transform="translate(322.215 37.26) scale(0.09 -0.09)">
      <defs>
       <path id="DejaVuSans-61" d="M 2194 1759 
Q 1497 1759 1228 1600 
Q 959 1441 959 1056 
Q 959 750 1161 570 
Q 1363 391 1709 391 
Q 2188 391 2477 730 
Q 2766 1069 2766 1631 
L 2766 1759 
L 2194 1759 
z
M 3341 1997 
L 3341 0 
L 2766 0 
L 2766 531 
Q 2569 213 2275 61 
Q 1981 -91 1556 -91 
Q 1019 -91 701 211 
Q 384 513 384 1019 
Q 384 1609 779 1909 
Q 1175 2209 1959 2209 
L 2766 2209 
L 2766 2266 
Q 2766 2663 2505 2880 
Q 2244 3097 1772 3097 
Q 1472 3097 1187 3025 
Q 903 2953 641 2809 
L 641 3341 
Q 956 3463 1253 3523 
Q 1550 3584 1831 3584 
Q 2591 3584 2966 3190 
Q 3341 2797 3341 1997 
z
" transform="scale(0.015625)"/>
       <path id="DejaVuSans-68" d="M 3513 2113 
L 3513 0 
L 2938 0 
L 2938 2094 
Q 2938 2591 2744 2837 
Q 2550 3084 2163 3084 
Q 1697 3084 1428 2787 
Q 1159 2491 1159 1978 
L 1159 0 
L 581 0 
L 581 4863 
L 1159 4863 
L 1159 2956 
Q 1366 3272 1645 3428 
Q 1925 3584 2291 3584 
Q 2894 3584 3203 3211 
Q 3513 2838 3513 2113 
z
" transform="scale(0.015625)"/>
      </defs>
      <use xlink:href="#DejaVuSans-Oblique-53" transform="translate(0 0.015625)"/>
      <use xlink:href="#DejaVuSans-Oblique-74" transform="translate(63.476562 -16.390625) scale(0.7)"/>
      <use xlink:href="#DejaVuSans-20" transform="translate(93.657227 0.015625)"/>
      <use xlink:href="#DejaVuSans-20" transform="translate(125.444336 0.015625)"/>
      <use xlink:href="#DejaVuSans-28" transform="translate(157.231445 0.015625)"/>
      <use xlink:href="#DejaVuSans-6a" transform="translate(196.245117 0.015625)"/>
      <use xlink:href="#DejaVuSans-75" transform="translate(224.02832 0.015625)"/>
      <use xlink:href="#DejaVuSans-6d" transform="translate(287.407227 0.015625)"/>
      <use xlink:href="#DejaVuSans-70" transform="translate(384.819336 0.015625)"/>
      <use xlink:href="#DejaVuSans-2d" transform="translate(448.295898 0.015625)"/>
      <use xlink:href="#DejaVuSans-64" transform="translate(484.379883 0.015625)"/>
      <use xlink:href="#DejaVuSans-69" transform="translate(547.856445 0.015625)"/>
      <use xlink:href="#DejaVuSans-66" transform="translate(575.639648 0.015625)"/>
      <use xlink:href="#DejaVuSans-66" transform="translate(610.844727 0.015625)"/>
      <use xlink:href="#DejaVuSans-75" transform="translate(646.049805 0.015625)"/>
      <use xlink:href="#DejaVuSans-73" transform="translate(709.428711 0.015625)"/>
      <use xlink:href="#DejaVuSans-69" transform="translate(761.52832 0.015625)"/>
      <use xlink:href="#DejaVuSans-6f" transform="translate(789.311523 0.015625)"/>
      <use xlink:href="#DejaVuSans-6e" transform="translate(850.493164 0.015625)"/>
      <use xlink:href="#DejaVuSans-20" transform="translate(913.87207 0.015625)"/>
      <use xlink:href="#DejaVuSans-70" transform="translate(945.65918 0.015625)"/>
      <use xlink:href="#DejaVuSans-61" transform="translate(1009.135742 0.015625)"/>
      <use xlink:href="#DejaVuSans-74" transform="translate(1070.415039 0.015625)"/>
      <use xlink:href="#DejaVuSans-68" transform="translate(1109.624023 0.015625)"/>
      <use xlink:href="#DejaVuSans-29" transform="translate(1173.00293 0.015625)"/>
     </g>
    </g>
    <g id="PathCollection_2">
     <g>
      <use xlink:href="#mc2601ea813" x="306.015" y="48.1275" style="fill: #d62728; stroke: #d62728"/>
     </g>
    </g>
    <g id="text_15">
     <!-- Poisson jump $\tau_k$ -->
     <g transform="translate(322.215 50.49) scale(0.09 -0.09)">
      <defs>
       <path id="DejaVuSans-50" d="M 1259 4147 
L 1259 2394 
L 2053 2394 
Q 2494 2394 2734 2622 
Q 2975 2850 2975 3272 
Q 2975 3691 2734 3919 
Q 2494 4147 2053 4147 
L 1259 4147 
z
M 628 4666 
L 2053 4666 
Q 2838 4666 3239 4311 
Q 3641 3956 3641 3272 
Q 3641 2581 3239 2228 
Q 2838 1875 2053 1875 
L 1259 1875 
L 1259 0 
L 628 0 
L 628 4666 
z
" transform="scale(0.015625)"/>
       <path id="DejaVuSans-Oblique-3c4" d="M 2103 638 
Q 2188 488 2525 488 
L 2800 488 
L 2706 0 
L 2363 0 
Q 1800 0 1600 300 
Q 1403 606 1534 1269 
L 1856 2925 
L 541 2925 
L 653 3500 
L 3881 3500 
L 3769 2925 
L 2444 2925 
L 2113 1234 
Q 2025 781 2103 638 
z
" transform="scale(0.015625)"/>
       <path id="DejaVuSans-Oblique-6b" d="M 1172 4863 
L 1747 4863 
L 1197 2028 
L 3169 3500 
L 3916 3500 
L 1716 1825 
L 3322 0 
L 2625 0 
L 1131 1709 
L 800 0 
L 225 0 
L 1172 4863 
z
" transform="scale(0.015625)"/>
      </defs>
      <use xlink:href="#DejaVuSans-50" transform="translate(0 0.015625)"/>
      <use xlink:href="#DejaVuSans-6f" transform="translate(60.302734 0.015625)"/>
      <use xlink:href="#DejaVuSans-69" transform="translate(121.484375 0.015625)"/>
      <use xlink:href="#DejaVuSans-73" transform="translate(149.267578 0.015625)"/>
      <use xlink:href="#DejaVuSans-73" transform="translate(201.367188 0.015625)"/>
      <use xlink:href="#DejaVuSans-6f" transform="translate(253.466797 0.015625)"/>
      <use xlink:href="#DejaVuSans-6e" transform="translate(314.648438 0.015625)"/>
      <use xlink:href="#DejaVuSans-20" transform="translate(378.027344 0.015625)"/>
      <use xlink:href="#DejaVuSans-6a" transform="translate(409.814453 0.015625)"/>
      <use xlink:href="#DejaVuSans-75" transform="translate(437.597656 0.015625)"/>
      <use xlink:href="#DejaVuSans-6d" transform="translate(500.976562 0.015625)"/>
      <use xlink:href="#DejaVuSans-70" transform="translate(598.388672 0.015625)"/>
      <use xlink:href="#DejaVuSans-20" transform="translate(661.865234 0.015625)"/>
      <use xlink:href="#DejaVuSans-Oblique-3c4" transform="translate(693.652344 0.015625)"/>
      <use xlink:href="#DejaVuSans-Oblique-6b" transform="translate(753.857422 -16.390625) scale(0.7)"/>
     </g>
    </g>
   </g>
  </g>
 </g>
 <defs>
  <clipPath id="p01cef8a2fd">
   <rect x="48.885" y="22.32" width="390.6" height="210.672"/>
  </clipPath>
 </defs>
</svg>
