<?xml version="1.0" encoding="utf-8" standalone="no"?>
<!DOCTYPE svg PUBLIC "-//W3C//DTD SVG 1.1//EN"
  "http://www.w3.org/Graphics/SVG/1.1/DTD/svg11.dtd">
<svg xmlns:xlink="http://www.w3.org/1999/xlink" width="446.709062pt" height="270.54825pt" viewBox="0 0 446.709062 270.54825" xmlns="http://www.w3.org/2000/svg" version="1.1">
 <metadata>
  <rdf:RDF xmlns:dc="http://purl.org/dc/elements/1.1/" xmlns:cc="http://creativecommons.org/ns#" xmlns:rdf="http://www.w3.org/1999/02/22-rdf-syntax-ns#">
   <cc:Work>
    <dc:type rdf:resource="http://purl.org/dc/dcmitype/StillImage"/>
    <dc:date>2026-03-07T13:33:13.513833</dc:date>
    <dc:format>image/svg+xml</dc:format>
    <dc:creator>
     <cc:Agent>
      <dc:title>Matplotlib v3.8.4, https://matplotlib.org/</dc:title>
     </cc:Agent>
    </dc:creator>
   </cc:Work>
  </rdf:RDF>
 </metadata>
 <defs>
  <style type="text/css">*{stroke-linejoin: round; stroke-linecap: butt}</style>
 </defs>
 <g id="figure_1">
  <g id="patch_1">
   <path d="M 0 270.54825 
L 446.709062 270.54825 
L 446.709062 0 
L 0 0 
z
" style="fill: #ffffff"/>
  </g>
  <g id="axes_1">
   <g id="patch_2">
    <path d="M 48.909063 232.992 
L 439.509063 232.992 
L 439.509063 22.32 
L 48.909063 22.32 
z
" style="fill: #ffffff"/>
   </g>
   <g id="matplotlib.axis_1">
    <g id="xtick_1">
     <g id="line2d_1">
      <defs>
       <path id="mfb596b0919" d="M 0 0 
L 0 3.5 
" style="stroke: #000000; stroke-width: 0.8"/>
      </defs>
      <g>
       <use xlink:href="#mfb596b0919" x="66.663608" y="232.992" style="stroke: #000000; stroke-width: 0.8"/>
      </g>
     </g>
     <g id="text_1">
      <!-- 0.0 -->
      <g transform="translate(59.507202 246.830594) scale(0.09 -0.09)">
       <defs>
        <path id="DejaVuSans-30" d="M 2034 4250 
Q 1547 4250 1301 3770 
Q 1056 3291 1056 2328 
Q 1056 1369 1301 889 
Q 1547 409 2034 409 
Q 2525 409 2770 889 
Q 3016 1369 3016 2328 
Q 3016 3291 2770 3770 
Q 2525 4250 2034 4250 
z
M 2034 4750 
Q 2819 4750 3233 4129 
Q 3647 3509 3647 2328 
Q 3647 1150 3233 529 
Q 2819 -91 2034 -91 
Q 1250 -91 836 529 
Q 422 1150 422 2328 
Q 422 3509 836 4129 
Q 1250 4750 2034 4750 
z
" transform="scale(0.015625)"/>
        <path id="DejaVuSans-2e" d="M 684 794 
L 1344 794 
L 1344 0 
L 684 0 
L 684 794 
z
" transform="scale(0.015625)"/>
       </defs>
       <use xlink:href="#DejaVuSans-30"/>
       <use xlink:href="#DejaVuSans-2e" x="63.623047"/>
       <use xlink:href="#DejaVuSans-30" x="95.410156"/>
      </g>
     </g>
    </g>
    <g id="xtick_2">
     <g id="line2d_2">
      <g>
       <use xlink:href="#mfb596b0919" x="147.366087" y="232.992" style="stroke: #000000; stroke-width: 0.8"/>
      </g>
     </g>
     <g id="text_2">
      <!-- 0.5 -->
      <g transform="translate(140.209681 246.830594) scale(0.09 -0.09)">
       <defs>
        <path id="DejaVuSans-35" d="M 691 4666 
L 3169 4666 
L 3169 4134 
L 1269 4134 
L 1269 2991 
Q 1406 3038 1543 3061 
Q 1681 3084 1819 3084 
Q 2600 3084 3056 2656 
Q 3513 2228 3513 1497 
Q 3513 744 3044 326 
Q 2575 -91 1722 -91 
Q 1428 -91 1123 -41 
Q 819 9 494 109 
L 494 744 
Q 775 591 1075 516 
Q 1375 441 1709 441 
Q 2250 441 2565 725 
Q 2881 1009 2881 1497 
Q 2881 1984 2565 2268 
Q 2250 2553 1709 2553 
Q 1456 2553 1204 2497 
Q 953 2441 691 2322 
L 691 4666 
z
" transform="scale(0.015625)"/>
       </defs>
       <use xlink:href="#DejaVuSans-30"/>
       <use xlink:href="#DejaVuSans-2e" x="63.623047"/>
       <use xlink:href="#DejaVuSans-35" x="95.410156"/>
      </g>
     </g>
    </g>
    <g id="xtick_3">
     <g id="line2d_3">
      <g>
       <use xlink:href="#mfb596b0919" x="228.068567" y="232.992" style="stroke: #000000; stroke-width: 0.8"/>
      </g>
     </g>
     <g id="text_3">
      <!-- 1.0 -->
      <g transform="translate(220.91216 246.830594) scale(0.09 -0.09)">
       <defs>
        <path id="DejaVuSans-31" d="M 794 531 
L 1825 531 
L 1825 4091 
L 703 3866 
L 703 4441 
L 1819 4666 
L 2450 4666 
L 2450 531 
L 3481 531 
L 3481 0 
L 794 0 
L 794 531 
z
" transform="scale(0.015625)"/>
       </defs>
       <use xlink:href="#DejaVuSans-31"/>
       <use xlink:href="#DejaVuSans-2e" x="63.623047"/>
       <use xlink:href="#DejaVuSans-30" x="95.410156"/>
      </g>
     </g>
    </g>
    <g id="xtick_4">
     <g id="line2d_4">
      <g>
       <use xlink:href="#mfb596b0919" x="308.771046" y="232.992" style="stroke: #000000; stroke-width: 0.8"/>
      </g>
     </g>
     <g id="text_4">
      <!-- 1.5 -->
      <g transform="translate(301.61464 246.830594) scale(0.09 -0.09)">
       <use xlink:href="#DejaVuSans-31"/>
       <use xlink:href="#DejaVuSans-2e" x="63.623047"/>
       <use xlink:href="#DejaVuSans-35" x="95.410156"/>
      </g>
     </g>
    </g>
    <g id="xtick_5">
     <g id="line2d_5">
      <g>
       <use xlink:href="#mfb596b0919" x="389.473525" y="232.992" style="stroke: #000000; stroke-width: 0.8"/>
      </g>
     </g>
     <g id="text_5">
      <!-- 2.0 -->
      <g transform="translate(382.317119 246.830594) scale(0.09 -0.09)">
       <defs>
        <path id="DejaVuSans-32" d="M 1228 531 
L 3431 531 
L 3431 0 
L 469 0 
L 469 531 
Q 828 903 1448 1529 
Q 2069 2156 2228 2338 
Q 2531 2678 2651 2914 
Q 2772 3150 2772 3378 
Q 2772 3750 2511 3984 
Q 2250 4219 1831 4219 
Q 1534 4219 1204 4116 
Q 875 4013 500 3803 
L 500 4441 
Q 881 4594 1212 4672 
Q 1544 4750 1819 4750 
Q 2544 4750 2975 4387 
Q 3406 4025 3406 3419 
Q 3406 3131 3298 2873 
Q 3191 2616 2906 2266 
Q 2828 2175 2409 1742 
Q 1991 1309 1228 531 
z
" transform="scale(0.015625)"/>
       </defs>
       <use xlink:href="#DejaVuSans-32"/>
       <use xlink:href="#DejaVuSans-2e" x="63.623047"/>
       <use xlink:href="#DejaVuSans-30" x="95.410156"/>
      </g>
     </g>
    </g>
    <g id="text_6">
     <!-- $t$ -->
     <g transform="translate(242.009063 261.060594) scale(0.11 -0.11)">
      <defs>
       <path id="DejaVuSans-Oblique-74" d="M 2706 3500 
L 2619 3053 
L 1472 3053 
L 1100 1153 
Q 1081 1047 1072 975 
Q 1063 903 1063 863 
Q 1063 663 1183 572 
Q 1303 481 1569 481 
L 2150 481 
L 2053 0 
L 1503 0 
Q 991 0 739 200 
Q 488 400 488 806 
Q 488 878 497 964 
Q 506 1050 525 1153 
L 897 3053 
L 409 3053 
L 500 3500 
L 978 3500 
L 1172 4494 
L 1747 4494 
L 1556 3500 
L 2706 3500 
z
" transform="scale(0.015625)"/>
      </defs>
      <use xlink:href="#DejaVuSans-Oblique-74" transform="translate(0 0.78125)"/>
     </g>
    </g>
   </g>
   <g id="matplotlib.axis_2">
    <g id="ytick_1">
     <g id="line2d_6">
      <defs>
       <path id="mfdf5d009db" d="M 0 0 
L -3.5 0 
" style="stroke: #000000; stroke-width: 0.8"/>
      </defs>
      <g>
       <use xlink:href="#mfdf5d009db" x="48.909063" y="223.416" style="stroke: #000000; stroke-width: 0.8"/>
      </g>
     </g>
     <g id="text_7">
      <!-- 0.00 -->
      <g transform="translate(21.87 226.835297) scale(0.09 -0.09)">
       <use xlink:href="#DejaVuSans-30"/>
       <use xlink:href="#DejaVuSans-2e" x="63.623047"/>
       <use xlink:href="#DejaVuSans-30" x="95.410156"/>
       <use xlink:href="#DejaVuSans-30" x="159.033203"/>
      </g>
     </g>
    </g>
    <g id="ytick_2">
     <g id="line2d_7">
      <g>
       <use xlink:href="#mfdf5d009db" x="48.909063" y="187.143273" style="stroke: #000000; stroke-width: 0.8"/>
      </g>
     </g>
     <g id="text_8">
      <!-- 0.05 -->
      <g transform="translate(21.87 190.56257) scale(0.09 -0.09)">
       <use xlink:href="#DejaVuSans-30"/>
       <use xlink:href="#DejaVuSans-2e" x="63.623047"/>
       <use xlink:href="#DejaVuSans-30" x="95.410156"/>
       <use xlink:href="#DejaVuSans-35" x="159.033203"/>
      </g>
     </g>
    </g>
    <g id="ytick_3">
     <g id="line2d_8">
      <g>
       <use xlink:href="#mfdf5d009db" x="48.909063" y="150.870545" style="stroke: #000000; stroke-width: 0.8"/>
      </g>
     </g>
     <g id="text_9">
      <!-- 0.10 -->
      <g transform="translate(21.87 154.289842) scale(0.09 -0.09)">
       <use xlink:href="#DejaVuSans-30"/>
       <use xlink:href="#DejaVuSans-2e" x="63.623047"/>
       <use xlink:href="#DejaVuSans-31" x="95.410156"/>
       <use xlink:href="#DejaVuSans-30" x="159.033203"/>
      </g>
     </g>
    </g>
    <g id="ytick_4">
     <g id="line2d_9">
      <g>
       <use xlink:href="#mfdf5d009db" x="48.909063" y="114.597818" style="stroke: #000000; stroke-width: 0.8"/>
      </g>
     </g>
     <g id="text_10">
      <!-- 0.15 -->
      <g transform="translate(21.87 118.017115) scale(0.09 -0.09)">
       <use xlink:href="#DejaVuSans-30"/>
       <use xlink:href="#DejaVuSans-2e" x="63.623047"/>
       <use xlink:href="#DejaVuSans-31" x="95.410156"/>
       <use xlink:href="#DejaVuSans-35" x="159.033203"/>
      </g>
     </g>
    </g>
    <g id="ytick_5">
     <g id="line2d_10">
      <g>
       <use xlink:href="#mfdf5d009db" x="48.909063" y="78.325091" style="stroke: #000000; stroke-width: 0.8"/>
      </g>
     </g>
     <g id="text_11">
      <!-- 0.20 -->
      <g transform="translate(21.87 81.744388) scale(0.09 -0.09)">
       <use xlink:href="#DejaVuSans-30"/>
       <use xlink:href="#DejaVuSans-2e" x="63.623047"/>
       <use xlink:href="#DejaVuSans-32" x="95.410156"/>
       <use xlink:href="#DejaVuSans-30" x="159.033203"/>
      </g>
     </g>
    </g>
    <g id="ytick_6">
     <g id="line2d_11">
      <g>
       <use xlink:href="#mfdf5d009db" x="48.909063" y="42.052364" style="stroke: #000000; stroke-width: 0.8"/>
      </g>
     </g>
     <g id="text_12">
      <!-- 0.25 -->
      <g transform="translate(21.87 45.471661) scale(0.09 -0.09)">
       <use xlink:href="#DejaVuSans-30"/>
       <use xlink:href="#DejaVuSans-2e" x="63.623047"/>
       <use xlink:href="#DejaVuSans-32" x="95.410156"/>
       <use xlink:href="#DejaVuSans-35" x="159.033203"/>
      </g>
     </g>
    </g>
    <g id="text_13">
     <!-- $\mathbb{E}[\log S_t] - \log S_0$ -->
     <g transform="translate(15.56 172.041) rotate(-90) scale(0.11 -0.11)">
      <defs>
       <path id="STIXNonUnicode-Italic-e156" d="M 4250 4179 
L 4192 3942 
L 2150 3942 
L 1709 2266 
L 3514 2266 
L 3443 2029 
L 1645 2029 
L 1165 237 
L 3443 237 
L 3392 0 
L 109 0 
L 1229 4179 
L 4250 4179 
z
M 1914 3942 
L 1414 3942 
L 416 237 
L 928 237 
L 1914 3942 
z
" transform="scale(0.015625)"/>
       <path id="DejaVuSans-5b" d="M 550 4863 
L 1875 4863 
L 1875 4416 
L 1125 4416 
L 1125 -397 
L 1875 -397 
L 1875 -844 
L 550 -844 
L 550 4863 
z
" transform="scale(0.015625)"/>
       <path id="DejaVuSans-6c" d="M 603 4863 
L 1178 4863 
L 1178 0 
L 603 0 
L 603 4863 
z
" transform="scale(0.015625)"/>
       <path id="DejaVuSans-6f" d="M 1959 3097 
Q 1497 3097 1228 2736 
Q 959 2375 959 1747 
Q 959 1119 1226 758 
Q 1494 397 1959 397 
Q 2419 397 2687 759 
Q 2956 1122 2956 1747 
Q 2956 2369 2687 2733 
Q 2419 3097 1959 3097 
z
M 1959 3584 
Q 2709 3584 3137 3096 
Q 3566 2609 3566 1747 
Q 3566 888 3137 398 
Q 2709 -91 1959 -91 
Q 1206 -91 779 398 
Q 353 888 353 1747 
Q 353 2609 779 3096 
Q 1206 3584 1959 3584 
z
" transform="scale(0.015625)"/>
       <path id="DejaVuSans-67" d="M 2906 1791 
Q 2906 2416 2648 2759 
Q 2391 3103 1925 3103 
Q 1463 3103 1205 2759 
Q 947 2416 947 1791 
Q 947 1169 1205 825 
Q 1463 481 1925 481 
Q 2391 481 2648 825 
Q 2906 1169 2906 1791 
z
M 3481 434 
Q 3481 -459 3084 -895 
Q 2688 -1331 1869 -1331 
Q 1566 -1331 1297 -1286 
Q 1028 -1241 775 -1147 
L 775 -588 
Q 1028 -725 1275 -790 
Q 1522 -856 1778 -856 
Q 2344 -856 2625 -561 
Q 2906 -266 2906 331 
L 2906 616 
Q 2728 306 2450 153 
Q 2172 0 1784 0 
Q 1141 0 747 490 
Q 353 981 353 1791 
Q 353 2603 747 3093 
Q 1141 3584 1784 3584 
Q 2172 3584 2450 3431 
Q 2728 3278 2906 2969 
L 2906 3500 
L 3481 3500 
L 3481 434 
z
" transform="scale(0.015625)"/>
       <path id="DejaVuSans-Oblique-53" d="M 3859 4513 
L 3738 3897 
Q 3422 4066 3111 4152 
Q 2800 4238 2509 4238 
Q 1944 4238 1609 3991 
Q 1275 3744 1275 3334 
Q 1275 3109 1398 2989 
Q 1522 2869 2034 2731 
L 2413 2638 
Q 3053 2472 3303 2217 
Q 3553 1963 3553 1503 
Q 3553 797 2998 353 
Q 2444 -91 1538 -91 
Q 1166 -91 791 -17 
Q 416 56 38 206 
L 166 856 
Q 513 641 861 531 
Q 1209 422 1556 422 
Q 2147 422 2503 684 
Q 2859 947 2859 1369 
Q 2859 1650 2717 1795 
Q 2575 1941 2106 2059 
L 1728 2156 
Q 1081 2325 845 2545 
Q 609 2766 609 3163 
Q 609 3859 1145 4304 
Q 1681 4750 2541 4750 
Q 2875 4750 3203 4690 
Q 3531 4631 3859 4513 
z
" transform="scale(0.015625)"/>
       <path id="DejaVuSans-5d" d="M 1947 4863 
L 1947 -844 
L 622 -844 
L 622 -397 
L 1369 -397 
L 1369 4416 
L 622 4416 
L 622 4863 
L 1947 4863 
z
" transform="scale(0.015625)"/>
       <path id="DejaVuSans-2212" d="M 678 2272 
L 4684 2272 
L 4684 1741 
L 678 1741 
L 678 2272 
z
" transform="scale(0.015625)"/>
      </defs>
      <use xlink:href="#STIXNonUnicode-Italic-e156" transform="translate(0 0.015625)"/>
      <use xlink:href="#DejaVuSans-5b" transform="translate(63.899994 0.015625)"/>
      <use xlink:href="#DejaVuSans-6c" transform="translate(102.913666 0.015625)"/>
      <use xlink:href="#DejaVuSans-6f" transform="translate(130.696869 0.015625)"/>
      <use xlink:href="#DejaVuSans-67" transform="translate(191.87851 0.015625)"/>
      <use xlink:href="#DejaVuSans-Oblique-53" transform="translate(271.590748 0.015625)"/>
      <use xlink:href="#DejaVuSans-Oblique-74" transform="translate(335.067311 -16.390625) scale(0.7)"/>
      <use xlink:href="#DejaVuSans-5d" transform="translate(365.247975 0.015625)"/>
      <use xlink:href="#DejaVuSans-2212" transform="translate(423.744069 0.015625)"/>
      <use xlink:href="#DejaVuSans-6c" transform="translate(527.015553 0.015625)"/>
      <use xlink:href="#DejaVuSans-6f" transform="translate(554.798756 0.015625)"/>
      <use xlink:href="#DejaVuSans-67" transform="translate(615.980397 0.015625)"/>
      <use xlink:href="#DejaVuSans-Oblique-53" transform="translate(695.692635 0.015625)"/>
      <use xlink:href="#DejaVuSans-30" transform="translate(759.169198 -16.390625) scale(0.7)"/>
     </g>
    </g>
   </g>
   <g id="line2d_12">
    <path d="M 66.663608 223.416 
L 421.754517 31.896 
L 421.754517 31.896 
" clip-path="url(#p512eb072cb)" style="fill: none; stroke-dasharray: 7.4,3.2; stroke-dashoffset: 0; stroke: #e8850a; stroke-width: 2"/>
   </g>
   <g id="line2d_13">
    <path d="M 66.663608 223.416 
L 421.754517 103.716 
L 421.754517 103.716 
" clip-path="url(#p512eb072cb)" style="fill: none; stroke: #2e6be5; stroke-width: 2; stroke-linecap: square"/>
   </g>
   <g id="line2d_14">
    <path d="M 48.909063 223.416 
L 439.509063 223.416 
" clip-path="url(#p512eb072cb)" style="fill: none; stroke-dasharray: 0.6,0.99; stroke-dashoffset: 0; stroke: #888888; stroke-width: 0.6"/>
   </g>
   <g id="patch_3">
    <path d="M 48.909063 232.992 
L 48.909063 22.32 
" style="fill: none; stroke: #000000; stroke-width: 0.8; stroke-linejoin: miter; stroke-linecap: square"/>
   </g>
   <g id="patch_4">
    <path d="M 48.909062 232.992 
L 439.509063 232.992 
" style="fill: none; stroke: #000000; stroke-width: 0.8; stroke-linejoin: miter; stroke-linecap: square"/>
   </g>
   <g id="patch_5">
    <path d="M 357.192534 70.504374 
Q 357.192534 96.098039 357.192534 121.691704 
" style="fill: none; stroke: #d62728; stroke-width: 1.6; stroke-linecap: round"/>
    <path d="M 354.992534 74.904374 
L 357.192534 70.504374 
L 359.392534 74.904374 
" style="fill: none; stroke: #d62728; stroke-width: 1.6; stroke-linecap: round"/>
    <path d="M 359.392534 117.291704 
L 357.192534 121.691704 
L 354.992534 117.291704 
" style="fill: none; stroke: #d62728; stroke-width: 1.6; stroke-linecap: round"/>
   </g>
   <g id="text_14">
    <!-- gap $= \sigma^2 T/2$ -->
    <g style="fill: #d62728" transform="translate(368.490881 99.248727) scale(0.09 -0.09)">
     <defs>
      <path id="DejaVuSans-61" d="M 2194 1759 
Q 1497 1759 1228 1600 
Q 959 1441 959 1056 
Q 959 750 1161 570 
Q 1363 391 1709 391 
Q 2188 391 2477 730 
Q 2766 1069 2766 1631 
L 2766 1759 
L 2194 1759 
z
M 3341 1997 
L 3341 0 
L 2766 0 
L 2766 531 
Q 2569 213 2275 61 
Q 1981 -91 1556 -91 
Q 1019 -91 701 211 
Q 384 513 384 1019 
Q 384 1609 779 1909 
Q 1175 2209 1959 2209 
L 2766 2209 
L 2766 2266 
Q 2766 2663 2505 2880 
Q 2244 3097 1772 3097 
Q 1472 3097 1187 3025 
Q 903 2953 641 2809 
L 641 3341 
Q 956 3463 1253 3523 
Q 1550 3584 1831 3584 
Q 2591 3584 2966 3190 
Q 3341 2797 3341 1997 
z
" transform="scale(0.015625)"/>
      <path id="DejaVuSans-70" d="M 1159 525 
L 1159 -1331 
L 581 -1331 
L 581 3500 
L 1159 3500 
L 1159 2969 
Q 1341 3281 1617 3432 
Q 1894 3584 2278 3584 
Q 2916 3584 3314 3078 
Q 3713 2572 3713 1747 
Q 3713 922 3314 415 
Q 2916 -91 2278 -91 
Q 1894 -91 1617 61 
Q 1341 213 1159 525 
z
M 3116 1747 
Q 3116 2381 2855 2742 
Q 2594 3103 2138 3103 
Q 1681 3103 1420 2742 
Q 1159 2381 1159 1747 
Q 1159 1113 1420 752 
Q 1681 391 2138 391 
Q 2594 391 2855 752 
Q 3116 1113 3116 1747 
z
" transform="scale(0.015625)"/>
      <path id="DejaVuSans-20" transform="scale(0.015625)"/>
      <path id="DejaVuSans-3d" d="M 678 2906 
L 4684 2906 
L 4684 2381 
L 678 2381 
L 678 2906 
z
M 678 1631 
L 4684 1631 
L 4684 1100 
L 678 1100 
L 678 1631 
z
" transform="scale(0.015625)"/>
      <path id="DejaVuSans-Oblique-3c3" d="M 2219 3044 
Q 1744 3044 1422 2700 
Q 1081 2341 969 1747 
Q 844 1119 1044 756 
Q 1241 397 1706 397 
Q 2166 397 2503 759 
Q 2844 1122 2966 1747 
Q 3075 2319 2881 2700 
Q 2700 3044 2219 3044 
z
M 2309 3503 
L 4219 3500 
L 4106 2925 
L 3463 2925 
Q 3706 2438 3575 1747 
Q 3406 888 2884 400 
Q 2359 -91 1609 -91 
Q 856 -91 525 400 
Q 194 888 363 1747 
Q 528 2609 1050 3097 
Q 1484 3503 2309 3503 
z
" transform="scale(0.015625)"/>
      <path id="DejaVuSans-Oblique-54" d="M 378 4666 
L 4325 4666 
L 4225 4134 
L 2559 4134 
L 1759 0 
L 1125 0 
L 1925 4134 
L 275 4134 
L 378 4666 
z
" transform="scale(0.015625)"/>
      <path id="DejaVuSans-2f" d="M 1625 4666 
L 2156 4666 
L 531 -594 
L 0 -594 
L 1625 4666 
z
" transform="scale(0.015625)"/>
     </defs>
     <use xlink:href="#DejaVuSans-67" transform="translate(0 0.765625)"/>
     <use xlink:href="#DejaVuSans-61" transform="translate(63.476562 0.765625)"/>
     <use xlink:href="#DejaVuSans-70" transform="translate(124.755859 0.765625)"/>
     <use xlink:href="#DejaVuSans-20" transform="translate(188.232422 0.765625)"/>
     <use xlink:href="#DejaVuSans-3d" transform="translate(239.501953 0.765625)"/>
     <use xlink:href="#DejaVuSans-Oblique-3c3" transform="translate(342.773438 0.765625)"/>
     <use xlink:href="#DejaVuSans-32" transform="translate(410.625052 39.046875) scale(0.7)"/>
     <use xlink:href="#DejaVuSans-Oblique-54" transform="translate(457.89556 0.765625)"/>
     <use xlink:href="#DejaVuSans-2f" transform="translate(518.979544 0.765625)"/>
     <use xlink:href="#DejaVuSans-32" transform="translate(549.045951 0.765625)"/>
    </g>
   </g>
   <g id="text_15">
    <!-- Itō correction: $\mathbb{E}[\log S_t]$ always below the naïve slope $\mu t$ -->
    <g transform="translate(77.769063 16.32) scale(0.12 -0.12)">
     <defs>
      <path id="DejaVuSans-49" d="M 628 4666 
L 1259 4666 
L 1259 0 
L 628 0 
L 628 4666 
z
" transform="scale(0.015625)"/>
      <path id="DejaVuSans-74" d="M 1172 4494 
L 1172 3500 
L 2356 3500 
L 2356 3053 
L 1172 3053 
L 1172 1153 
Q 1172 725 1289 603 
Q 1406 481 1766 481 
L 2356 481 
L 2356 0 
L 1766 0 
Q 1100 0 847 248 
Q 594 497 594 1153 
L 594 3053 
L 172 3053 
L 172 3500 
L 594 3500 
L 594 4494 
L 1172 4494 
z
" transform="scale(0.015625)"/>
      <path id="DejaVuSans-14d" d="M 1026 4769 
L 2894 4769 
L 2894 4306 
L 1026 4306 
L 1026 4769 
z
M 1959 3097 
Q 1497 3097 1228 2736 
Q 959 2375 959 1747 
Q 959 1119 1226 758 
Q 1494 397 1959 397 
Q 2419 397 2687 759 
Q 2956 1122 2956 1747 
Q 2956 2369 2687 2733 
Q 2419 3097 1959 3097 
z
M 1959 3584 
Q 2709 3584 3137 3096 
Q 3566 2609 3566 1747 
Q 3566 888 3137 398 
Q 2709 -91 1959 -91 
Q 1206 -91 779 398 
Q 353 888 353 1747 
Q 353 2609 779 3096 
Q 1206 3584 1959 3584 
z
" transform="scale(0.015625)"/>
      <path id="DejaVuSans-63" d="M 3122 3366 
L 3122 2828 
Q 2878 2963 2633 3030 
Q 2388 3097 2138 3097 
Q 1578 3097 1268 2742 
Q 959 2388 959 1747 
Q 959 1106 1268 751 
Q 1578 397 2138 397 
Q 2388 397 2633 464 
Q 2878 531 3122 666 
L 3122 134 
Q 2881 22 2623 -34 
Q 2366 -91 2075 -91 
Q 1284 -91 818 406 
Q 353 903 353 1747 
Q 353 2603 823 3093 
Q 1294 3584 2113 3584 
Q 2378 3584 2631 3529 
Q 2884 3475 3122 3366 
z
" transform="scale(0.015625)"/>
      <path id="DejaVuSans-72" d="M 2631 2963 
Q 2534 3019 2420 3045 
Q 2306 3072 2169 3072 
Q 1681 3072 1420 2755 
Q 1159 2438 1159 1844 
L 1159 0 
L 581 0 
L 581 3500 
L 1159 3500 
L 1159 2956 
Q 1341 3275 1631 3429 
Q 1922 3584 2338 3584 
Q 2397 3584 2469 3576 
Q 2541 3569 2628 3553 
L 2631 2963 
z
" transform="scale(0.015625)"/>
      <path id="DejaVuSans-65" d="M 3597 1894 
L 3597 1613 
L 953 1613 
Q 991 1019 1311 708 
Q 1631 397 2203 397 
Q 2534 397 2845 478 
Q 3156 559 3463 722 
L 3463 178 
Q 3153 47 2828 -22 
Q 2503 -91 2169 -91 
Q 1331 -91 842 396 
Q 353 884 353 1716 
Q 353 2575 817 3079 
Q 1281 3584 2069 3584 
Q 2775 3584 3186 3129 
Q 3597 2675 3597 1894 
z
M 3022 2063 
Q 3016 2534 2758 2815 
Q 2500 3097 2075 3097 
Q 1594 3097 1305 2825 
Q 1016 2553 972 2059 
L 3022 2063 
z
" transform="scale(0.015625)"/>
      <path id="DejaVuSans-69" d="M 603 3500 
L 1178 3500 
L 1178 0 
L 603 0 
L 603 3500 
z
M 603 4863 
L 1178 4863 
L 1178 4134 
L 603 4134 
L 603 4863 
z
" transform="scale(0.015625)"/>
      <path id="DejaVuSans-6e" d="M 3513 2113 
L 3513 0 
L 2938 0 
L 2938 2094 
Q 2938 2591 2744 2837 
Q 2550 3084 2163 3084 
Q 1697 3084 1428 2787 
Q 1159 2491 1159 1978 
L 1159 0 
L 581 0 
L 581 3500 
L 1159 3500 
L 1159 2956 
Q 1366 3272 1645 3428 
Q 1925 3584 2291 3584 
Q 2894 3584 3203 3211 
Q 3513 2838 3513 2113 
z
" transform="scale(0.015625)"/>
      <path id="DejaVuSans-3a" d="M 750 794 
L 1409 794 
L 1409 0 
L 750 0 
L 750 794 
z
M 750 3309 
L 1409 3309 
L 1409 2516 
L 750 2516 
L 750 3309 
z
" transform="scale(0.015625)"/>
      <path id="DejaVuSans-77" d="M 269 3500 
L 844 3500 
L 1563 769 
L 2278 3500 
L 2956 3500 
L 3675 769 
L 4391 3500 
L 4966 3500 
L 4050 0 
L 3372 0 
L 2619 2869 
L 1863 0 
L 1184 0 
L 269 3500 
z
" transform="scale(0.015625)"/>
      <path id="DejaVuSans-79" d="M 2059 -325 
Q 1816 -950 1584 -1140 
Q 1353 -1331 966 -1331 
L 506 -1331 
L 506 -850 
L 844 -850 
Q 1081 -850 1212 -737 
Q 1344 -625 1503 -206 
L 1606 56 
L 191 3500 
L 800 3500 
L 1894 763 
L 2988 3500 
L 3597 3500 
L 2059 -325 
z
" transform="scale(0.015625)"/>
      <path id="DejaVuSans-73" d="M 2834 3397 
L 2834 2853 
Q 2591 2978 2328 3040 
Q 2066 3103 1784 3103 
Q 1356 3103 1142 2972 
Q 928 2841 928 2578 
Q 928 2378 1081 2264 
Q 1234 2150 1697 2047 
L 1894 2003 
Q 2506 1872 2764 1633 
Q 3022 1394 3022 966 
Q 3022 478 2636 193 
Q 2250 -91 1575 -91 
Q 1294 -91 989 -36 
Q 684 19 347 128 
L 347 722 
Q 666 556 975 473 
Q 1284 391 1588 391 
Q 1994 391 2212 530 
Q 2431 669 2431 922 
Q 2431 1156 2273 1281 
Q 2116 1406 1581 1522 
L 1381 1569 
Q 847 1681 609 1914 
Q 372 2147 372 2553 
Q 372 3047 722 3315 
Q 1072 3584 1716 3584 
Q 2034 3584 2315 3537 
Q 2597 3491 2834 3397 
z
" transform="scale(0.015625)"/>
      <path id="DejaVuSans-62" d="M 3116 1747 
Q 3116 2381 2855 2742 
Q 2594 3103 2138 3103 
Q 1681 3103 1420 2742 
Q 1159 2381 1159 1747 
Q 1159 1113 1420 752 
Q 1681 391 2138 391 
Q 2594 391 2855 752 
Q 3116 1113 3116 1747 
z
M 1159 2969 
Q 1341 3281 1617 3432 
Q 1894 3584 2278 3584 
Q 2916 3584 3314 3078 
Q 3713 2572 3713 1747 
Q 3713 922 3314 415 
Q 2916 -91 2278 -91 
Q 1894 -91 1617 61 
Q 1341 213 1159 525 
L 1159 0 
L 581 0 
L 581 4863 
L 1159 4863 
L 1159 2969 
z
" transform="scale(0.015625)"/>
      <path id="DejaVuSans-68" d="M 3513 2113 
L 3513 0 
L 2938 0 
L 2938 2094 
Q 2938 2591 2744 2837 
Q 2550 3084 2163 3084 
Q 1697 3084 1428 2787 
Q 1159 2491 1159 1978 
L 1159 0 
L 581 0 
L 581 4863 
L 1159 4863 
L 1159 2956 
Q 1366 3272 1645 3428 
Q 1925 3584 2291 3584 
Q 2894 3584 3203 3211 
Q 3513 2838 3513 2113 
z
" transform="scale(0.015625)"/>
      <path id="DejaVuSans-ef" d="M 603 3500 
L 1178 3500 
L 1178 0 
L 603 0 
L 603 3500 
z
M 891 3584 
L 891 3584 
z
M 1182 4850 
L 1816 4850 
L 1816 4219 
L 1182 4219 
L 1182 4850 
z
M -40 4850 
L 594 4850 
L 594 4219 
L -40 4219 
L -40 4850 
z
" transform="scale(0.015625)"/>
      <path id="DejaVuSans-76" d="M 191 3500 
L 800 3500 
L 1894 563 
L 2988 3500 
L 3597 3500 
L 2284 0 
L 1503 0 
L 191 3500 
z
" transform="scale(0.015625)"/>
      <path id="DejaVuSans-Oblique-3bc" d="M -84 -1331 
L 856 3500 
L 1434 3500 
L 1009 1322 
Q 997 1256 987 1175 
Q 978 1094 978 1013 
Q 978 722 1161 565 
Q 1344 409 1684 409 
Q 2147 409 2431 671 
Q 2716 934 2816 1459 
L 3213 3500 
L 3788 3500 
L 3266 809 
Q 3253 750 3248 706 
Q 3244 663 3244 628 
Q 3244 531 3283 486 
Q 3322 441 3406 441 
Q 3438 441 3492 456 
Q 3547 472 3647 513 
L 3559 50 
Q 3422 -19 3297 -55 
Q 3172 -91 3053 -91 
Q 2847 -91 2730 40 
Q 2613 172 2613 403 
Q 2438 153 2195 31 
Q 1953 -91 1625 -91 
Q 1334 -91 1117 43 
Q 900 178 831 397 
L 494 -1331 
L -84 -1331 
z
" transform="scale(0.015625)"/>
     </defs>
     <use xlink:href="#DejaVuSans-49" transform="translate(0 0.015625)"/>
     <use xlink:href="#DejaVuSans-74" transform="translate(29.492188 0.015625)"/>
     <use xlink:href="#DejaVuSans-14d" transform="translate(68.701172 0.015625)"/>
     <use xlink:href="#DejaVuSans-20" transform="translate(129.882812 0.015625)"/>
     <use xlink:href="#DejaVuSans-63" transform="translate(161.669922 0.015625)"/>
     <use xlink:href="#DejaVuSans-6f" transform="translate(216.650391 0.015625)"/>
     <use xlink:href="#DejaVuSans-72" transform="translate(277.832031 0.015625)"/>
     <use xlink:href="#DejaVuSans-72" transform="translate(318.945312 0.015625)"/>
     <use xlink:href="#DejaVuSans-65" transform="translate(360.058594 0.015625)"/>
     <use xlink:href="#DejaVuSans-63" transform="translate(421.582031 0.015625)"/>
     <use xlink:href="#DejaVuSans-74" transform="translate(476.5625 0.015625)"/>
     <use xlink:href="#DejaVuSans-69" transform="translate(515.771484 0.015625)"/>
     <use xlink:href="#DejaVuSans-6f" transform="translate(543.554688 0.015625)"/>
     <use xlink:href="#DejaVuSans-6e" transform="translate(604.736328 0.015625)"/>
     <use xlink:href="#DejaVuSans-3a" transform="translate(668.115234 0.015625)"/>
     <use xlink:href="#DejaVuSans-20" transform="translate(701.806641 0.015625)"/>
     <use xlink:href="#STIXNonUnicode-Italic-e156" transform="translate(733.59375 0.015625)"/>
     <use xlink:href="#DejaVuSans-5b" transform="translate(797.493744 0.015625)"/>
     <use xlink:href="#DejaVuSans-6c" transform="translate(836.507416 0.015625)"/>
     <use xlink:href="#DejaVuSans-6f" transform="translate(864.290619 0.015625)"/>
     <use xlink:href="#DejaVuSans-67" transform="translate(925.47226 0.015625)"/>
     <use xlink:href="#DejaVuSans-Oblique-53" transform="translate(1005.184498 0.015625)"/>
     <use xlink:href="#DejaVuSans-Oblique-74" transform="translate(1068.661061 -16.390625) scale(0.7)"/>
     <use xlink:href="#DejaVuSans-5d" transform="translate(1098.841725 0.015625)"/>
     <use xlink:href="#DejaVuSans-20" transform="translate(1137.855397 0.015625)"/>
     <use xlink:href="#DejaVuSans-61" transform="translate(1169.642506 0.015625)"/>
     <use xlink:href="#DejaVuSans-6c" transform="translate(1230.921803 0.015625)"/>
     <use xlink:href="#DejaVuSans-77" transform="translate(1258.705006 0.015625)"/>
     <use xlink:href="#DejaVuSans-61" transform="translate(1340.492115 0.015625)"/>
     <use xlink:href="#DejaVuSans-79" transform="translate(1401.771412 0.015625)"/>
     <use xlink:href="#DejaVuSans-73" transform="translate(1460.9511 0.015625)"/>
     <use xlink:href="#DejaVuSans-20" transform="translate(1513.050709 0.015625)"/>
     <use xlink:href="#DejaVuSans-62" transform="translate(1544.837819 0.015625)"/>
     <use xlink:href="#DejaVuSans-65" transform="translate(1608.314381 0.015625)"/>
     <use xlink:href="#DejaVuSans-6c" transform="translate(1669.837819 0.015625)"/>
     <use xlink:href="#DejaVuSans-6f" transform="translate(1697.621022 0.015625)"/>
     <use xlink:href="#DejaVuSans-77" transform="translate(1758.802662 0.015625)"/>
     <use xlink:href="#DejaVuSans-20" transform="translate(1840.589772 0.015625)"/>
     <use xlink:href="#DejaVuSans-74" transform="translate(1872.376881 0.015625)"/>
     <use xlink:href="#DejaVuSans-68" transform="translate(1911.585865 0.015625)"/>
     <use xlink:href="#DejaVuSans-65" transform="translate(1974.964772 0.015625)"/>
     <use xlink:href="#DejaVuSans-20" transform="translate(2036.488209 0.015625)"/>
     <use xlink:href="#DejaVuSans-6e" transform="translate(2068.275319 0.015625)"/>
     <use xlink:href="#DejaVuSans-61" transform="translate(2131.654225 0.015625)"/>
     <use xlink:href="#DejaVuSans-ef" transform="translate(2192.933522 0.015625)"/>
     <use xlink:href="#DejaVuSans-76" transform="translate(2220.716725 0.015625)"/>
     <use xlink:href="#DejaVuSans-65" transform="translate(2279.896412 0.015625)"/>
     <use xlink:href="#DejaVuSans-20" transform="translate(2341.41985 0.015625)"/>
     <use xlink:href="#DejaVuSans-73" transform="translate(2373.206959 0.015625)"/>
     <use xlink:href="#DejaVuSans-6c" transform="translate(2425.306569 0.015625)"/>
     <use xlink:href="#DejaVuSans-6f" transform="translate(2453.089772 0.015625)"/>
     <use xlink:href="#DejaVuSans-70" transform="translate(2514.271412 0.015625)"/>
     <use xlink:href="#DejaVuSans-65" transform="translate(2577.747975 0.015625)"/>
     <use xlink:href="#DejaVuSans-20" transform="translate(2639.271412 0.015625)"/>
     <use xlink:href="#DejaVuSans-Oblique-3bc" transform="translate(2671.058522 0.015625)"/>
     <use xlink:href="#DejaVuSans-Oblique-74" transform="translate(2734.681569 0.015625)"/>
    </g>
   </g>
   <g id="legend_1">
    <g id="patch_6">
     <path d="M 55.209063 57.33 
L 217.569062 57.33 
Q 219.369062 57.33 219.369062 55.53 
L 219.369062 28.62 
Q 219.369062 26.82 217.569062 26.82 
L 55.209063 26.82 
Q 53.409063 26.82 53.409063 28.62 
L 53.409063 55.53 
Q 53.409063 57.33 55.209063 57.33 
z
" style="fill: #ffffff; opacity: 0.8; stroke: #cccccc; stroke-linejoin: miter"/>
    </g>
    <g id="line2d_15">
     <path d="M 57.009063 34.11 
L 66.009062 34.11 
L 75.009062 34.11 
" style="fill: none; stroke-dasharray: 7.4,3.2; stroke-dashoffset: 0; stroke: #e8850a; stroke-width: 2"/>
    </g>
    <g id="text_16">
     <!-- Naïve slope $\mu t$  (wrong) -->
     <g transform="translate(82.209063 37.26) scale(0.09 -0.09)">
      <defs>
       <path id="DejaVuSans-4e" d="M 628 4666 
L 1478 4666 
L 3547 763 
L 3547 4666 
L 4159 4666 
L 4159 0 
L 3309 0 
L 1241 3903 
L 1241 0 
L 628 0 
L 628 4666 
z
" transform="scale(0.015625)"/>
       <path id="DejaVuSans-28" d="M 1984 4856 
Q 1566 4138 1362 3434 
Q 1159 2731 1159 2009 
Q 1159 1288 1364 580 
Q 1569 -128 1984 -844 
L 1484 -844 
Q 1016 -109 783 600 
Q 550 1309 550 2009 
Q 550 2706 781 3412 
Q 1013 4119 1484 4856 
L 1984 4856 
z
" transform="scale(0.015625)"/>
       <path id="DejaVuSans-29" d="M 513 4856 
L 1013 4856 
Q 1481 4119 1714 3412 
Q 1947 2706 1947 2009 
Q 1947 1309 1714 600 
Q 1481 -109 1013 -844 
L 513 -844 
Q 928 -128 1133 580 
Q 1338 1288 1338 2009 
Q 1338 2731 1133 3434 
Q 928 4138 513 4856 
z
" transform="scale(0.015625)"/>
      </defs>
      <use xlink:href="#DejaVuSans-4e" transform="translate(0 0.015625)"/>
      <use xlink:href="#DejaVuSans-61" transform="translate(74.804688 0.015625)"/>
      <use xlink:href="#DejaVuSans-ef" transform="translate(136.083984 0.015625)"/>
      <use xlink:href="#DejaVuSans-76" transform="translate(163.867188 0.015625)"/>
      <use xlink:href="#DejaVuSans-65" transform="translate(223.046875 0.015625)"/>
      <use xlink:href="#DejaVuSans-20" transform="translate(284.570312 0.015625)"/>
      <use xlink:href="#DejaVuSans-73" transform="translate(316.357422 0.015625)"/>
      <use xlink:href="#DejaVuSans-6c" transform="translate(368.457031 0.015625)"/>
      <use xlink:href="#DejaVuSans-6f" transform="translate(396.240234 0.015625)"/>
      <use xlink:href="#DejaVuSans-70" transform="translate(457.421875 0.015625)"/>
      <use xlink:href="#DejaVuSans-65" transform="translate(520.898438 0.015625)"/>
      <use xlink:href="#DejaVuSans-20" transform="translate(582.421875 0.015625)"/>
      <use xlink:href="#DejaVuSans-Oblique-3bc" transform="translate(614.208984 0.015625)"/>
      <use xlink:href="#DejaVuSans-Oblique-74" transform="translate(677.832031 0.015625)"/>
      <use xlink:href="#DejaVuSans-20" transform="translate(717.041016 0.015625)"/>
      <use xlink:href="#DejaVuSans-20" transform="translate(748.828125 0.015625)"/>
      <use xlink:href="#DejaVuSans-28" transform="translate(780.615234 0.015625)"/>
      <use xlink:href="#DejaVuSans-77" transform="translate(819.628906 0.015625)"/>
      <use xlink:href="#DejaVuSans-72" transform="translate(901.416016 0.015625)"/>
      <use xlink:href="#DejaVuSans-6f" transform="translate(942.529297 0.015625)"/>
      <use xlink:href="#DejaVuSans-6e" transform="translate(1003.710938 0.015625)"/>
      <use xlink:href="#DejaVuSans-67" transform="translate(1067.089844 0.015625)"/>
      <use xlink:href="#DejaVuSans-29" transform="translate(1130.566406 0.015625)"/>
     </g>
    </g>
    <g id="line2d_16">
     <path d="M 57.009063 48.69 
L 66.009062 48.69 
L 75.009062 48.69 
" style="fill: none; stroke: #2e6be5; stroke-width: 2; stroke-linecap: square"/>
    </g>
    <g id="text_17">
     <!-- Itō slope $(\mu - \sigma^2/2)\,t$  (correct) -->
     <g transform="translate(82.209063 51.84) scale(0.09 -0.09)">
      <use xlink:href="#DejaVuSans-49" transform="translate(0 0.765625)"/>
      <use xlink:href="#DejaVuSans-74" transform="translate(29.492188 0.765625)"/>
      <use xlink:href="#DejaVuSans-14d" transform="translate(68.701172 0.765625)"/>
      <use xlink:href="#DejaVuSans-20" transform="translate(129.882812 0.765625)"/>
      <use xlink:href="#DejaVuSans-73" transform="translate(161.669922 0.765625)"/>
      <use xlink:href="#DejaVuSans-6c" transform="translate(213.769531 0.765625)"/>
      <use xlink:href="#DejaVuSans-6f" transform="translate(241.552734 0.765625)"/>
      <use xlink:href="#DejaVuSans-70" transform="translate(302.734375 0.765625)"/>
      <use xlink:href="#DejaVuSans-65" transform="translate(366.210938 0.765625)"/>
      <use xlink:href="#DejaVuSans-20" transform="translate(427.734375 0.765625)"/>
      <use xlink:href="#DejaVuSans-28" transform="translate(459.521484 0.765625)"/>
      <use xlink:href="#DejaVuSans-Oblique-3bc" transform="translate(498.535156 0.765625)"/>
      <use xlink:href="#DejaVuSans-2212" transform="translate(581.640625 0.765625)"/>
      <use xlink:href="#DejaVuSans-Oblique-3c3" transform="translate(684.912109 0.765625)"/>
      <use xlink:href="#DejaVuSans-32" transform="translate(752.763724 39.046875) scale(0.7)"/>
      <use xlink:href="#DejaVuSans-2f" transform="translate(800.034232 0.765625)"/>
      <use xlink:href="#DejaVuSans-32" transform="translate(830.100638 0.765625)"/>
      <use xlink:href="#DejaVuSans-29" transform="translate(893.723685 0.765625)"/>
      <use xlink:href="#DejaVuSans-Oblique-74" transform="translate(948.973033 0.765625)"/>
      <use xlink:href="#DejaVuSans-20" transform="translate(988.182017 0.765625)"/>
      <use xlink:href="#DejaVuSans-20" transform="translate(1019.969127 0.765625)"/>
      <use xlink:href="#DejaVuSans-28" transform="translate(1051.756236 0.765625)"/>
      <use xlink:href="#DejaVuSans-63" transform="translate(1090.769908 0.765625)"/>
      <use xlink:href="#DejaVuSans-6f" transform="translate(1145.750377 0.765625)"/>
      <use xlink:href="#DejaVuSans-72" transform="translate(1206.932017 0.765625)"/>
      <use xlink:href="#DejaVuSans-72" transform="translate(1248.045299 0.765625)"/>
      <use xlink:href="#DejaVuSans-65" transform="translate(1289.15858 0.765625)"/>
      <use xlink:href="#DejaVuSans-63" transform="translate(1350.682017 0.765625)"/>
      <use xlink:href="#DejaVuSans-74" transform="translate(1405.662486 0.765625)"/>
      <use xlink:href="#DejaVuSans-29" transform="translate(1444.871471 0.765625)"/>
     </g>
    </g>
   </g>
  </g>
 </g>
 <defs>
  <clipPath id="p512eb072cb">
   <rect x="48.909063" y="22.32" width="390.6" height="210.672"/>
  </clipPath>
 </defs>
</svg>
