<?xml version="1.0" encoding="utf-8" standalone="no"?>
<!DOCTYPE svg PUBLIC "-//W3C//DTD SVG 1.1//EN"
  "http://www.w3.org/Graphics/SVG/1.1/DTD/svg11.dtd">
<svg xmlns:xlink="http://www.w3.org/1999/xlink" width="438.098437pt" height="270.54825pt" viewBox="0 0 438.098437 270.54825" xmlns="http://www.w3.org/2000/svg" version="1.1">
 <metadata>
  <rdf:RDF xmlns:dc="http://purl.org/dc/elements/1.1/" xmlns:cc="http://creativecommons.org/ns#" xmlns:rdf="http://www.w3.org/1999/02/22-rdf-syntax-ns#">
   <cc:Work>
    <dc:type rdf:resource="http://purl.org/dc/dcmitype/StillImage"/>
    <dc:date>2026-03-07T13:33:12.326153</dc:date>
    <dc:format>image/svg+xml</dc:format>
    <dc:creator>
     <cc:Agent>
      <dc:title>Matplotlib v3.8.4, https://matplotlib.org/</dc:title>
     </cc:Agent>
    </dc:creator>
   </cc:Work>
  </rdf:RDF>
 </metadata>
 <defs>
  <style type="text/css">*{stroke-linejoin: round; stroke-linecap: butt}</style>
 </defs>
 <g id="figure_1">
  <g id="patch_1">
   <path d="M 0 270.54825 
L 438.098437 270.54825 
L 438.098437 0 
L 0 0 
z
" style="fill: #ffffff"/>
  </g>
  <g id="axes_1">
   <g id="patch_2">
    <path d="M 40.298438 232.992 
L 430.898438 232.992 
L 430.898438 22.32 
L 40.298438 22.32 
z
" style="fill: #ffffff"/>
   </g>
   <g id="PolyCollection_1">
    <defs>
     <path id="m8543fb50ed" d="M 58.052983 -47.13225 
L 58.052983 -238.65225 
L 58.497402 -238.36786 
L 58.941821 -237.971348 
L 59.38624 -237.462975 
L 59.83066 -236.843176 
L 60.275079 -236.11256 
L 60.719498 -235.271907 
L 61.163917 -234.322169 
L 61.608336 -233.264466 
L 62.052755 -232.100088 
L 62.497175 -230.830488 
L 62.941594 -229.457285 
L 63.386013 -227.982258 
L 63.830432 -226.407344 
L 64.274851 -224.734636 
L 64.71927 -222.966378 
L 65.16369 -221.104965 
L 65.608109 -219.152933 
L 66.052528 -217.112963 
L 66.496947 -214.98787 
L 66.941366 -212.780602 
L 67.385785 -210.494236 
L 67.830204 -208.131971 
L 68.274624 -205.697126 
L 68.719043 -203.19313 
L 69.163462 -200.623522 
L 69.607881 -197.991943 
L 70.0523 -195.302131 
L 70.496719 -192.557914 
L 70.941139 -189.763205 
L 71.385558 -186.921997 
L 71.829977 -184.038354 
L 72.274396 -181.116409 
L 72.718815 -178.160353 
L 73.163234 -175.174431 
L 73.607654 -172.162936 
L 74.052073 -169.1302 
L 74.496492 -166.08059 
L 74.940911 -163.018499 
L 75.38533 -159.948341 
L 75.829749 -156.874542 
L 76.274169 -153.801537 
L 76.718588 -150.733757 
L 77.163007 -147.67563 
L 77.607426 -144.631568 
L 78.051845 -141.60596 
L 78.496264 -138.60317 
L 78.940683 -135.627528 
L 79.385103 -132.683322 
L 79.829522 -129.774791 
L 80.273941 -126.906121 
L 80.71836 -124.081438 
L 81.162779 -121.3048 
L 81.607198 -118.580191 
L 82.051618 -115.911518 
L 82.496037 -113.302598 
L 82.940456 -110.75716 
L 83.384875 -108.278836 
L 83.829294 -105.871153 
L 84.273713 -103.537531 
L 84.718133 -101.281275 
L 85.162552 -99.105574 
L 85.606971 -97.013491 
L 86.05139 -95.007962 
L 86.495809 -93.091788 
L 86.940228 -91.267635 
L 87.384648 -89.538028 
L 87.829067 -87.905343 
L 88.273486 -86.371812 
L 88.717905 -84.939512 
L 89.162324 -83.610363 
L 89.606743 -82.386129 
L 90.051162 -81.268413 
L 90.495582 -80.258651 
L 90.940001 -79.358116 
L 91.38442 -78.567913 
L 91.828839 -77.888975 
L 92.273258 -77.322065 
L 92.717677 -76.867776 
L 93.162097 -76.526524 
L 93.606516 -76.298554 
L 94.050935 -76.183935 
L 94.495354 -76.182563 
L 94.939773 -76.294159 
L 95.384192 -76.51827 
L 95.828612 -76.854271 
L 96.273031 -77.301365 
L 96.71745 -77.858582 
L 97.161869 -78.524785 
L 97.606288 -79.298669 
L 98.050707 -80.178762 
L 98.495127 -81.163431 
L 98.939546 -82.25088 
L 99.383965 -83.439156 
L 99.828384 -84.726152 
L 100.272803 -86.109607 
L 100.717222 -87.587114 
L 101.161642 -89.15612 
L 101.606061 -90.813932 
L 102.05048 -92.557721 
L 102.494899 -94.384525 
L 102.939318 -96.291256 
L 103.383737 -98.274702 
L 103.828156 -100.331534 
L 104.272576 -102.45831 
L 104.716995 -104.651481 
L 105.161414 -106.907396 
L 105.605833 -109.222309 
L 106.050252 -111.592382 
L 106.494671 -114.013694 
L 106.939091 -116.482244 
L 107.38351 -118.993962 
L 107.827929 -121.544708 
L 108.272348 -124.130286 
L 108.716767 -126.746445 
L 109.161186 -129.388889 
L 109.605606 -132.053282 
L 110.050025 -134.735253 
L 110.494444 -137.430407 
L 110.938863 -140.134329 
L 111.383282 -142.842592 
L 111.827701 -145.55076 
L 112.272121 -148.254402 
L 112.71654 -150.949093 
L 113.160959 -153.630423 
L 113.605378 -156.294002 
L 114.049797 -158.935472 
L 114.494216 -161.550506 
L 114.938635 -164.134821 
L 115.383055 -166.684182 
L 115.827474 -169.19441 
L 116.271893 -171.661384 
L 116.716312 -174.081055 
L 117.160731 -176.449445 
L 117.60515 -178.762658 
L 118.04957 -181.016882 
L 118.493989 -183.208399 
L 118.938408 -185.333588 
L 119.382827 -187.388932 
L 119.827246 -189.371022 
L 120.271665 -191.276564 
L 120.716085 -193.102382 
L 121.160504 -194.845426 
L 121.604923 -196.502773 
L 122.049342 -198.071634 
L 122.493761 -199.549358 
L 122.93818 -200.933436 
L 123.3826 -202.221503 
L 123.827019 -203.411346 
L 124.271438 -204.500901 
L 124.715857 -205.488264 
L 125.160276 -206.371688 
L 125.604695 -207.149586 
L 126.049114 -207.820537 
L 126.493534 -208.383286 
L 126.937953 -208.836745 
L 127.382372 -209.179998 
L 127.826791 -209.412298 
L 128.27121 -209.533072 
L 128.715629 -209.541918 
L 129.160049 -209.438611 
L 129.604468 -209.223098 
L 130.048887 -208.895502 
L 130.493306 -208.456117 
L 130.937725 -207.905415 
L 131.382144 -207.244038 
L 131.826564 -206.472801 
L 132.270983 -205.592688 
L 132.715402 -204.604856 
L 133.159821 -203.510626 
L 133.60424 -202.311485 
L 134.048659 -201.009084 
L 134.493079 -199.605234 
L 134.937498 -198.101903 
L 135.381917 -196.501215 
L 135.826336 -194.805444 
L 136.270755 -193.017013 
L 136.715174 -191.13849 
L 137.159593 -189.172579 
L 137.604013 -187.122125 
L 138.048432 -184.990102 
L 138.492851 -182.77961 
L 138.93727 -180.493874 
L 139.381689 -178.136235 
L 139.826108 -175.710144 
L 140.270528 -173.219162 
L 140.714947 -170.666948 
L 141.159366 -168.05726 
L 141.603785 -165.393943 
L 142.048204 -162.680927 
L 142.492623 -159.922219 
L 142.937043 -157.121897 
L 143.381462 -154.284107 
L 143.825881 -151.413051 
L 144.2703 -148.512984 
L 144.714719 -145.588207 
L 145.159138 -142.64306 
L 145.603558 -139.681915 
L 146.047977 -136.709171 
L 146.492396 -133.729245 
L 146.936815 -130.746564 
L 147.381234 -127.765564 
L 147.825653 -124.790675 
L 148.270072 -121.826323 
L 148.714492 -118.876915 
L 149.158911 -115.946837 
L 149.60333 -113.040446 
L 150.047749 -110.162063 
L 150.492168 -107.315968 
L 150.936587 -104.506391 
L 151.381007 -101.737505 
L 151.825426 -99.013423 
L 152.269845 -96.338188 
L 152.714264 -93.715771 
L 153.158683 -91.150059 
L 153.603102 -88.644855 
L 154.047522 -86.203867 
L 154.491941 -83.830706 
L 154.93636 -81.528879 
L 155.380779 -79.301784 
L 155.825198 -77.152702 
L 156.269617 -75.084798 
L 156.714037 -73.101109 
L 157.158456 -71.204545 
L 157.602875 -69.397881 
L 158.047294 -67.683754 
L 158.491713 -66.06466 
L 158.936132 -64.542947 
L 159.380552 -63.120814 
L 159.824971 -61.80031 
L 160.26939 -60.583322 
L 160.713809 -59.471583 
L 161.158228 -58.466662 
L 161.602647 -57.569963 
L 162.047066 -56.782726 
L 162.491486 -56.106021 
L 162.935905 -55.540747 
L 163.380324 -55.087634 
L 163.824743 -54.747238 
L 164.269162 -54.519943 
L 164.713581 -54.405957 
L 165.158001 -54.405316 
L 165.60242 -54.517879 
L 166.046839 -54.743334 
L 166.491258 -55.081193 
L 166.935677 -55.530796 
L 167.380096 -56.091311 
L 167.824516 -56.761736 
L 168.268935 -57.540899 
L 168.713354 -58.427462 
L 169.157773 -59.419921 
L 169.602192 -60.516608 
L 170.046611 -61.715698 
L 170.491031 -63.015206 
L 170.93545 -64.412993 
L 171.379869 -65.90677 
L 171.824288 -67.4941 
L 172.268707 -69.172401 
L 172.713126 -70.938953 
L 173.157545 -72.790901 
L 173.601965 -74.725256 
L 174.046384 -76.738904 
L 174.490803 -78.828612 
L 174.935222 -80.991025 
L 175.379641 -83.222682 
L 175.82406 -85.520011 
L 176.26848 -87.879343 
L 176.712899 -90.296911 
L 177.157318 -92.768863 
L 177.601737 -95.291259 
L 178.046156 -97.860085 
L 178.490575 -100.471255 
L 178.934995 -103.120619 
L 179.379414 -105.803969 
L 179.823833 -108.517045 
L 180.268252 -111.255541 
L 180.712671 -114.015113 
L 181.15709 -116.791388 
L 181.60151 -119.579963 
L 182.045929 -122.376422 
L 182.490348 -125.176335 
L 182.934767 -127.975267 
L 183.379186 -130.768786 
L 183.823605 -133.552471 
L 184.268024 -136.321915 
L 184.712444 -139.072734 
L 185.156863 -141.800576 
L 185.601282 -144.501121 
L 186.045701 -147.170097 
L 186.49012 -149.803278 
L 186.934539 -152.396497 
L 187.378959 -154.945647 
L 187.823378 -157.446691 
L 188.267797 -159.895669 
L 188.712216 -162.2887 
L 189.156635 -164.621991 
L 189.601054 -166.891843 
L 190.045474 -169.094655 
L 190.489893 -171.226932 
L 190.934312 -173.285286 
L 191.378731 -175.266448 
L 191.82315 -177.167265 
L 192.267569 -178.984713 
L 192.711989 -180.715896 
L 193.156408 -182.358052 
L 193.600827 -183.908557 
L 194.045246 -185.364931 
L 194.489665 -186.72484 
L 194.934084 -187.986099 
L 195.378503 -189.146678 
L 195.822923 -190.204702 
L 196.267342 -191.158456 
L 196.711761 -192.006387 
L 197.15618 -192.747107 
L 197.600599 -193.379393 
L 198.045018 -193.902194 
L 198.489438 -194.314624 
L 198.933857 -194.615974 
L 199.378276 -194.805702 
L 199.822695 -194.883445 
L 200.267114 -194.849009 
L 200.711533 -194.702379 
L 201.155953 -194.443709 
L 201.600372 -194.073332 
L 202.044791 -193.591752 
L 202.48921 -192.999647 
L 202.933629 -192.297864 
L 203.378048 -191.487424 
L 203.822468 -190.569516 
L 204.266887 -189.545493 
L 204.711306 -188.416877 
L 205.155725 -187.18535 
L 205.600144 -185.852756 
L 206.044563 -184.421093 
L 206.488982 -182.892515 
L 206.933402 -181.269328 
L 207.377821 -179.553983 
L 207.82224 -177.749075 
L 208.266659 -175.857339 
L 208.711078 -173.881643 
L 209.155497 -171.824988 
L 209.599917 -169.6905 
L 210.044336 -167.481427 
L 210.488755 -165.201131 
L 210.933174 -162.853088 
L 211.377593 -160.440878 
L 211.822012 -157.96818 
L 212.266432 -155.43877 
L 212.710851 -152.85651 
L 213.15527 -150.225347 
L 213.599689 -147.549302 
L 214.044108 -144.832467 
L 214.488527 -142.079 
L 214.932947 -139.293114 
L 215.377366 -136.479073 
L 215.821785 -133.641188 
L 216.266204 -130.783805 
L 216.710623 -127.911302 
L 217.155042 -125.028082 
L 217.599462 -122.138564 
L 218.043881 -119.247179 
L 218.4883 -116.358361 
L 218.932719 -113.47654 
L 219.377138 -110.606139 
L 219.821557 -107.751561 
L 220.265976 -104.917187 
L 220.710396 -102.107367 
L 221.154815 -99.326416 
L 221.599234 -96.578602 
L 222.043653 -93.868144 
L 222.488072 -91.199206 
L 222.932491 -88.575887 
L 223.376911 -86.002215 
L 223.82133 -83.482144 
L 224.265749 -81.019547 
L 224.710168 -78.618206 
L 225.154587 -76.281812 
L 225.599006 -74.013955 
L 226.043426 -71.818121 
L 226.487845 -69.697684 
L 226.932264 -67.655903 
L 227.376683 -65.695916 
L 227.821102 -63.820738 
L 228.265521 -62.033251 
L 228.709941 -60.336202 
L 229.15436 -58.7322 
L 229.598779 -57.223713 
L 230.043198 -55.813059 
L 230.487617 -54.502408 
L 230.932036 -53.293774 
L 231.376455 -52.189018 
L 231.820875 -51.189836 
L 232.265294 -50.297766 
L 232.709713 -49.51418 
L 233.154132 -48.840283 
L 233.598551 -48.277112 
L 234.04297 -47.825532 
L 234.48739 -47.486237 
L 234.931809 -47.259751 
L 235.376228 -47.14642 
L 235.820647 -47.14642 
L 236.265066 -47.259751 
L 236.709485 -47.486237 
L 237.153905 -47.825532 
L 237.598324 -48.277112 
L 238.042743 -48.840283 
L 238.487162 -49.51418 
L 238.931581 -50.297766 
L 239.376 -51.189836 
L 239.82042 -52.189018 
L 240.264839 -53.293774 
L 240.709258 -54.502408 
L 241.153677 -55.813059 
L 241.598096 -57.223713 
L 242.042515 -58.7322 
L 242.486934 -60.336202 
L 242.931354 -62.033251 
L 243.375773 -63.820738 
L 243.820192 -65.695916 
L 244.264611 -67.655903 
L 244.70903 -69.697684 
L 245.153449 -71.818121 
L 245.597869 -74.013955 
L 246.042288 -76.281812 
L 246.486707 -78.618206 
L 246.931126 -81.019547 
L 247.375545 -83.482144 
L 247.819964 -86.002215 
L 248.264384 -88.575887 
L 248.708803 -91.199206 
L 249.153222 -93.868144 
L 249.597641 -96.578602 
L 250.04206 -99.326416 
L 250.486479 -102.107367 
L 250.930899 -104.917187 
L 251.375318 -107.751561 
L 251.819737 -110.606139 
L 252.264156 -113.47654 
L 252.708575 -116.358361 
L 253.152994 -119.247179 
L 253.597413 -122.138564 
L 254.041833 -125.028082 
L 254.486252 -127.911302 
L 254.930671 -130.783805 
L 255.37509 -133.641188 
L 255.819509 -136.479073 
L 256.263928 -139.293114 
L 256.708348 -142.079 
L 257.152767 -144.832467 
L 257.597186 -147.549302 
L 258.041605 -150.225347 
L 258.486024 -152.85651 
L 258.930443 -155.43877 
L 259.374863 -157.96818 
L 259.819282 -160.440878 
L 260.263701 -162.853088 
L 260.70812 -165.201131 
L 261.152539 -167.481427 
L 261.596958 -169.6905 
L 262.041378 -171.824988 
L 262.485797 -173.881643 
L 262.930216 -175.857339 
L 263.374635 -177.749075 
L 263.819054 -179.553983 
L 264.263473 -181.269328 
L 264.707893 -182.892515 
L 265.152312 -184.421093 
L 265.596731 -185.852756 
L 266.04115 -187.18535 
L 266.485569 -188.416877 
L 266.929988 -189.545493 
L 267.374407 -190.569516 
L 267.818827 -191.487424 
L 268.263246 -192.297864 
L 268.707665 -192.999647 
L 269.152084 -193.591752 
L 269.596503 -194.073332 
L 270.040922 -194.443709 
L 270.485342 -194.702379 
L 270.929761 -194.849009 
L 271.37418 -194.883445 
L 271.818599 -194.805702 
L 272.263018 -194.615974 
L 272.707437 -194.314624 
L 273.151857 -193.902194 
L 273.596276 -193.379393 
L 274.040695 -192.747107 
L 274.485114 -192.006387 
L 274.929533 -191.158456 
L 275.373952 -190.204702 
L 275.818372 -189.146678 
L 276.262791 -187.986099 
L 276.70721 -186.72484 
L 277.151629 -185.364931 
L 277.596048 -183.908557 
L 278.040467 -182.358052 
L 278.484886 -180.715896 
L 278.929306 -178.984713 
L 279.373725 -177.167265 
L 279.818144 -175.266448 
L 280.262563 -173.285286 
L 280.706982 -171.226932 
L 281.151401 -169.094655 
L 281.595821 -166.891843 
L 282.04024 -164.621991 
L 282.484659 -162.2887 
L 282.929078 -159.895669 
L 283.373497 -157.446691 
L 283.817916 -154.945647 
L 284.262336 -152.396497 
L 284.706755 -149.803278 
L 285.151174 -147.170097 
L 285.595593 -144.501121 
L 286.040012 -141.800576 
L 286.484431 -139.072734 
L 286.928851 -136.321915 
L 287.37327 -133.552471 
L 287.817689 -130.768786 
L 288.262108 -127.975267 
L 288.706527 -125.176335 
L 289.150946 -122.376422 
L 289.595365 -119.579963 
L 290.039785 -116.791388 
L 290.484204 -114.015113 
L 290.928623 -111.255541 
L 291.373042 -108.517045 
L 291.817461 -105.803969 
L 292.26188 -103.120619 
L 292.7063 -100.471255 
L 293.150719 -97.860085 
L 293.595138 -95.291259 
L 294.039557 -92.768863 
L 294.483976 -90.296911 
L 294.928395 -87.879343 
L 295.372815 -85.520011 
L 295.817234 -83.222682 
L 296.261653 -80.991025 
L 296.706072 -78.828612 
L 297.150491 -76.738904 
L 297.59491 -74.725256 
L 298.03933 -72.790901 
L 298.483749 -70.938953 
L 298.928168 -69.172401 
L 299.372587 -67.4941 
L 299.817006 -65.90677 
L 300.261425 -64.412993 
L 300.705844 -63.015206 
L 301.150264 -61.715698 
L 301.594683 -60.516608 
L 302.039102 -59.419921 
L 302.483521 -58.427462 
L 302.92794 -57.540899 
L 303.372359 -56.761736 
L 303.816779 -56.091311 
L 304.261198 -55.530796 
L 304.705617 -55.081193 
L 305.150036 -54.743334 
L 305.594455 -54.517879 
L 306.038874 -54.405316 
L 306.483294 -54.405957 
L 306.927713 -54.519943 
L 307.372132 -54.747238 
L 307.816551 -55.087634 
L 308.26097 -55.540747 
L 308.705389 -56.106021 
L 309.149809 -56.782726 
L 309.594228 -57.569963 
L 310.038647 -58.466662 
L 310.483066 -59.471583 
L 310.927485 -60.583322 
L 311.371904 -61.80031 
L 311.816323 -63.120814 
L 312.260743 -64.542947 
L 312.705162 -66.06466 
L 313.149581 -67.683754 
L 313.594 -69.397881 
L 314.038419 -71.204545 
L 314.482838 -73.101109 
L 314.927258 -75.084798 
L 315.371677 -77.152702 
L 315.816096 -79.301784 
L 316.260515 -81.528879 
L 316.704934 -83.830706 
L 317.149353 -86.203867 
L 317.593773 -88.644855 
L 318.038192 -91.150059 
L 318.482611 -93.715771 
L 318.92703 -96.338188 
L 319.371449 -99.013423 
L 319.815868 -101.737505 
L 320.260288 -104.506391 
L 320.704707 -107.315968 
L 321.149126 -110.162063 
L 321.593545 -113.040446 
L 322.037964 -115.946837 
L 322.482383 -118.876915 
L 322.926803 -121.826323 
L 323.371222 -124.790675 
L 323.815641 -127.765564 
L 324.26006 -130.746564 
L 324.704479 -133.729245 
L 325.148898 -136.709171 
L 325.593317 -139.681915 
L 326.037737 -142.64306 
L 326.482156 -145.588207 
L 326.926575 -148.512984 
L 327.370994 -151.413051 
L 327.815413 -154.284107 
L 328.259832 -157.121897 
L 328.704252 -159.922219 
L 329.148671 -162.680927 
L 329.59309 -165.393943 
L 330.037509 -168.05726 
L 330.481928 -170.666948 
L 330.926347 -173.219162 
L 331.370767 -175.710144 
L 331.815186 -178.136235 
L 332.259605 -180.493874 
L 332.704024 -182.77961 
L 333.148443 -184.990102 
L 333.592862 -187.122125 
L 334.037282 -189.172579 
L 334.481701 -191.13849 
L 334.92612 -193.017013 
L 335.370539 -194.805444 
L 335.814958 -196.501215 
L 336.259377 -198.101903 
L 336.703796 -199.605234 
L 337.148216 -201.009084 
L 337.592635 -202.311485 
L 338.037054 -203.510626 
L 338.481473 -204.604856 
L 338.925892 -205.592688 
L 339.370311 -206.472801 
L 339.814731 -207.244038 
L 340.25915 -207.905415 
L 340.703569 -208.456117 
L 341.147988 -208.895502 
L 341.592407 -209.223098 
L 342.036826 -209.438611 
L 342.481246 -209.541918 
L 342.925665 -209.533072 
L 343.370084 -209.412298 
L 343.814503 -209.179998 
L 344.258922 -208.836745 
L 344.703341 -208.383286 
L 345.147761 -207.820537 
L 345.59218 -207.149586 
L 346.036599 -206.371688 
L 346.481018 -205.488264 
L 346.925437 -204.500901 
L 347.369856 -203.411346 
L 347.814275 -202.221503 
L 348.258695 -200.933436 
L 348.703114 -199.549358 
L 349.147533 -198.071634 
L 349.591952 -196.502773 
L 350.036371 -194.845426 
L 350.48079 -193.102382 
L 350.92521 -191.276564 
L 351.369629 -189.371022 
L 351.814048 -187.388932 
L 352.258467 -185.333588 
L 352.702886 -183.208399 
L 353.147305 -181.016882 
L 353.591725 -178.762658 
L 354.036144 -176.449445 
L 354.480563 -174.081055 
L 354.924982 -171.661384 
L 355.369401 -169.19441 
L 355.81382 -166.684182 
L 356.25824 -164.134821 
L 356.702659 -161.550506 
L 357.147078 -158.935472 
L 357.591497 -156.294002 
L 358.035916 -153.630423 
L 358.480335 -150.949093 
L 358.924754 -148.254402 
L 359.369174 -145.55076 
L 359.813593 -142.842592 
L 360.258012 -140.134329 
L 360.702431 -137.430407 
L 361.14685 -134.735253 
L 361.591269 -132.053282 
L 362.035689 -129.388889 
L 362.480108 -126.746445 
L 362.924527 -124.130286 
L 363.368946 -121.544708 
L 363.813365 -118.993962 
L 364.257784 -116.482244 
L 364.702204 -114.013694 
L 365.146623 -111.592382 
L 365.591042 -109.222309 
L 366.035461 -106.907396 
L 366.47988 -104.651481 
L 366.924299 -102.45831 
L 367.368719 -100.331534 
L 367.813138 -98.274702 
L 368.257557 -96.291256 
L 368.701976 -94.384525 
L 369.146395 -92.557721 
L 369.590814 -90.813932 
L 370.035233 -89.15612 
L 370.479653 -87.587114 
L 370.924072 -86.109607 
L 371.368491 -84.726152 
L 371.81291 -83.439156 
L 372.257329 -82.25088 
L 372.701748 -81.163431 
L 373.146168 -80.178762 
L 373.590587 -79.298669 
L 374.035006 -78.524785 
L 374.479425 -77.858582 
L 374.923844 -77.301365 
L 375.368263 -76.854271 
L 375.812683 -76.51827 
L 376.257102 -76.294159 
L 376.701521 -76.182563 
L 377.14594 -76.183935 
L 377.590359 -76.298554 
L 378.034778 -76.526524 
L 378.479198 -76.867776 
L 378.923617 -77.322065 
L 379.368036 -77.888975 
L 379.812455 -78.567913 
L 380.256874 -79.358116 
L 380.701293 -80.258651 
L 381.145713 -81.268413 
L 381.590132 -82.386129 
L 382.034551 -83.610363 
L 382.47897 -84.939512 
L 382.923389 -86.371812 
L 383.367808 -87.905343 
L 383.812227 -89.538028 
L 384.256647 -91.267635 
L 384.701066 -93.091788 
L 385.145485 -95.007962 
L 385.589904 -97.013491 
L 386.034323 -99.105574 
L 386.478742 -101.281275 
L 386.923162 -103.537531 
L 387.367581 -105.871153 
L 387.812 -108.278836 
L 388.256419 -110.75716 
L 388.700838 -113.302598 
L 389.145257 -115.911518 
L 389.589677 -118.580191 
L 390.034096 -121.3048 
L 390.478515 -124.081438 
L 390.922934 -126.906121 
L 391.367353 -129.774791 
L 391.811772 -132.683322 
L 392.256192 -135.627528 
L 392.700611 -138.60317 
L 393.14503 -141.60596 
L 393.589449 -144.631568 
L 394.033868 -147.67563 
L 394.478287 -150.733757 
L 394.922706 -153.801537 
L 395.367126 -156.874542 
L 395.811545 -159.948341 
L 396.255964 -163.018499 
L 396.700383 -166.08059 
L 397.144802 -169.1302 
L 397.589221 -172.162936 
L 398.033641 -175.174431 
L 398.47806 -178.160353 
L 398.922479 -181.116409 
L 399.366898 -184.038354 
L 399.811317 -186.921997 
L 400.255736 -189.763205 
L 400.700156 -192.557914 
L 401.144575 -195.302131 
L 401.588994 -197.991943 
L 402.033413 -200.623522 
L 402.477832 -203.19313 
L 402.922251 -205.697126 
L 403.366671 -208.131971 
L 403.81109 -210.494236 
L 404.255509 -212.780602 
L 404.699928 -214.98787 
L 405.144347 -217.112963 
L 405.588766 -219.152933 
L 406.033185 -221.104965 
L 406.477605 -222.966378 
L 406.922024 -224.734636 
L 407.366443 -226.407344 
L 407.810862 -227.982258 
L 408.255281 -229.457285 
L 408.6997 -230.830488 
L 409.14412 -232.100088 
L 409.588539 -233.264466 
L 410.032958 -234.322169 
L 410.477377 -235.271907 
L 410.921796 -236.11256 
L 411.366215 -236.843176 
L 411.810635 -237.462975 
L 412.255054 -237.971348 
L 412.699473 -238.36786 
L 413.143892 -238.65225 
L 413.143892 -47.13225 
L 413.143892 -47.13225 
L 412.699473 -47.13225 
L 412.255054 -47.13225 
L 411.810635 -47.13225 
L 411.366215 -47.13225 
L 410.921796 -47.13225 
L 410.477377 -47.13225 
L 410.032958 -47.13225 
L 409.588539 -47.13225 
L 409.14412 -47.13225 
L 408.6997 -47.13225 
L 408.255281 -47.13225 
L 407.810862 -47.13225 
L 407.366443 -47.13225 
L 406.922024 -47.13225 
L 406.477605 -47.13225 
L 406.033185 -47.13225 
L 405.588766 -47.13225 
L 405.144347 -47.13225 
L 404.699928 -47.13225 
L 404.255509 -47.13225 
L 403.81109 -47.13225 
L 403.366671 -47.13225 
L 402.922251 -47.13225 
L 402.477832 -47.13225 
L 402.033413 -47.13225 
L 401.588994 -47.13225 
L 401.144575 -47.13225 
L 400.700156 -47.13225 
L 400.255736 -47.13225 
L 399.811317 -47.13225 
L 399.366898 -47.13225 
L 398.922479 -47.13225 
L 398.47806 -47.13225 
L 398.033641 -47.13225 
L 397.589221 -47.13225 
L 397.144802 -47.13225 
L 396.700383 -47.13225 
L 396.255964 -47.13225 
L 395.811545 -47.13225 
L 395.367126 -47.13225 
L 394.922706 -47.13225 
L 394.478287 -47.13225 
L 394.033868 -47.13225 
L 393.589449 -47.13225 
L 393.14503 -47.13225 
L 392.700611 -47.13225 
L 392.256192 -47.13225 
L 391.811772 -47.13225 
L 391.367353 -47.13225 
L 390.922934 -47.13225 
L 390.478515 -47.13225 
L 390.034096 -47.13225 
L 389.589677 -47.13225 
L 389.145257 -47.13225 
L 388.700838 -47.13225 
L 388.256419 -47.13225 
L 387.812 -47.13225 
L 387.367581 -47.13225 
L 386.923162 -47.13225 
L 386.478742 -47.13225 
L 386.034323 -47.13225 
L 385.589904 -47.13225 
L 385.145485 -47.13225 
L 384.701066 -47.13225 
L 384.256647 -47.13225 
L 383.812227 -47.13225 
L 383.367808 -47.13225 
L 382.923389 -47.13225 
L 382.47897 -47.13225 
L 382.034551 -47.13225 
L 381.590132 -47.13225 
L 381.145713 -47.13225 
L 380.701293 -47.13225 
L 380.256874 -47.13225 
L 379.812455 -47.13225 
L 379.368036 -47.13225 
L 378.923617 -47.13225 
L 378.479198 -47.13225 
L 378.034778 -47.13225 
L 377.590359 -47.13225 
L 377.14594 -47.13225 
L 376.701521 -47.13225 
L 376.257102 -47.13225 
L 375.812683 -47.13225 
L 375.368263 -47.13225 
L 374.923844 -47.13225 
L 374.479425 -47.13225 
L 374.035006 -47.13225 
L 373.590587 -47.13225 
L 373.146168 -47.13225 
L 372.701748 -47.13225 
L 372.257329 -47.13225 
L 371.81291 -47.13225 
L 371.368491 -47.13225 
L 370.924072 -47.13225 
L 370.479653 -47.13225 
L 370.035233 -47.13225 
L 369.590814 -47.13225 
L 369.146395 -47.13225 
L 368.701976 -47.13225 
L 368.257557 -47.13225 
L 367.813138 -47.13225 
L 367.368719 -47.13225 
L 366.924299 -47.13225 
L 366.47988 -47.13225 
L 366.035461 -47.13225 
L 365.591042 -47.13225 
L 365.146623 -47.13225 
L 364.702204 -47.13225 
L 364.257784 -47.13225 
L 363.813365 -47.13225 
L 363.368946 -47.13225 
L 362.924527 -47.13225 
L 362.480108 -47.13225 
L 362.035689 -47.13225 
L 361.591269 -47.13225 
L 361.14685 -47.13225 
L 360.702431 -47.13225 
L 360.258012 -47.13225 
L 359.813593 -47.13225 
L 359.369174 -47.13225 
L 358.924754 -47.13225 
L 358.480335 -47.13225 
L 358.035916 -47.13225 
L 357.591497 -47.13225 
L 357.147078 -47.13225 
L 356.702659 -47.13225 
L 356.25824 -47.13225 
L 355.81382 -47.13225 
L 355.369401 -47.13225 
L 354.924982 -47.13225 
L 354.480563 -47.13225 
L 354.036144 -47.13225 
L 353.591725 -47.13225 
L 353.147305 -47.13225 
L 352.702886 -47.13225 
L 352.258467 -47.13225 
L 351.814048 -47.13225 
L 351.369629 -47.13225 
L 350.92521 -47.13225 
L 350.48079 -47.13225 
L 350.036371 -47.13225 
L 349.591952 -47.13225 
L 349.147533 -47.13225 
L 348.703114 -47.13225 
L 348.258695 -47.13225 
L 347.814275 -47.13225 
L 347.369856 -47.13225 
L 346.925437 -47.13225 
L 346.481018 -47.13225 
L 346.036599 -47.13225 
L 345.59218 -47.13225 
L 345.147761 -47.13225 
L 344.703341 -47.13225 
L 344.258922 -47.13225 
L 343.814503 -47.13225 
L 343.370084 -47.13225 
L 342.925665 -47.13225 
L 342.481246 -47.13225 
L 342.036826 -47.13225 
L 341.592407 -47.13225 
L 341.147988 -47.13225 
L 340.703569 -47.13225 
L 340.25915 -47.13225 
L 339.814731 -47.13225 
L 339.370311 -47.13225 
L 338.925892 -47.13225 
L 338.481473 -47.13225 
L 338.037054 -47.13225 
L 337.592635 -47.13225 
L 337.148216 -47.13225 
L 336.703796 -47.13225 
L 336.259377 -47.13225 
L 335.814958 -47.13225 
L 335.370539 -47.13225 
L 334.92612 -47.13225 
L 334.481701 -47.13225 
L 334.037282 -47.13225 
L 333.592862 -47.13225 
L 333.148443 -47.13225 
L 332.704024 -47.13225 
L 332.259605 -47.13225 
L 331.815186 -47.13225 
L 331.370767 -47.13225 
L 330.926347 -47.13225 
L 330.481928 -47.13225 
L 330.037509 -47.13225 
L 329.59309 -47.13225 
L 329.148671 -47.13225 
L 328.704252 -47.13225 
L 328.259832 -47.13225 
L 327.815413 -47.13225 
L 327.370994 -47.13225 
L 326.926575 -47.13225 
L 326.482156 -47.13225 
L 326.037737 -47.13225 
L 325.593317 -47.13225 
L 325.148898 -47.13225 
L 324.704479 -47.13225 
L 324.26006 -47.13225 
L 323.815641 -47.13225 
L 323.371222 -47.13225 
L 322.926803 -47.13225 
L 322.482383 -47.13225 
L 322.037964 -47.13225 
L 321.593545 -47.13225 
L 321.149126 -47.13225 
L 320.704707 -47.13225 
L 320.260288 -47.13225 
L 319.815868 -47.13225 
L 319.371449 -47.13225 
L 318.92703 -47.13225 
L 318.482611 -47.13225 
L 318.038192 -47.13225 
L 317.593773 -47.13225 
L 317.149353 -47.13225 
L 316.704934 -47.13225 
L 316.260515 -47.13225 
L 315.816096 -47.13225 
L 315.371677 -47.13225 
L 314.927258 -47.13225 
L 314.482838 -47.13225 
L 314.038419 -47.13225 
L 313.594 -47.13225 
L 313.149581 -47.13225 
L 312.705162 -47.13225 
L 312.260743 -47.13225 
L 311.816323 -47.13225 
L 311.371904 -47.13225 
L 310.927485 -47.13225 
L 310.483066 -47.13225 
L 310.038647 -47.13225 
L 309.594228 -47.13225 
L 309.149809 -47.13225 
L 308.705389 -47.13225 
L 308.26097 -47.13225 
L 307.816551 -47.13225 
L 307.372132 -47.13225 
L 306.927713 -47.13225 
L 306.483294 -47.13225 
L 306.038874 -47.13225 
L 305.594455 -47.13225 
L 305.150036 -47.13225 
L 304.705617 -47.13225 
L 304.261198 -47.13225 
L 303.816779 -47.13225 
L 303.372359 -47.13225 
L 302.92794 -47.13225 
L 302.483521 -47.13225 
L 302.039102 -47.13225 
L 301.594683 -47.13225 
L 301.150264 -47.13225 
L 300.705844 -47.13225 
L 300.261425 -47.13225 
L 299.817006 -47.13225 
L 299.372587 -47.13225 
L 298.928168 -47.13225 
L 298.483749 -47.13225 
L 298.03933 -47.13225 
L 297.59491 -47.13225 
L 297.150491 -47.13225 
L 296.706072 -47.13225 
L 296.261653 -47.13225 
L 295.817234 -47.13225 
L 295.372815 -47.13225 
L 294.928395 -47.13225 
L 294.483976 -47.13225 
L 294.039557 -47.13225 
L 293.595138 -47.13225 
L 293.150719 -47.13225 
L 292.7063 -47.13225 
L 292.26188 -47.13225 
L 291.817461 -47.13225 
L 291.373042 -47.13225 
L 290.928623 -47.13225 
L 290.484204 -47.13225 
L 290.039785 -47.13225 
L 289.595365 -47.13225 
L 289.150946 -47.13225 
L 288.706527 -47.13225 
L 288.262108 -47.13225 
L 287.817689 -47.13225 
L 287.37327 -47.13225 
L 286.928851 -47.13225 
L 286.484431 -47.13225 
L 286.040012 -47.13225 
L 285.595593 -47.13225 
L 285.151174 -47.13225 
L 284.706755 -47.13225 
L 284.262336 -47.13225 
L 283.817916 -47.13225 
L 283.373497 -47.13225 
L 282.929078 -47.13225 
L 282.484659 -47.13225 
L 282.04024 -47.13225 
L 281.595821 -47.13225 
L 281.151401 -47.13225 
L 280.706982 -47.13225 
L 280.262563 -47.13225 
L 279.818144 -47.13225 
L 279.373725 -47.13225 
L 278.929306 -47.13225 
L 278.484886 -47.13225 
L 278.040467 -47.13225 
L 277.596048 -47.13225 
L 277.151629 -47.13225 
L 276.70721 -47.13225 
L 276.262791 -47.13225 
L 275.818372 -47.13225 
L 275.373952 -47.13225 
L 274.929533 -47.13225 
L 274.485114 -47.13225 
L 274.040695 -47.13225 
L 273.596276 -47.13225 
L 273.151857 -47.13225 
L 272.707437 -47.13225 
L 272.263018 -47.13225 
L 271.818599 -47.13225 
L 271.37418 -47.13225 
L 270.929761 -47.13225 
L 270.485342 -47.13225 
L 270.040922 -47.13225 
L 269.596503 -47.13225 
L 269.152084 -47.13225 
L 268.707665 -47.13225 
L 268.263246 -47.13225 
L 267.818827 -47.13225 
L 267.374407 -47.13225 
L 266.929988 -47.13225 
L 266.485569 -47.13225 
L 266.04115 -47.13225 
L 265.596731 -47.13225 
L 265.152312 -47.13225 
L 264.707893 -47.13225 
L 264.263473 -47.13225 
L 263.819054 -47.13225 
L 263.374635 -47.13225 
L 262.930216 -47.13225 
L 262.485797 -47.13225 
L 262.041378 -47.13225 
L 261.596958 -47.13225 
L 261.152539 -47.13225 
L 260.70812 -47.13225 
L 260.263701 -47.13225 
L 259.819282 -47.13225 
L 259.374863 -47.13225 
L 258.930443 -47.13225 
L 258.486024 -47.13225 
L 258.041605 -47.13225 
L 257.597186 -47.13225 
L 257.152767 -47.13225 
L 256.708348 -47.13225 
L 256.263928 -47.13225 
L 255.819509 -47.13225 
L 255.37509 -47.13225 
L 254.930671 -47.13225 
L 254.486252 -47.13225 
L 254.041833 -47.13225 
L 253.597413 -47.13225 
L 253.152994 -47.13225 
L 252.708575 -47.13225 
L 252.264156 -47.13225 
L 251.819737 -47.13225 
L 251.375318 -47.13225 
L 250.930899 -47.13225 
L 250.486479 -47.13225 
L 250.04206 -47.13225 
L 249.597641 -47.13225 
L 249.153222 -47.13225 
L 248.708803 -47.13225 
L 248.264384 -47.13225 
L 247.819964 -47.13225 
L 247.375545 -47.13225 
L 246.931126 -47.13225 
L 246.486707 -47.13225 
L 246.042288 -47.13225 
L 245.597869 -47.13225 
L 245.153449 -47.13225 
L 244.70903 -47.13225 
L 244.264611 -47.13225 
L 243.820192 -47.13225 
L 243.375773 -47.13225 
L 242.931354 -47.13225 
L 242.486934 -47.13225 
L 242.042515 -47.13225 
L 241.598096 -47.13225 
L 241.153677 -47.13225 
L 240.709258 -47.13225 
L 240.264839 -47.13225 
L 239.82042 -47.13225 
L 239.376 -47.13225 
L 238.931581 -47.13225 
L 238.487162 -47.13225 
L 238.042743 -47.13225 
L 237.598324 -47.13225 
L 237.153905 -47.13225 
L 236.709485 -47.13225 
L 236.265066 -47.13225 
L 235.820647 -47.13225 
L 235.376228 -47.13225 
L 234.931809 -47.13225 
L 234.48739 -47.13225 
L 234.04297 -47.13225 
L 233.598551 -47.13225 
L 233.154132 -47.13225 
L 232.709713 -47.13225 
L 232.265294 -47.13225 
L 231.820875 -47.13225 
L 231.376455 -47.13225 
L 230.932036 -47.13225 
L 230.487617 -47.13225 
L 230.043198 -47.13225 
L 229.598779 -47.13225 
L 229.15436 -47.13225 
L 228.709941 -47.13225 
L 228.265521 -47.13225 
L 227.821102 -47.13225 
L 227.376683 -47.13225 
L 226.932264 -47.13225 
L 226.487845 -47.13225 
L 226.043426 -47.13225 
L 225.599006 -47.13225 
L 225.154587 -47.13225 
L 224.710168 -47.13225 
L 224.265749 -47.13225 
L 223.82133 -47.13225 
L 223.376911 -47.13225 
L 222.932491 -47.13225 
L 222.488072 -47.13225 
L 222.043653 -47.13225 
L 221.599234 -47.13225 
L 221.154815 -47.13225 
L 220.710396 -47.13225 
L 220.265976 -47.13225 
L 219.821557 -47.13225 
L 219.377138 -47.13225 
L 218.932719 -47.13225 
L 218.4883 -47.13225 
L 218.043881 -47.13225 
L 217.599462 -47.13225 
L 217.155042 -47.13225 
L 216.710623 -47.13225 
L 216.266204 -47.13225 
L 215.821785 -47.13225 
L 215.377366 -47.13225 
L 214.932947 -47.13225 
L 214.488527 -47.13225 
L 214.044108 -47.13225 
L 213.599689 -47.13225 
L 213.15527 -47.13225 
L 212.710851 -47.13225 
L 212.266432 -47.13225 
L 211.822012 -47.13225 
L 211.377593 -47.13225 
L 210.933174 -47.13225 
L 210.488755 -47.13225 
L 210.044336 -47.13225 
L 209.599917 -47.13225 
L 209.155497 -47.13225 
L 208.711078 -47.13225 
L 208.266659 -47.13225 
L 207.82224 -47.13225 
L 207.377821 -47.13225 
L 206.933402 -47.13225 
L 206.488982 -47.13225 
L 206.044563 -47.13225 
L 205.600144 -47.13225 
L 205.155725 -47.13225 
L 204.711306 -47.13225 
L 204.266887 -47.13225 
L 203.822468 -47.13225 
L 203.378048 -47.13225 
L 202.933629 -47.13225 
L 202.48921 -47.13225 
L 202.044791 -47.13225 
L 201.600372 -47.13225 
L 201.155953 -47.13225 
L 200.711533 -47.13225 
L 200.267114 -47.13225 
L 199.822695 -47.13225 
L 199.378276 -47.13225 
L 198.933857 -47.13225 
L 198.489438 -47.13225 
L 198.045018 -47.13225 
L 197.600599 -47.13225 
L 197.15618 -47.13225 
L 196.711761 -47.13225 
L 196.267342 -47.13225 
L 195.822923 -47.13225 
L 195.378503 -47.13225 
L 194.934084 -47.13225 
L 194.489665 -47.13225 
L 194.045246 -47.13225 
L 193.600827 -47.13225 
L 193.156408 -47.13225 
L 192.711989 -47.13225 
L 192.267569 -47.13225 
L 191.82315 -47.13225 
L 191.378731 -47.13225 
L 190.934312 -47.13225 
L 190.489893 -47.13225 
L 190.045474 -47.13225 
L 189.601054 -47.13225 
L 189.156635 -47.13225 
L 188.712216 -47.13225 
L 188.267797 -47.13225 
L 187.823378 -47.13225 
L 187.378959 -47.13225 
L 186.934539 -47.13225 
L 186.49012 -47.13225 
L 186.045701 -47.13225 
L 185.601282 -47.13225 
L 185.156863 -47.13225 
L 184.712444 -47.13225 
L 184.268024 -47.13225 
L 183.823605 -47.13225 
L 183.379186 -47.13225 
L 182.934767 -47.13225 
L 182.490348 -47.13225 
L 182.045929 -47.13225 
L 181.60151 -47.13225 
L 181.15709 -47.13225 
L 180.712671 -47.13225 
L 180.268252 -47.13225 
L 179.823833 -47.13225 
L 179.379414 -47.13225 
L 178.934995 -47.13225 
L 178.490575 -47.13225 
L 178.046156 -47.13225 
L 177.601737 -47.13225 
L 177.157318 -47.13225 
L 176.712899 -47.13225 
L 176.26848 -47.13225 
L 175.82406 -47.13225 
L 175.379641 -47.13225 
L 174.935222 -47.13225 
L 174.490803 -47.13225 
L 174.046384 -47.13225 
L 173.601965 -47.13225 
L 173.157545 -47.13225 
L 172.713126 -47.13225 
L 172.268707 -47.13225 
L 171.824288 -47.13225 
L 171.379869 -47.13225 
L 170.93545 -47.13225 
L 170.491031 -47.13225 
L 170.046611 -47.13225 
L 169.602192 -47.13225 
L 169.157773 -47.13225 
L 168.713354 -47.13225 
L 168.268935 -47.13225 
L 167.824516 -47.13225 
L 167.380096 -47.13225 
L 166.935677 -47.13225 
L 166.491258 -47.13225 
L 166.046839 -47.13225 
L 165.60242 -47.13225 
L 165.158001 -47.13225 
L 164.713581 -47.13225 
L 164.269162 -47.13225 
L 163.824743 -47.13225 
L 163.380324 -47.13225 
L 162.935905 -47.13225 
L 162.491486 -47.13225 
L 162.047066 -47.13225 
L 161.602647 -47.13225 
L 161.158228 -47.13225 
L 160.713809 -47.13225 
L 160.26939 -47.13225 
L 159.824971 -47.13225 
L 159.380552 -47.13225 
L 158.936132 -47.13225 
L 158.491713 -47.13225 
L 158.047294 -47.13225 
L 157.602875 -47.13225 
L 157.158456 -47.13225 
L 156.714037 -47.13225 
L 156.269617 -47.13225 
L 155.825198 -47.13225 
L 155.380779 -47.13225 
L 154.93636 -47.13225 
L 154.491941 -47.13225 
L 154.047522 -47.13225 
L 153.603102 -47.13225 
L 153.158683 -47.13225 
L 152.714264 -47.13225 
L 152.269845 -47.13225 
L 151.825426 -47.13225 
L 151.381007 -47.13225 
L 150.936587 -47.13225 
L 150.492168 -47.13225 
L 150.047749 -47.13225 
L 149.60333 -47.13225 
L 149.158911 -47.13225 
L 148.714492 -47.13225 
L 148.270072 -47.13225 
L 147.825653 -47.13225 
L 147.381234 -47.13225 
L 146.936815 -47.13225 
L 146.492396 -47.13225 
L 146.047977 -47.13225 
L 145.603558 -47.13225 
L 145.159138 -47.13225 
L 144.714719 -47.13225 
L 144.2703 -47.13225 
L 143.825881 -47.13225 
L 143.381462 -47.13225 
L 142.937043 -47.13225 
L 142.492623 -47.13225 
L 142.048204 -47.13225 
L 141.603785 -47.13225 
L 141.159366 -47.13225 
L 140.714947 -47.13225 
L 140.270528 -47.13225 
L 139.826108 -47.13225 
L 139.381689 -47.13225 
L 138.93727 -47.13225 
L 138.492851 -47.13225 
L 138.048432 -47.13225 
L 137.604013 -47.13225 
L 137.159593 -47.13225 
L 136.715174 -47.13225 
L 136.270755 -47.13225 
L 135.826336 -47.13225 
L 135.381917 -47.13225 
L 134.937498 -47.13225 
L 134.493079 -47.13225 
L 134.048659 -47.13225 
L 133.60424 -47.13225 
L 133.159821 -47.13225 
L 132.715402 -47.13225 
L 132.270983 -47.13225 
L 131.826564 -47.13225 
L 131.382144 -47.13225 
L 130.937725 -47.13225 
L 130.493306 -47.13225 
L 130.048887 -47.13225 
L 129.604468 -47.13225 
L 129.160049 -47.13225 
L 128.715629 -47.13225 
L 128.27121 -47.13225 
L 127.826791 -47.13225 
L 127.382372 -47.13225 
L 126.937953 -47.13225 
L 126.493534 -47.13225 
L 126.049114 -47.13225 
L 125.604695 -47.13225 
L 125.160276 -47.13225 
L 124.715857 -47.13225 
L 124.271438 -47.13225 
L 123.827019 -47.13225 
L 123.3826 -47.13225 
L 122.93818 -47.13225 
L 122.493761 -47.13225 
L 122.049342 -47.13225 
L 121.604923 -47.13225 
L 121.160504 -47.13225 
L 120.716085 -47.13225 
L 120.271665 -47.13225 
L 119.827246 -47.13225 
L 119.382827 -47.13225 
L 118.938408 -47.13225 
L 118.493989 -47.13225 
L 118.04957 -47.13225 
L 117.60515 -47.13225 
L 117.160731 -47.13225 
L 116.716312 -47.13225 
L 116.271893 -47.13225 
L 115.827474 -47.13225 
L 115.383055 -47.13225 
L 114.938635 -47.13225 
L 114.494216 -47.13225 
L 114.049797 -47.13225 
L 113.605378 -47.13225 
L 113.160959 -47.13225 
L 112.71654 -47.13225 
L 112.272121 -47.13225 
L 111.827701 -47.13225 
L 111.383282 -47.13225 
L 110.938863 -47.13225 
L 110.494444 -47.13225 
L 110.050025 -47.13225 
L 109.605606 -47.13225 
L 109.161186 -47.13225 
L 108.716767 -47.13225 
L 108.272348 -47.13225 
L 107.827929 -47.13225 
L 107.38351 -47.13225 
L 106.939091 -47.13225 
L 106.494671 -47.13225 
L 106.050252 -47.13225 
L 105.605833 -47.13225 
L 105.161414 -47.13225 
L 104.716995 -47.13225 
L 104.272576 -47.13225 
L 103.828156 -47.13225 
L 103.383737 -47.13225 
L 102.939318 -47.13225 
L 102.494899 -47.13225 
L 102.05048 -47.13225 
L 101.606061 -47.13225 
L 101.161642 -47.13225 
L 100.717222 -47.13225 
L 100.272803 -47.13225 
L 99.828384 -47.13225 
L 99.383965 -47.13225 
L 98.939546 -47.13225 
L 98.495127 -47.13225 
L 98.050707 -47.13225 
L 97.606288 -47.13225 
L 97.161869 -47.13225 
L 96.71745 -47.13225 
L 96.273031 -47.13225 
L 95.828612 -47.13225 
L 95.384192 -47.13225 
L 94.939773 -47.13225 
L 94.495354 -47.13225 
L 94.050935 -47.13225 
L 93.606516 -47.13225 
L 93.162097 -47.13225 
L 92.717677 -47.13225 
L 92.273258 -47.13225 
L 91.828839 -47.13225 
L 91.38442 -47.13225 
L 90.940001 -47.13225 
L 90.495582 -47.13225 
L 90.051162 -47.13225 
L 89.606743 -47.13225 
L 89.162324 -47.13225 
L 88.717905 -47.13225 
L 88.273486 -47.13225 
L 87.829067 -47.13225 
L 87.384648 -47.13225 
L 86.940228 -47.13225 
L 86.495809 -47.13225 
L 86.05139 -47.13225 
L 85.606971 -47.13225 
L 85.162552 -47.13225 
L 84.718133 -47.13225 
L 84.273713 -47.13225 
L 83.829294 -47.13225 
L 83.384875 -47.13225 
L 82.940456 -47.13225 
L 82.496037 -47.13225 
L 82.051618 -47.13225 
L 81.607198 -47.13225 
L 81.162779 -47.13225 
L 80.71836 -47.13225 
L 80.273941 -47.13225 
L 79.829522 -47.13225 
L 79.385103 -47.13225 
L 78.940683 -47.13225 
L 78.496264 -47.13225 
L 78.051845 -47.13225 
L 77.607426 -47.13225 
L 77.163007 -47.13225 
L 76.718588 -47.13225 
L 76.274169 -47.13225 
L 75.829749 -47.13225 
L 75.38533 -47.13225 
L 74.940911 -47.13225 
L 74.496492 -47.13225 
L 74.052073 -47.13225 
L 73.607654 -47.13225 
L 73.163234 -47.13225 
L 72.718815 -47.13225 
L 72.274396 -47.13225 
L 71.829977 -47.13225 
L 71.385558 -47.13225 
L 70.941139 -47.13225 
L 70.496719 -47.13225 
L 70.0523 -47.13225 
L 69.607881 -47.13225 
L 69.163462 -47.13225 
L 68.719043 -47.13225 
L 68.274624 -47.13225 
L 67.830204 -47.13225 
L 67.385785 -47.13225 
L 66.941366 -47.13225 
L 66.496947 -47.13225 
L 66.052528 -47.13225 
L 65.608109 -47.13225 
L 65.16369 -47.13225 
L 64.71927 -47.13225 
L 64.274851 -47.13225 
L 63.830432 -47.13225 
L 63.386013 -47.13225 
L 62.941594 -47.13225 
L 62.497175 -47.13225 
L 62.052755 -47.13225 
L 61.608336 -47.13225 
L 61.163917 -47.13225 
L 60.719498 -47.13225 
L 60.275079 -47.13225 
L 59.83066 -47.13225 
L 59.38624 -47.13225 
L 58.941821 -47.13225 
L 58.497402 -47.13225 
L 58.052983 -47.13225 
z
" style="stroke: #2e6be5; stroke-opacity: 0.07"/>
    </defs>
    <g clip-path="url(#pf1141bd1fb)">
     <use xlink:href="#m8543fb50ed" x="0" y="270.54825" style="fill: #2e6be5; fill-opacity: 0.07; stroke: #2e6be5; stroke-opacity: 0.07"/>
    </g>
   </g>
   <g id="matplotlib.axis_1">
    <g id="xtick_1">
     <g id="line2d_1">
      <defs>
       <path id="med81985545" d="M 0 0 
L 0 3.5 
" style="stroke: #000000; stroke-width: 0.8"/>
      </defs>
      <g>
       <use xlink:href="#med81985545" x="93.562074" y="232.992" style="stroke: #000000; stroke-width: 0.8"/>
      </g>
     </g>
     <g id="text_1">
      <!-- −2 -->
      <g transform="translate(86.928089 246.830594) scale(0.09 -0.09)">
       <defs>
        <path id="DejaVuSans-2212" d="M 678 2272 
L 4684 2272 
L 4684 1741 
L 678 1741 
L 678 2272 
z
" transform="scale(0.015625)"/>
        <path id="DejaVuSans-32" d="M 1228 531 
L 3431 531 
L 3431 0 
L 469 0 
L 469 531 
Q 828 903 1448 1529 
Q 2069 2156 2228 2338 
Q 2531 2678 2651 2914 
Q 2772 3150 2772 3378 
Q 2772 3750 2511 3984 
Q 2250 4219 1831 4219 
Q 1534 4219 1204 4116 
Q 875 4013 500 3803 
L 500 4441 
Q 881 4594 1212 4672 
Q 1544 4750 1819 4750 
Q 2544 4750 2975 4387 
Q 3406 4025 3406 3419 
Q 3406 3131 3298 2873 
Q 3191 2616 2906 2266 
Q 2828 2175 2409 1742 
Q 1991 1309 1228 531 
z
" transform="scale(0.015625)"/>
       </defs>
       <use xlink:href="#DejaVuSans-2212"/>
       <use xlink:href="#DejaVuSans-32" x="83.789062"/>
      </g>
     </g>
    </g>
    <g id="xtick_2">
     <g id="line2d_2">
      <g>
       <use xlink:href="#med81985545" x="164.580256" y="232.992" style="stroke: #000000; stroke-width: 0.8"/>
      </g>
     </g>
     <g id="text_2">
      <!-- −1 -->
      <g transform="translate(157.946271 246.830594) scale(0.09 -0.09)">
       <defs>
        <path id="DejaVuSans-31" d="M 794 531 
L 1825 531 
L 1825 4091 
L 703 3866 
L 703 4441 
L 1819 4666 
L 2450 4666 
L 2450 531 
L 3481 531 
L 3481 0 
L 794 0 
L 794 531 
z
" transform="scale(0.015625)"/>
       </defs>
       <use xlink:href="#DejaVuSans-2212"/>
       <use xlink:href="#DejaVuSans-31" x="83.789062"/>
      </g>
     </g>
    </g>
    <g id="xtick_3">
     <g id="line2d_3">
      <g>
       <use xlink:href="#med81985545" x="235.598438" y="232.992" style="stroke: #000000; stroke-width: 0.8"/>
      </g>
     </g>
     <g id="text_3">
      <!-- 0 -->
      <g transform="translate(232.735313 246.830594) scale(0.09 -0.09)">
       <defs>
        <path id="DejaVuSans-30" d="M 2034 4250 
Q 1547 4250 1301 3770 
Q 1056 3291 1056 2328 
Q 1056 1369 1301 889 
Q 1547 409 2034 409 
Q 2525 409 2770 889 
Q 3016 1369 3016 2328 
Q 3016 3291 2770 3770 
Q 2525 4250 2034 4250 
z
M 2034 4750 
Q 2819 4750 3233 4129 
Q 3647 3509 3647 2328 
Q 3647 1150 3233 529 
Q 2819 -91 2034 -91 
Q 1250 -91 836 529 
Q 422 1150 422 2328 
Q 422 3509 836 4129 
Q 1250 4750 2034 4750 
z
" transform="scale(0.015625)"/>
       </defs>
       <use xlink:href="#DejaVuSans-30"/>
      </g>
     </g>
    </g>
    <g id="xtick_4">
     <g id="line2d_4">
      <g>
       <use xlink:href="#med81985545" x="306.616619" y="232.992" style="stroke: #000000; stroke-width: 0.8"/>
      </g>
     </g>
     <g id="text_4">
      <!-- 1 -->
      <g transform="translate(303.753494 246.830594) scale(0.09 -0.09)">
       <use xlink:href="#DejaVuSans-31"/>
      </g>
     </g>
    </g>
    <g id="xtick_5">
     <g id="line2d_5">
      <g>
       <use xlink:href="#med81985545" x="377.634801" y="232.992" style="stroke: #000000; stroke-width: 0.8"/>
      </g>
     </g>
     <g id="text_5">
      <!-- 2 -->
      <g transform="translate(374.771676 246.830594) scale(0.09 -0.09)">
       <use xlink:href="#DejaVuSans-32"/>
      </g>
     </g>
    </g>
    <g id="text_6">
     <!-- $x$ -->
     <g transform="translate(232.298438 261.060594) scale(0.11 -0.11)">
      <defs>
       <path id="DejaVuSans-Oblique-78" d="M 3841 3500 
L 2234 1784 
L 3219 0 
L 2559 0 
L 1819 1388 
L 531 0 
L -166 0 
L 1556 1844 
L 641 3500 
L 1300 3500 
L 1972 2234 
L 3144 3500 
L 3841 3500 
z
" transform="scale(0.015625)"/>
      </defs>
      <use xlink:href="#DejaVuSans-Oblique-78" transform="translate(0 0.3125)"/>
     </g>
    </g>
   </g>
   <g id="matplotlib.axis_2">
    <g id="ytick_1">
     <g id="line2d_6">
      <defs>
       <path id="mcd91b9e05d" d="M 0 0 
L -3.5 0 
" style="stroke: #000000; stroke-width: 0.8"/>
      </defs>
      <g>
       <use xlink:href="#mcd91b9e05d" x="40.298438" y="223.416" style="stroke: #000000; stroke-width: 0.8"/>
      </g>
     </g>
     <g id="text_7">
      <!-- 0 -->
      <g transform="translate(27.572188 226.835297) scale(0.09 -0.09)">
       <use xlink:href="#DejaVuSans-30"/>
      </g>
     </g>
    </g>
    <g id="ytick_2">
     <g id="line2d_7">
      <g>
       <use xlink:href="#mcd91b9e05d" x="40.298438" y="186.936" style="stroke: #000000; stroke-width: 0.8"/>
      </g>
     </g>
     <g id="text_8">
      <!-- 5 -->
      <g transform="translate(27.572188 190.355297) scale(0.09 -0.09)">
       <defs>
        <path id="DejaVuSans-35" d="M 691 4666 
L 3169 4666 
L 3169 4134 
L 1269 4134 
L 1269 2991 
Q 1406 3038 1543 3061 
Q 1681 3084 1819 3084 
Q 2600 3084 3056 2656 
Q 3513 2228 3513 1497 
Q 3513 744 3044 326 
Q 2575 -91 1722 -91 
Q 1428 -91 1123 -41 
Q 819 9 494 109 
L 494 744 
Q 775 591 1075 516 
Q 1375 441 1709 441 
Q 2250 441 2565 725 
Q 2881 1009 2881 1497 
Q 2881 1984 2565 2268 
Q 2250 2553 1709 2553 
Q 1456 2553 1204 2497 
Q 953 2441 691 2322 
L 691 4666 
z
" transform="scale(0.015625)"/>
       </defs>
       <use xlink:href="#DejaVuSans-35"/>
      </g>
     </g>
    </g>
    <g id="ytick_3">
     <g id="line2d_8">
      <g>
       <use xlink:href="#mcd91b9e05d" x="40.298438" y="150.456" style="stroke: #000000; stroke-width: 0.8"/>
      </g>
     </g>
     <g id="text_9">
      <!-- 10 -->
      <g transform="translate(21.845938 153.875297) scale(0.09 -0.09)">
       <use xlink:href="#DejaVuSans-31"/>
       <use xlink:href="#DejaVuSans-30" x="63.623047"/>
      </g>
     </g>
    </g>
    <g id="ytick_4">
     <g id="line2d_9">
      <g>
       <use xlink:href="#mcd91b9e05d" x="40.298438" y="113.976" style="stroke: #000000; stroke-width: 0.8"/>
      </g>
     </g>
     <g id="text_10">
      <!-- 15 -->
      <g transform="translate(21.845938 117.395297) scale(0.09 -0.09)">
       <use xlink:href="#DejaVuSans-31"/>
       <use xlink:href="#DejaVuSans-35" x="63.623047"/>
      </g>
     </g>
    </g>
    <g id="ytick_5">
     <g id="line2d_10">
      <g>
       <use xlink:href="#mcd91b9e05d" x="40.298438" y="77.496" style="stroke: #000000; stroke-width: 0.8"/>
      </g>
     </g>
     <g id="text_11">
      <!-- 20 -->
      <g transform="translate(21.845938 80.915297) scale(0.09 -0.09)">
       <use xlink:href="#DejaVuSans-32"/>
       <use xlink:href="#DejaVuSans-30" x="63.623047"/>
      </g>
     </g>
    </g>
    <g id="ytick_6">
     <g id="line2d_11">
      <g>
       <use xlink:href="#mcd91b9e05d" x="40.298438" y="41.016" style="stroke: #000000; stroke-width: 0.8"/>
      </g>
     </g>
     <g id="text_12">
      <!-- 25 -->
      <g transform="translate(21.845938 44.435297) scale(0.09 -0.09)">
       <use xlink:href="#DejaVuSans-32"/>
       <use xlink:href="#DejaVuSans-35" x="63.623047"/>
      </g>
     </g>
    </g>
    <g id="text_13">
     <!-- $f(x)$ -->
     <g transform="translate(15.558281 137.171) rotate(-90) scale(0.11 -0.11)">
      <defs>
       <path id="DejaVuSans-Oblique-66" d="M 3059 4863 
L 2969 4384 
L 2419 4384 
Q 2106 4384 1964 4261 
Q 1822 4138 1753 3809 
L 1691 3500 
L 2638 3500 
L 2553 3053 
L 1606 3053 
L 1013 0 
L 434 0 
L 1031 3053 
L 481 3053 
L 563 3500 
L 1113 3500 
L 1159 3744 
Q 1278 4363 1576 4613 
Q 1875 4863 2516 4863 
L 3059 4863 
z
" transform="scale(0.015625)"/>
       <path id="DejaVuSans-28" d="M 1984 4856 
Q 1566 4138 1362 3434 
Q 1159 2731 1159 2009 
Q 1159 1288 1364 580 
Q 1569 -128 1984 -844 
L 1484 -844 
Q 1016 -109 783 600 
Q 550 1309 550 2009 
Q 550 2706 781 3412 
Q 1013 4119 1484 4856 
L 1984 4856 
z
" transform="scale(0.015625)"/>
       <path id="DejaVuSans-29" d="M 513 4856 
L 1013 4856 
Q 1481 4119 1714 3412 
Q 1947 2706 1947 2009 
Q 1947 1309 1714 600 
Q 1481 -109 1013 -844 
L 513 -844 
Q 928 -128 1133 580 
Q 1338 1288 1338 2009 
Q 1338 2731 1133 3434 
Q 928 4138 513 4856 
z
" transform="scale(0.015625)"/>
      </defs>
      <use xlink:href="#DejaVuSans-Oblique-66" transform="translate(0 0.015625)"/>
      <use xlink:href="#DejaVuSans-28" transform="translate(35.205078 0.015625)"/>
      <use xlink:href="#DejaVuSans-Oblique-78" transform="translate(74.21875 0.015625)"/>
      <use xlink:href="#DejaVuSans-29" transform="translate(133.398438 0.015625)"/>
     </g>
    </g>
   </g>
   <g id="line2d_12">
    <path d="M 58.052983 31.896 
L 58.941821 32.576902 
L 59.83066 33.705074 
L 60.719498 35.276343 
L 61.608336 37.283784 
L 62.497175 39.717762 
L 63.830432 44.140906 
L 65.16369 49.443285 
L 66.496947 55.56038 
L 68.274624 64.851124 
L 70.496719 77.990336 
L 73.163234 95.373819 
L 81.607198 151.968059 
L 83.829294 164.677097 
L 85.606971 173.534759 
L 86.940228 179.280615 
L 88.273486 184.176438 
L 89.606743 188.162121 
L 90.495582 190.289599 
L 91.38442 191.980337 
L 92.273258 193.226185 
L 93.162097 194.021726 
L 94.050935 194.364315 
L 94.495354 194.365687 
L 95.384192 194.02998 
L 96.273031 193.246885 
L 97.161869 192.023465 
L 98.050707 190.369488 
L 98.939546 188.29737 
L 100.272803 184.438643 
L 101.606061 179.734318 
L 102.939318 174.256994 
L 104.716995 165.896769 
L 106.939091 154.066006 
L 109.605606 138.494968 
L 116.271893 98.886866 
L 118.493989 87.339851 
L 120.271665 79.271686 
L 121.604923 74.045477 
L 122.93818 69.614814 
L 124.271438 66.047349 
L 125.160276 64.176562 
L 126.049114 62.727713 
L 126.937953 61.711505 
L 127.826791 61.135952 
L 128.715629 61.006332 
L 129.604468 61.325152 
L 130.493306 62.092133 
L 131.382144 63.304212 
L 132.270983 64.955562 
L 133.159821 67.037624 
L 134.493079 70.943016 
L 135.826336 75.742806 
L 137.159593 81.375671 
L 138.93727 90.054376 
L 140.714947 99.881302 
L 142.937043 113.426353 
L 146.492396 136.819005 
L 150.936587 166.041859 
L 153.158683 179.398191 
L 154.93636 189.019371 
L 156.714037 197.447141 
L 158.047294 202.864496 
L 159.380552 207.427436 
L 160.713809 211.076667 
L 161.602647 212.978287 
L 162.491486 214.442229 
L 163.380324 215.460616 
L 164.269162 216.028307 
L 165.158001 216.142934 
L 166.046839 215.804916 
L 166.935677 215.017454 
L 167.824516 213.786514 
L 168.713354 212.120788 
L 169.602192 210.031642 
L 170.93545 206.135257 
L 172.268707 201.375849 
L 173.601965 195.822994 
L 175.379641 187.325568 
L 177.601737 175.256991 
L 180.268252 159.292709 
L 187.378959 115.602603 
L 189.601054 103.656407 
L 191.378731 95.281802 
L 192.711989 89.832354 
L 194.045246 85.183319 
L 195.378503 81.401572 
L 196.267342 79.389794 
L 197.15618 77.801143 
L 198.045018 76.646056 
L 198.933857 75.932276 
L 199.822695 75.664805 
L 200.267114 75.699241 
L 201.155953 76.104541 
L 202.044791 76.956498 
L 202.933629 78.250386 
L 203.822468 79.978734 
L 204.711306 82.131373 
L 206.044563 86.127157 
L 207.377821 90.994267 
L 208.711078 96.666607 
L 210.488755 105.347119 
L 212.266432 115.10948 
L 214.932947 131.255136 
L 223.82133 187.066106 
L 225.599006 196.534295 
L 227.376683 204.852334 
L 228.709941 210.212048 
L 230.043198 214.735191 
L 231.376455 218.359232 
L 232.265294 220.250484 
L 233.154132 221.707967 
L 234.04297 222.722718 
L 234.931809 223.288499 
L 235.820647 223.40183 
L 236.709485 223.062013 
L 237.598324 222.271138 
L 238.487162 221.03407 
L 239.376 219.358414 
L 240.264839 217.254476 
L 241.598096 213.324537 
L 242.931354 208.514999 
L 244.264611 202.892347 
L 246.042288 194.266438 
L 247.819964 184.546035 
L 250.04206 171.221834 
L 254.041833 145.520168 
L 257.597186 122.998948 
L 259.819282 110.107372 
L 261.596958 100.85775 
L 263.374635 92.799175 
L 264.707893 87.655735 
L 266.04115 83.3629 
L 267.374407 79.978734 
L 268.263246 78.250386 
L 269.152084 76.956498 
L 270.040922 76.104541 
L 270.929761 75.699241 
L 271.37418 75.664805 
L 272.263018 75.932276 
L 273.151857 76.646056 
L 274.040695 77.801143 
L 274.929533 79.389794 
L 275.818372 81.401572 
L 277.151629 85.183319 
L 278.484886 89.832354 
L 279.818144 95.281802 
L 281.595821 103.656407 
L 283.373497 113.101559 
L 285.595593 126.047129 
L 289.595365 150.968287 
L 293.150719 172.688165 
L 295.372815 185.028239 
L 297.150491 193.809346 
L 298.928168 201.375849 
L 300.261425 206.135257 
L 301.594683 210.031642 
L 302.483521 212.120788 
L 303.372359 213.786514 
L 304.261198 215.017454 
L 305.150036 215.804916 
L 306.038874 216.142934 
L 306.483294 216.142293 
L 307.372132 215.801012 
L 308.26097 215.007503 
L 309.149809 213.765524 
L 310.038647 212.081588 
L 310.927485 209.964928 
L 312.260743 206.005303 
L 313.594 201.150369 
L 314.927258 195.463452 
L 316.704934 186.717544 
L 318.482611 176.832479 
L 320.704707 163.232282 
L 324.26006 139.801686 
L 328.704252 110.626031 
L 330.926347 97.329088 
L 332.704024 87.76864 
L 334.481701 79.40976 
L 335.814958 74.047035 
L 337.148216 69.539166 
L 338.481473 65.943394 
L 339.370311 64.075449 
L 340.25915 62.642835 
L 341.147988 61.652748 
L 342.036826 61.109639 
L 342.925665 61.015178 
L 343.814503 61.368252 
L 344.703341 62.164964 
L 345.59218 63.398664 
L 346.481018 65.059986 
L 347.369856 67.136904 
L 348.703114 70.998892 
L 350.036371 75.702824 
L 351.369629 81.177228 
L 353.147305 89.531368 
L 355.369401 101.35384 
L 358.035916 116.917827 
L 364.702204 156.534556 
L 366.924299 168.08994 
L 368.701976 176.163725 
L 370.035233 181.39213 
L 371.368491 185.822098 
L 372.701748 189.384819 
L 373.590587 191.249581 
L 374.479425 192.689668 
L 375.368263 193.693979 
L 376.257102 194.254091 
L 377.14594 194.364315 
L 378.034778 194.021726 
L 378.923617 193.226185 
L 379.812455 191.980337 
L 380.701293 190.289599 
L 381.590132 188.162121 
L 382.923389 184.176438 
L 384.256647 179.280615 
L 385.589904 173.534759 
L 387.367581 164.677097 
L 389.145257 154.636732 
L 391.367353 140.773459 
L 394.478287 119.814493 
L 399.811317 83.626253 
L 402.033413 69.924728 
L 403.81109 60.054014 
L 405.588766 51.395317 
L 406.922024 45.813614 
L 408.255281 41.090965 
L 409.588539 37.283784 
L 410.477377 35.276343 
L 411.366215 33.705074 
L 412.255054 32.576902 
L 413.143892 31.896 
L 413.143892 31.896 
" clip-path="url(#pf1141bd1fb)" style="fill: none; stroke: #2e6be5; stroke-width: 2; stroke-linecap: square"/>
   </g>
   <g id="line2d_13">
    <path d="M 40.298438 223.416 
L 430.898438 223.416 
" clip-path="url(#pf1141bd1fb)" style="fill: none; stroke-dasharray: 0.7,1.155; stroke-dashoffset: 0; stroke: #888888; stroke-width: 0.7"/>
   </g>
   <g id="patch_3">
    <path d="M 40.298438 232.992 
L 40.298438 22.32 
" style="fill: none; stroke: #000000; stroke-width: 0.8; stroke-linejoin: miter; stroke-linecap: square"/>
   </g>
   <g id="patch_4">
    <path d="M 40.298437 232.992 
L 430.898438 232.992 
" style="fill: none; stroke: #000000; stroke-width: 0.8; stroke-linejoin: miter; stroke-linecap: square"/>
   </g>
   <g id="patch_5">
    <path d="M 369.856606 141.282959 
Q 338.882174 177.937533 308.629372 213.738145 
" style="fill: none; stroke: #d62728; stroke-linecap: round"/>
    <path d="M 312.327825 212.150239 
L 308.629372 213.738145 
L 309.578119 209.826639 
" style="fill: none; stroke: #d62728; stroke-linecap: round"/>
   </g>
   <g id="text_14">
    <!-- $\approx 10^d$ local pits -->
    <g style="fill: #d62728" transform="translate(342.12571 135.864) scale(0.09 -0.09)">
     <defs>
      <path id="DejaVuSans-2248" d="M 4684 1947 
L 4684 1388 
Q 4356 1144 4076 1036 
Q 3797 928 3494 928 
Q 3150 928 2694 1113 
Q 2663 1125 2641 1134 
Q 2622 1141 2575 1159 
Q 2091 1350 1797 1350 
Q 1522 1350 1253 1231 
Q 984 1113 678 850 
L 678 1409 
Q 1006 1653 1286 1761 
Q 1566 1869 1869 1869 
Q 2213 1869 2672 1684 
Q 2706 1669 2722 1663 
Q 2741 1656 2788 1638 
Q 3272 1447 3566 1447 
Q 3834 1447 4098 1564 
Q 4363 1681 4684 1947 
z
M 4684 3163 
L 4684 2606 
Q 4356 2359 4076 2251 
Q 3797 2144 3494 2144 
Q 3150 2144 2694 2328 
Q 2663 2341 2641 2350 
Q 2622 2356 2575 2375 
Q 2091 2566 1797 2566 
Q 1522 2566 1253 2447 
Q 984 2328 678 2069 
L 678 2625 
Q 1006 2869 1286 2976 
Q 1566 3084 1869 3084 
Q 2213 3084 2672 2900 
Q 2703 2888 2719 2881 
Q 2741 2872 2788 2853 
Q 3272 2663 3566 2663 
Q 3834 2663 4098 2780 
Q 4363 2897 4684 3163 
z
" transform="scale(0.015625)"/>
      <path id="DejaVuSans-Oblique-64" d="M 2675 525 
Q 2444 222 2128 65 
Q 1813 -91 1428 -91 
Q 903 -91 598 267 
Q 294 625 294 1247 
Q 294 1766 478 2236 
Q 663 2706 1013 3078 
Q 1244 3325 1534 3454 
Q 1825 3584 2144 3584 
Q 2481 3584 2739 3421 
Q 2997 3259 3138 2956 
L 3513 4863 
L 4091 4863 
L 3144 0 
L 2566 0 
L 2675 525 
z
M 891 1350 
Q 891 897 1095 644 
Q 1300 391 1663 391 
Q 1931 391 2161 520 
Q 2391 650 2566 903 
Q 2750 1166 2856 1509 
Q 2963 1853 2963 2188 
Q 2963 2622 2758 2865 
Q 2553 3109 2194 3109 
Q 1922 3109 1687 2981 
Q 1453 2853 1288 2613 
Q 1106 2353 998 2009 
Q 891 1666 891 1350 
z
" transform="scale(0.015625)"/>
      <path id="DejaVuSans-20" transform="scale(0.015625)"/>
      <path id="DejaVuSans-6c" d="M 603 4863 
L 1178 4863 
L 1178 0 
L 603 0 
L 603 4863 
z
" transform="scale(0.015625)"/>
      <path id="DejaVuSans-6f" d="M 1959 3097 
Q 1497 3097 1228 2736 
Q 959 2375 959 1747 
Q 959 1119 1226 758 
Q 1494 397 1959 397 
Q 2419 397 2687 759 
Q 2956 1122 2956 1747 
Q 2956 2369 2687 2733 
Q 2419 3097 1959 3097 
z
M 1959 3584 
Q 2709 3584 3137 3096 
Q 3566 2609 3566 1747 
Q 3566 888 3137 398 
Q 2709 -91 1959 -91 
Q 1206 -91 779 398 
Q 353 888 353 1747 
Q 353 2609 779 3096 
Q 1206 3584 1959 3584 
z
" transform="scale(0.015625)"/>
      <path id="DejaVuSans-63" d="M 3122 3366 
L 3122 2828 
Q 2878 2963 2633 3030 
Q 2388 3097 2138 3097 
Q 1578 3097 1268 2742 
Q 959 2388 959 1747 
Q 959 1106 1268 751 
Q 1578 397 2138 397 
Q 2388 397 2633 464 
Q 2878 531 3122 666 
L 3122 134 
Q 2881 22 2623 -34 
Q 2366 -91 2075 -91 
Q 1284 -91 818 406 
Q 353 903 353 1747 
Q 353 2603 823 3093 
Q 1294 3584 2113 3584 
Q 2378 3584 2631 3529 
Q 2884 3475 3122 3366 
z
" transform="scale(0.015625)"/>
      <path id="DejaVuSans-61" d="M 2194 1759 
Q 1497 1759 1228 1600 
Q 959 1441 959 1056 
Q 959 750 1161 570 
Q 1363 391 1709 391 
Q 2188 391 2477 730 
Q 2766 1069 2766 1631 
L 2766 1759 
L 2194 1759 
z
M 3341 1997 
L 3341 0 
L 2766 0 
L 2766 531 
Q 2569 213 2275 61 
Q 1981 -91 1556 -91 
Q 1019 -91 701 211 
Q 384 513 384 1019 
Q 384 1609 779 1909 
Q 1175 2209 1959 2209 
L 2766 2209 
L 2766 2266 
Q 2766 2663 2505 2880 
Q 2244 3097 1772 3097 
Q 1472 3097 1187 3025 
Q 903 2953 641 2809 
L 641 3341 
Q 956 3463 1253 3523 
Q 1550 3584 1831 3584 
Q 2591 3584 2966 3190 
Q 3341 2797 3341 1997 
z
" transform="scale(0.015625)"/>
      <path id="DejaVuSans-70" d="M 1159 525 
L 1159 -1331 
L 581 -1331 
L 581 3500 
L 1159 3500 
L 1159 2969 
Q 1341 3281 1617 3432 
Q 1894 3584 2278 3584 
Q 2916 3584 3314 3078 
Q 3713 2572 3713 1747 
Q 3713 922 3314 415 
Q 2916 -91 2278 -91 
Q 1894 -91 1617 61 
Q 1341 213 1159 525 
z
M 3116 1747 
Q 3116 2381 2855 2742 
Q 2594 3103 2138 3103 
Q 1681 3103 1420 2742 
Q 1159 2381 1159 1747 
Q 1159 1113 1420 752 
Q 1681 391 2138 391 
Q 2594 391 2855 752 
Q 3116 1113 3116 1747 
z
" transform="scale(0.015625)"/>
      <path id="DejaVuSans-69" d="M 603 3500 
L 1178 3500 
L 1178 0 
L 603 0 
L 603 3500 
z
M 603 4863 
L 1178 4863 
L 1178 4134 
L 603 4134 
L 603 4863 
z
" transform="scale(0.015625)"/>
      <path id="DejaVuSans-74" d="M 1172 4494 
L 1172 3500 
L 2356 3500 
L 2356 3053 
L 1172 3053 
L 1172 1153 
Q 1172 725 1289 603 
Q 1406 481 1766 481 
L 2356 481 
L 2356 0 
L 1766 0 
Q 1100 0 847 248 
Q 594 497 594 1153 
L 594 3053 
L 172 3053 
L 172 3500 
L 594 3500 
L 594 4494 
L 1172 4494 
z
" transform="scale(0.015625)"/>
      <path id="DejaVuSans-73" d="M 2834 3397 
L 2834 2853 
Q 2591 2978 2328 3040 
Q 2066 3103 1784 3103 
Q 1356 3103 1142 2972 
Q 928 2841 928 2578 
Q 928 2378 1081 2264 
Q 1234 2150 1697 2047 
L 1894 2003 
Q 2506 1872 2764 1633 
Q 3022 1394 3022 966 
Q 3022 478 2636 193 
Q 2250 -91 1575 -91 
Q 1294 -91 989 -36 
Q 684 19 347 128 
L 347 722 
Q 666 556 975 473 
Q 1284 391 1588 391 
Q 1994 391 2212 530 
Q 2431 669 2431 922 
Q 2431 1156 2273 1281 
Q 2116 1406 1581 1522 
L 1381 1569 
Q 847 1681 609 1914 
Q 372 2147 372 2553 
Q 372 3047 722 3315 
Q 1072 3584 1716 3584 
Q 2034 3584 2315 3537 
Q 2597 3491 2834 3397 
z
" transform="scale(0.015625)"/>
     </defs>
     <use xlink:href="#DejaVuSans-2248" transform="translate(19.482422 0.529687)"/>
     <use xlink:href="#DejaVuSans-31" transform="translate(122.753906 0.529687)"/>
     <use xlink:href="#DejaVuSans-30" transform="translate(186.376953 0.529687)"/>
     <use xlink:href="#DejaVuSans-Oblique-64" transform="translate(250.957031 38.810937) scale(0.7)"/>
     <use xlink:href="#DejaVuSans-20" transform="translate(298.125 0.529687)"/>
     <use xlink:href="#DejaVuSans-6c" transform="translate(329.912109 0.529687)"/>
     <use xlink:href="#DejaVuSans-6f" transform="translate(357.695312 0.529687)"/>
     <use xlink:href="#DejaVuSans-63" transform="translate(418.876953 0.529687)"/>
     <use xlink:href="#DejaVuSans-61" transform="translate(473.857422 0.529687)"/>
     <use xlink:href="#DejaVuSans-6c" transform="translate(535.136719 0.529687)"/>
     <use xlink:href="#DejaVuSans-20" transform="translate(562.919922 0.529687)"/>
     <use xlink:href="#DejaVuSans-70" transform="translate(594.707031 0.529687)"/>
     <use xlink:href="#DejaVuSans-69" transform="translate(658.183594 0.529687)"/>
     <use xlink:href="#DejaVuSans-74" transform="translate(685.966797 0.529687)"/>
     <use xlink:href="#DejaVuSans-73" transform="translate(725.175781 0.529687)"/>
    </g>
   </g>
   <g id="text_15">
    <!-- Rastrigin function  ($d = 1$)  — many local minima -->
    <g transform="translate(90.038438 16.32) scale(0.12 -0.12)">
     <defs>
      <path id="DejaVuSans-52" d="M 2841 2188 
Q 3044 2119 3236 1894 
Q 3428 1669 3622 1275 
L 4263 0 
L 3584 0 
L 2988 1197 
Q 2756 1666 2539 1819 
Q 2322 1972 1947 1972 
L 1259 1972 
L 1259 0 
L 628 0 
L 628 4666 
L 2053 4666 
Q 2853 4666 3247 4331 
Q 3641 3997 3641 3322 
Q 3641 2881 3436 2590 
Q 3231 2300 2841 2188 
z
M 1259 4147 
L 1259 2491 
L 2053 2491 
Q 2509 2491 2742 2702 
Q 2975 2913 2975 3322 
Q 2975 3731 2742 3939 
Q 2509 4147 2053 4147 
L 1259 4147 
z
" transform="scale(0.015625)"/>
      <path id="DejaVuSans-72" d="M 2631 2963 
Q 2534 3019 2420 3045 
Q 2306 3072 2169 3072 
Q 1681 3072 1420 2755 
Q 1159 2438 1159 1844 
L 1159 0 
L 581 0 
L 581 3500 
L 1159 3500 
L 1159 2956 
Q 1341 3275 1631 3429 
Q 1922 3584 2338 3584 
Q 2397 3584 2469 3576 
Q 2541 3569 2628 3553 
L 2631 2963 
z
" transform="scale(0.015625)"/>
      <path id="DejaVuSans-67" d="M 2906 1791 
Q 2906 2416 2648 2759 
Q 2391 3103 1925 3103 
Q 1463 3103 1205 2759 
Q 947 2416 947 1791 
Q 947 1169 1205 825 
Q 1463 481 1925 481 
Q 2391 481 2648 825 
Q 2906 1169 2906 1791 
z
M 3481 434 
Q 3481 -459 3084 -895 
Q 2688 -1331 1869 -1331 
Q 1566 -1331 1297 -1286 
Q 1028 -1241 775 -1147 
L 775 -588 
Q 1028 -725 1275 -790 
Q 1522 -856 1778 -856 
Q 2344 -856 2625 -561 
Q 2906 -266 2906 331 
L 2906 616 
Q 2728 306 2450 153 
Q 2172 0 1784 0 
Q 1141 0 747 490 
Q 353 981 353 1791 
Q 353 2603 747 3093 
Q 1141 3584 1784 3584 
Q 2172 3584 2450 3431 
Q 2728 3278 2906 2969 
L 2906 3500 
L 3481 3500 
L 3481 434 
z
" transform="scale(0.015625)"/>
      <path id="DejaVuSans-6e" d="M 3513 2113 
L 3513 0 
L 2938 0 
L 2938 2094 
Q 2938 2591 2744 2837 
Q 2550 3084 2163 3084 
Q 1697 3084 1428 2787 
Q 1159 2491 1159 1978 
L 1159 0 
L 581 0 
L 581 3500 
L 1159 3500 
L 1159 2956 
Q 1366 3272 1645 3428 
Q 1925 3584 2291 3584 
Q 2894 3584 3203 3211 
Q 3513 2838 3513 2113 
z
" transform="scale(0.015625)"/>
      <path id="DejaVuSans-66" d="M 2375 4863 
L 2375 4384 
L 1825 4384 
Q 1516 4384 1395 4259 
Q 1275 4134 1275 3809 
L 1275 3500 
L 2222 3500 
L 2222 3053 
L 1275 3053 
L 1275 0 
L 697 0 
L 697 3053 
L 147 3053 
L 147 3500 
L 697 3500 
L 697 3744 
Q 697 4328 969 4595 
Q 1241 4863 1831 4863 
L 2375 4863 
z
" transform="scale(0.015625)"/>
      <path id="DejaVuSans-75" d="M 544 1381 
L 544 3500 
L 1119 3500 
L 1119 1403 
Q 1119 906 1312 657 
Q 1506 409 1894 409 
Q 2359 409 2629 706 
Q 2900 1003 2900 1516 
L 2900 3500 
L 3475 3500 
L 3475 0 
L 2900 0 
L 2900 538 
Q 2691 219 2414 64 
Q 2138 -91 1772 -91 
Q 1169 -91 856 284 
Q 544 659 544 1381 
z
M 1991 3584 
L 1991 3584 
z
" transform="scale(0.015625)"/>
      <path id="DejaVuSans-3d" d="M 678 2906 
L 4684 2906 
L 4684 2381 
L 678 2381 
L 678 2906 
z
M 678 1631 
L 4684 1631 
L 4684 1100 
L 678 1100 
L 678 1631 
z
" transform="scale(0.015625)"/>
      <path id="DejaVuSansDisplay-2014" d="M 313 1978 
L 6088 1978 
L 6088 1528 
L 313 1528 
L 313 1978 
z
" transform="scale(0.015625)"/>
      <path id="DejaVuSans-6d" d="M 3328 2828 
Q 3544 3216 3844 3400 
Q 4144 3584 4550 3584 
Q 5097 3584 5394 3201 
Q 5691 2819 5691 2113 
L 5691 0 
L 5113 0 
L 5113 2094 
Q 5113 2597 4934 2840 
Q 4756 3084 4391 3084 
Q 3944 3084 3684 2787 
Q 3425 2491 3425 1978 
L 3425 0 
L 2847 0 
L 2847 2094 
Q 2847 2600 2669 2842 
Q 2491 3084 2119 3084 
Q 1678 3084 1418 2786 
Q 1159 2488 1159 1978 
L 1159 0 
L 581 0 
L 581 3500 
L 1159 3500 
L 1159 2956 
Q 1356 3278 1631 3431 
Q 1906 3584 2284 3584 
Q 2666 3584 2933 3390 
Q 3200 3197 3328 2828 
z
" transform="scale(0.015625)"/>
      <path id="DejaVuSans-79" d="M 2059 -325 
Q 1816 -950 1584 -1140 
Q 1353 -1331 966 -1331 
L 506 -1331 
L 506 -850 
L 844 -850 
Q 1081 -850 1212 -737 
Q 1344 -625 1503 -206 
L 1606 56 
L 191 3500 
L 800 3500 
L 1894 763 
L 2988 3500 
L 3597 3500 
L 2059 -325 
z
" transform="scale(0.015625)"/>
     </defs>
     <use xlink:href="#DejaVuSans-52" transform="translate(0 0.015625)"/>
     <use xlink:href="#DejaVuSans-61" transform="translate(69.482422 0.015625)"/>
     <use xlink:href="#DejaVuSans-73" transform="translate(130.761719 0.015625)"/>
     <use xlink:href="#DejaVuSans-74" transform="translate(182.861328 0.015625)"/>
     <use xlink:href="#DejaVuSans-72" transform="translate(222.070312 0.015625)"/>
     <use xlink:href="#DejaVuSans-69" transform="translate(263.183594 0.015625)"/>
     <use xlink:href="#DejaVuSans-67" transform="translate(290.966797 0.015625)"/>
     <use xlink:href="#DejaVuSans-69" transform="translate(354.443359 0.015625)"/>
     <use xlink:href="#DejaVuSans-6e" transform="translate(382.226562 0.015625)"/>
     <use xlink:href="#DejaVuSans-20" transform="translate(445.605469 0.015625)"/>
     <use xlink:href="#DejaVuSans-66" transform="translate(477.392578 0.015625)"/>
     <use xlink:href="#DejaVuSans-75" transform="translate(512.597656 0.015625)"/>
     <use xlink:href="#DejaVuSans-6e" transform="translate(575.976562 0.015625)"/>
     <use xlink:href="#DejaVuSans-63" transform="translate(639.355469 0.015625)"/>
     <use xlink:href="#DejaVuSans-74" transform="translate(694.335938 0.015625)"/>
     <use xlink:href="#DejaVuSans-69" transform="translate(733.544922 0.015625)"/>
     <use xlink:href="#DejaVuSans-6f" transform="translate(761.328125 0.015625)"/>
     <use xlink:href="#DejaVuSans-6e" transform="translate(822.509766 0.015625)"/>
     <use xlink:href="#DejaVuSans-20" transform="translate(885.888672 0.015625)"/>
     <use xlink:href="#DejaVuSans-20" transform="translate(917.675781 0.015625)"/>
     <use xlink:href="#DejaVuSans-28" transform="translate(949.462891 0.015625)"/>
     <use xlink:href="#DejaVuSans-Oblique-64" transform="translate(988.476562 0.015625)"/>
     <use xlink:href="#DejaVuSans-3d" transform="translate(1071.435547 0.015625)"/>
     <use xlink:href="#DejaVuSans-31" transform="translate(1174.707031 0.015625)"/>
     <use xlink:href="#DejaVuSans-29" transform="translate(1238.330078 0.015625)"/>
     <use xlink:href="#DejaVuSans-20" transform="translate(1277.34375 0.015625)"/>
     <use xlink:href="#DejaVuSans-20" transform="translate(1309.130859 0.015625)"/>
     <use xlink:href="#DejaVuSansDisplay-2014" transform="translate(1340.917969 0.015625)"/>
     <use xlink:href="#DejaVuSans-20" transform="translate(1440.917969 0.015625)"/>
     <use xlink:href="#DejaVuSans-6d" transform="translate(1472.705078 0.015625)"/>
     <use xlink:href="#DejaVuSans-61" transform="translate(1570.117188 0.015625)"/>
     <use xlink:href="#DejaVuSans-6e" transform="translate(1631.396484 0.015625)"/>
     <use xlink:href="#DejaVuSans-79" transform="translate(1694.775391 0.015625)"/>
     <use xlink:href="#DejaVuSans-20" transform="translate(1753.955078 0.015625)"/>
     <use xlink:href="#DejaVuSans-6c" transform="translate(1785.742188 0.015625)"/>
     <use xlink:href="#DejaVuSans-6f" transform="translate(1813.525391 0.015625)"/>
     <use xlink:href="#DejaVuSans-63" transform="translate(1874.707031 0.015625)"/>
     <use xlink:href="#DejaVuSans-61" transform="translate(1929.6875 0.015625)"/>
     <use xlink:href="#DejaVuSans-6c" transform="translate(1990.966797 0.015625)"/>
     <use xlink:href="#DejaVuSans-20" transform="translate(2018.75 0.015625)"/>
     <use xlink:href="#DejaVuSans-6d" transform="translate(2050.537109 0.015625)"/>
     <use xlink:href="#DejaVuSans-69" transform="translate(2147.949219 0.015625)"/>
     <use xlink:href="#DejaVuSans-6e" transform="translate(2175.732422 0.015625)"/>
     <use xlink:href="#DejaVuSans-69" transform="translate(2239.111328 0.015625)"/>
     <use xlink:href="#DejaVuSans-6d" transform="translate(2266.894531 0.015625)"/>
     <use xlink:href="#DejaVuSans-61" transform="translate(2364.306641 0.015625)"/>
    </g>
   </g>
   <g id="PathCollection_1">
    <defs>
     <path id="m298894949c" d="M 0 3.708099 
C 0.983399 3.708099 1.926654 3.317391 2.622022 2.622022 
C 3.317391 1.926654 3.708099 0.983399 3.708099 0 
C 3.708099 -0.983399 3.317391 -1.926654 2.622022 -2.622022 
C 1.926654 -3.317391 0.983399 -3.708099 0 -3.708099 
C -0.983399 -3.708099 -1.926654 -3.317391 -2.622022 -2.622022 
C -3.317391 -1.926654 -3.708099 -0.983399 -3.708099 0 
C -3.708099 0.983399 -3.317391 1.926654 -2.622022 2.622022 
C -1.926654 3.317391 -0.983399 3.708099 0 3.708099 
z
" style="stroke: #d62728"/>
    </defs>
    <g clip-path="url(#pf1141bd1fb)">
     <use xlink:href="#m298894949c" x="93.562074" y="194.232" style="fill: #d62728; stroke: #d62728"/>
     <use xlink:href="#m298894949c" x="164.580256" y="216.12" style="fill: #d62728; stroke: #d62728"/>
     <use xlink:href="#m298894949c" x="306.616619" y="216.12" style="fill: #d62728; stroke: #d62728"/>
     <use xlink:href="#m298894949c" x="377.634801" y="194.232" style="fill: #d62728; stroke: #d62728"/>
    </g>
   </g>
   <g id="legend_1">
    <g id="patch_6">
     <path d="M 161.078438 71.260313 
L 310.118437 71.260313 
Q 311.918437 71.260313 311.918437 69.460313 
L 311.918437 28.62 
Q 311.918437 26.82 310.118437 26.82 
L 161.078438 26.82 
Q 159.278438 26.82 159.278438 28.62 
L 159.278438 69.460313 
Q 159.278438 71.260313 161.078438 71.260313 
z
" style="fill: #ffffff; opacity: 0.6; stroke: #cccccc; stroke-linejoin: miter"/>
    </g>
    <g id="line2d_14">
     <path d="M 162.878438 34.848281 
L 171.878438 34.848281 
L 180.878438 34.848281 
" style="fill: none; stroke: #2e6be5; stroke-width: 2; stroke-linecap: square"/>
    </g>
    <g id="text_16">
     <!-- $f(x) = 10 + x^2 - 10\cos(2\pi x)$ -->
     <g transform="translate(188.078438 37.998281) scale(0.09 -0.09)">
      <defs>
       <path id="DejaVuSans-2b" d="M 2944 4013 
L 2944 2272 
L 4684 2272 
L 4684 1741 
L 2944 1741 
L 2944 0 
L 2419 0 
L 2419 1741 
L 678 1741 
L 678 2272 
L 2419 2272 
L 2419 4013 
L 2944 4013 
z
" transform="scale(0.015625)"/>
       <path id="DejaVuSans-Oblique-3c0" d="M 584 3500 
L 3938 3500 
L 3825 2925 
L 3384 2925 
L 2966 775 
Q 2922 550 2981 450 
Q 3038 353 3209 353 
Q 3256 353 3325 363 
Q 3397 369 3419 372 
L 3338 -44 
Q 3222 -84 3103 -103 
Q 2981 -122 2866 -122 
Q 2491 -122 2388 81 
Q 2284 288 2391 838 
L 2797 2925 
L 1506 2925 
L 938 0 
L 350 0 
L 919 2925 
L 472 2925 
L 584 3500 
z
" transform="scale(0.015625)"/>
      </defs>
      <use xlink:href="#DejaVuSans-Oblique-66" transform="translate(0 0.765625)"/>
      <use xlink:href="#DejaVuSans-28" transform="translate(35.205078 0.765625)"/>
      <use xlink:href="#DejaVuSans-Oblique-78" transform="translate(74.21875 0.765625)"/>
      <use xlink:href="#DejaVuSans-29" transform="translate(133.398438 0.765625)"/>
      <use xlink:href="#DejaVuSans-3d" transform="translate(191.894531 0.765625)"/>
      <use xlink:href="#DejaVuSans-31" transform="translate(295.166016 0.765625)"/>
      <use xlink:href="#DejaVuSans-30" transform="translate(358.789062 0.765625)"/>
      <use xlink:href="#DejaVuSans-2b" transform="translate(441.894531 0.765625)"/>
      <use xlink:href="#DejaVuSans-Oblique-78" transform="translate(545.166016 0.765625)"/>
      <use xlink:href="#DejaVuSans-32" transform="translate(608.811849 39.046875) scale(0.7)"/>
      <use xlink:href="#DejaVuSans-2212" transform="translate(675.564779 0.765625)"/>
      <use xlink:href="#DejaVuSans-31" transform="translate(778.836263 0.765625)"/>
      <use xlink:href="#DejaVuSans-30" transform="translate(842.45931 0.765625)"/>
      <use xlink:href="#DejaVuSans-63" transform="translate(906.082357 0.765625)"/>
      <use xlink:href="#DejaVuSans-6f" transform="translate(961.062826 0.765625)"/>
      <use xlink:href="#DejaVuSans-73" transform="translate(1022.244466 0.765625)"/>
      <use xlink:href="#DejaVuSans-28" transform="translate(1074.344076 0.765625)"/>
      <use xlink:href="#DejaVuSans-32" transform="translate(1113.357747 0.765625)"/>
      <use xlink:href="#DejaVuSans-Oblique-3c0" transform="translate(1176.980794 0.765625)"/>
      <use xlink:href="#DejaVuSans-Oblique-78" transform="translate(1237.185872 0.765625)"/>
      <use xlink:href="#DejaVuSans-29" transform="translate(1296.36556 0.765625)"/>
     </g>
    </g>
    <g id="PathCollection_2">
     <defs>
      <path id="m3af3edf633" d="M 0 -5.244044 
L -1.177361 -1.620499 
L -4.987382 -1.620499 
L -1.905011 0.618975 
L -3.082372 4.242521 
L -0 2.003047 
L 3.082372 4.242521 
L 1.905011 0.618975 
L 4.987382 -1.620499 
L 1.177361 -1.620499 
z
" style="stroke: #e8850a"/>
     </defs>
     <g>
      <use xlink:href="#m3af3edf633" x="171.878438" y="50.1975" style="fill: #e8850a; stroke: #e8850a"/>
     </g>
    </g>
    <g id="text_17">
     <!-- global min  $f^*=0$ -->
     <g transform="translate(188.078438 52.56) scale(0.09 -0.09)">
      <defs>
       <path id="DejaVuSans-62" d="M 3116 1747 
Q 3116 2381 2855 2742 
Q 2594 3103 2138 3103 
Q 1681 3103 1420 2742 
Q 1159 2381 1159 1747 
Q 1159 1113 1420 752 
Q 1681 391 2138 391 
Q 2594 391 2855 752 
Q 3116 1113 3116 1747 
z
M 1159 2969 
Q 1341 3281 1617 3432 
Q 1894 3584 2278 3584 
Q 2916 3584 3314 3078 
Q 3713 2572 3713 1747 
Q 3713 922 3314 415 
Q 2916 -91 2278 -91 
Q 1894 -91 1617 61 
Q 1341 213 1159 525 
L 1159 0 
L 581 0 
L 581 4863 
L 1159 4863 
L 1159 2969 
z
" transform="scale(0.015625)"/>
       <path id="DejaVuSans-2a" d="M 3009 3897 
L 1888 3291 
L 3009 2681 
L 2828 2375 
L 1778 3009 
L 1778 1831 
L 1422 1831 
L 1422 3009 
L 372 2375 
L 191 2681 
L 1313 3291 
L 191 3897 
L 372 4206 
L 1422 3572 
L 1422 4750 
L 1778 4750 
L 1778 3572 
L 2828 4206 
L 3009 3897 
z
" transform="scale(0.015625)"/>
      </defs>
      <use xlink:href="#DejaVuSans-67" transform="translate(0 0.765625)"/>
      <use xlink:href="#DejaVuSans-6c" transform="translate(63.476562 0.765625)"/>
      <use xlink:href="#DejaVuSans-6f" transform="translate(91.259766 0.765625)"/>
      <use xlink:href="#DejaVuSans-62" transform="translate(152.441406 0.765625)"/>
      <use xlink:href="#DejaVuSans-61" transform="translate(215.917969 0.765625)"/>
      <use xlink:href="#DejaVuSans-6c" transform="translate(277.197266 0.765625)"/>
      <use xlink:href="#DejaVuSans-20" transform="translate(304.980469 0.765625)"/>
      <use xlink:href="#DejaVuSans-6d" transform="translate(336.767578 0.765625)"/>
      <use xlink:href="#DejaVuSans-69" transform="translate(434.179688 0.765625)"/>
      <use xlink:href="#DejaVuSans-6e" transform="translate(461.962891 0.765625)"/>
      <use xlink:href="#DejaVuSans-20" transform="translate(525.341797 0.765625)"/>
      <use xlink:href="#DejaVuSans-20" transform="translate(557.128906 0.765625)"/>
      <use xlink:href="#DejaVuSans-Oblique-66" transform="translate(588.916016 0.765625)"/>
      <use xlink:href="#DejaVuSans-2a" transform="translate(645.206497 39.046875) scale(0.7)"/>
      <use xlink:href="#DejaVuSans-3d" transform="translate(716.06099 0.765625)"/>
      <use xlink:href="#DejaVuSans-30" transform="translate(819.332474 0.765625)"/>
     </g>
    </g>
    <g id="PathCollection_3">
     <g>
      <use xlink:href="#m298894949c" x="171.878438" y="63.426094" style="fill: #d62728; stroke: #d62728"/>
     </g>
    </g>
    <g id="text_18">
     <!-- local minima -->
     <g transform="translate(188.078438 65.788594) scale(0.09 -0.09)">
      <use xlink:href="#DejaVuSans-6c"/>
      <use xlink:href="#DejaVuSans-6f" x="27.783203"/>
      <use xlink:href="#DejaVuSans-63" x="88.964844"/>
      <use xlink:href="#DejaVuSans-61" x="143.945312"/>
      <use xlink:href="#DejaVuSans-6c" x="205.224609"/>
      <use xlink:href="#DejaVuSans-20" x="233.007812"/>
      <use xlink:href="#DejaVuSans-6d" x="264.794922"/>
      <use xlink:href="#DejaVuSans-69" x="362.207031"/>
      <use xlink:href="#DejaVuSans-6e" x="389.990234"/>
      <use xlink:href="#DejaVuSans-69" x="453.369141"/>
      <use xlink:href="#DejaVuSans-6d" x="481.152344"/>
      <use xlink:href="#DejaVuSans-61" x="578.564453"/>
     </g>
    </g>
   </g>
   <g id="PathCollection_4">
    <g clip-path="url(#pf1141bd1fb)">
     <use xlink:href="#m3af3edf633" x="235.598438" y="223.416" style="fill: #e8850a; stroke: #e8850a"/>
    </g>
   </g>
  </g>
 </g>
 <defs>
  <clipPath id="pf1141bd1fb">
   <rect x="40.298438" y="22.32" width="390.6" height="210.672"/>
  </clipPath>
 </defs>
</svg>
