<?xml version="1.0" encoding="utf-8" standalone="no"?>
<!DOCTYPE svg PUBLIC "-//W3C//DTD SVG 1.1//EN"
  "http://www.w3.org/Graphics/SVG/1.1/DTD/svg11.dtd">
<svg xmlns:xlink="http://www.w3.org/1999/xlink" width="710.64pt" height="262.08pt" viewBox="0 0 710.64 262.08" xmlns="http://www.w3.org/2000/svg" version="1.1">
 <metadata>
  <rdf:RDF xmlns:dc="http://purl.org/dc/elements/1.1/" xmlns:cc="http://creativecommons.org/ns#" xmlns:rdf="http://www.w3.org/1999/02/22-rdf-syntax-ns#">
   <cc:Work>
    <dc:type rdf:resource="http://purl.org/dc/dcmitype/StillImage"/>
    <dc:date>2026-03-07T13:33:20.851575</dc:date>
    <dc:format>image/svg+xml</dc:format>
    <dc:creator>
     <cc:Agent>
      <dc:title>Matplotlib v3.8.4, https://matplotlib.org/</dc:title>
     </cc:Agent>
    </dc:creator>
   </cc:Work>
  </rdf:RDF>
 </metadata>
 <defs>
  <style type="text/css">*{stroke-linejoin: round; stroke-linecap: butt}</style>
 </defs>
 <g id="figure_1">
  <g id="patch_1">
   <path d="M 0 262.08 
L 710.64 262.08 
L 710.64 0 
L 0 0 
z
" style="fill: #ffffff"/>
  </g>
  <g id="axes_1">
   <g id="line2d_1">
    <path d="M 221.170909 218.021455 
L 221.056658 213.197634 
L 220.714161 208.384632 
L 220.144186 203.593241 
L 219.348011 198.834208 
L 218.327423 194.118204 
L 217.084709 189.455805 
L 215.622656 184.857469 
L 213.944544 180.333507 
L 212.054136 175.894064 
L 209.955671 171.549097 
L 207.653855 167.308349 
L 205.153851 163.181331 
L 202.461264 159.177299 
L 199.582134 155.305232 
L 196.522917 151.573813 
L 193.290474 147.991411 
L 189.892054 144.566059 
L 186.335278 141.305439 
L 182.628123 138.216864 
L 178.778902 135.30726 
L 174.796248 132.583152 
L 170.689093 130.05065 
L 166.466647 127.715432 
L 162.138379 125.582736 
L 157.713996 123.657344 
L 153.20342 121.943575 
L 148.616768 120.445272 
L 143.964324 119.165795 
L 139.256523 118.108013 
L 134.503922 117.274298 
L 129.717179 116.666521 
L 124.907031 116.286043 
L 120.084262 116.13372 
L 115.25969 116.209891 
L 110.444135 116.514387 
L 105.648394 117.046524 
L 100.883224 117.805109 
L 96.159311 118.78844 
L 91.487249 119.994314 
L 86.877515 121.420024 
L 82.340448 123.062375 
L 77.886222 124.917682 
L 73.524826 126.981785 
L 69.266042 129.250055 
L 65.119419 131.717406 
L 61.094258 134.378303 
L 57.199585 137.22678 
L 53.444135 140.256448 
L 49.83633 143.460513 
L 46.384259 146.83179 
L 43.095666 150.362718 
L 39.977926 154.045378 
L 37.038029 157.871512 
L 34.282569 161.83254 
L 31.717726 165.919577 
L 29.349252 170.123459 
L 27.182458 174.434758 
L 25.222203 178.843805 
L 23.472884 183.340713 
L 21.938423 187.915396 
L 20.622262 192.557596 
L 19.527353 197.256901 
L 18.65615 202.002773 
L 18.010608 206.784569 
L 17.592174 211.591564 
L 17.401788 216.41298 
L 17.389091 218.021455 
L 17.389091 218.021455 
" clip-path="url(#pc12faca17a)" style="fill: none; stroke-dasharray: 5.55,2.4; stroke-dashoffset: 0; stroke: #888888; stroke-opacity: 0.35; stroke-width: 1.5"/>
   </g>
   <g id="line2d_2">
    <path d="M 119.28 218.021455 
L 118.52883 216.466414 
L 117.77766 214.911374 
L 117.02649 213.356334 
L 116.27532 211.801294 
L 115.52415 210.246253 
L 114.77298 208.691213 
L 114.02181 207.136173 
L 113.270639 205.581133 
L 112.519469 204.026092 
L 111.768299 202.471052 
L 111.017129 200.916012 
L 110.265959 199.360972 
L 109.514789 197.805931 
L 108.763619 196.250891 
L 108.012449 194.695851 
L 107.261279 193.140811 
L 106.510109 191.585771 
L 105.758939 190.03073 
L 105.007769 188.47569 
L 104.256599 186.92065 
L 103.505429 185.36561 
L 102.754259 183.810569 
L 102.003089 182.255529 
L 101.251918 180.700489 
L 100.500748 179.145449 
L 99.749578 177.590408 
L 98.998408 176.035368 
L 98.247238 174.480328 
L 97.496068 172.925288 
L 96.744898 171.370248 
L 95.993728 169.815207 
L 95.242558 168.260167 
L 94.491388 166.705127 
L 93.740218 165.150087 
L 92.989048 163.595046 
L 92.237878 162.040006 
L 91.486708 160.484966 
L 90.735538 158.929926 
L 89.984368 157.374885 
L 89.233197 155.819845 
L 88.482027 154.264805 
L 87.730857 152.709765 
L 86.979687 151.154724 
L 86.228517 149.599684 
L 85.477347 148.044644 
L 84.726177 146.489604 
L 83.975007 144.934564 
L 83.223837 143.379523 
L 82.472667 141.824483 
L 81.721497 140.269443 
L 80.970327 138.714403 
L 80.219157 137.159362 
L 79.467987 135.604322 
L 78.716817 134.049282 
L 77.965647 132.494242 
L 77.214476 130.939201 
L 76.463306 129.384161 
L 75.712136 127.829121 
L 74.960966 126.274081 
" clip-path="url(#pc12faca17a)" style="fill: none; stroke: #2e6be5; stroke-opacity: 0.75; stroke-width: 1.5; stroke-linecap: square"/>
   </g>
   <g id="line2d_3">
    <path d="M 119.28 218.021455 
L 118.769647 216.371622 
L 118.259294 214.72179 
L 117.748941 213.071958 
L 117.238588 211.422126 
L 116.728235 209.772293 
L 116.217882 208.122461 
L 115.70753 206.472629 
L 115.197177 204.822796 
L 114.686824 203.172964 
L 114.176471 201.523132 
L 113.666118 199.8733 
L 113.155765 198.223467 
L 112.645412 196.573635 
L 112.135059 194.923803 
L 111.624706 193.273971 
L 111.114353 191.624138 
L 110.604 189.974306 
L 110.093647 188.324474 
L 109.583294 186.674642 
L 109.072942 185.024809 
L 108.562589 183.374977 
L 108.052236 181.725145 
L 107.541883 180.075313 
L 107.03153 178.42548 
L 106.521177 176.775648 
L 106.010824 175.125816 
L 105.500471 173.475984 
L 104.990118 171.826151 
L 104.479765 170.176319 
L 103.969412 168.526487 
L 103.459059 166.876654 
L 102.948706 165.226822 
L 102.438354 163.57699 
L 101.928001 161.927158 
L 101.417648 160.277325 
L 100.907295 158.627493 
L 100.396942 156.977661 
L 99.886589 155.327829 
L 99.376236 153.677996 
L 98.865883 152.028164 
L 98.35553 150.378332 
L 97.845177 148.7285 
L 97.334824 147.078667 
L 96.824471 145.428835 
L 96.314118 143.779003 
L 95.803765 142.129171 
L 95.293413 140.479338 
L 94.78306 138.829506 
L 94.272707 137.179674 
L 93.762354 135.529842 
L 93.252001 133.880009 
L 92.741648 132.230177 
L 92.231295 130.580345 
L 91.720942 128.930512 
L 91.210589 127.28068 
L 90.700236 125.630848 
L 90.189883 123.981016 
L 89.67953 122.331183 
L 89.169177 120.681351 
" clip-path="url(#pc12faca17a)" style="fill: none; stroke: #2e6be5; stroke-opacity: 0.75; stroke-width: 1.5; stroke-linecap: square"/>
   </g>
   <g id="line2d_4">
    <path d="M 119.28 218.021455 
L 119.021926 216.313882 
L 118.763851 214.606309 
L 118.505777 212.898737 
L 118.247703 211.191164 
L 117.989628 209.483591 
L 117.731554 207.776019 
L 117.473479 206.068446 
L 117.215405 204.360874 
L 116.957331 202.653301 
L 116.699256 200.945728 
L 116.441182 199.238156 
L 116.183108 197.530583 
L 115.925033 195.823011 
L 115.666959 194.115438 
L 115.408885 192.407865 
L 115.15081 190.700293 
L 114.892736 188.99272 
L 114.634662 187.285148 
L 114.376587 185.577575 
L 114.118513 183.870002 
L 113.860438 182.16243 
L 113.602364 180.454857 
L 113.34429 178.747285 
L 113.086215 177.039712 
L 112.828141 175.332139 
L 112.570067 173.624567 
L 112.311992 171.916994 
L 112.053918 170.209421 
L 111.795844 168.501849 
L 111.537769 166.794276 
L 111.279695 165.086704 
L 111.021621 163.379131 
L 110.763546 161.671558 
L 110.505472 159.963986 
L 110.247397 158.256413 
L 109.989323 156.548841 
L 109.731249 154.841268 
L 109.473174 153.133695 
L 109.2151 151.426123 
L 108.957026 149.71855 
L 108.698951 148.010978 
L 108.440877 146.303405 
L 108.182803 144.595832 
L 107.924728 142.88826 
L 107.666654 141.180687 
L 107.408579 139.473114 
L 107.150505 137.765542 
L 106.892431 136.057969 
L 106.634356 134.350397 
L 106.376282 132.642824 
L 106.118208 130.935251 
L 105.860133 129.227679 
L 105.602059 127.520106 
L 105.343985 125.812534 
L 105.08591 124.104961 
L 104.827836 122.397388 
L 104.569762 120.689816 
L 104.311687 118.982243 
L 104.053613 117.274671 
" clip-path="url(#pc12faca17a)" style="fill: none; stroke: #2e6be5; stroke-opacity: 0.75; stroke-width: 1.5; stroke-linecap: square"/>
   </g>
   <g id="line2d_5">
    <path d="M 119.28 218.021455 
L 119.28 216.29449 
L 119.28 214.567525 
L 119.28 212.840561 
L 119.28 211.113596 
L 119.28 209.386632 
L 119.28 207.659667 
L 119.28 205.932703 
L 119.28 204.205738 
L 119.28 202.478773 
L 119.28 200.751809 
L 119.28 199.024844 
L 119.28 197.29788 
L 119.28 195.570915 
L 119.28 193.843951 
L 119.28 192.116986 
L 119.28 190.390022 
L 119.28 188.663057 
L 119.28 186.936092 
L 119.28 185.209128 
L 119.28 183.482163 
L 119.28 181.755199 
L 119.28 180.028234 
L 119.28 178.30127 
L 119.28 176.574305 
L 119.28 174.847341 
L 119.28 173.120376 
L 119.28 171.393411 
L 119.28 169.666447 
L 119.28 167.939482 
L 119.28 166.212518 
L 119.28 164.485553 
L 119.28 162.758589 
L 119.28 161.031624 
L 119.28 159.304659 
L 119.28 157.577695 
L 119.28 155.85073 
L 119.28 154.123766 
L 119.28 152.396801 
L 119.28 150.669837 
L 119.28 148.942872 
L 119.28 147.215908 
L 119.28 145.488943 
L 119.28 143.761978 
L 119.28 142.035014 
L 119.28 140.308049 
L 119.28 138.581085 
L 119.28 136.85412 
L 119.28 135.127156 
L 119.28 133.400191 
L 119.28 131.673227 
L 119.28 129.946262 
L 119.28 128.219297 
L 119.28 126.492333 
L 119.28 124.765368 
L 119.28 123.038404 
L 119.28 121.311439 
L 119.28 119.584475 
L 119.28 117.85751 
L 119.28 116.130545 
" clip-path="url(#pc12faca17a)" style="fill: none; stroke: #2e6be5; stroke-opacity: 0.75; stroke-width: 1.5; stroke-linecap: square"/>
   </g>
   <g id="line2d_6">
    <path d="M 119.28 218.021455 
L 119.538074 216.313882 
L 119.796149 214.606309 
L 120.054223 212.898737 
L 120.312297 211.191164 
L 120.570372 209.483591 
L 120.828446 207.776019 
L 121.086521 206.068446 
L 121.344595 204.360874 
L 121.602669 202.653301 
L 121.860744 200.945728 
L 122.118818 199.238156 
L 122.376892 197.530583 
L 122.634967 195.823011 
L 122.893041 194.115438 
L 123.151115 192.407865 
L 123.40919 190.700293 
L 123.667264 188.99272 
L 123.925338 187.285148 
L 124.183413 185.577575 
L 124.441487 183.870002 
L 124.699562 182.16243 
L 124.957636 180.454857 
L 125.21571 178.747285 
L 125.473785 177.039712 
L 125.731859 175.332139 
L 125.989933 173.624567 
L 126.248008 171.916994 
L 126.506082 170.209421 
L 126.764156 168.501849 
L 127.022231 166.794276 
L 127.280305 165.086704 
L 127.538379 163.379131 
L 127.796454 161.671558 
L 128.054528 159.963986 
L 128.312603 158.256413 
L 128.570677 156.548841 
L 128.828751 154.841268 
L 129.086826 153.133695 
L 129.3449 151.426123 
L 129.602974 149.71855 
L 129.861049 148.010978 
L 130.119123 146.303405 
L 130.377197 144.595832 
L 130.635272 142.88826 
L 130.893346 141.180687 
L 131.151421 139.473114 
L 131.409495 137.765542 
L 131.667569 136.057969 
L 131.925644 134.350397 
L 132.183718 132.642824 
L 132.441792 130.935251 
L 132.699867 129.227679 
L 132.957941 127.520106 
L 133.216015 125.812534 
L 133.47409 124.104961 
L 133.732164 122.397388 
L 133.990238 120.689816 
L 134.248313 118.982243 
L 134.506387 117.274671 
" clip-path="url(#pc12faca17a)" style="fill: none; stroke: #2e6be5; stroke-opacity: 0.75; stroke-width: 1.5; stroke-linecap: square"/>
   </g>
   <g id="line2d_7">
    <path d="M 119.28 218.021455 
L 119.790353 216.371622 
L 120.300706 214.72179 
L 120.811059 213.071958 
L 121.321412 211.422126 
L 121.831765 209.772293 
L 122.342118 208.122461 
L 122.85247 206.472629 
L 123.362823 204.822796 
L 123.873176 203.172964 
L 124.383529 201.523132 
L 124.893882 199.8733 
L 125.404235 198.223467 
L 125.914588 196.573635 
L 126.424941 194.923803 
L 126.935294 193.273971 
L 127.445647 191.624138 
L 127.956 189.974306 
L 128.466353 188.324474 
L 128.976706 186.674642 
L 129.487058 185.024809 
L 129.997411 183.374977 
L 130.507764 181.725145 
L 131.018117 180.075313 
L 131.52847 178.42548 
L 132.038823 176.775648 
L 132.549176 175.125816 
L 133.059529 173.475984 
L 133.569882 171.826151 
L 134.080235 170.176319 
L 134.590588 168.526487 
L 135.100941 166.876654 
L 135.611294 165.226822 
L 136.121646 163.57699 
L 136.631999 161.927158 
L 137.142352 160.277325 
L 137.652705 158.627493 
L 138.163058 156.977661 
L 138.673411 155.327829 
L 139.183764 153.677996 
L 139.694117 152.028164 
L 140.20447 150.378332 
L 140.714823 148.7285 
L 141.225176 147.078667 
L 141.735529 145.428835 
L 142.245882 143.779003 
L 142.756235 142.129171 
L 143.266587 140.479338 
L 143.77694 138.829506 
L 144.287293 137.179674 
L 144.797646 135.529842 
L 145.307999 133.880009 
L 145.818352 132.230177 
L 146.328705 130.580345 
L 146.839058 128.930512 
L 147.349411 127.28068 
L 147.859764 125.630848 
L 148.370117 123.981016 
L 148.88047 122.331183 
L 149.390823 120.681351 
" clip-path="url(#pc12faca17a)" style="fill: none; stroke: #2e6be5; stroke-opacity: 0.75; stroke-width: 1.5; stroke-linecap: square"/>
   </g>
   <g id="line2d_8">
    <path d="M 119.28 218.021455 
L 120.03117 216.466414 
L 120.78234 214.911374 
L 121.53351 213.356334 
L 122.28468 211.801294 
L 123.03585 210.246253 
L 123.78702 208.691213 
L 124.53819 207.136173 
L 125.289361 205.581133 
L 126.040531 204.026092 
L 126.791701 202.471052 
L 127.542871 200.916012 
L 128.294041 199.360972 
L 129.045211 197.805931 
L 129.796381 196.250891 
L 130.547551 194.695851 
L 131.298721 193.140811 
L 132.049891 191.585771 
L 132.801061 190.03073 
L 133.552231 188.47569 
L 134.303401 186.92065 
L 135.054571 185.36561 
L 135.805741 183.810569 
L 136.556911 182.255529 
L 137.308082 180.700489 
L 138.059252 179.145449 
L 138.810422 177.590408 
L 139.561592 176.035368 
L 140.312762 174.480328 
L 141.063932 172.925288 
L 141.815102 171.370248 
L 142.566272 169.815207 
L 143.317442 168.260167 
L 144.068612 166.705127 
L 144.819782 165.150087 
L 145.570952 163.595046 
L 146.322122 162.040006 
L 147.073292 160.484966 
L 147.824462 158.929926 
L 148.575632 157.374885 
L 149.326803 155.819845 
L 150.077973 154.264805 
L 150.829143 152.709765 
L 151.580313 151.154724 
L 152.331483 149.599684 
L 153.082653 148.044644 
L 153.833823 146.489604 
L 154.584993 144.934564 
L 155.336163 143.379523 
L 156.087333 141.824483 
L 156.838503 140.269443 
L 157.589673 138.714403 
L 158.340843 137.159362 
L 159.092013 135.604322 
L 159.843183 134.049282 
L 160.594353 132.494242 
L 161.345524 130.939201 
L 162.096694 129.384161 
L 162.847864 127.829121 
L 163.599034 126.274081 
" clip-path="url(#pc12faca17a)" style="fill: none; stroke: #2e6be5; stroke-opacity: 0.75; stroke-width: 1.5; stroke-linecap: square"/>
   </g>
   <g id="text_1">
    <!-- meet at N pole -->
    <g style="fill: #888888" transform="translate(89.508125 230.248364) scale(0.08 -0.08)">
     <defs>
      <path id="DejaVuSans-6d" d="M 3328 2828 
Q 3544 3216 3844 3400 
Q 4144 3584 4550 3584 
Q 5097 3584 5394 3201 
Q 5691 2819 5691 2113 
L 5691 0 
L 5113 0 
L 5113 2094 
Q 5113 2597 4934 2840 
Q 4756 3084 4391 3084 
Q 3944 3084 3684 2787 
Q 3425 2491 3425 1978 
L 3425 0 
L 2847 0 
L 2847 2094 
Q 2847 2600 2669 2842 
Q 2491 3084 2119 3084 
Q 1678 3084 1418 2786 
Q 1159 2488 1159 1978 
L 1159 0 
L 581 0 
L 581 3500 
L 1159 3500 
L 1159 2956 
Q 1356 3278 1631 3431 
Q 1906 3584 2284 3584 
Q 2666 3584 2933 3390 
Q 3200 3197 3328 2828 
z
" transform="scale(0.015625)"/>
      <path id="DejaVuSans-65" d="M 3597 1894 
L 3597 1613 
L 953 1613 
Q 991 1019 1311 708 
Q 1631 397 2203 397 
Q 2534 397 2845 478 
Q 3156 559 3463 722 
L 3463 178 
Q 3153 47 2828 -22 
Q 2503 -91 2169 -91 
Q 1331 -91 842 396 
Q 353 884 353 1716 
Q 353 2575 817 3079 
Q 1281 3584 2069 3584 
Q 2775 3584 3186 3129 
Q 3597 2675 3597 1894 
z
M 3022 2063 
Q 3016 2534 2758 2815 
Q 2500 3097 2075 3097 
Q 1594 3097 1305 2825 
Q 1016 2553 972 2059 
L 3022 2063 
z
" transform="scale(0.015625)"/>
      <path id="DejaVuSans-74" d="M 1172 4494 
L 1172 3500 
L 2356 3500 
L 2356 3053 
L 1172 3053 
L 1172 1153 
Q 1172 725 1289 603 
Q 1406 481 1766 481 
L 2356 481 
L 2356 0 
L 1766 0 
Q 1100 0 847 248 
Q 594 497 594 1153 
L 594 3053 
L 172 3053 
L 172 3500 
L 594 3500 
L 594 4494 
L 1172 4494 
z
" transform="scale(0.015625)"/>
      <path id="DejaVuSans-20" transform="scale(0.015625)"/>
      <path id="DejaVuSans-61" d="M 2194 1759 
Q 1497 1759 1228 1600 
Q 959 1441 959 1056 
Q 959 750 1161 570 
Q 1363 391 1709 391 
Q 2188 391 2477 730 
Q 2766 1069 2766 1631 
L 2766 1759 
L 2194 1759 
z
M 3341 1997 
L 3341 0 
L 2766 0 
L 2766 531 
Q 2569 213 2275 61 
Q 1981 -91 1556 -91 
Q 1019 -91 701 211 
Q 384 513 384 1019 
Q 384 1609 779 1909 
Q 1175 2209 1959 2209 
L 2766 2209 
L 2766 2266 
Q 2766 2663 2505 2880 
Q 2244 3097 1772 3097 
Q 1472 3097 1187 3025 
Q 903 2953 641 2809 
L 641 3341 
Q 956 3463 1253 3523 
Q 1550 3584 1831 3584 
Q 2591 3584 2966 3190 
Q 3341 2797 3341 1997 
z
" transform="scale(0.015625)"/>
      <path id="DejaVuSans-4e" d="M 628 4666 
L 1478 4666 
L 3547 763 
L 3547 4666 
L 4159 4666 
L 4159 0 
L 3309 0 
L 1241 3903 
L 1241 0 
L 628 0 
L 628 4666 
z
" transform="scale(0.015625)"/>
      <path id="DejaVuSans-70" d="M 1159 525 
L 1159 -1331 
L 581 -1331 
L 581 3500 
L 1159 3500 
L 1159 2969 
Q 1341 3281 1617 3432 
Q 1894 3584 2278 3584 
Q 2916 3584 3314 3078 
Q 3713 2572 3713 1747 
Q 3713 922 3314 415 
Q 2916 -91 2278 -91 
Q 1894 -91 1617 61 
Q 1341 213 1159 525 
z
M 3116 1747 
Q 3116 2381 2855 2742 
Q 2594 3103 2138 3103 
Q 1681 3103 1420 2742 
Q 1159 2381 1159 1747 
Q 1159 1113 1420 752 
Q 1681 391 2138 391 
Q 2594 391 2855 752 
Q 3116 1113 3116 1747 
z
" transform="scale(0.015625)"/>
      <path id="DejaVuSans-6f" d="M 1959 3097 
Q 1497 3097 1228 2736 
Q 959 2375 959 1747 
Q 959 1119 1226 758 
Q 1494 397 1959 397 
Q 2419 397 2687 759 
Q 2956 1122 2956 1747 
Q 2956 2369 2687 2733 
Q 2419 3097 1959 3097 
z
M 1959 3584 
Q 2709 3584 3137 3096 
Q 3566 2609 3566 1747 
Q 3566 888 3137 398 
Q 2709 -91 1959 -91 
Q 1206 -91 779 398 
Q 353 888 353 1747 
Q 353 2609 779 3096 
Q 1206 3584 1959 3584 
z
" transform="scale(0.015625)"/>
      <path id="DejaVuSans-6c" d="M 603 4863 
L 1178 4863 
L 1178 0 
L 603 0 
L 603 4863 
z
" transform="scale(0.015625)"/>
     </defs>
     <use xlink:href="#DejaVuSans-6d"/>
     <use xlink:href="#DejaVuSans-65" x="97.412109"/>
     <use xlink:href="#DejaVuSans-65" x="158.935547"/>
     <use xlink:href="#DejaVuSans-74" x="220.458984"/>
     <use xlink:href="#DejaVuSans-20" x="259.667969"/>
     <use xlink:href="#DejaVuSans-61" x="291.455078"/>
     <use xlink:href="#DejaVuSans-74" x="352.734375"/>
     <use xlink:href="#DejaVuSans-20" x="391.943359"/>
     <use xlink:href="#DejaVuSans-4e" x="423.730469"/>
     <use xlink:href="#DejaVuSans-20" x="498.535156"/>
     <use xlink:href="#DejaVuSans-70" x="530.322266"/>
     <use xlink:href="#DejaVuSans-6f" x="593.798828"/>
     <use xlink:href="#DejaVuSans-6c" x="654.980469"/>
     <use xlink:href="#DejaVuSans-65" x="682.763672"/>
    </g>
   </g>
   <g id="text_2">
    <!-- $K &gt; 0$  (sphere $S^2$) -->
    <g transform="translate(74.93 93.817875) scale(0.1 -0.1)">
     <defs>
      <path id="DejaVuSans-Oblique-4b" d="M 1081 4666 
L 1716 4666 
L 1331 2700 
L 3781 4666 
L 4622 4666 
L 1850 2438 
L 3878 0 
L 3109 0 
L 1247 2272 
L 806 0 
L 172 0 
L 1081 4666 
z
" transform="scale(0.015625)"/>
      <path id="DejaVuSans-3e" d="M 678 3150 
L 678 3719 
L 4684 2266 
L 4684 1747 
L 678 294 
L 678 863 
L 3897 2003 
L 678 3150 
z
" transform="scale(0.015625)"/>
      <path id="DejaVuSans-30" d="M 2034 4250 
Q 1547 4250 1301 3770 
Q 1056 3291 1056 2328 
Q 1056 1369 1301 889 
Q 1547 409 2034 409 
Q 2525 409 2770 889 
Q 3016 1369 3016 2328 
Q 3016 3291 2770 3770 
Q 2525 4250 2034 4250 
z
M 2034 4750 
Q 2819 4750 3233 4129 
Q 3647 3509 3647 2328 
Q 3647 1150 3233 529 
Q 2819 -91 2034 -91 
Q 1250 -91 836 529 
Q 422 1150 422 2328 
Q 422 3509 836 4129 
Q 1250 4750 2034 4750 
z
" transform="scale(0.015625)"/>
      <path id="DejaVuSans-28" d="M 1984 4856 
Q 1566 4138 1362 3434 
Q 1159 2731 1159 2009 
Q 1159 1288 1364 580 
Q 1569 -128 1984 -844 
L 1484 -844 
Q 1016 -109 783 600 
Q 550 1309 550 2009 
Q 550 2706 781 3412 
Q 1013 4119 1484 4856 
L 1984 4856 
z
" transform="scale(0.015625)"/>
      <path id="DejaVuSans-73" d="M 2834 3397 
L 2834 2853 
Q 2591 2978 2328 3040 
Q 2066 3103 1784 3103 
Q 1356 3103 1142 2972 
Q 928 2841 928 2578 
Q 928 2378 1081 2264 
Q 1234 2150 1697 2047 
L 1894 2003 
Q 2506 1872 2764 1633 
Q 3022 1394 3022 966 
Q 3022 478 2636 193 
Q 2250 -91 1575 -91 
Q 1294 -91 989 -36 
Q 684 19 347 128 
L 347 722 
Q 666 556 975 473 
Q 1284 391 1588 391 
Q 1994 391 2212 530 
Q 2431 669 2431 922 
Q 2431 1156 2273 1281 
Q 2116 1406 1581 1522 
L 1381 1569 
Q 847 1681 609 1914 
Q 372 2147 372 2553 
Q 372 3047 722 3315 
Q 1072 3584 1716 3584 
Q 2034 3584 2315 3537 
Q 2597 3491 2834 3397 
z
" transform="scale(0.015625)"/>
      <path id="DejaVuSans-68" d="M 3513 2113 
L 3513 0 
L 2938 0 
L 2938 2094 
Q 2938 2591 2744 2837 
Q 2550 3084 2163 3084 
Q 1697 3084 1428 2787 
Q 1159 2491 1159 1978 
L 1159 0 
L 581 0 
L 581 4863 
L 1159 4863 
L 1159 2956 
Q 1366 3272 1645 3428 
Q 1925 3584 2291 3584 
Q 2894 3584 3203 3211 
Q 3513 2838 3513 2113 
z
" transform="scale(0.015625)"/>
      <path id="DejaVuSans-72" d="M 2631 2963 
Q 2534 3019 2420 3045 
Q 2306 3072 2169 3072 
Q 1681 3072 1420 2755 
Q 1159 2438 1159 1844 
L 1159 0 
L 581 0 
L 581 3500 
L 1159 3500 
L 1159 2956 
Q 1341 3275 1631 3429 
Q 1922 3584 2338 3584 
Q 2397 3584 2469 3576 
Q 2541 3569 2628 3553 
L 2631 2963 
z
" transform="scale(0.015625)"/>
      <path id="DejaVuSans-Oblique-53" d="M 3859 4513 
L 3738 3897 
Q 3422 4066 3111 4152 
Q 2800 4238 2509 4238 
Q 1944 4238 1609 3991 
Q 1275 3744 1275 3334 
Q 1275 3109 1398 2989 
Q 1522 2869 2034 2731 
L 2413 2638 
Q 3053 2472 3303 2217 
Q 3553 1963 3553 1503 
Q 3553 797 2998 353 
Q 2444 -91 1538 -91 
Q 1166 -91 791 -17 
Q 416 56 38 206 
L 166 856 
Q 513 641 861 531 
Q 1209 422 1556 422 
Q 2147 422 2503 684 
Q 2859 947 2859 1369 
Q 2859 1650 2717 1795 
Q 2575 1941 2106 2059 
L 1728 2156 
Q 1081 2325 845 2545 
Q 609 2766 609 3163 
Q 609 3859 1145 4304 
Q 1681 4750 2541 4750 
Q 2875 4750 3203 4690 
Q 3531 4631 3859 4513 
z
" transform="scale(0.015625)"/>
      <path id="DejaVuSans-32" d="M 1228 531 
L 3431 531 
L 3431 0 
L 469 0 
L 469 531 
Q 828 903 1448 1529 
Q 2069 2156 2228 2338 
Q 2531 2678 2651 2914 
Q 2772 3150 2772 3378 
Q 2772 3750 2511 3984 
Q 2250 4219 1831 4219 
Q 1534 4219 1204 4116 
Q 875 4013 500 3803 
L 500 4441 
Q 881 4594 1212 4672 
Q 1544 4750 1819 4750 
Q 2544 4750 2975 4387 
Q 3406 4025 3406 3419 
Q 3406 3131 3298 2873 
Q 3191 2616 2906 2266 
Q 2828 2175 2409 1742 
Q 1991 1309 1228 531 
z
" transform="scale(0.015625)"/>
      <path id="DejaVuSans-29" d="M 513 4856 
L 1013 4856 
Q 1481 4119 1714 3412 
Q 1947 2706 1947 2009 
Q 1947 1309 1714 600 
Q 1481 -109 1013 -844 
L 513 -844 
Q 928 -128 1133 580 
Q 1338 1288 1338 2009 
Q 1338 2731 1133 3434 
Q 928 4138 513 4856 
z
" transform="scale(0.015625)"/>
     </defs>
     <use xlink:href="#DejaVuSans-Oblique-4b" transform="translate(0 0.765625)"/>
     <use xlink:href="#DejaVuSans-3e" transform="translate(85.058594 0.765625)"/>
     <use xlink:href="#DejaVuSans-30" transform="translate(188.330078 0.765625)"/>
     <use xlink:href="#DejaVuSans-20" transform="translate(251.953125 0.765625)"/>
     <use xlink:href="#DejaVuSans-20" transform="translate(283.740234 0.765625)"/>
     <use xlink:href="#DejaVuSans-28" transform="translate(315.527344 0.765625)"/>
     <use xlink:href="#DejaVuSans-73" transform="translate(354.541016 0.765625)"/>
     <use xlink:href="#DejaVuSans-70" transform="translate(406.640625 0.765625)"/>
     <use xlink:href="#DejaVuSans-68" transform="translate(470.117188 0.765625)"/>
     <use xlink:href="#DejaVuSans-65" transform="translate(533.496094 0.765625)"/>
     <use xlink:href="#DejaVuSans-72" transform="translate(595.019531 0.765625)"/>
     <use xlink:href="#DejaVuSans-65" transform="translate(636.132812 0.765625)"/>
     <use xlink:href="#DejaVuSans-20" transform="translate(697.65625 0.765625)"/>
     <use xlink:href="#DejaVuSans-Oblique-53" transform="translate(729.443359 0.765625)"/>
     <use xlink:href="#DejaVuSans-32" transform="translate(800.120443 39.046875) scale(0.7)"/>
     <use xlink:href="#DejaVuSans-29" transform="translate(847.390951 0.765625)"/>
    </g>
    <!-- geodesics converge -->
    <g transform="translate(69.550313 105.036) scale(0.1 -0.1)">
     <defs>
      <path id="DejaVuSans-67" d="M 2906 1791 
Q 2906 2416 2648 2759 
Q 2391 3103 1925 3103 
Q 1463 3103 1205 2759 
Q 947 2416 947 1791 
Q 947 1169 1205 825 
Q 1463 481 1925 481 
Q 2391 481 2648 825 
Q 2906 1169 2906 1791 
z
M 3481 434 
Q 3481 -459 3084 -895 
Q 2688 -1331 1869 -1331 
Q 1566 -1331 1297 -1286 
Q 1028 -1241 775 -1147 
L 775 -588 
Q 1028 -725 1275 -790 
Q 1522 -856 1778 -856 
Q 2344 -856 2625 -561 
Q 2906 -266 2906 331 
L 2906 616 
Q 2728 306 2450 153 
Q 2172 0 1784 0 
Q 1141 0 747 490 
Q 353 981 353 1791 
Q 353 2603 747 3093 
Q 1141 3584 1784 3584 
Q 2172 3584 2450 3431 
Q 2728 3278 2906 2969 
L 2906 3500 
L 3481 3500 
L 3481 434 
z
" transform="scale(0.015625)"/>
      <path id="DejaVuSans-64" d="M 2906 2969 
L 2906 4863 
L 3481 4863 
L 3481 0 
L 2906 0 
L 2906 525 
Q 2725 213 2448 61 
Q 2172 -91 1784 -91 
Q 1150 -91 751 415 
Q 353 922 353 1747 
Q 353 2572 751 3078 
Q 1150 3584 1784 3584 
Q 2172 3584 2448 3432 
Q 2725 3281 2906 2969 
z
M 947 1747 
Q 947 1113 1208 752 
Q 1469 391 1925 391 
Q 2381 391 2643 752 
Q 2906 1113 2906 1747 
Q 2906 2381 2643 2742 
Q 2381 3103 1925 3103 
Q 1469 3103 1208 2742 
Q 947 2381 947 1747 
z
" transform="scale(0.015625)"/>
      <path id="DejaVuSans-69" d="M 603 3500 
L 1178 3500 
L 1178 0 
L 603 0 
L 603 3500 
z
M 603 4863 
L 1178 4863 
L 1178 4134 
L 603 4134 
L 603 4863 
z
" transform="scale(0.015625)"/>
      <path id="DejaVuSans-63" d="M 3122 3366 
L 3122 2828 
Q 2878 2963 2633 3030 
Q 2388 3097 2138 3097 
Q 1578 3097 1268 2742 
Q 959 2388 959 1747 
Q 959 1106 1268 751 
Q 1578 397 2138 397 
Q 2388 397 2633 464 
Q 2878 531 3122 666 
L 3122 134 
Q 2881 22 2623 -34 
Q 2366 -91 2075 -91 
Q 1284 -91 818 406 
Q 353 903 353 1747 
Q 353 2603 823 3093 
Q 1294 3584 2113 3584 
Q 2378 3584 2631 3529 
Q 2884 3475 3122 3366 
z
" transform="scale(0.015625)"/>
      <path id="DejaVuSans-6e" d="M 3513 2113 
L 3513 0 
L 2938 0 
L 2938 2094 
Q 2938 2591 2744 2837 
Q 2550 3084 2163 3084 
Q 1697 3084 1428 2787 
Q 1159 2491 1159 1978 
L 1159 0 
L 581 0 
L 581 3500 
L 1159 3500 
L 1159 2956 
Q 1366 3272 1645 3428 
Q 1925 3584 2291 3584 
Q 2894 3584 3203 3211 
Q 3513 2838 3513 2113 
z
" transform="scale(0.015625)"/>
      <path id="DejaVuSans-76" d="M 191 3500 
L 800 3500 
L 1894 563 
L 2988 3500 
L 3597 3500 
L 2284 0 
L 1503 0 
L 191 3500 
z
" transform="scale(0.015625)"/>
     </defs>
     <use xlink:href="#DejaVuSans-67"/>
     <use xlink:href="#DejaVuSans-65" x="63.476562"/>
     <use xlink:href="#DejaVuSans-6f" x="125"/>
     <use xlink:href="#DejaVuSans-64" x="186.181641"/>
     <use xlink:href="#DejaVuSans-65" x="249.658203"/>
     <use xlink:href="#DejaVuSans-73" x="311.181641"/>
     <use xlink:href="#DejaVuSans-69" x="363.28125"/>
     <use xlink:href="#DejaVuSans-63" x="391.064453"/>
     <use xlink:href="#DejaVuSans-73" x="446.044922"/>
     <use xlink:href="#DejaVuSans-20" x="498.144531"/>
     <use xlink:href="#DejaVuSans-63" x="529.931641"/>
     <use xlink:href="#DejaVuSans-6f" x="584.912109"/>
     <use xlink:href="#DejaVuSans-6e" x="646.09375"/>
     <use xlink:href="#DejaVuSans-76" x="709.472656"/>
     <use xlink:href="#DejaVuSans-65" x="768.652344"/>
     <use xlink:href="#DejaVuSans-72" x="830.175781"/>
     <use xlink:href="#DejaVuSans-67" x="869.539062"/>
     <use xlink:href="#DejaVuSans-65" x="933.015625"/>
    </g>
   </g>
   <g id="PathCollection_1">
    <defs>
     <path id="mefa2c4dada" d="M 0 4.1833 
C 1.109424 4.1833 2.173559 3.742521 2.95804 2.95804 
C 3.742521 2.173559 4.1833 1.109424 4.1833 0 
C 4.1833 -1.109424 3.742521 -2.173559 2.95804 -2.95804 
C 2.173559 -3.742521 1.109424 -4.1833 0 -4.1833 
C -1.109424 -4.1833 -2.173559 -3.742521 -2.95804 -2.95804 
C -3.742521 -2.173559 -4.1833 -1.109424 -4.1833 0 
C -4.1833 1.109424 -3.742521 2.173559 -2.95804 2.95804 
C -2.173559 3.742521 -1.109424 4.1833 0 4.1833 
z
" style="stroke: #e8850a"/>
    </defs>
    <g clip-path="url(#pc12faca17a)">
     <use xlink:href="#mefa2c4dada" x="119.28" y="218.021455" style="fill: #e8850a; stroke: #e8850a"/>
    </g>
   </g>
  </g>
  <g id="axes_2">
   <g id="line2d_9">
    <path d="M 269.104615 225.612 
L 441.535385 225.612 
" clip-path="url(#pa6b947c794)" style="fill: none; stroke: #2e6be5; stroke-width: 1.5; stroke-linecap: square"/>
   </g>
   <g id="line2d_10">
    <path d="M 269.104615 206.1 
L 441.535385 206.1 
" clip-path="url(#pa6b947c794)" style="fill: none; stroke: #2e6be5; stroke-width: 1.5; stroke-linecap: square"/>
   </g>
   <g id="line2d_11">
    <path d="M 269.104615 186.588 
L 441.535385 186.588 
" clip-path="url(#pa6b947c794)" style="fill: none; stroke: #2e6be5; stroke-width: 1.5; stroke-linecap: square"/>
   </g>
   <g id="line2d_12">
    <path d="M 269.104615 167.076 
L 441.535385 167.076 
" clip-path="url(#pa6b947c794)" style="fill: none; stroke: #2e6be5; stroke-width: 1.5; stroke-linecap: square"/>
   </g>
   <g id="line2d_13">
    <path d="M 269.104615 147.564 
L 441.535385 147.564 
" clip-path="url(#pa6b947c794)" style="fill: none; stroke: #2e6be5; stroke-width: 1.5; stroke-linecap: square"/>
   </g>
   <g id="line2d_14">
    <path d="M 269.104615 128.052 
L 441.535385 128.052 
" clip-path="url(#pa6b947c794)" style="fill: none; stroke: #2e6be5; stroke-width: 1.5; stroke-linecap: square"/>
   </g>
   <g id="line2d_15">
    <path d="M 269.104615 108.54 
L 441.535385 108.54 
" clip-path="url(#pa6b947c794)" style="fill: none; stroke: #2e6be5; stroke-width: 1.5; stroke-linecap: square"/>
   </g>
   <g id="text_3">
    <!-- remain equidistant -->
    <g style="fill: #888888" transform="translate(317.535625 247.563) scale(0.08 -0.08)">
     <defs>
      <path id="DejaVuSans-71" d="M 947 1747 
Q 947 1113 1208 752 
Q 1469 391 1925 391 
Q 2381 391 2643 752 
Q 2906 1113 2906 1747 
Q 2906 2381 2643 2742 
Q 2381 3103 1925 3103 
Q 1469 3103 1208 2742 
Q 947 2381 947 1747 
z
M 2906 525 
Q 2725 213 2448 61 
Q 2172 -91 1784 -91 
Q 1150 -91 751 415 
Q 353 922 353 1747 
Q 353 2572 751 3078 
Q 1150 3584 1784 3584 
Q 2172 3584 2448 3432 
Q 2725 3281 2906 2969 
L 2906 3500 
L 3481 3500 
L 3481 -1331 
L 2906 -1331 
L 2906 525 
z
" transform="scale(0.015625)"/>
      <path id="DejaVuSans-75" d="M 544 1381 
L 544 3500 
L 1119 3500 
L 1119 1403 
Q 1119 906 1312 657 
Q 1506 409 1894 409 
Q 2359 409 2629 706 
Q 2900 1003 2900 1516 
L 2900 3500 
L 3475 3500 
L 3475 0 
L 2900 0 
L 2900 538 
Q 2691 219 2414 64 
Q 2138 -91 1772 -91 
Q 1169 -91 856 284 
Q 544 659 544 1381 
z
M 1991 3584 
L 1991 3584 
z
" transform="scale(0.015625)"/>
     </defs>
     <use xlink:href="#DejaVuSans-72"/>
     <use xlink:href="#DejaVuSans-65" x="38.863281"/>
     <use xlink:href="#DejaVuSans-6d" x="100.386719"/>
     <use xlink:href="#DejaVuSans-61" x="197.798828"/>
     <use xlink:href="#DejaVuSans-69" x="259.078125"/>
     <use xlink:href="#DejaVuSans-6e" x="286.861328"/>
     <use xlink:href="#DejaVuSans-20" x="350.240234"/>
     <use xlink:href="#DejaVuSans-65" x="382.027344"/>
     <use xlink:href="#DejaVuSans-71" x="443.550781"/>
     <use xlink:href="#DejaVuSans-75" x="507.027344"/>
     <use xlink:href="#DejaVuSans-69" x="570.40625"/>
     <use xlink:href="#DejaVuSans-64" x="598.189453"/>
     <use xlink:href="#DejaVuSans-69" x="661.666016"/>
     <use xlink:href="#DejaVuSans-73" x="689.449219"/>
     <use xlink:href="#DejaVuSans-74" x="741.548828"/>
     <use xlink:href="#DejaVuSans-61" x="780.757812"/>
     <use xlink:href="#DejaVuSans-6e" x="842.037109"/>
     <use xlink:href="#DejaVuSans-74" x="905.416016"/>
    </g>
   </g>
   <g id="text_4">
    <!-- $K = 0$  (flat $\mathbb{R}^2$) -->
    <g transform="translate(319.77 62.074187) scale(0.1 -0.1)">
     <defs>
      <path id="DejaVuSans-3d" d="M 678 2906 
L 4684 2906 
L 4684 2381 
L 678 2381 
L 678 2906 
z
M 678 1631 
L 4684 1631 
L 4684 1100 
L 678 1100 
L 678 1631 
z
" transform="scale(0.015625)"/>
      <path id="DejaVuSans-66" d="M 2375 4863 
L 2375 4384 
L 1825 4384 
Q 1516 4384 1395 4259 
Q 1275 4134 1275 3809 
L 1275 3500 
L 2222 3500 
L 2222 3053 
L 1275 3053 
L 1275 0 
L 697 0 
L 697 3053 
L 147 3053 
L 147 3500 
L 697 3500 
L 697 3744 
Q 697 4328 969 4595 
Q 1241 4863 1831 4863 
L 2375 4863 
z
" transform="scale(0.015625)"/>
      <path id="STIXGeneral-Italic-211d" d="M 1229 4179 
L 3360 4179 
Q 3827 4179 4108 3894 
Q 4390 3610 4390 3142 
Q 4390 2554 4060 2186 
Q 3731 1818 3149 1715 
L 4026 0 
L 2925 0 
L 2125 1690 
L 1549 1690 
L 1094 0 
L 109 0 
L 1229 4179 
z
M 3866 3821 
L 3392 2022 
Q 3770 2144 3962 2438 
Q 4154 2733 4154 3136 
Q 4154 3584 3866 3821 
z
M 3142 1978 
L 3648 3872 
Q 3450 3942 3296 3942 
L 2150 3942 
L 1613 1926 
L 2630 1926 
Q 2957 1926 3142 1978 
z
M 3629 237 
L 2899 1696 
Q 2829 1683 2682 1683 
Q 2630 1683 2531 1686 
Q 2432 1690 2387 1690 
L 3072 237 
L 3629 237 
z
M 1907 3942 
L 1408 3942 
L 416 237 
L 915 237 
L 1907 3942 
z
" transform="scale(0.015625)"/>
     </defs>
     <use xlink:href="#DejaVuSans-Oblique-4b" transform="translate(0 0.765625)"/>
     <use xlink:href="#DejaVuSans-3d" transform="translate(85.058594 0.765625)"/>
     <use xlink:href="#DejaVuSans-30" transform="translate(188.330078 0.765625)"/>
     <use xlink:href="#DejaVuSans-20" transform="translate(251.953125 0.765625)"/>
     <use xlink:href="#DejaVuSans-20" transform="translate(283.740234 0.765625)"/>
     <use xlink:href="#DejaVuSans-28" transform="translate(315.527344 0.765625)"/>
     <use xlink:href="#DejaVuSans-66" transform="translate(354.541016 0.765625)"/>
     <use xlink:href="#DejaVuSans-6c" transform="translate(389.746094 0.765625)"/>
     <use xlink:href="#DejaVuSans-61" transform="translate(417.529297 0.765625)"/>
     <use xlink:href="#DejaVuSans-74" transform="translate(478.808594 0.765625)"/>
     <use xlink:href="#DejaVuSans-20" transform="translate(518.017578 0.765625)"/>
     <use xlink:href="#STIXGeneral-Italic-211d" transform="translate(549.804688 0.765625)"/>
     <use xlink:href="#DejaVuSans-32" transform="translate(624.456128 39.046875) scale(0.7)"/>
     <use xlink:href="#DejaVuSans-29" transform="translate(671.726635 0.765625)"/>
    </g>
    <!-- parallel geodesics -->
    <g transform="translate(310.220781 73.272) scale(0.1 -0.1)">
     <use xlink:href="#DejaVuSans-70"/>
     <use xlink:href="#DejaVuSans-61" x="63.476562"/>
     <use xlink:href="#DejaVuSans-72" x="124.755859"/>
     <use xlink:href="#DejaVuSans-61" x="165.869141"/>
     <use xlink:href="#DejaVuSans-6c" x="227.148438"/>
     <use xlink:href="#DejaVuSans-6c" x="254.931641"/>
     <use xlink:href="#DejaVuSans-65" x="282.714844"/>
     <use xlink:href="#DejaVuSans-6c" x="344.238281"/>
     <use xlink:href="#DejaVuSans-20" x="372.021484"/>
     <use xlink:href="#DejaVuSans-67" x="403.808594"/>
     <use xlink:href="#DejaVuSans-65" x="467.285156"/>
     <use xlink:href="#DejaVuSans-6f" x="528.808594"/>
     <use xlink:href="#DejaVuSans-64" x="589.990234"/>
     <use xlink:href="#DejaVuSans-65" x="653.466797"/>
     <use xlink:href="#DejaVuSans-73" x="714.990234"/>
     <use xlink:href="#DejaVuSans-69" x="767.089844"/>
     <use xlink:href="#DejaVuSans-63" x="794.873047"/>
     <use xlink:href="#DejaVuSans-73" x="849.853516"/>
    </g>
   </g>
  </g>
  <g id="axes_3">
   <g id="line2d_16">
    <path d="M 591.36 238.915636 
L 590.265956 237.077207 
L 589.150296 235.252909 
L 588.013145 233.442951 
L 586.854632 231.647539 
L 585.674884 229.866879 
L 584.474031 228.101176 
L 583.252206 226.350633 
L 582.009543 224.615453 
L 580.746175 222.895837 
L 579.462241 221.191985 
L 578.157879 219.504096 
L 576.833227 217.832368 
L 575.488428 216.176998 
L 574.123624 214.538181 
L 572.738961 212.916111 
L 571.334584 211.310981 
L 569.91064 209.722982 
L 568.467279 208.152306 
L 567.00465 206.599141 
L 565.522908 205.063675 
L 564.022203 203.546094 
L 562.502693 202.046585 
L 560.964532 200.565331 
L 559.40788 199.102514 
L 557.832895 197.658316 
L 556.239738 196.232917 
L 554.628571 194.826495 
L 552.999559 193.439228 
L 551.352865 192.071291 
L 549.688657 190.722859 
L 548.007102 189.394105 
L 546.30837 188.0852 
L 544.59263 186.796314 
L 542.860055 185.527617 
L 541.110818 184.279275 
L 539.345094 183.051454 
L 537.563058 181.844319 
L 535.764888 180.658032 
L 533.950762 179.492755 
L 532.12086 178.348648 
L 530.275363 177.225868 
L 528.414453 176.124573 
L 526.538314 175.044917 
L 524.647131 173.987055 
L 522.741089 172.951139 
L 520.820376 171.937319 
L 518.885181 170.945744 
L 516.935693 169.976561 
L 514.972103 169.029917 
L 512.994603 168.105956 
L 511.003386 167.204819 
L 508.998646 166.326649 
L 506.98058 165.471584 
L 504.949384 164.639762 
L 502.905254 163.831319 
L 500.848391 163.04639 
L 498.778994 162.285107 
L 496.697264 161.5476 
L 494.603404 160.834 
" clip-path="url(#pd41133229d)" style="fill: none; stroke: #2e6be5; stroke-opacity: 0.75; stroke-width: 1.5; stroke-linecap: square"/>
   </g>
   <g id="line2d_17">
    <path d="M 591.36 238.915636 
L 590.609119 236.898067 
L 589.842406 234.886966 
L 589.059898 232.882435 
L 588.261636 230.884574 
L 587.447657 228.893487 
L 586.618002 226.909272 
L 585.772711 224.932032 
L 584.911826 222.961866 
L 584.035387 220.998875 
L 583.143437 219.04316 
L 582.236018 217.094819 
L 581.313174 215.153953 
L 580.374947 213.220661 
L 579.421383 211.295041 
L 578.452525 209.377193 
L 577.468418 207.467216 
L 576.469109 205.565207 
L 575.454644 203.671265 
L 574.425068 201.785488 
L 573.38043 199.907973 
L 572.320777 198.038817 
L 571.246157 196.178117 
L 570.156619 194.325971 
L 569.052212 192.482474 
L 567.932986 190.647723 
L 566.798991 188.821813 
L 565.650278 187.004841 
L 564.486898 185.196901 
L 563.308903 183.398089 
L 562.116345 181.6085 
L 560.909276 179.828227 
L 559.687751 178.057365 
L 558.451823 176.296008 
L 557.201545 174.54425 
L 555.936973 172.802183 
L 554.658163 171.069901 
L 553.365168 169.347496 
L 552.058047 167.63506 
L 550.736855 165.932686 
L 549.401649 164.240466 
L 548.052488 162.558489 
L 546.689429 160.886849 
L 545.312531 159.225635 
L 543.921853 157.574937 
L 542.517455 155.934847 
L 541.099396 154.305452 
L 539.667738 152.686844 
L 538.22254 151.079111 
L 536.763865 149.482341 
L 535.291774 147.896623 
L 533.80633 146.322045 
L 532.307596 144.758695 
L 530.795635 143.206659 
L 529.27051 141.666026 
L 527.732287 140.136881 
L 526.181029 138.619311 
L 524.616801 137.113401 
L 523.039671 135.619238 
L 521.449702 134.136906 
" clip-path="url(#pd41133229d)" style="fill: none; stroke: #2e6be5; stroke-opacity: 0.75; stroke-width: 1.5; stroke-linecap: square"/>
   </g>
   <g id="line2d_18">
    <path d="M 591.36 238.915636 
L 590.978014 236.788067 
L 590.587676 234.662144 
L 590.18899 232.537892 
L 589.78196 230.41534 
L 589.366592 228.294514 
L 588.942892 226.175441 
L 588.510863 224.058147 
L 588.070512 221.94266 
L 587.621843 219.829005 
L 587.164863 217.717211 
L 586.699576 215.607303 
L 586.225988 213.499308 
L 585.744104 211.393253 
L 585.253931 209.289164 
L 584.755473 207.187069 
L 584.248738 205.086994 
L 583.733729 202.988965 
L 583.210455 200.893009 
L 582.678919 198.799153 
L 582.139129 196.707424 
L 581.591091 194.617847 
L 581.034811 192.530449 
L 580.470294 190.445257 
L 579.897549 188.362298 
L 579.31658 186.281598 
L 578.727394 184.203182 
L 578.129998 182.127079 
L 577.524399 180.053314 
L 576.910603 177.981913 
L 576.288617 175.912904 
L 575.658447 173.846311 
L 575.020102 171.782163 
L 574.373587 169.720484 
L 573.718909 167.661302 
L 573.056076 165.604643 
L 572.385096 163.550533 
L 571.705974 161.498997 
L 571.018719 159.450063 
L 570.323338 157.403757 
L 569.619838 155.360105 
L 568.908226 153.319133 
L 568.188512 151.280866 
L 567.460701 149.245333 
L 566.724802 147.212557 
L 565.980822 145.182566 
L 565.22877 143.155386 
L 564.468653 141.131042 
L 563.70048 139.109561 
L 562.924258 137.090968 
L 562.139995 135.07529 
L 561.347701 133.062552 
L 560.547382 131.052781 
L 559.739047 129.046003 
L 558.922705 127.042242 
L 558.098365 125.041526 
L 557.266034 123.04388 
L 556.425721 121.049329 
L 555.577435 119.0579 
L 554.721185 117.069619 
" clip-path="url(#pd41133229d)" style="fill: none; stroke: #2e6be5; stroke-opacity: 0.75; stroke-width: 1.5; stroke-linecap: square"/>
   </g>
   <g id="line2d_19">
    <path d="M 591.36 238.915636 
L 591.36 236.750977 
L 591.36 234.586317 
L 591.36 232.421658 
L 591.36 230.256998 
L 591.36 228.092339 
L 591.36 225.92768 
L 591.36 223.76302 
L 591.36 221.598361 
L 591.36 219.433701 
L 591.36 217.269042 
L 591.36 215.104382 
L 591.36 212.939723 
L 591.36 210.775063 
L 591.36 208.610404 
L 591.36 206.445744 
L 591.36 204.281085 
L 591.36 202.116425 
L 591.36 199.951766 
L 591.36 197.787106 
L 591.36 195.622447 
L 591.36 193.457787 
L 591.36 191.293128 
L 591.36 189.128468 
L 591.36 186.963809 
L 591.36 184.799149 
L 591.36 182.63449 
L 591.36 180.469831 
L 591.36 178.305171 
L 591.36 176.140512 
L 591.36 173.975852 
L 591.36 171.811193 
L 591.36 169.646533 
L 591.36 167.481874 
L 591.36 165.317214 
L 591.36 163.152555 
L 591.36 160.987895 
L 591.36 158.823236 
L 591.36 156.658576 
L 591.36 154.493917 
L 591.36 152.329257 
L 591.36 150.164598 
L 591.36 147.999938 
L 591.36 145.835279 
L 591.36 143.670619 
L 591.36 141.50596 
L 591.36 139.3413 
L 591.36 137.176641 
L 591.36 135.011982 
L 591.36 132.847322 
L 591.36 130.682663 
L 591.36 128.518003 
L 591.36 126.353344 
L 591.36 124.188684 
L 591.36 122.024025 
L 591.36 119.859365 
L 591.36 117.694706 
L 591.36 115.530046 
L 591.36 113.365387 
L 591.36 111.200727 
" clip-path="url(#pd41133229d)" style="fill: none; stroke: #2e6be5; stroke-opacity: 0.75; stroke-width: 1.5; stroke-linecap: square"/>
   </g>
   <g id="line2d_20">
    <path d="M 591.36 238.915636 
L 591.741986 236.788067 
L 592.132324 234.662144 
L 592.53101 232.537892 
L 592.93804 230.41534 
L 593.353408 228.294514 
L 593.777108 226.175441 
L 594.209137 224.058147 
L 594.649488 221.94266 
L 595.098157 219.829005 
L 595.555137 217.717211 
L 596.020424 215.607303 
L 596.494012 213.499308 
L 596.975896 211.393253 
L 597.466069 209.289164 
L 597.964527 207.187069 
L 598.471262 205.086994 
L 598.986271 202.988965 
L 599.509545 200.893009 
L 600.041081 198.799153 
L 600.580871 196.707424 
L 601.128909 194.617847 
L 601.685189 192.530449 
L 602.249706 190.445257 
L 602.822451 188.362298 
L 603.40342 186.281598 
L 603.992606 184.203182 
L 604.590002 182.127079 
L 605.195601 180.053314 
L 605.809397 177.981913 
L 606.431383 175.912904 
L 607.061553 173.846311 
L 607.699898 171.782163 
L 608.346413 169.720484 
L 609.001091 167.661302 
L 609.663924 165.604643 
L 610.334904 163.550533 
L 611.014026 161.498997 
L 611.701281 159.450063 
L 612.396662 157.403757 
L 613.100162 155.360105 
L 613.811774 153.319133 
L 614.531488 151.280866 
L 615.259299 149.245333 
L 615.995198 147.212557 
L 616.739178 145.182566 
L 617.49123 143.155386 
L 618.251347 141.131042 
L 619.01952 139.109561 
L 619.795742 137.090968 
L 620.580005 135.07529 
L 621.372299 133.062552 
L 622.172618 131.052781 
L 622.980953 129.046003 
L 623.797295 127.042242 
L 624.621635 125.041526 
L 625.453966 123.04388 
L 626.294279 121.049329 
L 627.142565 119.0579 
L 627.998815 117.069619 
" clip-path="url(#pd41133229d)" style="fill: none; stroke: #2e6be5; stroke-opacity: 0.75; stroke-width: 1.5; stroke-linecap: square"/>
   </g>
   <g id="line2d_21">
    <path d="M 591.36 238.915636 
L 592.110881 236.898067 
L 592.877594 234.886966 
L 593.660102 232.882435 
L 594.458364 230.884574 
L 595.272343 228.893487 
L 596.101998 226.909272 
L 596.947289 224.932032 
L 597.808174 222.961866 
L 598.684613 220.998875 
L 599.576563 219.04316 
L 600.483982 217.094819 
L 601.406826 215.153953 
L 602.345053 213.220661 
L 603.298617 211.295041 
L 604.267475 209.377193 
L 605.251582 207.467216 
L 606.250891 205.565207 
L 607.265356 203.671265 
L 608.294932 201.785488 
L 609.33957 199.907973 
L 610.399223 198.038817 
L 611.473843 196.178117 
L 612.563381 194.325971 
L 613.667788 192.482474 
L 614.787014 190.647723 
L 615.921009 188.821813 
L 617.069722 187.004841 
L 618.233102 185.196901 
L 619.411097 183.398089 
L 620.603655 181.6085 
L 621.810724 179.828227 
L 623.032249 178.057365 
L 624.268177 176.296008 
L 625.518455 174.54425 
L 626.783027 172.802183 
L 628.061837 171.069901 
L 629.354832 169.347496 
L 630.661953 167.63506 
L 631.983145 165.932686 
L 633.318351 164.240466 
L 634.667512 162.558489 
L 636.030571 160.886849 
L 637.407469 159.225635 
L 638.798147 157.574937 
L 640.202545 155.934847 
L 641.620604 154.305452 
L 643.052262 152.686844 
L 644.49746 151.079111 
L 645.956135 149.482341 
L 647.428226 147.896623 
L 648.91367 146.322045 
L 650.412404 144.758695 
L 651.924365 143.206659 
L 653.44949 141.666026 
L 654.987713 140.136881 
L 656.538971 138.619311 
L 658.103199 137.113401 
L 659.680329 135.619238 
L 661.270298 134.136906 
" clip-path="url(#pd41133229d)" style="fill: none; stroke: #2e6be5; stroke-opacity: 0.75; stroke-width: 1.5; stroke-linecap: square"/>
   </g>
   <g id="line2d_22">
    <path d="M 591.36 238.915636 
L 592.454044 237.077207 
L 593.569704 235.252909 
L 594.706855 233.442951 
L 595.865368 231.647539 
L 597.045116 229.866879 
L 598.245969 228.101176 
L 599.467794 226.350633 
L 600.710457 224.615453 
L 601.973825 222.895837 
L 603.257759 221.191985 
L 604.562121 219.504096 
L 605.886773 217.832368 
L 607.231572 216.176998 
L 608.596376 214.538181 
L 609.981039 212.916111 
L 611.385416 211.310981 
L 612.80936 209.722982 
L 614.252721 208.152306 
L 615.71535 206.599141 
L 617.197092 205.063675 
L 618.697797 203.546094 
L 620.217307 202.046585 
L 621.755468 200.565331 
L 623.31212 199.102514 
L 624.887105 197.658316 
L 626.480262 196.232917 
L 628.091429 194.826495 
L 629.720441 193.439228 
L 631.367135 192.071291 
L 633.031343 190.722859 
L 634.712898 189.394105 
L 636.41163 188.0852 
L 638.12737 186.796314 
L 639.859945 185.527617 
L 641.609182 184.279275 
L 643.374906 183.051454 
L 645.156942 181.844319 
L 646.955112 180.658032 
L 648.769238 179.492755 
L 650.59914 178.348648 
L 652.444637 177.225868 
L 654.305547 176.124573 
L 656.181686 175.044917 
L 658.072869 173.987055 
L 659.978911 172.951139 
L 661.899624 171.937319 
L 663.834819 170.945744 
L 665.784307 169.976561 
L 667.747897 169.029917 
L 669.725397 168.105956 
L 671.716614 167.204819 
L 673.721354 166.326649 
L 675.73942 165.471584 
L 677.770616 164.639762 
L 679.814746 163.831319 
L 681.871609 163.04639 
L 683.941006 162.285107 
L 686.022736 161.5476 
L 688.116596 160.834 
" clip-path="url(#pd41133229d)" style="fill: none; stroke: #2e6be5; stroke-opacity: 0.75; stroke-width: 1.5; stroke-linecap: square"/>
   </g>
   <g id="text_5">
    <!-- spread exponentially -->
    <g style="fill: #888888" transform="translate(549.461875 251.687127) scale(0.08 -0.08)">
     <defs>
      <path id="DejaVuSans-78" d="M 3513 3500 
L 2247 1797 
L 3578 0 
L 2900 0 
L 1881 1375 
L 863 0 
L 184 0 
L 1544 1831 
L 300 3500 
L 978 3500 
L 1906 2253 
L 2834 3500 
L 3513 3500 
z
" transform="scale(0.015625)"/>
      <path id="DejaVuSans-79" d="M 2059 -325 
Q 1816 -950 1584 -1140 
Q 1353 -1331 966 -1331 
L 506 -1331 
L 506 -850 
L 844 -850 
Q 1081 -850 1212 -737 
Q 1344 -625 1503 -206 
L 1606 56 
L 191 3500 
L 800 3500 
L 1894 763 
L 2988 3500 
L 3597 3500 
L 2059 -325 
z
" transform="scale(0.015625)"/>
     </defs>
     <use xlink:href="#DejaVuSans-73"/>
     <use xlink:href="#DejaVuSans-70" x="52.099609"/>
     <use xlink:href="#DejaVuSans-72" x="115.576172"/>
     <use xlink:href="#DejaVuSans-65" x="154.439453"/>
     <use xlink:href="#DejaVuSans-61" x="215.962891"/>
     <use xlink:href="#DejaVuSans-64" x="277.242188"/>
     <use xlink:href="#DejaVuSans-20" x="340.71875"/>
     <use xlink:href="#DejaVuSans-65" x="372.505859"/>
     <use xlink:href="#DejaVuSans-78" x="432.279297"/>
     <use xlink:href="#DejaVuSans-70" x="491.458984"/>
     <use xlink:href="#DejaVuSans-6f" x="554.935547"/>
     <use xlink:href="#DejaVuSans-6e" x="616.117188"/>
     <use xlink:href="#DejaVuSans-65" x="679.496094"/>
     <use xlink:href="#DejaVuSans-6e" x="741.019531"/>
     <use xlink:href="#DejaVuSans-74" x="804.398438"/>
     <use xlink:href="#DejaVuSans-69" x="843.607422"/>
     <use xlink:href="#DejaVuSans-61" x="871.390625"/>
     <use xlink:href="#DejaVuSans-6c" x="932.669922"/>
     <use xlink:href="#DejaVuSans-6c" x="960.453125"/>
     <use xlink:href="#DejaVuSans-79" x="988.236328"/>
    </g>
   </g>
   <g id="text_6">
    <!-- $K &lt; 0$  (hyperbolic $H^2$) -->
    <g transform="translate(537.41 62.053875) scale(0.1 -0.1)">
     <defs>
      <path id="DejaVuSans-3c" d="M 4684 3150 
L 1459 2003 
L 4684 863 
L 4684 294 
L 678 1747 
L 678 2266 
L 4684 3719 
L 4684 3150 
z
" transform="scale(0.015625)"/>
      <path id="DejaVuSans-62" d="M 3116 1747 
Q 3116 2381 2855 2742 
Q 2594 3103 2138 3103 
Q 1681 3103 1420 2742 
Q 1159 2381 1159 1747 
Q 1159 1113 1420 752 
Q 1681 391 2138 391 
Q 2594 391 2855 752 
Q 3116 1113 3116 1747 
z
M 1159 2969 
Q 1341 3281 1617 3432 
Q 1894 3584 2278 3584 
Q 2916 3584 3314 3078 
Q 3713 2572 3713 1747 
Q 3713 922 3314 415 
Q 2916 -91 2278 -91 
Q 1894 -91 1617 61 
Q 1341 213 1159 525 
L 1159 0 
L 581 0 
L 581 4863 
L 1159 4863 
L 1159 2969 
z
" transform="scale(0.015625)"/>
      <path id="DejaVuSans-Oblique-48" d="M 1081 4666 
L 1716 4666 
L 1344 2753 
L 3634 2753 
L 4006 4666 
L 4641 4666 
L 3731 0 
L 3097 0 
L 3531 2222 
L 1241 2222 
L 806 0 
L 172 0 
L 1081 4666 
z
" transform="scale(0.015625)"/>
     </defs>
     <use xlink:href="#DejaVuSans-Oblique-4b" transform="translate(0 0.765625)"/>
     <use xlink:href="#DejaVuSans-3c" transform="translate(85.058594 0.765625)"/>
     <use xlink:href="#DejaVuSans-30" transform="translate(188.330078 0.765625)"/>
     <use xlink:href="#DejaVuSans-20" transform="translate(251.953125 0.765625)"/>
     <use xlink:href="#DejaVuSans-20" transform="translate(283.740234 0.765625)"/>
     <use xlink:href="#DejaVuSans-28" transform="translate(315.527344 0.765625)"/>
     <use xlink:href="#DejaVuSans-68" transform="translate(354.541016 0.765625)"/>
     <use xlink:href="#DejaVuSans-79" transform="translate(417.919922 0.765625)"/>
     <use xlink:href="#DejaVuSans-70" transform="translate(477.099609 0.765625)"/>
     <use xlink:href="#DejaVuSans-65" transform="translate(540.576172 0.765625)"/>
     <use xlink:href="#DejaVuSans-72" transform="translate(602.099609 0.765625)"/>
     <use xlink:href="#DejaVuSans-62" transform="translate(643.212891 0.765625)"/>
     <use xlink:href="#DejaVuSans-6f" transform="translate(706.689453 0.765625)"/>
     <use xlink:href="#DejaVuSans-6c" transform="translate(767.871094 0.765625)"/>
     <use xlink:href="#DejaVuSans-69" transform="translate(795.654297 0.765625)"/>
     <use xlink:href="#DejaVuSans-63" transform="translate(823.4375 0.765625)"/>
     <use xlink:href="#DejaVuSans-20" transform="translate(878.417969 0.765625)"/>
     <use xlink:href="#DejaVuSans-Oblique-48" transform="translate(910.205078 0.765625)"/>
     <use xlink:href="#DejaVuSans-32" transform="translate(992.417161 39.046875) scale(0.7)"/>
     <use xlink:href="#DejaVuSans-29" transform="translate(1039.687669 0.765625)"/>
    </g>
    <!-- geodesics diverge -->
    <g transform="translate(546.044375 73.272) scale(0.1 -0.1)">
     <use xlink:href="#DejaVuSans-67"/>
     <use xlink:href="#DejaVuSans-65" x="63.476562"/>
     <use xlink:href="#DejaVuSans-6f" x="125"/>
     <use xlink:href="#DejaVuSans-64" x="186.181641"/>
     <use xlink:href="#DejaVuSans-65" x="249.658203"/>
     <use xlink:href="#DejaVuSans-73" x="311.181641"/>
     <use xlink:href="#DejaVuSans-69" x="363.28125"/>
     <use xlink:href="#DejaVuSans-63" x="391.064453"/>
     <use xlink:href="#DejaVuSans-73" x="446.044922"/>
     <use xlink:href="#DejaVuSans-20" x="498.144531"/>
     <use xlink:href="#DejaVuSans-64" x="529.931641"/>
     <use xlink:href="#DejaVuSans-69" x="593.408203"/>
     <use xlink:href="#DejaVuSans-76" x="621.191406"/>
     <use xlink:href="#DejaVuSans-65" x="680.371094"/>
     <use xlink:href="#DejaVuSans-72" x="741.894531"/>
     <use xlink:href="#DejaVuSans-67" x="781.257812"/>
     <use xlink:href="#DejaVuSans-65" x="844.734375"/>
    </g>
   </g>
   <g id="PathCollection_2">
    <g clip-path="url(#pd41133229d)">
     <use xlink:href="#mefa2c4dada" x="591.36" y="238.915636" style="fill: #e8850a; stroke: #e8850a"/>
    </g>
   </g>
  </g>
  <g id="text_7">
   <!-- Sectional curvature determines geodesic behaviour -->
   <g transform="translate(200.140312 16.318125) scale(0.12 -0.12)">
    <defs>
     <path id="DejaVuSans-53" d="M 3425 4513 
L 3425 3897 
Q 3066 4069 2747 4153 
Q 2428 4238 2131 4238 
Q 1616 4238 1336 4038 
Q 1056 3838 1056 3469 
Q 1056 3159 1242 3001 
Q 1428 2844 1947 2747 
L 2328 2669 
Q 3034 2534 3370 2195 
Q 3706 1856 3706 1288 
Q 3706 609 3251 259 
Q 2797 -91 1919 -91 
Q 1588 -91 1214 -16 
Q 841 59 441 206 
L 441 856 
Q 825 641 1194 531 
Q 1563 422 1919 422 
Q 2459 422 2753 634 
Q 3047 847 3047 1241 
Q 3047 1584 2836 1778 
Q 2625 1972 2144 2069 
L 1759 2144 
Q 1053 2284 737 2584 
Q 422 2884 422 3419 
Q 422 4038 858 4394 
Q 1294 4750 2059 4750 
Q 2388 4750 2728 4690 
Q 3069 4631 3425 4513 
z
" transform="scale(0.015625)"/>
    </defs>
    <use xlink:href="#DejaVuSans-53"/>
    <use xlink:href="#DejaVuSans-65" x="63.476562"/>
    <use xlink:href="#DejaVuSans-63" x="125"/>
    <use xlink:href="#DejaVuSans-74" x="179.980469"/>
    <use xlink:href="#DejaVuSans-69" x="219.189453"/>
    <use xlink:href="#DejaVuSans-6f" x="246.972656"/>
    <use xlink:href="#DejaVuSans-6e" x="308.154297"/>
    <use xlink:href="#DejaVuSans-61" x="371.533203"/>
    <use xlink:href="#DejaVuSans-6c" x="432.8125"/>
    <use xlink:href="#DejaVuSans-20" x="460.595703"/>
    <use xlink:href="#DejaVuSans-63" x="492.382812"/>
    <use xlink:href="#DejaVuSans-75" x="547.363281"/>
    <use xlink:href="#DejaVuSans-72" x="610.742188"/>
    <use xlink:href="#DejaVuSans-76" x="651.855469"/>
    <use xlink:href="#DejaVuSans-61" x="711.035156"/>
    <use xlink:href="#DejaVuSans-74" x="772.314453"/>
    <use xlink:href="#DejaVuSans-75" x="811.523438"/>
    <use xlink:href="#DejaVuSans-72" x="874.902344"/>
    <use xlink:href="#DejaVuSans-65" x="913.765625"/>
    <use xlink:href="#DejaVuSans-20" x="975.289062"/>
    <use xlink:href="#DejaVuSans-64" x="1007.076172"/>
    <use xlink:href="#DejaVuSans-65" x="1070.552734"/>
    <use xlink:href="#DejaVuSans-74" x="1132.076172"/>
    <use xlink:href="#DejaVuSans-65" x="1171.285156"/>
    <use xlink:href="#DejaVuSans-72" x="1232.808594"/>
    <use xlink:href="#DejaVuSans-6d" x="1272.171875"/>
    <use xlink:href="#DejaVuSans-69" x="1369.583984"/>
    <use xlink:href="#DejaVuSans-6e" x="1397.367188"/>
    <use xlink:href="#DejaVuSans-65" x="1460.746094"/>
    <use xlink:href="#DejaVuSans-73" x="1522.269531"/>
    <use xlink:href="#DejaVuSans-20" x="1574.369141"/>
    <use xlink:href="#DejaVuSans-67" x="1606.15625"/>
    <use xlink:href="#DejaVuSans-65" x="1669.632812"/>
    <use xlink:href="#DejaVuSans-6f" x="1731.15625"/>
    <use xlink:href="#DejaVuSans-64" x="1792.337891"/>
    <use xlink:href="#DejaVuSans-65" x="1855.814453"/>
    <use xlink:href="#DejaVuSans-73" x="1917.337891"/>
    <use xlink:href="#DejaVuSans-69" x="1969.4375"/>
    <use xlink:href="#DejaVuSans-63" x="1997.220703"/>
    <use xlink:href="#DejaVuSans-20" x="2052.201172"/>
    <use xlink:href="#DejaVuSans-62" x="2083.988281"/>
    <use xlink:href="#DejaVuSans-65" x="2147.464844"/>
    <use xlink:href="#DejaVuSans-68" x="2208.988281"/>
    <use xlink:href="#DejaVuSans-61" x="2272.367188"/>
    <use xlink:href="#DejaVuSans-76" x="2333.646484"/>
    <use xlink:href="#DejaVuSans-69" x="2392.826172"/>
    <use xlink:href="#DejaVuSans-6f" x="2420.609375"/>
    <use xlink:href="#DejaVuSans-75" x="2481.791016"/>
    <use xlink:href="#DejaVuSans-72" x="2545.169922"/>
   </g>
  </g>
 </g>
 <defs>
  <clipPath id="pc12faca17a">
   <rect x="7.2" y="111.036" width="224.16" height="112.08"/>
  </clipPath>
  <clipPath id="pa6b947c794">
   <rect x="243.24" y="79.272" width="224.16" height="175.608"/>
  </clipPath>
  <clipPath id="pd41133229d">
   <rect x="479.28" y="79.272" width="224.16" height="175.608"/>
  </clipPath>
 </defs>
</svg>
